<svg width="315" height="384" viewBox="0 0 315 384" fill="none" xmlns="http://www.w3.org/2000/svg">
<path d="M257.76 372.735L271.19 363.535C272.181 362.465 272.941 361.202 273.425 359.826C273.908 358.45 274.104 356.99 274 355.535L267.24 263.415L132.88 361.415C113.86 361.415 257.76 372.735 257.76 372.735Z" fill="#51C694"/>
<path d="M-99.78 360.165H313.78" stroke="#151116" stroke-linecap="round" stroke-linejoin="round"/>
<path d="M82.96 372.735H257.68L267.24 263.395H92.52L82.96 372.735Z" fill="#51C694" stroke="#151116" stroke-linecap="round" stroke-linejoin="round"/>
<path d="M166.59 322.015C171.12 325.615 177.75 325.615 182.92 322.015L267.24 263.415L257.68 372.755H83L92.52 263.415L166.59 322.015Z" fill="#51C694"/>
<mask id="mask0_1847_945" style="mask-type:luminance" maskUnits="userSpaceOnUse" x="83" y="263" width="185" height="110">
<path d="M166.59 322.015C171.12 325.615 177.75 325.615 182.92 322.015L267.24 263.415L257.68 372.755H83L92.52 263.415L166.59 322.015Z" fill="white"/>
</mask>
<g mask="url(#mask0_1847_945)">
<path opacity="0.4" d="M166.59 322.015C171.12 325.615 177.75 325.615 182.92 322.015L267.24 263.415L257.68 372.755H83L92.52 263.415L166.59 322.015Z" fill="white"/>
</g>
<path d="M166.59 322.015C171.12 325.615 177.75 325.615 182.92 322.015L267.24 263.415L257.68 372.755H83L92.52 263.415L166.59 322.015Z" stroke="#151116" stroke-linecap="round" stroke-linejoin="round"/>
<path d="M83 372.735H257.68L183.61 314.105C179.07 310.515 172.45 310.515 167.28 314.105L83 372.735Z" fill="#51C694"/>
<mask id="mask1_1847_945" style="mask-type:luminance" maskUnits="userSpaceOnUse" x="83" y="311" width="175" height="62">
<path d="M83 372.735H257.68L183.61 314.105C179.07 310.515 172.45 310.515 167.28 314.105L83 372.735Z" fill="white"/>
</mask>
<g mask="url(#mask1_1847_945)">
<path opacity="0.3" d="M83 372.735H257.68L183.61 314.105C179.07 310.515 172.45 310.515 167.28 314.105L83 372.735Z" fill="white"/>
</g>
<path d="M83 372.735H257.68L183.61 314.105C179.07 310.515 172.45 310.515 167.28 314.105L83 372.735Z" stroke="#151116" stroke-linecap="round" stroke-linejoin="round"/>
<path d="M92.52 263.415H267.24L172.34 204.785C166.53 201.195 159.9 201.195 156.01 204.785L92.52 263.415Z" fill="white" stroke="#151116" stroke-linecap="round" stroke-linejoin="round"/>
<path d="M82.6799 352.765L91.3299 365.285C91.3299 365.285 93.6499 370.395 95.0399 373.485C96.4299 376.575 95.1899 382.485 97.8299 382.485C101.41 382.485 102.62 374.915 102.77 369.035C102.92 363.155 105.37 353.115 100.21 353.735H95.0399L88.7099 344.735L82.6799 352.765Z" fill="white" stroke="#151116" stroke-linecap="round" stroke-linejoin="round"/>
<path d="M97.5399 357.345L96.0799 361.735C96.0799 361.735 92.5599 360.655 91.1999 361.735C89.8399 362.815 91.3299 365.285 91.3299 365.285C91.3299 365.285 93.6499 370.395 95.0399 373.485C96.4299 376.575 95.1899 382.485 97.8299 382.485C101.41 382.485 102.62 374.915 102.77 369.035C102.92 363.155 105.37 353.115 100.21 353.735H95.0399C94.8699 355.155 95.9399 355.055 96.8699 355.535C97.1827 355.703 97.4233 355.98 97.5467 356.313C97.67 356.647 97.6676 357.013 97.5399 357.345Z" fill="#51C694" stroke="#151116" stroke-linecap="round" stroke-linejoin="round"/>
<path d="M93.05 365.015C93.05 365.015 97.63 362.335 97.89 365.515C98.15 368.695 93.05 365.015 93.05 365.015Z" stroke="#151116" stroke-linecap="round" stroke-linejoin="round"/>
<path d="M93.08 369.135C93.08 369.135 92.65 367.135 96.08 367.135" stroke="#151116" stroke-linecap="round" stroke-linejoin="round"/>
<path d="M94.24 370.865C94.24 370.865 93.82 368.865 97.24 368.865" stroke="#151116" stroke-linecap="round" stroke-linejoin="round"/>
<path d="M92.75 365.135C92.75 365.135 87.91 367.305 90.34 369.365C92.77 371.425 92.75 365.135 92.75 365.135Z" stroke="#151116" stroke-linecap="round" stroke-linejoin="round"/>
<path d="M101.74 358.795C101.74 363.705 101.07 366.665 100.44 374.565C99.9501 380.815 97.9001 381.115 96.0801 380.025C96.3101 381.435 96.7301 382.455 97.8301 382.445C101.41 382.445 102.62 374.875 102.77 368.995C102.92 363.115 105.37 353.075 100.21 353.695C100.21 353.695 101.71 353.895 101.74 358.795Z" fill="#151116" stroke="#151116" stroke-linecap="round" stroke-linejoin="round"/>
<path d="M74.3901 249.555C78.2883 252.003 82.9559 252.919 87.4901 252.125C95.0901 250.775 98.3001 250.015 98.3001 250.015C98.3001 250.015 106.73 273.235 98.8001 284.955C90.8701 296.675 76.8001 322.665 76.8001 322.665C76.8001 322.665 81.8001 325.345 79.8001 326.085C79.8001 326.085 84.4401 329.985 88.8001 341.335C88.8001 341.335 90.6301 345.725 92.2201 346.095C92.2201 346.095 89.5401 356.645 83.2201 356.465C83.2201 356.465 75.6501 346.465 68.9401 340.115C66.4001 337.715 62.6601 333.755 60.4601 331.415C59.2736 330.144 58.625 328.464 58.6501 326.725C58.7001 323.785 71.0101 266.275 73.3301 266.645C73.3301 266.645 71.2601 262.985 73.4501 261.025C73.0892 257.176 73.4074 253.294 74.3901 249.555Z" fill="#51C694"/>
<mask id="mask2_1847_945" style="mask-type:luminance" maskUnits="userSpaceOnUse" x="58" y="249" width="45" height="108">
<path d="M74.3901 249.555C78.2883 252.003 82.9559 252.919 87.4901 252.125C95.0901 250.775 98.3001 250.015 98.3001 250.015C98.3001 250.015 106.73 273.235 98.8001 284.955C90.8701 296.675 76.8001 322.665 76.8001 322.665C76.8001 322.665 81.8001 325.345 79.8001 326.085C79.8001 326.085 84.4401 329.985 88.8001 341.335C88.8001 341.335 90.6301 345.725 92.2201 346.095C92.2201 346.095 89.5401 356.645 83.2201 356.465C83.2201 356.465 75.6501 346.465 68.9401 340.115C66.4001 337.715 62.6601 333.755 60.4601 331.415C59.2736 330.144 58.625 328.464 58.6501 326.725C58.7001 323.785 71.0101 266.275 73.3301 266.645C73.3301 266.645 71.2601 262.985 73.4501 261.025C73.0892 257.176 73.4074 253.294 74.3901 249.555Z" fill="white"/>
</mask>
<g mask="url(#mask2_1847_945)">
<path opacity="0.3" d="M82.9202 330.205C82.9202 330.205 80.7602 326.815 74.0902 325.025C67.4202 323.235 76.3202 308.025 82.2202 298.825C87.8902 289.995 95.3202 282.825 92.2802 273.235C89.2402 263.645 104.91 282.235 104.91 282.235L95.4002 301.115L87.2002 313.645L82.5502 324.225L82.9202 330.205Z" fill="black"/>
</g>
<path d="M74.3901 249.555C78.2883 252.003 82.9559 252.919 87.4901 252.125C95.0901 250.775 98.3001 250.015 98.3001 250.015C98.3001 250.015 106.73 273.235 98.8001 284.955C90.8701 296.675 76.8001 322.665 76.8001 322.665C76.8001 322.665 81.8001 325.345 79.8001 326.085C79.8001 326.085 84.4401 329.985 88.8001 341.335C88.8001 341.335 90.6301 345.725 92.2201 346.095C92.2201 346.095 89.5401 356.645 83.2201 356.465C83.2201 356.465 75.6501 346.465 68.9401 340.115C66.4001 337.715 62.6601 333.755 60.4601 331.415C59.2736 330.144 58.625 328.464 58.6501 326.725C58.7001 323.785 71.0101 266.275 73.3301 266.645C73.3301 266.645 71.2601 262.985 73.4501 261.025C73.0892 257.176 73.4074 253.294 74.3901 249.555Z" stroke="#151116" stroke-linecap="round" stroke-linejoin="round"/>
<path d="M81.3801 269.605C82.4801 270.055 83.6601 270.605 84.8001 271.115C87.2501 272.315 89.5301 273.725 90.5001 275.165C93.0601 278.975 86.8401 275.165 82.5701 275.165" stroke="#151116" stroke-linecap="round" stroke-linejoin="round"/>
<path d="M76.22 267.745C76.22 267.745 77.35 268.095 78.99 268.685" stroke="#151116" stroke-linecap="round" stroke-linejoin="round"/>
<path d="M78.29 327.175C78.29 327.175 75.98 328.645 68.77 327.175" stroke="#151116" stroke-linecap="round" stroke-linejoin="round"/>
<path d="M73.53 321.935C73.53 321.935 64.38 318.025 67.07 314.115" stroke="#151116" stroke-linecap="round" stroke-linejoin="round"/>
<path d="M146.72 297.685C144.98 298.955 139.4 302.245 139.4 302.245L142.98 310.865C142.98 310.865 150.16 304.625 152.58 302.565L157.33 298.565L151.03 294.015C151.03 294.015 147.86 296.855 146.72 297.685Z" fill="white" stroke="#151116" stroke-linecap="round" stroke-linejoin="round"/>
<path d="M87.49 252.125C87.49 252.125 88.81 263.725 95 280.515C96.4331 284.376 97.1875 288.456 97.23 292.575C97.35 306.655 101.66 336.575 111.9 336.065C124.9 335.415 140.21 311.355 144.77 312.005C144.77 312.005 145.42 302.245 139.56 301.265C139.56 301.265 125.56 308.745 120.36 315.265C120.36 315.265 119.03 290.205 120.01 283.375C120.99 276.545 126.63 263.375 111.9 242.695C111.9 242.685 110.27 248.865 87.49 252.125Z" fill="#51C694"/>
<path d="M121 321.565C121.39 325.045 121.74 329.495 121.74 329.495" stroke="#151116" stroke-linecap="round" stroke-linejoin="round"/>
<path d="M118.53 328.415C119.431 325.496 119.935 322.469 120.03 319.415" stroke="#151116" stroke-linecap="round" stroke-linejoin="round"/>
<path d="M117.11 331.935C117.4 331.394 117.657 330.837 117.88 330.265" stroke="#151116" stroke-linecap="round" stroke-linejoin="round"/>
<path d="M107.45 271.505C108.075 271.569 108.692 271.699 109.29 271.895" stroke="#151116" stroke-linecap="round" stroke-linejoin="round"/>
<path d="M109.29 266.035C109.29 266.035 94.6499 272.865 95.3799 274.825C95.9899 276.435 100.44 271.825 105.84 271.485" stroke="#151116" stroke-linecap="round" stroke-linejoin="round"/>
<path d="M96.27 284.735C96.5234 285.775 96.7233 286.825 96.87 287.885C97.0901 289.439 97.2103 291.005 97.23 292.575C97.35 306.655 103.49 337.415 111.9 336.065C124.77 333.995 140.21 311.355 144.77 312.005C144.77 312.005 145.42 302.245 139.56 301.265C139.56 301.265 125.56 308.745 120.36 315.265C120.36 315.265 119.03 290.205 120.01 283.375C120.99 276.545 126.63 263.375 111.9 242.695" stroke="#151116" stroke-linecap="round" stroke-linejoin="round"/>
<path d="M90.8101 267.265C91.9001 270.855 93.5201 276.035 95.3501 281.325" stroke="#151116" stroke-linecap="round" stroke-linejoin="round"/>
<path d="M89.3801 262.415C89.3801 262.415 89.6401 263.315 90.0901 264.845" stroke="#151116" stroke-linecap="round" stroke-linejoin="round"/>
<path d="M174.75 298.535C174.91 298.716 175.02 298.936 175.072 299.172C175.123 299.408 175.113 299.653 175.043 299.885C174.973 300.116 174.845 300.326 174.671 300.494C174.497 300.662 174.283 300.783 174.05 300.845C172.824 301.117 171.557 301.147 170.32 300.935C164.95 300.285 152.58 302.565 152.58 302.565C152.419 301.943 152.482 301.285 152.758 300.705C153.034 300.125 153.506 299.661 154.09 299.395C156.22 298.255 150.24 296.725 150.24 296.725C150.24 296.725 148.45 298.455 146.72 297.725C147.078 293.978 148.817 290.499 151.6 287.965C153.11 286.665 154.6 285.965 159.47 289.095C164.09 292.095 169.05 291.925 174.75 298.535Z" fill="#51C694" stroke="#151116" stroke-linecap="round" stroke-linejoin="round"/>
<path d="M156.25 301.955C156.25 301.955 152.34 304.605 154.53 306.065C156.72 307.525 156.99 301.845 156.99 301.845C156.99 301.845 157.54 306.955 160.07 306.305C162.6 305.655 157.81 301.725 157.81 301.725L156.25 301.955Z" stroke="#151116" stroke-linecap="round" stroke-linejoin="round"/>
<path d="M159.27 301.535C159.102 301.029 159.064 300.489 159.161 299.965C159.257 299.44 159.484 298.949 159.82 298.535" stroke="#151116" stroke-linecap="round" stroke-linejoin="round"/>
<path d="M161.12 301.305C161.053 300.97 161.062 300.625 161.147 300.294C161.232 299.963 161.39 299.656 161.61 299.395" stroke="#151116" stroke-linecap="round" stroke-linejoin="round"/>
<path d="M174.42 300.685C174.596 300.576 174.746 300.431 174.86 300.258C174.974 300.086 175.049 299.89 175.081 299.686C175.112 299.482 175.099 299.273 175.042 299.074C174.985 298.876 174.885 298.692 174.75 298.535C169.05 291.925 164.09 292.095 159.47 289.055C154.64 285.885 153.11 286.625 151.6 287.925L151.3 288.205C153.975 288.633 156.525 289.639 158.77 291.155C164.36 294.685 165.58 292.865 171.92 298.315C172.8 299.055 173.634 299.846 174.42 300.685Z" fill="#151116" stroke="#151116" stroke-linecap="round" stroke-linejoin="round"/>
<path d="M114.3 242.685C104.3 237.295 109.3 198.215 109.3 198.215L113.37 190.595C107.46 193.675 107.64 178.395 107.64 178.395L95.75 188.415C75.54 191.735 73.93 185.415 73.93 185.415L70.6001 178.415C70.6001 178.415 64.43 195.415 62.29 190.135L64.29 198.235C64.29 198.235 60.9 216.235 67.29 220.535C67.29 220.535 76.0701 248.325 72.9901 250.695C72.9901 250.695 77.92 256.875 95.76 253.075C113.6 249.275 114.3 242.685 114.3 242.685Z" fill="#151116" stroke="#151116" stroke-linecap="round" stroke-linejoin="round"/>
<path d="M103.12 213.945C103.395 213.461 103.638 212.96 103.85 212.445" stroke="#7F7F7F" stroke-linecap="round" stroke-linejoin="round"/>
<path d="M99.76 217.985C100.737 217.224 101.591 216.317 102.29 215.295" stroke="#7F7F7F" stroke-linecap="round" stroke-linejoin="round"/>
<path d="M77.23 218.415C81.43 217.485 87.04 216.905 91.61 218.835" stroke="#7F7F7F" stroke-linecap="round" stroke-linejoin="round"/>
<path d="M71.1301 220.275C71.1301 220.275 72.2601 219.805 74.0701 219.275" stroke="#7F7F7F" stroke-linecap="round" stroke-linejoin="round"/>
<path d="M48.83 118.415C53.5392 128.72 57.7148 139.261 61.34 149.995C64.02 157.865 71.1301 182.065 71.1301 182.065C69.7701 190.375 63.6001 192.985 63.6001 192.985C63.6001 192.985 54.45 162.825 52.79 156.415C52.24 154.295 49.91 149.655 48.25 144.415C44.86 133.685 41.39 119.415 41.39 119.415C41.39 119.415 38.3901 117.665 39.1301 114.415C39.1301 114.415 37.95 112.515 40.2 110.495C42.45 108.475 45.32 105.215 47.2 106.215C49.5765 107.302 51.445 109.26 52.42 111.685C53.67 114.415 48.83 118.415 48.83 118.415Z" fill="white" stroke="#151116" stroke-linecap="round" stroke-linejoin="round"/>
<path d="M53.38 153.065C53.2333 153.769 53.2536 154.497 53.4394 155.192C53.6253 155.887 53.9714 156.528 54.45 157.065" stroke="#151116" stroke-linecap="round" stroke-linejoin="round"/>
<path d="M149.39 132.265C136.89 145.745 133.8 149.265 128.39 156.265C126.58 158.605 124.16 160.635 120.59 164.695C114.3 171.845 107.35 180.415 107.35 180.415C105.52 188.635 110.27 193.365 110.27 193.365C110.27 193.365 131.27 168.275 135.19 162.955C136.84 160.725 139.1 158.955 143.38 153.275C149.33 145.365 151.85 140.635 155.52 137.165C156.76 135.995 158.69 135.045 160.42 132.435C160.42 132.435 162.23 131.115 160.9 128.435C159.57 125.755 155.27 121.635 153.14 121.855C151.57 122.025 151.99 122.175 149.14 124.975C146.92 127.035 149.39 132.265 149.39 132.265Z" fill="white" stroke="#151116" stroke-linecap="round" stroke-linejoin="round"/>
<path d="M135.88 159.635C135.758 160.351 135.467 161.028 135.033 161.61C134.598 162.192 134.032 162.663 133.38 162.985" stroke="#151116" stroke-linecap="round" stroke-linejoin="round"/>
<path d="M72.46 175.335C72.46 175.335 81.02 191.015 99.31 183.955L104.2 171.705L104.5 163.425L97 152.115L90.77 151.115L85.85 152.255L79.85 157.075L76.7 159.575L73.55 167.775L72.46 175.335Z" fill="#151116" stroke="#151116" stroke-linecap="round" stroke-linejoin="round"/>
<path d="M76.7 187.955C76.7 187.955 75.44 195.455 83.04 196.295C90.64 197.135 93.62 188.775 93.62 188.775C93.62 188.775 91.47 189.675 91.83 187.345C92.2845 185.106 92.8824 182.898 93.62 180.735L81.94 177.295C81.94 177.295 81.64 190.415 76.7 187.955Z" fill="white"/>
<mask id="mask3_1847_945" style="mask-type:luminance" maskUnits="userSpaceOnUse" x="76" y="177" width="18" height="20">
<path d="M76.7 187.955C76.7 187.955 75.44 195.455 83.04 196.295C90.64 197.135 93.62 188.775 93.62 188.775C93.62 188.775 91.47 189.675 91.83 187.345C92.2845 185.106 92.8824 182.898 93.62 180.735L81.94 177.295C81.94 177.295 81.64 190.415 76.7 187.955Z" fill="white"/>
</mask>
<g mask="url(#mask3_1847_945)">
<path d="M81.11 160.685C81.11 160.685 77.67 170.685 77.96 174.175C78.4999 177.524 79.8262 180.698 81.83 183.435C82.6833 184.337 83.7017 185.067 84.83 185.585C86.0646 185.83 87.3353 185.83 88.57 185.585C91.7918 184.526 94.7156 182.717 97.1 180.305C99.34 177.665 102.38 167.505 102.38 167.505L99.69 156.415L92.5 152.415L85.81 153.555L81.11 160.685Z" fill="#151116" stroke="#151116" stroke-linecap="round" stroke-linejoin="round"/>
</g>
<path d="M76.7 187.955C76.7 187.955 75.44 195.455 83.04 196.295C90.64 197.135 93.62 188.775 93.62 188.775C93.62 188.775 91.47 189.675 91.83 187.345C92.2845 185.106 92.8824 182.898 93.62 180.735L81.94 177.295C81.94 177.295 81.64 190.415 76.7 187.955Z" stroke="#151116" stroke-linecap="round" stroke-linejoin="round"/>
<path d="M81.11 159.415C81.11 159.415 77.67 169.415 77.96 172.905C78.4985 176.252 79.825 179.422 81.83 182.155C82.6 183.17 83.6636 183.924 84.8764 184.314C86.0893 184.704 87.3927 184.711 88.61 184.335C91.8359 183.279 94.7635 181.469 97.15 179.055C99.39 176.415 102.43 166.255 102.43 166.255L99.69 155.125L92.5 151.185L85.81 152.325L81.11 159.415Z" fill="white" stroke="#151116" stroke-linecap="round" stroke-linejoin="round"/>
<path d="M88.56 166.415C88.6738 167.261 88.5973 168.123 88.3361 168.936C88.0749 169.749 87.6355 170.493 87.05 171.115L88.3201 173.575" stroke="#151116" stroke-linecap="round" stroke-linejoin="round"/>
<path d="M85.3501 175.925C85.3501 175.925 88.3501 177.675 90.5901 176.235C90.5901 176.235 89.7701 179.785 87.7801 179.545C85.7901 179.305 85.3501 175.925 85.3501 175.925Z" stroke="#151116" stroke-linecap="round" stroke-linejoin="round"/>
<path d="M86.54 166.585C86.33 167.235 85.85 167.655 85.47 167.585C85.09 167.515 84.95 166.835 85.15 166.195C85.35 165.555 85.84 165.115 86.22 165.245C86.6 165.375 86.74 165.935 86.54 166.585Z" fill="#151116"/>
<path d="M96 169.635C95.5211 169.21 94.9591 168.889 94.3497 168.693C93.7403 168.497 93.0968 168.429 92.46 168.495C92.46 168.495 93.46 166.585 96.06 167.615" stroke="#151116" stroke-linecap="round" stroke-linejoin="round"/>
<path d="M87.9999 163.545C87.9999 163.545 88.1099 162.305 85.7999 161.545C85.1489 161.323 84.4517 161.273 83.7755 161.399C83.0994 161.525 82.4671 161.823 81.9399 162.265" stroke="#151116" stroke-linecap="round" stroke-linejoin="round"/>
<path d="M92.29 165.665C92.51 166.445 92.66 164.475 95.08 164.665C95.7659 164.705 96.4297 164.921 97.0077 165.293C97.5857 165.664 98.0583 166.178 98.3801 166.785" stroke="#151116" stroke-linecap="round" stroke-linejoin="round"/>
<path d="M79.3001 159.965C79.3001 159.965 82.9901 162.035 88.9701 154.255C88.9701 154.255 97.9701 165.655 101.97 167.815C101.97 167.815 96.7901 172.695 96.2901 177.675C95.7901 182.655 95.9801 186.455 93.1801 186.925C93.1801 186.925 107.55 190.695 108.42 175.615C109.29 160.535 109.27 159.215 101.72 151.135C97.7201 146.865 92.0901 146.685 87.0901 148.015C82.6301 149.195 78.6901 151.405 76.9301 156.015C73.1901 165.835 62.2001 174.435 72.0201 181.625C81.8401 188.815 77.2601 175.625 77.2601 175.625C77.2601 175.625 75.3101 178.745 74.8301 175.415C74.1001 170.575 79.8001 167.415 79.3001 159.965Z" fill="#151116" stroke="#151116" stroke-linecap="round" stroke-linejoin="round"/>
<path d="M85.84 148.985C85.84 148.985 85.54 144.445 90.67 144.895C95.8 145.345 87.18 146.315 85.84 148.985Z" fill="#151116" stroke="#151116" stroke-linecap="round" stroke-linejoin="round"/>
<path d="M80.1899 161.895C80.2453 161.2 80.2453 160.501 80.1899 159.805" stroke="#7F7F7F" stroke-width="0.75" stroke-linecap="round" stroke-linejoin="round"/>
<path d="M75.7001 175.245C75.1501 171.445 78.5801 168.645 79.8101 164.005" stroke="#7F7F7F" stroke-width="0.75" stroke-linecap="round" stroke-linejoin="round"/>
<path d="M78.1299 175.415C78.1299 175.415 77.3699 176.635 76.6799 176.735" stroke="#7F7F7F" stroke-width="0.75" stroke-linecap="round" stroke-linejoin="round"/>
<path d="M78.3601 177.735C78.635 178.856 78.7528 180.011 78.7101 181.165" stroke="#7F7F7F" stroke-width="0.75" stroke-linecap="round" stroke-linejoin="round"/>
<path d="M96 181.165C96 181.165 95.88 184.165 95.23 185.215" stroke="#7F7F7F" stroke-width="0.75" stroke-linecap="round" stroke-linejoin="round"/>
<path d="M105 168.315C104.86 173.265 107.41 180.315 98.3501 185.215" stroke="#7F7F7F" stroke-width="0.75" stroke-linecap="round" stroke-linejoin="round"/>
<path d="M93.3201 150.845C95.7692 150.907 98.1034 151.897 99.8501 153.615C103.77 157.775 106.19 161.855 105.19 166.775" stroke="#7F7F7F" stroke-width="0.75" stroke-linecap="round" stroke-linejoin="round"/>
<path d="M89.0601 151.145C89.8361 150.972 90.6258 150.869 91.4201 150.835" stroke="#7F7F7F" stroke-width="0.75" stroke-linecap="round" stroke-linejoin="round"/>
<path d="M171.821 28.8917L40.3225 17.9663L32.173 116.053L163.671 126.979L171.821 28.8917Z" fill="white"/>
<path d="M163.563 128.03L32.0856 117.106C31.8122 117.084 31.559 116.953 31.3817 116.743C31.2045 116.534 31.1177 116.262 31.1404 115.988L39.2933 17.8596C39.3161 17.5856 39.4465 17.3319 39.656 17.1543C39.8654 16.9767 40.1367 16.8896 40.4102 16.9123L171.888 27.836C172.161 27.8588 172.415 27.9894 172.592 28.1992C172.769 28.4089 172.856 28.6807 172.833 28.9546L164.68 127.083C164.658 127.357 164.527 127.611 164.318 127.788C164.108 127.966 163.837 128.053 163.563 128.03ZM33.2883 115.126L162.704 125.879L170.684 29.8369L41.2679 19.0845L33.2883 115.126Z" fill="#263238"/>
<path d="M117.238 24.3569L94.8643 22.498L86.7148 120.585L109.088 122.444L117.238 24.3569Z" fill="#FFBD00"/>
<path d="M109.022 123.499L86.6274 121.638C86.356 121.61 86.106 121.478 85.9298 121.27C85.7536 121.061 85.6648 120.792 85.6822 120.52L93.8351 22.3913C93.863 22.1195 93.9949 21.869 94.2031 21.6924C94.4113 21.5158 94.6797 21.4268 94.9519 21.4441L117.346 23.3047C117.617 23.3325 117.867 23.4646 118.044 23.6731C118.22 23.8817 118.309 24.1505 118.291 24.4232L110.138 122.551C110.11 122.823 109.979 123.074 109.77 123.25C109.562 123.427 109.294 123.516 109.022 123.499ZM87.7476 119.651L108.162 121.347L116.142 25.3055L95.7271 23.6094L87.7476 119.651Z" fill="#263238"/>
<path d="M105.213 21.9016C105.213 21.9016 84.5201 7.05687 72.2454 4.10253C59.9707 1.14818 61.1133 17.8841 72.8913 19.8195C83.4423 21.5281 94.5963 21.2276 105.213 21.9016Z" fill="#263238"/>
<path d="M80.741 21.803C78.0396 21.5786 75.359 21.3558 72.7229 20.8456C70.5412 20.5529 68.4812 19.6677 66.766 18.2858C65.0509 16.904 63.746 15.0783 62.9927 13.0064C62.3022 11.6579 62.0495 10.1269 62.2697 8.62718C62.4899 7.1275 63.1721 5.73403 64.221 4.64135C65.27 3.54867 66.6333 2.81134 68.1205 2.53233C69.6077 2.25332 71.1447 2.44657 72.5167 3.08507C84.8567 6.00324 105.001 20.4488 105.864 21.0613C106.047 21.1922 106.182 21.3807 106.247 21.5971C106.312 21.8134 106.303 22.0453 106.221 22.2559C106.146 22.4661 106.004 22.6463 105.818 22.7695C105.632 22.8928 105.411 22.9525 105.188 22.9397C101.704 22.6502 98.0743 22.5983 94.5534 22.493C89.9773 22.3416 85.3188 22.1833 80.741 21.803ZM70.295 4.83498C69.479 4.69715 68.6419 4.75511 67.8525 5.0041C67.063 5.25309 66.3437 5.686 65.7535 6.26734C65.1258 7.13089 64.7307 8.14178 64.6062 9.20257C64.4817 10.2634 64.632 11.3383 65.0426 12.3238C65.6697 14.0359 66.7517 15.5437 68.1718 16.6845C69.5919 17.8253 71.2963 18.5557 73.1007 18.7969C80.2203 19.7858 87.3964 20.3125 94.5841 20.3738C96.9039 20.4417 99.265 20.5131 101.623 20.6257C95.4704 16.4536 81.2242 7.24069 71.9997 5.0598C71.4371 4.94712 70.8676 4.87202 70.295 4.83498Z" fill="#FFBD00"/>
<path d="M103.212 21.7354C103.212 21.7354 126.076 10.447 138.665 9.62087C151.253 8.79469 147.37 25.0506 135.434 25.0157C124.807 24.9649 113.794 22.8226 103.212 21.7354Z" fill="#263238"/>
<path d="M127.364 25.6762C122.787 25.2959 118.187 24.6848 113.669 24.0807C110.179 23.6035 106.586 23.1177 103.106 22.7662C102.885 22.7389 102.679 22.6425 102.516 22.4908C102.354 22.3391 102.243 22.1398 102.2 21.9213C102.155 21.7001 102.184 21.47 102.283 21.2673C102.383 21.0646 102.547 20.901 102.75 20.8022C103.702 20.3404 125.954 9.41729 138.606 8.57559C140.054 8.21116 141.579 8.3026 142.973 8.83752C144.367 9.37245 145.563 10.3248 146.397 11.565C147.231 12.8052 147.664 14.2729 147.635 15.7683C147.607 17.2638 147.119 18.7143 146.239 19.9223C145.154 21.8415 143.565 23.4269 141.646 24.5067C139.726 25.5865 137.548 26.1196 135.348 26.0483C132.774 26.0424 130.066 25.9006 127.364 25.6762ZM106.981 21.1121C109.331 21.3074 111.665 21.7093 113.964 22.0251C121.079 23.1392 128.259 23.7913 135.458 23.9773C137.274 24.0332 139.071 23.592 140.656 22.7011C142.241 21.8102 143.554 20.5034 144.453 18.9211C145.036 18.023 145.371 16.986 145.424 15.9159C145.476 14.8458 145.244 13.7811 144.752 12.8304C144.039 11.9474 143.099 11.2767 142.033 10.8911C140.967 10.5055 139.816 10.4197 138.704 10.643C129.308 11.2769 113.716 18.0107 106.96 21.1103L106.981 21.1121Z" fill="#FFBD00"/>
<path d="M100.243 21.4877C100.243 21.4877 69.5375 6.45589 69.2852 9.49271C69.0328 12.5295 75.2095 20.6559 100.243 21.4877Z" fill="white"/>
<path d="M94.7217 22.2155C78.8437 20.8963 72.5283 16.4401 70.1154 13.7435C68.9545 12.605 68.2856 11.0558 68.2523 9.42846C68.2719 9.19438 68.3496 8.96891 68.4783 8.77254C68.607 8.57617 68.7827 8.41513 68.9893 8.30405C71.7145 6.74157 90.0195 15.3348 100.693 20.5691C100.963 20.6356 101.195 20.8068 101.339 21.045C101.483 21.2832 101.526 21.5689 101.459 21.8392C101.393 22.1095 101.222 22.3423 100.984 22.4864C100.746 22.6305 100.461 22.6741 100.191 22.6075C98.2736 22.4482 96.4332 22.3577 94.7217 22.2155ZM70.3608 10.0405C70.6227 10.8625 71.0723 11.6121 71.6738 12.2297C73.4594 14.2294 79.1494 18.7167 94.9655 20.0308L95.1305 20.0445C84.1959 14.955 73.3095 10.2855 70.4432 10.0473L70.3608 10.0405Z" fill="#FFBD00"/>
<path d="M102.716 21.7151C102.716 21.7151 137.735 15.0561 137.538 17.4318C137.341 19.8076 129.485 24.896 102.716 21.7151Z" fill="white"/>
<path d="M108.496 23.3597C106.661 23.2072 104.682 23.0427 102.609 22.7457C102.362 22.7214 102.132 22.607 101.964 22.4243C101.795 22.2416 101.7 22.0033 101.695 21.7545C101.686 21.5081 101.766 21.2666 101.919 21.0735C102.072 20.8803 102.288 20.7481 102.53 20.7006C114.955 18.3424 136.108 14.65 138.179 16.4653C138.328 16.595 138.445 16.758 138.52 16.9413C138.595 17.1246 138.626 17.3229 138.611 17.5204C138.537 17.9982 138.365 18.4556 138.106 18.8636C137.847 19.2717 137.506 19.6217 137.105 19.8915C135.028 21.6534 128.313 25.0061 108.496 23.3597ZM136.124 17.9586C132.948 17.6948 121.891 19.3346 110.237 21.4033C124.831 22.4287 132.937 20.5852 135.765 18.2824L136.124 17.9586Z" fill="#FFBD00"/>
<path d="M77.1787 20.1958L74.4857 52.6091L88.2114 45.5954L98.117 54.5725L100.81 22.1592L77.1787 20.1958Z" fill="#FFBD00"/>
<path d="M98.0311 55.6064C97.8044 55.5883 97.5916 55.4894 97.4314 55.3277L88.0431 46.8721L75.0287 53.5704C74.8623 53.654 74.6761 53.69 74.4906 53.6746C74.3051 53.6592 74.1274 53.5929 73.977 53.483C73.8238 53.3848 73.7012 53.2454 73.6231 53.0808C73.545 52.9162 73.5146 52.733 73.5353 52.5519L76.2301 20.1179C76.2528 19.844 76.3833 19.5903 76.5927 19.4126C76.8022 19.235 77.0735 19.1479 77.3469 19.1707L100.896 21.1272C101.169 21.1499 101.422 21.2805 101.6 21.4903C101.777 21.7001 101.864 21.9718 101.841 22.2458L99.148 54.6591C99.13 54.852 99.0594 55.0363 98.9439 55.1918C98.8285 55.3472 98.6726 55.468 98.4934 55.5408C98.3449 55.5922 98.188 55.6145 98.0311 55.6064ZM78.0414 21.3085L75.5886 50.8296L87.7404 44.7668C87.9188 44.6597 88.1261 44.6114 88.3333 44.6286C88.5404 44.6458 88.737 44.7277 88.8952 44.8627L97.2558 52.4426L99.6931 23.1074L78.0414 21.3085Z" fill="#263238"/>
<path d="M120.709 23.8125L115.325 88.6185L129.071 81.6065L138.977 90.5836L144.361 25.7776L120.709 23.8125Z" fill="#FFBD00"/>
<path d="M138.891 91.6174C138.66 91.6028 138.441 91.5114 138.269 91.3577L128.904 82.8624L115.89 89.5608C115.722 89.6379 115.537 89.6704 115.353 89.6551C115.169 89.6398 114.991 89.5772 114.838 89.4734C114.683 89.3707 114.558 89.2279 114.477 89.0601C114.396 88.8923 114.362 88.7057 114.378 88.5199L119.76 23.7346C119.783 23.4606 119.914 23.2069 120.123 23.0293C120.332 22.8516 120.604 22.7646 120.877 22.7873L144.447 24.7456C144.72 24.7683 144.973 24.8989 145.151 25.1087C145.328 25.3184 145.415 25.5902 145.392 25.8642L140.004 90.7114C139.988 90.9051 139.919 91.0903 139.803 91.2462C139.687 91.4021 139.53 91.5224 139.35 91.5931C139.201 91.6404 139.043 91.6487 138.891 91.6174ZM121.592 24.9269L116.443 86.9025L128.542 80.7314C128.722 80.6301 128.928 80.5851 129.134 80.6022C129.34 80.6193 129.535 80.6977 129.696 80.8273L138.093 88.4725L143.223 26.7241L121.592 24.9269Z" fill="#263238"/>
<path d="M45.1901 116.825C45.1901 116.825 43.2801 114.035 47.6801 111.955C51.0001 110.385 50.0601 108.395 52.2001 108.625C54.3401 108.855 49.3801 114.085 50.0601 115.985" fill="white"/>
<path d="M45.1901 116.825C45.1901 116.825 43.2801 114.035 47.6801 111.955C51.0001 110.385 50.0601 108.395 52.2001 108.625C54.3401 108.855 49.3801 114.085 50.0601 115.985" stroke="#151116" stroke-linecap="round" stroke-linejoin="round"/>
<path d="M153.81 132.805C153.81 132.805 156.7 130.875 153.32 127.355C150.94 124.885 154.14 123.245 152.45 122.215C150.19 120.845 150.94 128.705 149.61 130.215" fill="white"/>
<path d="M153.81 132.805C153.81 132.805 156.7 130.875 153.32 127.355C150.94 124.885 154.14 123.245 152.45 122.215C150.19 120.845 150.94 128.705 149.61 130.215" stroke="#151116" stroke-linecap="round" stroke-linejoin="round"/>
<path d="M136.37 175.825L137.99 174.355" stroke="#151116" stroke-linecap="round" stroke-linejoin="round"/>
<path d="M118.33 198.355C120.97 192.785 125.94 185.625 135.13 176.975" stroke="#151116" stroke-linecap="round" stroke-linejoin="round"/>
<path d="M116.59 202.755C116.83 201.995 117.12 201.185 117.46 200.335" stroke="#151116" stroke-linecap="round" stroke-linejoin="round"/>
<path d="M116 212.355C115.563 210.994 115.413 209.557 115.56 208.135" stroke="#151116" stroke-linecap="round" stroke-linejoin="round"/>
<path d="M64 354.475V361.395" stroke="#151116" stroke-linecap="round" stroke-linejoin="round"/>
<path d="M64 344.855V352.035" stroke="#151116" stroke-linecap="round" stroke-linejoin="round"/>
<path d="M64 339.695V342.695" stroke="#151116" stroke-linecap="round" stroke-linejoin="round"/>
<path d="M72.6001 369.355V372.515" stroke="#151116" stroke-linecap="round" stroke-linejoin="round"/>
<path d="M72.6001 354.665V367.135" stroke="#151116" stroke-linecap="round" stroke-linejoin="round"/>
<path d="M72.6001 348.815V352.035" stroke="#151116" stroke-linecap="round" stroke-linejoin="round"/>
<path d="M144.51 335.765C145.02 335.525 145.51 335.265 146.05 335.005" stroke="#151116" stroke-linecap="round" stroke-linejoin="round"/>
<path d="M127.67 342.095C132.926 340.75 138.034 338.884 142.92 336.525" stroke="#151116" stroke-linecap="round" stroke-linejoin="round"/>
<path d="M101.36 338.085C105.14 341.535 112.15 345.005 124.44 342.785" stroke="#151116" stroke-linecap="round" stroke-linejoin="round"/>
<path d="M97.4399 332.735C97.93 333.892 98.5833 334.973 99.3799 335.945" stroke="#151116" stroke-linecap="round" stroke-linejoin="round"/>
<path d="M148.51 28.4349L143.3 27.7549" stroke="#151116" stroke-linecap="round" stroke-linejoin="round"/>
</svg>
