<svg width="592" height="453" viewBox="0 0 592 453" fill="none" xmlns="http://www.w3.org/2000/svg">
<g clip-path="url(#clip0_1123_46969)">
<path fill-rule="evenodd" clip-rule="evenodd" d="M364.965 156.032C364.093 156.319 364.828 151.618 364.692 150.619C364.389 148.545 362.729 146.153 361.403 144.563C358.016 140.611 355.038 136.235 351.438 132.45C342.519 123.048 330.782 117.211 329.531 102.691C329.183 98.6261 328.652 93.3193 330.736 89.5645C332.714 86.0064 335.934 83.4022 338.314 80.1546C346.566 68.7991 351.044 54.8849 362.184 45.5809C366.768 41.7504 371.739 39.1386 377.187 36.8221C385.227 33.4155 395.207 29.2518 404.02 31.9014C418.895 36.3376 426.821 51.7053 432.921 64.8398C441.257 82.8042 452.191 104.569 446.72 125.016C444.038 135.017 438.87 145.1 432.921 153.571C423.911 166.388 401.898 173.421 386.485 170.537C379.711 169.265 374.293 167.569 368.632 163.534C367.089 162.255 365.854 160.646 365.018 158.825C364.654 158.106 365.775 155.774 364.965 156.032Z" fill="#FFEFE9"/>
<path fill-rule="evenodd" clip-rule="evenodd" d="M522.535 219.251C521.983 216.053 521.211 212.896 520.224 209.804C518.488 205.251 516.197 200.928 513.404 196.934C508.448 190.393 503.72 187.267 500.317 180.461C499.15 178.129 498.355 173.398 496.316 169.908C494.52 166.819 493.444 164.7 494.263 162.255C495.362 158.946 499.12 160.506 500.651 161.8C505.197 165.661 507.706 171.233 512.578 174.73C514.253 175.942 520.914 178.061 522.588 175.957C525.354 172.505 523.346 165.404 521.967 161.785C521.383 160.271 519.466 156.758 519.466 156.758C519.466 156.758 510.373 163.435 507.153 164.51C506.309 164.827 505.379 164.822 504.54 164.495C503.7 164.168 503.012 163.542 502.606 162.739C501.568 160.756 503.667 158.159 504.69 156.266C506.205 153.45 508.479 151.951 510.888 149.552C513.298 147.152 516.041 143.836 519.406 143.079C522.513 142.39 523.27 142.223 525.778 144.487C526.423 145.055 530.499 149.786 530.499 149.786C530.499 149.786 529.461 133.427 529.613 130.989C530.052 123.896 529.431 119.573 530.439 112.502C530.803 109.951 532.712 102.888 535.864 102.434C539.343 101.942 540.267 112.442 540.199 121.36C540.131 130.278 541.108 132.087 541.282 133.979C541.328 134.418 542.434 141.815 542.434 141.815C542.434 141.815 546.223 127.976 546.511 127.249C547.269 125.046 549.724 117.711 551.058 115.811C552.225 114.138 555.172 110.337 556.93 110.951C558.219 111.397 558.393 112.222 558.446 115.561C558.499 118.899 556.794 126.273 555.892 129.384C554.634 133.737 553.801 140.664 552.717 145.062C552.012 147.909 550.595 157.682 552.717 158.386C554.839 159.09 558.022 148.287 560.568 144.298C562.326 141.557 564.804 135.274 567.266 132.942C568.191 132.072 571.495 129.036 573.132 129.816C574.768 130.595 574.344 134.403 573.45 136.705C572.556 139.006 569.229 146.962 567.198 152.701C561.659 168.333 558.416 186.646 553.49 202.521C552.424 206.071 551.544 209.675 550.853 213.316C550.664 214.24 550.141 218.025 550.141 218.025C550.141 218.025 544.624 218.457 542.601 218.517C536.569 218.706 522.535 219.251 522.535 219.251Z" fill="#FFEFE9"/>
<path fill-rule="evenodd" clip-rule="evenodd" d="M417.887 160.847C415.568 163.632 413.015 164.238 410.203 165.389C403.876 168.023 396.473 168.553 389.175 168.167C384.462 167.925 377.013 165.692 372.974 162.815C371.209 161.551 364.843 156.834 364.843 156.834L363.987 149.135C362.488 149.813 361.066 150.648 359.744 151.626C357.938 153.123 356.619 155.123 355.955 157.372C355.114 159.893 355.629 165.305 355.121 169.552C354.636 173.557 352.674 175.465 351.09 178.107C350.241 179.522 350.491 183.785 350.491 183.785C349.272 184.912 347.729 185.629 346.081 185.836C339.731 186.745 326.099 188.804 321.075 190.06C312.792 192.135 298.849 196.874 292.082 202.498C281.996 210.901 280.829 218.071 279.329 231.531C277.813 245.286 278.571 259.314 279.056 273.508C279.329 281.835 280.428 295.522 281.102 303.562C281.86 312.351 281.648 316.318 281.966 324.441C279.365 320.73 276.527 317.19 273.471 313.843C268.993 308.975 262.863 301.185 257.801 294.273C254.77 290.125 252.496 287.581 250.178 282.585C246.305 274.257 240.857 279.254 242.024 280.677C245.813 285.34 238.349 296.514 232.332 302.086C222.178 311.481 208.705 335.282 206.568 348.121C206.432 348.969 208.144 360.99 217.396 367.524C220.572 369.757 224.792 372.679 224.792 372.679C224.792 372.679 229.839 380.484 239.773 390.795C250.269 401.696 265.985 415.27 278.071 420.372C289.438 425.156 300.804 424.672 307.98 421.644C312.51 419.807 316.325 416.56 318.862 412.385C318.862 412.385 317.263 423.377 314.914 432.492C313.467 438.06 311.644 443.523 309.458 448.844C317.793 448.004 333.919 452.629 355.682 453.023C374.891 453.401 391.388 448.375 410.802 448.087C424.707 447.883 438.923 452.175 449.721 452.735C462.49 453.394 470.651 450.267 470.302 448.912C467.203 437.049 467.491 389.387 468.105 375.026C469.272 347.553 474.038 330.005 475.046 320.338C475.872 312.487 475.804 308.324 475.804 300.436C475.804 299.678 476.175 291.351 476.175 291.351C476.175 291.351 483.753 305.962 483.957 306.583C485.692 312.639 490.375 319.339 493.194 324.963C501.613 341.785 508.547 355.32 525.104 365.245C533.894 370.544 543.73 366.585 550.967 361.657C562.258 353.98 568.918 340.134 573.435 330.255C575.177 326.47 576.966 320.096 578.269 316.091C579.606 311.814 580.636 307.447 581.353 303.025C583.24 291.964 583.255 289.89 584.21 283.955C585.817 273.902 589.787 265.597 590.568 258.163C591.053 253.537 591.424 247.284 588.416 243.265C584.203 237.655 570.752 238.654 566.152 233.544C561.553 228.434 559.408 222.015 552.702 218.661C541.449 213.044 527.855 212.37 520.876 220.326C517.632 223.998 517.739 231.743 517.216 236.444C517.117 237.299 516.458 244.718 516.458 244.718C516.458 244.718 513.033 237.186 510.941 233.847C504.735 223.93 495.786 206.321 487.367 197.911C479.835 190.386 473.22 191.771 463.876 187.093C457.693 183.959 452.07 179.417 445.894 176.388C438.559 172.724 431.936 167.675 424.677 164.034C423.487 163.413 418.509 160.097 417.887 160.847Z" fill="#FFBD00"/>
<path fill-rule="evenodd" clip-rule="evenodd" d="M361.926 147.205C362.191 147.962 361.979 147.667 362.54 148.219L361.926 147.205Z" fill="#D29578"/>
<path fill-rule="evenodd" clip-rule="evenodd" d="M419.085 151.853C419.085 151.853 417.713 160.37 418.221 167.289C418.728 174.208 422.047 183.293 423.866 188.13C425.912 193.573 426.685 195.133 426.685 195.133C426.041 201.093 424.532 206.927 422.207 212.453C416.948 224.468 407.885 238.094 405.248 244.332C396.465 265.075 393.169 275.832 398.428 298.838C400.656 308.566 409.15 320.33 415.856 327.515C420.464 332.473 428.595 337.515 431.232 343.904C433.869 350.294 434.717 354.404 432.808 361.278C432.05 364.072 429.246 367.039 427.814 369.537C427.458 370.158 421.35 371.15 424.935 372.225C428.519 373.3 433.391 370.983 435.809 369.507C442.159 365.631 449.774 355.343 449.774 355.343C449.774 355.343 452.123 353.7 454.594 351.558C457.466 349.052 461.338 342.277 462.444 338.84C469.704 316.167 454.866 295.152 456.594 272.547C457.253 263.742 458.617 253.295 462.459 245.225C469.984 229.449 483.215 217.972 485.367 200.78C487.132 186.654 482.29 171.574 476.751 158.432C473.379 150.422 471.196 147.303 468.643 138.946C466.369 131.557 463.088 112.23 462.156 101.336C460.535 82.3046 457.504 53.3784 447.046 32.7493C439.173 17.2453 426.624 7.79759 410.158 3.23269C403.603 1.41581 391.85 0.35597 384.727 3.03586C378.392 5.41294 374.876 12.688 374.876 12.688C374.876 12.688 369.185 8.84986 363.472 10.2958C356.175 12.1429 348.082 19.9555 343.497 26.8748C336.551 37.4067 331.546 49.0952 328.72 61.3878C325.689 75.2718 324.689 96.5595 325.394 110.595C326.318 129.112 331.305 154.215 339.723 166.244C342.679 170.468 352.742 175.586 352.742 175.586C352.742 175.586 354.583 174.276 355.182 169.87C355.69 166.176 355.008 160.233 355.462 158.984C356.053 157.395 356.372 154.73 358.327 152.413C359.023 151.592 359.894 150.936 360.875 150.492C361.857 150.048 362.925 149.828 364.002 149.847L364.154 145.698C364.154 145.698 355.78 134.411 354.182 130.3C352.454 125.864 348.059 114.221 348.059 114.221C348.059 114.221 345.399 115.341 343.679 114.751C338.594 112.98 336.268 109.073 335.215 103.804C334.661 101.056 333.563 95.6738 334.078 93.009C334.517 90.7379 336.579 87.566 339.185 87.1269C341.792 86.6878 345.088 89.0195 345.088 89.0195C345.088 89.0195 349.248 89.3829 353.659 81.9261C358.069 74.4693 357.129 66.6265 358.016 62.2433C358.827 58.1553 361.047 50.5774 363.828 46.7166C366.609 42.8557 371.951 45.5205 375.778 43.3932C378.347 41.97 379.567 37.9804 381.901 35.6791C383.939 33.6578 387.038 33.2414 389.607 32.8099C403.922 30.4253 411.226 42.6513 417.046 52.0309C423.737 62.7959 426.844 76.642 430.027 89.345C432.08 97.5209 440.264 111.753 440.264 111.753C440.264 111.753 435.975 127.901 430.845 135.978C428.905 139.006 426.45 142.791 424.26 145.714C423.752 146.463 419.085 151.853 419.085 151.853Z" fill="#FF522F"/>
<path fill-rule="evenodd" clip-rule="evenodd" d="M380.006 125.304C380.006 130.739 383.575 137.734 389.1 139.687C398.632 143.018 408.559 134.744 407.733 124.797C407.566 122.791 403.482 123.04 402.277 123.018C396.973 122.912 391.759 122.071 386.478 122.647C386.099 122.692 380.658 122.965 380.658 123.275L380.006 125.304Z" fill="#F2C6C3"/>
<path fill-rule="evenodd" clip-rule="evenodd" d="M357.569 87.4676C356.675 88.3609 356.644 91.1317 356.523 92.3126C356.023 97.0138 357.281 102.199 360.956 105.44C368.731 112.253 382.992 108.097 387.061 98.9594C387.679 97.4906 387.991 95.9117 387.978 94.3188C387.978 92.9258 388.175 91.5253 387.728 90.1854C385.273 82.8195 375.225 82.0246 368.784 82.827C366.162 83.1526 360.009 84.5076 358.993 87.5509L357.569 87.4676Z" fill="white"/>
<path fill-rule="evenodd" clip-rule="evenodd" d="M403.808 87.3995C403.57 87.9725 403.392 88.5688 403.277 89.1786C403.044 90.8818 402.935 92.5997 402.952 94.3188C402.952 98.4673 405.331 102.646 408.354 105.379C415.599 111.958 429.974 109.384 433.74 99.9814C434.426 98.1912 434.934 96.3375 435.255 94.4475C436.9 85.136 426.579 82.2366 419.342 81.2751C415.352 80.7358 411.296 81.5346 407.809 83.5462C406.551 84.2427 405.702 85.5448 404.573 86.4457C404.255 86.6879 403.74 87.9067 403.808 87.3995Z" fill="white"/>
<path fill-rule="evenodd" clip-rule="evenodd" d="M244.222 282.047C244.222 282.047 240.092 276.581 237.864 274.477C234.075 270.858 230.104 264.151 227.293 259.73C220.67 249.313 222.148 241.334 218.033 229.979C215.889 224.074 206.485 217.457 201.968 213.324C198.983 210.614 196.073 200.454 191.594 200.379C187.116 200.303 189.783 209.743 190.48 211.954C191.996 216.92 197.02 224.361 196.035 227.617C195.505 229.365 192.89 228.578 188.806 228.851C187.366 228.941 177.174 225.467 174.658 224.581C167.391 222.037 161.018 219.221 154.6 214.891C150.448 212.09 138.278 208.926 137.171 208.948C135.647 209.025 134.188 209.591 133.011 210.561C133.011 210.561 125.585 208.63 125.434 211.446C125.282 214.263 131.193 218.805 131.193 218.805C131.193 218.805 129.018 219.834 129.222 220.395C131.2 225.913 142.279 232.552 146.212 236.981C149.872 241.099 155.449 242.038 155.449 242.038C158.351 244.957 161.572 247.542 165.05 249.745C173.052 255.044 184.585 260.048 189.692 264.885C194.997 269.897 198.066 274.121 202.029 281.002C205.992 287.884 210.895 297.574 213.82 304.16C215.335 307.536 220.193 316.515 220.193 316.515C220.193 316.515 225.398 310.686 225.899 310.057C229.18 305.878 230.104 303.388 233.476 299.262C234.992 297.385 238.781 295.545 241.054 291.828C243.403 287.861 244.222 282.047 244.222 282.047Z" fill="#FFEFE9"/>
<path d="M182.865 228.238C182.673 228.24 182.483 228.196 182.312 228.109C179.745 227.121 177.124 226.282 174.461 225.596C172.476 225.028 170.763 224.536 169.809 224.187C165.07 222.481 160.536 220.254 156.29 217.548C153.066 215.465 149.623 213.741 146.022 212.408C136.8 209.047 134.898 210.546 134.534 211.091C134.342 211.34 134.062 211.508 133.751 211.558C133.44 211.609 133.121 211.54 132.859 211.365C132.597 211.19 132.411 210.922 132.34 210.615C132.268 210.308 132.316 209.986 132.473 209.713C134.231 207.071 138.945 207.192 146.871 210.076C150.637 211.459 154.24 213.248 157.616 215.413C161.716 218.021 166.092 220.166 170.665 221.81C171.536 222.128 173.287 222.636 175.151 223.165C178.326 224.081 181.918 225.111 183.418 225.861C183.672 225.982 183.877 226.187 183.999 226.441C184.121 226.695 184.152 226.982 184.087 227.256C184.023 227.53 183.866 227.774 183.644 227.947C183.422 228.12 183.147 228.212 182.865 228.207V228.238Z" fill="#151116"/>
<path d="M392.684 162.626C366.821 162.626 348.104 128.355 346.46 109.141C346.433 108.814 346.536 108.49 346.748 108.239C346.959 107.988 347.262 107.83 347.589 107.801C347.752 107.785 347.916 107.801 348.072 107.849C348.229 107.897 348.374 107.976 348.499 108.082C348.624 108.187 348.727 108.316 348.801 108.462C348.875 108.607 348.919 108.766 348.93 108.929C350.703 129.46 370.208 160.143 392.797 160.143C393.184 160.143 393.555 160.143 393.964 160.143C421.706 158.833 433.944 130.013 438.771 112.942C438.807 112.776 438.876 112.619 438.975 112.481C439.074 112.343 439.2 112.226 439.345 112.139C439.491 112.051 439.653 111.994 439.821 111.972C439.99 111.949 440.161 111.961 440.324 112.008C440.488 112.054 440.64 112.133 440.772 112.24C440.903 112.347 441.012 112.48 441.09 112.631C441.168 112.782 441.214 112.947 441.226 113.116C441.238 113.286 441.215 113.455 441.158 113.616C436.134 131.292 423.366 161.248 394.04 162.595C393.601 162.611 393.138 162.626 392.684 162.626Z" fill="#151116"/>
<path d="M345.391 116.273C343.389 116.224 341.469 115.468 339.973 114.138C334.669 109.702 331.335 98.5959 333.313 91.722C334.229 88.5198 336.048 86.4228 338.435 85.8096C340.951 85.1585 343.838 86.2411 346.369 88.7696C346.602 89.0025 346.733 89.3184 346.733 89.6477C346.733 89.9771 346.602 90.293 346.369 90.5259C346.136 90.7588 345.82 90.8896 345.49 90.8896C345.16 90.8896 344.844 90.7588 344.611 90.5259C342.717 88.6258 340.693 87.7854 339.056 88.2094C337.541 88.603 336.374 90.049 335.7 92.4033C334.01 98.2703 337.026 108.46 341.557 112.222C343.618 113.933 345.785 114.236 348.013 113.123C348.305 113 348.632 112.993 348.928 113.102C349.225 113.212 349.468 113.43 349.609 113.713C349.75 113.996 349.778 114.322 349.687 114.624C349.596 114.927 349.393 115.183 349.12 115.341C347.967 115.938 346.69 116.256 345.391 116.273Z" fill="#151116"/>
<path d="M343.058 102.199C342.827 102.2 342.601 102.136 342.404 102.016C342.208 101.895 342.048 101.723 341.944 101.518C341.247 100.134 340.387 98.8376 339.382 97.6573C339.276 97.5335 339.195 97.39 339.144 97.2349C339.093 97.0799 339.073 96.9163 339.085 96.7536C339.098 96.5908 339.142 96.4321 339.216 96.2865C339.289 96.1408 339.391 96.0111 339.515 95.9047C339.639 95.7984 339.782 95.7174 339.938 95.6665C340.093 95.6156 340.257 95.5957 340.42 95.608C340.582 95.6203 340.741 95.6646 340.887 95.7382C341.033 95.8119 341.163 95.9135 341.269 96.0372C342.402 97.3746 343.374 98.8408 344.164 100.405C344.311 100.699 344.336 101.04 344.232 101.352C344.129 101.665 343.905 101.923 343.611 102.071C343.439 102.156 343.249 102.2 343.058 102.199Z" fill="#151116"/>
<path d="M452.275 143.972C452.207 143.98 452.138 143.98 452.07 143.972C451.91 143.946 451.756 143.888 451.619 143.802C451.481 143.716 451.361 143.604 451.267 143.471C451.172 143.339 451.105 143.19 451.069 143.031C451.032 142.873 451.028 142.709 451.055 142.549C452.646 132.973 446.864 124.093 441.28 115.508C439.091 112.295 437.085 108.961 435.27 105.523C431.118 97.1955 428.451 88.1111 425.829 79.3069C422.388 67.6637 418.834 55.6194 411.901 45.6038C407.271 38.9268 398.261 32.7797 390.016 33.9607C385.841 34.5587 382.878 35.8381 382.105 37.3825C382.039 37.5387 381.942 37.6797 381.819 37.7968C381.696 37.914 381.551 38.0047 381.392 38.0636C381.233 38.1224 381.063 38.1481 380.894 38.1389C380.724 38.1298 380.558 38.086 380.406 38.0104C380.254 37.9348 380.12 37.8289 380.01 37.6992C379.901 37.5695 379.819 37.4188 379.77 37.2565C379.722 37.0941 379.707 36.9234 379.726 36.755C379.746 36.5866 379.8 36.424 379.885 36.2772C381.401 33.2491 386.038 32.0227 389.668 31.5079C399.345 30.115 409.029 37.1099 413.917 44.1957C421.085 54.5368 424.692 66.7704 428.185 78.6028C430.754 87.3162 433.414 96.3173 437.468 104.418C439.244 107.767 441.202 111.017 443.333 114.153C448.91 122.723 455.238 132.428 453.48 142.92C453.435 143.209 453.29 143.473 453.069 143.666C452.849 143.858 452.568 143.967 452.275 143.972Z" fill="#151116"/>
<path d="M442.272 158.061C442.066 158.062 441.862 158.01 441.681 157.909C441.393 157.751 441.18 157.486 441.088 157.171C440.995 156.856 441.032 156.517 441.189 156.229C445.038 149.173 445.485 140.52 442.318 134.192C442.195 133.901 442.187 133.574 442.297 133.278C442.407 132.981 442.625 132.738 442.908 132.597C443.191 132.456 443.517 132.428 443.82 132.519C444.123 132.61 444.38 132.813 444.538 133.086C448.115 140.225 447.66 149.544 443.363 157.417C443.258 157.614 443.1 157.778 442.908 157.892C442.716 158.005 442.496 158.064 442.272 158.061Z" fill="#151116"/>
<path d="M375.536 42.7497C375.304 42.7499 375.077 42.6855 374.88 42.5638C374.684 42.4421 374.525 42.2679 374.422 42.0608C374.023 41.3174 373.454 40.6784 372.761 40.1956C372.069 39.7129 371.272 39.4001 370.436 39.2825C369.323 39.0607 368.176 39.0811 367.073 39.3424C365.969 39.6037 364.935 40.0997 364.04 40.7966C363.793 40.9889 363.482 41.0809 363.17 41.0541C362.858 41.0274 362.568 40.8839 362.357 40.6523C362.146 40.4207 362.031 40.1182 362.034 39.8053C362.037 39.4923 362.158 39.192 362.373 38.9646C363.549 38.0051 364.921 37.3147 366.392 36.9419C367.864 36.5691 369.399 36.5231 370.89 36.807C372.104 36.9994 373.254 37.4754 374.249 38.1963C375.243 38.9173 376.053 39.8627 376.612 40.9555C376.759 41.2497 376.784 41.5904 376.68 41.9026C376.576 42.2149 376.353 42.4733 376.058 42.621C375.895 42.6988 375.717 42.7426 375.536 42.7497Z" fill="#151116"/>
<path d="M342.792 83.6369C342.492 83.6352 342.203 83.5252 341.978 83.3272C341.753 83.1293 341.607 82.8567 341.568 82.5597C341.528 82.2628 341.597 81.9615 341.762 81.7115C341.927 81.4615 342.177 81.2795 342.466 81.1993C352.211 78.5421 354.901 68.4433 357.266 59.533C357.95 56.6057 358.868 53.7376 360.009 50.9559C361.123 48.5485 363.184 44.082 366.874 42.9389C368.799 42.3484 370.875 42.7118 373.065 44.0139C373.207 44.0974 373.332 44.2081 373.431 44.3396C373.531 44.4712 373.603 44.621 373.645 44.7806C373.686 44.9402 373.696 45.1064 373.673 45.2697C373.651 45.433 373.596 45.5902 373.512 45.7324C373.429 45.8745 373.318 45.9988 373.186 46.0982C373.054 46.1976 372.904 46.2701 372.745 46.3116C372.585 46.3531 372.419 46.3627 372.255 46.3399C372.092 46.3172 371.934 46.2625 371.792 46.179C370.208 45.2327 368.844 44.9602 367.609 45.3387C364.98 46.1563 363.214 49.9717 362.267 52.0233C361.185 54.6754 360.316 57.4094 359.668 60.1992C357.25 69.2836 354.25 80.5936 343.118 83.6218C343.011 83.641 342.901 83.6461 342.792 83.6369Z" fill="#151116"/>
<path d="M349.643 85.3327C349.354 85.3334 349.074 85.2338 348.851 85.0509C348.628 84.8679 348.475 84.6131 348.42 84.3302C348.364 84.0472 348.409 83.7538 348.546 83.5002C348.684 83.2466 348.905 83.0487 349.173 82.9405C351.067 82.1834 353.348 80.5028 353.553 78.3074C353.559 78.1386 353.6 77.9728 353.673 77.8203C353.745 77.6677 353.849 77.5317 353.976 77.4204C354.103 77.3091 354.252 77.2249 354.413 77.173C354.574 77.1211 354.744 77.1026 354.912 77.1186C355.08 77.1346 355.244 77.1848 355.392 77.266C355.54 77.3473 355.671 77.458 355.775 77.5912C355.879 77.7245 355.954 77.8776 355.997 78.0411C356.04 78.2046 356.048 78.3751 356.023 78.5421C355.72 81.8352 352.765 84.1593 350.112 85.2418C349.963 85.3017 349.804 85.3325 349.643 85.3327Z" fill="#151116"/>
<path d="M396.185 108.165C395.992 108.166 395.802 108.122 395.63 108.037C395.457 107.952 395.307 107.827 395.192 107.673C395.094 107.542 395.022 107.393 394.982 107.235C394.941 107.077 394.932 106.912 394.955 106.75C394.978 106.588 395.033 106.433 395.117 106.292C395.2 106.152 395.311 106.029 395.442 105.932C396.958 104.811 397.943 103.456 397.837 102.714C397.583 101.672 397.113 100.694 396.457 99.845C395.988 99.1669 395.578 98.4502 395.23 97.7026C393.822 94.5957 393.697 91.0597 394.881 87.8612C394.919 87.693 394.992 87.5345 395.094 87.3959C395.197 87.2572 395.327 87.1414 395.477 87.0559C395.627 86.9704 395.793 86.9169 395.965 86.899C396.136 86.8811 396.31 86.8992 396.474 86.9519C396.638 87.0047 396.79 87.0911 396.919 87.2056C397.048 87.3201 397.152 87.4602 397.224 87.6169C397.295 87.7737 397.334 87.9437 397.336 88.1161C397.339 88.2885 397.305 88.4595 397.238 88.6182C396.749 89.9163 396.522 91.298 396.568 92.6842C396.615 94.0703 396.935 95.4335 397.511 96.6958C397.806 97.3132 398.15 97.9056 398.541 98.4672C399.404 99.6126 400.004 100.933 400.299 102.336C400.648 104.804 398.026 107.037 396.927 107.885C396.717 108.057 396.456 108.156 396.185 108.165Z" fill="#151116"/>
<path d="M410.355 76.5967C410.074 76.5972 409.802 76.5028 409.582 76.3289C409.362 76.155 409.207 75.9118 409.143 75.6389C409.079 75.366 409.109 75.0795 409.229 74.8259C409.348 74.5723 409.55 74.3667 409.802 74.2424C413.197 72.5466 419.827 71.2673 423.442 73.2658C423.73 73.4254 423.943 73.693 424.034 74.0096C424.125 74.3261 424.086 74.6659 423.927 74.954C423.767 75.2421 423.499 75.455 423.182 75.5459C422.865 75.6367 422.525 75.5981 422.237 75.4385C419.729 74.0456 414.189 74.8253 410.916 76.4605C410.743 76.5509 410.55 76.5977 410.355 76.5967Z" fill="#151116"/>
<path d="M365.775 73.2733C365.593 73.2738 365.413 73.234 365.248 73.1568C365.083 73.0796 364.937 72.9668 364.821 72.8266C364.612 72.5728 364.511 72.247 364.541 71.9196C364.571 71.5922 364.728 71.2898 364.98 71.0779C368.625 68.0497 375.543 65.7787 380.022 67.2927C380.307 67.4137 380.537 67.637 380.667 67.9189C380.796 68.2008 380.815 68.5208 380.72 68.8159C380.625 69.111 380.423 69.36 380.153 69.5138C379.884 69.6676 379.566 69.7152 379.264 69.6471C375.717 68.4737 369.655 70.442 366.594 72.9932C366.364 73.1826 366.073 73.2822 365.775 73.2733Z" fill="#151116"/>
<path d="M412.659 94.682C412.354 94.6903 412.055 94.6029 411.802 94.4321C411.643 94.3124 411.511 94.1599 411.416 93.9849C411.32 93.8099 411.263 93.6165 411.249 93.4177C411.189 92.1005 413.318 90.4577 414.879 89.784C416.97 88.8831 421.1 88.2699 423.328 89.8521C423.516 89.9867 423.663 90.1711 423.752 90.3845C423.841 90.5979 423.868 90.8319 423.831 91.0601C423.794 91.2883 423.694 91.5016 423.542 91.6761C423.39 91.8505 423.193 91.9792 422.972 92.0475L423.07 92.0929C423.22 92.16 423.354 92.2558 423.466 92.3749C423.579 92.494 423.666 92.6339 423.724 92.7868C423.782 92.9397 423.81 93.1026 423.805 93.266C423.8 93.4295 423.763 93.5903 423.696 93.7395C423.628 93.8886 423.532 94.023 423.413 94.1351C423.294 94.2472 423.154 94.3348 423.001 94.3928C422.848 94.4507 422.685 94.4781 422.521 94.4731C422.358 94.4682 422.197 94.4311 422.047 94.364C420.706 93.7584 417.417 93.6524 415.576 93.9628C415.409 93.9628 415.099 94.0991 414.758 94.205C414.082 94.4568 413.376 94.6172 412.659 94.682ZM419.585 91.3586C420.13 91.3586 420.668 91.4646 421.176 91.5479C420.656 91.4139 420.121 91.3502 419.585 91.3586Z" fill="#151116"/>
<path fill-rule="evenodd" clip-rule="evenodd" d="M375.475 90.7607C375.496 90.2626 375.368 89.7696 375.106 89.3451C374.844 88.9206 374.462 88.5839 374.007 88.3785C373.552 88.173 373.047 88.1082 372.555 88.1923C372.063 88.2764 371.607 88.5056 371.247 88.8503C370.887 89.1951 370.638 89.6398 370.532 90.127C370.427 90.6143 370.47 91.1219 370.656 91.5846C370.841 92.0473 371.161 92.4439 371.575 92.7234C371.988 93.0029 372.475 93.1525 372.974 93.1529C373.623 93.1651 374.25 92.9203 374.719 92.4721C375.187 92.0239 375.459 91.4086 375.475 90.7607Z" fill="#151116"/>
<path d="M393.927 141.785C390.464 141.884 387.099 140.632 384.545 138.295C378.923 133.094 378.688 123.987 378.68 123.601C378.675 123.286 378.79 122.982 379.001 122.749C379.212 122.515 379.503 122.371 379.817 122.344C380.256 122.306 390.615 121.42 397.397 121.587C403.073 121.761 408.764 122.2 408.802 122.2C409.122 122.227 409.421 122.377 409.634 122.618C409.847 122.859 409.959 123.173 409.946 123.495C409.946 123.676 408.968 140.906 394.995 141.709C394.631 141.769 394.275 141.785 393.927 141.785ZM381.249 124.721C381.499 127.189 382.477 133.011 386.243 136.485C388.455 138.537 391.35 139.513 394.851 139.271C404.634 138.719 406.862 128.226 407.339 124.623C405.361 124.486 401.345 124.229 397.321 124.108C392.017 123.941 384.227 124.486 381.249 124.721Z" fill="#151116"/>
<path d="M402.504 96.7487C402.341 96.7488 402.18 96.7168 402.029 96.6544C401.878 96.5921 401.741 96.5006 401.625 96.3854C399.542 94.3035 395.169 94.5988 392.062 95.4921C391.382 95.6784 390.722 95.932 390.092 96.2491C389.9 96.4868 389.628 96.6457 389.326 96.6952C389.025 96.7447 388.715 96.6814 388.457 96.5175C388.2 96.3536 388.011 96.1005 387.928 95.8066C387.846 95.5127 387.874 95.1986 388.008 94.9243C388.433 94.0764 390.077 93.4557 391.38 93.0847C395.313 91.9643 400.534 91.7675 403.383 94.5988C403.555 94.7728 403.671 94.9934 403.718 95.233C403.764 95.4726 403.739 95.7206 403.645 95.946C403.551 96.1714 403.393 96.3642 403.19 96.5002C402.987 96.6362 402.749 96.7095 402.504 96.7109V96.7487Z" fill="#151116"/>
<path d="M417.584 109.77C415.285 109.813 413.005 109.346 410.908 108.402C408.811 107.458 406.95 106.061 405.46 104.311C403.915 102.518 402.754 100.427 402.049 98.1682C401.344 95.9092 401.109 93.5299 401.36 91.1769C401.534 89.5037 402.076 87.8896 402.947 86.45C403.818 85.0104 404.997 83.781 406.399 82.8496C412.234 78.966 423.48 79.3142 429.261 82.2061L429.769 82.4559C431.898 83.5082 434.543 84.8103 435.581 87.5659C437.279 92.1081 436.756 98.1643 434.278 102.601C432.596 105.629 430.163 107.604 427.458 108.157C427.294 108.2 427.124 108.208 426.957 108.183C426.79 108.157 426.63 108.098 426.487 108.008C426.344 107.919 426.22 107.801 426.124 107.663C426.028 107.524 425.961 107.367 425.927 107.202C425.894 107.037 425.894 106.866 425.929 106.701C425.964 106.536 426.032 106.379 426.129 106.241C426.226 106.103 426.35 105.987 426.494 105.898C426.638 105.81 426.798 105.752 426.965 105.727C428.973 105.326 430.807 103.789 432.133 101.397C434.24 97.6117 434.71 92.267 433.278 88.4365C432.588 86.5969 430.61 85.6279 428.693 84.6513L428.178 84.3939C423.123 81.873 412.734 81.6005 407.794 84.886C406.699 85.6253 405.779 86.5942 405.097 87.7251C404.415 88.856 403.988 90.1218 403.846 91.4343C403.635 93.4369 403.837 95.4615 404.439 97.3832C405.041 99.3049 406.03 101.083 407.347 102.608C410.734 106.461 415.137 107.907 420.797 106.953C421.123 106.9 421.456 106.978 421.724 107.171C421.992 107.363 422.172 107.654 422.226 107.979C422.279 108.304 422.201 108.638 422.008 108.905C421.815 109.173 421.524 109.353 421.199 109.406C420.006 109.623 418.797 109.745 417.584 109.77Z" fill="#151116"/>
<path d="M373.641 110.057C372.47 110.055 371.302 109.953 370.148 109.755C369.978 109.74 369.813 109.69 369.663 109.608C369.513 109.527 369.381 109.415 369.276 109.281C369.172 109.146 369.096 108.991 369.053 108.826C369.011 108.661 369.003 108.489 369.03 108.32C369.057 108.152 369.119 107.991 369.211 107.848C369.303 107.704 369.424 107.581 369.566 107.486C369.707 107.391 369.867 107.327 370.035 107.296C370.203 107.266 370.376 107.27 370.542 107.309C376.081 108.21 380.393 106.832 383.697 103.062C384.984 101.572 385.952 99.8336 386.54 97.9546C387.128 96.0756 387.323 94.096 387.114 92.1384C386.977 90.8568 386.56 89.6208 385.894 88.517C385.228 87.4132 384.328 86.4685 383.257 85.7491C378.438 82.5317 368.268 82.7967 363.328 85.2646L362.813 85.5144C360.948 86.438 359.024 87.3918 358.342 89.1784C356.94 92.9636 357.402 98.1341 359.463 101.851C360.759 104.183 362.547 105.682 364.502 106.075C364.825 106.141 365.108 106.332 365.29 106.606C365.471 106.88 365.537 107.214 365.472 107.536C365.442 107.696 365.379 107.848 365.289 107.983C365.199 108.119 365.083 108.235 364.948 108.325C364.812 108.415 364.66 108.478 364.501 108.509C364.341 108.54 364.177 108.538 364.017 108.505C361.335 107.968 358.948 106.03 357.296 103.055C354.864 98.6792 354.348 92.7516 356.023 88.3078C357.038 85.5977 359.63 84.3183 361.714 83.2963L362.214 83.0465C367.89 80.2076 378.885 79.8745 384.629 83.6824C386.001 84.5926 387.156 85.7936 388.011 87.2002C388.867 88.6067 389.401 90.1842 389.577 91.8205C389.818 94.1257 389.586 96.4558 388.896 98.6685C388.205 100.881 387.07 102.93 385.561 104.69C384.097 106.412 382.268 107.787 380.206 108.716C378.145 109.644 375.902 110.102 373.641 110.057Z" fill="#151116"/>
<path d="M356.152 92.9711C355.945 92.9702 355.742 92.9182 355.561 92.8197C355.485 92.7743 348.241 88.8453 345.785 87.6114C345.111 87.2783 343.512 86.5818 343.103 87.3842C342.949 87.6669 342.691 87.8786 342.383 87.9747C342.076 88.0709 341.743 88.0439 341.455 87.8995C341.167 87.7552 340.946 87.5047 340.839 87.201C340.733 86.8972 340.748 86.5639 340.883 86.2714C341.353 85.3403 342.868 83.3947 346.892 85.3932C349.385 86.6424 356.447 90.4729 356.743 90.6395C356.985 90.7714 357.176 90.98 357.287 91.2326C357.397 91.4851 357.42 91.7672 357.353 92.0344C357.285 92.3016 357.13 92.5386 356.913 92.7082C356.695 92.8778 356.428 92.9703 356.152 92.9711Z" fill="#151116"/>
<path d="M375.543 33.7334C375.253 33.7285 374.973 33.6221 374.753 33.4326C374.533 33.2432 374.386 32.9826 374.338 32.6963C373.186 25.8225 372.353 18.555 373.997 11.9839C374.03 11.8195 374.096 11.6634 374.192 11.5252C374.287 11.3869 374.409 11.2694 374.551 11.1797C374.693 11.0899 374.851 11.0298 375.017 11.003C375.183 10.9762 375.352 10.9832 375.515 11.0237C375.678 11.0641 375.831 11.1372 375.965 11.2383C376.099 11.3395 376.211 11.4668 376.295 11.6124C376.378 11.7581 376.431 11.9191 376.45 12.0857C376.469 12.2523 376.455 12.4212 376.407 12.582C374.891 18.7215 375.649 25.6786 376.786 32.2648C376.813 32.4259 376.808 32.5907 376.771 32.7499C376.734 32.909 376.667 33.0594 376.572 33.1923C376.477 33.3252 376.356 33.4381 376.217 33.5244C376.079 33.6108 375.924 33.669 375.763 33.6956L375.543 33.7334Z" fill="#151116"/>
<path d="M423.351 187.35C423.107 187.35 422.868 187.278 422.664 187.144C422.461 187.009 422.302 186.818 422.206 186.593C418.304 177.509 414.993 162.482 418.531 150.127C418.575 149.972 418.649 149.827 418.749 149.7C418.849 149.574 418.972 149.468 419.113 149.389C419.254 149.311 419.409 149.26 419.569 149.241C419.729 149.222 419.892 149.235 420.047 149.279C420.36 149.369 420.625 149.578 420.785 149.861C420.945 150.144 420.987 150.479 420.903 150.793C417.546 162.52 420.729 176.873 424.472 185.617C424.554 185.805 424.588 186.01 424.57 186.215C424.552 186.419 424.484 186.616 424.371 186.787C424.259 186.958 424.105 187.099 423.924 187.196C423.743 187.293 423.541 187.343 423.336 187.343L423.351 187.35Z" fill="#151116"/>
<path d="M419.971 333.276C419.653 333.276 419.346 333.154 419.115 332.935C384.795 300.436 393.487 263.614 406.824 238.465C408.438 235.437 410.097 232.454 411.704 229.593C418.986 216.595 425.867 204.323 425.867 188.198C425.835 182.256 424.667 176.374 422.426 170.87C422.349 170.58 422.38 170.271 422.513 170.002C422.646 169.733 422.872 169.521 423.149 169.405C423.427 169.29 423.737 169.279 424.022 169.374C424.307 169.469 424.548 169.665 424.7 169.924C427.065 175.728 428.297 181.931 428.329 188.198C428.329 204.974 421.297 217.518 413.848 230.804C412.249 233.65 410.597 236.603 408.999 239.623C396.063 264.03 387.614 299.724 420.797 331.148C420.916 331.26 421.012 331.395 421.079 331.544C421.146 331.693 421.183 331.854 421.187 332.017C421.192 332.181 421.163 332.343 421.104 332.496C421.045 332.648 420.956 332.787 420.843 332.905C420.729 333.022 420.594 333.115 420.444 333.178C420.295 333.242 420.134 333.275 419.971 333.276Z" fill="#151116"/>
<path d="M424.912 372.603C424.636 372.603 424.368 372.51 424.151 372.341C423.933 372.171 423.778 371.934 423.711 371.667C423.643 371.4 423.666 371.117 423.777 370.865C423.887 370.612 424.078 370.404 424.321 370.272C432.33 365.972 432.785 357.281 432.353 352.482C431.466 342.731 426.132 333.442 420.986 324.471C415.182 314.365 409.196 303.933 409.196 292.517C409.196 292.188 409.326 291.872 409.56 291.639C409.793 291.406 410.109 291.276 410.438 291.276C410.768 291.276 411.084 291.406 411.317 291.639C411.55 291.872 411.681 292.188 411.681 292.517C411.681 303.275 417.508 313.419 423.139 323.23C428.443 332.435 433.899 341.966 434.831 352.262C435.225 356.615 435.111 367.297 425.503 372.452C425.323 372.554 425.119 372.606 424.912 372.603Z" fill="#151116"/>
<path d="M441.151 365.162C440.873 365.159 440.604 365.063 440.387 364.89C440.17 364.716 440.018 364.475 439.954 364.205C439.89 363.935 439.919 363.651 440.036 363.399C440.152 363.147 440.35 362.941 440.598 362.815C451.767 357.236 452.328 342.428 448.13 331.02C448.062 330.865 448.027 330.698 448.026 330.529C448.025 330.36 448.059 330.193 448.125 330.037C448.191 329.882 448.288 329.741 448.411 329.625C448.533 329.508 448.678 329.418 448.836 329.359C448.995 329.3 449.163 329.274 449.332 329.283C449.501 329.292 449.666 329.334 449.818 329.409C449.97 329.484 450.105 329.589 450.214 329.717C450.324 329.846 450.406 329.995 450.456 330.157C455.003 342.557 454.245 358.757 441.704 365.018C441.534 365.11 441.344 365.159 441.151 365.162Z" fill="#151116"/>
<path d="M423.139 304.266C422.883 304.267 422.634 304.189 422.425 304.042C422.216 303.896 422.058 303.689 421.972 303.449C419.638 297.089 418.488 290.357 418.577 283.584C418.577 283.255 418.708 282.939 418.941 282.706C419.174 282.473 419.49 282.343 419.82 282.343C420.149 282.343 420.465 282.473 420.698 282.706C420.931 282.939 421.062 283.255 421.062 283.584C420.976 290.067 422.075 296.512 424.306 302.601C424.361 302.755 424.385 302.918 424.377 303.082C424.369 303.245 424.328 303.405 424.258 303.553C424.187 303.701 424.088 303.833 423.966 303.943C423.845 304.052 423.702 304.136 423.548 304.19C423.417 304.24 423.278 304.266 423.139 304.266Z" fill="#151116"/>
<path d="M457.087 350.506C456.86 350.507 456.637 350.446 456.443 350.328C456.248 350.211 456.09 350.043 455.985 349.842C455.88 349.641 455.833 349.415 455.848 349.189C455.863 348.963 455.94 348.745 456.071 348.56C466.923 333.071 463.27 317.439 459.406 300.867C457.276 291.783 455.071 282.327 455.298 272.66C455.7 255.786 459.845 246.02 466.392 235.747C468.158 232.969 470.022 230.335 471.825 227.783C477.554 219.691 482.965 212.037 484.139 201.476C485.981 184.898 479.729 169.681 473.682 154.972C471.75 150.278 469.757 145.418 468.044 140.588C462.823 125.826 461.664 112.109 460.466 97.5815C460.034 92.4564 459.587 87.1496 458.951 81.6838C454.927 47.89 445.478 12.1884 405.536 3.49006C388.205 -0.295095 379.158 7.88084 379.067 7.96412C378.825 8.18899 378.503 8.30854 378.173 8.29647C377.842 8.2844 377.53 8.14171 377.305 7.89977C377.08 7.65783 376.96 7.33648 376.972 7.00639C376.984 6.67631 377.127 6.36454 377.369 6.13967C377.771 5.76873 387.486 -2.94471 406.059 1.06756C447.524 10.0989 457.284 46.7317 461.376 81.381C462.02 86.8619 462.474 92.1914 462.891 97.3392C464.104 111.723 465.255 125.266 470.37 139.733C472.06 144.517 474.046 149.347 475.963 154.018C482.123 169.015 488.504 184.527 486.572 201.711C485.329 212.9 479.752 220.803 473.818 229.169C472.038 231.697 470.189 234.301 468.453 237.034C462.133 246.951 458.14 256.369 457.754 272.675C457.526 282.025 459.693 291.298 461.792 300.262C465.786 317.37 469.56 333.525 458.072 349.915C457.969 350.087 457.826 350.231 457.654 350.334C457.482 350.437 457.287 350.496 457.087 350.506Z" fill="#151116"/>
<path d="M352.537 176.161C352.451 176.169 352.365 176.169 352.279 176.161C340.701 173.739 333.085 160.688 329.827 149.279C322.567 123.919 321.81 84.992 328.091 60.6534C333.866 38.2755 343.671 20.8108 354.992 12.7257C358.478 10.2351 363.995 8.18355 369.019 9.84902C369.179 9.89358 369.329 9.97006 369.459 10.0739C369.589 10.1777 369.696 10.3066 369.775 10.4531C369.854 10.5995 369.903 10.7603 369.918 10.9259C369.933 11.0915 369.914 11.2584 369.863 11.4167C369.812 11.5749 369.729 11.7212 369.62 11.8468C369.511 11.9723 369.378 12.0746 369.228 12.1473C369.079 12.2201 368.916 12.2619 368.749 12.2702C368.583 12.2786 368.417 12.2533 368.261 12.1958C364.131 10.8256 359.456 12.6122 356.462 14.747C345.611 22.4914 336.154 39.4489 330.524 61.2742C324.333 85.2418 325.091 123.601 332.244 148.598C335.161 158.818 342.307 171.536 352.817 173.739C353.114 173.805 353.376 173.978 353.554 174.224C353.732 174.471 353.813 174.774 353.782 175.076C353.751 175.378 353.61 175.659 353.387 175.864C353.163 176.07 352.871 176.186 352.567 176.192L352.537 176.161Z" fill="#151116"/>
<path d="M364.919 157.016C364.614 157.016 364.32 156.904 364.092 156.702C363.865 156.5 363.719 156.221 363.684 155.918C363.494 154.253 363.396 152.534 363.29 150.884C363.184 149.234 363.085 147.538 362.903 145.895C362.867 145.569 362.962 145.242 363.168 144.985C363.373 144.729 363.672 144.565 363.998 144.529C364.325 144.493 364.653 144.588 364.909 144.793C365.166 144.998 365.33 145.296 365.366 145.623C365.556 147.326 365.669 149.052 365.768 150.733C365.866 152.413 365.972 154.033 366.154 155.638C366.188 155.965 366.092 156.292 365.887 156.549C365.681 156.805 365.382 156.97 365.056 157.008L364.919 157.016Z" fill="#151116"/>
<path d="M394.343 169.636C387.417 169.637 380.595 167.954 374.467 164.73L373.634 164.299C370.125 162.474 365.298 159.968 363.457 156.267C363.322 155.974 363.307 155.641 363.413 155.337C363.52 155.033 363.741 154.783 364.029 154.638C364.317 154.494 364.649 154.467 364.957 154.563C365.265 154.659 365.523 154.871 365.677 155.154C367.192 158.182 371.572 160.453 374.77 162.096L375.611 162.535C382.076 165.909 389.332 167.478 396.615 167.079C403.897 166.679 410.937 164.325 416.993 160.264C417.266 160.082 417.601 160.016 417.923 160.081C418.245 160.145 418.528 160.335 418.709 160.608C418.891 160.881 418.957 161.215 418.892 161.537C418.828 161.858 418.638 162.141 418.365 162.323C411.257 167.078 402.898 169.623 394.343 169.636Z" fill="#151116"/>
<path d="M350.378 184.504C350.084 184.503 349.799 184.398 349.575 184.209C349.35 184.019 349.2 183.756 349.15 183.467C348.567 179.939 350.014 177.925 351.423 175.972C352.22 174.961 352.872 173.846 353.363 172.656C354.288 170.128 354.273 167.191 354.257 164.329C354.257 159.227 354.212 153.95 359.259 150.324C360.328 149.619 361.506 149.092 362.744 148.764L363.373 148.56C363.682 148.454 364.02 148.473 364.314 148.615C364.608 148.757 364.834 149.009 364.942 149.317C365.047 149.626 365.026 149.964 364.884 150.259C364.743 150.553 364.491 150.78 364.184 150.892L363.525 151.104C362.537 151.357 361.596 151.766 360.736 152.315C356.728 155.192 356.75 159.408 356.773 164.291C356.773 167.357 356.773 170.529 355.72 173.474C355.152 174.88 354.387 176.198 353.447 177.388C352.143 179.197 351.173 180.514 351.613 183.02C351.668 183.344 351.592 183.677 351.401 183.945C351.211 184.214 350.922 184.395 350.597 184.451L350.378 184.504Z" fill="#151116"/>
<path d="M516.306 246.293C516.064 246.291 515.827 246.219 515.625 246.084C515.423 245.95 515.264 245.759 515.17 245.536C509.691 232.765 501.128 219.183 494.899 210.039C494.414 209.327 493.929 208.585 493.437 207.836C491.368 204.701 489.239 201.461 486.541 199.152C486.416 199.047 486.314 198.918 486.24 198.773C486.165 198.628 486.12 198.469 486.108 198.306C486.095 198.144 486.115 197.98 486.166 197.825C486.217 197.67 486.298 197.527 486.405 197.404C486.62 197.156 486.924 197.002 487.252 196.977C487.58 196.951 487.904 197.056 488.155 197.267C491.118 199.811 493.353 203.195 495.506 206.473C495.998 207.23 496.475 207.942 496.953 208.646C503.242 217.881 511.896 231.606 517.451 244.559C517.533 244.748 517.566 244.954 517.548 245.159C517.53 245.364 517.461 245.561 517.348 245.733C517.234 245.904 517.079 246.045 516.897 246.141C516.715 246.238 516.512 246.287 516.306 246.285V246.293Z" fill="#151116"/>
<path d="M470.113 451.138C469.813 451.135 469.524 451.025 469.299 450.828C469.074 450.631 468.927 450.359 468.885 450.063C465.854 428.253 465.324 390.257 467.642 365.275C468.4 356.902 469.673 348.522 470.87 340.414C472.841 327.181 474.871 313.487 474.871 299.716C474.871 294.008 474.727 287.876 474.591 281.949C474.386 273.235 474.189 264.999 474.477 259.155C474.993 248.745 475.5 242.076 479.335 236.323C479.425 236.187 479.542 236.07 479.677 235.98C479.813 235.889 479.965 235.826 480.125 235.794C480.285 235.762 480.45 235.761 480.61 235.793C480.77 235.825 480.923 235.888 481.059 235.978C481.194 236.069 481.311 236.185 481.402 236.32C481.493 236.456 481.556 236.608 481.588 236.768C481.62 236.928 481.62 237.092 481.589 237.252C481.557 237.412 481.494 237.565 481.403 237.7C477.933 242.909 477.455 249.29 476.963 259.276C476.675 265.029 476.872 273.22 477.069 281.896C477.213 287.831 477.357 294.008 477.357 299.716C477.357 313.676 475.311 327.454 473.333 340.778C472.128 348.848 470.893 357.198 470.12 365.502C467.847 390.272 468.362 428.048 471.348 449.699C471.37 449.861 471.361 450.025 471.319 450.183C471.278 450.341 471.206 450.489 471.108 450.619C471.009 450.749 470.886 450.859 470.745 450.941C470.604 451.024 470.449 451.078 470.287 451.1L470.113 451.138Z" fill="#151116"/>
<path d="M309.928 450.388C309.794 450.39 309.661 450.37 309.534 450.328C309.227 450.218 308.976 449.992 308.834 449.699C308.692 449.406 308.671 449.069 308.776 448.761C318.703 419.002 322.234 388.993 319.567 357.008C318.331 342.231 314.406 327.431 310.602 313.101C308.776 306.227 306.889 299.111 305.336 292.123C303.691 284.712 303.419 276.922 303.153 269.412C302.805 259.571 302.449 249.427 299.001 240.252C298.945 240.097 298.921 239.933 298.929 239.769C298.937 239.605 298.978 239.444 299.048 239.296C299.119 239.148 299.218 239.015 299.339 238.904C299.461 238.794 299.604 238.709 299.759 238.654C299.913 238.598 300.078 238.573 300.242 238.58C300.406 238.588 300.568 238.628 300.716 238.699C300.865 238.769 300.998 238.868 301.108 238.991C301.219 239.113 301.303 239.256 301.357 239.411C304.942 248.965 305.313 259.329 305.662 269.352C305.919 276.778 306.192 284.492 307.791 291.646C309.306 298.588 311.216 305.674 313.035 312.525C316.861 326.909 320.817 341.853 322.067 356.85C324.765 389.175 321.196 419.509 311.155 449.586C311.065 449.834 310.896 450.046 310.675 450.19C310.454 450.335 310.192 450.404 309.928 450.388Z" fill="#151116"/>
<path d="M281.943 326.508C281.618 326.506 281.307 326.378 281.075 326.15C280.843 325.923 280.708 325.614 280.701 325.289C280.458 310.572 279.526 295.409 278.7 282.032C277.904 269.087 277.185 257.906 277.404 250.858V250.033C277.867 232.356 278.306 215.663 288.089 204.664C296.424 195.292 307.26 192.18 318.559 189.576C331.267 186.646 340.534 185.162 346.066 185.162C346.237 185.149 346.408 185.171 346.57 185.227C346.732 185.283 346.881 185.372 347.007 185.489C347.132 185.605 347.233 185.746 347.301 185.903C347.37 186.06 347.406 186.229 347.406 186.4C347.406 186.571 347.37 186.741 347.301 186.898C347.233 187.055 347.132 187.195 347.007 187.312C346.881 187.428 346.732 187.517 346.57 187.573C346.408 187.629 346.237 187.651 346.066 187.638C340.708 187.638 331.668 189.107 319.12 191.991C308.223 194.504 297.796 197.487 289.945 206.314C280.761 216.632 280.337 232.886 279.882 250.093V250.926C279.7 257.86 280.39 268.989 281.178 281.881C282.004 295.28 282.944 310.474 283.186 325.251C283.188 325.579 283.061 325.894 282.833 326.129C282.605 326.364 282.294 326.5 281.966 326.508H281.943Z" fill="#151116"/>
<path d="M537.592 367.864C537.282 367.855 536.987 367.73 536.765 367.515C536.543 367.299 536.409 367.008 536.39 366.7C536.371 366.391 536.468 366.086 536.663 365.845C536.857 365.604 537.134 365.444 537.441 365.397C553.232 363.428 566.304 347.682 576.276 318.597C578.944 310.845 579.967 303.214 581.05 295.129C581.399 292.525 581.755 289.905 582.164 287.256C583.085 282.115 584.351 277.041 585.953 272.07C586.59 269.905 587.256 267.656 587.847 265.423C589.537 259.094 590.583 250.017 587.961 245.256C585.938 241.584 581.194 240.509 576.595 239.472C574.017 239.008 571.502 238.245 569.1 237.201C565.501 235.399 563.205 232.068 560.977 228.873C559.632 226.724 558.023 224.75 556.188 222.999C548.512 216.435 539.35 214.323 528.15 216.564C520.815 218.025 519.519 228.344 518.822 233.923C518.496 236.527 518.292 239.222 518.064 241.887C517.817 246.16 517.311 250.415 516.549 254.628C515.998 256.974 515.206 259.257 514.185 261.441C513.143 263.63 512.365 265.935 511.866 268.307C511.472 270.699 511.184 273.145 510.903 275.507C510.146 281.676 509.426 288.058 506.614 294.084C505.164 297.052 504.384 300.301 504.33 303.603C504.276 306.905 504.95 310.179 506.304 313.192C506.439 313.493 506.45 313.835 506.333 314.144C506.215 314.453 505.98 314.703 505.679 314.838C505.377 314.974 505.034 314.984 504.725 314.867C504.416 314.75 504.166 314.515 504.031 314.214C502.525 310.873 501.772 307.243 501.827 303.58C501.882 299.917 502.743 296.311 504.349 293.017C506.993 287.354 507.691 281.449 508.426 275.204C508.706 272.812 508.994 270.336 509.403 267.883C509.932 265.315 510.766 262.819 511.889 260.449C512.843 258.417 513.585 256.291 514.101 254.105C514.829 249.994 515.307 245.843 515.533 241.675C515.738 239.01 515.943 236.255 516.291 233.582C517.049 227.412 518.504 215.913 527.597 214.096C539.403 211.734 549.572 214.096 557.718 221.084C559.72 222.973 561.474 225.107 562.94 227.435C565.076 230.531 567.1 233.491 570.123 235.005C572.348 235.96 574.674 236.661 577.057 237.095C581.937 238.2 587.476 239.449 590.037 244.105C593.872 251.07 590.795 263.644 590.151 266.097C589.545 268.368 588.878 270.639 588.234 272.812C586.697 277.679 585.489 282.643 584.619 287.672C584.21 290.307 583.862 292.911 583.513 295.492C582.407 303.691 581.368 311.443 578.625 319.43C568.312 349.484 554.559 365.783 537.751 367.88L537.592 367.864Z" fill="#151116"/>
<path d="M529.863 368.001C529.74 368.002 529.617 367.984 529.499 367.948C516.428 363.928 509.38 354.45 503.273 345.093C489.14 323.404 475.038 290.125 474.894 289.792C474.804 289.499 474.826 289.183 474.955 288.905C475.085 288.627 475.313 288.406 475.595 288.286C475.877 288.166 476.194 288.154 476.484 288.253C476.775 288.352 477.018 288.555 477.168 288.823C477.312 289.156 491.33 322.238 505.341 343.738C509.949 350.801 516.913 361.483 530.211 365.578C530.491 365.669 530.73 365.856 530.885 366.106C531.04 366.356 531.101 366.653 531.057 366.943C531.014 367.234 530.868 367.5 530.647 367.694C530.425 367.887 530.142 367.996 529.848 368.001H529.863Z" fill="#151116"/>
<path d="M521.52 219.592H521.467C521.138 219.577 520.828 219.432 520.606 219.189C520.383 218.947 520.265 218.627 520.277 218.298C520.55 212.31 518.762 208.623 516.67 204.353L516.011 202.998C514.958 200.803 512.328 197.782 509.539 194.58C506.349 190.916 502.72 186.76 500.204 182.467C498.873 180.091 497.838 177.562 497.12 174.935C496.437 172.486 495.498 170.116 494.316 167.864C491.861 163.405 493.149 161.346 494.142 160.514C496.112 158.848 499.939 159.545 503.235 162.164C504.712 163.345 505.675 165.192 506.698 167.175C507.59 169.089 508.74 170.872 510.115 172.475C512.76 175.344 517.132 176.093 520.292 175.563C520.64 175.521 520.972 175.396 521.261 175.198C521.55 175 521.787 174.736 521.952 174.428C523.528 171.71 521.952 165.041 520.527 161.218C520.285 160.574 519.194 158.606 518.565 157.516C518.468 157.375 518.402 157.215 518.37 157.047C518.338 156.88 518.34 156.707 518.378 156.54C518.416 156.374 518.488 156.217 518.589 156.079C518.691 155.941 518.819 155.826 518.967 155.741C519.115 155.655 519.279 155.601 519.449 155.581C519.619 155.562 519.791 155.578 519.955 155.628C520.118 155.678 520.27 155.761 520.399 155.872C520.529 155.984 520.635 156.12 520.709 156.274C521.493 157.594 522.209 158.954 522.854 160.347C523.263 161.437 526.756 171.082 524.104 175.669C523.755 176.293 523.267 176.828 522.679 177.233C522.09 177.639 521.416 177.904 520.709 178.009C516.92 178.652 511.57 177.706 508.289 174.163C506.765 172.383 505.491 170.404 504.5 168.281C503.568 166.471 502.757 164.912 501.697 164.064C499.029 161.944 496.536 161.717 495.756 162.368C495.225 162.815 495.149 164.162 496.513 166.623C497.792 169.031 498.808 171.569 499.544 174.193C500.206 176.634 501.162 178.986 502.394 181.196C504.811 185.291 508.35 189.356 511.487 192.937C514.624 196.518 517.132 199.417 518.307 201.916L518.951 203.248C521.088 207.639 523.111 211.78 522.816 218.389C522.81 218.553 522.772 218.714 522.703 218.863C522.635 219.013 522.538 219.147 522.418 219.259C522.297 219.371 522.156 219.458 522.002 219.515C521.848 219.572 521.684 219.598 521.52 219.592Z" fill="#151116"/>
<path d="M506.652 165.396C505.34 165.373 504.067 164.939 503.015 164.155C502.599 163.897 502.247 163.548 501.985 163.135C501.723 162.722 501.557 162.256 501.5 161.77C501.159 158.825 504.462 155.017 507.872 151.376C508.357 150.869 508.744 150.452 508.986 150.165C512.517 145.948 516.564 141.149 521.391 141.58C524.907 141.883 528.287 144.896 531.704 150.801C531.801 150.942 531.867 151.101 531.899 151.269C531.931 151.437 531.928 151.609 531.89 151.776C531.853 151.943 531.781 152.1 531.68 152.237C531.578 152.375 531.45 152.49 531.302 152.576C531.154 152.662 530.99 152.716 530.82 152.735C530.65 152.755 530.478 152.739 530.314 152.689C530.151 152.639 529.999 152.555 529.869 152.444C529.74 152.333 529.634 152.196 529.56 152.042C526.612 146.963 523.793 144.275 521.179 144.048C517.86 143.775 514.685 147.212 510.888 151.755C510.631 152.065 510.206 152.512 509.691 153.072C507.903 154.98 503.727 159.431 503.97 161.482C503.978 161.595 504.014 161.704 504.075 161.799C504.136 161.894 504.22 161.973 504.318 162.028L504.462 162.126C505.137 162.595 506.736 163.708 509.32 161.952C510.956 160.854 513.268 158.924 515.496 157.039C517.132 155.661 518.678 154.366 519.868 153.473C519.998 153.374 520.147 153.301 520.305 153.259C520.464 153.217 520.629 153.206 520.792 153.228C520.954 153.25 521.111 153.304 521.253 153.386C521.395 153.468 521.519 153.577 521.618 153.708C521.718 153.838 521.791 153.986 521.833 154.145C521.875 154.303 521.885 154.468 521.863 154.631C521.842 154.793 521.788 154.95 521.706 155.091C521.623 155.233 521.514 155.357 521.383 155.456C520.247 156.304 518.724 157.584 517.117 158.931C514.844 160.854 512.472 162.838 510.729 164.011C509.543 164.877 508.121 165.36 506.652 165.396Z" fill="#151116"/>
<path d="M552.846 219.38H552.763C552.434 219.359 552.128 219.208 551.91 218.961C551.693 218.714 551.582 218.391 551.603 218.063C551.671 217.094 551.724 215.837 551.793 214.414C552.043 208.888 552.429 200.545 553.778 195.746C555.059 191.158 556.173 186.661 557.249 182.293C558.378 177.698 559.446 173.353 560.712 168.894C560.747 168.728 560.817 168.571 560.915 168.433C561.014 168.295 561.14 168.179 561.286 168.091C561.431 168.003 561.593 167.947 561.762 167.924C561.93 167.902 562.101 167.914 562.265 167.96C562.428 168.006 562.58 168.085 562.712 168.192C562.844 168.3 562.952 168.433 563.03 168.583C563.108 168.734 563.155 168.899 563.166 169.068C563.178 169.238 563.155 169.408 563.099 169.568C561.848 173.989 560.78 178.311 559.658 182.884C558.582 187.26 557.461 191.787 556.165 196.42C554.869 201.053 554.521 209.115 554.271 214.528C554.202 215.974 554.149 217.238 554.081 218.222C554.064 218.537 553.926 218.833 553.696 219.048C553.466 219.264 553.161 219.383 552.846 219.38Z" fill="#151116"/>
<path d="M530.234 202.188C530.132 202.186 530.03 202.174 529.931 202.15C529.772 202.111 529.622 202.04 529.491 201.942C529.359 201.844 529.249 201.721 529.165 201.581C529.081 201.44 529.026 201.284 529.003 201.122C528.979 200.96 528.988 200.795 529.029 200.636C530.598 194.376 530.492 187.986 528.696 179.909C528.654 179.747 528.645 179.579 528.669 179.414C528.694 179.249 528.751 179.09 528.838 178.948C528.925 178.806 529.04 178.682 529.176 178.585C529.312 178.488 529.466 178.42 529.629 178.384C529.792 178.348 529.961 178.345 530.125 178.375C530.289 178.406 530.446 178.469 530.585 178.561C530.724 178.653 530.843 178.772 530.936 178.912C531.028 179.051 531.091 179.207 531.121 179.371C532.977 187.699 533.083 194.678 531.439 201.242C531.373 201.511 531.218 201.751 531 201.923C530.782 202.094 530.512 202.188 530.234 202.188Z" fill="#151116"/>
<path d="M243.661 283.069C243.475 283.069 243.291 283.028 243.124 282.948C242.956 282.868 242.808 282.752 242.691 282.607L227.937 264.249C227.832 264.122 227.754 263.976 227.706 263.818C227.658 263.661 227.643 263.496 227.66 263.332C227.676 263.168 227.726 263.009 227.805 262.865C227.883 262.72 227.99 262.593 228.119 262.49C228.247 262.387 228.395 262.311 228.554 262.266C228.712 262.22 228.878 262.207 229.041 262.226C229.205 262.246 229.363 262.297 229.507 262.378C229.65 262.459 229.776 262.568 229.877 262.698L244.631 281.056C244.836 281.312 244.931 281.639 244.896 281.965C244.86 282.292 244.697 282.59 244.441 282.797C244.219 282.972 243.944 283.068 243.661 283.069Z" fill="#151116"/>
<path d="M225.671 258.504C225.46 258.505 225.253 258.452 225.068 258.35C224.884 258.248 224.729 258.1 224.618 257.921C221.685 253.197 220.602 247.428 219.556 241.841C218.51 236.254 217.518 230.985 214.85 226.701C213.206 224.051 210.516 222.052 207.674 219.933C205.166 218.063 202.567 216.148 200.657 213.657C198.047 210.354 195.66 206.882 193.512 203.263C193.413 203.096 193.292 202.854 193.14 202.574C191.882 200.129 191.216 199.326 190.867 199.107C189.518 199.72 187.874 202.385 188.829 207.321C189.241 209.668 190.335 211.842 191.973 213.574C193.009 214.675 193.831 215.958 194.398 217.359C194.603 217.919 194.906 218.631 195.247 219.41C196.323 221.916 197.672 225.028 197.52 227.223C197.485 227.674 197.346 228.11 197.113 228.498C196.88 228.885 196.561 229.213 196.179 229.456C193.731 231.144 188.488 230.607 186.805 230.107C186.501 230.004 186.249 229.786 186.101 229.501C185.954 229.215 185.924 228.884 186.016 228.576C186.108 228.268 186.316 228.008 186.596 227.851C186.876 227.693 187.206 227.65 187.518 227.73C189.101 228.2 193.345 228.396 194.762 227.42C195.035 227.231 195.042 227.102 195.042 227.041C195.164 225.452 193.898 222.499 192.981 220.387C192.617 219.562 192.299 218.805 192.079 218.207C191.611 217.082 190.935 216.055 190.086 215.179C188.167 213.129 186.889 210.563 186.411 207.798C185.191 201.522 187.525 197.653 190.2 196.715C192.473 195.905 194.201 199.243 195.338 201.446L195.664 202.059C197.762 205.568 200.083 208.938 202.612 212.15C204.317 214.353 206.773 216.185 209.152 217.957C212.054 220.114 215.055 222.348 216.949 225.399C219.859 230.085 220.943 235.838 221.989 241.402C222.989 246.762 224.035 252.296 226.717 256.626C226.835 256.813 226.901 257.029 226.907 257.25C226.913 257.472 226.86 257.691 226.752 257.884C226.644 258.078 226.486 258.239 226.295 258.351C226.103 258.462 225.885 258.52 225.664 258.519L225.671 258.504Z" fill="#151116"/>
<path d="M220.511 318.249C220.281 318.25 220.055 318.188 219.859 318.069C219.662 317.95 219.502 317.779 219.397 317.575C219.253 317.28 204.499 288.391 200.665 280.98C196.649 273.289 187.927 263.848 181.107 259.904C178.788 258.557 176.363 257.3 174.022 256.081C167.96 252.932 161.663 249.669 156.593 244.559C154.911 242.841 153.994 240.615 153.1 238.458C152.713 237.526 152.342 236.641 151.94 235.838C151.539 235.036 150.902 234.014 150.288 233.045C149.187 231.439 148.278 229.708 147.583 227.889C147.583 227.791 146.825 225.474 147.682 223.907C147.836 223.618 148.051 223.365 148.313 223.166C148.575 222.967 148.876 222.828 149.197 222.757C153.32 221.78 157.29 226.262 158.04 227.17C159.359 228.752 160.526 230.463 161.655 232.114C164.209 235.853 166.626 239.381 170.248 240.774C170.551 240.896 170.793 241.132 170.923 241.431C171.054 241.73 171.061 242.068 170.943 242.372C170.826 242.677 170.593 242.922 170.296 243.057C169.999 243.191 169.66 243.203 169.354 243.091C165.012 241.425 162.261 237.405 159.601 233.514C158.51 231.909 157.374 230.251 156.123 228.752C154.433 226.701 151.721 224.71 149.773 225.172C149.695 225.823 149.757 226.484 149.955 227.11C150.591 228.735 151.412 230.282 152.403 231.72C153.024 232.704 153.661 233.711 154.168 234.703C154.676 235.694 155.024 236.58 155.411 237.511C156.169 239.449 157.033 241.448 158.381 242.811C163.148 247.648 168.99 250.669 175.151 253.871C177.515 255.105 179.97 256.377 182.342 257.747C189.48 261.895 198.672 271.805 202.802 279.837C206.636 287.248 221.398 316.174 221.541 316.439C221.637 316.628 221.683 316.838 221.674 317.049C221.666 317.26 221.604 317.465 221.494 317.646C221.384 317.826 221.23 317.975 221.046 318.08C220.862 318.184 220.654 318.239 220.443 318.241L220.511 318.249Z" fill="#151116"/>
<path d="M169.922 234.892H169.687C166.467 234.286 159.359 231.47 155.979 228.608C155.755 228.389 155.621 228.093 155.606 227.78C155.591 227.466 155.695 227.159 155.898 226.919C156.1 226.68 156.386 226.525 156.698 226.488C157.01 226.45 157.324 226.531 157.578 226.716C160.503 229.191 167.225 231.901 170.15 232.454C170.452 232.513 170.722 232.682 170.907 232.928C171.092 233.174 171.179 233.48 171.151 233.787C171.122 234.094 170.981 234.379 170.754 234.587C170.527 234.796 170.231 234.912 169.922 234.914V234.892Z" fill="#151116"/>
<path d="M157.252 244.975C156.975 244.967 156.708 244.866 156.495 244.688C155.031 243.721 153.472 242.907 151.842 242.258C150.69 241.735 149.569 241.243 148.811 240.812C146.75 239.631 143.832 237.148 139.892 233.241C139.013 232.363 137.96 231.455 136.861 230.501C134.167 228.303 131.69 225.852 129.465 223.18C127.601 220.909 128.283 219.486 128.851 218.873C130.965 216.602 138.248 218.434 140.331 219.85C142.98 221.526 145.715 223.065 148.523 224.46C148.797 224.618 148.999 224.875 149.09 225.177C149.181 225.48 149.154 225.805 149.013 226.088C148.872 226.371 148.628 226.589 148.331 226.699C148.035 226.808 147.708 226.801 147.417 226.678C144.514 225.227 141.691 223.623 138.96 221.871C136.959 220.508 131.556 219.781 130.723 220.508C130.908 220.899 131.143 221.266 131.42 221.598C133.553 224.146 135.923 226.485 138.498 228.586C139.649 229.577 140.771 230.516 141.688 231.462C145.408 235.179 148.235 237.602 150.084 238.654C150.743 239.033 151.781 239.502 152.872 239.994C154.71 240.723 156.459 241.657 158.086 242.78C158.28 242.941 158.42 243.158 158.488 243.4C158.556 243.643 158.548 243.901 158.466 244.139C158.384 244.377 158.231 244.585 158.028 244.734C157.824 244.884 157.58 244.968 157.328 244.975H157.252Z" fill="#151116"/>
<path d="M166.868 228.45C166.594 228.445 166.328 228.352 166.111 228.185C165.762 227.958 164.019 227.216 162.185 226.436C159.154 225.149 155.078 223.408 150.743 221.311C148.28 220.122 145.825 218.76 143.446 217.45C140.589 215.868 137.884 214.376 135.459 213.332C133.058 212.253 130.533 211.475 127.942 211.015C127.588 210.957 127.225 211.036 126.926 211.235C126.871 211.326 126.836 211.428 126.823 211.533C126.81 211.639 126.819 211.746 126.851 211.848C127.192 213.544 130.298 216.473 132.155 217.904C132.416 218.105 132.587 218.401 132.63 218.728C132.672 219.054 132.583 219.384 132.382 219.645C132.181 219.906 131.885 220.077 131.558 220.119C131.231 220.162 130.901 220.073 130.639 219.872C130.071 219.426 125.032 215.459 124.403 212.302C124.294 211.832 124.294 211.344 124.403 210.874C124.512 210.405 124.727 209.966 125.032 209.592C125.416 209.186 125.891 208.876 126.418 208.688C126.944 208.5 127.508 208.439 128.063 208.509C130.942 208.968 133.746 209.814 136.399 211.023C138.937 212.113 141.703 213.634 144.613 215.247C146.954 216.549 149.379 217.889 151.781 219.032C156.063 221.091 160.117 222.817 163.148 224.104C166.527 225.55 167.285 225.891 167.694 226.224C167.943 226.439 168.097 226.744 168.121 227.072C168.145 227.399 168.038 227.724 167.823 227.973C167.711 228.119 167.566 228.238 167.401 228.321C167.235 228.404 167.053 228.448 166.868 228.45Z" fill="#151116"/>
<path d="M196.899 252.523C196.623 252.517 196.357 252.421 196.141 252.251C190.442 247.822 183.424 245.424 176.204 245.437C176.041 245.437 175.879 245.405 175.729 245.343C175.578 245.28 175.441 245.189 175.325 245.074C175.21 244.958 175.118 244.821 175.056 244.671C174.994 244.52 174.961 244.359 174.961 244.196C174.961 244.033 174.994 243.871 175.056 243.721C175.118 243.57 175.21 243.433 175.325 243.318C175.441 243.203 175.578 243.111 175.729 243.049C175.879 242.986 176.041 242.954 176.204 242.954C183.986 242.938 191.55 245.52 197.695 250.29C197.894 250.45 198.04 250.667 198.111 250.912C198.183 251.158 198.176 251.419 198.093 251.661C198.011 251.903 197.855 252.113 197.648 252.264C197.441 252.414 197.193 252.496 196.937 252.5L196.899 252.523Z" fill="#151116"/>
<path d="M563.174 166.297C563.074 166.308 562.972 166.308 562.871 166.297C562.712 166.257 562.563 166.187 562.431 166.089C562.3 165.991 562.189 165.868 562.105 165.728C562.021 165.587 561.966 165.431 561.943 165.269C561.92 165.107 561.929 164.942 561.97 164.783C563.318 159.484 565.614 153.132 567.274 148.515C567.918 146.751 568.471 145.237 568.842 144.124C569.115 143.291 569.456 142.39 569.812 141.451C570.949 138.423 572.503 134.343 571.457 132.95C571.401 132.851 571.325 132.764 571.234 132.696C571.143 132.628 571.038 132.581 570.926 132.556C569.684 132.594 567.304 136.175 566.168 137.901C564.707 140.338 563.498 142.918 562.561 145.6C561.924 147.212 561.204 149.037 560.355 150.96C558.749 154.609 555.248 160.65 552.528 160.188C552.217 160.13 551.94 159.957 551.753 159.703C551.566 159.448 551.483 159.133 551.52 158.819C551.558 158.506 551.714 158.219 551.956 158.016C552.198 157.813 552.508 157.71 552.823 157.728C553.505 157.47 555.854 154.995 558.09 149.953C558.916 148.075 559.605 146.357 560.249 144.692C561.246 141.845 562.536 139.111 564.099 136.531C566.493 132.912 568.509 130.149 570.851 130.073C571.364 130.077 571.868 130.205 572.32 130.448C572.771 130.691 573.157 131.04 573.442 131.466C575.306 133.942 573.7 138.204 572.139 142.322C571.798 143.23 571.464 144.109 571.192 144.911C570.82 146.031 570.26 147.576 569.608 149.362C567.948 153.905 565.667 160.188 564.357 165.389C564.283 165.647 564.129 165.875 563.916 166.038C563.703 166.202 563.443 166.293 563.174 166.297Z" fill="#151116"/>
<path d="M552.467 160.173C552.237 160.174 552.012 160.111 551.816 159.991C551.621 159.87 551.463 159.697 551.361 159.492C549.929 156.63 550.717 150.801 551.24 146.948C551.323 146.319 551.406 145.759 551.459 145.29C552.353 137.719 553.581 132.42 555.248 125.009L555.354 124.555C555.483 124.01 555.627 123.427 555.779 122.813C556.582 119.558 557.681 115.107 556.892 112.215C556.876 112.142 556.845 112.072 556.802 112.011C556.143 112.069 555.519 112.334 555.021 112.768C553.066 114.236 550.474 120.065 549.307 123.54L549.224 123.782C546.731 131.353 543.919 139.93 543.162 154.934C543.138 155.26 542.991 155.564 542.75 155.783C542.509 156.003 542.192 156.122 541.866 156.115C541.703 156.108 541.543 156.07 541.395 156.001C541.247 155.932 541.115 155.834 541.005 155.714C540.895 155.594 540.81 155.453 540.755 155.299C540.7 155.146 540.676 154.983 540.684 154.821C541.442 139.476 544.306 130.724 546.844 123.025L546.928 122.776C547.784 120.171 550.641 112.934 553.505 110.799C554.051 110.391 555.945 109.119 557.605 109.687C558.017 109.837 558.385 110.089 558.675 110.418C558.964 110.747 559.167 111.144 559.264 111.572C560.227 115.092 559.082 119.71 558.166 123.427C558.014 124.025 557.87 124.592 557.749 125.122L557.643 125.577C555.96 132.874 554.74 138.151 553.854 145.6C553.801 146.077 553.717 146.652 553.634 147.296C553.21 150.415 552.422 156.221 553.513 158.394C553.658 158.689 553.68 159.03 553.575 159.342C553.47 159.654 553.246 159.912 552.952 160.059C552.8 160.131 552.635 160.17 552.467 160.173Z" fill="#151116"/>
<path d="M530.901 155.002C530.573 155.002 530.259 154.872 530.028 154.641C529.796 154.41 529.666 154.096 529.666 153.768C529.666 148.78 529.31 143.829 528.976 139.044C528.408 131.004 527.817 122.7 528.908 114.229C529.135 112.518 530.424 103.903 534.326 101.828C534.907 101.511 535.558 101.345 536.221 101.345C536.883 101.345 537.534 101.511 538.115 101.828C540.714 103.123 540.722 108.498 540.487 114.372C540.487 115.22 540.426 115.887 540.434 116.333C540.638 123.904 540.987 136.523 543.753 144.835C543.81 144.991 543.836 145.157 543.827 145.324C543.819 145.49 543.777 145.652 543.704 145.802C543.631 145.951 543.529 146.085 543.403 146.194C543.278 146.303 543.131 146.385 542.973 146.436C542.814 146.487 542.647 146.506 542.482 146.491C542.316 146.476 542.155 146.427 542.008 146.348C541.862 146.27 541.733 146.162 541.629 146.032C541.525 145.902 541.448 145.753 541.404 145.592C538.494 137.023 538.145 124.153 537.941 116.432C537.941 115.97 537.941 115.22 537.994 114.304C538.304 106.416 537.622 104.387 536.994 104.077C536.768 103.935 536.51 103.854 536.244 103.844C535.978 103.833 535.714 103.892 535.478 104.016C533.318 105.167 531.803 111.087 531.356 114.547C530.295 122.768 530.848 130.588 531.431 138.87C531.78 143.7 532.129 148.711 532.129 153.768C532.129 154.094 531.999 154.407 531.769 154.638C531.539 154.869 531.227 155 530.901 155.002Z" fill="#151116"/>
<path d="M309.617 360.604C309.364 360.604 309.117 360.527 308.91 360.382C308.702 360.237 308.545 360.032 308.458 359.794C306.139 353.549 303.616 347.591 298.311 343.344C297.379 342.587 296.295 341.777 295.136 340.899C291.112 337.871 286.103 334.086 283.641 330.475C282.512 328.817 281.428 327.053 280.382 325.35C278.811 322.646 277.067 320.047 275.161 317.567C273.35 315.296 271.312 313.192 269.342 311.14C266.424 308.262 263.75 305.148 261.347 301.829C259.438 299.035 257.513 296.295 255.581 293.562C253.648 290.829 251.739 288.096 249.844 285.325C249.549 284.901 249.215 284.326 248.852 283.69C248.033 282.252 246.51 279.587 245.381 279.466C245.053 279.43 244.754 279.265 244.548 279.008C244.341 278.751 244.246 278.423 244.282 278.096C244.298 277.933 244.347 277.775 244.425 277.631C244.503 277.487 244.609 277.36 244.736 277.258C244.864 277.156 245.011 277.08 245.169 277.035C245.326 276.991 245.491 276.978 245.654 276.998C248.033 277.255 249.685 280.14 251.011 282.456C251.337 283.031 251.633 283.546 251.89 283.925C253.785 286.688 255.679 289.413 257.611 292.131C259.544 294.849 261.484 297.627 263.393 300.458C265.724 303.661 268.311 306.669 271.13 309.452C273.138 311.541 275.214 313.699 277.101 316.038C279.069 318.605 280.873 321.293 282.504 324.085C283.535 325.766 284.596 327.5 285.694 329.104C287.922 332.367 292.749 336.016 296.629 338.946C297.811 339.839 298.902 340.672 299.865 341.429C305.669 346.077 308.336 352.368 310.784 358.954C310.839 359.109 310.864 359.273 310.856 359.437C310.847 359.601 310.807 359.761 310.737 359.91C310.666 360.058 310.567 360.191 310.445 360.301C310.323 360.411 310.181 360.496 310.026 360.551C309.893 360.589 309.755 360.607 309.617 360.604Z" fill="#151116"/>
<path d="M296.826 424.937C294.939 424.932 293.054 424.815 291.181 424.589C272.88 422.408 260.87 412.476 248.101 400.667C237.493 390.825 233.878 386.427 224.898 375.033C223.7 373.813 222.353 372.748 220.89 371.861C216.805 369.06 211.205 365.215 208.076 358.235C201.097 342.557 211.637 327.954 220.958 315.145C222.921 312.442 224.747 309.883 226.429 307.362C228.384 304.568 230.515 301.9 232.81 299.376C237.78 293.645 242.926 287.71 243.001 281.608C243.007 281.282 243.141 280.971 243.373 280.742C243.605 280.513 243.918 280.384 244.244 280.382C244.573 280.388 244.887 280.523 245.116 280.758C245.346 280.994 245.474 281.31 245.472 281.639C245.381 288.656 239.933 294.932 234.666 300.996C232.449 303.442 230.386 306.023 228.49 308.725C226.8 311.291 224.929 313.873 222.951 316.598C214.047 328.908 203.954 342.852 210.349 357.228C213.191 363.61 218.457 367.221 222.307 369.855C224.315 371.233 225.906 372.323 226.853 373.542C235.734 384.814 239.341 389.213 249.784 398.88C262.666 410.788 273.881 420.077 291.461 422.159C301.941 423.408 309.132 421.19 312.838 415.557C312.928 415.421 313.044 415.304 313.179 415.213C313.314 415.121 313.466 415.057 313.627 415.025C313.787 414.992 313.952 414.991 314.112 415.022C314.272 415.053 314.425 415.115 314.561 415.205C314.698 415.295 314.815 415.411 314.907 415.546C314.998 415.682 315.062 415.834 315.095 415.994C315.127 416.154 315.128 416.318 315.097 416.479C315.066 416.639 315.004 416.791 314.914 416.928C311.39 422.242 305.313 424.937 296.826 424.937Z" fill="#151116"/>
</g>
<defs>
<clipPath id="clip0_1123_46969">
<rect width="592" height="453" fill="white"/>
</clipPath>
</defs>
</svg>
