<svg width="208" height="42" viewBox="0 0 208 42" fill="none" xmlns="http://www.w3.org/2000/svg">
<g clip-path="url(#clip0_1252_2035)">
<path d="M12.4914 40.218L22.7076 28.8726H2.27515L12.4914 40.218Z" fill="#FAB680"/>
<path d="M12.4915 40.218L22.7077 28.8726H12.4915L12.4915 40.218Z" fill="#D09668"/>
<path d="M12.4914 40.2181L17.5995 34.5454H7.3833L12.4914 40.2181Z" fill="#2D3741"/>
<path d="M22.3612 26.0361H2.85742V28.8725H22.3612V26.0361Z" fill="#FAB680"/>
<path d="M22.3612 26.0361H13.0737V28.8725H22.3612V26.0361Z" fill="#D09668"/>
<path d="M21.7791 9.01807H18.064C17.0382 9.01807 16.2065 9.86466 16.2065 10.909V27.9272C16.2065 28.9715 17.0382 29.8181 18.064 29.8181H21.7791C22.8049 29.8181 23.6366 28.9715 23.6366 27.9272V10.909C23.6366 9.86466 22.8049 9.01807 21.7791 9.01807Z" fill="#FDBD13"/>
<path d="M14.3489 13.7456H10.6339C9.608 13.7456 8.77637 14.5922 8.77637 15.6365V27.9274C8.77637 28.9717 9.608 29.8183 10.6339 29.8183H14.3489C15.3747 29.8183 16.2064 28.9717 16.2064 27.9274V15.6365C16.2064 14.5922 15.3747 13.7456 14.3489 13.7456Z" fill="#EC5334"/>
<path d="M1.34644 20.3636C1.34644 19.3192 2.17807 18.4727 3.20394 18.4727H6.91895C7.94482 18.4727 8.77645 19.3192 8.77645 20.3636V27.9272C8.77645 28.9716 7.94482 29.8181 6.91895 29.8181H3.20394C2.17807 29.8181 1.34644 28.9716 1.34644 27.9272V20.3636Z" fill="#2D3645"/>
<path fill-rule="evenodd" clip-rule="evenodd" d="M1 8.07291H23.9829C22.416 3.68392 17.8634 0.509277 12.4914 0.509277C7.11947 0.509277 2.56691 3.68392 1 8.07291Z" fill="#2D3743"/>
<path d="M1.00001 8.07286L0.738142 7.97595L0.602295 8.3565H1.00001V8.07286ZM23.9829 8.07286V8.3565H24.3806L24.2448 7.97595L23.9829 8.07286ZM1.00001 8.3565H23.9829V7.78922H1.00001V8.3565ZM12.4915 0.792859C17.7599 0.792859 22.1986 3.90539 23.721 8.16977L24.2448 7.97595C22.6333 3.46226 17.967 0.225586 12.4915 0.225586V0.792859ZM1.26188 8.16977C2.78429 3.90539 7.22301 0.792859 12.4915 0.792859V0.225586C7.01595 0.225586 2.34955 3.46226 0.738142 7.97595L1.26188 8.16977Z" fill="#263238"/>
<path d="M43.5913 10.5292H50.1522L47.9509 20.9054C45.8926 21.6351 43.8962 22 41.9617 22C39.446 22 37.4877 21.2995 36.0869 19.8985C34.6956 18.4878 34 16.5224 34 14.0025C34 11.3854 34.4812 9.00656 35.4436 6.86613C36.4156 4.71598 37.7593 3.04736 39.4746 1.86036C41.1898 0.663758 43.091 0.065361 45.1779 0.065361C46.2928 0.065361 47.3363 0.162658 48.3083 0.357242C49.2898 0.551783 50.2761 0.863156 51.2671 1.2912L50.3238 3.50956C49.5899 3.17876 48.799 2.89172 47.9509 2.64845C47.1123 2.40529 46.188 2.2836 45.1779 2.2836C43.5674 2.2836 42.0999 2.77985 40.7753 3.77226C39.4603 4.75484 38.4359 6.13162 37.7021 7.9023C36.9684 9.67307 36.6015 11.653 36.6015 13.8421C36.6015 15.6906 37.0875 17.1452 38.0595 18.2057C39.041 19.2661 40.4084 19.7964 42.1618 19.7964C43.6294 19.7964 44.8682 19.6066 45.8783 19.2272L47.2505 12.7475H43.1195L43.5913 10.5292ZM62.0877 21.7082L64.2033 11.6092C64.3747 10.6946 64.4605 10.0379 64.4605 9.63902C64.4605 8.19904 63.7601 7.47905 62.3593 7.47905C61.5112 7.47905 60.6821 7.76609 59.8722 8.34016C59.0716 8.91412 58.3617 9.75089 57.7424 10.8502C57.1324 11.94 56.6703 13.2583 56.3558 14.8052L54.9121 21.7082H52.5108L57.2278 -1H59.6292C59.4576 -0.202194 59.2909 0.571318 59.1288 1.32045C58.9764 2.06958 58.8144 2.83333 58.6429 3.61171C58.4808 4.38027 58.2998 5.18779 58.0997 6.03427C57.9091 6.88075 57.6852 7.80014 57.4279 8.79254H57.5851C58.4808 7.59583 59.3623 6.73964 60.2295 6.22396C61.1062 5.70838 62.021 5.45049 62.974 5.45049C64.2223 5.45049 65.1848 5.80082 65.8613 6.50128C66.5474 7.20184 66.8905 8.19413 66.8905 9.47848C66.8905 10.0817 66.7809 10.8892 66.5617 11.901C66.19 13.7788 65.4992 17.0478 64.4891 21.7082H62.0877ZM77.754 5.50888C79.5646 5.50888 80.9939 6.05861 82.0422 7.15797C83.0904 8.24772 83.6145 9.75089 83.6145 11.6676C83.6145 13.4966 83.2714 15.2236 82.5853 16.8484C81.8992 18.4732 80.9701 19.7283 79.798 20.6136C78.6259 21.4989 77.3013 21.9417 75.8243 21.9417C73.9946 21.9417 72.5604 21.392 71.5218 20.2925C70.4831 19.1932 69.9637 17.69 69.9637 15.783C69.9637 13.9344 70.3115 12.1978 71.0072 10.573C71.7028 8.93846 72.6414 7.68827 73.8231 6.82236C75.0047 5.94674 76.315 5.50888 77.754 5.50888ZM81.1274 11.3319C81.1274 10.213 80.8271 9.30822 80.2268 8.61737C79.636 7.91692 78.8307 7.56669 77.8111 7.56669C76.7724 7.56669 75.8386 7.92663 75.0095 8.64662C74.1899 9.36661 73.5515 10.3687 73.0941 11.653C72.6462 12.9275 72.4223 14.3479 72.4223 15.9144C72.4223 17.1889 72.7225 18.1764 73.3228 18.877C73.9326 19.5677 74.8046 19.9131 75.9386 19.9131C76.9297 19.9131 77.8207 19.558 78.6116 18.8477C79.4025 18.1375 80.0172 17.1305 80.4555 15.8268C80.9034 14.5134 81.1274 13.015 81.1274 11.3319ZM95.5071 17.1694C95.5071 18.6872 94.9782 19.8742 93.9205 20.7304C92.8723 21.5769 91.3905 22 89.475 22C87.8646 22 86.4114 21.6644 85.1154 20.9931V18.6872C85.7824 19.0958 86.5019 19.4121 87.2738 19.6358C88.0456 19.8596 88.7603 19.9714 89.4178 19.9714C90.6186 19.9714 91.5239 19.7283 92.1337 19.2418C92.7436 18.7553 93.0485 18.1327 93.0485 17.3738C93.0485 16.8192 92.8818 16.3522 92.5483 15.9728C92.2147 15.5933 91.4952 15.0728 90.3898 14.4112C89.151 13.701 88.2744 13.0053 87.7598 12.3243C87.2452 11.6433 86.9879 10.8357 86.9879 9.90172C86.9879 8.55898 87.4691 7.47905 88.4316 6.66182C89.3941 5.83487 90.6614 5.42135 92.2338 5.42135C93.8633 5.42135 95.4356 5.78129 96.9508 6.50128L96.1789 8.5007L95.3784 8.13585C94.416 7.71741 93.3677 7.5083 92.2338 7.5083C91.3475 7.5083 90.6519 7.72232 90.1468 8.15037C89.6418 8.5688 89.3893 9.11363 89.3893 9.78494C89.3893 10.3298 89.556 10.7968 89.8895 11.186C90.2326 11.5751 90.9331 12.0762 91.9908 12.6891C93.0104 13.2729 93.7394 13.774 94.1778 14.1923C94.6257 14.6106 94.9592 15.063 95.1783 15.5496C95.3975 16.0263 95.5071 16.5662 95.5071 17.1694ZM103.197 20.0007C103.722 20.0007 104.408 19.8742 105.256 19.6212V21.5038C104.931 21.6401 104.531 21.7568 104.055 21.8541C103.579 21.9514 103.197 22 102.912 22C101.72 22 100.805 21.7131 100.167 21.139C99.538 20.5552 99.2235 19.6893 99.2235 18.5413C99.2235 17.8991 99.3093 17.1694 99.4808 16.3522L101.296 7.56669H98.8376L99.0377 6.50128L101.682 5.36296L103.469 2.03553H104.87L104.084 5.71318H108L107.629 7.56669H103.726L101.882 16.3814C101.711 17.2278 101.625 17.87 101.625 18.3078C101.625 18.8526 101.763 19.271 102.04 19.5628C102.316 19.8548 102.701 20.0007 103.197 20.0007Z" fill="white"/>
<path d="M136.925 21.7082H131.893L129.07 10.5C128.965 10.1011 128.785 9.27897 128.528 8.0337C128.281 6.7786 128.138 5.93703 128.1 5.50888C128.044 6.03427 127.901 6.88075 127.672 8.04821C127.445 9.20607 127.269 10.033 127.145 10.5292L124.336 21.7082H119.318L114 0.371812H118.349L121.015 12.0178C121.48 14.168 121.818 16.0311 122.027 17.6073C122.084 17.0527 122.212 16.1965 122.411 15.0388C122.621 13.8712 122.816 12.9663 122.996 12.3243L126.033 0.371812H130.21L133.247 12.3243C133.381 12.8594 133.546 13.6766 133.747 14.7761C133.946 15.8754 134.098 16.8192 134.202 17.6073C134.297 16.8484 134.45 15.9047 134.659 14.7761C134.868 13.6378 135.057 12.7183 135.229 12.0178L137.88 0.371812H142.229L136.925 21.7082ZM153.407 5.08564C153.996 5.08564 154.486 5.12951 154.875 5.21704L154.548 9.39084C154.196 9.2936 153.768 9.24492 153.264 9.24492C151.877 9.24492 150.794 9.60977 150.013 10.3395C149.244 11.0692 148.859 12.0907 148.859 13.4042V21.7082H144.511V5.3921H147.804L148.445 8.13585H148.659C149.153 7.22127 149.818 6.48665 150.655 5.93212C151.502 5.36787 152.418 5.08564 153.407 5.08564ZM157.584 1.17453C157.584 -0.275164 158.373 -1 159.95 -1C161.528 -1 162.318 -0.275164 162.318 1.17453C162.318 1.86527 162.118 2.40529 161.719 2.79437C161.329 3.17385 160.74 3.36364 159.95 3.36364C158.373 3.36364 157.584 2.63393 157.584 1.17453ZM162.118 21.7082H157.77V5.3921H162.118V21.7082ZM173.41 18.4537C174.17 18.4537 175.083 18.2835 176.147 17.943V21.2558C175.064 21.7519 173.733 22 172.156 22C170.416 22 169.147 21.5525 168.348 20.6574C167.56 19.7526 167.165 18.4002 167.165 16.6002V8.73415H165.083V6.85151L167.478 5.36296L168.733 1.91875H171.513V5.3921H175.976V8.73415H171.513V16.6002C171.513 17.2327 171.684 17.6997 172.027 18.0013C172.379 18.3029 172.84 18.4537 173.41 18.4537ZM185.984 8.25252C185.062 8.25252 184.34 8.55418 183.817 9.15739C183.295 9.75089 182.996 10.5973 182.919 11.6967H189.021C189.002 10.5973 188.722 9.75089 188.18 9.15739C187.638 8.55418 186.906 8.25252 185.984 8.25252ZM186.597 22C184.031 22 182.026 21.2752 180.581 19.8255C179.136 18.3759 178.414 16.323 178.414 13.6669C178.414 10.933 179.08 8.82168 180.41 7.33313C181.75 5.83487 183.599 5.08564 185.956 5.08564C188.209 5.08564 189.963 5.74243 191.217 7.05581C192.472 8.3693 193.099 10.1838 193.099 12.4993V14.6593H182.819C182.867 15.9241 183.233 16.9116 183.917 17.6219C184.601 18.3321 185.562 18.6872 186.798 18.6872C187.757 18.6872 188.665 18.585 189.52 18.3807C190.375 18.1764 191.269 17.8505 192.2 17.403V20.8472C191.44 21.2362 190.628 21.5233 189.762 21.7082C188.898 21.9028 187.843 22 186.597 22ZM205.531 5.08564C206.121 5.08564 206.61 5.12951 207 5.21704L206.672 9.39084C206.32 9.2936 205.893 9.24492 205.389 9.24492C204.001 9.24492 202.917 9.60977 202.138 10.3395C201.368 11.0692 200.983 12.0907 200.983 13.4042V21.7082H196.634V5.3921H199.928L200.57 8.13585H200.784C201.278 7.22127 201.943 6.48665 202.78 5.93212C203.625 5.36787 204.543 5.08564 205.531 5.08564Z" fill="#E95334"/>
<path d="M42.112 32.86C42.112 34.108 41.756 35.132 41.044 35.932C40.332 36.732 39.424 37.132 38.32 37.132C37.208 37.132 36.296 36.736 35.584 35.944C34.88 35.152 34.528 34.132 34.528 32.884V32.74C34.528 31.484 34.884 30.46 35.596 29.668C36.308 28.868 37.22 28.468 38.332 28.468C39.436 28.468 40.34 28.864 41.044 29.656C41.756 30.448 42.112 31.468 42.112 32.716V32.86ZM40.324 32.884V32.74C40.324 31.924 40.136 31.276 39.76 30.796C39.392 30.308 38.912 30.064 38.32 30.064C37.72 30.064 37.236 30.304 36.868 30.784C36.508 31.256 36.328 31.9 36.328 32.716V32.86C36.328 33.676 36.512 34.328 36.88 34.816C37.256 35.296 37.74 35.536 38.332 35.536C38.932 35.536 39.412 35.3 39.772 34.828C40.14 34.348 40.324 33.7 40.324 32.884ZM46.5364 32.008H45.3004V37H43.6084V32.008H42.9604V30.604H43.6084V30.184C43.6084 28.904 44.2324 28.264 45.4804 28.264C45.8804 28.264 46.2364 28.312 46.5484 28.408V29.812C46.3484 29.74 46.1404 29.704 45.9244 29.704C45.5004 29.704 45.2884 29.924 45.2884 30.364V30.604H46.5364V32.008ZM50.5684 32.008H49.3324V37H47.6404V32.008H46.9924V30.604H47.6404V30.184C47.6404 28.904 48.2644 28.264 49.5124 28.264C49.9124 28.264 50.2684 28.312 50.5804 28.408V29.812C50.3724 29.74 50.1644 29.704 49.9564 29.704C49.5324 29.704 49.3204 29.924 49.3204 30.364V30.604H50.5684V32.008ZM53.2084 29.884H51.4324V28.336H53.2084V29.884ZM53.1604 37H51.4564V30.568H53.1604V37ZM59.2619 37H54.3899V35.8L57.2219 31.96H54.4739V30.568H59.2619V31.768L56.4179 35.608H59.2619V37ZM62.1952 29.884H60.4192V28.336H62.1952V29.884ZM62.1472 37H60.4432V30.568H62.1472V37ZM68.8744 33.868C68.8744 34.084 68.8664 34.272 68.8504 34.432H65.0104C65.1624 35.288 65.6264 35.716 66.4024 35.716C66.9064 35.716 67.3824 35.516 67.8304 35.116L68.5984 36.148C68.0064 36.804 67.2544 37.132 66.3424 37.132C65.4704 37.132 64.7464 36.832 64.1704 36.232C63.6024 35.632 63.3184 34.844 63.3184 33.868V33.748C63.3184 32.796 63.5824 32.012 64.1104 31.396C64.6464 30.772 65.3224 30.46 66.1384 30.46C67.0184 30.46 67.6944 30.78 68.1664 31.42C68.6384 32.052 68.8744 32.868 68.8744 33.868ZM67.2304 33.292C67.1904 32.844 67.0744 32.492 66.8824 32.236C66.6984 31.98 66.4504 31.852 66.1384 31.852C65.8264 31.852 65.5704 31.976 65.3704 32.224C65.1784 32.472 65.0544 32.828 64.9984 33.292H67.2304ZM71.7566 37H70.0526V28.336H71.7566V37ZM74.9558 37H73.2518V28.336H74.9558V37ZM84.3931 37H82.7251V36.316C82.3091 36.844 81.7531 37.108 81.0571 37.108C80.5051 37.108 80.0451 36.936 79.6771 36.592C79.3171 36.248 79.1371 35.776 79.1371 35.176V35.092C79.1371 34.412 79.3371 33.9 79.7371 33.556C80.1451 33.212 80.6931 33.04 81.3811 33.04C81.8611 33.04 82.3131 33.124 82.7371 33.292V33.112C82.7371 32.36 82.3251 31.984 81.5011 31.984C81.0291 31.984 80.5091 32.096 79.9411 32.32L79.6171 30.94C80.2891 30.644 81.0091 30.496 81.7771 30.496C82.6491 30.496 83.3011 30.72 83.7331 31.168C84.1731 31.616 84.3931 32.26 84.3931 33.1V37ZM82.7491 34.9V34.348C82.4771 34.212 82.1611 34.144 81.8011 34.144C81.4811 34.144 81.2291 34.22 81.0451 34.372C80.8691 34.516 80.7811 34.728 80.7811 35.008V35.092C80.7811 35.348 80.8571 35.544 81.0091 35.68C81.1611 35.816 81.3611 35.884 81.6091 35.884C81.9451 35.884 82.2171 35.796 82.4251 35.62C82.6411 35.436 82.7491 35.196 82.7491 34.9ZM90.9157 37H89.2117V36.136C88.7397 36.792 88.1877 37.12 87.5557 37.12C86.9557 37.12 86.4877 36.928 86.1517 36.544C85.8237 36.152 85.6597 35.62 85.6597 34.948V30.568H87.3637V34.444C87.3637 34.812 87.4397 35.096 87.5917 35.296C87.7517 35.488 87.9757 35.584 88.2637 35.584C88.5597 35.584 88.7917 35.488 88.9597 35.296C89.1277 35.096 89.2117 34.812 89.2117 34.444V30.568H90.9157V37ZM95.4974 32.008H94.2614V37H92.5694V32.008H91.9214V30.604H92.5694V30.184C92.5694 28.904 93.1934 28.264 94.4414 28.264C94.8414 28.264 95.1974 28.312 95.5094 28.408V29.812C95.3094 29.74 95.1014 29.704 94.8854 29.704C94.4614 29.704 94.2494 29.924 94.2494 30.364V30.604H95.4974V32.008ZM105.083 37H103.379V36.112C102.915 36.784 102.335 37.12 101.639 37.12C100.951 37.12 100.367 36.84 99.8867 36.28C99.4147 35.72 99.1787 34.92 99.1787 33.88V33.688C99.1787 32.648 99.4147 31.848 99.8867 31.288C100.359 30.728 100.943 30.448 101.639 30.448C102.319 30.448 102.899 30.76 103.379 31.384V28.336H105.083V37ZM103.403 33.856V33.712C103.403 33.176 103.283 32.748 103.043 32.428C102.803 32.1 102.503 31.936 102.143 31.936C101.783 31.936 101.483 32.1 101.243 32.428C101.003 32.748 100.883 33.176 100.883 33.712V33.856C100.883 34.392 101.003 34.824 101.243 35.152C101.483 35.472 101.783 35.632 102.143 35.632C102.503 35.632 102.803 35.472 103.043 35.152C103.283 34.824 103.403 34.392 103.403 33.856ZM111.742 33.868C111.742 34.084 111.734 34.272 111.718 34.432H107.878C108.03 35.288 108.494 35.716 109.27 35.716C109.774 35.716 110.25 35.516 110.698 35.116L111.466 36.148C110.874 36.804 110.122 37.132 109.21 37.132C108.338 37.132 107.614 36.832 107.038 36.232C106.47 35.632 106.186 34.844 106.186 33.868V33.748C106.186 32.796 106.45 32.012 106.978 31.396C107.514 30.772 108.19 30.46 109.006 30.46C109.886 30.46 110.562 30.78 111.034 31.42C111.506 32.052 111.742 32.868 111.742 33.868ZM110.098 33.292C110.058 32.844 109.942 32.492 109.75 32.236C109.566 31.98 109.318 31.852 109.006 31.852C108.694 31.852 108.438 31.976 108.238 32.224C108.046 32.472 107.922 32.828 107.866 33.292H110.098ZM121.572 37H119.868V33.124C119.868 32.756 119.792 32.476 119.64 32.284C119.488 32.084 119.272 31.984 118.992 31.984C118.704 31.984 118.476 32.084 118.308 32.284C118.148 32.476 118.068 32.756 118.068 33.124V37H116.364V33.124C116.364 32.364 116.068 31.984 115.476 31.984C115.196 31.984 114.972 32.084 114.804 32.284C114.644 32.476 114.564 32.756 114.564 33.124V37H112.86V30.568H114.564V31.432C115.028 30.776 115.584 30.448 116.232 30.448C116.968 30.448 117.5 30.76 117.828 31.384C118.348 30.76 118.956 30.448 119.652 30.448C120.244 30.448 120.712 30.636 121.056 31.012C121.4 31.38 121.572 31.912 121.572 32.608V37ZM133.521 37H131.817V31.636L129.837 35.104H129.801L127.833 31.672V37H126.153V28.6H127.977L129.825 32.008L131.685 28.6H133.521V37ZM139.952 37H138.284V36.316C137.868 36.844 137.312 37.108 136.616 37.108C136.064 37.108 135.604 36.936 135.236 36.592C134.876 36.248 134.696 35.776 134.696 35.176V35.092C134.696 34.412 134.896 33.9 135.296 33.556C135.704 33.212 136.252 33.04 136.94 33.04C137.42 33.04 137.872 33.124 138.296 33.292V33.112C138.296 32.36 137.884 31.984 137.06 31.984C136.588 31.984 136.068 32.096 135.5 32.32L135.176 30.94C135.848 30.644 136.568 30.496 137.336 30.496C138.208 30.496 138.86 30.72 139.292 31.168C139.732 31.616 139.952 32.26 139.952 33.1V37ZM138.308 34.9V34.348C138.036 34.212 137.72 34.144 137.36 34.144C137.04 34.144 136.788 34.22 136.604 34.372C136.428 34.516 136.34 34.728 136.34 35.008V35.092C136.34 35.348 136.416 35.544 136.568 35.68C136.72 35.816 136.92 35.884 137.168 35.884C137.504 35.884 137.776 35.796 137.984 35.62C138.2 35.436 138.308 35.196 138.308 34.9ZM144.71 32.308H144.638C144.102 32.308 143.686 32.476 143.39 32.812C143.102 33.148 142.958 33.648 142.958 34.312V37H141.254V30.568H142.958V31.708C143.318 30.844 143.902 30.428 144.71 30.46V32.308ZM151.18 37H149.248L147.904 34.432L147.376 35.104V37H145.672V28.336H147.376V32.944L149.14 30.568H151.132L149.092 33.124L151.18 37ZM155.158 36.784C154.806 36.992 154.386 37.096 153.898 37.096C153.362 37.096 152.942 36.968 152.638 36.712C152.342 36.456 152.194 36.016 152.194 35.392V32.008H151.546V30.568H152.194V28.924H153.898V30.568H155.182V32.008H153.898V35.044C153.898 35.412 154.074 35.596 154.426 35.596C154.698 35.596 154.942 35.536 155.158 35.416V36.784ZM164.784 34.624C164.784 35.392 164.528 35.996 164.016 36.436C163.504 36.876 162.836 37.096 162.012 37.096C160.884 37.096 159.9 36.748 159.06 36.052L159.828 34.684C160.564 35.252 161.28 35.536 161.976 35.536C162.312 35.536 162.576 35.468 162.768 35.332C162.96 35.196 163.056 35 163.056 34.744C163.056 34.512 162.964 34.316 162.78 34.156C162.596 33.996 162.216 33.792 161.64 33.544C161.296 33.4 161.02 33.276 160.812 33.172C160.604 33.068 160.388 32.94 160.164 32.788C159.948 32.628 159.78 32.468 159.66 32.308C159.548 32.148 159.452 31.952 159.372 31.72C159.3 31.488 159.264 31.224 159.264 30.928C159.264 30.2 159.512 29.616 160.008 29.176C160.512 28.728 161.156 28.504 161.94 28.504C162.924 28.504 163.78 28.776 164.508 29.32L163.836 30.748C163.14 30.292 162.516 30.064 161.964 30.064C161.66 30.064 161.42 30.132 161.244 30.268C161.076 30.404 160.992 30.584 160.992 30.808C160.992 31.056 161.08 31.248 161.256 31.384C161.44 31.52 161.852 31.732 162.492 32.02C163.316 32.388 163.904 32.756 164.256 33.124C164.608 33.492 164.784 33.992 164.784 34.624ZM171.203 33.868C171.203 34.084 171.195 34.272 171.179 34.432H167.339C167.491 35.288 167.955 35.716 168.731 35.716C169.235 35.716 169.711 35.516 170.159 35.116L170.927 36.148C170.335 36.804 169.583 37.132 168.671 37.132C167.799 37.132 167.075 36.832 166.499 36.232C165.931 35.632 165.647 34.844 165.647 33.868V33.748C165.647 32.796 165.911 32.012 166.439 31.396C166.975 30.772 167.651 30.46 168.467 30.46C169.347 30.46 170.023 30.78 170.495 31.42C170.967 32.052 171.203 32.868 171.203 33.868ZM169.559 33.292C169.519 32.844 169.403 32.492 169.211 32.236C169.027 31.98 168.779 31.852 168.467 31.852C168.155 31.852 167.899 31.976 167.699 32.224C167.507 32.472 167.383 32.828 167.327 33.292H169.559ZM174.133 29.884H172.357V28.336H174.133V29.884ZM174.085 37H172.381V30.568H174.085V37ZM178.748 36.784C178.396 36.992 177.976 37.096 177.488 37.096C176.952 37.096 176.532 36.968 176.228 36.712C175.932 36.456 175.784 36.016 175.784 35.392V32.008H175.136V30.568H175.784V28.924H177.488V30.568H178.772V32.008H177.488V35.044C177.488 35.412 177.664 35.596 178.016 35.596C178.288 35.596 178.532 35.536 178.748 35.416V36.784ZM188.133 37H182.769V35.608L185.145 33.028C185.593 32.564 185.901 32.192 186.069 31.912C186.245 31.632 186.333 31.348 186.333 31.06C186.333 30.756 186.241 30.516 186.057 30.34C185.873 30.164 185.629 30.076 185.325 30.076C185.045 30.076 184.789 30.148 184.557 30.292C184.333 30.436 184.077 30.664 183.789 30.976L182.889 29.812C183.257 29.364 183.641 29.036 184.041 28.828C184.441 28.612 184.929 28.504 185.505 28.504C186.289 28.504 186.913 28.716 187.377 29.14C187.849 29.564 188.085 30.14 188.085 30.868V30.904C188.085 31.448 187.957 31.92 187.701 32.32C187.445 32.72 186.989 33.236 186.333 33.868L185.013 35.452H188.133V37ZM195.672 32.872C195.672 34.16 195.376 35.192 194.784 35.968C194.2 36.744 193.416 37.132 192.432 37.132C191.448 37.132 190.664 36.748 190.08 35.98C189.496 35.204 189.204 34.172 189.204 32.884V32.728C189.204 31.44 189.496 30.408 190.08 29.632C190.672 28.856 191.46 28.468 192.444 28.468C193.428 28.468 194.212 28.856 194.796 29.632C195.38 30.4 195.672 31.428 195.672 32.716V32.872ZM193.908 32.884V32.74C193.908 31.868 193.772 31.2 193.5 30.736C193.236 30.264 192.88 30.028 192.432 30.028C191.976 30.028 191.616 30.26 191.352 30.724C191.096 31.18 190.968 31.844 190.968 32.716V32.86C190.968 33.732 191.1 34.404 191.364 34.876C191.628 35.34 191.988 35.572 192.444 35.572C192.9 35.572 193.256 35.344 193.512 34.888C193.776 34.424 193.908 33.756 193.908 32.884ZM199.727 37H198.011V30.328L196.727 30.664L196.463 29.164L198.539 28.54H199.727V37ZM206.844 34.66C206.844 35.42 206.576 36.02 206.04 36.46C205.512 36.9 204.824 37.12 203.976 37.12C203.144 37.12 202.456 36.9 201.912 36.46C201.376 36.012 201.108 35.42 201.108 34.684V34.648C201.108 33.696 201.524 33.012 202.356 32.596C201.684 32.188 201.348 31.584 201.348 30.784V30.736C201.348 30.088 201.592 29.552 202.08 29.128C202.576 28.696 203.208 28.48 203.976 28.48C204.744 28.48 205.372 28.696 205.86 29.128C206.356 29.552 206.604 30.088 206.604 30.736V30.784C206.604 31.592 206.268 32.196 205.596 32.596C206.428 33.052 206.844 33.724 206.844 34.612V34.66ZM204.972 30.964V30.928C204.972 30.616 204.884 30.364 204.708 30.172C204.532 29.98 204.288 29.884 203.976 29.884C203.672 29.884 203.428 29.98 203.244 30.172C203.068 30.356 202.98 30.604 202.98 30.916V30.952C202.98 31.28 203.068 31.544 203.244 31.744C203.428 31.944 203.672 32.044 203.976 32.044C204.28 32.044 204.52 31.948 204.696 31.756C204.88 31.556 204.972 31.292 204.972 30.964ZM205.164 34.564V34.516C205.164 34.164 205.052 33.892 204.828 33.7C204.612 33.5 204.328 33.4 203.976 33.4C203.624 33.4 203.336 33.5 203.112 33.7C202.896 33.892 202.788 34.164 202.788 34.516V34.564C202.788 34.924 202.892 35.204 203.1 35.404C203.308 35.604 203.6 35.704 203.976 35.704C204.352 35.704 204.644 35.604 204.852 35.404C205.06 35.204 205.164 34.924 205.164 34.564Z" fill="#FFBD00"/>
</g>
<defs>
<clipPath id="clip0_1252_2035">
<rect width="208" height="42" fill="white"/>
</clipPath>
</defs>
</svg>
