<svg width="208" height="42" viewBox="0 0 208 42" fill="none" xmlns="http://www.w3.org/2000/svg">
<g clip-path="url(#clip0_1201_398)">
<path d="M12.4914 40.2183L22.7076 28.8728H2.27515L12.4914 40.2183Z" fill="#FAB680"/>
<path d="M12.4915 40.2183L22.7077 28.8728H12.4915L12.4915 40.2183Z" fill="#D09668"/>
<path d="M12.4914 40.2181L17.5995 34.5454H7.3833L12.4914 40.2181Z" fill="#2D3741"/>
<path d="M22.3612 26.0364H2.85742V28.8727H22.3612V26.0364Z" fill="#FAB680"/>
<path d="M22.3612 26.0364H13.0737V28.8727H22.3612V26.0364Z" fill="#D09668"/>
<path d="M21.7791 9.01807H18.064C17.0382 9.01807 16.2065 9.86466 16.2065 10.909V27.9272C16.2065 28.9715 17.0382 29.8181 18.064 29.8181H21.7791C22.8049 29.8181 23.6366 28.9715 23.6366 27.9272V10.909C23.6366 9.86466 22.8049 9.01807 21.7791 9.01807Z" fill="#FDBD13"/>
<path d="M14.3489 13.7454H10.6339C9.608 13.7454 8.77637 14.592 8.77637 15.6363V27.9272C8.77637 28.9715 9.608 29.8181 10.6339 29.8181H14.3489C15.3747 29.8181 16.2064 28.9715 16.2064 27.9272V15.6363C16.2064 14.592 15.3747 13.7454 14.3489 13.7454Z" fill="#EC5334"/>
<path d="M1.34644 20.3636C1.34644 19.3192 2.17807 18.4727 3.20394 18.4727H6.91895C7.94482 18.4727 8.77645 19.3192 8.77645 20.3636V27.9272C8.77645 28.9716 7.94482 29.8181 6.91895 29.8181H3.20394C2.17807 29.8181 1.34644 28.9716 1.34644 27.9272V20.3636Z" fill="#2D3645"/>
<path fill-rule="evenodd" clip-rule="evenodd" d="M1 8.07267H23.9829C22.416 3.68368 17.8634 0.509033 12.4914 0.509033C7.11947 0.509033 2.56691 3.68368 1 8.07267Z" fill="#2D3743"/>
<path d="M1.00001 8.07262L0.738142 7.97571L0.602295 8.35625H1.00001V8.07262ZM23.9829 8.07262V8.35625H24.3806L24.2448 7.97571L23.9829 8.07262ZM1.00001 8.35625H23.9829V7.78898H1.00001V8.35625ZM12.4915 0.792615C17.7599 0.792615 22.1986 3.90515 23.721 8.16953L24.2448 7.97571C22.6333 3.46201 17.967 0.225342 12.4915 0.225342V0.792615ZM1.26188 8.16953C2.78429 3.90515 7.22301 0.792615 12.4915 0.792615V0.225342C7.01595 0.225342 2.34955 3.46201 0.738142 7.97571L1.26188 8.16953Z" fill="white"/>
<path d="M43.5913 10.5292H50.1522L47.9509 20.9054C45.8926 21.6351 43.8962 22 41.9617 22C39.446 22 37.4877 21.2995 36.0869 19.8985C34.6956 18.4878 34 16.5224 34 14.0025C34 11.3854 34.4812 9.00656 35.4436 6.86613C36.4156 4.71598 37.7593 3.04736 39.4746 1.86036C41.1898 0.663758 43.091 0.065361 45.1779 0.065361C46.2928 0.065361 47.3363 0.162658 48.3083 0.357242C49.2898 0.551783 50.2761 0.863156 51.2671 1.2912L50.3238 3.50956C49.5899 3.17876 48.799 2.89172 47.9509 2.64845C47.1123 2.40529 46.188 2.2836 45.1779 2.2836C43.5674 2.2836 42.0999 2.77985 40.7753 3.77226C39.4603 4.75484 38.4359 6.13162 37.7021 7.90229C36.9684 9.67307 36.6015 11.653 36.6015 13.8421C36.6015 15.6906 37.0875 17.1452 38.0595 18.2057C39.041 19.2661 40.4084 19.7964 42.1618 19.7964C43.6294 19.7964 44.8682 19.6066 45.8783 19.2272L47.2505 12.7475H43.1195L43.5913 10.5292ZM62.0877 21.7082L64.2033 11.6092C64.3747 10.6946 64.4605 10.0379 64.4605 9.63902C64.4605 8.19904 63.7601 7.47905 62.3593 7.47905C61.5112 7.47905 60.6821 7.76609 59.8722 8.34016C59.0716 8.91412 58.3617 9.75089 57.7424 10.8502C57.1324 11.94 56.6703 13.2583 56.3558 14.8052L54.9121 21.7082H52.5108L57.2278 -1H59.6292C59.4576 -0.202194 59.2909 0.571318 59.1288 1.32045C58.9764 2.06958 58.8144 2.83333 58.6429 3.61171C58.4808 4.38027 58.2998 5.18779 58.0997 6.03427C57.9091 6.88075 57.6852 7.80014 57.4279 8.79254H57.5851C58.4808 7.59583 59.3623 6.73964 60.2295 6.22396C61.1062 5.70838 62.021 5.45049 62.974 5.45049C64.2223 5.45049 65.1848 5.80082 65.8613 6.50128C66.5474 7.20184 66.8905 8.19413 66.8905 9.47848C66.8905 10.0817 66.7809 10.8892 66.5617 11.901C66.19 13.7788 65.4992 17.0478 64.4891 21.7082H62.0877ZM77.754 5.50888C79.5646 5.50888 80.9939 6.05861 82.0422 7.15797C83.0904 8.24772 83.6145 9.75089 83.6145 11.6676C83.6145 13.4966 83.2714 15.2236 82.5853 16.8484C81.8992 18.4732 80.9701 19.7283 79.798 20.6136C78.6259 21.4989 77.3013 21.9417 75.8243 21.9417C73.9946 21.9417 72.5604 21.392 71.5218 20.2925C70.4831 19.1932 69.9637 17.69 69.9637 15.783C69.9637 13.9344 70.3115 12.1978 71.0072 10.573C71.7028 8.93846 72.6414 7.68827 73.8231 6.82236C75.0047 5.94674 76.315 5.50888 77.754 5.50888ZM81.1274 11.3319C81.1274 10.213 80.8271 9.30822 80.2268 8.61737C79.636 7.91692 78.8307 7.56669 77.8111 7.56669C76.7724 7.56669 75.8386 7.92663 75.0095 8.64662C74.1899 9.36661 73.5515 10.3687 73.0941 11.653C72.6462 12.9275 72.4223 14.3479 72.4223 15.9144C72.4223 17.1889 72.7225 18.1764 73.3228 18.877C73.9326 19.5677 74.8046 19.9131 75.9386 19.9131C76.9297 19.9131 77.8207 19.558 78.6116 18.8477C79.4025 18.1375 80.0172 17.1305 80.4555 15.8268C80.9034 14.5134 81.1274 13.015 81.1274 11.3319ZM95.5071 17.1694C95.5071 18.6872 94.9782 19.8742 93.9205 20.7304C92.8723 21.5769 91.3905 22 89.475 22C87.8646 22 86.4114 21.6644 85.1154 20.9931V18.6872C85.7824 19.0958 86.5019 19.4121 87.2738 19.6358C88.0456 19.8596 88.7603 19.9714 89.4178 19.9714C90.6186 19.9714 91.5239 19.7283 92.1337 19.2418C92.7436 18.7553 93.0485 18.1327 93.0485 17.3738C93.0485 16.8192 92.8818 16.3522 92.5483 15.9728C92.2147 15.5933 91.4952 15.0728 90.3898 14.4112C89.151 13.701 88.2744 13.0053 87.7598 12.3243C87.2452 11.6433 86.9879 10.8357 86.9879 9.90172C86.9879 8.55899 87.4691 7.47905 88.4316 6.66182C89.3941 5.83487 90.6614 5.42135 92.2338 5.42135C93.8633 5.42135 95.4356 5.78129 96.9508 6.50128L96.1789 8.5007L95.3784 8.13585C94.416 7.71741 93.3677 7.5083 92.2338 7.5083C91.3475 7.5083 90.6519 7.72232 90.1468 8.15037C89.6418 8.5688 89.3893 9.11363 89.3893 9.78494C89.3893 10.3298 89.556 10.7968 89.8895 11.186C90.2326 11.5751 90.9331 12.0762 91.9908 12.6891C93.0104 13.2729 93.7394 13.774 94.1778 14.1923C94.6257 14.6106 94.9592 15.063 95.1783 15.5496C95.3975 16.0263 95.5071 16.5662 95.5071 17.1694ZM103.197 20.0007C103.722 20.0007 104.408 19.8742 105.256 19.6212V21.5038C104.931 21.6401 104.531 21.7568 104.055 21.8541C103.579 21.9514 103.197 22 102.912 22C101.72 22 100.805 21.7131 100.167 21.139C99.538 20.5552 99.2235 19.6893 99.2235 18.5413C99.2235 17.8991 99.3093 17.1694 99.4808 16.3522L101.296 7.56669H98.8376L99.0377 6.50128L101.682 5.36296L103.469 2.03553H104.87L104.084 5.71318H108L107.629 7.56669H103.726L101.882 16.3814C101.711 17.2278 101.625 17.87 101.625 18.3078C101.625 18.8526 101.763 19.271 102.04 19.5628C102.316 19.8548 102.701 20.0007 103.197 20.0007Z" fill="#000333"/>
<path d="M136.925 21.7082H131.893L129.07 10.5C128.965 10.1011 128.785 9.27897 128.528 8.0337C128.281 6.7786 128.138 5.93703 128.1 5.50888C128.044 6.03427 127.901 6.88075 127.672 8.04821C127.445 9.20607 127.269 10.033 127.145 10.5292L124.336 21.7082H119.318L114 0.371812H118.349L121.015 12.0178C121.48 14.168 121.818 16.0311 122.027 17.6073C122.084 17.0527 122.212 16.1965 122.411 15.0388C122.621 13.8712 122.816 12.9663 122.996 12.3243L126.033 0.371812H130.21L133.247 12.3243C133.381 12.8594 133.546 13.6766 133.747 14.7761C133.946 15.8754 134.098 16.8192 134.202 17.6073C134.297 16.8484 134.45 15.9047 134.659 14.7761C134.868 13.6378 135.057 12.7183 135.229 12.0178L137.88 0.371812H142.229L136.925 21.7082ZM153.407 5.08564C153.996 5.08564 154.486 5.12951 154.875 5.21704L154.548 9.39084C154.196 9.2936 153.768 9.24492 153.264 9.24492C151.877 9.24492 150.794 9.60977 150.013 10.3395C149.244 11.0692 148.859 12.0907 148.859 13.4042V21.7082H144.511V5.3921H147.804L148.445 8.13585H148.659C149.153 7.22127 149.818 6.48665 150.655 5.93212C151.502 5.36787 152.418 5.08564 153.407 5.08564ZM157.584 1.17453C157.584 -0.275164 158.373 -1 159.95 -1C161.528 -1 162.318 -0.275164 162.318 1.17453C162.318 1.86527 162.118 2.40529 161.719 2.79437C161.329 3.17385 160.74 3.36364 159.95 3.36364C158.373 3.36364 157.584 2.63393 157.584 1.17453ZM162.118 21.7082H157.77V5.3921H162.118V21.7082ZM173.41 18.4537C174.17 18.4537 175.083 18.2835 176.147 17.943V21.2558C175.064 21.7519 173.733 22 172.156 22C170.416 22 169.147 21.5525 168.348 20.6574C167.56 19.7526 167.165 18.4002 167.165 16.6002V8.73415H165.083V6.85151L167.478 5.36296L168.733 1.91875H171.513V5.3921H175.976V8.73415H171.513V16.6002C171.513 17.2327 171.684 17.6997 172.027 18.0013C172.379 18.3029 172.84 18.4537 173.41 18.4537ZM185.984 8.25252C185.062 8.25252 184.34 8.55418 183.817 9.15739C183.295 9.75089 182.996 10.5973 182.919 11.6967H189.021C189.002 10.5973 188.722 9.75089 188.18 9.15739C187.638 8.55418 186.906 8.25252 185.984 8.25252ZM186.597 22C184.031 22 182.026 21.2752 180.581 19.8255C179.136 18.3759 178.414 16.323 178.414 13.6669C178.414 10.933 179.08 8.82168 180.41 7.33313C181.75 5.83487 183.599 5.08564 185.956 5.08564C188.209 5.08564 189.963 5.74243 191.217 7.05581C192.472 8.3693 193.099 10.1838 193.099 12.4993V14.6593H182.819C182.867 15.9241 183.233 16.9116 183.917 17.6219C184.601 18.3321 185.562 18.6872 186.798 18.6872C187.757 18.6872 188.665 18.585 189.52 18.3807C190.375 18.1764 191.269 17.8505 192.2 17.403V20.8472C191.44 21.2362 190.628 21.5233 189.762 21.7082C188.898 21.9028 187.843 22 186.597 22ZM205.531 5.08564C206.121 5.08564 206.61 5.12951 207 5.21704L206.672 9.39084C206.32 9.2936 205.893 9.24492 205.389 9.24492C204.001 9.24492 202.917 9.60977 202.138 10.3395C201.368 11.0692 200.983 12.0907 200.983 13.4042V21.7082H196.634V5.3921H199.928L200.57 8.13585H200.784C201.278 7.22127 201.943 6.48665 202.78 5.93212C203.625 5.36787 204.543 5.08564 205.531 5.08564Z" fill="#E95334"/>
<path d="M42.1121 32.8599C42.1121 34.1079 41.7561 35.1319 41.0441 35.9319C40.3321 36.7319 39.4241 37.1319 38.3201 37.1319C37.2081 37.1319 36.2961 36.7359 35.5841 35.9439C34.8801 35.1519 34.5281 34.1319 34.5281 32.8839V32.7399C34.5281 31.4839 34.8841 30.4599 35.5961 29.6679C36.3081 28.8679 37.2201 28.4679 38.3321 28.4679C39.4361 28.4679 40.3401 28.8639 41.0441 29.6559C41.7561 30.4479 42.1121 31.4679 42.1121 32.7159V32.8599ZM40.3241 32.8839V32.7399C40.3241 31.9239 40.1361 31.2759 39.7601 30.7959C39.3921 30.3079 38.9121 30.0639 38.3201 30.0639C37.7201 30.0639 37.2361 30.3039 36.8681 30.7839C36.5081 31.2559 36.3281 31.8999 36.3281 32.7159V32.8599C36.3281 33.6759 36.5121 34.3279 36.8801 34.8159C37.2561 35.2959 37.7401 35.5359 38.3321 35.5359C38.9321 35.5359 39.4121 35.2999 39.7721 34.8279C40.1401 34.3479 40.3241 33.6999 40.3241 32.8839Z" fill="#FFBD00"/>
<path d="M46.5365 32.0079H45.3005V36.9999H43.6085V32.0079H42.9605V30.6039H43.6085V30.1839C43.6085 28.9039 44.2325 28.2639 45.4805 28.2639C45.8805 28.2639 46.2365 28.3119 46.5485 28.4079V29.8119C46.3485 29.7399 46.1405 29.7039 45.9245 29.7039C45.5005 29.7039 45.2885 29.9239 45.2885 30.3639V30.6039H46.5365V32.0079ZM50.5685 32.0079H49.3325V36.9999H47.6405V32.0079H46.9925V30.6039H47.6405V30.1839C47.6405 28.9039 48.2645 28.2639 49.5125 28.2639C49.9125 28.2639 50.2685 28.3119 50.5805 28.4079V29.8119C50.3725 29.7399 50.1645 29.7039 49.9565 29.7039C49.5325 29.7039 49.3205 29.9239 49.3205 30.3639V30.6039H50.5685V32.0079ZM53.2085 29.8839H51.4325V28.3359H53.2085V29.8839ZM53.1605 36.9999H51.4565V30.5679H53.1605V36.9999Z" fill="#FFBD00"/>
<path d="M59.262 36.9999H54.39V35.7999L57.222 31.9599H54.474V30.5679H59.262V31.7679L56.418 35.6079H59.262V36.9999Z" fill="#FFBD00"/>
<path d="M62.1953 29.8839H60.4193V28.3359H62.1953V29.8839ZM62.1473 36.9999H60.4433V30.5679H62.1473V36.9999Z" fill="#FFBD00"/>
<path d="M68.8745 33.8679C68.8745 34.0839 68.8665 34.2719 68.8505 34.4319H65.0105C65.1625 35.2879 65.6265 35.7159 66.4025 35.7159C66.9065 35.7159 67.3825 35.5159 67.8305 35.1159L68.5985 36.1479C68.0065 36.8039 67.2545 37.1319 66.3425 37.1319C65.4705 37.1319 64.7465 36.8319 64.1705 36.2319C63.6025 35.6319 63.3185 34.8439 63.3185 33.8679V33.7479C63.3185 32.7959 63.5825 32.0119 64.1105 31.3959C64.6465 30.7719 65.3225 30.4599 66.1385 30.4599C67.0185 30.4599 67.6945 30.7799 68.1665 31.4199C68.6385 32.0519 68.8745 32.8679 68.8745 33.8679ZM67.2305 33.2919C67.1905 32.8439 67.0745 32.4919 66.8825 32.2359C66.6985 31.9799 66.4505 31.8519 66.1385 31.8519C65.8265 31.8519 65.5705 31.9759 65.3705 32.2239C65.1785 32.4719 65.0545 32.8279 64.9985 33.2919H67.2305Z" fill="#FFBD00"/>
<path d="M71.7567 36.9999H70.0527V28.3359H71.7567V36.9999Z" fill="#FFBD00"/>
<path d="M74.9559 36.9999H73.2519V28.3359H74.9559V36.9999Z" fill="#FFBD00"/>
<path d="M84.3931 36.9999H82.7251V36.3159C82.3091 36.8439 81.7531 37.1079 81.0571 37.1079C80.5051 37.1079 80.0451 36.9359 79.6771 36.5919C79.3171 36.2479 79.1371 35.7759 79.1371 35.1759V35.0919C79.1371 34.4119 79.3371 33.8999 79.7371 33.5559C80.1451 33.2119 80.6931 33.0399 81.3811 33.0399C81.8611 33.0399 82.3131 33.1239 82.7371 33.2919V33.1119C82.7371 32.3599 82.3251 31.9839 81.5011 31.9839C81.0291 31.9839 80.5091 32.0959 79.9411 32.3199L79.6171 30.9399C80.2891 30.6439 81.0091 30.4959 81.7771 30.4959C82.6491 30.4959 83.3011 30.7199 83.7331 31.1679C84.1731 31.6159 84.3931 32.2599 84.3931 33.0999V36.9999ZM82.7491 34.8999V34.3479C82.4771 34.2119 82.1611 34.1439 81.8011 34.1439C81.4811 34.1439 81.2291 34.2199 81.0451 34.3719C80.8691 34.5159 80.7811 34.7279 80.7811 35.0079V35.0919C80.7811 35.3479 80.8571 35.5439 81.0091 35.6799C81.1611 35.8159 81.3611 35.8839 81.6091 35.8839C81.9451 35.8839 82.2171 35.7959 82.4251 35.6199C82.6411 35.4359 82.7491 35.1959 82.7491 34.8999Z" fill="#FFBD00"/>
<path d="M90.9158 36.9999H89.2118V36.1359C88.7398 36.7919 88.1878 37.1199 87.5558 37.1199C86.9558 37.1199 86.4878 36.9279 86.1518 36.5439C85.8238 36.1519 85.6598 35.6199 85.6598 34.9479V30.5679H87.3638V34.4439C87.3638 34.8119 87.4398 35.0959 87.5918 35.2959C87.7518 35.4879 87.9758 35.5839 88.2638 35.5839C88.5598 35.5839 88.7918 35.4879 88.9598 35.2959C89.1278 35.0959 89.2118 34.8119 89.2118 34.4439V30.5679H90.9158V36.9999Z" fill="#FFBD00"/>
<path d="M95.4975 32.0079H94.2615V36.9999H92.5695V32.0079H91.9215V30.6039H92.5695V30.1839C92.5695 28.9039 93.1935 28.2639 94.4415 28.2639C94.8415 28.2639 95.1975 28.3119 95.5095 28.4079V29.8119C95.3095 29.7399 95.1015 29.7039 94.8855 29.7039C94.4615 29.7039 94.2495 29.9239 94.2495 30.3639V30.6039H95.4975V32.0079Z" fill="#FFBD00"/>
<path d="M105.083 36.9999H103.379V36.1119C102.915 36.7839 102.335 37.1199 101.639 37.1199C100.951 37.1199 100.367 36.8399 99.8867 36.2799C99.4147 35.7199 99.1787 34.9199 99.1787 33.8799V33.6879C99.1787 32.6479 99.4147 31.8479 99.8867 31.2879C100.359 30.7279 100.943 30.4479 101.639 30.4479C102.319 30.4479 102.899 30.7599 103.379 31.3839V28.3359H105.083V36.9999ZM103.403 33.8559V33.7119C103.403 33.1759 103.283 32.7479 103.043 32.4279C102.803 32.0999 102.503 31.9359 102.143 31.9359C101.783 31.9359 101.483 32.0999 101.243 32.4279C101.003 32.7479 100.883 33.1759 100.883 33.7119V33.8559C100.883 34.3919 101.003 34.8239 101.243 35.1519C101.483 35.4719 101.783 35.6319 102.143 35.6319C102.503 35.6319 102.803 35.4719 103.043 35.1519C103.283 34.8239 103.403 34.3919 103.403 33.8559Z" fill="#FFBD00"/>
<path d="M111.742 33.8679C111.742 34.0839 111.734 34.2719 111.718 34.4319H107.878C108.03 35.2879 108.494 35.7159 109.27 35.7159C109.774 35.7159 110.25 35.5159 110.698 35.1159L111.466 36.1479C110.874 36.8039 110.122 37.1319 109.21 37.1319C108.338 37.1319 107.614 36.8319 107.038 36.2319C106.47 35.6319 106.186 34.8439 106.186 33.8679V33.7479C106.186 32.7959 106.45 32.0119 106.978 31.3959C107.514 30.7719 108.19 30.4599 109.006 30.4599C109.886 30.4599 110.562 30.7799 111.034 31.4199C111.506 32.0519 111.742 32.8679 111.742 33.8679ZM110.098 33.2919C110.058 32.8439 109.942 32.4919 109.75 32.2359C109.566 31.9799 109.318 31.8519 109.006 31.8519C108.694 31.8519 108.438 31.9759 108.238 32.2239C108.046 32.4719 107.922 32.8279 107.866 33.2919H110.098Z" fill="#FFBD00"/>
<path d="M121.572 36.9999H119.868V33.1239C119.868 32.7559 119.792 32.4759 119.64 32.2839C119.488 32.0839 119.272 31.9839 118.992 31.9839C118.704 31.9839 118.476 32.0839 118.308 32.2839C118.148 32.4759 118.068 32.7559 118.068 33.1239V36.9999H116.364V33.1239C116.364 32.3639 116.068 31.9839 115.476 31.9839C115.196 31.9839 114.972 32.0839 114.804 32.2839C114.644 32.4759 114.564 32.7559 114.564 33.1239V36.9999H112.86V30.5679H114.564V31.4319C115.028 30.7759 115.584 30.4479 116.232 30.4479C116.968 30.4479 117.5 30.7599 117.828 31.3839C118.348 30.7599 118.956 30.4479 119.652 30.4479C120.244 30.4479 120.712 30.6359 121.056 31.0119C121.4 31.3799 121.572 31.9119 121.572 32.6079V36.9999Z" fill="#FFBD00"/>
<path d="M133.521 36.9999H131.817V31.6359L129.837 35.1039H129.801L127.833 31.6719V36.9999H126.153V28.5999H127.977L129.825 32.0079L131.685 28.5999H133.521V36.9999Z" fill="#FFBD00"/>
<path d="M139.952 36.9999H138.284V36.3159C137.868 36.8439 137.312 37.1079 136.616 37.1079C136.064 37.1079 135.604 36.9359 135.236 36.5919C134.876 36.2479 134.696 35.7759 134.696 35.1759V35.0919C134.696 34.4119 134.896 33.8999 135.296 33.5559C135.704 33.2119 136.252 33.0399 136.94 33.0399C137.42 33.0399 137.872 33.1239 138.296 33.2919V33.1119C138.296 32.3599 137.884 31.9839 137.06 31.9839C136.588 31.9839 136.068 32.0959 135.5 32.3199L135.176 30.9399C135.848 30.6439 136.568 30.4959 137.336 30.4959C138.208 30.4959 138.86 30.7199 139.292 31.1679C139.732 31.6159 139.952 32.2599 139.952 33.0999V36.9999ZM138.308 34.8999V34.3479C138.036 34.2119 137.72 34.1439 137.36 34.1439C137.04 34.1439 136.788 34.2199 136.604 34.3719C136.428 34.5159 136.34 34.7279 136.34 35.0079V35.0919C136.34 35.3479 136.416 35.5439 136.568 35.6799C136.72 35.8159 136.92 35.8839 137.168 35.8839C137.504 35.8839 137.776 35.7959 137.984 35.6199C138.2 35.4359 138.308 35.1959 138.308 34.8999Z" fill="#FFBD00"/>
<path d="M144.71 32.3079H144.638C144.102 32.3079 143.686 32.4759 143.39 32.8119C143.102 33.1479 142.958 33.6479 142.958 34.3119V36.9999H141.254V30.5679H142.958V31.7079C143.318 30.8439 143.902 30.4279 144.71 30.4599V32.3079Z" fill="#FFBD00"/>
<path d="M151.18 36.9999H149.248L147.904 34.4319L147.376 35.1039V36.9999H145.672V28.3359H147.376V32.9439L149.14 30.5679H151.132L149.092 33.1239L151.18 36.9999Z" fill="#FFBD00"/>
<path d="M155.158 36.7839C154.806 36.9919 154.386 37.0959 153.898 37.0959C153.362 37.0959 152.942 36.9679 152.638 36.7119C152.342 36.4559 152.194 36.0159 152.194 35.3919V32.0079H151.546V30.5679H152.194V28.9239H153.898V30.5679H155.182V32.0079H153.898V35.0439C153.898 35.4119 154.074 35.5959 154.426 35.5959C154.698 35.5959 154.942 35.5359 155.158 35.4159V36.7839Z" fill="#FFBD00"/>
<path d="M164.784 34.6239C164.784 35.3919 164.528 35.9959 164.016 36.4359C163.504 36.8759 162.836 37.0959 162.012 37.0959C160.884 37.0959 159.9 36.7479 159.06 36.0519L159.828 34.6839C160.564 35.2519 161.28 35.5359 161.976 35.5359C162.312 35.5359 162.576 35.4679 162.768 35.3319C162.96 35.1959 163.056 34.9999 163.056 34.7439C163.056 34.5119 162.964 34.3159 162.78 34.1559C162.596 33.9959 162.216 33.7919 161.64 33.5439C161.296 33.3999 161.02 33.2759 160.812 33.1719C160.604 33.0679 160.388 32.9399 160.164 32.7879C159.948 32.6279 159.78 32.4679 159.66 32.3079C159.548 32.1479 159.452 31.9519 159.372 31.7199C159.3 31.4879 159.264 31.2239 159.264 30.9279C159.264 30.1999 159.512 29.6159 160.008 29.1759C160.512 28.7279 161.156 28.5039 161.94 28.5039C162.924 28.5039 163.78 28.7759 164.508 29.3199L163.836 30.7479C163.14 30.2919 162.516 30.0639 161.964 30.0639C161.66 30.0639 161.42 30.1319 161.244 30.2679C161.076 30.4039 160.992 30.5839 160.992 30.8079C160.992 31.0559 161.08 31.2479 161.256 31.3839C161.44 31.5199 161.852 31.7319 162.492 32.0199C163.316 32.3879 163.904 32.7559 164.256 33.1239C164.608 33.4919 164.784 33.9919 164.784 34.6239Z" fill="#FFBD00"/>
<path d="M171.203 33.8679C171.203 34.0839 171.195 34.2719 171.179 34.4319H167.339C167.491 35.2879 167.955 35.7159 168.731 35.7159C169.235 35.7159 169.711 35.5159 170.159 35.1159L170.927 36.1479C170.335 36.8039 169.583 37.1319 168.671 37.1319C167.799 37.1319 167.075 36.8319 166.499 36.2319C165.931 35.6319 165.647 34.8439 165.647 33.8679V33.7479C165.647 32.7959 165.911 32.0119 166.439 31.3959C166.975 30.7719 167.651 30.4599 168.467 30.4599C169.347 30.4599 170.023 30.7799 170.495 31.4199C170.967 32.0519 171.203 32.8679 171.203 33.8679ZM169.559 33.2919C169.519 32.8439 169.403 32.4919 169.211 32.2359C169.027 31.9799 168.779 31.8519 168.467 31.8519C168.155 31.8519 167.899 31.9759 167.699 32.2239C167.507 32.4719 167.383 32.8279 167.327 33.2919H169.559Z" fill="#FFBD00"/>
<path d="M174.133 29.8839H172.357V28.3359H174.133V29.8839ZM174.085 36.9999H172.381V30.5679H174.085V36.9999Z" fill="#FFBD00"/>
<path d="M178.748 36.7839C178.396 36.9919 177.976 37.0959 177.488 37.0959C176.952 37.0959 176.532 36.9679 176.228 36.7119C175.932 36.4559 175.784 36.0159 175.784 35.3919V32.0079H175.136V30.5679H175.784V28.9239H177.488V30.5679H178.772V32.0079H177.488V35.0439C177.488 35.4119 177.664 35.5959 178.016 35.5959C178.288 35.5959 178.532 35.5359 178.748 35.4159V36.7839Z" fill="#FFBD00"/>
<path d="M188.133 36.9999H182.769V35.6079L185.145 33.0279C185.593 32.5639 185.901 32.1919 186.069 31.9119C186.245 31.6319 186.333 31.3479 186.333 31.0599C186.333 30.7559 186.241 30.5159 186.057 30.3399C185.873 30.1639 185.629 30.0759 185.325 30.0759C185.045 30.0759 184.789 30.1479 184.557 30.2919C184.333 30.4359 184.077 30.6639 183.789 30.9759L182.889 29.8119C183.257 29.3639 183.641 29.0359 184.041 28.8279C184.441 28.6119 184.929 28.5039 185.505 28.5039C186.289 28.5039 186.913 28.7159 187.377 29.1399C187.849 29.5639 188.085 30.1399 188.085 30.8679V30.9039C188.085 31.4479 187.957 31.9199 187.701 32.3199C187.445 32.7199 186.989 33.2359 186.333 33.8679L185.013 35.4519H188.133V36.9999Z" fill="#FFBD00"/>
<path d="M195.672 32.8719C195.672 34.1599 195.376 35.1919 194.784 35.9679C194.2 36.7439 193.416 37.1319 192.432 37.1319C191.448 37.1319 190.664 36.7479 190.08 35.9799C189.496 35.2039 189.204 34.1719 189.204 32.8839V32.7279C189.204 31.4399 189.496 30.4079 190.08 29.6319C190.672 28.8559 191.46 28.4679 192.444 28.4679C193.428 28.4679 194.212 28.8559 194.796 29.6319C195.38 30.3999 195.672 31.4279 195.672 32.7159V32.8719ZM193.908 32.8839V32.7399C193.908 31.8679 193.772 31.1999 193.5 30.7359C193.236 30.2639 192.88 30.0279 192.432 30.0279C191.976 30.0279 191.616 30.2599 191.352 30.7239C191.096 31.1799 190.968 31.8439 190.968 32.7159V32.8599C190.968 33.7319 191.1 34.4039 191.364 34.8759C191.628 35.3399 191.988 35.5719 192.444 35.5719C192.9 35.5719 193.256 35.3439 193.512 34.8879C193.776 34.4239 193.908 33.7559 193.908 32.8839Z" fill="#FFBD00"/>
<path d="M199.727 36.9999H198.011V30.3279L196.727 30.6639L196.463 29.1639L198.539 28.5399H199.727V36.9999Z" fill="#FFBD00"/>
<path d="M206.844 34.6599C206.844 35.4199 206.576 36.0199 206.04 36.4599C205.512 36.8999 204.824 37.1199 203.976 37.1199C203.144 37.1199 202.456 36.8999 201.912 36.4599C201.376 36.0119 201.108 35.4199 201.108 34.6839V34.6479C201.108 33.6959 201.524 33.0119 202.356 32.5959C201.684 32.1879 201.348 31.5839 201.348 30.7839V30.7359C201.348 30.0879 201.592 29.5519 202.08 29.1279C202.576 28.6959 203.208 28.4799 203.976 28.4799C204.744 28.4799 205.372 28.6959 205.86 29.1279C206.356 29.5519 206.604 30.0879 206.604 30.7359V30.7839C206.604 31.5919 206.268 32.1959 205.596 32.5959C206.428 33.0519 206.844 33.7239 206.844 34.6119V34.6599ZM204.972 30.9639V30.9279C204.972 30.6159 204.884 30.3639 204.708 30.1719C204.532 29.9799 204.288 29.8839 203.976 29.8839C203.672 29.8839 203.428 29.9799 203.244 30.1719C203.068 30.3559 202.98 30.6039 202.98 30.9159V30.9519C202.98 31.2799 203.068 31.5439 203.244 31.7439C203.428 31.9439 203.672 32.0439 203.976 32.0439C204.28 32.0439 204.52 31.9479 204.696 31.7559C204.88 31.5559 204.972 31.2919 204.972 30.9639ZM205.164 34.5639V34.5159C205.164 34.1639 205.052 33.8919 204.828 33.6999C204.612 33.4999 204.328 33.3999 203.976 33.3999C203.624 33.3999 203.336 33.4999 203.112 33.6999C202.896 33.8919 202.788 34.1639 202.788 34.5159V34.5639C202.788 34.9239 202.892 35.2039 203.1 35.4039C203.308 35.6039 203.6 35.7039 203.976 35.7039C204.352 35.7039 204.644 35.6039 204.852 35.4039C205.06 35.2039 205.164 34.9239 205.164 34.5639Z" fill="#FFBD00"/>
</g>
<defs>
<clipPath id="clip0_1201_398">
<rect width="208" height="42" fill="white"/>
</clipPath>
</defs>
</svg>
