<svg width="84" height="91" viewBox="0 0 84 91" fill="none" xmlns="http://www.w3.org/2000/svg">
<g id="&#208;&#160;&#208;&#181;&#209;&#129;&#209;&#131;&#209;&#128;&#209;&#129; 5" clip-path="url(#clip0_1776_1540)">
<g id="&#208;&#161;&#208;&#187;&#208;&#190;&#208;&#185; 2">
<g id="Gifts">
<path id="Vector" d="M44.15 23.5298C43.51 23.5298 28.25 22.9798 20.56 19.3898C18.6894 18.5318 17.1627 17.0683 16.2264 15.2357C15.2901 13.4031 14.999 11.3083 15.4 9.2898C15.816 6.84273 17.0324 4.60292 18.8585 2.92164C20.6846 1.24036 23.017 0.212691 25.49 -0.000199638C35.79 -1.0802 44.57 19.1098 45.49 21.4198C45.5834 21.647 45.6195 21.8937 45.5952 22.1382C45.5709 22.3827 45.4869 22.6175 45.3506 22.8219C45.2144 23.0263 45.03 23.1941 44.8136 23.3106C44.5973 23.427 44.3557 23.4886 44.11 23.4898L44.15 23.5298ZM26.3 2.9998C26.1369 2.98979 25.9732 2.98979 25.81 2.9998C23.9912 3.12659 22.2678 3.86108 20.9167 5.08526C19.5655 6.30945 18.6651 7.95227 18.36 9.7498C18.0656 11.1158 18.2436 12.5413 18.8649 13.793C19.4862 15.0446 20.514 16.0483 21.78 16.6398C27.19 19.1698 37.18 20.0798 41.78 20.3798C38.75 13.9998 32.28 2.9998 26.3 2.9998Z" fill="#263238"/>
<path id="Vector_2" d="M51.2501 23.6599C47.4701 23.6599 44.3501 23.5399 44.0901 23.5299C43.8671 23.5223 43.6488 23.4644 43.4514 23.3605C43.254 23.2566 43.0826 23.1094 42.9501 22.9299C42.8129 22.7521 42.7189 22.5448 42.6755 22.3244C42.6321 22.104 42.6405 21.8765 42.7001 21.6599C42.9301 20.7299 48.7001 -1.10007 60.8501 0.549928C66.0001 1.24993 69.1501 5.11993 69.2801 10.8999C69.4001 16.1499 66.8101 22.2799 62.7801 23.0099C58.9587 23.5178 55.1043 23.7351 51.2501 23.6599ZM46.1201 20.5899C49.8801 20.6899 58.2101 20.7899 62.2401 20.0599C64.1401 19.7099 66.3801 15.4499 66.2401 10.9599C66.1801 8.46993 65.3501 4.19993 60.4101 3.51993C53.2701 2.53993 48.1001 14.1999 46.1201 20.5899Z" fill="#263238"/>
<path id="Vector_3" d="M83.15 21.5298H0.5V89.8298H83.15V21.5298Z" fill="white"/>
<path id="Vector_4" d="M60.3 77.2499C68.2278 71.5667 75.8548 65.4751 83.15 58.9999V54.8999C75.35 62.3699 66.39 69.0199 58.52 74.8999C50.43 80.8999 43.93 85.7299 40.77 89.8999H44.71C48.16 86.2699 54.11 81.8399 60.3 77.2499Z" fill="#FF522F"/>
<path id="Vector_5" d="M22.77 39.65C13.45 47.45 5.75 54 0.5 59.49V63.93C6.3 57.34 16.5 48.82 24.69 41.93C33.59 34.48 42 27.45 45.36 22.93C45.6956 22.4949 45.9902 22.0295 46.24 21.54H37.24C33.9 23.42 29.24 26.24 22.65 30.29C15.47 34.68 7.33 39.69 0.5 43.4V46.8C7.59 43.04 16.2 37.8 24.19 32.8C30.77 28.79 38 24.34 42 22.37C38.29 26.67 30.73 33 22.77 39.65Z" fill="#FF522F"/>
<path id="Vector_6" d="M83.15 65.1997C79.32 68.5497 75.15 72.7297 70.71 77.1397C66.46 81.3797 61.77 86.0497 57.41 89.8297H61.94C65.43 86.6297 69.1 82.9797 72.83 79.2597C76.13 75.9697 79.72 72.3897 83.15 69.2597V65.1997Z" fill="#FF522F"/>
<path id="Vector_7" d="M0.5 34.4498C4.58 30.4498 9.35 26.0398 14.37 21.5298H9.93C7.83 23.4398 5.63 25.4598 3.45 27.5298C2.4 28.5298 1.45 29.4298 0.5 30.3298V34.4498Z" fill="#FF522F"/>
<path id="Vector_8" d="M83.15 42V38.25C77.84 42.1 71.15 47.16 62.85 53.55C45.6 66.79 23.53 83.73 10.37 89.83H16.9C28.73 83.23 45.1 71 64.68 55.93C70.67 51.34 77.25 46.28 83.15 42Z" fill="#FF522F"/>
<path id="Vector_9" d="M60.31 21.5298H55.31C49.31 26.1698 40.58 33.8098 27.89 45.2498C18.82 53.4498 7.26 63.8698 0.5 68.8198V72.4098C6.05 68.8098 15.2 60.7598 29.93 47.4798C40.05 38.3598 52.92 26.7598 60.31 21.5298Z" fill="#FF522F"/>
<path id="Vector_10" d="M66.29 25.2298C66.8732 24.028 67.3841 22.7925 67.82 21.5298H64.63C64.37 22.1998 64.04 22.9798 63.63 23.9498C55.66 40.6198 34.9 56.1298 18.21 68.5998C10.21 74.5998 4.21 79.1398 0.5 82.8098V87.2098C3.77 83.1398 12 76.9998 20 70.9998C37 58.3398 58.05 42.5798 66.29 25.2298Z" fill="#FF522F"/>
<path id="Vector_11" d="M83.15 90.33H0.500046C0.367438 90.33 0.240261 90.2773 0.146493 90.1836C0.0527248 90.0898 4.64034e-05 89.9626 4.64034e-05 89.83V21.53C-0.00404952 21.4619 0.00585099 21.3936 0.0291379 21.3294C0.0524248 21.2653 0.0886049 21.2065 0.135449 21.1569C0.182293 21.1072 0.238808 21.0677 0.301513 21.0407C0.364217 21.0137 0.431783 20.9999 0.500046 21H83.15C83.2819 21.0026 83.4075 21.0561 83.5008 21.1493C83.594 21.2425 83.6475 21.3682 83.65 21.5V89.8C83.6541 89.8681 83.6442 89.9364 83.621 90.0006C83.5977 90.0647 83.5615 90.1235 83.5146 90.1731C83.4678 90.2228 83.4113 90.2623 83.3486 90.2893C83.2859 90.3163 83.2183 90.3301 83.15 90.33ZM1.00005 89.33H82.65V22H1.00005V89.33Z" fill="#263238"/>
<path id="Vector_12" d="M31.79 21.5298H22.04V89.8298H31.79V21.5298Z" fill="#263238"/>
<path id="Vector_13" d="M31.79 90.33H22C21.8674 90.33 21.7402 90.2773 21.6465 90.1836C21.5527 90.0898 21.5 89.9626 21.5 89.83V21.53C21.4974 21.4622 21.5082 21.3945 21.532 21.331C21.5559 21.2675 21.5921 21.2093 21.6387 21.1599C21.6852 21.1106 21.7412 21.071 21.8032 21.0435C21.8653 21.0161 21.9322 21.0013 22 21H31.75C31.8826 21 32.0098 21.0527 32.1036 21.1464C32.1974 21.2402 32.25 21.3674 32.25 21.5V89.8C32.2583 89.9311 32.2147 90.0601 32.1286 90.1593C32.0426 90.2584 31.9209 90.3198 31.79 90.33ZM22.54 89.33H31.29V22H22.54V89.33Z" fill="#263238"/>
<path id="Vector_14" d="M83.15 90.3298H54.67C54.5374 90.3298 54.4103 90.2771 54.3165 90.1833C54.2227 90.0896 54.17 89.9624 54.17 89.8298V21.5298C54.1726 21.398 54.2261 21.2723 54.3193 21.1791C54.4125 21.0858 54.5382 21.0323 54.67 21.0298H83.15C83.2819 21.0323 83.4075 21.0858 83.5008 21.1791C83.594 21.2723 83.6475 21.398 83.65 21.5298V89.8298C83.65 89.9624 83.5974 90.0896 83.5036 90.1833C83.4098 90.2771 83.2827 90.3298 83.15 90.3298ZM55.15 89.3298H82.65V21.9998H55.17L55.15 89.3298Z" fill="#263238"/>
<path id="Vector_15" d="M72.26 21.5298H62.51V89.8298H72.26V21.5298Z" fill="#263238"/>
<path id="Vector_16" d="M72.26 90.3298H62.51C62.3774 90.3298 62.2502 90.2771 62.1565 90.1833C62.0627 90.0896 62.01 89.9624 62.01 89.8298V21.5298C62.01 21.3972 62.0627 21.27 62.1565 21.1762C62.2502 21.0825 62.3774 21.0298 62.51 21.0298H72.26C72.3918 21.0323 72.5175 21.0858 72.6107 21.1791C72.7039 21.2723 72.7575 21.398 72.76 21.5298V89.8298C72.76 89.9624 72.7073 90.0896 72.6136 90.1833C72.5198 90.2771 72.3926 90.3298 72.26 90.3298ZM63.01 89.3298H71.76V21.9998H63L63.01 89.3298Z" fill="#263238"/>
<path id="Vector_17" d="M40.17 66.53C39.7722 66.53 39.3907 66.372 39.1094 66.0907C38.8281 65.8094 38.67 65.4279 38.67 65.03V35C38.67 24.38 43.06 21 43.24 20.81C43.4045 20.6819 43.596 20.593 43.8 20.55C43.99 20.55 48.4 19.55 50.58 26.24C52.43 31.93 50.72 52.85 50.65 53.74C50.6349 53.9408 50.5801 54.1365 50.4887 54.3159C50.3973 54.4953 50.2712 54.6547 50.1177 54.785C49.9642 54.9152 49.7864 55.0137 49.5945 55.0746C49.4026 55.1356 49.2006 55.1578 49 55.14C48.8037 55.1236 48.6125 55.0687 48.4374 54.9785C48.2623 54.8882 48.1067 54.7643 47.9795 54.6138C47.8522 54.4634 47.7559 54.2894 47.6959 54.1017C47.636 53.914 47.6136 53.7164 47.63 53.52C48.12 47.64 49.08 31.44 47.7 27.19C46.7 24.19 45.36 23.6 44.75 23.51C43.94 24.42 41.64 27.63 41.64 35.03V65C41.644 65.197 41.6092 65.3929 41.5374 65.5764C41.4657 65.7599 41.3585 65.9275 41.222 66.0696C41.0855 66.2117 40.9223 66.3254 40.7418 66.4045C40.5613 66.4835 40.367 66.5261 40.17 66.53Z" fill="#263238"/>
</g>
</g>
</g>
<defs>
<clipPath id="clip0_1776_1540">
<rect width="83.65" height="90.33" fill="white"/>
</clipPath>
</defs>
</svg>
