<svg width="532" height="528" viewBox="0 0 532 528" fill="none" xmlns="http://www.w3.org/2000/svg">
<path d="M583.892 567.201C566.621 585.011 551.155 595.479 539.32 603.383C423.888 680.456 291.936 658.242 251.137 650.648C185.319 638.398 129.766 629.756 82.0329 586.628C-26.4482 488.629 -21.1711 284.193 61.714 157.554C71.5484 142.538 154.302 19.8716 286.539 2.57736C289.772 2.1624 292.185 1.92253 294.313 1.68267C314.769 -0.476111 441.535 -11.9152 544.899 74.683C559.697 87.0816 583.517 109.439 605.585 143.543C686.314 268.242 686.57 461.364 583.892 567.201Z" fill="url(#paint0_linear_786_362)"/>
<defs>
<linearGradient id="paint0_linear_786_362" x1="511.5" y1="533.5" x2="157.5" y2="111" gradientUnits="userSpaceOnUse">
<stop stop-color="#E9EFFD"/>
<stop offset="1" stop-color="white"/>
</linearGradient>
</defs>
</svg>
