<svg width="212" height="371" viewBox="0 0 212 371" fill="none" xmlns="http://www.w3.org/2000/svg">
<path d="M27.4957 349.784C27.4957 349.784 24.4695 354.059 23.1361 366.396C23.1063 366.668 23.1324 366.944 23.2127 367.206C23.2929 367.468 23.4258 367.711 23.603 367.921C23.7803 368.13 23.9983 368.3 24.2437 368.423C24.4892 368.545 24.7569 368.616 25.0306 368.631L46.9555 369.744C47.1609 369.754 47.3658 369.716 47.5533 369.632C47.7409 369.547 47.9057 369.42 48.0342 369.259C48.1626 369.098 48.251 368.91 48.2921 368.708C48.3331 368.507 48.3256 368.298 48.2702 368.1C47.1785 364.234 43.7627 354.766 35.358 349.028L27.4957 349.784Z" fill="url(#paint0_linear_786_367)"/>
<path d="M24.5238 343.077L26.9255 353.282C27.0236 353.709 27.2619 354.09 27.6024 354.366C27.9429 354.641 28.3658 354.794 28.8036 354.801C30.358 354.82 31.908 354.63 33.4121 354.237C34.1404 354.022 34.7688 353.555 35.1857 352.921C35.6026 352.286 35.781 351.524 35.6893 350.77L34.5624 340.781L24.5238 343.077Z" fill="url(#paint1_linear_786_367)"/>
<path d="M77.5673 350.542C77.5673 350.542 73.1396 356.923 72.9166 365.884C72.9038 366.9 73.29 367.881 73.9924 368.616C74.6947 369.35 75.6572 369.78 76.6728 369.812L110.749 371C111.093 371.005 111.429 370.902 111.712 370.706C111.994 370.509 112.207 370.23 112.322 369.906C112.437 369.582 112.447 369.23 112.351 368.9C112.256 368.57 112.059 368.278 111.789 368.065C105.5 363.314 93.1206 354.414 84.0703 350.768L77.5673 350.542Z" fill="url(#paint2_linear_786_367)"/>
<path d="M76.7174 339.663L77.5907 352.761C77.6108 353.11 77.6997 353.452 77.8524 353.766C78.005 354.081 78.2184 354.362 78.4803 354.594C78.7422 354.826 79.0473 355.003 79.3782 355.117C79.709 355.23 80.059 355.277 80.4079 355.254C81.4949 355.158 82.5573 354.876 83.5491 354.421C84.0971 354.168 84.5578 353.758 84.8729 353.243C85.1879 352.728 85.3433 352.131 85.3193 351.528L84.73 335.724L76.7174 339.663Z" fill="url(#paint3_linear_786_367)"/>
<path d="M8.88113 166.879C8.88113 166.879 0.638463 175.979 0.0116355 185.879C-0.615192 195.779 23.7724 352.798 23.7724 352.798C23.7724 352.798 33.095 353.289 37.4898 349.899C37.4898 349.899 31.5408 246.886 33.1255 222.747C33.1255 222.747 67.3827 326.279 75.7239 344.755C75.7239 344.755 84.6592 344.833 87.312 342.835C87.312 342.835 65.9717 206.017 55.8744 182.402L8.88113 166.879Z" fill="url(#paint4_linear_786_367)"/>
<path d="M32.3724 219.784C32.103 219.784 31.8398 219.702 31.6177 219.55C31.3956 219.397 31.2249 219.181 31.1281 218.93L25.7449 204.944L17.2088 200.733C16.9127 200.565 16.6918 200.29 16.5913 199.965C16.4908 199.64 16.5183 199.288 16.6681 198.983C16.8179 198.677 17.0788 198.44 17.3975 198.32C17.7162 198.2 18.0685 198.207 18.3827 198.338L27.3883 202.78C27.6862 202.925 27.919 203.176 28.041 203.484L33.6096 217.955C33.7367 218.286 33.7274 218.653 33.5839 218.976C33.4404 219.3 33.1744 219.553 32.8443 219.681C32.6947 219.744 32.5347 219.779 32.3724 219.784Z" fill="#666694"/>
<path d="M88.904 65.5446C50.0219 66.6809 40.8496 75.7945 40.8496 75.7945L62.6548 102.934C62.6548 102.934 100.426 97.9189 125.192 73.9586C119.496 69.0614 115.292 63.4176 112.5 58.9688C105.835 62.664 97.9731 65.2723 88.904 65.5446Z" fill="url(#paint5_linear_786_367)"/>
<path d="M142.854 2.1998C142.814 1.93629 142.686 1.69389 142.492 1.51157C142.297 1.32925 142.047 1.21759 141.782 1.19456C141.516 1.17153 141.251 1.23846 141.028 1.38459C140.805 1.53072 140.638 1.74756 140.553 2.00024L136.82 13.0343C136.099 15.1679 136.051 17.4716 136.682 19.6336L139.093 25.545C139.515 26.9867 139.626 28.5017 139.418 29.9895C139.211 31.4773 138.689 32.904 137.888 34.175C134.01 40.34 125.554 51.7356 112.501 58.9688C115.292 63.4293 119.499 69.0637 125.192 73.9563C134.278 65.1642 141.626 53.825 144.694 39.2413C145.741 38.7838 146.608 37.9934 147.16 36.9928C147.712 35.9923 147.918 34.8375 147.746 33.7078L142.854 2.1998Z" fill="url(#paint6_linear_786_367)"/>
<path d="M103.495 81.0579C88.2867 67.9744 61.7064 64.2839 46.4465 63.2579C43.2105 63.0333 39.9986 63.9553 37.3744 65.8622C34.7502 67.7691 32.8812 70.539 32.0952 73.6863C27.3999 92.5357 14.4079 141.668 11.7715 150.157C9.60928 157.122 7.31091 163.945 5.82718 168.215C5.40256 169.439 5.48042 170.781 6.04369 171.948C6.60696 173.114 7.6097 174.01 8.8322 174.439C22.0989 179.085 45.5122 183.395 54.9944 185.036C55.4801 185.122 55.979 185.092 56.4514 184.951C56.9239 184.81 57.3568 184.56 57.7158 184.222C58.0748 183.884 58.35 183.467 58.5195 183.004C58.6889 182.541 58.748 182.045 58.692 181.555C58.4895 179.771 58.7768 177.966 59.523 176.333L87.7444 114.486C112.12 136.066 131.341 136.125 145.321 129.223C142.075 122.098 139.597 114.649 137.928 107C115.975 105.739 103.495 81.0579 103.495 81.0579Z" fill="url(#paint7_linear_786_367)"/>
<path d="M173.07 98.9543L168.61 94.2121C157.003 104.272 146.718 107.505 137.942 107C139.607 114.648 142.08 122.098 145.321 129.223C163.745 120.13 173.07 98.9543 173.07 98.9543Z" fill="url(#paint8_linear_786_367)"/>
<path d="M170.343 99.3582L192.331 97.7431L211.22 84.2111C208.121 82.725 192.178 88.2796 192.178 88.2796C192.178 88.2796 174.782 87.6199 170.15 88.1364C166.305 88.566 167.478 94.0314 167.986 95.872C168.089 96.2476 168.166 96.473 168.166 96.473L170.343 99.3582Z" fill="url(#paint9_linear_786_367)"/>
<path d="M63.9951 34.1024L55.621 63.5938C55.621 63.5938 69.9418 71.2847 80.5063 69.207L83.4174 43.2043L63.9951 34.1024Z" fill="url(#paint10_linear_786_367)"/>
<path d="M81.3424 12.6846C81.6475 13.0297 93.0361 41.352 93.0361 41.352L76.7268 47.5099L61.9365 22.2702C61.9365 22.2702 76.2057 6.91171 81.3424 12.6846Z" fill="url(#paint11_linear_786_367)"/>
<path d="M68.7236 25.5967L75.4637 39.4926C75.5496 39.6696 75.6594 39.8339 75.7901 39.9809C76.593 40.8871 79.5909 43.8053 82.387 40.5584C84.9272 37.6098 87.2866 34.9593 89.6648 34.2573C90.1794 34.1046 90.7325 34.1495 91.2157 34.3831C91.699 34.6167 92.0777 35.0222 92.2778 35.5203C93.3107 38.1028 95.534 43.9367 96.6914 49.3082C96.8021 49.8344 96.7116 50.383 96.4378 50.8458C96.1641 51.3086 95.7268 51.6521 95.2123 51.8085C92.0031 52.8015 85.1761 54.7078 79.3257 54.9426C78.9373 54.9609 78.5512 54.8739 78.2082 54.6909C77.8652 54.5078 77.578 54.2354 77.3771 53.9026C75.3839 50.5877 69.287 40.5326 67.153 37.9948C65.1528 35.6119 60.9669 36.1566 59.2249 36.5111C58.9424 36.5699 58.6509 36.5703 58.3683 36.5121C58.0856 36.454 57.8179 36.3386 57.5816 36.173C55.8889 34.9992 52.5716 31.8838 56.227 27.2965C56.4083 27.0698 56.5421 26.809 56.6205 26.5296C56.6989 26.2501 56.7202 25.9577 56.6832 25.6699C56.6461 25.382 56.5515 25.1045 56.405 24.854C56.2584 24.6035 56.063 24.385 55.8302 24.2116C53.8722 22.7467 51.6467 20.0116 54.1868 16.0183C56.7693 11.9615 60.7861 12.107 63.3099 12.7198C63.8027 12.8348 64.3203 12.7732 64.7725 12.5459C65.2246 12.3185 65.5827 11.9397 65.7843 11.4755C66.0191 10.9285 66.5144 10.4825 67.4277 10.459C67.724 10.4476 68.0147 10.374 68.2807 10.2429C68.5467 10.1118 68.7822 9.9262 68.9718 9.69811C69.1613 9.47002 69.3007 9.20458 69.3809 8.91905C69.4611 8.63353 69.4803 8.33432 69.4373 8.04089C69.125 5.6627 69.6392 2.55439 73.6279 0.803026C80.7061 -2.30763 86.0705 4.26349 87.127 9.4894C88.1834 14.7153 80.3187 17.6616 75.513 17.8424C71.8624 17.9786 69.5805 21.8687 68.7048 23.7257C68.5654 24.0184 68.4947 24.3391 68.4979 24.6634C68.5012 24.9876 68.5784 25.3068 68.7236 25.5967Z" fill="url(#paint12_linear_786_367)"/>
<path d="M69.6579 43.0377C69.6579 43.0377 67.4393 33.9921 63.5704 33.9733C59.7014 33.9545 56.3442 37.5113 60.7156 42.2348C66.1598 48.111 69.6579 43.0377 69.6579 43.0377Z" fill="url(#paint13_linear_786_367)"/>
<defs>
<linearGradient id="paint0_linear_786_367" x1="23.4959" y1="358.387" x2="48.7242" y2="359.67" gradientUnits="userSpaceOnUse">
<stop stop-color="#09005D"/>
<stop offset="1" stop-color="#1A0F91"/>
</linearGradient>
<linearGradient id="paint1_linear_786_367" x1="25.13" y1="348.582" x2="35.3108" y2="347.435" gradientUnits="userSpaceOnUse">
<stop stop-color="#FEBBBA"/>
<stop offset="1" stop-color="#FF928E"/>
</linearGradient>
<linearGradient id="paint2_linear_786_367" x1="73.1361" y1="360.035" x2="112.745" y2="361.418" gradientUnits="userSpaceOnUse">
<stop stop-color="#09005D"/>
<stop offset="1" stop-color="#1A0F91"/>
</linearGradient>
<linearGradient id="paint3_linear_786_367" x1="76.0616" y1="344.561" x2="86.1555" y2="345.95" gradientUnits="userSpaceOnUse">
<stop stop-color="#FEBBBA"/>
<stop offset="1" stop-color="#FF928E"/>
</linearGradient>
<linearGradient id="paint4_linear_786_367" x1="81.1846" y1="125.945" x2="13.1961" y2="375.24" gradientUnits="userSpaceOnUse">
<stop stop-color="#09005D"/>
<stop offset="1" stop-color="#1A0F91"/>
</linearGradient>
<linearGradient id="paint5_linear_786_367" x1="75.9731" y1="86.8685" x2="-27.8009" y2="263.401" gradientUnits="userSpaceOnUse">
<stop stop-color="#2C98A5"/>
<stop offset="1" stop-color="#175259"/>
</linearGradient>
<linearGradient id="paint6_linear_786_367" x1="110.371" y1="40.1509" x2="147.996" y2="35.9107" gradientUnits="userSpaceOnUse">
<stop stop-color="#FEBBBA"/>
<stop offset="1" stop-color="#FF928E"/>
</linearGradient>
<linearGradient id="paint7_linear_786_367" x1="-78.9002" y1="316.456" x2="45.1506" y2="156.62" gradientUnits="userSpaceOnUse">
<stop stop-color="#30ABBA"/>
<stop offset="1" stop-color="#30ABBA"/>
</linearGradient>
<linearGradient id="paint8_linear_786_367" x1="218.577" y1="36.7059" x2="139.332" y2="123.048" gradientUnits="userSpaceOnUse">
<stop stop-color="#FEBBBA"/>
<stop offset="1" stop-color="#FF928E"/>
</linearGradient>
<linearGradient id="paint9_linear_786_367" x1="227.804" y1="45.1741" x2="148.556" y2="131.517" gradientUnits="userSpaceOnUse">
<stop stop-color="#FEBBBA"/>
<stop offset="1" stop-color="#FF928E"/>
</linearGradient>
<linearGradient id="paint10_linear_786_367" x1="98.1402" y1="-12.0623" x2="35.7071" y2="141.486" gradientUnits="userSpaceOnUse">
<stop stop-color="#FEBBBA"/>
<stop offset="1" stop-color="#FF928E"/>
</linearGradient>
<linearGradient id="paint11_linear_786_367" x1="76.3284" y1="17.371" x2="80.9483" y2="75.2607" gradientUnits="userSpaceOnUse">
<stop stop-color="#FEBBBA"/>
<stop offset="1" stop-color="#FF928E"/>
</linearGradient>
<linearGradient id="paint12_linear_786_367" x1="63.7709" y1="43.495" x2="95.0276" y2="15.6952" gradientUnits="userSpaceOnUse">
<stop stop-color="#09005D"/>
<stop offset="1" stop-color="#1A0F91"/>
</linearGradient>
<linearGradient id="paint13_linear_786_367" x1="62.3852" y1="78.8702" x2="64.2211" y2="38.6708" gradientUnits="userSpaceOnUse">
<stop stop-color="#FEBBBA"/>
<stop offset="1" stop-color="#FF928E"/>
</linearGradient>
</defs>
</svg>
