<svg width="345" height="211" viewBox="0 0 345 211" fill="none" xmlns="http://www.w3.org/2000/svg">
<path d="M344.486 15.4898L340.904 179.09L340.347 204.422C340.343 206.016 339.71 207.544 338.584 208.672C337.459 209.801 335.932 210.438 334.338 210.446L9.05382 211C7.45964 210.998 5.93109 210.365 4.80152 209.24C3.67196 208.115 3.03304 206.589 3.0241 204.995L2.61452 179.666L0 18.0736C0 14.7662 3.88021 8.3207 11.0155 8.78263L328.894 0.0059682C330.947 -0.051656 332.99 0.308503 334.9 1.06459C336.81 1.82067 338.546 2.95691 340.003 4.40434C341.46 5.85177 342.608 7.58021 343.377 9.48476C344.146 11.3893 344.52 13.4302 344.476 15.4837L344.486 15.4898Z" fill="url(#paint0_linear_786_384)"/>
<path d="M326.473 205.632L291.653 205.694C291.522 205.694 291.397 205.642 291.304 205.55C291.212 205.457 291.16 205.332 291.16 205.201C291.16 205.071 291.212 204.945 291.304 204.853C291.397 204.76 291.522 204.709 291.653 204.709L326.473 204.647C330.917 204.647 334.526 200.951 334.517 196.394L334.335 89.802C334.335 89.6713 334.387 89.546 334.479 89.4536C334.572 89.3612 334.697 89.3093 334.828 89.3093C334.958 89.3093 335.084 89.3612 335.176 89.4536C335.269 89.546 335.321 89.6713 335.321 89.802L335.502 196.394C335.508 201.478 331.459 205.626 326.473 205.632Z" fill="white"/>
<path d="M8.56105 89.8636C8.43037 89.8636 8.30505 89.8117 8.21264 89.7193C8.12024 89.6269 8.06833 89.5016 8.06833 89.3709L7.96362 27.2599C7.96362 20.7467 13.051 15.4375 19.3271 15.4252L46.8766 15.379C47.0072 15.379 47.1326 15.4309 47.225 15.5233C47.3174 15.6157 47.3693 15.7411 47.3693 15.8718C47.3693 16.0024 47.3174 16.1278 47.225 16.2202C47.1326 16.3126 47.0072 16.3645 46.8766 16.3645L19.3271 16.4107C13.5961 16.423 8.9306 21.2886 8.94907 27.2599L9.05378 89.3709C9.05378 89.5016 9.00186 89.6269 8.90946 89.7193C8.81706 89.8117 8.69173 89.8636 8.56105 89.8636Z" fill="white"/>
<defs>
<linearGradient id="paint0_linear_786_384" x1="-57.501" y1="292.315" x2="205.358" y2="82.6544" gradientUnits="userSpaceOnUse">
<stop stop-color="#6E6CFF"/>
<stop offset="1" stop-color="#8E8CFC"/>
</linearGradient>
</defs>
</svg>
