<svg width="56" height="56" viewBox="0 0 56 56" fill="none" xmlns="http://www.w3.org/2000/svg">
<g id="g479">
<g id="Clip path group">
<mask id="mask0_786_397" style="mask-type:luminance" maskUnits="userSpaceOnUse" x="0" y="0" width="56" height="56">
<g id="clipPath485">
<path id="path483" d="M0 0H56V56H0V0Z" fill="white"/>
</g>
</mask>
<g mask="url(#mask0_786_397)">
<g id="g481">
<g id="g487">
<path id="path489" d="M24.2308 41.9782V33.8935M24.2308 54.6875V45.8648M32.0641 33.8935V54.6875" stroke="white" stroke-width="2" stroke-miterlimit="10" stroke-linecap="round" stroke-linejoin="round"/>
</g>
<g id="g491">
<path id="path493" d="M5.758 41.5043L33.3398 26.133C34.1129 25.7005 34.3929 24.7177 33.9633 23.945L32.2994 20.9615C31.8667 20.1887 30.8835 19.9088 30.1103 20.3414L2.52542 35.7127C1.75542 36.1421 1.47542 37.1249 1.90494 37.8977L3.56897 40.8842C3.9986 41.6539 4.98483 41.9338 5.758 41.5043Z" stroke="white" stroke-width="2" stroke-miterlimit="10" stroke-linecap="round" stroke-linejoin="round"/>
</g>
<g id="g495">
<path id="path497" d="M20.7374 25.5636L23.9668 31.3554M15.1314 36.2787L11.902 30.487" stroke="white" stroke-width="2" stroke-miterlimit="10" stroke-linecap="round" stroke-linejoin="round"/>
</g>
<g id="g499">
<path id="path501" d="M10.1487 31.4667C-5.12954 33.2796 0.142447 14.3269 13.1681 24.53" stroke="white" stroke-width="2" stroke-miterlimit="10" stroke-linecap="round" stroke-linejoin="round"/>
</g>
<g id="g503">
<path id="path505" d="M19.3628 33.8935H42.7861C43.4288 33.8935 43.957 34.4214 43.957 35.0639V38.9759V52.5947C43.957 53.7461 43.0153 54.6875 41.8634 54.6875H14.4312C13.2795 54.6875 12.3378 53.7461 12.3378 52.5947V37.8373" stroke="white" stroke-width="2" stroke-miterlimit="10" stroke-linecap="round" stroke-linejoin="round"/>
</g>
<g id="g507">
<path id="path509" d="M11.9019 30.4871L20.7373 25.5637L19.6206 23.5631C19.0066 22.4595 17.6002 22.0619 16.4994 22.6758L11.6729 25.3665C10.5688 25.9803 10.171 27.3829 10.7852 28.4833L11.9019 30.4871Z" stroke="white" stroke-width="2" stroke-miterlimit="10" stroke-linecap="round" stroke-linejoin="round"/>
</g>
<g id="g511">
<path id="path513" d="M10.5052 27.1857C9.18479 26.7054 8.16979 26.4542 6.39758 26.2601" stroke="white" stroke-width="2" stroke-miterlimit="10" stroke-linecap="round" stroke-linejoin="round"/>
</g>
<g id="g515">
<path id="path517" d="M16.1875 15.9299C15.2267 17.5901 14.7208 20.055 15.0994 23.4549M22.589 24.5331C28.8155 16.7059 22.9994 11.649 18.6756 13.5923" stroke="white" stroke-width="2" stroke-miterlimit="10" stroke-linecap="round" stroke-linejoin="round"/>
</g>
<g id="g519">
<path id="path521" d="M18.7584 22.6917C18.8506 21.5276 19.417 19.7751 20.1298 18.6047" stroke="white" stroke-width="2" stroke-miterlimit="10" stroke-linecap="round" stroke-linejoin="round"/>
</g>
<g id="g523">
<path id="path525" d="M40.5941 14.6069C40.5941 14.6069 41.7268 25.0644 37.9215 29.1895" stroke="white" stroke-width="2" stroke-miterlimit="10" stroke-linecap="round" stroke-linejoin="round"/>
</g>
<g id="g527">
<path id="path529" d="M46.2355 17.7587C46.2355 17.7587 47.8772 10.5263 55.1791 8.78342" stroke="white" stroke-width="2" stroke-miterlimit="10" stroke-linecap="round" stroke-linejoin="round"/>
</g>
<g id="g531">
<path id="path533" d="M33.8647 2.80727L32.6017 4.91591C32.4648 5.14495 32.4457 5.22129 32.1625 5.29118L29.6618 5.91145C29.1781 6.0323 29.1527 6.14354 29.4836 6.51891L31.0967 8.45901C31.2685 8.66573 31.294 8.90745 31.2717 9.20002L31.0776 11.5982C31.0235 12.0943 31.1285 12.1547 31.593 11.9671L33.7916 11.0511C34.0207 10.9557 34.3802 10.9557 34.6061 11.0511L36.8078 11.9671C37.2723 12.1547 37.3741 12.0943 37.32 11.5982L37.1291 9.20002C37.1069 8.90745 37.1291 8.66573 37.3041 8.45901L38.914 6.51891C39.2449 6.14354 39.2227 6.0323 38.7359 5.91145L36.2351 5.29118C35.9519 5.22129 35.936 5.14495 35.7961 4.91591L34.5329 2.80727C34.2784 2.37787 34.1224 2.37787 33.8647 2.80727Z" stroke="white" stroke-width="2" stroke-miterlimit="10" stroke-linecap="round" stroke-linejoin="round"/>
</g>
<g id="g535">
<path id="path537" d="M49.9097 21.6645L48.6433 23.7731C48.5065 24.0022 48.4875 24.0785 48.2075 24.1484L45.7067 24.7687C45.2199 24.8895 45.1945 25.0008 45.5285 25.3761L47.1384 27.3162C47.3134 27.523 47.3357 27.7647 47.3134 28.0573L47.1194 30.4522C47.0684 30.9515 47.1703 31.0119 47.6348 30.8243L49.8333 29.9083C50.0624 29.8129 50.4219 29.8129 50.651 29.9083L52.8495 30.8243C53.314 31.0119 53.4159 30.9515 53.3649 30.4522L53.1708 28.0573C53.1486 27.7647 53.1708 27.523 53.3459 27.3162L54.9558 25.3761C55.2898 25.0008 55.2645 24.8895 54.7776 24.7687L52.2769 24.1484C51.9969 24.0785 51.9777 24.0022 51.8409 23.7731L50.5778 21.6645C50.32 21.2351 50.1642 21.2351 49.9097 21.6645Z" stroke="white" stroke-width="2" stroke-miterlimit="10" stroke-linecap="round" stroke-linejoin="round"/>
</g>
<g id="g539">
<path id="path541" d="M47.25 7.87379C49.0604 7.87379 50.5335 6.40117 50.5335 4.59473C50.5335 2.78501 49.0604 1.31239 47.25 1.31239C45.4428 1.31239 43.9666 2.78501 43.9666 4.59473C43.9666 6.40117 45.4428 7.87379 47.25 7.87379Z" stroke="white" stroke-width="2" stroke-miterlimit="10" stroke-linecap="round" stroke-linejoin="round"/>
</g>
</g>
</g>
</g>
</g>
</svg>
