<svg width="30" height="32" viewBox="0 0 30 32" fill="none" xmlns="http://www.w3.org/2000/svg">
<g id="&#209;&#135;&#208;&#181;&#208;&#186; 1" clip-path="url(#clip0_786_430)">
<g id="&#208;&#161;&#208;&#187;&#208;&#190;&#208;&#185; 2">
<g id="Illustration">
<path id="Vector" d="M25.14 32H25.0962L6.73322 31.8364C4.08594 31.8141 1.89875 29.9777 1.6468 27.5242L0.0182699 11.8402C-0.0282411 11.3739 0.0186463 10.9029 0.156095 10.4556C0.293544 10.0083 0.518696 9.59406 0.817929 9.23793C1.17349 8.82009 1.6071 8.47839 2.09354 8.23268C2.57997 7.98698 3.10953 7.84218 3.65142 7.8067C5.19597 7.69889 7.37221 7.5093 9.67625 7.30856C14.7882 6.85874 20.5794 6.35317 23.9825 6.30484H24.0628C26.4983 6.30484 28.5906 7.81413 29.1748 10C30.1351 13.6022 30.0584 20.4089 29.8795 27.6877C29.8357 30.0744 27.7069 32 25.14 32ZM24.0701 7.83644H24.0117C20.6634 7.88105 14.6495 8.40893 9.81866 8.83272C7.50731 9.03346 5.32377 9.22677 3.76462 9.33458C3.42254 9.35453 3.0878 9.4437 2.77996 9.59689C2.47213 9.75009 2.19738 9.96422 1.97178 10.2268C1.80326 10.425 1.6762 10.6562 1.59836 10.9061C1.52051 11.156 1.49351 11.4194 1.519 11.6803L3.14388 27.3606C3.31915 29.0223 4.86734 30.2863 6.74782 30.3011L25.1071 30.4833H25.14C26.8963 30.4833 28.3496 29.2268 28.3861 27.6691C28.5577 20.5205 28.638 13.8253 27.7288 10.4201C27.3345 8.92194 25.8009 7.84016 24.0701 7.84016V7.83644Z" fill="#67878E"/>
<path id="Vector_2" d="M6.52149 13.3829C6.84508 13.1893 7.20338 13.0635 7.57537 13.0128C7.94736 12.9621 8.32555 12.9875 8.68777 13.0875C9.04998 13.1876 9.38892 13.3603 9.6847 13.5955C9.98048 13.8307 10.2272 14.1237 10.4102 14.4572L14.0361 21.0632C14.1178 21.2127 14.2387 21.3361 14.3853 21.4196C14.5319 21.5032 14.6984 21.5435 14.8663 21.5362C15.0342 21.5289 15.1967 21.4741 15.3358 21.3781C15.4748 21.2821 15.5849 21.1486 15.6537 20.9926L24.6179 0.605949C24.7138 0.392841 24.8787 0.219748 25.0849 0.115667C25.2912 0.011585 25.5264 -0.0171631 25.751 0.0342383C25.9756 0.0856396 26.1761 0.214068 26.3188 0.398009C26.4615 0.581951 26.5378 0.810231 26.5349 1.04461C26.4472 7.27138 24.837 19.1115 15.0694 29.026C15.0694 29.026 9.68361 26.8996 5.33843 17.2082C5.03974 16.5339 4.99525 15.7714 5.21345 15.0658C5.43164 14.3603 5.89725 13.7613 6.52149 13.3829Z" fill="url(#paint0_linear_786_430)"/>
</g>
</g>
</g>
<defs>
<linearGradient id="paint0_linear_786_430" x1="3.6953" y1="44.4164" x2="107.681" y2="-226.472" gradientUnits="userSpaceOnUse">
<stop stop-color="#FF0000"/>
<stop offset="1" stop-color="#FF928E"/>
</linearGradient>
<clipPath id="clip0_786_430">
<rect width="30" height="32" fill="white"/>
</clipPath>
</defs>
</svg>
