<svg width="161" height="222" viewBox="0 0 161 222" fill="none" xmlns="http://www.w3.org/2000/svg">
<g clip-path="url(#clip0_1776_1188)">
<path d="M156.127 34.0435H4.87341V221.568H156.127V34.0435Z" fill="white"/>
<path d="M156.127 222H4.87342C4.76161 222 4.65438 221.955 4.57532 221.876C4.49626 221.797 4.45184 221.689 4.45184 221.577V34.0437C4.45184 33.9315 4.49626 33.8239 4.57532 33.7445C4.65438 33.6652 4.76161 33.6206 4.87342 33.6206H156.127C156.238 33.6206 156.346 33.6652 156.425 33.7445C156.504 33.8239 156.548 33.9315 156.548 34.0437V221.577C156.548 221.689 156.504 221.797 156.425 221.876C156.346 221.955 156.238 222 156.127 222ZM5.295 221.154H155.705V34.4668H5.295V221.154Z" fill="#263238"/>
<path d="M141.076 34.2296L141.329 34.0435H140.022V34.2296H141.076Z" fill="#263238"/>
<path d="M151.987 44.537L151.405 42.7261L150.815 44.537H148.918L150.452 45.654L149.87 47.465L151.405 46.3479L152.939 47.465L152.349 45.654L153.884 44.537H151.987Z" fill="#263238"/>
<path d="M140.022 57.0019H141.076L142.467 55.9864H140.57L140.022 54.2939V57.0019Z" fill="#263238"/>
<path d="M140.022 34.23V35.0508L141.523 36.1425L140.933 34.3315L141.076 34.23H140.022Z" fill="#263238"/>
<path d="M151.987 67.309L151.405 65.498L150.815 67.309H148.918L150.452 68.4345L149.87 70.2454L151.405 69.1284L152.939 70.2454L152.349 68.4345L153.884 67.309H151.987Z" fill="#263238"/>
<path d="M140.022 79.7823H141.076L142.467 78.7668H140.57L140.022 77.0659V77.0744V79.7823Z" fill="#263238"/>
<path d="M140.022 57.002V57.8313L141.523 58.9229L140.933 57.112L141.076 57.002H140.022Z" fill="#263238"/>
<path d="M151.987 90.0897L151.405 88.2788L150.815 90.0897H148.918L150.452 91.2068L149.87 93.0177L151.405 91.9007L152.939 93.0177L152.349 91.2068L153.884 90.0897H151.987Z" fill="#263238"/>
<path d="M140.022 102.555H141.076L142.467 101.539H140.57L140.022 99.8467V102.555Z" fill="#263238"/>
<path d="M140.022 79.7822V80.6031L141.523 81.6947L140.933 79.8838L141.076 79.7822H140.022Z" fill="#263238"/>
<path d="M151.987 112.862L151.405 111.051L150.815 112.862H148.918L150.452 113.987L149.87 115.798L151.405 114.681L152.939 115.798L152.349 113.987L153.884 112.862H151.987Z" fill="#263238"/>
<path d="M140.022 125.335H141.076L142.467 124.319H140.57L140.022 122.627V125.335Z" fill="#263238"/>
<path d="M140.022 102.555V103.384L141.523 104.476L140.933 102.665L141.076 102.555H140.022Z" fill="#263238"/>
<path d="M151.987 135.642L151.405 133.831L150.815 135.642H148.918L150.452 136.759L149.87 138.57L151.405 137.453L152.939 138.57L152.349 136.759L153.884 135.642H151.987Z" fill="#263238"/>
<path d="M140.022 148.115H141.076L142.467 147.091H140.57L140.022 145.399V148.115Z" fill="#263238"/>
<path d="M140.022 125.335V126.156L141.523 127.247L140.933 125.437L141.076 125.335H140.022Z" fill="#263238"/>
<path d="M151.987 158.422L151.405 156.603L150.815 158.422H148.918L150.452 159.539L149.87 161.35L151.405 160.233L152.939 161.35L152.349 159.539L153.884 158.422H151.987Z" fill="#263238"/>
<path d="M140.022 170.888H141.076L142.467 169.872H140.57L140.022 168.18V170.888Z" fill="#263238"/>
<path d="M140.022 148.116V148.937L141.523 150.028L140.933 148.217L141.076 148.116H140.022Z" fill="#263238"/>
<path d="M151.987 181.195L151.405 179.384L150.815 181.195H148.918L150.452 182.312L149.87 184.131L151.405 183.006L152.939 184.131L152.349 182.312L153.884 181.195H151.987Z" fill="#263238"/>
<path d="M140.022 193.668H141.076L142.467 192.653H140.57L140.022 190.952V193.668Z" fill="#263238"/>
<path d="M140.022 170.888V171.709L141.523 172.809L140.933 170.989L141.076 170.888H140.022Z" fill="#263238"/>
<path d="M151.987 203.975L151.405 202.156L150.815 203.975H148.918L150.452 205.092L149.87 206.903L151.405 205.786L152.939 206.903L152.349 205.092L153.884 203.975H151.987Z" fill="#263238"/>
<path d="M142.467 215.425H140.57L140.022 213.732V216.44H141.076L142.467 215.425Z" fill="#263238"/>
<path d="M140.022 193.668V194.489L141.523 195.58L140.933 193.77L141.076 193.668H140.022Z" fill="#263238"/>
<path d="M140.022 216.44V217.269L141.523 218.361L140.933 216.55L141.076 216.44H140.022Z" fill="#263238"/>
<path d="M140.022 34.2296V34.0435H138.648L138.893 34.2296H140.022Z" fill="#263238"/>
<path d="M118.387 34.2296L118.632 34.0435H117.333V34.2296H118.387Z" fill="#263238"/>
<path d="M129.297 44.537L128.707 42.7261L128.126 44.537H126.22L127.763 45.654L127.173 47.465L128.707 46.3479L130.242 47.465L129.66 45.654L131.195 44.537H129.297Z" fill="#263238"/>
<path d="M137.501 55.9862L138.893 57.0017H140.022V54.2938L139.989 54.1753L139.398 55.9862H137.501Z" fill="#263238"/>
<path d="M140.022 34.23H138.893L139.036 34.3315L138.454 36.1425L139.989 35.0254L140.022 35.0508V34.23Z" fill="#263238"/>
<path d="M117.333 57.0019H118.387L119.778 55.9864H117.881L117.333 54.2939V57.0019Z" fill="#263238"/>
<path d="M117.333 34.23V35.0508L118.826 36.1425L118.244 34.3315L118.387 34.23H117.333Z" fill="#263238"/>
<path d="M129.297 67.309L128.707 65.498L128.126 67.309H126.22L127.763 68.4345L127.173 70.2454L128.707 69.1284L130.242 70.2454L129.66 68.4345L131.195 67.309H129.297Z" fill="#263238"/>
<path d="M137.501 78.767L138.893 79.7825H140.022V77.0745L139.989 76.9561L139.398 78.767H137.501Z" fill="#263238"/>
<path d="M140.022 57.002H138.893L139.036 57.112L138.454 58.9229L139.989 57.8059L140.022 57.8313V57.002Z" fill="#263238"/>
<path d="M117.333 79.7823H118.387L119.778 78.7668H117.881L117.333 77.0659V77.0744V79.7823Z" fill="#263238"/>
<path d="M117.333 57.002V57.8313L118.826 58.9229L118.244 57.112L118.387 57.002H117.333Z" fill="#263238"/>
<path d="M129.297 90.0897L128.707 88.2788L128.126 90.0897H126.22L127.763 91.2068L127.173 93.0177L128.707 91.9007L130.242 93.0177L129.66 91.2068L131.195 90.0897H129.297Z" fill="#263238"/>
<path d="M137.501 101.539L138.893 102.554H140.022V99.8465L139.989 99.728L139.398 101.539H137.501Z" fill="#263238"/>
<path d="M140.022 79.7822H138.893L139.036 79.8838L138.454 81.6947L139.989 80.5777L140.022 80.6031V79.7822Z" fill="#263238"/>
<path d="M117.333 102.555H118.387L119.778 101.539H117.881L117.333 99.8467V102.555Z" fill="#263238"/>
<path d="M117.333 79.7822V80.6031L118.826 81.6947L118.244 79.8838L118.387 79.7822H117.333Z" fill="#263238"/>
<path d="M129.297 112.862L128.707 111.051L128.126 112.862H126.22L127.763 113.987L127.173 115.798L128.707 114.681L130.242 115.798L129.66 113.987L131.195 112.862H129.297Z" fill="#263238"/>
<path d="M137.501 124.32L138.893 125.335H140.022V122.627L139.989 122.509L139.398 124.32H137.501Z" fill="#263238"/>
<path d="M140.022 102.555H138.893L139.036 102.665L138.454 104.476L139.989 103.359L140.022 103.384V102.555Z" fill="#263238"/>
<path d="M117.333 125.335H118.387L119.778 124.319H117.881L117.333 122.627V125.335Z" fill="#263238"/>
<path d="M117.333 102.555V103.384L118.826 104.476L118.244 102.665L118.387 102.555H117.333Z" fill="#263238"/>
<path d="M129.297 135.642L128.707 133.831L128.126 135.642H126.22L127.763 136.759L127.173 138.57L128.707 137.453L130.242 138.57L129.66 136.759L131.195 135.642H129.297Z" fill="#263238"/>
<path d="M137.501 147.092L138.893 148.116H140.022V145.399L139.989 145.281L139.398 147.092H137.501Z" fill="#263238"/>
<path d="M140.022 125.335H138.893L139.036 125.437L138.454 127.247L139.989 126.13L140.022 126.156V125.335Z" fill="#263238"/>
<path d="M117.333 148.115H118.387L119.778 147.091H117.881L117.333 145.399V148.115Z" fill="#263238"/>
<path d="M117.333 125.335V126.156L118.826 127.247L118.244 125.437L118.387 125.335H117.333Z" fill="#263238"/>
<path d="M129.297 158.422L128.707 156.603L128.126 158.422H126.22L127.763 159.539L127.173 161.35L128.707 160.233L130.242 161.35L129.66 159.539L131.195 158.422H129.297Z" fill="#263238"/>
<path d="M137.501 169.872L138.893 170.887H140.022V168.18L139.989 168.061L139.398 169.872H137.501Z" fill="#263238"/>
<path d="M140.022 148.116H138.893L139.036 148.217L138.454 150.028L139.989 148.911L140.022 148.937V148.116Z" fill="#263238"/>
<path d="M117.333 170.888H118.387L119.778 169.872H117.881L117.333 168.18V170.888Z" fill="#263238"/>
<path d="M117.333 148.116V148.937L118.826 150.028L118.244 148.217L118.387 148.116H117.333Z" fill="#263238"/>
<path d="M129.297 181.195L128.707 179.384L128.126 181.195H126.22L127.763 182.312L127.173 184.131L128.707 183.006L130.242 184.131L129.66 182.312L131.195 181.195H129.297Z" fill="#263238"/>
<path d="M140.022 193.668V190.951L139.989 190.833L139.398 192.652H137.501L138.893 193.668H140.022Z" fill="#263238"/>
<path d="M140.022 170.888H138.893L139.036 170.989L138.454 172.809L139.989 171.683L140.022 171.709V170.888Z" fill="#263238"/>
<path d="M119.778 192.653H117.881L117.333 190.952V193.668H118.387L119.778 192.653Z" fill="#263238"/>
<path d="M117.333 170.888V171.709L118.826 172.809L118.244 170.989L118.387 170.888H117.333Z" fill="#263238"/>
<path d="M129.297 203.975L128.707 202.156L128.126 203.975H126.22L127.763 205.092L127.173 206.903L128.707 205.786L130.242 206.903L129.66 205.092L131.195 203.975H129.297Z" fill="#263238"/>
<path d="M140.022 213.732L139.989 213.614L139.398 215.425H137.501L138.893 216.44H140.022V213.732Z" fill="#263238"/>
<path d="M140.022 193.668H138.893L139.036 193.77L138.454 195.58L139.989 194.463L140.022 194.489V193.668Z" fill="#263238"/>
<path d="M117.333 216.44H118.387L119.778 215.425H117.881L117.333 213.732V216.44Z" fill="#263238"/>
<path d="M117.333 193.668V194.489L118.826 195.58L118.244 193.77L118.387 193.668H117.333Z" fill="#263238"/>
<path d="M140.022 216.44H138.893L139.036 216.55L138.454 218.361L139.989 217.235L140.022 217.269V216.44Z" fill="#263238"/>
<path d="M117.333 216.44V217.269L118.826 218.361L118.244 216.55L118.387 216.44H117.333Z" fill="#263238"/>
<path d="M117.333 34.2296V34.0435H115.95L116.203 34.2296H117.333Z" fill="#263238"/>
<path d="M95.6894 34.2296L95.9423 34.0435H94.6354V34.2296H95.6894Z" fill="#263238"/>
<path d="M106.6 44.537L106.01 42.7261L105.428 44.537H103.531L105.065 45.654L104.475 47.465L106.01 46.3479L107.553 47.465L106.962 45.654L108.497 44.537H106.6Z" fill="#263238"/>
<path d="M114.804 55.9862L116.203 57.0017H117.333V54.2938L117.291 54.1753L116.709 55.9862H114.804Z" fill="#263238"/>
<path d="M117.333 34.23H116.203L116.347 34.3315L115.756 36.1425L117.291 35.0254L117.333 35.0508V34.23Z" fill="#263238"/>
<path d="M94.6354 57.0019H95.6894L97.0806 55.9864H95.1835L94.6354 54.2939V57.0019Z" fill="#263238"/>
<path d="M94.6354 35.0508L96.1362 36.1425L95.546 34.3315L95.6894 34.23H94.6354V35.0508Z" fill="#263238"/>
<path d="M106.6 67.309L106.01 65.498L105.428 67.309H103.531L105.065 68.4345L104.475 70.2454L106.01 69.1284L107.553 70.2454L106.962 68.4345L108.497 67.309H106.6Z" fill="#263238"/>
<path d="M114.804 78.767L116.203 79.7825H117.333V77.0745L117.291 76.9561L116.709 78.767H114.804Z" fill="#263238"/>
<path d="M117.333 57.002H116.203L116.347 57.112L115.756 58.9229L117.291 57.8059L117.333 57.8313V57.002Z" fill="#263238"/>
<path d="M94.6354 79.7823H95.6894L97.0806 78.7668H95.1835L94.6354 77.0659V79.7823Z" fill="#263238"/>
<path d="M94.6354 57.002V57.8313L96.1362 58.9229L95.546 57.112L95.6894 57.002H94.6354Z" fill="#263238"/>
<path d="M106.6 90.0897L106.01 88.2788L105.428 90.0897H103.531L105.065 91.2068L104.475 93.0177L106.01 91.9007L107.553 93.0177L106.962 91.2068L108.497 90.0897H106.6Z" fill="#263238"/>
<path d="M114.804 101.539L116.203 102.554H117.333V99.8465L117.291 99.728L116.709 101.539H114.804Z" fill="#263238"/>
<path d="M117.333 79.7822H116.203L116.347 79.8838L115.756 81.6947L117.291 80.5777L117.333 80.6031V79.7822Z" fill="#263238"/>
<path d="M97.0806 101.539H95.1835L94.6354 99.8467V102.555H95.6894L97.0806 101.539Z" fill="#263238"/>
<path d="M94.6354 79.7822V80.6031L96.1362 81.6947L95.546 79.8838L95.6894 79.7822H94.6354Z" fill="#263238"/>
<path d="M106.6 112.862L106.01 111.051L105.428 112.862H103.531L105.065 113.987L104.475 115.798L106.01 114.681L107.553 115.798L106.962 113.987L108.497 112.862H106.6Z" fill="#263238"/>
<path d="M114.804 124.32L116.203 125.335H117.333V122.627L117.291 122.509L116.709 124.32H114.804Z" fill="#263238"/>
<path d="M117.333 102.555H116.203L116.347 102.665L115.756 104.476L117.291 103.359L117.333 103.384V102.555Z" fill="#263238"/>
<path d="M97.0806 124.319H95.1835L94.6354 122.627V125.335H95.6894L97.0806 124.319Z" fill="#263238"/>
<path d="M94.6354 102.555V103.384L96.1362 104.476L95.546 102.665L95.6894 102.555H94.6354Z" fill="#263238"/>
<path d="M106.6 135.642L106.01 133.831L105.428 135.642H103.531L105.065 136.759L104.475 138.57L106.01 137.453L107.553 138.57L106.962 136.759L108.497 135.642H106.6Z" fill="#263238"/>
<path d="M114.804 147.092L116.203 148.116H117.333V145.399L117.291 145.281L116.709 147.092H114.804Z" fill="#263238"/>
<path d="M117.333 125.335H116.203L116.347 125.437L115.756 127.247L117.291 126.13L117.333 126.156V125.335Z" fill="#263238"/>
<path d="M97.0806 147.091H95.1835L94.6354 145.399V148.115H95.6894L97.0806 147.091Z" fill="#263238"/>
<path d="M94.6354 125.335V126.156L96.1362 127.247L95.546 125.437L95.6894 125.335H94.6354Z" fill="#263238"/>
<path d="M106.6 158.422L106.01 156.603L105.428 158.422H103.531L105.065 159.539L104.475 161.35L106.01 160.233L107.553 161.35L106.962 159.539L108.497 158.422H106.6Z" fill="#263238"/>
<path d="M117.333 170.887V168.18L117.291 168.061L116.709 169.872H114.804L116.203 170.887H117.333Z" fill="#263238"/>
<path d="M117.333 148.116H116.203L116.347 148.217L115.756 150.028L117.291 148.911L117.333 148.937V148.116Z" fill="#263238"/>
<path d="M97.0806 169.872H95.1835L94.6354 168.18V170.888H95.6894L97.0806 169.872Z" fill="#263238"/>
<path d="M94.6354 148.116V148.937L96.1362 150.028L95.546 148.217L95.6894 148.116H94.6354Z" fill="#263238"/>
<path d="M106.6 181.195L106.01 179.384L105.428 181.195H103.531L105.065 182.312L104.475 184.131L106.01 183.006L107.553 184.131L106.962 182.312L108.497 181.195H106.6Z" fill="#263238"/>
<path d="M117.333 190.951L117.291 190.833L116.709 192.652H114.804L116.203 193.668H117.333V190.951Z" fill="#263238"/>
<path d="M117.333 170.888H116.203L116.347 170.989L115.756 172.809L117.291 171.683L117.333 171.709V170.888Z" fill="#263238"/>
<path d="M95.6894 193.668L97.0806 192.653H95.1835L94.6354 190.952V193.668H95.6894Z" fill="#263238"/>
<path d="M94.6354 170.888V171.709L96.1362 172.809L95.546 170.989L95.6894 170.888H94.6354Z" fill="#263238"/>
<path d="M106.6 203.975L106.01 202.156L105.428 203.975H103.531L105.065 205.092L104.475 206.903L106.01 205.786L107.553 206.903L106.962 205.092L108.497 203.975H106.6Z" fill="#263238"/>
<path d="M117.333 216.44V213.732L117.291 213.614L116.709 215.425H114.804L116.203 216.44H117.333Z" fill="#263238"/>
<path d="M117.333 193.668H116.203L116.347 193.77L115.756 195.58L117.291 194.463L117.333 194.489V193.668Z" fill="#263238"/>
<path d="M95.6894 216.44L97.0806 215.425H95.1835L94.6354 213.732V216.44H95.6894Z" fill="#263238"/>
<path d="M94.6354 193.668V194.489L96.1362 195.58L95.546 193.77L95.6894 193.668H94.6354Z" fill="#263238"/>
<path d="M117.333 216.44H116.203L116.347 216.55L115.756 218.361L117.291 217.235L117.333 217.269V216.44Z" fill="#263238"/>
<path d="M94.6354 216.44V217.269L96.1362 218.361L95.546 216.55L95.6894 216.44H94.6354Z" fill="#263238"/>
<path d="M94.6354 34.2296V34.0435H93.2611L93.5056 34.2296H94.6354Z" fill="#263238"/>
<path d="M73.0002 34.2296L73.2447 34.0435H71.9462V34.2296H73.0002Z" fill="#263238"/>
<path d="M83.9106 44.537L83.3204 42.7261L82.7302 44.537H80.8331L82.3676 45.654L81.7858 47.465L83.3204 46.3479L84.8549 47.465L84.2731 45.654L85.8077 44.537H83.9106Z" fill="#263238"/>
<path d="M92.1144 55.9862L93.5056 57.0017H94.6355V54.2938L94.6017 54.1753L94.0115 55.9862H92.1144Z" fill="#263238"/>
<path d="M93.5056 34.23L93.649 34.3315L93.0588 36.1425L94.6017 35.0254L94.6355 35.0508V34.23H93.5056Z" fill="#263238"/>
<path d="M71.9462 57.0019H73.0002L74.3914 55.9864H72.4943L71.9462 54.2939V57.0019Z" fill="#263238"/>
<path d="M71.9462 34.23V35.0508L73.4386 36.1425L72.8568 34.3315L73.0002 34.23H71.9462Z" fill="#263238"/>
<path d="M83.9106 67.309L83.3204 65.498L82.7302 67.309H80.8331L82.3676 68.4345L81.7858 70.2454L83.3204 69.1284L84.8549 70.2454L84.2731 68.4345L85.8077 67.309H83.9106Z" fill="#263238"/>
<path d="M92.1144 78.767L93.5056 79.7825H94.6355V77.0745L94.6017 76.9561L94.0115 78.767H92.1144Z" fill="#263238"/>
<path d="M93.5056 57.002L93.649 57.112L93.0588 58.9229L94.6017 57.8059L94.6355 57.8313V57.002H93.5056Z" fill="#263238"/>
<path d="M71.9462 79.7823H73.0002L74.3914 78.7668H72.4943L71.9462 77.0659V77.0744V79.7823Z" fill="#263238"/>
<path d="M71.9462 57.002V57.8313L73.4386 58.9229L72.8568 57.112L73.0002 57.002H71.9462Z" fill="#263238"/>
<path d="M83.9106 90.0897L83.3204 88.2788L82.7302 90.0897H80.8331L82.3676 91.2068L81.7858 93.0177L83.3204 91.9007L84.8549 93.0177L84.2731 91.2068L85.8077 90.0897H83.9106Z" fill="#263238"/>
<path d="M94.6355 102.554V99.8465L94.6017 99.728L94.0115 101.539H92.1144L93.5056 102.554H94.6355Z" fill="#263238"/>
<path d="M93.5056 79.7822L93.649 79.8838L93.0588 81.6947L94.6017 80.5777L94.6355 80.6031V79.7822H93.5056Z" fill="#263238"/>
<path d="M71.9462 102.555H73.0002L74.3914 101.539H72.4943L71.9462 99.8467V102.555Z" fill="#263238"/>
<path d="M71.9462 80.6031L73.4386 81.6947L72.8568 79.8838L73.0002 79.7822H71.9462V80.6031Z" fill="#263238"/>
<path d="M83.9106 112.862L83.3204 111.051L82.7302 112.862H80.8331L82.3676 113.987L81.7858 115.798L83.3204 114.681L84.8549 115.798L84.2731 113.987L85.8077 112.862H83.9106Z" fill="#263238"/>
<path d="M94.6355 125.335V122.627L94.6017 122.509L94.0115 124.32H92.1144L93.5056 125.335H94.6355Z" fill="#263238"/>
<path d="M93.649 102.665L93.0588 104.476L94.6017 103.359L94.6355 103.384V102.555H93.5056L93.649 102.665Z" fill="#263238"/>
<path d="M71.9462 125.335H73.0002L74.3914 124.319H72.4943L71.9462 122.627V125.335Z" fill="#263238"/>
<path d="M71.9462 103.384L73.4386 104.476L72.8568 102.665L73.0002 102.555H71.9462V103.384Z" fill="#263238"/>
<path d="M83.9106 135.642L83.3204 133.831L82.7302 135.642H80.8331L82.3676 136.759L81.7858 138.57L83.3204 137.453L84.8549 138.57L84.2731 136.759L85.8077 135.642H83.9106Z" fill="#263238"/>
<path d="M94.6355 148.116V145.399L94.6017 145.281L94.0115 147.092H92.1144L93.5056 148.116H94.6355Z" fill="#263238"/>
<path d="M93.649 125.437L93.0588 127.247L94.6017 126.13L94.6355 126.156V125.335H93.5056L93.649 125.437Z" fill="#263238"/>
<path d="M71.9462 148.115H73.0002L74.3914 147.091H72.4943L71.9462 145.399V148.115Z" fill="#263238"/>
<path d="M71.9462 126.156L73.4386 127.247L72.8568 125.437L73.0002 125.335H71.9462V126.156Z" fill="#263238"/>
<path d="M83.9106 158.422L83.3204 156.603L82.7302 158.422H80.8331L82.3676 159.539L81.7858 161.35L83.3204 160.233L84.8549 161.35L84.2731 159.539L85.8077 158.422H83.9106Z" fill="#263238"/>
<path d="M94.6355 170.887V168.18L94.6017 168.061L94.0115 169.872H92.1144L93.5056 170.887H94.6355Z" fill="#263238"/>
<path d="M93.649 148.217L93.0588 150.028L94.6017 148.911L94.6355 148.937V148.116H93.5056L93.649 148.217Z" fill="#263238"/>
<path d="M71.9462 170.888H73.0002L74.3914 169.872H72.4943L71.9462 168.18V170.888Z" fill="#263238"/>
<path d="M71.9462 148.937L73.4386 150.028L72.8568 148.217L73.0002 148.116H71.9462V148.937Z" fill="#263238"/>
<path d="M83.9106 181.195L83.3204 179.384L82.7302 181.195H80.8331L82.3676 182.312L81.7858 184.131L83.3204 183.006L84.8549 184.131L84.2731 182.312L85.8077 181.195H83.9106Z" fill="#263238"/>
<path d="M94.6355 193.668V190.951L94.6017 190.833L94.0115 192.652H92.1144L93.5056 193.668H94.6355Z" fill="#263238"/>
<path d="M94.6355 170.888H93.5056L93.649 170.989L93.0588 172.809L94.6017 171.683L94.6355 171.709V170.888Z" fill="#263238"/>
<path d="M71.9462 193.668H73.0002L74.3914 192.653H72.4943L71.9462 190.952V193.668Z" fill="#263238"/>
<path d="M71.9462 170.888V171.709L73.4386 172.809L72.8568 170.989L73.0002 170.888H71.9462Z" fill="#263238"/>
<path d="M83.9106 203.975L83.3204 202.156L82.7302 203.975H80.8331L82.3676 205.092L81.7858 206.903L83.3204 205.786L84.8549 206.903L84.2731 205.092L85.8077 203.975H83.9106Z" fill="#263238"/>
<path d="M94.6355 216.44V213.732L94.6017 213.614L94.0115 215.425H92.1144L93.5056 216.44H94.6355Z" fill="#263238"/>
<path d="M94.6355 193.668H93.5056L93.649 193.77L93.0588 195.58L94.6017 194.463L94.6355 194.489V193.668Z" fill="#263238"/>
<path d="M71.9462 216.44H73.0002L74.3914 215.425H72.4943L71.9462 213.732V216.44Z" fill="#263238"/>
<path d="M71.9462 193.668V194.489L73.4386 195.58L72.8568 193.77L73.0002 193.668H71.9462Z" fill="#263238"/>
<path d="M94.6355 216.44H93.5056L93.649 216.55L93.0588 218.361L94.6017 217.235L94.6355 217.269V216.44Z" fill="#263238"/>
<path d="M71.9462 216.44V217.269L73.4386 218.361L72.8568 216.55L73.0002 216.44H71.9462Z" fill="#263238"/>
<path d="M71.9462 34.2296V34.0435H70.5635L70.8164 34.2296H71.9462Z" fill="#263238"/>
<path d="M50.3025 34.2296L50.5554 34.0435H49.2485V34.2296H50.3025Z" fill="#263238"/>
<path d="M61.2129 44.537L60.6227 42.7261L60.0409 44.537H58.1438L59.6783 45.654L59.0881 47.465L60.6227 46.3479L62.1656 47.465L61.5754 45.654L63.11 44.537H61.2129Z" fill="#263238"/>
<path d="M69.4167 55.9862L70.8164 57.0017H71.9462V54.2938L71.904 54.1753L71.3138 55.9862H69.4167Z" fill="#263238"/>
<path d="M71.9462 34.23H70.8164L70.9597 34.3315L70.3695 36.1425L71.904 35.0254L71.9462 35.0508V34.23Z" fill="#263238"/>
<path d="M49.2485 57.0019H50.3025L51.6937 55.9864H49.7966L49.2485 54.2939V57.0019Z" fill="#263238"/>
<path d="M49.2485 34.23V35.0508L50.7493 36.1425L50.1591 34.3315L50.3025 34.23H49.2485Z" fill="#263238"/>
<path d="M61.2129 67.309L60.6227 65.498L60.0409 67.309H58.1438L59.6783 68.4345L59.0881 70.2454L60.6227 69.1284L62.1656 70.2454L61.5754 68.4345L63.11 67.309H61.2129Z" fill="#263238"/>
<path d="M69.4167 78.767L70.8164 79.7825H71.9462V77.0745L71.904 76.9561L71.3138 78.767H69.4167Z" fill="#263238"/>
<path d="M71.9462 57.002H70.8164L70.9597 57.112L70.3695 58.9229L71.904 57.8059L71.9462 57.8313V57.002Z" fill="#263238"/>
<path d="M49.2485 79.7823H50.3025L51.6937 78.7668H49.7966L49.2485 77.0659V77.0744V79.7823Z" fill="#263238"/>
<path d="M49.2485 57.002V57.8313L50.7493 58.9229L50.1591 57.112L50.3025 57.002H49.2485Z" fill="#263238"/>
<path d="M61.2129 90.0897L60.6227 88.2788L60.0409 90.0897H58.1438L59.6783 91.2068L59.0881 93.0177L60.6227 91.9007L62.1656 93.0177L61.5754 91.2068L63.11 90.0897H61.2129Z" fill="#263238"/>
<path d="M71.9462 102.554V99.8465L71.904 99.728L71.3138 101.539H69.4167L70.8164 102.554H71.9462Z" fill="#263238"/>
<path d="M70.9597 79.8838L70.3695 81.6947L71.904 80.5777L71.9462 80.6031V79.7822H70.8164L70.9597 79.8838Z" fill="#263238"/>
<path d="M49.2485 102.555H50.3025L51.6937 101.539H49.7966L49.2485 99.8467V102.555Z" fill="#263238"/>
<path d="M49.2485 80.6031L50.7493 81.6947L50.1591 79.8838L50.3025 79.7822H49.2485V80.6031Z" fill="#263238"/>
<path d="M61.2129 112.862L60.6227 111.051L60.0409 112.862H58.1438L59.6783 113.987L59.0881 115.798L60.6227 114.681L62.1656 115.798L61.5754 113.987L63.11 112.862H61.2129Z" fill="#263238"/>
<path d="M71.9462 125.335V122.627L71.904 122.509L71.3138 124.32H69.4167L70.8164 125.335H71.9462Z" fill="#263238"/>
<path d="M70.9597 102.665L70.3695 104.476L71.904 103.359L71.9462 103.384V102.555H70.8164L70.9597 102.665Z" fill="#263238"/>
<path d="M49.2485 125.335H50.3025L51.6937 124.319H49.7966L49.2485 122.627V125.335Z" fill="#263238"/>
<path d="M49.2485 103.384L50.7493 104.476L50.1591 102.665L50.3025 102.555H49.2485V103.384Z" fill="#263238"/>
<path d="M61.2129 135.642L60.6227 133.831L60.0409 135.642H58.1438L59.6783 136.759L59.0881 138.57L60.6227 137.453L62.1656 138.57L61.5754 136.759L63.11 135.642H61.2129Z" fill="#263238"/>
<path d="M71.9462 148.116V145.399L71.904 145.281L71.3138 147.092H69.4167L70.8164 148.116H71.9462Z" fill="#263238"/>
<path d="M70.9597 125.437L70.3695 127.247L71.904 126.13L71.9462 126.156V125.335H70.8164L70.9597 125.437Z" fill="#263238"/>
<path d="M49.2485 148.115H50.3025L51.6937 147.091H49.7966L49.2485 145.399V148.115Z" fill="#263238"/>
<path d="M49.2485 126.156L50.7493 127.247L50.1591 125.437L50.3025 125.335H49.2485V126.156Z" fill="#263238"/>
<path d="M61.2129 158.422L60.6227 156.603L60.0409 158.422H58.1438L59.6783 159.539L59.0881 161.35L60.6227 160.233L62.1656 161.35L61.5754 159.539L63.11 158.422H61.2129Z" fill="#263238"/>
<path d="M71.9462 170.887V168.18L71.904 168.061L71.3138 169.872H69.4167L70.8164 170.887H71.9462Z" fill="#263238"/>
<path d="M70.9597 148.217L70.3695 150.028L71.904 148.911L71.9462 148.937V148.116H70.8164L70.9597 148.217Z" fill="#263238"/>
<path d="M49.2485 170.888H50.3025L51.6937 169.872H49.7966L49.2485 168.18V170.888Z" fill="#263238"/>
<path d="M49.2485 148.937L50.7493 150.028L50.1591 148.217L50.3025 148.116H49.2485V148.937Z" fill="#263238"/>
<path d="M61.2129 181.195L60.6227 179.384L60.0409 181.195H58.1438L59.6783 182.312L59.0881 184.131L60.6227 183.006L62.1656 184.131L61.5754 182.312L63.11 181.195H61.2129Z" fill="#263238"/>
<path d="M71.9462 193.668V190.951L71.904 190.833L71.3138 192.652H69.4167L70.8164 193.668H71.9462Z" fill="#263238"/>
<path d="M71.9462 170.888H70.8164L70.9597 170.989L70.3695 172.809L71.904 171.683L71.9462 171.709V170.888Z" fill="#263238"/>
<path d="M49.2485 193.668H50.3025L51.6937 192.653H49.7966L49.2485 190.952V193.668Z" fill="#263238"/>
<path d="M49.2485 171.709L50.7493 172.809L50.1591 170.989L50.3025 170.888H49.2485V171.709Z" fill="#263238"/>
<path d="M61.2129 203.975L60.6227 202.156L60.0409 203.975H58.1438L59.6783 205.092L59.0881 206.903L60.6227 205.786L62.1656 206.903L61.5754 205.092L63.11 203.975H61.2129Z" fill="#263238"/>
<path d="M71.9462 216.44V213.732L71.904 213.614L71.3138 215.425H69.4167L70.8164 216.44H71.9462Z" fill="#263238"/>
<path d="M71.9462 193.668H70.8164L70.9597 193.77L70.3695 195.58L71.904 194.463L71.9462 194.489V193.668Z" fill="#263238"/>
<path d="M49.2485 216.44H50.3025L51.6937 215.425H49.7966L49.2485 213.732V216.44Z" fill="#263238"/>
<path d="M49.2485 193.668V194.489L50.7493 195.58L50.1591 193.77L50.3025 193.668H49.2485Z" fill="#263238"/>
<path d="M71.9462 216.44H70.8164L70.9597 216.55L70.3695 218.361L71.904 217.235L71.9462 217.269V216.44Z" fill="#263238"/>
<path d="M49.2485 216.44V217.269L50.7493 218.361L50.1591 216.55L50.3025 216.44H49.2485Z" fill="#263238"/>
<path d="M49.2486 34.2296V34.0435H47.8658L48.1187 34.2296H49.2486Z" fill="#263238"/>
<path d="M27.6048 34.2296L27.8578 34.0435H26.5593V34.2296H27.6048Z" fill="#263238"/>
<path d="M38.5237 44.537L37.9335 42.7261L37.3433 44.537H35.4462L36.9807 45.654L36.3989 47.465L37.9335 46.3479L39.468 47.465L38.8862 45.654L40.4208 44.537H38.5237Z" fill="#263238"/>
<path d="M46.7275 55.9862L48.1187 57.0017H49.2486V54.2938L49.2148 54.1753L48.6246 55.9862H46.7275Z" fill="#263238"/>
<path d="M49.2486 34.23H48.1187L48.2621 34.3315L47.6719 36.1425L49.2148 35.0254L49.2486 35.0508V34.23Z" fill="#263238"/>
<path d="M27.6048 57.0019L29.0045 55.9864H27.1074L26.5593 54.2939V57.0019H27.6048Z" fill="#263238"/>
<path d="M26.5593 35.0508L28.0517 36.1425L27.4699 34.3315L27.6048 34.23H26.5593V35.0508Z" fill="#263238"/>
<path d="M36.3989 70.2454L37.9335 69.1284L39.468 70.2454L38.8862 68.4345L40.4208 67.309H38.5237L37.9335 65.498L37.3433 67.309H35.4462L36.9807 68.4345L36.3989 70.2454Z" fill="#263238"/>
<path d="M49.2486 79.7825V77.0745L49.2148 76.9561L48.6246 78.767H46.7275L48.1187 79.7825H49.2486Z" fill="#263238"/>
<path d="M49.2486 57.002H48.1187L48.2621 57.112L47.6719 58.9229L49.2148 57.8059L49.2486 57.8313V57.002Z" fill="#263238"/>
<path d="M27.6048 79.7823L29.0045 78.7668H27.1074L26.5593 77.0659V79.7823H27.6048Z" fill="#263238"/>
<path d="M26.5593 57.8313L28.0517 58.9229L27.4699 57.112L27.6048 57.002H26.5593V57.8313Z" fill="#263238"/>
<path d="M36.3989 93.0177L37.9335 91.9007L39.468 93.0177L38.8862 91.2068L40.4208 90.0897H38.5237L37.9335 88.2788L37.3433 90.0897H35.4462L36.9807 91.2068L36.3989 93.0177Z" fill="#263238"/>
<path d="M49.2486 102.554V99.8465L49.2148 99.728L48.6246 101.539H46.7275L48.1187 102.554H49.2486Z" fill="#263238"/>
<path d="M48.2621 79.8838L47.6719 81.6947L49.2148 80.5777L49.2486 80.6031V79.7822H48.1187L48.2621 79.8838Z" fill="#263238"/>
<path d="M27.6048 102.555L29.0045 101.539H27.1074L26.5593 99.8467V102.555H27.6048Z" fill="#263238"/>
<path d="M26.5593 80.6031L28.0517 81.6947L27.4699 79.8838L27.6048 79.7822H26.5593V80.6031Z" fill="#263238"/>
<path d="M36.3989 115.798L37.9335 114.681L39.468 115.798L38.8862 113.987L40.4208 112.862H38.5237L37.9335 111.051L37.3433 112.862H35.4462L36.9807 113.987L36.3989 115.798Z" fill="#263238"/>
<path d="M49.2486 125.335V122.627L49.2148 122.509L48.6246 124.32H46.7275L48.1187 125.335H49.2486Z" fill="#263238"/>
<path d="M48.2621 102.665L47.6719 104.476L49.2148 103.359L49.2486 103.384V102.555H48.1187L48.2621 102.665Z" fill="#263238"/>
<path d="M27.6048 125.335L29.0045 124.319H27.1074L26.5593 122.627V125.335H27.6048Z" fill="#263238"/>
<path d="M26.5593 103.384L28.0517 104.476L27.4699 102.665L27.6048 102.555H26.5593V103.384Z" fill="#263238"/>
<path d="M36.3989 138.57L37.9335 137.453L39.468 138.57L38.8862 136.759L40.4208 135.642H38.5237L37.9335 133.831L37.3433 135.642H35.4462L36.9807 136.759L36.3989 138.57Z" fill="#263238"/>
<path d="M49.2486 148.116V145.399L49.2148 145.281L48.6246 147.092H46.7275L48.1187 148.116H49.2486Z" fill="#263238"/>
<path d="M48.2621 125.437L47.6719 127.247L49.2148 126.13L49.2486 126.156V125.335H48.1187L48.2621 125.437Z" fill="#263238"/>
<path d="M27.6048 148.115L29.0045 147.091H27.1074L26.5593 145.399V148.115H27.6048Z" fill="#263238"/>
<path d="M26.5593 126.156L28.0517 127.247L27.4699 125.437L27.6048 125.335H26.5593V126.156Z" fill="#263238"/>
<path d="M36.3989 161.35L37.9335 160.233L39.468 161.35L38.8862 159.539L40.4208 158.422H38.5237L37.9335 156.603L37.3433 158.422H35.4462L36.9807 159.539L36.3989 161.35Z" fill="#263238"/>
<path d="M49.2486 170.887V168.18L49.2148 168.061L48.6246 169.872H46.7275L48.1187 170.887H49.2486Z" fill="#263238"/>
<path d="M48.2621 148.217L47.6719 150.028L49.2148 148.911L49.2486 148.937V148.116H48.1187L48.2621 148.217Z" fill="#263238"/>
<path d="M27.6048 170.888L29.0045 169.872H27.1074L26.5593 168.18V170.888H27.6048Z" fill="#263238"/>
<path d="M26.5593 148.937L28.0517 150.028L27.4699 148.217L27.6048 148.116H26.5593V148.937Z" fill="#263238"/>
<path d="M36.3989 184.131L37.9335 183.006L39.468 184.131L38.8862 182.312L40.4208 181.195H38.5237L37.9335 179.384L37.3433 181.195H35.4462L36.9807 182.312L36.3989 184.131Z" fill="#263238"/>
<path d="M49.2486 193.668V190.951L49.2148 190.833L48.6246 192.652H46.7275L48.1187 193.668H49.2486Z" fill="#263238"/>
<path d="M48.2621 170.989L47.6719 172.809L49.2148 171.683L49.2486 171.709V170.888H48.1187L48.2621 170.989Z" fill="#263238"/>
<path d="M27.6048 193.668L29.0045 192.653H27.1074L26.5593 190.952V193.668H27.6048Z" fill="#263238"/>
<path d="M26.5593 171.709L28.0517 172.809L27.4699 170.989L27.6048 170.888H26.5593V171.709Z" fill="#263238"/>
<path d="M38.5237 203.975L37.9335 202.156L37.3433 203.975H35.4462L36.9807 205.092L36.3989 206.903L37.9335 205.786L39.468 206.903L38.8862 205.092L40.4208 203.975H38.5237Z" fill="#263238"/>
<path d="M49.2486 216.44V213.732L49.2148 213.614L48.6246 215.425H46.7275L48.1187 216.44H49.2486Z" fill="#263238"/>
<path d="M49.2486 193.668H48.1187L48.2621 193.77L47.6719 195.58L49.2148 194.463L49.2486 194.489V193.668Z" fill="#263238"/>
<path d="M27.6048 216.44L29.0045 215.425H27.1074L26.5593 213.732V216.44H27.6048Z" fill="#263238"/>
<path d="M26.5593 193.668V194.489L28.0517 195.58L27.4699 193.77L27.6048 193.668H26.5593Z" fill="#263238"/>
<path d="M49.2486 216.44H48.1187L48.2621 216.55L47.6719 218.361L49.2148 217.235L49.2486 217.269V216.44Z" fill="#263238"/>
<path d="M26.5593 216.44V217.269L28.0517 218.361L27.4699 216.55L27.6048 216.44H26.5593Z" fill="#263238"/>
<path d="M26.5593 34.2296V34.0435H25.1765L25.4295 34.2296H26.5593Z" fill="#263238"/>
<path d="M4.87341 34.0435V34.2296H4.91557L5.16852 34.0435H4.87341Z" fill="#263238"/>
<path d="M13.7012 47.465L15.2358 46.3479L16.7703 47.465L16.1885 45.654L17.7231 44.537H15.826L15.2358 42.7261L14.654 44.537H12.7569L14.2914 45.654L13.7012 47.465Z" fill="#263238"/>
<path d="M26.5593 57.0017V54.2938L26.5171 54.1753L25.9269 55.9862H24.0298L25.4295 57.0017H26.5593Z" fill="#263238"/>
<path d="M25.4295 34.23L25.5644 34.3315L24.9826 36.1425L26.5171 35.0254L26.5593 35.0508V34.23H25.4295Z" fill="#263238"/>
<path d="M6.30677 55.9863H4.87341V57.0018H4.91557L6.30677 55.9863Z" fill="#263238"/>
<path d="M4.87341 34.2638L4.91557 34.23H4.87341V34.2638Z" fill="#263238"/>
<path d="M5.36244 36.1425L4.87341 34.6362V35.7871L5.36244 36.1425Z" fill="#263238"/>
<path d="M13.7012 70.2454L15.2358 69.1284L16.7703 70.2454L16.1885 68.4345L17.7231 67.309H15.826L15.2358 65.498L14.654 67.309H12.7569L14.2914 68.4345L13.7012 70.2454Z" fill="#263238"/>
<path d="M26.5593 79.7825V77.0745L26.5171 76.9561L25.9269 78.767H24.0298L25.4295 79.7825H26.5593Z" fill="#263238"/>
<path d="M25.5644 57.112L24.9826 58.9229L26.5171 57.8059L26.5593 57.8313V57.002H25.4295L25.5644 57.112Z" fill="#263238"/>
<path d="M6.30677 78.7671H4.87341V79.7826H4.91557L6.30677 78.7671Z" fill="#263238"/>
<path d="M5.36244 58.923L4.87341 57.4082V58.5675L5.36244 58.923Z" fill="#263238"/>
<path d="M4.87341 57.0358L4.91557 57.002H4.87341V57.0358Z" fill="#263238"/>
<path d="M13.7012 93.0177L15.2358 91.9007L16.7703 93.0177L16.1885 91.2068L17.7231 90.0897H15.826L15.2358 88.2788L14.654 90.0897H12.7569L14.2914 91.2068L13.7012 93.0177Z" fill="#263238"/>
<path d="M26.5593 102.554V99.8465L26.5171 99.728L25.9269 101.539H24.0298L25.4295 102.554H26.5593Z" fill="#263238"/>
<path d="M25.5644 79.8838L24.9826 81.6947L26.5171 80.5777L26.5593 80.6031V79.7822H25.4295L25.5644 79.8838Z" fill="#263238"/>
<path d="M6.30677 101.539H4.87341V102.555H4.91557L6.30677 101.539Z" fill="#263238"/>
<path d="M4.87341 79.8161L4.91557 79.7822H4.87341V79.8161Z" fill="#263238"/>
<path d="M5.36244 81.6948L4.87341 80.1885V81.3393L5.36244 81.6948Z" fill="#263238"/>
<path d="M13.7012 115.798L15.2358 114.681L16.7703 115.798L16.1885 113.987L17.7231 112.862H15.826L15.2358 111.051L14.654 112.862H12.7569L14.2914 113.987L13.7012 115.798Z" fill="#263238"/>
<path d="M26.5593 125.335V122.627L26.5171 122.509L25.9269 124.32H24.0298L25.4295 125.335H26.5593Z" fill="#263238"/>
<path d="M25.5644 102.665L24.9826 104.476L26.5171 103.359L26.5593 103.384V102.555H25.4295L25.5644 102.665Z" fill="#263238"/>
<path d="M6.30677 124.319H4.87341V125.335H4.91557L6.30677 124.319Z" fill="#263238"/>
<path d="M5.36244 104.475L4.87341 102.96V104.12L5.36244 104.475Z" fill="#263238"/>
<path d="M4.87341 102.589L4.91557 102.555H4.87341V102.589Z" fill="#263238"/>
<path d="M13.7012 138.57L15.2358 137.453L16.7703 138.57L16.1885 136.759L17.7231 135.642H15.826L15.2358 133.831L14.654 135.642H12.7569L14.2914 136.759L13.7012 138.57Z" fill="#263238"/>
<path d="M26.5593 148.116V145.399L26.5171 145.281L25.9269 147.092H24.0298L25.4295 148.116H26.5593Z" fill="#263238"/>
<path d="M25.5644 125.437L24.9826 127.247L26.5171 126.13L26.5593 126.156V125.335H25.4295L25.5644 125.437Z" fill="#263238"/>
<path d="M6.30677 147.092H4.87341V148.116H4.91557L6.30677 147.092Z" fill="#263238"/>
<path d="M5.36244 127.247L4.87341 125.741V126.892L5.36244 127.247Z" fill="#263238"/>
<path d="M4.87341 125.369L4.91557 125.335H4.87341V125.369Z" fill="#263238"/>
<path d="M13.7012 161.35L15.2358 160.233L16.7703 161.35L16.1885 159.539L17.7231 158.422H15.826L15.2358 156.603L14.654 158.422H12.7569L14.2914 159.539L13.7012 161.35Z" fill="#263238"/>
<path d="M26.5593 170.887V168.18L26.5171 168.061L25.9269 169.872H24.0298L25.4295 170.887H26.5593Z" fill="#263238"/>
<path d="M25.5644 148.217L24.9826 150.028L26.5171 148.911L26.5593 148.937V148.116H25.4295L25.5644 148.217Z" fill="#263238"/>
<path d="M6.30677 169.872H4.87341V170.888H4.91557L6.30677 169.872Z" fill="#263238"/>
<path d="M5.36244 150.028L4.87341 148.521V149.672L5.36244 150.028Z" fill="#263238"/>
<path d="M4.87341 148.141L4.91557 148.116H4.87341V148.141Z" fill="#263238"/>
<path d="M13.7012 184.131L15.2358 183.006L16.7703 184.131L16.1885 182.312L17.7231 181.195H15.826L15.2358 179.384L14.654 181.195H12.7569L14.2914 182.312L13.7012 184.131Z" fill="#263238"/>
<path d="M26.5593 193.668V190.951L26.5171 190.833L25.9269 192.652H24.0298L25.4295 193.668H26.5593Z" fill="#263238"/>
<path d="M25.5644 170.989L24.9826 172.809L26.5171 171.683L26.5593 171.709V170.888H25.4295L25.5644 170.989Z" fill="#263238"/>
<path d="M6.30677 192.653H4.87341V193.668H4.91557L6.30677 192.653Z" fill="#263238"/>
<path d="M4.87341 170.922L4.91557 170.888H4.87341V170.922Z" fill="#263238"/>
<path d="M5.36244 172.809L4.87341 171.294V172.445L5.36244 172.809Z" fill="#263238"/>
<path d="M13.7012 206.903L15.2358 205.786L16.7703 206.903L16.1885 205.092L17.7231 203.975H15.826L15.2358 202.156L14.654 203.975H12.7569L14.2914 205.092L13.7012 206.903Z" fill="#263238"/>
<path d="M26.5593 216.44V213.732L26.5171 213.614L25.9269 215.425H24.0298L25.4295 216.44H26.5593Z" fill="#263238"/>
<path d="M25.5644 193.77L24.9826 195.58L26.5171 194.463L26.5593 194.489V193.668H25.4295L25.5644 193.77Z" fill="#263238"/>
<path d="M6.30677 215.425H4.87341V216.44H4.91557L6.30677 215.425Z" fill="#263238"/>
<path d="M5.36244 195.581L4.87341 194.074V195.225L5.36244 195.581Z" fill="#263238"/>
<path d="M4.87341 193.702L4.91557 193.668H4.87341V193.702Z" fill="#263238"/>
<path d="M26.5593 216.44H25.4295L25.5644 216.55L24.9826 218.361L26.5171 217.235L26.5593 217.269V216.44Z" fill="#263238"/>
<path d="M4.87341 216.846V218.006L5.36244 218.361L4.87341 216.846Z" fill="#263238"/>
<path d="M4.87341 216.44V216.474L4.91557 216.44H4.87341Z" fill="#263238"/>
<path d="M156.127 222H104.011C103.899 222 103.792 221.955 103.713 221.876C103.634 221.797 103.59 221.689 103.59 221.577V34.0437C103.59 33.9315 103.634 33.8239 103.713 33.7445C103.792 33.6652 103.899 33.6206 104.011 33.6206H156.127C156.238 33.6206 156.346 33.6652 156.425 33.7445C156.504 33.8239 156.548 33.9315 156.548 34.0437V221.577C156.548 221.632 156.537 221.687 156.516 221.739C156.495 221.79 156.464 221.837 156.425 221.876C156.386 221.915 156.339 221.946 156.288 221.968C156.237 221.989 156.182 222 156.127 222ZM104.433 221.154H155.705V34.4668H104.433V221.154Z" fill="#263238"/>
<path d="M79.8634 17.0428C79.8634 17.0428 64.6108 8.74971 58.2534 2.36913C51.8961 -4.01144 51.2637 6.83723 51.2637 12.5747C51.2637 18.3121 48.0597 22.7802 53.1692 23.4149C58.2787 24.0495 79.8634 21.5024 79.8634 21.5024V17.0428Z" fill="#51C694"/>
<path d="M55.4373 23.9483C54.6629 23.9588 53.8886 23.9221 53.1186 23.8382C52.6024 23.8244 52.0948 23.702 51.6286 23.4789C51.1624 23.2559 50.748 22.9373 50.4121 22.5435C49.569 21.3503 49.8641 19.6156 50.2688 17.4154C50.61 15.8234 50.802 14.2028 50.8421 12.5749C50.8421 5.22118 51.9045 1.04927 54.0039 0.17765C55.2518 -0.33855 56.7863 0.296122 58.557 2.07321C64.7963 8.33531 79.914 16.5861 80.0995 16.6707C80.1667 16.7065 80.2226 16.7602 80.2613 16.8259C80.3 16.8916 80.3199 16.9667 80.3187 17.043V21.5026C80.3195 21.6066 80.2821 21.7072 80.2136 21.7852C80.1452 21.8633 80.0506 21.9133 79.9477 21.9258C79.1299 22.0019 62.7221 23.9483 55.4373 23.9483ZM54.8977 0.846172C54.7012 0.844156 54.5062 0.881558 54.3243 0.956182C53.3378 1.37083 51.6853 3.38486 51.6853 12.5749C51.6446 14.2536 51.4499 15.9249 51.1035 17.5677C50.7325 19.5648 50.4374 21.1472 51.1035 22.0442C51.3748 22.3395 51.703 22.5765 52.0682 22.7409C52.4334 22.9053 52.8281 22.9936 53.2282 23.0005C57.8319 23.5759 76.5667 21.4603 79.4503 21.1303V17.2884C77.5701 16.2391 63.8604 8.59764 57.9583 2.66557C56.7442 1.45546 55.724 0.846172 54.8977 0.846172Z" fill="#263238"/>
<path d="M85.1584 17.0428C85.1584 17.0428 100.335 8.74971 106.726 2.36913C113.117 -4.01144 113.716 6.83723 113.716 12.5747C113.716 18.3121 116.895 22.7802 111.811 23.4149C106.726 24.0495 85.1584 21.5024 85.1584 21.5024V17.0428Z" fill="#51C694"/>
<path d="M109.542 23.9483C102.266 23.9483 85.8498 22.0189 85.091 21.9258C84.9882 21.9133 84.8935 21.8633 84.8251 21.7852C84.7567 21.7072 84.7193 21.6066 84.72 21.5027V17.043C84.7189 16.9667 84.7387 16.8916 84.7774 16.8259C84.8161 16.7602 84.8721 16.7065 84.9392 16.6707C85.0994 16.5861 100.217 8.33532 106.456 2.07322C108.227 0.296135 109.753 -0.347 111.001 0.177662C113.101 1.02389 114.163 5.25504 114.163 12.5749C114.202 14.2001 114.394 15.8179 114.736 17.4069C115.141 19.6156 115.47 21.3503 114.593 22.5435C114.257 22.9373 113.843 23.2559 113.376 23.479C112.91 23.702 112.403 23.8244 111.886 23.8383C111.108 23.9231 110.325 23.9599 109.542 23.9483ZM85.5379 21.1557C88.4215 21.4857 107.139 23.6013 111.76 23.0259C112.161 23.0186 112.557 22.9302 112.924 22.7659C113.29 22.6016 113.62 22.3648 113.893 22.0696C114.542 21.1726 114.256 19.5902 113.893 17.5931C113.54 15.9513 113.342 14.2796 113.303 12.6003C113.303 3.44411 111.617 1.39623 110.664 0.981581C109.711 0.566928 108.539 1.18468 107.03 2.67404C101.128 8.59765 87.4518 16.2137 85.5463 17.2969L85.5379 21.1557Z" fill="#263238"/>
<path d="M85.4535 15.9258H79.4418V21.9594H85.4535V15.9258Z" fill="#51C694"/>
<path d="M85.4535 22.3828H79.4418C79.33 22.3828 79.2228 22.3382 79.1437 22.2589C79.0647 22.1795 79.0203 22.0719 79.0203 21.9597V15.926C79.0203 15.8138 79.0647 15.7062 79.1437 15.6269C79.2228 15.5475 79.33 15.5029 79.4418 15.5029H85.4535C85.5653 15.5029 85.6726 15.5475 85.7516 15.6269C85.8307 15.7062 85.8751 15.8138 85.8751 15.926V22.002C85.8646 22.1067 85.8156 22.2038 85.7377 22.2742C85.6597 22.3446 85.5584 22.3833 85.4535 22.3828ZM79.8634 21.5366H85.0319V16.3492H79.8634V21.5366Z" fill="#263238"/>
<path d="M160.57 21.291H0.42157V37.234H160.57V21.291Z" fill="#263238"/>
<path d="M160.578 37.6569H0.421576C0.309767 37.6569 0.202538 37.6123 0.123477 37.533C0.044416 37.4536 0 37.346 0 37.2338V21.2908C0 21.1786 0.044416 21.071 0.123477 20.9916C0.202538 20.9123 0.309767 20.8677 0.421576 20.8677H160.621C160.732 20.8677 160.84 20.9123 160.919 20.9916C160.998 21.071 161.042 21.1786 161.042 21.2908V37.2338C161.042 37.2931 161.03 37.3518 161.007 37.4061C160.983 37.4604 160.948 37.5091 160.904 37.549C160.86 37.5889 160.809 37.6191 160.753 37.6377C160.697 37.6563 160.637 37.6628 160.578 37.6569ZM0.843153 36.8107H160.199V21.7139H0.843153V36.8107Z" fill="#263238"/>
<path d="M54.3243 21.1978H34.9318V221.458H54.3243V21.1978Z" fill="#51C694"/>
<path d="M54.3159 221.89H34.9234C34.8123 221.888 34.7063 221.843 34.6277 221.764C34.5491 221.685 34.504 221.578 34.5018 221.467V21.198C34.504 21.0865 34.5491 20.9801 34.6277 20.9012C34.7063 20.8223 34.8123 20.7771 34.9234 20.7749H54.3159C54.4277 20.7749 54.535 20.8195 54.614 20.8988C54.6931 20.9782 54.7375 21.0858 54.7375 21.198V221.467C54.7375 221.579 54.6931 221.687 54.614 221.766C54.535 221.845 54.4277 221.89 54.3159 221.89ZM35.345 221.044H53.8943V21.6211H35.345V221.044Z" fill="#263238"/>
<path d="M123.876 221.467H143.268L143.268 21.2064H123.876L123.876 221.467Z" fill="#51C694"/>
<path d="M143.268 221.89H123.876C123.765 221.888 123.659 221.843 123.58 221.764C123.502 221.685 123.457 221.578 123.454 221.467V21.198C123.457 21.0865 123.502 20.9801 123.58 20.9012C123.659 20.8223 123.765 20.7771 123.876 20.7749H143.268C143.38 20.7749 143.488 20.8195 143.567 20.8988C143.646 20.9782 143.69 21.0858 143.69 21.198V221.467C143.69 221.579 143.646 221.687 143.567 221.766C143.488 221.845 143.38 221.89 143.268 221.89ZM124.298 221.044H142.847V21.6211H124.298V221.044Z" fill="#263238"/>
<path d="M54.3243 21.1979C52.4887 22.8208 50.8603 24.6655 49.4762 26.6899C46.9468 30.2864 48.0007 36.6332 48.0007 40.6527C48.0007 44.6723 46.736 58.0005 46.736 58.0005L54.5351 49.0812C54.5351 49.0812 61.7019 59.4475 61.7019 58.6013V32.6136C61.6135 29.6235 62.4213 26.6755 64.0206 24.1513C65.2853 22.2472 68.4471 21.1895 68.4471 21.1895L54.3243 21.1979Z" fill="#51C694"/>
<path d="M61.6766 59.109C61.2972 59.109 60.3697 58.2627 54.4929 49.8004L47.0479 58.2627C46.9887 58.3283 46.9108 58.374 46.8249 58.3937C46.7389 58.4134 46.649 58.4061 46.5673 58.3727C46.4849 58.3372 46.4159 58.2762 46.3704 58.1985C46.3249 58.1209 46.3053 58.0308 46.3144 57.9412C46.3144 57.8142 47.5707 44.5877 47.5707 40.6358C47.5707 39.7895 47.5285 38.8248 47.4779 37.8093C47.284 34.0521 47.0563 29.347 49.1642 26.4276C50.569 24.3711 52.223 22.4979 54.0882 20.8509C54.1627 20.7917 54.2546 20.759 54.3496 20.7578H68.4387C68.5393 20.7582 68.6366 20.794 68.7136 20.8589C68.7906 20.9239 68.8425 21.0139 68.8603 21.1132C68.8769 21.2125 68.857 21.3145 68.8043 21.4001C68.7515 21.4858 68.6695 21.5492 68.5736 21.5787C68.5736 21.5787 65.5382 22.6195 64.3578 24.3797C62.8049 26.8339 62.0207 29.699 62.1066 32.605V58.6351C62.1048 58.7325 62.0742 58.8271 62.0186 58.907C61.9631 58.9869 61.8851 59.0483 61.7946 59.0836C61.7573 59.0997 61.7172 59.1083 61.6766 59.109ZM54.5267 48.6919C54.592 48.6957 54.6555 48.7145 54.7125 48.7468C54.7695 48.7791 54.8184 48.8239 54.8555 48.878C57.2922 52.3984 60.0409 56.2402 61.2466 57.7042V32.6135C61.1614 29.5388 61.9954 26.509 63.6412 23.9143C64.3739 22.94 65.324 22.1517 66.4151 21.6125H54.4761C52.7231 23.1977 51.1585 24.981 49.8134 26.9268C47.9079 29.6348 48.1271 34.1452 48.3211 37.7755C48.3717 38.7994 48.4138 39.7726 48.4138 40.6442C48.4138 43.9445 47.5707 53.2784 47.2756 56.7226L54.2147 48.8103C54.2553 48.7695 54.3042 48.7378 54.358 48.7173C54.4118 48.6969 54.4693 48.6882 54.5267 48.6919Z" fill="#263238"/>
<path d="M71.7439 21.1979C69.9083 22.8208 68.2798 24.6655 66.8958 26.6899C64.3663 30.2864 65.4202 36.6332 65.4202 40.6527C65.4202 44.6723 64.1555 58.0005 64.1555 58.0005L71.9547 49.0812C71.9547 49.0812 79.1215 59.4475 79.1215 58.6013V32.6136C79.0331 29.6235 79.8408 26.6755 81.4401 24.1513C82.7049 22.2472 85.8667 21.1895 85.8667 21.1895L71.7439 21.1979Z" fill="#51C694"/>
<path d="M79.1046 59.109C78.7252 59.109 77.7977 58.2627 71.9125 49.8004L64.4759 58.2627C64.4147 58.328 64.3354 58.3734 64.2482 58.393C64.161 58.4126 64.07 58.4056 63.9869 58.3728C63.9044 58.3372 63.8355 58.2762 63.79 58.1986C63.7445 58.1209 63.7248 58.0308 63.7339 57.9412C63.7339 57.8143 64.9986 44.5877 64.9986 40.6358C64.9986 39.7895 64.9987 38.8248 64.8975 37.8094C64.712 34.0521 64.4843 29.3471 66.5838 26.4276C67.9899 24.3696 69.6469 22.4962 71.5162 20.8509C71.5907 20.7918 71.6826 20.759 71.7776 20.7578H85.9004C86.0005 20.7568 86.0975 20.7923 86.1735 20.8576C86.2495 20.923 86.2993 21.0138 86.3136 21.1133C86.3325 21.2116 86.3146 21.3135 86.2633 21.3995C86.2119 21.4854 86.1307 21.5492 86.0353 21.5787C86.0353 21.5787 82.9915 22.6195 81.8195 24.3797C80.2666 26.8339 79.4824 29.699 79.5683 32.6051V58.6351C79.5648 58.7332 79.5325 58.828 79.4755 58.9078C79.4185 58.9876 79.3393 59.0487 79.2479 59.0836C79.2034 59.1051 79.1538 59.1139 79.1046 59.109ZM71.9547 48.6919C72.0188 48.6958 72.0812 48.7146 72.1368 48.7469C72.1924 48.7793 72.2398 48.8242 72.2751 48.8781C74.7118 52.3984 77.4689 56.2403 78.6746 57.7042V32.6135C78.5852 29.5383 79.4195 26.5073 81.0691 23.9143C81.8019 22.94 82.752 22.1517 83.8431 21.6125H71.9041C70.1486 23.1953 68.5838 24.9789 67.2414 26.9269C65.3359 29.6348 65.5551 34.1452 65.7406 37.7755C65.7912 38.7995 65.8418 39.7726 65.8418 40.6442C65.8418 43.9445 64.9987 53.2785 64.6951 56.7226L71.668 48.8357C71.7035 48.7934 71.7472 48.7589 71.7965 48.7341C71.8458 48.7094 71.8996 48.695 71.9547 48.6919Z" fill="#263238"/>
<path d="M134.71 76.1356L11.6984 102.806L27.3079 175.328L150.319 148.657L134.71 76.1356Z" fill="#FF522F"/>
<path d="M27.2709 177C26.8854 177 26.5117 176.866 26.2131 176.621C25.9144 176.376 25.7092 176.034 25.6321 175.654L10.0462 102.934C9.99489 102.723 9.98622 102.504 10.0207 102.291C10.0552 102.077 10.1321 101.872 10.2468 101.688C10.4952 101.312 10.8787 101.047 11.3171 100.948L134.366 74.0272C134.804 73.9515 135.254 74.035 135.637 74.2627C135.822 74.3826 135.981 74.5404 136.102 74.726C136.223 74.9115 136.303 75.1206 136.339 75.3396L151.958 148.06C152.007 148.274 152.013 148.497 151.975 148.713C151.938 148.93 151.857 149.137 151.739 149.322C151.62 149.507 151.466 149.667 151.286 149.791C151.105 149.915 150.902 150.002 150.687 150.045L27.6388 176.966L27.2709 177ZM13.6583 103.775L28.5419 173.197L148.346 147.185L133.396 77.8634L13.6583 103.775Z" fill="#FFBD00"/>
<path d="M43.4543 130.676L44.757 136.738L22.7346 141.47L21.4319 135.408L43.4543 130.676ZM47.5102 121.185L46.0405 114.345L59.2021 111.517L67.0627 148.1L59.3937 149.748L53.0028 120.005L47.5102 121.185ZM86.8091 143.857C77.482 145.861 71.4861 140.662 68.8214 128.261C66.164 115.894 69.4989 108.708 78.8261 106.704C83.766 105.643 87.6804 106.536 90.5693 109.385C93.4582 112.233 95.5187 116.525 96.7509 122.259C97.9905 128.028 97.8784 132.805 96.4146 136.589C94.9509 140.373 91.7491 142.796 86.8091 143.857ZM90.0197 132.813C90.5145 130.574 90.3574 127.573 89.5483 123.807C88.7466 120.076 87.6642 117.309 86.301 115.506C84.9649 113.661 82.9668 113.024 80.3069 113.596C77.6124 114.175 76.0177 115.583 75.523 117.822C75.0553 120.019 75.2223 122.982 76.024 126.713C76.833 130.478 77.9056 133.284 79.2417 135.129C80.605 136.932 82.6338 137.544 85.3283 136.965C87.9883 136.394 89.5521 135.01 90.0197 132.813ZM104.83 101.116C107.248 100.597 109.377 100.917 111.216 102.075C113.082 103.192 114.294 105.046 114.85 107.637C115.407 110.228 115.068 112.433 113.832 114.252C112.624 116.03 110.811 117.178 108.393 117.698C105.975 118.218 103.832 117.919 101.966 116.802C100.127 115.643 98.929 113.768 98.3723 111.178C97.8156 108.587 98.1414 106.403 99.3496 104.625C100.585 102.806 102.412 101.636 104.83 101.116ZM128.351 96.5503L115.87 137.613L108.823 139.127L121.304 98.0645L128.351 96.5503ZM103.295 110.12C103.547 111.294 104.045 112.181 104.788 112.781C105.524 113.345 106.393 113.52 107.395 113.305C108.396 113.089 109.134 112.57 109.607 111.745C110.073 110.886 110.18 109.869 109.928 108.695C109.675 107.52 109.164 106.654 108.394 106.097C107.616 105.505 106.726 105.317 105.724 105.532C104.723 105.747 104.006 106.281 103.575 107.132C103.136 107.95 103.043 108.945 103.295 110.12ZM128.834 117.968C131.252 117.448 133.38 117.768 135.22 118.927C137.051 120.051 138.245 121.909 138.802 124.5C139.359 127.09 139.037 129.292 137.836 131.104C136.628 132.881 134.815 134.03 132.396 134.549C129.978 135.069 127.836 134.77 125.97 133.654C124.131 132.495 122.933 130.62 122.376 128.029C121.819 125.438 122.145 123.254 123.353 121.476C124.589 119.657 126.415 118.488 128.834 117.968ZM127.299 126.971C127.558 128.18 128.06 129.085 128.803 129.684C129.539 130.248 130.408 130.423 131.409 130.208C132.411 129.993 133.149 129.473 133.622 128.648C134.088 127.789 134.191 126.755 133.931 125.546C133.679 124.372 133.164 123.488 132.386 122.897C131.609 122.305 130.719 122.116 129.717 122.332C128.715 122.547 127.999 123.08 127.567 123.932C127.128 124.749 127.039 125.762 127.299 126.971Z" fill="white"/>
</g>
<defs>
<clipPath id="clip0_1776_1188">
<rect width="161" height="222" fill="white"/>
</clipPath>
</defs>
</svg>
