<svg width="24" height="24" viewBox="0 0 24 24" fill="none" xmlns="http://www.w3.org/2000/svg">
<g clip-path="url(#clip0_1229_6944)">
<path d="M23.3628 22.2975H22.6501V18.1175H23.3628C23.557 18.1175 23.7144 17.9601 23.7144 17.7659C23.7144 17.5718 23.557 17.4143 23.3628 17.4143H16.328V16.4811C16.328 15.8443 15.8099 15.3261 15.173 15.3261H14.5429V14.6009C14.5429 13.9025 13.9845 13.3324 13.2908 13.3127V7.64062C13.2908 7.44647 13.1334 7.28906 12.9392 7.28906C12.7451 7.28906 12.5877 7.44647 12.5877 7.64062V13.3118H11.4127V5.18545H12.5877V6C12.5877 6.19416 12.7451 6.35156 12.9392 6.35156C13.1334 6.35156 13.2908 6.19416 13.2908 6V5.06827C13.2908 4.74516 13.028 4.48233 12.7049 4.48233H12.3517V3.28997C12.9874 3.15267 13.4889 2.65116 13.6262 2.01544H17.935V2.65664L14.4975 9.18816C14.3424 9.2048 14.2021 9.29409 14.1232 9.43073C14.0355 9.58252 14.0355 9.77109 14.1232 9.92292L14.9676 11.3853C15.0552 11.5372 15.2185 11.6315 15.3938 11.6315H18.7033C18.8974 11.6315 19.0548 11.4741 19.0548 11.2799C19.0548 11.0857 18.8974 10.9283 18.7033 10.9283H15.5157L14.9149 9.88772H21.6584L21.0576 10.9283H20.3439C20.1497 10.9283 19.9923 11.0857 19.9923 11.2799C19.9923 11.4741 20.1497 11.6315 20.3439 11.6315H21.1793C21.3546 11.6315 21.5179 11.5372 21.6055 11.3854L22.4499 9.92283C22.5375 9.77105 22.5375 9.58242 22.4499 9.43064C22.371 9.294 22.2307 9.20466 22.0756 9.18806L18.6382 2.65664V2.01539H19.9541C20.1483 2.01539 20.3057 1.85798 20.3057 1.66383C20.3057 1.46967 20.1483 1.31227 19.9541 1.31227H13.6263C13.4644 0.563156 12.797 0 12.0001 0C11.2033 0 10.5359 0.563156 10.374 1.31227H4.04615C3.852 1.31227 3.69459 1.46967 3.69459 1.66383C3.69459 1.85798 3.852 2.01539 4.04615 2.01539H5.36212V2.65659L1.92464 9.18816C1.76962 9.2048 1.62933 9.29409 1.55039 9.43073C1.46273 9.58252 1.46273 9.77109 1.55034 9.92292V9.92297L2.39475 11.3855C2.4824 11.5373 2.64572 11.6316 2.82098 11.6316H8.60644C8.7817 11.6316 8.94501 11.5373 9.03267 11.3855L9.87703 9.92297C9.96469 9.77119 9.96469 9.58256 9.87703 9.43078C9.79819 9.29414 9.65784 9.2048 9.50278 9.18816L6.06525 2.65664V2.01539H10.374C10.5113 2.65111 11.0128 3.15262 11.6485 3.28992V4.48228H11.2954C10.9723 4.48228 10.7095 4.74511 10.7095 5.06822V13.3127C10.0158 13.3324 9.45741 13.9024 9.45741 14.6008V15.3261H8.82726C8.19042 15.3261 7.67226 15.8442 7.67226 16.4811V17.4143H3.07903C1.5389 17.4143 0.285889 18.6673 0.285889 20.2074C0.285889 21.7476 1.53886 23.0005 3.07903 23.0005H5.05045V23.5075C5.05045 23.6911 5.15151 23.8582 5.31417 23.9435C5.47683 24.0287 5.67169 24.0168 5.82272 23.9122L6.68212 23.3175L7.54148 23.9122C7.62558 23.9704 7.72326 23.9999 7.82142 23.9999C7.89956 23.9999 7.97794 23.9812 8.05003 23.9434C8.21269 23.8582 8.31375 23.6911 8.31375 23.5074V23.0005H23.3628C23.557 23.0005 23.7144 22.8431 23.7144 22.6489C23.7144 22.4548 23.557 22.2975 23.3628 22.2975ZM17.935 9.18464H15.2939L17.935 4.1663V9.18464ZM18.6382 4.1663L21.2793 9.18464H18.6382V4.1663ZM5.36212 4.1663V9.18464H2.721L5.36212 4.1663ZM8.48461 10.9284H2.94276L2.34197 9.88777H9.08545L8.48461 10.9284ZM8.70642 9.18464H6.06529V4.1663L8.70642 9.18464ZM11.0394 1.66383C11.0394 1.13409 11.4704 0.703125 12.0001 0.703125C12.5299 0.703125 12.9608 1.13409 12.9608 1.66383C12.9608 2.19356 12.5299 2.62453 12.0001 2.62453C11.4704 2.62453 11.0394 2.19356 11.0394 1.66383ZM10.1605 14.6008C10.1605 14.2777 10.4234 14.0149 10.7465 14.0149H13.2538C13.5769 14.0149 13.8397 14.2777 13.8397 14.6008V15.3261H10.1605V14.6008ZM3.07903 22.2975C1.92661 22.2975 0.989014 21.3599 0.989014 20.2074C0.989014 19.055 1.92656 18.1175 3.07903 18.1175H3.5684C3.39342 18.3743 3.29095 18.6844 3.29095 19.018V21.3969C3.29095 21.7305 3.39342 22.0406 3.56845 22.2975H3.07903ZM7.61058 23.1051L6.88214 22.601C6.76176 22.5177 6.60234 22.5176 6.48201 22.601L5.75353 23.1051V19.6825H7.61058V23.1051ZM21.947 18.9795H14.3478C14.1537 18.9795 13.9963 19.1369 13.9963 19.331C13.9963 19.5252 14.1537 19.6826 14.3478 19.6826H21.947V20.7324H14.3478C14.1537 20.7324 13.9963 20.8898 13.9963 21.084C13.9963 21.2781 14.1537 21.4355 14.3478 21.4355H21.947V22.2975H8.3137V19.6826H11.2802C11.4743 19.6826 11.6317 19.5252 11.6317 19.331C11.6317 19.1369 11.4743 18.9795 11.2802 18.9795H4.89455C4.70039 18.9795 4.54298 19.1369 4.54298 19.331C4.54298 19.5252 4.70039 19.6826 4.89455 19.6826H5.05045V22.2975H4.89455C4.398 22.2975 3.99403 21.8935 3.99403 21.397V19.018C3.99403 18.5215 4.398 18.1175 4.89455 18.1175H10.547C10.7412 18.1175 10.8986 17.9601 10.8986 17.766C10.8986 17.5718 10.7412 17.4144 10.547 17.4144H8.37539V16.4812C8.37539 16.232 8.57808 16.0293 8.82726 16.0293H15.173C15.4222 16.0293 15.6249 16.232 15.6249 16.4812V17.4144H12.1876C11.9935 17.4144 11.8361 17.5718 11.8361 17.766C11.8361 17.9601 11.9935 18.1175 12.1876 18.1175H21.947V18.9795Z" fill="white"/>
</g>
<defs>
<clipPath id="clip0_1229_6944">
<rect width="24" height="24" fill="white"/>
</clipPath>
</defs>
</svg>
