<svg width="40" height="40" viewBox="0 0 40 40" fill="none" xmlns="http://www.w3.org/2000/svg">
<path d="M35.0296 4.78537V3.56006C35.0296 2.91287 34.5049 2.38818 33.8577 2.38818C28.5391 2.38818 24.9885 4.51982 22.9464 6.30803C22.2498 6.91803 21.6775 7.52951 21.218 8.08482H21.553C23.4336 7.26701 28.4118 5.35771 35.0296 4.78537Z" fill="#FF522F"/>
<path d="M18.5123 8.08482H18.7826C18.3231 7.52951 17.7509 6.91803 17.0543 6.30803C15.0122 4.51982 11.4615 2.38818 6.14294 2.38818C5.49576 2.38818 4.97107 2.91287 4.97107 3.56006V4.76654C8.20607 5.016 11.3116 5.58568 14.2406 6.47271C16.2052 7.06771 17.654 7.68139 18.5123 8.08482Z" fill="#FF522F"/>
<path d="M0 8.13586V32.9755C0 33.6227 0.524687 34.1473 1.17188 34.1473C7.92313 34.1473 12.8695 35.6841 15.3389 36.6649V9.30743C12.4797 8.26532 7.61875 6.96399 1.17188 6.96399C0.524687 6.96399 0 7.4886 0 8.13586Z" fill="#FF522F"/>
<path d="M34.8258 15.1133C33.201 15.3218 31.6314 15.6391 30.1383 16.0607V17.9402C31.6418 17.5484 33.2103 17.2537 34.8258 17.0595V15.1133Z" fill="#FF522F"/>
<path d="M38.8281 6.96399C32.6765 6.96399 27.6267 8.33243 24.661 9.38039V36.725C27.269 35.7387 32.4634 34.1473 38.8281 34.1473C39.4753 34.1473 40 33.6227 40 32.9755V8.13586C40 7.4886 39.4753 6.96399 38.8281 6.96399ZM27.7946 15.1874C27.7946 14.6755 28.1268 14.223 28.6151 14.0695C30.8895 13.3545 33.3373 12.8731 35.8906 12.6388C36.2186 12.6089 36.5442 12.718 36.7876 12.94C37.0309 13.1621 37.1696 13.4763 37.1696 13.8057V18.1136C37.1696 18.7193 36.708 19.2252 36.1048 19.2806C33.7173 19.4998 31.4339 19.9482 29.3179 20.6133C29.2027 20.6495 29.0843 20.6672 28.9666 20.6672C28.7202 20.6672 28.4766 20.5895 28.2731 20.4401C27.9723 20.2193 27.7946 19.8685 27.7946 19.4953V15.1874ZM36.1048 28.9902C33.7169 29.2094 31.4334 29.6577 29.3179 30.3228C29.201 30.3596 29.0825 30.377 28.9662 30.377C28.4679 30.377 28.0059 30.0567 27.8485 29.5562C27.6544 28.9389 27.9976 28.281 28.6151 28.0869C30.8892 27.372 33.337 26.8905 35.8906 26.6561C36.5348 26.5966 37.1055 27.0714 37.1648 27.7159C37.2238 28.3605 36.7494 28.9309 36.1048 28.9902ZM36.1048 24.3698C33.7173 24.589 31.4339 25.0373 29.3179 25.7024C29.2009 25.7392 29.0825 25.7566 28.9662 25.7566C28.4679 25.7566 28.0059 25.4363 27.8485 24.9359C27.6544 24.3184 27.9977 23.6605 28.6151 23.4665C30.8897 22.7516 33.3375 22.2702 35.8906 22.0357C36.5348 21.9757 37.1055 22.4511 37.1648 23.0955C37.2238 23.7401 36.7494 24.3105 36.1048 24.3698Z" fill="#FF522F"/>
<path d="M17.6826 10.4285H22.3172V37.6118H17.6826V10.4285Z" fill="#FF522F"/>
</svg>
