<svg width="40" height="40" viewBox="0 0 40 40" fill="none" xmlns="http://www.w3.org/2000/svg">
<g clip-path="url(#clip0_1229_1252)">
<path d="M39.218 10.0277L20.3899 3.38467C20.1376 3.29561 19.8624 3.29561 19.6101 3.38467L0.782032 10.0277C0.313907 10.1929 0.000625936 10.6351 9.36486e-07 11.1315C-0.000624063 11.6279 0.311641 12.0708 0.779376 12.237L19.6075 18.9305C19.7344 18.9757 19.8673 18.9983 20 18.9983C20.1328 18.9983 20.2655 18.9757 20.3925 18.9305L39.2206 12.237C39.6883 12.0708 40.0005 11.6279 40 11.1315C39.9994 10.6351 39.6861 10.1929 39.218 10.0277Z" fill="#FF522F"/>
<path d="M37.1854 25.6699V15.448L34.8417 16.2812V25.6699C34.1357 26.0762 33.66 26.8375 33.66 27.7106C33.66 28.5835 34.1357 29.3449 34.8417 29.7513V35.5103C34.8417 36.1575 35.3664 36.6822 36.0135 36.6822C36.6607 36.6822 37.1854 36.1575 37.1854 35.5103V29.7513C37.8914 29.3451 38.3671 28.5836 38.3671 27.7106C38.3671 26.8376 37.8914 26.0762 37.1854 25.6699Z" fill="#FF522F"/>
<path d="M20 21.342C19.5977 21.342 19.2015 21.2736 18.8224 21.1389L8.23779 17.376V22.5329C8.23779 23.7945 9.55396 24.8614 12.1497 25.7039C14.4123 26.4383 17.2003 26.8428 20 26.8428C22.7997 26.8428 25.5876 26.4383 27.8502 25.7039C30.446 24.8614 31.7622 23.7945 31.7622 22.5329V17.376L21.1776 21.1389C20.7984 21.2736 20.4022 21.342 20 21.342Z" fill="#FF522F"/>
</g>
<defs>
<clipPath id="clip0_1229_1252">
<rect width="40" height="40" fill="white"/>
</clipPath>
</defs>
</svg>
