<svg width="40" height="40" viewBox="0 0 40 40" fill="none" xmlns="http://www.w3.org/2000/svg">
<g clip-path="url(#clip0_1229_1245)">
<path d="M3.97129 34.8572V34.3715L0.343242 37.9996C-0.114414 38.4572 -0.114414 39.1992 0.343242 39.6568C0.571992 39.8856 0.871913 40.0001 1.17184 40.0001C1.47176 40.0001 1.77168 39.8856 2.00043 39.6568L5.62824 36.029H5.14316C4.49597 36.029 3.97129 35.5043 3.97129 34.8572Z" fill="#FF522F"/>
<path d="M39.6952 0.383442C39.4273 0.0889107 39.0279 -0.0494487 38.6354 0.015942C38.5154 0.035942 35.6516 0.524223 31.6681 2.12071C27.9978 3.59172 22.6402 6.32758 17.96 11.0078L17.4236 11.5442V16.1327C17.4236 16.7799 16.8989 17.3045 16.2517 17.3045C15.6046 17.3045 15.0799 16.7799 15.0799 16.1327V13.888L11.9426 17.0252C10.3587 18.6091 9.17768 20.5793 8.52722 22.7229L6.31518 30.0128V28.6852C6.31518 28.038 5.7905 27.5133 5.14331 27.5133C4.49612 27.5133 3.97144 28.038 3.97144 28.6852V34.3713L22.9037 15.4391C23.3613 14.9815 24.1033 14.9815 24.561 15.4391C25.0186 15.8966 25.0186 16.6387 24.561 17.0963L5.62831 36.029H11.3151C11.9623 36.029 12.487 35.5043 12.487 34.8571C12.487 34.2099 11.9623 33.6852 11.3151 33.6852H9.98612L17.2771 31.4729C19.4205 30.8225 21.3907 29.6416 22.9747 28.0575L23.2438 27.7884H20.2784C19.6312 27.7884 19.1065 27.2638 19.1065 26.6166C19.1065 25.9694 19.6312 25.4447 20.2784 25.4447H25.5875L28.9921 22.0401C31.1763 19.8559 33.228 16.9919 35.0902 13.5274C35.2854 13.1643 35.2754 12.7252 35.0638 12.3713C34.8523 12.0174 34.4702 11.8007 34.058 11.8007H32.4806L37.0892 8.88422C37.2927 8.75555 37.4515 8.56719 37.5442 8.34501C39.1499 4.49399 39.9281 1.59485 39.9605 1.47329C40.063 1.08852 39.963 0.678051 39.6952 0.383442Z" fill="#FF522F"/>
</g>
<defs>
<clipPath id="clip0_1229_1245">
<rect width="40" height="40" fill="white"/>
</clipPath>
</defs>
</svg>
