<svg width="24" height="24" viewBox="0 0 24 24" fill="none" xmlns="http://www.w3.org/2000/svg">
<g clip-path="url(#clip0_1185_1481)">
<path d="M17.8888 5.06521C18.8086 5.06521 19.5536 4.32513 19.5536 3.40373V1.66478C19.5536 0.742557 18.8094 0 17.8888 0C16.9682 0 16.2249 0.741733 16.2249 1.66478V3.40455C16.2257 4.32513 16.9691 5.06521 17.8888 5.06521Z" fill="white"/>
<path d="M23.803 2.87968H20.452V3.72608C20.452 5.12301 19.3172 6.26116 17.9178 6.26116C16.5167 6.26116 15.3843 5.12301 15.3843 3.72608V2.87968H8.6222V3.72608C8.6222 5.12301 7.4857 6.26116 6.08712 6.26116C4.68854 6.26116 3.55286 5.12383 3.55286 3.72608V2.87968L0.171387 2.83765V24.0001H1.86254H22.1399L23.8285 23.9952L23.803 2.87968ZM22.1382 22.3147H1.86254V8.79541H22.1399V22.3147H22.1382Z" fill="white"/>
<path d="M6.06084 5.06521C6.98058 5.06521 7.72644 4.32513 7.72644 3.40373V1.66478C7.72644 0.741733 6.98058 0 6.06084 0C5.14109 0 4.39771 0.741733 4.39771 1.66478V3.40455C4.39771 4.32513 5.14026 5.06521 6.06084 5.06521Z" fill="white"/>
<path d="M11.29 10.6091H8.6272V12.9596H11.29V10.6091Z" fill="white"/>
<path d="M15.5977 10.6091H12.9324V12.9596H15.5977V10.6091Z" fill="white"/>
<path d="M19.5884 10.6091H16.9255V12.9596H19.5884V10.6091Z" fill="white"/>
<path d="M11.29 14.5125H8.6272V16.8613H11.29V14.5125Z" fill="white"/>
<path d="M15.5977 14.5125H12.9324V16.8613H15.5977V14.5125Z" fill="white"/>
<path d="M19.5884 14.5125H16.9255V16.8613H19.5884V14.5125Z" fill="white"/>
<path d="M11.29 18.4929H8.6272V20.8417H11.29V18.4929Z" fill="white"/>
<path d="M7.05888 14.5125H4.39771V16.8613H7.05888V14.5125Z" fill="white"/>
<path d="M7.05888 18.4929H4.39771V20.8417H7.05888V18.4929Z" fill="white"/>
<path d="M15.5977 18.4929H12.9324V20.8417H15.5977V18.4929Z" fill="white"/>
<path d="M19.5884 18.4929H16.9255V20.8417H19.5884V18.4929Z" fill="white"/>
</g>
<defs>
<clipPath id="clip0_1185_1481">
<rect width="24" height="24" fill="white"/>
</clipPath>
</defs>
</svg>
