<svg width="24" height="24" viewBox="0 0 24 24" fill="none" xmlns="http://www.w3.org/2000/svg">
<path d="M12 22.5469C17.8249 22.5469 22.5469 17.8249 22.5469 12C22.5469 6.17512 17.8249 1.45312 12 1.45312C6.17512 1.45312 1.45312 6.17512 1.45312 12C1.45312 17.8249 6.17512 22.5469 12 22.5469Z" fill="#3B5999"/>
<path d="M15.0282 8.06719V6.15937C15.0282 6.15937 13.0782 6.14062 12.9469 6.14062C12.0657 6.14062 10.8 7.14375 10.8 8.28281V10.3266H8.97192V12.4922H10.7719V17.8594H12.9047V12.4641H14.7891L15.0282 10.35H12.9282C12.9282 10.35 12.9282 9.05156 12.9282 8.79844C12.9282 8.42344 13.2094 8.0625 13.6313 8.0625C13.9125 8.05313 15.0282 8.06719 15.0282 8.06719Z" fill="white"/>
</svg>
