<?xml version="1.0" encoding="UTF-8" standalone="no"?>
<svg
   height="50"
   width="110"
   version="1.1"
   id="svg17"
   sodipodi:docname="google.svg"
   inkscape:version="1.2.2 (732a01da63, 2022-12-09)"
   xmlns:inkscape="http://www.inkscape.org/namespaces/inkscape"
   xmlns:sodipodi="http://sodipodi.sourceforge.net/DTD/sodipodi-0.dtd"
   xmlns:xlink="http://www.w3.org/1999/xlink"
   xmlns="http://www.w3.org/2000/svg"
   xmlns:svg="http://www.w3.org/2000/svg">
  <sodipodi:namedview
     id="namedview19"
     pagecolor="#505050"
     bordercolor="#ffffff"
     borderopacity="1"
     inkscape:pageshadow="0"
     inkscape:pageopacity="0"
     inkscape:pagecheckerboard="1"
     showgrid="false"
     inkscape:snap-global="true"
     inkscape:zoom="6.3993164"
     inkscape:cx="94.385082"
     inkscape:cy="20.627203"
     inkscape:window-width="1920"
     inkscape:window-height="1027"
     inkscape:window-x="-8"
     inkscape:window-y="-8"
     inkscape:window-maximized="1"
     inkscape:current-layer="svg17"
     inkscape:showpageshadow="2"
     inkscape:deskcolor="#505050" />
  <path
     d="M 26.452691,23.205422 H 13.899619 v 3.722443 h 8.903457 c -0.441163,5.210418 -4.785608,7.44689 -8.888417,7.44689 A 9.7857811,9.7795542 0 0 1 4.0867668,24.463939 c 0,-5.635268 4.3655011,-9.973943 9.8399232,-9.973943 4.223127,0 6.711683,2.690379 6.711683,2.690379 l 2.606868,-2.699397 c 0,0 -3.348823,-3.724447 -9.45491,-3.724447 C 6.0148464,10.756531 0,17.314644 0,24.397806 c 0,6.940879 5.657906,13.709412 13.986849,13.709412 7.326301,0 12.689431,-5.016029 12.689431,-12.432859 0,-1.56513 -0.2276,-2.468937 -0.2276,-2.468937 z"
     fill="#4885ed"
     id="path2"
     style="stroke-width:1.00232" />
  <use
     xlink:href="#A"
     fill="#db3236"
     id="use4"
     transform="matrix(1.0026415,0,0,1.0020035,-6.0098332,-3.2935624)" />
  <use
     xlink:href="#A"
     x="19.181"
     fill="#f4c20d"
     id="use6"
     transform="matrix(1.0026415,0,0,1.0020035,-6.0098332,-3.2935624)" />
  <path
     d="m 74.831146,20.519051 c -4.728457,0 -8.444247,4.138274 -8.444247,8.783563 0,5.290578 4.308351,8.799594 8.36203,8.799594 2.506604,0 3.840117,-0.994989 4.81268,-2.136271 v 1.733466 c 0,3.033065 -1.842855,4.849697 -4.624183,4.849697 -2.687079,0 -4.034629,-1.996993 -4.511887,-3.129257 l -3.380907,1.402805 C 68.243791,43.357717 70.658152,46 74.9655,46 c 4.712415,0 8.283824,-2.958916 8.283824,-9.165326 V 21.047107 h -3.673678 v 1.488977 C 78.442661,21.31364 76.890572,20.519051 74.833151,20.519051 Z m 0.340898,3.446892 c 2.318107,0 4.698378,1.977955 4.698378,5.355709 0,3.433866 -2.37626,5.325648 -4.749513,5.325648 -2.52064,0 -4.865819,-2.044087 -4.865819,-5.293584 0,-3.374748 2.436419,-5.388775 4.916954,-5.388775 z"
     fill="#4885ed"
     id="path8"
     style="stroke-width:1.00232" />
  <path
     d="m 99.668581,20.498009 c -4.459749,0 -8.204615,3.547092 -8.204615,8.77755 0,5.537072 4.173997,8.820637 8.622714,8.820637 3.72181,0 6.01585,-2.034067 7.36942,-3.857713 l -3.04101,-2.022043 c -0.78908,1.222444 -2.10856,2.419838 -4.30936,2.419838 -2.472511,0 -3.609506,-1.352704 -4.314363,-2.665329 l 11.794073,-4.889777 -0.60159,-1.432865 c -1.139,-2.80561 -3.797,-5.150298 -7.314266,-5.150298 z m 0.153405,3.38076 c 1.607234,0 2.763284,0.853707 3.254574,1.877754 l -7.876752,3.289578 c -0.340898,-2.547093 2.075468,-5.167332 4.612151,-5.167332 z"
     fill="#db3236"
     id="path10"
     style="stroke-width:1.00232" />
  <path
     d="m 85.832129,37.575155 h 3.874206 V 11.66635 h -3.874206 z"
     fill="#3cba54"
     id="path12"
     style="stroke-width:1.00232" />
  <defs
     id="defs15">
    <path
       id="A"
       d="m 42.634,23.755 c -5.138,0 -8.82,4.017 -8.82,8.7 0,4.754 3.57,8.845 8.88,8.845 4.806,0 8.743,-3.673 8.743,-8.743 0,-5.8 -4.58,-8.803 -8.803,-8.803 z m 0.05,3.446 c 2.526,0 4.92,2.043 4.92,5.334 0,3.22 -2.384,5.322 -4.932,5.322 -2.8,0 -5,-2.242 -5,-5.348 0,-3.04 2.18,-5.308 5.02,-5.308 z" />
  </defs>
  <g
     aria-label="user reviews on "
     id="text4556"
     style="font-size:10.6667px;line-height:1.25"
     transform="matrix(1.0026415,0,0,1.0020035,-6.0098332,-3.2935624)">
    <path
       d="M 39.501299,5.5696507 V 11.393669 H 38.285295 L 38.071961,10.647 h -0.08533 q -0.277334,0.448002 -0.768002,0.650669 -0.480002,0.202667 -1.024003,0.202667 -0.93867,0 -1.504005,-0.501335 Q 34.125282,10.487 34.125282,9.3669961 V 5.5696507 h 1.589338 v 3.4026774 q 0,0.6293354 0.224001,0.9493364 0.224001,0.3093345 0.714669,0.3093345 0.725335,0 0.992003,-0.4906684 0.266667,-0.5013349 0.266667,-1.4293379 v -2.741342 z"
       style="font-weight:bold;-inkscape-font-specification:'sans-serif Bold'"
       id="path18025" />
    <path
       d="m 45.229312,9.6656637 q 0,0.8853363 -0.629335,1.3653373 -0.618669,0.469335 -1.856006,0.469335 -0.608002,0 -1.045337,-0.08533 -0.437334,-0.07467 -0.874669,-0.256001 V 9.8469976 q 0.469335,0.2133344 1.013337,0.3520014 0.544001,0.138667 0.960003,0.138667 0.458668,0 0.661335,-0.138667 0.202667,-0.138667 0.202667,-0.3626681 0,-0.1493338 -0.08533,-0.2666675 Q 43.501307,9.4523297 43.234639,9.3029959 42.967972,9.1536621 42.402637,8.9189946 41.847968,8.6843272 41.495967,8.4603265 41.154633,8.2256591 40.983965,7.9056581 40.813298,7.5749904 40.813298,7.0843222 q 0,-0.8106692 0.629336,-1.2160039 0.629335,-0.4053346 1.674672,-0.4053346 0.544001,0 1.03467,0.106667 0.490668,0.106667 1.013336,0.3520011 l -0.480001,1.141337 Q 44.258643,6.8816549 43.874641,6.7643212 43.49064,6.6363208 43.095972,6.6363208 q -0.704002,0 -0.704002,0.3840012 0,0.1386671 0.08533,0.2560008 0.096,0.106667 0.352001,0.2346674 0.266667,0.1280004 0.778669,0.3413344 0.501335,0.2026673 0.864003,0.426668 0.362667,0.213334 0.554668,0.5440017 0.202667,0.3306678 0.202667,0.8426694 z"
       style="font-weight:bold;-inkscape-font-specification:'sans-serif Bold'"
       id="path18027" />
    <path
       d="m 48.866654,5.4629837 q 1.205337,0 1.909339,0.6933356 0.704002,0.6826688 0.704002,1.9520061 v 0.7680024 h -3.754678 q 0.02133,0.6720022 0.394668,1.0560034 0.384001,0.3840008 1.056003,0.3840008 0.554668,0 1.013337,-0.106667 0.469334,-0.117333 0.960003,-0.3520007 v 1.2266707 q -0.437335,0.213334 -0.90667,0.309334 -0.469335,0.106667 -1.141337,0.106667 -0.874669,0 -1.546671,-0.320001 -0.672003,-0.330668 -1.056004,-0.981336 -0.384001,-0.6613357 -0.384001,-1.6746723 0,-1.0133365 0.341334,-1.6960053 0.352002,-0.6826689 0.97067,-1.0240033 0.618669,-0.3413344 1.440005,-0.3413344 z m 0.01067,1.1306703 q -0.469334,0 -0.768002,0.2986676 -0.298668,0.2986676 -0.352001,0.9280029 h 2.22934 Q 49.975991,7.2976562 49.698656,6.9456551 49.431989,6.593654 48.87732,6.593654 Z"
       style="font-weight:bold;-inkscape-font-specification:'sans-serif Bold'"
       id="path18029" />
    <path
       d="m 56.024006,5.4629837 q 0.117334,0 0.277334,0.010667 0.160001,0.010667 0.256001,0.032 l -0.117334,1.4933381 q -0.08533,-0.021333 -0.224,-0.032 -0.138668,-0.021333 -0.245335,-0.021333 -0.405334,0 -0.778669,0.1493338 -0.373334,0.1386671 -0.608002,0.4586681 -0.224,0.320001 -0.224,0.8746694 V 11.393669 H 52.770662 V 5.5696507 h 1.205337 l 0.234668,0.9813365 h 0.07467 q 0.256001,-0.4480015 0.704002,-0.7680025 0.448001,-0.320001 1.03467,-0.320001 z"
       style="font-weight:bold;-inkscape-font-specification:'sans-serif Bold'"
       id="path18031" />
    <path
       d="m 63.640038,5.4629837 q 0.117333,0 0.277334,0.010667 0.16,0.010667 0.256001,0.032 l -0.117334,1.4933381 q -0.08533,-0.021333 -0.224001,-0.032 -0.138667,-0.021333 -0.245334,-0.021333 -0.405335,0 -0.778669,0.1493338 Q 62.4347,7.233656 62.200033,7.553657 61.976032,7.873658 61.976032,8.4283264 V 11.393669 H 60.386694 V 5.5696507 h 1.205337 l 0.234667,0.9813365 h 0.07467 q 0.256001,-0.4480015 0.704003,-0.7680025 0.448001,-0.320001 1.03467,-0.320001 z"
       style="font-weight:bold;-inkscape-font-specification:'sans-serif Bold'"
       id="path18033" />
    <path
       d="m 67.41605,5.4629837 q 1.205337,0 1.90934,0.6933356 0.704002,0.6826688 0.704002,1.9520061 v 0.7680024 h -3.754679 q 0.02133,0.6720022 0.394668,1.0560034 0.384001,0.3840008 1.056004,0.3840008 0.554668,0 1.013336,-0.106667 0.469335,-0.117333 0.960003,-0.3520007 v 1.2266707 q -0.437335,0.213334 -0.906669,0.309334 -0.469335,0.106667 -1.141337,0.106667 -0.87467,0 -1.546672,-0.320001 -0.672002,-0.330668 -1.056003,-0.981336 -0.384001,-0.6613357 -0.384001,-1.6746723 0,-1.0133365 0.341334,-1.6960053 0.352001,-0.6826689 0.97067,-1.0240033 0.618668,-0.3413344 1.440004,-0.3413344 z m 0.01067,1.1306703 q -0.469335,0 -0.768002,0.2986676 -0.298668,0.2986676 -0.352002,0.9280029 h 2.229341 Q 68.525387,7.2976562 68.248053,6.9456551 67.981385,6.593654 67.426717,6.593654 Z"
       style="font-weight:bold;-inkscape-font-specification:'sans-serif Bold'"
       id="path18035" />
    <path
       d="M 72.493389,11.393669 70.274715,5.5696507 h 1.664006 l 1.120003,3.3173438 q 0.096,0.2986677 0.149334,0.6186687 0.05333,0.320001 0.07467,0.5760018 h 0.04267 q 0.032,-0.5760018 0.234667,-1.1946705 l 1.120004,-3.3173438 h 1.664005 L 74.1254,11.393669 Z"
       style="font-weight:bold;-inkscape-font-specification:'sans-serif Bold'"
       id="path18037" />
    <path
       d="m 77.976076,3.2869769 q 0.352001,0 0.608002,0.1706672 0.256,0.1600005 0.256,0.6080019 0,0.4373347 -0.256,0.6080019 -0.256001,0.1706672 -0.608002,0.1706672 -0.362668,0 -0.618669,-0.1706672 -0.245334,-0.1706672 -0.245334,-0.6080019 0,-0.4480014 0.245334,-0.6080019 0.256001,-0.1706672 0.618669,-0.1706672 z m 0.789335,2.2826738 V 11.393669 H 77.176073 V 5.5696507 Z"
       style="font-weight:bold;-inkscape-font-specification:'sans-serif Bold'"
       id="path18039" />
    <path
       d="m 82.82943,5.4629837 q 1.205337,0 1.909339,0.6933356 0.704003,0.6826688 0.704003,1.9520061 v 0.7680024 h -3.754679 q 0.02133,0.6720022 0.394668,1.0560034 0.384001,0.3840008 1.056003,0.3840008 0.554669,0 1.013337,-0.106667 0.469335,-0.117333 0.960003,-0.3520007 v 1.2266707 q -0.437335,0.213334 -0.90667,0.309334 -0.469335,0.106667 -1.141337,0.106667 -0.874669,0 -1.546671,-0.320001 -0.672002,-0.330668 -1.056004,-0.981336 -0.384001,-0.6613357 -0.384001,-1.6746723 0,-1.0133365 0.341335,-1.6960053 0.352001,-0.6826689 0.970669,-1.0240033 0.618669,-0.3413344 1.440005,-0.3413344 z M 82.8401,6.593654 q -0.469335,0 -0.768003,0.2986676 -0.298667,0.2986676 -0.352001,0.9280029 h 2.22934 Q 83.938767,7.2976562 83.661433,6.9456551 83.394765,6.593654 82.840097,6.593654 Z"
       style="font-weight:bold;-inkscape-font-specification:'sans-serif Bold'"
       id="path18041" />
    <path
       d="M 91.309446,11.393669 90.861445,9.3563294 Q 90.818778,9.1749955 90.733444,8.8229943 90.658777,8.4603265 90.562777,8.0549919 90.466777,7.6389906 90.381443,7.2976562 90.29611,6.9456551 90.26411,6.7856546 h -0.04267 q -0.032,0.1600005 -0.117334,0.5120016 -0.07467,0.3413344 -0.170667,0.7573357 -0.096,0.4053346 -0.181334,0.7680024 -0.08533,0.3626679 -0.128,0.5546685 L 89.154773,11.393669 H 87.448101 L 85.794762,5.5696507 h 1.578672 l 0.672002,2.5813415 q 0.07467,0.2773342 0.128,0.6506687 0.064,0.3626679 0.106667,0.714669 0.05333,0.3413344 0.08533,0.5440021 h 0.04267 q 0.01067,-0.1493342 0.04267,-0.3946683 0.032,-0.2560008 0.07467,-0.5226683 0.05333,-0.2666676 0.08533,-0.4800016 0.04267,-0.213334 0.064,-0.2986676 L 89.38944,5.5696507 h 1.749339 l 0.682669,2.7946755 q 0.032,0.1493338 0.096,0.4800015 0.064,0.3306678 0.106667,0.6720022 0.04267,0.3413344 0.05333,0.5440021 h 0.04267 q 0.02133,-0.1813343 0.07467,-0.5226687 0.05333,-0.3520011 0.117334,-0.7253357 0.07467,-0.3840012 0.149334,-0.6613354 l 0.693335,-2.5813415 h 1.557339 l -1.674672,5.8240183 z"
       style="font-weight:bold;-inkscape-font-specification:'sans-serif Bold'"
       id="path18043" />
    <path
       d="m 99.714817,9.6656637 q 0,0.8853363 -0.629335,1.3653373 -0.618669,0.469335 -1.856006,0.469335 -0.608002,0 -1.045336,-0.08533 -0.437335,-0.07467 -0.87467,-0.256001 V 9.8469976 q 0.469335,0.2133344 1.013337,0.3520014 0.544001,0.138667 0.960003,0.138667 0.458668,0 0.661335,-0.138667 0.202667,-0.138667 0.202667,-0.3626681 0,-0.1493338 -0.08533,-0.2666675 Q 97.986812,9.4523297 97.720144,9.3029959 97.453477,9.1536621 96.888142,8.9189946 96.333473,8.6843272 95.981472,8.4603265 95.640138,8.2256591 95.469471,7.9056581 95.298803,7.5749904 95.298803,7.0843222 q 0,-0.8106692 0.629336,-1.2160039 0.629335,-0.4053346 1.674672,-0.4053346 0.544001,0 1.03467,0.106667 0.490668,0.106667 1.013336,0.3520011 l -0.480001,1.141337 Q 98.744148,6.8816549 98.360146,6.7643212 97.976145,6.6363208 97.581477,6.6363208 q -0.704002,0 -0.704002,0.3840012 0,0.1386671 0.08533,0.2560008 0.096,0.106667 0.352001,0.2346674 0.266667,0.1280004 0.778669,0.3413344 0.501335,0.2026673 0.864003,0.426668 0.362667,0.213334 0.554668,0.5440017 0.202667,0.3306678 0.202667,0.8426694 z"
       style="font-weight:bold;-inkscape-font-specification:'sans-serif Bold'"
       id="path18045" />
    <path
       d="m 109.01618,8.4709932 q 0,1.4506713 -0.768,2.2400068 -0.75734,0.789336 -2.06934,0.789336 -0.81067,0 -1.45067,-0.352001 -0.62934,-0.352001 -0.99201,-1.024003 -0.36266,-0.682669 -0.36266,-1.6533388 0,-1.4506712 0.75733,-2.2293403 0.75734,-0.7786692 2.08001,-0.7786692 0.82133,0 1.45067,0.3520011 0.62933,0.3520012 0.992,1.0240033 0.36267,0.6720021 0.36267,1.6320051 z m -4.02135,0 q 0,0.8640028 0.27734,1.3120042 0.288,0.4373346 0.928,0.4373346 0.62934,0 0.90667,-0.4373346 0.288,-0.4480014 0.288,-1.3120042 0,-0.8640027 -0.288,-1.2906707 -0.27733,-0.4373347 -0.91734,-0.4373347 -0.62933,0 -0.91733,0.4373347 -0.27734,0.426668 -0.27734,1.2906707 z"
       style="font-weight:bold;-inkscape-font-specification:'sans-serif Bold'"
       id="path18047" />
    <path
       d="m 113.63486,5.4629837 q 0.93867,0 1.504,0.5120016 0.56534,0.501335 0.56534,1.6213385 v 3.7973452 h -1.58934 V 7.9909917 q 0,-0.6293353 -0.224,-0.9386696 -0.224,-0.320001 -0.71467,-0.320001 -0.72534,0 -0.992,0.5013349 -0.26667,0.4906682 -0.26667,1.4186711 v 2.7413419 h -1.58934 V 5.5696507 h 1.216 l 0.21334,0.7466691 h 0.0853 q 0.27734,-0.4480015 0.75734,-0.6506688 0.49067,-0.2026673 1.03467,-0.2026673 z"
       style="font-weight:bold;-inkscape-font-specification:'sans-serif Bold'"
       id="path18049" />
  </g>
</svg>
