<svg width="32" height="32" viewBox="0 0 32 32" fill="none" xmlns="http://www.w3.org/2000/svg">
<g clip-path="url(#clip0_1221_5337)">
<path d="M22.1884 13.4731H19.3628L19.5346 11.5588C19.5658 11.2105 19.4531 10.8766 19.2173 10.6186C18.9813 10.3606 18.6588 10.2185 18.3092 10.2185H18.0887C17.8968 11.4236 17.3349 12.5387 16.4595 13.4266C15.781 14.1147 14.9662 14.6126 14.0778 14.8949V19.6208L15.2794 20.3761L21.5407 20.3753C21.9437 20.3752 22.2845 20.0734 22.3334 19.6733L22.9814 14.3688C23.0096 14.1386 22.9404 13.9161 22.7866 13.7424C22.6327 13.5688 22.4203 13.4731 22.1884 13.4731Z" fill="#FFF7EF"/>
<path d="M9.74878 15.1648H12.2027V19.2013H9.74878V15.1648Z" fill="#FFF7EF"/>
<path d="M16 4.32056C9.55987 4.32056 4.32043 9.55999 4.32043 16.0001C4.32043 22.4402 9.55987 27.6797 16 27.6797C22.4401 27.6797 27.6796 22.4402 27.6796 16.0001C27.6796 9.55999 22.4401 4.32056 16 4.32056ZM24.1944 19.9007C24.0308 21.2399 22.8901 22.25 21.5409 22.2502L14.7391 22.2512L12.87 21.0763H7.87375V13.2898H12.3296C13.3817 13.2898 14.3742 12.8709 15.1244 12.1101C15.8749 11.3489 16.2879 10.3444 16.2874 9.28143L16.287 8.34349H18.3092C19.1789 8.34349 20.0142 8.71162 20.6011 9.35343C21.1589 9.96362 21.4503 10.7753 21.4109 11.5981H22.1884C22.9535 11.5981 23.6833 11.9267 24.1904 12.4996C24.6976 13.0725 24.9353 13.8367 24.8425 14.5962L24.1944 19.9007Z" fill="#FFF7EF"/>
<path d="M27.3137 4.68625C24.2917 1.66431 20.2738 0 16 0C11.7262 0 7.70831 1.66431 4.68631 4.68625C1.66431 7.70831 0 11.7262 0 16C0 20.2738 1.66431 24.2917 4.68625 27.3137C7.70831 30.3357 11.7262 32 16 32C20.2738 32 24.2917 30.3357 27.3137 27.3137C30.3357 24.2917 32 20.2738 32 16C32 11.7262 30.3357 7.70831 27.3137 4.68625ZM25.5846 25.5845C23.0244 28.1446 19.6206 29.5546 16 29.5546C12.3794 29.5546 8.97563 28.1446 6.4155 25.5845C3.85538 23.0244 2.44544 19.6206 2.44544 16C2.44544 12.3794 3.85538 8.97563 6.4155 6.4155C8.97563 3.85538 12.3794 2.44544 16 2.44544C19.6206 2.44544 23.0244 3.85538 25.5846 6.4155C28.1447 8.97563 29.5546 12.3794 29.5546 16C29.5546 19.6206 28.1446 23.0244 25.5846 25.5845Z" fill="#FFF7EF"/>
</g>
<defs>
<clipPath id="clip0_1221_5337">
<rect width="32" height="32" fill="white"/>
</clipPath>
</defs>
</svg>
