<svg width="32" height="32" viewBox="0 0 32 32" fill="none" xmlns="http://www.w3.org/2000/svg">
<g clip-path="url(#clip0_1221_5326)">
<path d="M15.9791 19.8333C17.002 20.856 22.4714 15.8833 24.5881 13.8578L21.9539 11.2236C19.9238 13.3389 14.9448 18.793 15.9791 19.8333Z" fill="#FFF7EF"/>
<path d="M28.6215 5.31577C27.054 6.43477 25.1796 8.05364 23.2819 9.90039L25.9119 12.5305C27.7587 10.6327 29.3775 8.75827 30.4965 7.19077C31.749 5.43752 32.2434 4.27758 31.8872 3.92139C31.3513 3.38546 29.2391 4.87421 28.6215 5.31577Z" fill="#FFF7EF"/>
<path d="M5.6875 5.6875V0.549316L0.549316 5.6875H5.6875Z" fill="#FFF7EF"/>
<path d="M15.4776 21.6604L13.7159 23.422L12.3903 22.0963L14.0921 20.3945C13.5435 19.1615 14.0141 16.4955 21.2828 9.22684C22.366 8.14322 23.4542 7.12603 24.5 6.21416V0H7.56247V7.56247H0V31.9999H24.4999V16.5351C22.2816 18.5848 18.0315 22.5412 15.4776 21.6604ZM3.81248 9.43746H13.2499V11.3125H3.81248V9.43746ZM3.81248 13.1874H9.43746V15.0624H3.81248V13.1874ZM3.81248 16.9374H9.43746V18.8124H3.81248V16.9374ZM11.4573 27.6344C11.1973 27.0603 10.779 26.523 10.5336 26.36C10.4759 26.468 10.4091 26.6209 10.3642 26.7261C9.96596 27.6497 9.37865 28.3438 8.34984 28.1754C7.21828 27.9914 7.04891 26.7646 6.91247 25.7785C6.85385 25.3565 6.74585 24.5728 6.58016 24.4098C6.33479 24.4373 5.78729 25.752 5.68566 27.3102L3.81436 27.1903C3.8638 26.4176 4.22911 22.5623 6.62504 22.5623C8.36084 22.5623 8.61715 24.4144 8.77009 25.5213C8.7719 25.535 8.77378 25.5478 8.77559 25.5616C9.04565 25.0397 9.56502 24.4373 10.4375 24.4373C12.0013 24.4373 12.9863 26.4606 13.1685 26.8671L11.4573 27.6344Z" fill="#FFF7EF"/>
</g>
<defs>
<clipPath id="clip0_1221_5326">
<rect width="32" height="32" fill="white"/>
</clipPath>
</defs>
</svg>
