<svg width="32" height="32" viewBox="0 0 32 32" fill="none" xmlns="http://www.w3.org/2000/svg">
<path d="M30.1291 9.00073V24.8802H3.74719V26.7465H31.9999V9.00073H30.1291Z" fill="#FFF7EF"/>
<path d="M28.2528 5.25354H0V22.9994L28.2557 23.0067L28.2528 5.25354ZM26.3792 16.8281C25.3155 17.0162 24.3356 17.5225 23.5557 18.3024C22.7758 19.0822 22.2696 20.062 22.0815 21.1259H6.27306C6.085 20.062 5.57869 19.0822 4.79887 18.3024C3.99131 17.4949 2.97519 16.9834 1.8735 16.811V11.4432C2.97587 11.2712 3.99119 10.7582 4.79887 9.95054C5.57875 9.17067 6.085 8.19092 6.27306 7.12698H22.0815C22.2696 8.19085 22.7759 9.17067 23.5557 9.9506C24.3356 10.7304 25.3154 11.2367 26.3792 11.4247V16.8281Z" fill="#FFF7EF"/>
<path d="M19.3353 13.0556C19.0493 11.6643 18.2385 10.4676 17.0524 9.68598C15.8663 8.90436 14.4467 8.63148 13.0556 8.91754C11.6643 9.20354 10.4676 10.0144 9.68595 11.2005C8.90438 12.3865 8.63151 13.806 8.91751 15.1974C9.20351 16.5887 10.0143 17.7854 11.2004 18.567C12.0996 19.1594 13.1143 19.4427 14.1183 19.4427C15.8481 19.4427 17.5461 18.6018 18.5669 17.0526V17.0525C19.3485 15.8664 19.6214 14.4469 19.3353 13.0556Z" fill="#FFF7EF"/>
</svg>
