<svg width="24" height="24" viewBox="0 0 24 24" fill="none" xmlns="http://www.w3.org/2000/svg">
<g clip-path="url(#clip0_1201_433)">
<path d="M6.11719 12.4559H7.05984C7.4745 12.4559 7.81181 12.7933 7.81181 13.2079V14.994C7.81181 15.4086 7.4745 15.746 7.05984 15.746H6.36033C6.22627 15.746 6.11714 15.6369 6.11714 15.5028V12.4559H6.11719ZM16.1881 13.2079V14.994C16.1881 15.4086 16.5255 15.746 16.9402 15.746H17.6397C17.7737 15.746 17.8829 15.6369 17.8829 15.5028V13.6581V12.4559H16.9402C16.5255 12.4559 16.1881 12.7933 16.1881 13.2079ZM24 11.9999C24 18.6167 18.6168 23.9999 12 23.9999C5.38317 23.9999 0 18.6167 0 11.9999C0 5.38317 5.38317 0 12 0C18.6168 0 24 5.38317 24 11.9999ZM19.0078 11.5311C19.0078 7.66706 15.8641 4.52339 12 4.52339C8.13586 4.52339 4.99219 7.66706 4.99219 11.5311V15.5028C4.99219 16.2572 5.60597 16.871 6.36038 16.871H7.05989C8.09484 16.871 8.93686 16.0289 8.93686 14.994V13.2079C8.93686 12.173 8.09484 11.3309 7.05989 11.3309H6.12056C6.22631 8.17935 8.82314 5.64839 12 5.64839C15.1769 5.64839 17.7737 8.17935 17.8795 11.3309H16.9402C15.9052 11.3309 15.0631 12.173 15.0631 13.2079V14.994C15.0631 16.0289 15.9052 16.871 16.9402 16.871H17.6397C17.7227 16.871 17.8038 16.8631 17.8829 16.8489V17.1709C17.8829 17.3049 17.7738 17.4141 17.6397 17.4141H12C11.6893 17.4141 11.4375 17.6659 11.4375 17.9766C11.4375 18.2872 11.6893 18.5391 12 18.5391H17.6397C18.3941 18.5391 19.0079 17.9253 19.0079 17.1709V15.5028V13.6581V11.5311H19.0078Z" fill="white"/>
</g>
<defs>
<clipPath id="clip0_1201_433">
<rect width="24" height="24" fill="white"/>
</clipPath>
</defs>
</svg>
