<svg width="24" height="24" viewBox="0 0 24 24" fill="none" xmlns="http://www.w3.org/2000/svg">
<path d="M22 9.5H21.5V7C21.4989 6.6139 21.4079 6.23336 21.2343 5.88847C21.0608 5.54358 20.8094 5.24379 20.5 5.0128V3C20.4995 2.60231 20.3414 2.22104 20.0602 1.93984C19.779 1.65863 19.3977 1.50045 19 1.5H3C2.60231 1.50045 2.22104 1.65863 1.93984 1.93984C1.65863 2.22104 1.50045 2.60231 1.5 3V5.0128C1.19062 5.24379 0.93921 5.54358 0.765653 5.88847C0.592096 6.23336 0.501148 6.6139 0.5 7V20C0.500794 20.6628 0.764441 21.2982 1.23311 21.7669C1.70178 22.2356 2.3372 22.4992 3 22.5H19C19.6628 22.4992 20.2982 22.2356 20.7669 21.7669C21.2356 21.2982 21.4992 20.6628 21.5 20V17.5H22C22.3977 17.4995 22.779 17.3414 23.0602 17.0602C23.3414 16.779 23.4995 16.3977 23.5 16V11C23.4995 10.6023 23.3414 10.221 23.0602 9.93984C22.779 9.65863 22.3977 9.50045 22 9.5ZM2.5 3C2.5 2.86739 2.55268 2.74021 2.64645 2.64645C2.74021 2.55268 2.86739 2.5 3 2.5H19C19.1326 2.5 19.2598 2.55268 19.3536 2.64645C19.4473 2.74021 19.5 2.86739 19.5 3V4.5506C19.3355 4.51696 19.1679 4.50001 19 4.5H3C2.83206 4.50001 2.66454 4.51696 2.5 4.5506V3ZM20.5 20C20.4995 20.3977 20.3414 20.779 20.0602 21.0602C19.779 21.3414 19.3977 21.4995 19 21.5H3C2.60231 21.4995 2.22104 21.3414 1.93984 21.0602C1.65863 20.779 1.50045 20.3977 1.5 20V7C1.50045 6.60231 1.65863 6.22104 1.93984 5.93984C2.22104 5.65863 2.60231 5.50045 3 5.5H19C19.3977 5.50045 19.779 5.65863 20.0602 5.93984C20.3414 6.22104 20.4995 6.60231 20.5 7V9.5H19C18.6023 9.50045 18.221 9.65863 17.9398 9.93984C17.6586 10.221 17.5005 10.6023 17.5 11V16C17.5005 16.3977 17.6586 16.779 17.9398 17.0602C18.221 17.3414 18.6023 17.4995 19 17.5H20.5V20ZM22.5 16C22.5 16.1326 22.4473 16.2598 22.3536 16.3536C22.2598 16.4473 22.1326 16.5 22 16.5H19C18.8674 16.5 18.7402 16.4473 18.6464 16.3536C18.5527 16.2598 18.5 16.1326 18.5 16V11C18.5 10.8674 18.5527 10.7402 18.6464 10.6464C18.7402 10.5527 18.8674 10.5 19 10.5H22C22.1326 10.5 22.2598 10.5527 22.3536 10.6464C22.4473 10.7402 22.5 10.8674 22.5 11V16Z" fill="black"/>
<path d="M11 11.0001C11.3977 11.0005 11.779 11.1587 12.0602 11.4399C12.3414 11.7211 12.4995 12.1024 12.5 12.5001C12.5 12.6327 12.5527 12.7598 12.6464 12.8536C12.7402 12.9474 12.8674 13.0001 13 13.0001C13.1326 13.0001 13.2598 12.9474 13.3536 12.8536C13.4473 12.7598 13.5 12.6327 13.5 12.5001C13.4999 11.8806 13.2698 11.2832 12.8543 10.8238C12.4389 10.3643 11.8676 10.0754 11.2513 10.0132C10.635 9.95089 10.0175 10.1197 9.51849 10.4868C9.01951 10.8539 8.6746 11.3931 8.5506 12.0001H8C7.86739 12.0001 7.74021 12.0527 7.64645 12.1465C7.55268 12.2403 7.5 12.3674 7.5 12.5001C7.5 12.6327 7.55268 12.7598 7.64645 12.8536C7.74021 12.9474 7.86739 13.0001 8 13.0001H8.5V14.0001H8C7.86739 14.0001 7.74021 14.0527 7.64645 14.1465C7.55268 14.2403 7.5 14.3674 7.5 14.5001C7.5 14.6327 7.55268 14.7598 7.64645 14.8536C7.74021 14.9474 7.86739 15.0001 8 15.0001H8.5506C8.6746 15.607 9.01951 16.1463 9.51849 16.5133C10.0175 16.8804 10.635 17.0492 11.2513 16.987C11.8676 16.9247 12.4389 16.6358 12.8543 16.1764C13.2698 15.7169 13.4999 15.1195 13.5 14.5001C13.5 14.3674 13.4473 14.2403 13.3536 14.1465C13.2598 14.0527 13.1326 14.0001 13 14.0001C12.8674 14.0001 12.7402 14.0527 12.6464 14.1465C12.5527 14.2403 12.5 14.3674 12.5 14.5001C12.5009 14.8536 12.3766 15.196 12.1491 15.4666C11.9216 15.7372 11.6057 15.9185 11.2573 15.9784C10.9089 16.0383 10.5505 15.973 10.2457 15.7939C9.9409 15.6148 9.70935 15.3336 9.5921 15.0001H11C11.1326 15.0001 11.2598 14.9474 11.3536 14.8536C11.4473 14.7598 11.5 14.6327 11.5 14.5001C11.5 14.3674 11.4473 14.2403 11.3536 14.1465C11.2598 14.0527 11.1326 14.0001 11 14.0001H9.5V13.0001H11C11.1326 13.0001 11.2598 12.9474 11.3536 12.8536C11.4473 12.7598 11.5 12.6327 11.5 12.5001C11.5 12.3674 11.4473 12.2403 11.3536 12.1465C11.2598 12.0527 11.1326 12.0001 11 12.0001H9.5921C9.69485 11.7084 9.88533 11.4558 10.1374 11.2767C10.3895 11.0977 10.6908 11.001 11 11.0001Z" fill="black"/>
</svg>
