<svg width="24" height="24" viewBox="0 0 24 24" fill="none" xmlns="http://www.w3.org/2000/svg">
<g clip-path="url(#clip0_1123_45210)">
<path d="M6.55395 10.6926H13.4647C13.6589 10.6926 13.8162 10.5353 13.8162 10.3411C13.8162 10.1469 13.6589 9.9895 13.4647 9.9895H6.55395C6.35979 9.9895 6.20239 10.1469 6.20239 10.3411C6.20239 10.5353 6.35979 10.6926 6.55395 10.6926Z" fill="#151116"/>
<path d="M6.55395 12.4392H13.4647C13.6589 12.4392 13.8162 12.2818 13.8162 12.0876C13.8162 11.8934 13.6589 11.7361 13.4647 11.7361H6.55395C6.35979 11.7361 6.20239 11.8934 6.20239 12.0876C6.20239 12.2818 6.35979 12.4392 6.55395 12.4392Z" fill="#151116"/>
<path d="M6.55395 14.1858H10.7381C10.9323 14.1858 11.0897 14.0284 11.0897 13.8342C11.0897 13.64 10.9323 13.4827 10.7381 13.4827H6.55395C6.35979 13.4827 6.20239 13.64 6.20239 13.8342C6.20239 14.0284 6.35979 14.1858 6.55395 14.1858Z" fill="#151116"/>
<path d="M13.2146 17.8605C13.1258 17.8418 13.0335 17.7755 12.9849 17.6958C12.965 17.6632 12.944 17.6149 12.9566 17.5692C13.005 17.3927 12.91 17.2086 12.7381 17.1458C12.5662 17.0832 12.3749 17.1627 12.2983 17.3289C12.24 17.4553 12.1702 17.5962 12.0771 17.6707C12.024 17.7132 11.9627 17.72 11.9486 17.7137C11.9325 17.7037 11.8842 17.5945 11.9622 17.2768C11.9929 17.1517 11.9528 17.0199 11.8577 16.9332C11.7663 16.8499 11.6383 16.8209 11.5205 16.856C11.4062 16.8777 10.9721 16.8862 10.4953 16.8871C10.5534 16.5882 10.6013 16.2876 10.6388 15.9863C10.6628 15.7937 10.5261 15.618 10.3335 15.594C10.1405 15.5701 9.96512 15.7068 9.94112 15.8995C9.90011 16.2288 9.84592 16.5576 9.77903 16.8839C9.45804 16.8803 9.18641 16.8746 9.06515 16.8686C8.62303 16.8469 8.19175 16.8402 7.77771 16.9934C7.47289 17.1062 7.23037 17.3354 7.11238 17.6222C6.98901 17.922 7.00326 18.2426 7.15359 18.5497C7.38833 19.029 7.89536 19.3548 8.29365 19.4648C8.42804 19.502 8.56538 19.52 8.70108 19.52C9.07916 19.52 9.44468 19.3802 9.69832 19.1245C9.95397 18.8667 10.0711 18.5301 10.1608 18.2349C10.2255 18.0221 10.285 17.8072 10.3391 17.5908C10.6492 17.5913 10.9631 17.5885 11.218 17.5784C11.2194 17.8631 11.306 18.1423 11.5779 18.3111C11.8532 18.482 12.226 18.4474 12.5087 18.226C12.6579 18.3875 12.8571 18.5037 13.0697 18.5485C13.4378 18.6262 13.8442 18.5321 14.2776 18.2692C14.4436 18.1685 14.4965 17.9523 14.3958 17.7863C14.295 17.6203 14.0788 17.5674 13.9128 17.6681C13.6371 17.8353 13.4023 17.8999 13.2146 17.8605ZM9.48809 18.0304C9.41989 18.2547 9.34142 18.4858 9.19906 18.6293C9.03313 18.7965 8.74448 18.86 8.48105 18.7871C8.19869 18.709 7.89949 18.474 7.78507 18.2404C7.72409 18.1158 7.71673 18.0011 7.76262 17.8897C7.80612 17.784 7.90057 17.6976 8.02174 17.6528C8.21701 17.5805 8.44112 17.5603 8.67877 17.5603C8.79351 17.5603 8.91145 17.565 9.03079 17.5708C9.03791 17.5712 9.2788 17.578 9.61498 17.5835C9.57537 17.7334 9.53304 17.8825 9.48809 18.0304Z" fill="#151116"/>
<path d="M21.3097 3.23677C21.2299 3.10989 21.1546 2.98998 21.121 2.88634C21.0845 2.77394 21.0739 2.62713 21.0627 2.47165C21.0423 2.18788 21.0191 1.86623 20.8236 1.59764C20.6265 1.32676 20.3265 1.20545 20.0618 1.09839C19.9185 1.0405 19.7833 0.985799 19.6899 0.917832C19.5988 0.851553 19.5064 0.741024 19.4087 0.623934C19.2244 0.403486 19.0156 0.153555 18.6928 0.0487451C18.3817 -0.0521274 18.0713 0.0243707 17.7973 0.0921033C17.6434 0.130118 17.4979 0.166023 17.3754 0.166023C17.2528 0.166023 17.1074 0.130071 16.9534 0.0921033C16.6795 0.0244176 16.3692 -0.0522211 16.058 0.0487451C15.7352 0.153555 15.5263 0.403439 15.3421 0.623934C15.2444 0.740931 15.152 0.851459 15.0609 0.917785C14.9687 0.984862 14.8356 1.03905 14.6944 1.09619H3.3288C2.79584 1.09619 2.3623 1.52977 2.3623 2.06268V23.0335C2.3623 23.5664 2.79589 24 3.3288 24H18.1475C18.6804 24 19.114 23.5664 19.114 23.0335V11.8745C19.1344 11.8764 19.1547 11.8774 19.175 11.8774C19.3065 11.8774 19.4369 11.8381 19.5484 11.7615C19.7276 11.6385 19.8346 11.4352 19.8346 11.2178V7.20567C19.9039 7.17235 19.9814 7.1408 20.0617 7.10836C20.3264 7.0013 20.6265 6.87995 20.8236 6.60906C21.0191 6.34048 21.0423 6.01878 21.0627 5.73501C21.0739 5.57962 21.0845 5.43281 21.121 5.32036C21.1546 5.21677 21.2299 5.09687 21.3097 4.96998C21.4634 4.72539 21.6376 4.44818 21.6376 4.10338C21.6376 3.75857 21.4634 3.48136 21.3097 3.23677ZM18.4109 23.0335C18.4109 23.1788 18.2927 23.2969 18.1475 23.2969H3.3288C3.18358 23.2969 3.06541 23.1787 3.06541 23.0335V2.06268C3.06541 1.91742 3.18358 1.79929 3.3288 1.79929H13.8139C13.7209 2.01876 13.7036 2.25613 13.688 2.47175C13.6784 2.60524 13.6692 2.73222 13.6437 2.83671H6.377C6.24078 2.83671 6.11272 2.88977 6.01645 2.98614C5.92017 3.08251 5.8672 3.21057 5.86725 3.34655C5.86725 3.95254 5.37404 4.44551 4.76782 4.44551C4.74846 4.44551 4.7292 4.44499 4.71059 4.4441C4.57086 4.4366 4.43239 4.48802 4.33124 4.58411C4.23065 4.67964 4.17299 4.81403 4.17299 4.95282V16.2233C4.17299 16.4175 4.3304 16.5749 4.52455 16.5749C4.7187 16.5749 4.8761 16.4175 4.8761 16.2233V5.14543C5.75545 5.09312 6.46704 4.40773 6.56004 3.53981H13.2637C13.1782 3.70786 13.1132 3.89301 13.1132 4.10338C13.1132 4.44818 13.2874 4.72539 13.4411 4.96989C13.5208 5.09682 13.5962 5.21672 13.6298 5.32036C13.6535 5.39344 13.6663 5.48123 13.6753 5.57629H6.74182C6.4444 5.57629 6.20244 5.81825 6.20244 6.11567V8.10977C6.20244 8.40719 6.4444 8.64915 6.74182 8.64915H14.9161V11.2179C14.9161 11.4353 15.0232 11.6386 15.2024 11.7616C15.3816 11.8847 15.6097 11.9115 15.8127 11.8334L16.6002 11.53V19.9508C15.7208 20.0031 15.0092 20.6885 14.9162 21.5564H6.55999C6.46709 20.6886 5.75541 20.0031 4.87605 19.9508V17.8628C4.87605 17.6686 4.71865 17.5112 4.5245 17.5112C4.33035 17.5112 4.17295 17.6686 4.17295 17.8628V20.1434C4.17295 20.2822 4.2306 20.4165 4.33119 20.5121C4.43244 20.6083 4.57058 20.659 4.70998 20.6521C4.72915 20.6511 4.74842 20.6507 4.76777 20.6507C5.37399 20.6507 5.8672 21.1437 5.8672 21.7494C5.86715 21.8856 5.92012 22.0137 6.0164 22.11C6.11273 22.2064 6.24074 22.2595 6.37695 22.2595H15.0993C15.2355 22.2595 15.3636 22.2064 15.4598 22.11C15.5561 22.0137 15.6091 21.8857 15.609 21.7497C15.609 21.1437 16.1022 20.6507 16.7085 20.6507C16.7278 20.6507 16.7471 20.6512 16.7657 20.6521C16.906 20.6597 17.0439 20.6083 17.1451 20.5121C17.2457 20.4165 17.3033 20.2822 17.3033 20.1434V11.2591L17.3754 11.2314L18.4109 11.6303V23.0335ZM13.9272 6.60906C14.1243 6.87995 14.4243 7.00126 14.689 7.10832C14.7694 7.1408 14.8469 7.17235 14.9162 7.20567V7.946H6.9055V6.27935H13.7682C13.8021 6.39368 13.8517 6.50538 13.9272 6.60906ZM19.1315 11.1544L17.6126 10.5693C17.5361 10.5398 17.4557 10.5251 17.3754 10.5251C17.295 10.5251 17.2147 10.5398 17.1382 10.5692L15.6192 11.1544V7.88708C15.7415 8.00145 15.8829 8.1011 16.058 8.15796C16.1662 8.19307 16.2743 8.20671 16.3809 8.20671C16.5806 8.20671 16.7748 8.15876 16.9534 8.1146C17.1074 8.07659 17.2528 8.04068 17.3754 8.04068C17.4979 8.04068 17.6434 8.07663 17.7973 8.1146C18.0712 8.18219 18.3816 8.25888 18.6928 8.15796C18.8678 8.1011 19.0092 8.00145 19.1315 7.88708V11.1544ZM20.7143 4.59588C20.6153 4.75352 20.5128 4.91659 20.4522 5.10319C20.3893 5.29702 20.3751 5.49398 20.3613 5.68448C20.3464 5.89264 20.3322 6.08933 20.255 6.19531C20.1763 6.30359 19.9925 6.37788 19.798 6.45649C19.6217 6.52778 19.4394 6.60152 19.2761 6.72034C19.1149 6.83771 18.9899 6.98724 18.869 7.13185C18.7336 7.29384 18.6058 7.44684 18.4755 7.48912C18.3554 7.52812 18.166 7.48148 17.9658 7.43193C17.7866 7.38768 17.5834 7.33748 17.3752 7.33748C17.1671 7.33748 16.964 7.38764 16.7847 7.43193C16.5845 7.48148 16.3951 7.52821 16.275 7.48912C16.1447 7.44684 16.0169 7.29384 15.8815 7.13185C15.7606 6.98719 15.6357 6.83767 15.4744 6.72029C15.3111 6.60147 15.1287 6.52774 14.9524 6.45644C14.7579 6.37779 14.5742 6.30349 14.4954 6.19531C14.4183 6.08928 14.4041 5.89264 14.3891 5.68448C14.3754 5.49398 14.3612 5.29697 14.2983 5.10319C14.2377 4.91659 14.1352 4.75347 14.0361 4.59579C13.9229 4.4157 13.816 4.24559 13.816 4.10338C13.816 3.96111 13.9229 3.79096 14.0361 3.61083C14.1352 3.45314 14.2377 3.29012 14.2983 3.10351C14.3612 2.90973 14.3754 2.71272 14.3891 2.52228C14.4041 2.31406 14.4183 2.11738 14.4955 2.0114C14.5743 1.90312 14.758 1.82882 14.9525 1.75022C15.1288 1.67892 15.3111 1.60519 15.4744 1.48636C15.6357 1.36899 15.7606 1.21947 15.8815 1.07486C16.0169 0.912864 16.1447 0.759868 16.2751 0.717587C16.3063 0.707416 16.3423 0.703057 16.3819 0.703057C16.4944 0.703057 16.6365 0.738118 16.7847 0.774727C16.9639 0.818976 17.1671 0.869177 17.3752 0.869177C17.5834 0.869177 17.7866 0.819022 17.9658 0.77468C18.1661 0.725228 18.3555 0.678588 18.4755 0.717541C18.6057 0.759821 18.7336 0.912817 18.869 1.07481C18.9898 1.21947 19.1148 1.36899 19.2761 1.48636C19.4394 1.60519 19.6218 1.67892 19.7981 1.75022C19.9926 1.82887 20.1763 1.90317 20.255 2.01135C20.3322 2.11738 20.3463 2.31402 20.3613 2.52218C20.3751 2.71268 20.3893 2.90969 20.4522 3.10346C20.5128 3.29007 20.6152 3.45314 20.7144 3.61083C20.8275 3.79096 20.9345 3.96107 20.9345 4.10333C20.9345 4.24559 20.8276 4.41574 20.7143 4.59588Z" fill="#151116"/>
<path d="M17.3754 1.41504C15.893 1.41504 14.687 2.62106 14.687 4.10344C14.687 5.58582 15.893 6.79184 17.3754 6.79184C18.162 6.79184 18.9067 6.44886 19.4187 5.85075C19.5449 5.70329 19.5277 5.48134 19.3802 5.35506C19.2327 5.22888 19.0108 5.24604 18.8845 5.39355C18.5064 5.83538 17.9563 6.08873 17.3755 6.08873C16.2808 6.08873 15.3902 5.19813 15.3902 4.10344C15.3902 3.00875 16.2808 2.11815 17.3755 2.11815C18.4701 2.11815 19.3607 3.00875 19.3607 4.10344C19.3607 4.29764 19.5181 4.45499 19.7123 4.45499C19.9065 4.45499 20.0639 4.29764 20.0639 4.10344C20.0639 2.62106 18.8578 1.41504 17.3754 1.41504Z" fill="#151116"/>
</g>
<defs>
<clipPath id="clip0_1123_45210">
<rect width="24" height="24" fill="white"/>
</clipPath>
</defs>
</svg>
