<svg width="24" height="24" viewBox="0 0 24 24" fill="none" xmlns="http://www.w3.org/2000/svg">
<g id="connection 1">
<g id="Group 2554">
<path id="Vector" d="M16.2276 7.2476C16.0852 7.2475 15.9432 7.26039 15.8032 7.2861C15.7249 6.89841 15.5369 6.54139 15.2614 6.25754C14.986 5.97369 14.6348 5.77496 14.2497 5.68503C13.8645 5.59509 13.4616 5.61774 13.089 5.75026C12.7163 5.88278 12.3896 6.11961 12.1477 6.43253C11.9084 6.11508 11.582 5.87398 11.2082 5.73853C10.8344 5.60307 10.4293 5.57909 10.0421 5.66949C9.65499 5.7599 9.30242 5.9608 9.02728 6.24779C8.75213 6.53477 8.56626 6.8955 8.49225 7.28612C8.07083 7.21313 7.63747 7.25675 7.23906 7.41227C6.84065 7.56779 6.49234 7.82929 6.23181 8.16848C5.97129 8.50767 5.80846 8.91163 5.76095 9.33668C5.71345 9.76172 5.78306 10.1917 5.96226 10.58C5.56722 10.8112 5.23957 11.1418 5.01184 11.5389C4.78412 11.9359 4.66427 12.3857 4.66418 12.8434C4.6641 13.3011 4.7838 13.7509 5.01138 14.1481C5.23896 14.5452 5.5665 14.8759 5.96145 15.1073C5.78248 15.4957 5.71308 15.9257 5.76077 16.3508C5.80846 16.7759 5.97142 17.1798 6.23203 17.519C6.49264 17.8581 6.84099 18.1196 7.23943 18.2751C7.63788 18.4307 8.07125 18.4744 8.49272 18.4015C8.56667 18.7921 8.75248 19.1528 9.02758 19.4398C9.30267 19.7268 9.6552 19.9277 10.0423 20.0181C10.4295 20.1085 10.8345 20.0846 11.2083 19.9491C11.582 19.8137 11.9084 19.5726 12.1477 19.2552C12.3871 19.5726 12.7134 19.8137 13.0872 19.9491C13.4609 20.0846 13.866 20.1085 14.2531 20.0181C14.6402 19.9277 14.9928 19.7268 15.2679 19.4398C15.543 19.1528 15.7288 18.7921 15.8028 18.4015C16.2254 18.4803 16.6616 18.4407 17.0631 18.287C17.4646 18.1332 17.8157 17.8715 18.0776 17.5305C18.3396 17.1896 18.5021 16.7829 18.5472 16.3554C18.5923 15.9278 18.5183 15.4961 18.3332 15.1081C18.7325 14.8802 19.0644 14.5508 19.2953 14.1532C19.5261 13.7557 19.6478 13.3042 19.6479 12.8445C19.6479 12.3848 19.5265 11.9332 19.2957 11.5356C19.065 11.138 18.7333 10.8084 18.3341 10.5804C18.4993 10.2246 18.5727 9.83306 18.5474 9.4416C18.5222 9.05013 18.3991 8.67126 18.1895 8.33966C17.9799 8.00806 17.6905 7.73434 17.3478 7.54355C17.005 7.35277 16.6199 7.25101 16.2276 7.2476ZM11.7191 14.8162C11.5143 14.7141 11.2888 14.6603 11.06 14.659C10.6578 14.6595 10.2723 14.8194 9.98798 15.1038C9.70364 15.3881 9.54368 15.7736 9.54319 16.1758C9.54319 16.2894 9.58834 16.3984 9.66871 16.4788C9.74909 16.5592 9.8581 16.6043 9.97177 16.6043C10.0854 16.6043 10.1944 16.5592 10.2748 16.4788C10.3552 16.3984 10.4003 16.2894 10.4003 16.1758C10.4028 16.0025 10.4734 15.8372 10.5968 15.7155C10.7202 15.5939 10.8865 15.5257 11.0598 15.5257C11.233 15.5257 11.3994 15.5939 11.5227 15.7155C11.6461 15.8372 11.7167 16.0025 11.7191 16.1758V18.0115C11.7185 18.3302 11.5915 18.6357 11.3659 18.8608C11.1403 19.086 10.8346 19.2125 10.5159 19.2125C10.1971 19.2125 9.89141 19.086 9.66581 18.8608C9.44022 18.6357 9.31318 18.3302 9.31258 18.0115C9.3388 17.9151 9.33697 17.8133 9.30731 17.7179C9.27764 17.6226 9.22138 17.5377 9.14514 17.4732C8.79846 17.238 8.44747 17.6426 8.06786 17.5828C7.6767 17.5824 7.30167 17.4269 7.02508 17.1503C6.74849 16.8737 6.59292 16.4987 6.59253 16.1076C6.59195 15.7726 6.70679 15.4478 6.91773 15.1876C6.96185 15.1336 6.99213 15.0697 7.00593 15.0013C7.01974 14.9329 7.01665 14.8623 6.99693 14.7954C6.97722 14.7285 6.94148 14.6674 6.89281 14.6175C6.84415 14.5675 6.78403 14.5302 6.71767 14.5087C6.3859 14.4021 6.09358 14.1988 5.87826 13.9248C5.66294 13.6508 5.53445 13.3187 5.50931 12.9711C5.48416 12.6236 5.56351 12.2764 5.73714 11.9743C5.91078 11.6721 6.17079 11.4288 6.48376 11.2756C6.70443 11.4609 6.9735 11.5793 7.25924 11.6168C7.54499 11.6543 7.83549 11.6093 8.09651 11.4872C8.35753 11.365 8.57819 11.1708 8.73247 10.9274C8.88675 10.6839 8.96822 10.4015 8.96728 10.1133C8.96509 10.0011 8.91897 9.8942 8.83884 9.81562C8.7587 9.73703 8.65093 9.69301 8.53869 9.69302C8.42645 9.69302 8.31869 9.73705 8.23856 9.81564C8.15842 9.89423 8.11231 10.0011 8.11013 10.1133C8.10983 10.2881 8.04023 10.4557 7.91658 10.5793C7.79293 10.7028 7.62533 10.7723 7.45052 10.7725C6.8737 10.7563 6.59982 10.0801 6.5925 9.58009C6.59292 9.18893 6.74849 8.8139 7.02508 8.53731C7.30168 8.26072 7.6767 8.10516 8.06786 8.10476C8.44554 8.04376 8.80085 8.45162 9.14559 8.21404C9.22169 8.14955 9.27782 8.06469 9.30739 7.96942C9.33697 7.87416 9.33876 7.77243 9.31256 7.67618C9.31316 7.35744 9.4402 7.05196 9.6658 6.82678C9.89139 6.60161 10.1971 6.47515 10.5159 6.47515C10.8346 6.47515 11.1403 6.60161 11.3659 6.82678C11.5915 7.05196 11.7185 7.35744 11.7191 7.67618L11.7191 14.8162ZM18.7907 12.8438C18.791 13.1707 18.6993 13.4911 18.5262 13.7684C18.3531 14.0457 18.1055 14.2688 17.8117 14.4121C17.591 14.2267 17.3219 14.1083 17.0361 14.0708C16.7503 14.0333 16.4598 14.0783 16.1988 14.2006C15.9377 14.3228 15.7171 14.5171 15.5628 14.7605C15.4086 15.004 15.3271 15.2865 15.3282 15.5747C15.3282 15.6884 15.3733 15.7974 15.4537 15.8778C15.5341 15.9582 15.6431 16.0033 15.7567 16.0033C15.8704 16.0033 15.9794 15.9582 16.0598 15.8778C16.1402 15.7974 16.1853 15.6884 16.1853 15.5747C16.1855 15.3999 16.2551 15.2322 16.3787 15.1086C16.5024 14.9849 16.6701 14.9153 16.8449 14.9151C17.4219 14.9312 17.6957 15.6081 17.7029 16.1075C17.7009 16.3562 17.6364 16.6003 17.5152 16.8175C17.3941 17.0347 17.2202 17.2178 17.0097 17.3502C16.7991 17.4825 16.5587 17.5597 16.3104 17.5747C16.0622 17.5897 15.8142 17.542 15.5893 17.4359C15.5195 17.4029 15.4422 17.3891 15.3653 17.3961C15.2884 17.4031 15.2148 17.4306 15.1522 17.4757C15.0895 17.5207 15.0401 17.5818 15.0091 17.6525C14.9781 17.7232 14.9665 17.8009 14.9757 17.8775C14.9918 18.0391 14.9751 18.2022 14.9264 18.3571C14.8778 18.512 14.7983 18.6555 14.6927 18.7788C14.5871 18.9021 14.4577 19.0028 14.3122 19.0748C14.1666 19.1468 14.008 19.1886 13.8459 19.1976C13.6838 19.2067 13.5216 19.1828 13.369 19.1274C13.2163 19.0721 13.0765 18.9864 12.9578 18.8756C12.8392 18.7648 12.7442 18.631 12.6787 18.4825C12.6131 18.334 12.5783 18.1737 12.5763 18.0114V10.8716C12.8071 10.9822 13.0621 11.0328 13.3176 11.0186C13.5731 11.0044 13.821 10.9258 14.038 10.7902C14.2551 10.6546 14.4344 10.4664 14.5592 10.243C14.6841 10.0195 14.7505 9.76819 14.7522 9.51226C14.7513 9.39917 14.7058 9.29102 14.6255 9.21136C14.5452 9.13171 14.4367 9.08701 14.3236 9.08701C14.2106 9.08702 14.102 9.13172 14.0218 9.21138C13.9415 9.29104 13.896 9.3992 13.8951 9.51228C13.8925 9.68545 13.8219 9.85063 13.6985 9.97216C13.5751 10.0937 13.4089 10.1618 13.2357 10.1618C13.0625 10.1618 12.8963 10.0937 12.7729 9.97214C12.6495 9.85061 12.5789 9.68542 12.5763 9.51226V7.67618C12.5799 7.35941 12.7082 7.05683 12.9335 6.8341C13.1588 6.61137 13.4628 6.48645 13.7796 6.48645C14.0964 6.48646 14.4004 6.61138 14.6257 6.83412C14.8509 7.05685 14.9793 7.35943 14.9829 7.6762C14.8914 8.05207 15.2036 8.43087 15.5885 8.25166C15.8135 8.14556 16.0615 8.09778 16.3098 8.11273C16.5581 8.12768 16.7987 8.20488 17.0093 8.33721C17.2199 8.46954 17.3938 8.65275 17.515 8.86996C17.6363 9.08716 17.7009 9.33138 17.7029 9.58012C17.7036 9.91503 17.5887 10.2399 17.3777 10.5C17.3336 10.554 17.3034 10.618 17.2896 10.6863C17.2758 10.7547 17.2789 10.8254 17.2986 10.8922C17.3183 10.9591 17.3541 11.0202 17.4027 11.0701C17.4514 11.1201 17.5114 11.1574 17.5778 11.1789C17.9304 11.2919 18.2379 11.5141 18.456 11.8134C18.674 12.1127 18.7912 12.4735 18.7907 12.8438Z" fill="#151116"/>
<path id="Vector_2" d="M22.4672 17.062C24.9646 11.2439 21.6899 4.12815 15.6419 2.25003C15.5345 2.21691 15.4185 2.22721 15.3187 2.27872C15.2189 2.33023 15.1433 2.41883 15.1081 2.52549C15.0729 2.63215 15.081 2.74836 15.1306 2.84913C15.1802 2.94991 15.2673 3.02721 15.3733 3.06442C20.9216 4.7905 23.9449 11.279 21.714 16.6427C21.2151 16.4871 20.6762 16.522 20.2015 16.7406C19.7268 16.9593 19.35 17.3461 19.144 17.8265C18.938 18.3068 18.9174 18.8464 19.0862 19.341C19.255 19.8357 19.6012 20.2501 20.0579 20.5043C20.5145 20.7585 21.0492 20.8343 21.5585 20.7171C22.0678 20.6 22.5156 20.2981 22.8153 19.87C23.115 19.4418 23.2453 18.9177 23.181 18.399C23.1167 17.8804 22.8624 17.404 22.4672 17.062ZM21.0867 19.9137C20.755 19.91 20.4382 19.7756 20.205 19.5398C19.9718 19.3039 19.841 18.9856 19.841 18.6539C19.841 18.3222 19.9718 18.0039 20.205 17.7681C20.4382 17.5322 20.755 17.3979 21.0867 17.3942C21.4185 17.3976 21.7356 17.5319 21.969 17.7678C22.2025 18.0036 22.3334 18.3221 22.3334 18.654C22.3334 18.9858 22.2025 19.3043 21.969 19.5402C21.7356 19.776 21.4185 19.9103 21.0867 19.9137Z" fill="#151116"/>
<path id="Vector_3" d="M1.77595 15.9944C1.84152 15.9942 1.90616 15.979 1.96494 15.9499C2.02372 15.9209 2.07508 15.8788 2.1151 15.8269C2.15512 15.7749 2.18274 15.7145 2.19584 15.6503C2.20895 15.5861 2.2072 15.5197 2.19072 15.4562C0.62276 9.8579 4.41763 3.78154 10.1378 2.74848C10.8625 5.02813 14.2395 4.52895 14.2646 2.11665C14.266 1.57518 14.0592 1.05389 13.6872 0.660505C13.3151 0.267123 12.8061 0.0317305 12.2654 0.00298062C11.7247 -0.0257692 11.1936 0.154321 10.7819 0.50603C10.3702 0.857738 10.1094 1.35418 10.0534 1.89273C9.5792 1.98039 9.11145 2.09982 8.65331 2.25023C5.96054 3.144 3.70864 5.02873 2.35457 7.52199C1.00049 10.0152 0.64566 12.9303 1.36207 15.6755C1.38628 15.7669 1.43998 15.8477 1.51482 15.9053C1.58967 15.963 1.68147 15.9943 1.77595 15.9944ZM12.1476 0.856921C12.4793 0.860695 12.7962 0.995108 13.0294 1.231C13.2626 1.46688 13.3934 1.78522 13.3934 2.11693C13.3934 2.44864 13.2626 2.76697 13.0293 3.00285C12.7961 3.23874 12.4793 3.37314 12.1476 3.37691C11.8159 3.37314 11.4991 3.23872 11.2659 3.00284C11.0327 2.76695 10.9019 2.44861 10.9019 2.1169C10.9019 1.78519 11.0327 1.46686 11.2659 1.23098C11.4991 0.995094 11.8159 0.860688 12.1476 0.856921Z" fill="#151116"/>
<path id="Vector_4" d="M18.5813 20.8807C16.7515 22.3359 14.4824 23.1279 12.1444 23.1272C9.80646 23.1265 7.53781 22.3332 5.70887 20.8768C5.38517 20.62 5.07877 20.3421 4.79168 20.045C5.01735 19.7881 5.17733 19.4803 5.25789 19.1481C5.33844 18.8158 5.33717 18.4689 5.25417 18.1373C5.17118 17.8056 5.00895 17.499 4.7814 17.2438C4.55385 16.9887 4.26778 16.7925 3.94774 16.6722C3.6277 16.5519 3.28325 16.5111 2.94396 16.5532C2.60467 16.5953 2.28066 16.7191 1.99975 16.914C1.71884 17.1089 1.48941 17.3691 1.33116 17.6721C1.17291 17.9752 1.09057 18.3122 1.09119 18.6541C1.09371 19.009 1.18522 19.3577 1.35736 19.6681C1.52949 19.9785 1.77674 20.2408 2.07648 20.431C2.37621 20.6211 2.71886 20.733 3.07304 20.7565C3.42723 20.7799 3.78163 20.7142 4.10382 20.5652C6.03031 22.5773 8.64091 23.7943 11.4206 23.9762C14.2003 24.1581 16.9473 23.2917 19.1195 21.5478C19.2054 21.4756 19.2595 21.3726 19.2703 21.261C19.281 21.1493 19.2476 21.0379 19.1772 20.9506C19.1068 20.8633 19.0049 20.8071 18.8935 20.794C18.7821 20.7809 18.67 20.812 18.5813 20.8807ZM1.94836 18.6541C1.95213 18.3224 2.08654 18.0056 2.32243 17.7723C2.55832 17.5391 2.87665 17.4083 3.20836 17.4083C3.54008 17.4083 3.85841 17.5391 4.09429 17.7724C4.33017 18.0056 4.46458 18.3224 4.46835 18.6541C4.46457 18.9858 4.33016 19.3026 4.09427 19.5358C3.85838 19.7691 3.54005 19.8998 3.20834 19.8998C2.87663 19.8998 2.5583 19.769 2.32241 19.5358C2.08653 19.3026 1.95212 18.9858 1.94836 18.6541Z" fill="#151116"/>
</g>
</g>
</svg>
