<svg width="24" height="24" viewBox="0 0 24 24" fill="none" xmlns="http://www.w3.org/2000/svg">
<g clip-path="url(#clip0_1123_45197)">
<path d="M10.9811 21.3078C10.7519 21.3095 10.5499 21.1104 10.5482 20.8812L10.5187 16.8702C10.517 16.641 10.7161 16.4389 10.9453 16.4372L16.6754 16.3951C16.9046 16.3935 17.1066 16.5925 17.1083 16.8218L17.1378 20.8328C17.1395 21.062 16.9404 21.264 16.7112 21.2657L10.9811 21.3078ZM11.4045 20.4451L16.2751 20.4094L16.252 17.2578L11.3814 17.2936L11.4045 20.4451Z" fill="#151116"/>
<path d="M13.8335 19.5673C13.6043 19.569 13.4022 19.3699 13.4005 19.1407L13.3963 18.5677C13.3947 18.3385 13.5937 18.1365 13.8229 18.1348C14.0521 18.1331 14.2542 18.3322 14.2559 18.5614L14.2601 19.1344C14.2617 19.3636 14.0627 19.5656 13.8335 19.5673Z" fill="#151116"/>
<path d="M12.0978 17.2876C11.8686 17.2893 11.6666 17.0902 11.6649 16.861L11.6565 15.715C11.6478 14.5403 12.6148 13.5591 13.7894 13.5504C14.9641 13.5418 15.9454 14.5088 15.954 15.6835L15.9624 16.8295C15.9641 17.0587 15.765 17.2607 15.5359 17.2624L12.0978 17.2876ZM13.7958 14.41C13.0795 14.4152 12.5107 14.9924 12.516 15.7087L12.5212 16.425L15.0998 16.406L15.0945 15.6898C15.0892 14.9735 14.512 14.4047 13.7958 14.41Z" fill="#151116"/>
<path d="M4.09342 23.6504C2.91876 23.6591 1.93749 22.6921 1.92886 21.5174L1.83603 8.88259C1.83435 8.6534 2.03344 8.45139 2.26263 8.44971L3.98165 8.43705C4.21085 8.4354 4.41289 8.63444 4.41458 8.86367L4.52001 23.2175C4.5217 23.4467 4.32261 23.6487 4.09342 23.6504ZM2.78837 21.5111C2.79174 21.9695 3.05275 22.3974 3.45554 22.6237L3.65692 22.7368L3.55823 9.29972L2.69872 9.30605L2.78837 21.5111Z" fill="#151116"/>
<path d="M4.09331 23.6506C3.86412 23.6522 3.66208 23.4532 3.66039 23.2239C3.65871 22.9947 3.85779 22.7927 4.08702 22.791C4.31621 22.7894 4.54499 22.7304 4.7447 22.6143L4.83024 22.5564L4.91576 22.4984L5.00108 22.4119C5.25704 22.1521 5.36934 21.8361 5.36679 21.4923L5.2908 11.1495C5.28911 10.9203 5.48819 10.7183 5.71742 10.7166L13.453 10.6597L13.9296 9.22367C13.9856 9.05133 14.1566 8.93546 14.3285 8.93419L21.262 8.88327C21.4339 8.882 21.6066 8.99533 21.6651 9.16681L22.2508 10.8816C22.251 10.9103 22.2512 10.9389 22.2517 10.9962L22.3403 23.058C22.342 23.2873 22.1429 23.4893 21.9137 23.491L4.09311 23.6219L4.09331 23.6506ZM6.2263 21.486C6.22695 21.5719 6.19915 21.6868 6.19977 21.7727C6.20039 21.8587 6.17237 21.9448 6.14436 22.031L6.14457 22.0596L6.14477 22.0883C6.14522 22.1456 6.11676 22.1744 6.08854 22.2319C6.06032 22.2894 6.06073 22.3467 6.03227 22.3756C6.00405 22.4331 5.97583 22.4906 5.94758 22.5482L5.80604 22.7784L21.4492 22.6635L21.3643 11.1174L20.8958 9.74551L14.65 9.79139L14.1735 11.2275C14.1174 11.3998 13.9464 11.5157 13.7745 11.517L6.15348 11.573L6.2263 21.486Z" fill="#151116"/>
<path d="M4.09333 23.6501C3.86413 23.6518 3.6621 23.4527 3.66041 23.2235L3.51706 3.71257C3.51538 3.48337 3.71446 3.28134 3.94369 3.27966L20.0166 3.16157C20.2458 3.15988 20.4478 3.35897 20.4495 3.58817L20.4916 9.31826C20.4932 9.54746 20.2942 9.7495 20.065 9.75118L14.6214 9.79116L14.1735 11.2271C14.1175 11.3994 13.9464 11.5152 13.7745 11.5165L6.15349 11.5725L6.22631 21.4855C6.22697 21.5715 6.19916 21.6863 6.19978 21.7723C6.2004 21.8582 6.17239 21.9444 6.14438 22.0305L6.14458 22.0592L6.14479 22.0878C6.1452 22.1451 6.11678 22.174 6.08856 22.2315C6.0603 22.289 6.06075 22.3463 6.03229 22.3752C6.00407 22.4327 5.97585 22.4902 5.9476 22.5477C5.5802 23.2381 4.86691 23.6444 4.09333 23.6501ZM4.51655 22.7588L4.83026 22.5559L4.91578 22.498L5.00109 22.4114C5.25706 22.1517 5.36935 21.8356 5.3668 21.4918L5.29081 11.1491C5.28913 10.9199 5.48821 10.7178 5.71744 10.7161L13.453 10.6593L13.9296 9.22319C13.9856 9.05088 14.1567 8.93502 14.3286 8.93374L19.6289 8.8948L19.5931 4.02424L4.37974 4.13601L4.51655 22.7588Z" fill="#151116"/>
<path d="M8.00302 9.84033C6.82835 9.84897 5.84705 8.88202 5.83845 7.70735C5.82982 6.53268 6.79677 5.5514 7.97144 5.54278C9.14611 5.53415 10.1274 6.5011 10.136 7.67577C10.1446 8.85044 9.20632 9.83149 8.00302 9.84033ZM7.97774 6.40229C7.26149 6.40755 6.6927 6.98477 6.69796 7.70102C6.70323 8.4173 7.28044 8.98609 7.99669 8.98082C8.71294 8.97556 9.28176 8.39834 9.2765 7.6821C9.27123 6.96582 8.69402 6.39703 7.97774 6.40229Z" fill="#151116"/>
<path d="M12.5948 6.94162C12.3656 6.94331 12.1635 6.74422 12.1619 6.51499C12.1602 6.2858 12.3593 6.08379 12.5885 6.08211L17.7455 6.0442C17.9747 6.04251 18.1768 6.2416 18.1784 6.47079C18.1801 6.70002 17.981 6.90202 17.7518 6.90371L12.5948 6.94162Z" fill="#151116"/>
</g>
<defs>
<clipPath id="clip0_1123_45197">
<rect width="24" height="24" fill="white"/>
</clipPath>
</defs>
</svg>
