<svg width="24" height="24" viewBox="0 0 24 24" fill="none" xmlns="http://www.w3.org/2000/svg">
<path d="M19.335 7.66489C18.457 6.56182 17.3414 5.67098 16.0715 5.05869C14.8015 4.4464 13.4098 4.12842 12 4.12842C10.5901 4.12842 9.19842 4.4464 7.92846 5.05869C6.6585 5.67098 5.543 6.56182 4.66497 7.66489C-0.221281 13.7849 4.16622 22.8749 12 22.8749C19.8337 22.8749 24.2287 13.7924 19.335 7.66489ZM17.7337 18.3336C17.0297 19.1686 16.1518 19.8397 15.1615 20.3001C14.1711 20.7604 13.0921 20.999 12 20.999C10.9078 20.999 9.82886 20.7604 8.83849 20.3001C7.84812 19.8397 6.97024 19.1686 6.26622 18.3336C2.14872 13.4624 5.65122 5.99989 12 5.99989C18.3487 5.99989 21.8512 13.4586 17.7337 18.3336Z" fill="#151116"/>
<path d="M12.9375 3H11.0625C10.8139 3 10.5754 2.90123 10.3996 2.72541C10.2238 2.5496 10.125 2.31114 10.125 2.0625C10.125 1.81386 10.2238 1.5754 10.3996 1.39959C10.5754 1.22377 10.8139 1.125 11.0625 1.125H12.9375C13.1861 1.125 13.4246 1.22377 13.6004 1.39959C13.7762 1.5754 13.875 1.81386 13.875 2.0625C13.875 2.31114 13.7762 2.5496 13.6004 2.72541C13.4246 2.90123 13.1861 3 12.9375 3Z" fill="#151116"/>
<path d="M12.75 3V3.405C12.2509 3.36374 11.7491 3.36374 11.25 3.405V3H12.75Z" fill="#151116"/>
<path d="M5.42619 5.80133C4.9499 6.19864 4.51404 6.64205 4.12494 7.12508C3.12369 6.12383 4.43619 4.81133 5.42619 5.80133Z" fill="#151116"/>
<path d="M19.9687 7.03131C19.7137 7.28631 20.1075 7.09506 18.5737 5.80131C18.6539 5.70775 18.7519 5.63107 18.862 5.57571C18.9721 5.52034 19.0921 5.48741 19.215 5.47882C19.3379 5.47024 19.4613 5.48616 19.578 5.52567C19.6947 5.56519 19.8024 5.6275 19.8949 5.70899C19.9873 5.79049 20.0626 5.88954 20.1164 6.00039C20.1702 6.11124 20.2015 6.23167 20.2084 6.3547C20.2152 6.47774 20.1976 6.60091 20.1564 6.71706C20.1153 6.83321 20.0515 6.94003 19.9687 7.03131Z" fill="#151116"/>
<path d="M12.375 7.5C12.375 7.59946 12.3355 7.69484 12.2652 7.76517C12.1948 7.83549 12.0995 7.875 12 7.875C11.9005 7.875 11.8052 7.83549 11.7348 7.76517C11.6645 7.69484 11.625 7.59946 11.625 7.5C11.625 7.40054 11.6645 7.30516 11.7348 7.23483C11.8052 7.16451 11.9005 7.125 12 7.125C12.0995 7.125 12.1948 7.16451 12.2652 7.23483C12.3355 7.30516 12.375 7.40054 12.375 7.5Z" fill="#151116"/>
<path d="M12.375 19.5C12.375 19.5995 12.3355 19.6948 12.2652 19.7652C12.1948 19.8355 12.0995 19.875 12 19.875C11.9005 19.875 11.8052 19.8355 11.7348 19.7652C11.6645 19.6948 11.625 19.5995 11.625 19.5C11.625 19.4005 11.6645 19.3052 11.7348 19.2348C11.8052 19.1645 11.9005 19.125 12 19.125C12.0995 19.125 12.1948 19.1645 12.2652 19.2348C12.3355 19.3052 12.375 19.4005 12.375 19.5Z" fill="#151116"/>
<path d="M18 13.875C17.9005 13.875 17.8052 13.8355 17.7348 13.7652C17.6645 13.6948 17.625 13.5995 17.625 13.5C17.625 13.4005 17.6645 13.3052 17.7348 13.2348C17.8052 13.1645 17.9005 13.125 18 13.125C18.0995 13.125 18.1948 13.1645 18.2652 13.2348C18.3355 13.3052 18.375 13.4005 18.375 13.5C18.375 13.5995 18.3355 13.6948 18.2652 13.7652C18.1948 13.8355 18.0995 13.875 18 13.875Z" fill="#151116"/>
<path d="M6 13.875C5.90054 13.875 5.80516 13.8355 5.73484 13.7652C5.66451 13.6948 5.625 13.5995 5.625 13.5C5.625 13.4005 5.66451 13.3052 5.73484 13.2348C5.80516 13.1645 5.90054 13.125 6 13.125C6.09946 13.125 6.19484 13.1645 6.26517 13.2348C6.33549 13.3052 6.375 13.4005 6.375 13.5C6.375 13.5995 6.33549 13.6948 6.26517 13.7652C6.19484 13.8355 6.09946 13.875 6 13.875Z" fill="#151116"/>
<path d="M8.02121 9.00009C8.0706 9.07227 8.09321 9.15946 8.08512 9.24655C8.07703 9.33364 8.03874 9.41517 7.97689 9.47701C7.91504 9.53886 7.83352 9.57715 7.74643 9.58524C7.65933 9.59333 7.57215 9.57073 7.49996 9.52133C7.45057 9.44915 7.42796 9.36196 7.43606 9.27487C7.44415 9.18778 7.48243 9.10625 7.54428 9.0444C7.60613 8.98256 7.68766 8.94427 7.77475 8.93618C7.86184 8.92809 7.94902 8.95069 8.02121 9.00009Z" fill="#151116"/>
<path d="M16.5 17.4788C16.5494 17.551 16.572 17.6382 16.5639 17.7253C16.5558 17.8124 16.5175 17.8939 16.4557 17.9558C16.3938 18.0176 16.3123 18.0559 16.2252 18.064C16.1381 18.0721 16.0509 18.0495 15.9787 18.0001C15.9293 17.9279 15.9067 17.8407 15.9148 17.7536C15.9229 17.6665 15.9612 17.585 16.023 17.5232C16.0849 17.4613 16.1664 17.423 16.2535 17.4149C16.3406 17.4068 16.4278 17.4295 16.5 17.4788Z" fill="#151116"/>
<path d="M16.5 9.52133C16.4278 9.57073 16.3406 9.59333 16.2535 9.58524C16.1664 9.57715 16.0849 9.53886 16.023 9.47701C15.9612 9.41517 15.9229 9.33364 15.9148 9.24655C15.9067 9.15946 15.9293 9.07227 15.9787 9.00009C16.0509 8.95069 16.1381 8.92809 16.2252 8.93618C16.3123 8.94427 16.3938 8.98256 16.4557 9.0444C16.5175 9.10625 16.5558 9.18778 16.5639 9.27487C16.572 9.36196 16.5494 9.44915 16.5 9.52133Z" fill="#151116"/>
<path d="M8.02121 18.0001C7.94902 18.0495 7.86184 18.0721 7.77475 18.064C7.68766 18.0559 7.60613 18.0176 7.54428 17.9558C7.48243 17.8939 7.44415 17.8124 7.43606 17.7253C7.42796 17.6382 7.45057 17.551 7.49996 17.4788C7.57215 17.4295 7.65933 17.4068 7.74643 17.4149C7.83352 17.423 7.91504 17.4613 7.97689 17.5232C8.03874 17.585 8.07703 17.6665 8.08512 17.7536C8.09321 17.8407 8.0706 17.9279 8.02121 18.0001Z" fill="#151116"/>
<path d="M12 14.25C12.4142 14.25 12.75 13.9142 12.75 13.5C12.75 13.0858 12.4142 12.75 12 12.75C11.5858 12.75 11.25 13.0858 11.25 13.5C11.25 13.9142 11.5858 14.25 12 14.25Z" fill="#151116"/>
<path d="M11.625 12.75V9.375C11.625 9.27554 11.6645 9.18016 11.7348 9.10983C11.8052 9.03951 11.9005 9 12 9C12.0995 9 12.1948 9.03951 12.2652 9.10983C12.3355 9.18016 12.375 9.27554 12.375 9.375V12.75C12.375 12.8495 12.3355 12.9448 12.2652 13.0152C12.1948 13.0855 12.0995 13.125 12 13.125C11.9005 13.125 11.8052 13.0855 11.7348 13.0152C11.6645 12.9448 11.625 12.8495 11.625 12.75Z" fill="#151116"/>
</svg>
