<svg width="436" height="322" viewBox="0 0 436 322" fill="none" xmlns="http://www.w3.org/2000/svg">
<g clip-path="url(#clip0_1730_25269)">
<path d="M399.724 270.468C393.058 276.006 341.708 311.197 268.433 305.522C264.491 272.219 249.455 135.405 266.555 113.948C266.555 113.948 308.043 94.1926 346.26 102.487C384.477 110.782 399.351 118.729 402.074 125.608C404.139 130.811 401.191 227.691 399.724 270.468Z" fill="#51C694"/>
<path d="M344.992 117.102C322.979 136.138 294.624 132.115 295.246 117.5C295.346 115.215 297.796 112.384 297.796 112.384L296.938 111.068L293.207 105.442C290.483 101.233 287.075 95.9433 284.7 92.0939C282.71 88.8158 332.319 58.3438 332.319 75.8645C332.319 100.55 344.457 105.194 344.457 105.194C349.033 107.032 353.349 109.938 344.992 117.102Z" fill="white"/>
<path d="M313.13 130.538C309.236 130.633 305.37 129.861 301.812 128.278C296.987 125.956 294.425 122.069 294.624 117.475C294.945 115.58 295.775 113.808 297.024 112.347L296.415 111.403L292.684 105.778C289.986 101.606 286.566 96.3035 284.178 92.4169C283.742 91.7215 284.302 90.902 284.75 90.3432C289.302 84.7678 319.149 66.7504 329.396 70.3265C330.521 70.7228 331.481 71.4831 332.123 72.4866C332.765 73.4901 333.053 74.6791 332.941 75.8647C332.941 99.8424 344.569 104.573 344.681 104.611C347.056 105.579 349.829 106.995 350.252 109.515C350.625 111.775 349.008 114.408 345.365 117.574C334.881 126.676 322.805 130.538 313.13 130.538ZM326.175 71.084C313.142 71.084 285.446 89.1387 285.309 91.8705C287.66 95.5957 291.067 100.935 293.766 105.107L297.497 110.72L298.355 112.036C298.437 112.146 298.481 112.278 298.481 112.415C298.481 112.551 298.437 112.684 298.355 112.794C298.355 112.794 296.042 115.488 295.955 117.525C295.781 121.635 298.082 125.062 302.447 127.16C311.799 131.668 329.807 129.507 344.73 116.631C347.989 113.812 349.493 111.49 349.195 109.714C348.897 107.938 346.471 106.61 344.395 105.765C343.897 105.579 331.871 100.687 331.871 75.8647C331.871 72.7479 330.167 71.1833 326.673 71.0964L326.175 71.084Z" fill="#243344"/>
<path d="M356.582 174.979C356.464 174.98 356.348 174.946 356.249 174.882C356.149 174.818 356.071 174.727 356.023 174.619C353.834 170.099 358.124 155.261 358.311 154.627C358.357 154.463 358.467 154.323 358.616 154.239C358.765 154.155 358.942 154.134 359.107 154.18C359.272 154.226 359.412 154.336 359.495 154.485C359.579 154.634 359.601 154.81 359.555 154.975C358.311 159.135 355.55 170.683 357.192 174.085C357.227 174.159 357.248 174.24 357.252 174.322C357.256 174.404 357.244 174.486 357.217 174.564C357.189 174.641 357.146 174.712 357.09 174.773C357.035 174.833 356.968 174.883 356.893 174.917C356.796 174.962 356.689 174.984 356.582 174.979Z" fill="white"/>
<path d="M314.672 131.767C307.284 131.767 300.581 129.954 296.602 125.397C296.495 125.271 296.442 125.109 296.453 124.944C296.465 124.779 296.54 124.626 296.664 124.516C296.725 124.462 296.796 124.42 296.873 124.394C296.95 124.368 297.031 124.358 297.112 124.363C297.193 124.369 297.272 124.391 297.345 124.428C297.417 124.465 297.482 124.516 297.534 124.578C304.785 132.885 321.934 131.494 334.843 126.676C345.961 122.516 353.137 116.233 353.137 110.67C353.137 110.506 353.203 110.348 353.319 110.231C353.436 110.115 353.594 110.05 353.759 110.05C353.924 110.05 354.082 110.115 354.199 110.231C354.315 110.348 354.381 110.506 354.381 110.67C354.381 118.059 344.519 124.391 335.279 127.844C328.69 130.338 321.717 131.666 314.672 131.767Z" fill="white"/>
<path d="M317.681 93.7456C317.681 93.7456 314.796 104.797 301.116 113.427C300.463 112.309 299.41 111.479 298.169 111.105C297.757 111.038 297.337 111.038 296.925 111.105L293.194 105.48C300.221 100.389 317.681 93.7456 317.681 93.7456Z" fill="#243344"/>
<path d="M323.825 80.1611C323.825 80.1611 323.676 91.0634 321.338 93.2861C303.927 109.9 287.026 111.217 284.215 106.833C265.386 77.3299 269.839 69.5815 267.911 64.5277C264.516 55.6618 260.35 41.1832 262.19 32.4166C266.294 12.8346 303.23 -2.35174 322.681 17.3421C332.008 26.7668 334.955 47.218 332.99 64.2545" fill="white"/>
<path d="M290.433 109.602C289.793 109.604 289.154 109.567 288.518 109.491C286.18 109.217 284.526 108.41 283.73 107.156C269.204 84.4201 268.458 74.6353 268.01 68.7867C267.986 67.4179 267.768 66.0593 267.364 64.7511C263.446 54.5069 259.902 40.5995 261.618 32.2924C263.67 22.4827 273.955 13.2691 287.2 9.37006C301.029 5.30961 314.485 8.12833 323.166 16.8949C333.04 26.8287 335.54 47.9381 333.65 64.3289C333.625 64.4914 333.539 64.6383 333.41 64.7398C333.28 64.8413 333.117 64.8898 332.953 64.8753C332.789 64.8535 332.64 64.7687 332.538 64.6388C332.436 64.5088 332.388 64.3442 332.406 64.1799C334.209 48.5838 331.809 27.4124 322.283 17.7766C313.925 9.32039 300.942 6.60101 287.548 10.5621C274.726 14.2873 264.802 23.1657 262.837 32.5407C261.158 40.5871 264.678 54.2461 268.533 64.3041C268.98 65.7236 269.223 67.1995 269.254 68.6874C269.689 74.4242 270.423 84.0103 284.787 106.498C285.276 107.048 285.875 107.489 286.545 107.793C287.216 108.097 287.943 108.256 288.68 108.261C295.843 109.118 308.578 104.673 320.952 92.8266C322.693 91.1627 323.178 83.1163 323.215 80.1485C323.219 79.986 323.286 79.8313 323.402 79.7175C323.518 79.6038 323.674 79.54 323.837 79.5401C324.001 79.5465 324.156 79.616 324.27 79.7341C324.383 79.8522 324.447 80.0096 324.447 80.1734C324.447 81.3158 324.235 91.3489 321.798 93.733C310.17 104.871 298.094 109.602 290.433 109.602Z" fill="#243344"/>
<path d="M263.994 56.4814C263.92 56.4988 263.843 56.4988 263.77 56.4814C263.694 56.4512 263.624 56.4065 263.566 56.3496C263.507 56.2927 263.46 56.2249 263.428 56.1499C263.396 56.0749 263.378 55.9943 263.377 55.9127C263.376 55.8311 263.391 55.75 263.421 55.6742C263.554 55.3381 263.755 55.0333 264.012 54.7789C264.269 54.5245 264.576 54.3262 264.914 54.1966C267.053 53.3398 270.411 54.8299 270.56 54.8919C270.71 54.9597 270.827 55.084 270.885 55.2376C270.943 55.3912 270.938 55.5616 270.871 55.7115C270.839 55.7867 270.791 55.8546 270.732 55.9112C270.673 55.9678 270.603 56.0119 270.527 56.0409C270.45 56.0699 270.368 56.0831 270.286 56.0799C270.204 56.0766 270.124 56.0569 270.05 56.0219C269.204 55.6494 266.742 54.7802 265.374 55.3514C265.191 55.4177 265.025 55.5233 264.888 55.6606C264.75 55.7979 264.644 55.9636 264.578 56.1461C264.522 56.2512 264.437 56.3384 264.334 56.3977C264.231 56.457 264.113 56.486 263.994 56.4814Z" fill="#243344"/>
<path d="M298.504 57.1146C298.417 57.1129 298.331 57.0933 298.252 57.057C298.173 57.0206 298.102 56.9684 298.044 56.9036C293.542 51.8249 283.22 56.0592 283.121 56.0964C283.046 56.1293 282.965 56.147 282.883 56.1486C282.801 56.1502 282.719 56.1355 282.643 56.1055C282.567 56.0755 282.497 56.0307 282.438 55.9738C282.379 55.9168 282.332 55.8488 282.3 55.7736C282.241 55.62 282.242 55.4496 282.305 55.2973C282.367 55.145 282.486 55.0222 282.636 54.9541C283.096 54.7678 293.891 50.3472 298.977 56.084C299.035 56.1407 299.081 56.2083 299.112 56.2829C299.144 56.3575 299.16 56.4377 299.16 56.5186C299.16 56.5996 299.144 56.6797 299.112 56.7543C299.081 56.829 299.035 56.8966 298.977 56.9532C298.916 57.0141 298.841 57.0602 298.759 57.0882C298.677 57.1161 298.59 57.1252 298.504 57.1146Z" fill="#243344"/>
<path d="M294.811 63.2238C294.985 64.8381 294.189 66.2412 293.045 66.3778C291.901 66.5144 290.806 65.2851 290.632 63.6708C290.458 62.0566 291.254 60.641 292.398 60.5169C293.542 60.3927 294.624 61.5971 294.811 63.2238Z" fill="#243344"/>
<path d="M273.756 63.7082C273.93 65.3225 273.134 66.7381 271.99 66.8622C270.846 66.9864 269.752 65.7819 269.577 64.1677C269.403 62.5534 270.199 61.1379 271.343 61.0137C272.488 60.8895 273.507 62.094 273.756 63.7082Z" fill="#243344"/>
<path d="M274.229 59.4614C275.734 61.9449 274.913 66.0178 272.923 71.6925C270.933 77.3671 272.687 79.416 280.323 79.9872" fill="white"/>
<path d="M280.323 80.608C275.783 80.2603 273.371 79.3663 272.264 77.7148C271.343 76.2992 271.381 74.3745 272.388 71.5061C274.564 65.2975 274.975 61.7834 273.756 59.8215C273.711 59.7527 273.68 59.6756 273.666 59.5946C273.652 59.5137 273.654 59.4307 273.672 59.3506C273.691 59.2706 273.726 59.1951 273.774 59.1287C273.823 59.0624 273.884 59.0066 273.955 58.9647C274.024 58.9213 274.102 58.8921 274.182 58.8786C274.263 58.8651 274.346 58.8677 274.425 58.8862C274.505 58.9046 274.58 58.9386 274.647 58.9862C274.714 59.0337 274.77 59.094 274.813 59.1634C276.268 61.5102 275.908 65.2106 273.57 71.9159C272.699 74.3994 272.624 76.0136 273.308 77.0691C274.167 78.3108 276.355 79.0931 280.422 79.3911C280.587 79.3911 280.745 79.4565 280.862 79.573C280.978 79.6894 281.044 79.8473 281.044 80.012C281.044 80.1766 280.978 80.3346 280.862 80.451C280.745 80.5674 280.587 80.6328 280.422 80.6328L280.323 80.608Z" fill="#243344"/>
<path d="M280.323 90.4301C280.158 90.4301 279.999 90.3647 279.883 90.2483C279.766 90.1318 279.701 89.9739 279.701 89.8092C279.701 89.6446 279.766 89.4867 279.883 89.3702C279.999 89.2538 280.158 89.1884 280.323 89.1884C280.422 89.1884 290.272 88.2695 294.587 85.8606C294.733 85.7844 294.902 85.7677 295.06 85.8141C295.218 85.8604 295.351 85.9661 295.433 86.1089C295.474 86.1794 295.501 86.2576 295.512 86.3388C295.522 86.42 295.516 86.5024 295.494 86.5813C295.472 86.6601 295.435 86.7337 295.383 86.7976C295.332 86.8615 295.269 86.9145 295.196 86.9533C290.595 89.4367 280.857 90.3929 280.447 90.4301H280.323Z" fill="#243344"/>
<path d="M343.4 33.5093C343.4 26.1335 336.112 10.9968 323.315 9.29565C315.977 1.62177 305.494 -1.19695 292.784 1.70869C263.421 8.45127 254.48 37.4084 253.186 42.2014C253.062 42.6484 253.012 42.8968 253.012 42.8968L260.872 40.91L257.477 47.5036L261.593 50.223L260.661 51.266L265.424 55.8604L263.931 47.4663C264.852 42.04 271.095 34.4779 271.095 34.4779C268.817 37.4257 267.401 40.9456 267.003 44.6476C269.49 38.2031 284.414 32.2304 284.414 32.2304C279.564 36.1542 276.952 43.8281 276.952 43.8281C281.566 38.1658 292.348 34.5027 299.238 32.5532C301.576 38.1534 305.257 44.0019 310.543 47.2428C315.517 50.2975 315.331 56.593 315.331 56.593C320.687 60.3095 324.63 65.7213 326.523 71.9532L332.543 80.1735C332.543 80.1735 343.4 66.8746 343.4 33.5093Z" fill="#243344"/>
<path d="M318.017 58.7164C316.015 54.4076 323.327 42.7354 328.501 44.1758C331.411 44.9953 335.217 50.2975 335.963 55.8604C336.709 61.4234 332.767 72.0029 328.563 74.3001C325.889 75.7901 323.701 71.7297 323.701 71.7297" fill="white"/>
<path d="M327.357 75.2438C327.066 75.2452 326.777 75.2033 326.499 75.1196C325.056 74.5053 323.871 73.4133 323.141 72.0277C323.065 71.8822 323.048 71.7128 323.094 71.5553C323.141 71.3978 323.247 71.2644 323.39 71.1833C323.462 71.1444 323.542 71.1203 323.624 71.1124C323.706 71.1045 323.788 71.1129 323.867 71.1372C323.946 71.1615 324.019 71.2011 324.082 71.2537C324.145 71.3064 324.197 71.3711 324.235 71.4441C324.235 71.4441 325.379 73.5053 326.847 73.9275C327.08 74.0009 327.326 74.0233 327.568 73.9933C327.811 73.9633 328.044 73.8816 328.252 73.7537C331.983 71.6427 336.075 61.4978 335.341 55.9473C334.607 50.3968 330.988 45.5168 328.327 44.7717C326.673 44.2999 324.422 45.5168 322.295 48.0127C319.298 51.5516 317.594 56.3198 318.564 58.4432C318.632 58.5915 318.639 58.7607 318.583 58.9141C318.528 59.0674 318.413 59.1927 318.266 59.2627C318.192 59.2983 318.111 59.3189 318.029 59.3231C317.947 59.3274 317.864 59.3153 317.787 59.2876C317.709 59.2599 317.638 59.2171 317.577 59.1616C317.516 59.1062 317.467 59.0393 317.433 58.9647C316.077 56.0715 318.353 50.7196 321.325 47.218C323.812 44.2875 326.474 42.9588 328.638 43.5673C331.722 44.4241 335.764 49.7759 336.547 55.7735C337.306 61.4481 333.438 72.2636 328.824 74.834C328.379 75.095 327.873 75.2362 327.357 75.2438Z" fill="#243344"/>
<path d="M0.740845 269.475L141.259 236.681L434.359 270.468L358.908 322L0.740845 269.475Z" fill="white"/>
<path d="M0.740845 269.475L141.259 236.681L434.359 270.468" fill="white"/>
<path d="M434.359 271.089H434.284L141.296 237.314L0.890083 270.071C0.725167 270.109 0.551935 270.08 0.408501 269.99C0.265066 269.9 0.163176 269.757 0.125245 269.593C0.0873147 269.428 0.116454 269.255 0.206246 269.112C0.296038 268.969 0.439131 268.867 0.604048 268.829L141.135 236.035C141.209 236.023 141.285 236.023 141.359 236.035L434.434 269.847C434.599 269.857 434.753 269.932 434.862 270.056C434.972 270.179 435.028 270.341 435.018 270.505C435.008 270.67 434.933 270.824 434.81 270.934C434.686 271.043 434.524 271.099 434.359 271.089Z" fill="#243344"/>
<path d="M122.344 276.056L179.227 250.961L251.147 254.661L219.161 281.967L122.344 276.056Z" fill="white"/>
<path d="M219.173 282.588L122.356 276.677C122.218 276.666 122.087 276.61 121.984 276.518C121.881 276.426 121.811 276.303 121.784 276.168C121.758 276.03 121.779 275.888 121.845 275.764C121.91 275.64 122.016 275.541 122.145 275.485L178.979 250.439C179.072 250.414 179.171 250.414 179.265 250.439L251.184 254.164C251.306 254.176 251.421 254.222 251.517 254.298C251.613 254.374 251.685 254.475 251.724 254.59C251.763 254.706 251.769 254.83 251.739 254.948C251.709 255.067 251.646 255.174 251.557 255.257L219.571 282.575C219.443 282.624 219.303 282.628 219.173 282.588ZM124.943 275.584L218.949 281.333L249.555 255.195L179.352 251.582L124.943 275.584Z" fill="#243344"/>
<path d="M269.341 112.719C251.085 120.17 247.155 136.921 216.163 203.117C216.163 203.117 202.384 205.936 195.022 222.637C187.659 239.338 199.934 252.525 214.198 252.078C214.198 252.078 219.907 257.045 231.609 256.536C243.312 256.027 295.035 177.003 295.035 177.003L269.341 112.719Z" fill="#51C694"/>
<path d="M231.945 237.289H231.821C231.74 237.274 231.663 237.244 231.594 237.198C231.526 237.153 231.467 237.095 231.422 237.026C231.376 236.958 231.345 236.881 231.331 236.8C231.316 236.719 231.318 236.637 231.336 236.557C233.599 225.828 229.893 215.224 221.175 207.463C221.117 207.405 221.071 207.337 221.039 207.261C221.007 207.185 220.991 207.104 220.991 207.022C220.991 206.94 221.007 206.859 221.039 206.783C221.071 206.708 221.117 206.639 221.175 206.581C221.291 206.468 221.448 206.404 221.61 206.404C221.773 206.404 221.929 206.468 222.046 206.581C231.112 214.652 234.967 225.691 232.604 236.867C232.559 237.002 232.47 237.118 232.35 237.195C232.23 237.272 232.087 237.305 231.945 237.289Z" fill="white"/>
<path d="M241.036 226.101C240.883 226.102 240.735 226.047 240.621 225.946C240.506 225.846 240.433 225.706 240.414 225.555C238.947 213.349 229.719 211.163 229.321 211.076C229.241 211.06 229.166 211.028 229.098 210.982C229.031 210.937 228.974 210.878 228.93 210.81C228.886 210.741 228.856 210.665 228.842 210.585C228.828 210.505 228.83 210.423 228.848 210.344C228.866 210.264 228.899 210.188 228.946 210.121C228.994 210.054 229.054 209.996 229.123 209.953C229.192 209.909 229.27 209.879 229.351 209.865C229.432 209.851 229.515 209.854 229.595 209.872C229.694 209.872 240.066 212.293 241.645 225.406C241.658 225.487 241.653 225.569 241.633 225.649C241.612 225.728 241.576 225.802 241.526 225.867C241.476 225.932 241.414 225.986 241.342 226.026C241.271 226.067 241.192 226.092 241.111 226.101H241.036Z" fill="white"/>
<path d="M258.832 173.601C258.711 173.6 258.593 173.564 258.492 173.498C258.391 173.432 258.31 173.339 258.26 173.229C253.509 161.448 251.86 148.649 253.472 136.051C253.494 135.888 253.58 135.741 253.71 135.641C253.841 135.541 254.006 135.496 254.169 135.517C254.333 135.542 254.481 135.63 254.581 135.762C254.681 135.895 254.725 136.061 254.704 136.225C253.112 148.591 254.731 161.158 259.405 172.72C259.472 172.869 259.477 173.04 259.419 173.193C259.36 173.347 259.244 173.471 259.094 173.539C259.012 173.577 258.923 173.598 258.832 173.601Z" fill="white"/>
<path d="M261.966 218.887C261.801 218.887 261.643 218.821 261.527 218.705C261.41 218.588 261.345 218.431 261.345 218.266C261.345 200.41 259.33 182.79 257.962 171.08C257.054 163.233 256.457 158.055 256.718 155.956C256.746 155.794 256.835 155.65 256.967 155.552C257.099 155.455 257.264 155.413 257.427 155.434C257.588 155.459 257.733 155.546 257.83 155.676C257.928 155.806 257.971 155.969 257.949 156.13C257.663 158.067 258.298 163.468 259.193 170.944C260.549 182.628 262.601 200.286 262.576 218.229C262.583 218.313 262.572 218.397 262.544 218.477C262.517 218.556 262.473 218.63 262.416 218.691C262.359 218.753 262.289 218.803 262.212 218.836C262.134 218.87 262.051 218.887 261.966 218.887Z" fill="white"/>
<path d="M393.742 118.195C416.563 129.644 419.286 164.872 397.747 206.991C382.537 236.718 361.544 280.613 348.262 283.556C334.98 286.499 322.022 278.242 322.022 278.242C322.022 278.242 310.829 277.72 307.446 269.773C298.193 247.956 321.723 220.638 330.963 227.182C330.963 227.182 360.5 163.022 365.885 158.974" fill="#51C694"/>
<path d="M305.332 257.194C305.189 257.192 305.051 257.142 304.941 257.052C304.83 256.961 304.753 256.837 304.723 256.698C302.745 247 311.426 236.048 320.33 229.963C325.106 226.71 329.135 225.443 331.162 226.561C333.04 226.697 349.158 228.187 351.744 240.145C351.762 240.227 351.762 240.311 351.747 240.393C351.732 240.475 351.7 240.553 351.655 240.622C351.609 240.692 351.55 240.752 351.481 240.799C351.412 240.846 351.335 240.879 351.253 240.897C351.172 240.914 351.087 240.915 351.005 240.899C350.923 240.884 350.845 240.852 350.775 240.807C350.705 240.761 350.645 240.702 350.598 240.634C350.551 240.565 350.518 240.488 350.501 240.406C348.014 228.895 331.075 227.802 330.901 227.802C330.792 227.788 330.687 227.755 330.59 227.703C329.123 226.747 325.267 228.076 320.989 230.994C312.147 237.029 304.126 247.72 305.904 256.449C305.92 256.529 305.921 256.611 305.905 256.691C305.89 256.772 305.859 256.848 305.814 256.916C305.768 256.984 305.71 257.042 305.643 257.088C305.575 257.134 305.499 257.165 305.419 257.182L305.332 257.194Z" fill="white"/>
<path d="M369.616 260.373C369.511 260.373 369.409 260.348 369.317 260.298C369.174 260.218 369.068 260.083 369.024 259.925C368.98 259.767 369 259.597 369.081 259.454C379.229 241.573 397.013 207.041 397.187 206.693C397.264 206.546 397.396 206.435 397.554 206.384C397.712 206.333 397.884 206.346 398.033 206.42C398.177 206.496 398.285 206.627 398.334 206.782C398.383 206.938 398.368 207.107 398.294 207.252C398.12 207.599 380.323 242.169 370.163 260.062C370.107 260.158 370.028 260.237 369.931 260.292C369.835 260.346 369.726 260.374 369.616 260.373Z" fill="white"/>
<path d="M330.963 227.802C330.827 227.804 330.693 227.76 330.584 227.678C330.474 227.596 330.395 227.48 330.358 227.349C330.322 227.217 330.329 227.077 330.38 226.95C330.431 226.824 330.522 226.717 330.64 226.648C330.764 226.561 343.412 219.197 352.814 226.287C352.946 226.386 353.033 226.533 353.056 226.696C353.08 226.859 353.037 227.025 352.938 227.157C352.837 227.286 352.69 227.371 352.528 227.394C352.366 227.417 352.201 227.377 352.068 227.281C343.362 220.662 331.399 227.641 331.274 227.715C331.178 227.767 331.072 227.797 330.963 227.802Z" fill="white"/>
<path d="M335.117 218.887C335.031 218.905 334.942 218.905 334.856 218.887C334.782 218.853 334.715 218.806 334.659 218.746C334.604 218.686 334.561 218.616 334.533 218.54C334.506 218.464 334.493 218.382 334.497 218.301C334.502 218.22 334.522 218.14 334.557 218.067C334.62 217.918 341.435 203.018 348.237 189.445C354.854 176.308 370.784 155.31 377.911 154.242C377.991 154.23 378.074 154.234 378.153 154.253C378.233 154.273 378.307 154.308 378.373 154.356C378.439 154.405 378.495 154.466 378.537 154.536C378.579 154.606 378.607 154.683 378.619 154.764C378.641 154.927 378.599 155.091 378.501 155.223C378.404 155.355 378.259 155.444 378.097 155.472C371.879 156.391 356.396 176.022 349.344 190.004C342.517 203.564 335.664 218.427 335.664 218.564C335.611 218.662 335.531 218.744 335.435 218.8C335.339 218.857 335.229 218.887 335.117 218.887Z" fill="white"/>
<path d="M205.505 245.038C204.028 244.966 202.585 244.572 201.277 243.883C180.135 232.869 163.694 214.665 153.795 201.602C149.939 196.578 146.392 191.324 143.174 185.869L148.248 164.164C148.248 164.164 153.024 176.581 172.213 188.788C191.403 200.994 214.198 205.017 221.573 217.347C228.115 228.225 216.611 245.597 205.505 245.038Z" fill="white"/>
<path d="M206.015 245.671H205.481C203.911 245.588 202.379 245.164 200.991 244.429C179.849 233.427 163.371 215.273 153.298 201.975C149.434 196.941 145.879 191.679 142.652 186.217C142.576 186.086 142.553 185.93 142.59 185.782L147.664 164.077C147.695 163.949 147.765 163.834 147.866 163.749C147.966 163.664 148.091 163.612 148.223 163.603C148.354 163.593 148.486 163.625 148.597 163.695C148.709 163.765 148.796 163.868 148.845 163.99C148.845 164.114 153.82 176.333 172.562 188.316C180.123 193.146 188.095 196.61 195.805 199.963C207.483 205.054 217.569 209.437 222.12 217.024C225.155 222.09 224.608 229.218 220.802 235.65C217.096 241.747 211.35 245.671 206.015 245.671ZM205.543 244.429C210.592 244.665 216.138 240.977 219.733 235.004C223.327 229.032 223.861 222.351 221.051 217.682C216.711 210.431 206.786 206.122 195.308 201.118C187.204 197.823 179.374 193.895 171.89 189.371C156.643 179.623 150.45 169.913 148.46 166.113L143.846 185.869C147.032 191.2 150.52 196.345 154.293 201.279C164.242 214.466 180.608 232.484 201.551 243.386C202.791 244.014 204.153 244.366 205.543 244.417V244.429Z" fill="#243344"/>
<mask id="mask0_1730_25269" style="mask-type:luminance" maskUnits="userSpaceOnUse" x="143" y="164" width="81" height="82">
<mask id="mask1_1730_25269" style="mask-type:luminance" maskUnits="userSpaceOnUse" x="143" y="164" width="81" height="82">
<path d="M205.505 245.038C204.028 244.966 202.585 244.572 201.277 243.883C180.135 232.869 163.694 214.665 153.795 201.602C149.939 196.578 146.392 191.324 143.174 185.869L148.248 164.164C148.248 164.164 153.024 176.581 172.213 188.788C191.403 200.994 214.198 205.017 221.573 217.347C228.115 228.225 216.611 245.597 205.505 245.038Z" fill="white"/>
</mask>
<g mask="url(#mask1_1730_25269)">
<path d="M206.015 245.671H205.481C203.911 245.588 202.379 245.164 200.991 244.429C179.849 233.428 163.371 215.274 153.298 201.975C149.434 196.942 145.879 191.679 142.652 186.217C142.576 186.086 142.553 185.93 142.59 185.783L147.664 164.077C147.695 163.949 147.765 163.834 147.866 163.749C147.966 163.664 148.091 163.613 148.223 163.603C148.354 163.593 148.486 163.626 148.597 163.695C148.709 163.765 148.796 163.868 148.845 163.99C148.845 164.114 153.82 176.333 172.562 188.316C180.123 193.146 188.095 196.611 195.805 199.963C207.483 205.054 217.569 209.438 222.12 217.024C225.155 222.091 224.608 229.218 220.802 235.65C217.096 241.747 211.35 245.671 206.015 245.671ZM205.543 244.429C210.592 244.665 216.138 240.977 219.733 235.005C223.327 229.032 223.861 222.352 221.051 217.683C216.711 210.431 206.786 206.122 195.308 201.118C187.204 197.823 179.374 193.896 171.89 189.371C156.643 179.624 150.45 169.913 148.46 166.114L143.846 185.87C147.032 191.2 150.52 196.345 154.293 201.279C164.242 214.467 180.608 232.484 201.551 243.386C202.791 244.015 204.153 244.366 205.543 244.417V244.429Z" fill="white"/>
</g>
</mask>
<g mask="url(#mask0_1730_25269)">
<path opacity="0.4" d="M205.505 245.038C205.27 243.468 204.852 241.93 204.262 240.456C199.822 229.355 172.959 207.289 172.959 207.289C166.567 207.091 159.541 204.433 153.82 201.602C149.955 196.578 146.4 191.324 143.174 185.869L148.248 164.164C148.248 164.164 153.024 176.581 172.213 188.788C191.403 200.994 214.198 205.017 221.573 217.347C228.115 228.225 216.611 245.597 205.505 245.038Z" fill="#FFBD00"/>
</g>
<path d="M157.625 184.628C157.625 184.628 155.001 196.213 148.087 193.618C144.356 192.215 137.168 181.089 135.812 175.476L157.625 184.628Z" fill="white"/>
<path d="M150.052 194.636C149.306 194.631 148.568 194.488 147.875 194.214C143.908 192.724 136.608 181.412 135.203 175.588C135.175 175.476 135.179 175.359 135.215 175.249C135.25 175.14 135.315 175.042 135.403 174.967C135.491 174.893 135.598 174.844 135.712 174.826C135.825 174.809 135.942 174.823 136.048 174.868L157.874 184.019C158.007 184.081 158.115 184.186 158.181 184.316C158.246 184.447 158.265 184.596 158.235 184.739C158.173 185.025 156.593 191.78 152.601 193.928C151.824 194.374 150.948 194.618 150.052 194.636ZM136.77 176.569C138.759 182.467 145.239 191.904 148.311 193.047C148.903 193.309 149.548 193.43 150.195 193.402C150.842 193.374 151.474 193.197 152.041 192.885C154.964 191.321 156.494 186.565 156.929 185.013L136.77 176.569Z" fill="#243344"/>
<path d="M127.144 113.39L132.79 110.484C132.79 110.484 148.758 110.621 158.658 118.655C167.649 125.956 172.201 137.392 172.201 137.392C172.201 137.392 207.135 118.133 242.814 129.185L257.377 210.158L190.433 214.566L148.671 174.93L127.144 113.39Z" fill="white"/>
<path d="M190.433 215.187C190.27 215.188 190.114 215.125 189.997 215.013L148.248 175.377C148.176 175.307 148.121 175.222 148.087 175.128L126.559 113.601C126.509 113.46 126.512 113.306 126.567 113.166C126.622 113.027 126.725 112.913 126.858 112.843L132.504 109.925C132.596 109.877 132.698 109.852 132.802 109.851C133.462 109.851 149.094 110.099 159.043 118.17C166.953 124.59 171.405 133.99 172.512 136.523C177.349 134.04 210.045 118.381 243.001 128.588C243.109 128.623 243.205 128.686 243.28 128.772C243.355 128.857 243.404 128.961 243.424 129.073L257.987 210.046C258.003 210.132 258 210.221 257.979 210.306C257.958 210.391 257.92 210.471 257.866 210.541C257.812 210.61 257.744 210.667 257.666 210.708C257.588 210.749 257.502 210.773 257.415 210.778L190.52 215.187H190.433ZM149.206 174.582L190.656 213.932L256.569 209.586L242.193 129.669C207.371 119.064 172.773 137.74 172.425 137.939C172.345 137.975 172.258 137.995 172.17 137.995C172.082 137.995 171.995 137.975 171.915 137.939C171.83 137.909 171.753 137.862 171.689 137.799C171.624 137.737 171.574 137.662 171.542 137.579C171.542 137.467 166.94 126.204 158.185 119.102C149.082 111.713 134.556 111.105 132.865 111.068L127.89 113.663L149.206 174.582Z" fill="#243344"/>
<path d="M261.966 213.399C261.966 213.399 254.119 213.163 243.623 213.51C227.754 214.007 205.829 215.795 195.805 221.619L195.332 221.457L186.154 218.266L185.968 217.993C184.277 215.509 170.634 195.952 151.146 187.993L123.587 111.105C123.587 111.105 152.191 112.347 167.823 138.15L175.671 140.981C175.671 140.981 222.369 127.173 248.51 132.14L261.966 213.399Z" fill="#FFBD00"/>
<path d="M195.805 222.24C195.739 222.252 195.672 222.252 195.606 222.24L185.955 218.887C185.832 218.851 185.726 218.771 185.657 218.663C185.584 218.573 185.518 218.477 185.458 218.378C183.966 216.168 170.323 196.536 150.935 188.576C150.855 188.544 150.783 188.495 150.723 188.433C150.663 188.371 150.616 188.297 150.586 188.216L123.027 111.366C122.995 111.268 122.987 111.165 123.002 111.064C123.017 110.962 123.056 110.866 123.115 110.782C123.174 110.697 123.254 110.629 123.348 110.586C123.442 110.542 123.546 110.524 123.649 110.534C123.935 110.534 152.626 112.123 168.271 137.69L175.733 140.373C179.078 139.404 223.538 126.8 248.672 131.581C248.796 131.606 248.91 131.669 248.999 131.759C249.088 131.85 249.147 131.965 249.169 132.09L262.563 213.299C262.578 213.39 262.572 213.482 262.546 213.57C262.52 213.659 262.475 213.74 262.414 213.808C262.353 213.876 262.278 213.929 262.194 213.966C262.111 214.002 262.02 214.02 261.929 214.019C261.842 214.019 253.982 213.783 243.623 214.131C227.368 214.64 205.928 216.441 196.091 222.153C196.006 222.208 195.907 222.238 195.805 222.24ZM186.552 217.745L195.743 220.936C205.903 215.211 227.344 213.399 243.61 212.889C252.154 212.604 259.019 212.716 261.233 212.753L248 132.674C222.22 128.017 176.342 141.44 175.87 141.577C175.745 141.621 175.609 141.621 175.484 141.577L167.637 138.684C167.504 138.634 167.39 138.542 167.313 138.423C153.633 115.848 129.569 112.26 124.52 111.751L151.668 187.496C171.256 195.629 184.985 215.385 186.49 217.62L186.552 217.745Z" fill="#243344"/>
<mask id="mask2_1730_25269" style="mask-type:luminance" maskUnits="userSpaceOnUse" x="123" y="111" width="139" height="111">
<mask id="mask3_1730_25269" style="mask-type:luminance" maskUnits="userSpaceOnUse" x="123" y="111" width="139" height="111">
<path d="M261.966 213.399C261.966 213.399 254.119 213.163 243.623 213.51C227.754 214.007 205.829 215.795 195.805 221.619L195.332 221.457L186.154 218.266L185.968 217.993C184.277 215.509 170.634 195.952 151.146 187.993L123.587 111.105C123.587 111.105 152.191 112.347 167.823 138.15L175.671 140.981C175.671 140.981 222.369 127.173 248.51 132.14L261.966 213.399Z" fill="white"/>
</mask>
<g mask="url(#mask3_1730_25269)">
<path d="M195.805 222.24C195.739 222.252 195.672 222.252 195.606 222.24L185.955 218.887C185.832 218.851 185.726 218.771 185.657 218.663C185.584 218.573 185.518 218.477 185.458 218.378C183.966 216.168 170.323 196.536 150.935 188.576C150.855 188.544 150.783 188.495 150.723 188.433C150.663 188.371 150.616 188.297 150.586 188.216L123.027 111.366C122.995 111.268 122.987 111.165 123.002 111.064C123.017 110.962 123.056 110.866 123.115 110.782C123.174 110.697 123.254 110.629 123.348 110.586C123.442 110.542 123.546 110.524 123.649 110.534C123.935 110.534 152.626 112.123 168.271 137.69L175.733 140.373C179.078 139.404 223.538 126.8 248.672 131.581C248.796 131.606 248.91 131.669 248.999 131.759C249.088 131.85 249.147 131.965 249.169 132.09L262.563 213.299C262.578 213.39 262.572 213.482 262.546 213.57C262.52 213.659 262.475 213.74 262.414 213.808C262.353 213.876 262.278 213.929 262.194 213.966C262.111 214.002 262.02 214.02 261.929 214.019C261.842 214.019 253.982 213.783 243.623 214.131C227.368 214.64 205.928 216.441 196.091 222.153C196.006 222.208 195.907 222.238 195.805 222.24ZM186.552 217.745L195.743 220.936C205.903 215.211 227.344 213.399 243.61 212.889C252.154 212.604 259.019 212.716 261.233 212.753L248 132.674C222.22 128.017 176.342 141.44 175.87 141.577C175.745 141.621 175.609 141.621 175.484 141.577L167.637 138.684C167.504 138.634 167.39 138.542 167.313 138.423C153.633 115.848 129.569 112.26 124.52 111.751L151.668 187.496C171.256 195.629 184.985 215.385 186.49 217.62L186.552 217.745Z" fill="white"/>
</g>
</mask>
<g mask="url(#mask2_1730_25269)">
<path opacity="0.3" d="M185.968 217.993C184.277 215.509 170.634 195.952 151.146 187.993L123.587 111.105C123.587 111.105 152.191 112.347 167.823 138.15L185.968 217.993Z" fill="black" fill-opacity="0.7"/>
<path opacity="0.3" d="M243.623 213.51C227.754 214.007 205.829 215.795 195.805 221.619L195.333 221.457L177.001 143.775C177.001 143.775 192 140.41 196.613 142.111C196.651 142.111 227.095 164.574 243.623 213.51Z" fill="black" fill-opacity="0.7"/>
</g>
<path d="M193.691 216.143C193.552 216.143 193.418 216.097 193.309 216.011C193.201 215.926 193.125 215.805 193.094 215.671L175.086 141.167C175.049 141.007 175.076 140.84 175.162 140.7C175.248 140.56 175.386 140.46 175.546 140.422C175.706 140.384 175.874 140.409 176.016 140.493C176.157 140.576 176.261 140.711 176.305 140.869L194.3 215.373C194.338 215.534 194.311 215.704 194.225 215.845C194.139 215.987 194.001 216.089 193.84 216.13L193.691 216.143Z" fill="#243344"/>
<path d="M186.154 218.887C186.016 218.888 185.882 218.841 185.773 218.756C185.665 218.67 185.589 218.55 185.558 218.415L168.072 143.911C168.035 143.752 168.062 143.584 168.148 143.444C168.234 143.305 168.372 143.205 168.532 143.166C168.611 143.146 168.694 143.142 168.775 143.154C168.856 143.167 168.933 143.195 169.003 143.238C169.073 143.281 169.133 143.337 169.18 143.404C169.227 143.471 169.261 143.546 169.278 143.626L186.764 218.13C186.801 218.289 186.774 218.457 186.688 218.597C186.601 218.736 186.463 218.836 186.304 218.875L186.154 218.887Z" fill="#243344"/>
<path d="M141.732 186.031C137.74 184.926 129.693 160.973 133.387 150.654C133.387 150.654 137.765 143.067 139.605 142.545C142.391 141.738 153.633 141.974 153.099 143.862C151.855 148.233 143.15 148.158 143.15 148.158L140.351 153.274L140.476 156.093C140.476 156.093 144.53 153.137 146.022 153.224C146.793 153.224 150.773 155.211 153.932 156.875C156.631 158.303 158.285 159.085 157.663 160.377C155.66 164.673 147.129 161.618 147.129 161.618L143.921 166.449C143.921 166.449 147.017 166.983 148.385 167.132C149.753 167.281 160.983 174.768 160.647 175.7C159.317 179.35 148.646 175.402 148.646 175.402L146.756 176.966C146.756 176.966 154.628 179.003 155.462 179.301C156.705 179.76 161.506 183.436 161.431 183.858C160.846 187.086 154.243 184.715 154.243 184.715L148.472 184.479C147.586 185.253 146.522 185.799 145.376 186.068" fill="white"/>
<path d="M145.363 186.726C145.223 186.727 145.087 186.682 144.976 186.596C144.866 186.51 144.787 186.39 144.754 186.254C144.716 186.095 144.744 185.927 144.83 185.787C144.916 185.647 145.054 185.548 145.214 185.509C146.252 185.258 147.215 184.765 148.025 184.069C148.085 184.01 148.158 183.965 148.237 183.935C148.316 183.905 148.4 183.891 148.485 183.895L154.255 184.131H154.442C155.573 184.528 158.819 185.373 160.212 184.603C160.341 184.537 160.454 184.446 160.546 184.335C160.638 184.224 160.707 184.095 160.747 183.957C159.08 182.385 157.23 181.017 155.238 179.884C154.603 179.648 148.808 178.133 146.619 177.575C146.508 177.545 146.408 177.485 146.329 177.402C146.25 177.319 146.195 177.215 146.172 177.103C146.149 176.992 146.157 176.877 146.194 176.77C146.231 176.663 146.296 176.568 146.383 176.494L148.273 174.93C148.356 174.858 148.455 174.81 148.563 174.791C148.67 174.771 148.78 174.781 148.883 174.818C150.984 175.6 156.954 177.376 159.292 176.283C159.594 176.161 159.847 175.942 160.013 175.662C158.969 174.234 149.728 167.951 148.335 167.753C146.943 167.554 143.97 167.082 143.846 167.057C143.743 167.04 143.647 166.997 143.566 166.932C143.486 166.867 143.423 166.781 143.386 166.685C143.334 166.596 143.307 166.495 143.307 166.393C143.307 166.29 143.334 166.19 143.386 166.101L146.582 161.283C146.657 161.168 146.769 161.081 146.9 161.036C147.031 160.991 147.172 160.99 147.303 161.035C147.39 161.035 155.325 163.816 157.066 160.079C157.364 159.445 156.469 158.911 154.044 157.595L153.596 157.359C151.147 155.957 148.589 154.753 145.948 153.758C145.09 153.758 142.403 155.348 140.787 156.527C140.69 156.582 140.581 156.61 140.469 156.61C140.358 156.61 140.249 156.582 140.152 156.527C140.049 156.482 139.961 156.407 139.899 156.312C139.837 156.217 139.804 156.107 139.804 155.993L139.68 153.175C139.679 153.063 139.705 152.952 139.754 152.852L142.553 147.736C142.607 147.639 142.687 147.558 142.783 147.501C142.879 147.444 142.988 147.414 143.1 147.413C143.46 147.413 151.283 147.413 152.365 143.564C151.706 142.657 142.54 142.185 139.655 143.017C138.685 143.303 135.924 147.227 133.86 150.84C131.186 158.365 135.103 174.16 139.021 181.685C140.625 184.764 141.582 185.236 141.844 185.311C141.922 185.333 141.995 185.371 142.059 185.422C142.123 185.474 142.176 185.537 142.215 185.608C142.254 185.68 142.279 185.758 142.288 185.839C142.297 185.92 142.289 186.002 142.267 186.08C142.245 186.158 142.208 186.231 142.158 186.294C142.108 186.358 142.046 186.411 141.976 186.45C141.905 186.489 141.827 186.514 141.747 186.523C141.667 186.532 141.585 186.525 141.508 186.503C140.438 186.217 139.232 184.777 137.914 182.256C133.81 174.346 129.855 158.378 132.74 150.331C133.536 148.928 137.379 142.397 139.307 141.838C141.62 141.155 151.507 141.068 153.248 142.794C153.4 142.932 153.512 143.109 153.569 143.307C153.626 143.504 153.627 143.714 153.571 143.911C152.328 148.171 145.214 148.605 143.46 148.655L140.911 153.299L140.986 154.814C142.366 153.882 144.716 152.417 145.96 152.479C147.204 152.541 152.974 155.596 154.131 156.205L154.566 156.44C157.128 157.781 158.969 158.762 158.148 160.513C156.195 164.698 149.206 162.86 147.303 162.277L145.002 166.002C146.022 166.176 147.614 166.436 148.472 166.536C150.176 166.722 160.1 173.465 161.132 175.116C161.213 175.232 161.266 175.365 161.288 175.505C161.31 175.645 161.299 175.788 161.257 175.923C161.133 176.259 160.941 176.567 160.693 176.825C160.445 177.084 160.145 177.288 159.814 177.426C156.867 178.792 150.375 176.668 148.796 176.122L148.112 176.693C150.387 177.277 155.026 178.494 155.66 178.729C156.295 178.965 162.239 182.815 162.028 183.982C161.96 184.341 161.813 184.681 161.598 184.978C161.383 185.274 161.105 185.519 160.784 185.696C158.745 186.875 154.84 185.609 154.069 185.335L148.621 185.124C147.695 185.869 146.617 186.402 145.463 186.689L145.363 186.726Z" fill="#243344"/>
<path d="M135.053 164.536C134.899 164.537 134.749 164.48 134.634 164.377C134.519 164.274 134.447 164.131 134.432 163.978C134.432 163.444 134.183 160.724 135.364 159.669C136.546 158.613 140.065 155.621 140.065 155.621L140.874 156.565C140.874 156.565 137.143 159.694 136.185 160.588C135.663 161.06 135.563 162.786 135.675 163.853C135.689 164.018 135.639 164.181 135.534 164.308C135.43 164.436 135.28 164.518 135.116 164.536H135.053Z" fill="#243344"/>
<path d="M142.092 182.752C141.964 182.752 141.838 182.713 141.732 182.641C139.667 181.163 140.065 179.263 140.326 177.997C140.438 177.5 140.55 176.929 140.413 176.755L140.165 176.507C139.256 175.726 138.518 174.765 137.998 173.686C137.478 172.607 137.187 171.433 137.143 170.236C137.146 170.073 137.213 169.919 137.329 169.805C137.445 169.691 137.602 169.627 137.765 169.627C137.846 169.627 137.926 169.644 138.001 169.675C138.075 169.706 138.143 169.752 138.2 169.81C138.257 169.868 138.301 169.936 138.331 170.012C138.361 170.087 138.376 170.167 138.374 170.248C138.426 171.28 138.689 172.291 139.147 173.218C139.604 174.144 140.247 174.968 141.035 175.637L141.296 175.898C141.893 176.519 141.707 177.388 141.533 178.233C141.272 179.474 141.035 180.604 142.441 181.61C142.507 181.656 142.564 181.715 142.608 181.783C142.652 181.851 142.682 181.927 142.696 182.007C142.71 182.087 142.707 182.169 142.689 182.248C142.671 182.327 142.637 182.401 142.59 182.467C142.537 182.552 142.464 182.622 142.377 182.672C142.29 182.722 142.192 182.749 142.092 182.752Z" fill="#243344"/>
<path d="M321.972 270.307C314.075 272.455 305.494 258.597 295.022 243.473C288.108 233.539 280.372 222.947 271.48 216.155C270.771 215.621 270.05 215.1 269.329 214.603L274.527 188.527C285.322 194.176 292.013 203.229 303.218 212.529C321.251 227.517 337.231 236.718 341.659 243.349C346.086 249.98 335.503 266.582 321.972 270.307Z" fill="white"/>
<path d="M320.28 271.089C313.279 271.089 306.14 260.696 297.298 247.807L294.512 243.759V243.684C287.909 234.148 280.123 223.419 271.157 216.54C270.46 216.006 269.739 215.497 269.03 215C268.941 214.936 268.871 214.849 268.827 214.749C268.783 214.648 268.768 214.538 268.782 214.429L273.98 188.353C274.002 188.259 274.044 188.171 274.105 188.096C274.165 188.021 274.241 187.96 274.328 187.918C274.414 187.873 274.51 187.849 274.608 187.849C274.706 187.849 274.802 187.873 274.888 187.918C281.889 191.581 287.324 196.784 293.032 202.285C296.303 205.427 299.686 208.68 303.678 211.983C311.277 218.303 318.39 223.506 324.67 228.125C333.376 234.471 339.594 239.053 342.243 243.026C343.711 245.236 343.735 248.552 342.305 252.376C339.594 259.628 331.809 268.32 322.196 270.94C321.568 271.081 320.923 271.131 320.28 271.089ZM295.582 243.125C296.515 244.466 297.422 245.795 298.318 247.099C307.297 260.187 315.057 271.486 321.81 269.649C330.926 267.165 338.537 258.622 341.074 251.842C342.318 248.403 342.392 245.485 341.149 243.622C338.661 239.897 332.12 235.116 323.875 229.081C317.582 224.475 310.443 219.272 302.82 212.939C298.803 209.599 295.358 206.333 292.112 203.179C286.416 197.703 281.467 192.96 274.975 189.408L270 214.243C270.61 214.665 271.244 215.112 271.828 215.571C280.969 222.587 288.841 233.44 295.458 243.076L295.582 243.125Z" fill="#243344"/>
<mask id="mask4_1730_25269" style="mask-type:luminance" maskUnits="userSpaceOnUse" x="269" y="188" width="74" height="83">
<mask id="mask5_1730_25269" style="mask-type:luminance" maskUnits="userSpaceOnUse" x="269" y="188" width="74" height="83">
<path d="M321.972 270.307C314.075 272.455 305.494 258.597 295.022 243.473C288.108 233.539 280.372 222.947 271.48 216.155C270.771 215.621 270.05 215.1 269.329 214.603L274.527 188.527C285.322 194.176 292.013 203.229 303.218 212.529C321.251 227.517 337.231 236.718 341.659 243.349C346.086 249.98 335.503 266.582 321.972 270.307Z" fill="white"/>
</mask>
<g mask="url(#mask5_1730_25269)">
<path d="M320.28 271.089C313.279 271.089 306.14 260.696 297.298 247.807L294.512 243.759V243.684C287.909 234.148 280.123 223.419 271.157 216.54C270.46 216.006 269.739 215.497 269.03 215C268.941 214.936 268.871 214.849 268.827 214.749C268.783 214.648 268.768 214.538 268.782 214.429L273.98 188.353C274.002 188.259 274.044 188.171 274.105 188.096C274.165 188.021 274.241 187.96 274.328 187.918C274.414 187.873 274.51 187.849 274.608 187.849C274.706 187.849 274.802 187.873 274.888 187.918C281.889 191.581 287.324 196.784 293.032 202.285C296.303 205.427 299.686 208.68 303.678 211.983C311.277 218.303 318.39 223.506 324.67 228.125C333.376 234.471 339.594 239.053 342.243 243.026C343.711 245.236 343.735 248.552 342.305 252.376C339.594 259.628 331.809 268.32 322.196 270.94C321.568 271.081 320.923 271.131 320.28 271.089ZM295.582 243.125C296.515 244.466 297.422 245.795 298.318 247.099C307.297 260.187 315.057 271.486 321.81 269.649C330.926 267.165 338.537 258.622 341.074 251.842C342.318 248.403 342.392 245.485 341.149 243.622C338.661 239.897 332.12 235.116 323.875 229.081C317.582 224.475 310.443 219.272 302.82 212.939C298.803 209.599 295.358 206.333 292.112 203.179C286.416 197.703 281.467 192.96 274.975 189.408L270 214.243C270.61 214.665 271.244 215.112 271.828 215.571C280.969 222.587 288.841 233.44 295.458 243.076L295.582 243.125Z" fill="white"/>
</g>
</mask>
<g mask="url(#mask4_1730_25269)">
<path opacity="0.4" d="M295.022 243.399C288.108 233.465 280.372 222.873 271.48 216.081C272.652 216.14 273.824 215.963 274.925 215.559C274.925 215.559 288.978 226.946 295.022 243.399Z" fill="#FFBD00"/>
</g>
<path d="M277.487 213.51C276.947 214.474 276.056 215.194 275 215.522C274.719 215.632 274.432 215.727 274.142 215.807H273.905C265.561 217.98 246.782 213.46 246.782 213.46C246.782 213.46 234.482 207.624 233.736 206.246C233.216 205.154 232.755 204.035 232.356 202.893L232.02 201.912C232.02 201.912 227.592 199.429 227.045 197.492C226.498 195.555 225.565 195.008 228.289 194.661C231.012 194.313 245.7 194.661 245.7 194.661L229.719 188.154C229.719 188.154 219.136 182.827 218.153 180.952C217.171 179.077 215.94 177.835 221.349 178.58C226.759 179.325 238.574 182.752 238.574 182.752L247.826 184.714L238.574 180.778C238.574 180.778 220.367 178.58 223.812 172.93H234.146C240.001 173.188 245.824 173.928 251.557 175.141C254.567 176.06 274.465 188.402 274.465 188.402" fill="white"/>
<path d="M267.986 217.074C258.982 217.074 247.18 214.255 246.57 214.119H246.446C243.511 212.728 233.898 208.084 233.114 206.668C232.58 205.548 232.107 204.4 231.696 203.229L231.435 202.459C230.453 201.888 226.921 199.74 226.461 197.765C226.367 197.412 226.255 197.064 226.125 196.722C225.901 196.101 225.702 195.567 226.013 195.058C226.324 194.549 227.058 194.326 228.202 194.164C230.142 193.916 237.865 194.003 242.404 194.09L229.532 188.85C227.692 187.931 218.675 183.311 217.656 181.399L217.37 180.878C216.897 180.021 216.462 179.226 216.922 178.543C217.382 177.86 218.601 177.724 221.486 178.121C226.883 178.854 238.312 182.182 238.798 182.318L241.745 182.939L238.462 181.548C236.733 181.325 225.055 179.748 223.103 175.712C222.879 175.244 222.783 174.726 222.825 174.209C222.866 173.692 223.044 173.196 223.339 172.769C223.393 172.679 223.469 172.604 223.561 172.551C223.652 172.499 223.756 172.471 223.861 172.471H234.196C240.131 172.722 246.034 173.47 251.843 174.706C254.89 175.638 274.079 187.533 274.9 188.03C275.038 188.119 275.136 188.259 275.173 188.418C275.21 188.578 275.184 188.746 275.099 188.887C275.057 188.958 275.001 189.019 274.935 189.068C274.868 189.116 274.793 189.151 274.713 189.169C274.633 189.188 274.549 189.19 274.468 189.176C274.387 189.161 274.31 189.131 274.241 189.086C267.376 184.839 253.796 176.606 251.483 175.898C245.79 174.698 240.009 173.967 234.196 173.713H224.247C224.13 173.94 224.069 174.191 224.069 174.446C224.069 174.7 224.13 174.952 224.247 175.178C225.69 178.133 235.191 179.897 238.723 180.319H238.897L248.15 184.255C248.291 184.316 248.406 184.427 248.47 184.567C248.534 184.707 248.544 184.866 248.498 185.013C248.452 185.16 248.352 185.285 248.219 185.363C248.086 185.441 247.928 185.467 247.777 185.435L238.462 183.386C232.81 181.71 227.078 180.318 221.287 179.214C218.526 178.841 217.992 179.065 217.892 179.139C217.793 179.214 218.215 179.773 218.414 180.133C218.613 180.493 218.626 180.493 218.725 180.691C219.372 181.933 225.988 185.596 230.017 187.62L245.948 194.115C246.03 194.13 246.108 194.161 246.177 194.207C246.247 194.252 246.307 194.311 246.354 194.38C246.4 194.448 246.433 194.526 246.45 194.607C246.467 194.688 246.468 194.772 246.452 194.853C246.437 194.935 246.405 195.013 246.36 195.082C246.314 195.151 246.255 195.211 246.186 195.258C246.118 195.305 246.04 195.337 245.959 195.354C245.878 195.371 245.794 195.372 245.712 195.356C245.563 195.356 230.975 194.996 228.301 195.356C227.845 195.365 227.395 195.47 226.983 195.667C227.08 195.853 227.16 196.049 227.219 196.25C227.363 196.633 227.488 197.022 227.592 197.417C227.903 198.659 230.59 200.547 232.219 201.441C232.352 201.519 232.453 201.643 232.505 201.788L232.841 202.769C233.226 203.882 233.674 204.973 234.184 206.035C234.694 206.817 241.024 210.17 246.881 212.939C248.125 213.225 265.772 217.322 273.644 215.286H273.868C274.142 215.199 274.403 215.125 274.652 215.025C275.58 214.76 276.369 214.146 276.853 213.312C276.925 213.163 277.054 213.05 277.21 212.997C277.366 212.943 277.538 212.954 277.686 213.026C277.834 213.098 277.948 213.227 278.002 213.383C278.055 213.539 278.045 213.71 277.972 213.858C277.358 214.974 276.331 215.807 275.112 216.18C274.838 216.292 274.527 216.379 274.204 216.478H273.955C271.998 216.924 269.993 217.124 267.986 217.074Z" fill="#243344"/>
<mask id="mask6_1730_25269" style="mask-type:luminance" maskUnits="userSpaceOnUse" x="217" y="172" width="61" height="45">
<mask id="mask7_1730_25269" style="mask-type:luminance" maskUnits="userSpaceOnUse" x="217" y="172" width="61" height="45">
<path d="M277.487 213.51C276.947 214.474 276.056 215.194 275 215.522C274.719 215.632 274.432 215.727 274.142 215.807H273.905C265.561 217.98 246.782 213.46 246.782 213.46C246.782 213.46 234.482 207.624 233.736 206.246C233.216 205.154 232.755 204.035 232.356 202.893L232.02 201.912C232.02 201.912 227.592 199.429 227.045 197.492C226.498 195.555 225.565 195.008 228.289 194.661C231.012 194.313 245.7 194.661 245.7 194.661L229.719 188.154C229.719 188.154 219.136 182.827 218.153 180.952C217.171 179.077 215.94 177.835 221.349 178.58C226.759 179.325 238.574 182.752 238.574 182.752L247.826 184.714L238.574 180.778C238.574 180.778 220.367 178.58 223.812 172.93H234.146C240.001 173.188 245.824 173.928 251.557 175.141C254.567 176.06 274.465 188.402 274.465 188.402" fill="white"/>
</mask>
<g mask="url(#mask7_1730_25269)">
<path d="M267.986 217.074C258.982 217.074 247.18 214.255 246.57 214.118H246.446C243.511 212.728 233.898 208.084 233.114 206.668C232.58 205.548 232.107 204.4 231.696 203.229L231.435 202.459C230.453 201.887 226.921 199.739 226.461 197.765C226.367 197.412 226.255 197.063 226.125 196.722C225.901 196.101 225.702 195.567 226.013 195.058C226.324 194.549 227.058 194.325 228.202 194.164C230.142 193.916 237.865 194.003 242.404 194.089L229.532 188.849C227.692 187.93 218.675 183.311 217.656 181.399L217.37 180.877C216.897 180.021 216.462 179.226 216.922 178.543C217.382 177.86 218.601 177.723 221.486 178.121C226.883 178.853 238.312 182.181 238.798 182.318L241.745 182.939L238.462 181.548C236.733 181.324 225.055 179.747 223.103 175.712C222.879 175.244 222.783 174.725 222.825 174.209C222.866 173.692 223.044 173.195 223.339 172.769C223.393 172.678 223.469 172.603 223.561 172.551C223.652 172.499 223.756 172.471 223.861 172.471H234.196C240.131 172.722 246.034 173.47 251.843 174.706C254.89 175.637 274.079 187.533 274.9 188.03C275.038 188.119 275.136 188.258 275.173 188.418C275.21 188.578 275.184 188.746 275.099 188.887C275.057 188.957 275.001 189.019 274.935 189.067C274.868 189.116 274.793 189.15 274.713 189.169C274.633 189.188 274.549 189.19 274.468 189.175C274.387 189.161 274.31 189.13 274.241 189.085C267.376 184.839 253.796 176.606 251.483 175.898C245.79 174.697 240.009 173.966 234.196 173.713H224.247C224.13 173.939 224.069 174.19 224.069 174.445C224.069 174.7 224.13 174.951 224.247 175.178C225.69 178.133 235.191 179.896 238.723 180.319H238.897L248.15 184.255C248.291 184.316 248.406 184.427 248.47 184.567C248.534 184.707 248.544 184.866 248.498 185.012C248.452 185.16 248.352 185.285 248.219 185.363C248.086 185.441 247.928 185.466 247.777 185.435L238.462 183.386C232.81 181.71 227.078 180.317 221.287 179.214C218.526 178.841 217.992 179.065 217.892 179.139C217.793 179.214 218.215 179.772 218.414 180.132C218.613 180.493 218.626 180.493 218.725 180.691C219.372 181.933 225.988 185.596 230.017 187.62L245.948 194.114C246.03 194.13 246.108 194.161 246.177 194.207C246.247 194.252 246.307 194.311 246.354 194.38C246.4 194.448 246.433 194.525 246.45 194.607C246.467 194.688 246.468 194.772 246.452 194.853C246.437 194.935 246.405 195.012 246.36 195.082C246.314 195.151 246.255 195.211 246.186 195.258C246.118 195.304 246.04 195.337 245.959 195.354C245.878 195.371 245.794 195.372 245.712 195.356C245.563 195.356 230.975 194.996 228.301 195.356C227.845 195.364 227.395 195.47 226.983 195.666C227.08 195.853 227.16 196.048 227.219 196.25C227.363 196.632 227.488 197.022 227.592 197.417C227.903 198.659 230.59 200.546 232.219 201.44C232.352 201.519 232.453 201.642 232.505 201.788L232.841 202.769C233.226 203.882 233.674 204.973 234.184 206.035C234.694 206.817 241.024 210.17 246.881 212.939C248.125 213.224 265.772 217.322 273.644 215.286H273.868C274.142 215.199 274.403 215.124 274.652 215.025C275.58 214.76 276.369 214.145 276.853 213.311C276.925 213.163 277.054 213.05 277.21 212.996C277.366 212.943 277.538 212.953 277.686 213.026C277.834 213.098 277.948 213.227 278.002 213.383C278.055 213.539 278.045 213.71 277.972 213.858C277.358 214.974 276.331 215.807 275.112 216.18C274.838 216.292 274.527 216.378 274.204 216.478H273.955C271.998 216.924 269.993 217.124 267.986 217.074Z" fill="white"/>
</g>
</mask>
<g mask="url(#mask6_1730_25269)">
<path opacity="0.4" d="M273.831 215.857C265.486 218.03 246.707 213.51 246.707 213.51C246.707 213.51 234.408 207.674 233.661 206.296C233.141 205.204 232.681 204.085 232.281 202.943L247.379 204.632C246.85 205.582 246.573 206.65 246.573 207.736C246.573 208.822 246.85 209.891 247.379 210.84C249.058 213.821 268.185 216.913 273.831 215.857Z" fill="#FFBD00"/>
</g>
<path d="M250.127 205.253H250.027L231.858 202.583C231.778 202.572 231.7 202.546 231.63 202.505C231.56 202.464 231.499 202.41 231.45 202.345C231.402 202.28 231.367 202.206 231.347 202.128C231.327 202.049 231.323 201.968 231.336 201.888C231.36 201.726 231.447 201.58 231.576 201.481C231.706 201.381 231.869 201.336 232.032 201.354L250.214 204.023C250.296 204.029 250.375 204.051 250.449 204.087C250.522 204.124 250.587 204.174 250.641 204.236C250.695 204.298 250.736 204.369 250.762 204.447C250.788 204.524 250.798 204.606 250.792 204.688C250.787 204.769 250.765 204.849 250.728 204.922C250.692 204.995 250.641 205.06 250.579 205.114C250.518 205.168 250.446 205.209 250.368 205.234C250.291 205.26 250.209 205.271 250.127 205.265V205.253Z" fill="#243344"/>
<path d="M50.8345 257.517L96.364 271.176L179.688 252.19C179.688 252.19 128.786 237.724 128.313 238.072C127.84 238.419 50.8345 257.517 50.8345 257.517Z" fill="#FFBD00"/>
<path d="M96.364 271.834C96.3066 271.846 96.2473 271.846 96.1899 271.834L50.648 258.175C50.5181 258.132 50.4055 258.049 50.3271 257.937C50.2486 257.825 50.2085 257.691 50.2127 257.554C50.2169 257.419 50.2654 257.289 50.3507 257.183C50.436 257.078 50.5535 257.003 50.6853 256.971C76.8016 250.501 126.684 238.121 128.077 237.6C128.761 237.488 133.225 238.419 179.874 251.669C180.007 251.707 180.124 251.789 180.205 251.902C180.286 252.014 180.327 252.151 180.322 252.289C180.32 252.425 180.272 252.557 180.186 252.663C180.101 252.768 179.982 252.842 179.849 252.873L96.5257 271.859L96.364 271.834ZM53.185 257.567L96.3889 270.58L177.225 252.165C157.576 246.59 129.967 238.854 128.388 238.73C125.216 239.661 99.9705 245.994 53.185 257.567Z" fill="#243344"/>
<mask id="mask8_1730_25269" style="mask-type:luminance" maskUnits="userSpaceOnUse" x="50" y="238" width="130" height="34">
<mask id="mask9_1730_25269" style="mask-type:luminance" maskUnits="userSpaceOnUse" x="50" y="238" width="130" height="34">
<path d="M50.8345 257.517L96.364 271.176L179.688 252.19C179.688 252.19 128.786 237.724 128.313 238.072C127.84 238.419 50.8345 257.517 50.8345 257.517Z" fill="white"/>
</mask>
<g mask="url(#mask9_1730_25269)">
<path d="M96.364 271.834C96.3066 271.846 96.2473 271.846 96.1899 271.834L50.648 258.175C50.5181 258.132 50.4055 258.049 50.3271 257.937C50.2486 257.825 50.2085 257.691 50.2127 257.554C50.2169 257.419 50.2654 257.289 50.3507 257.183C50.436 257.078 50.5535 257.003 50.6853 256.971C76.8016 250.501 126.684 238.121 128.077 237.6C128.761 237.488 133.225 238.419 179.874 251.669C180.007 251.707 180.124 251.789 180.205 251.902C180.286 252.014 180.327 252.151 180.322 252.289C180.32 252.425 180.272 252.557 180.186 252.663C180.101 252.768 179.982 252.842 179.849 252.873L96.5257 271.859L96.364 271.834ZM53.185 257.567L96.3889 270.58L177.225 252.165C157.576 246.59 129.967 238.854 128.388 238.73C125.216 239.661 99.9705 245.994 53.185 257.567Z" fill="white"/>
</g>
</mask>
<g mask="url(#mask8_1730_25269)">
<path opacity="0.3" d="M50.8345 257.517L96.364 271.176L179.688 252.19C179.688 252.19 128.786 237.724 128.313 238.072C127.84 238.419 50.8345 257.517 50.8345 257.517Z" fill="black" fill-opacity="0.7"/>
</g>
<path d="M51.4812 241.499C48.2975 241.722 47.4891 253.221 50.8345 257.517L124.396 242.269L130.29 228.336L51.4812 241.499Z" fill="#FFBD00"/>
<path d="M50.8345 258.138C50.7378 258.139 50.6422 258.117 50.5557 258.074C50.4692 258.03 50.3943 257.967 50.337 257.889C47.6881 254.487 47.4394 246.714 49.0934 242.989C49.8271 241.362 50.7474 240.952 51.3941 240.89L130.178 227.74C130.289 227.723 130.402 227.734 130.506 227.774C130.611 227.813 130.704 227.878 130.775 227.964C130.844 228.05 130.888 228.154 130.901 228.264C130.914 228.373 130.896 228.484 130.85 228.585L124.955 242.529C124.915 242.621 124.853 242.701 124.775 242.764C124.698 242.827 124.606 242.87 124.507 242.889L50.9588 258.125L50.8345 258.138ZM129.283 229.131L51.5931 242.107C50.9837 242.107 50.5236 242.976 50.3495 243.473C48.882 246.764 49.1058 253.63 51.2076 256.809L123.948 241.747L129.283 229.131Z" fill="#243344"/>
<mask id="mask10_1730_25269" style="mask-type:luminance" maskUnits="userSpaceOnUse" x="48" y="228" width="83" height="30">
<mask id="mask11_1730_25269" style="mask-type:luminance" maskUnits="userSpaceOnUse" x="48" y="228" width="83" height="30">
<path d="M51.4812 241.499C48.2975 241.722 47.4891 253.221 50.8345 257.517L124.396 242.269L130.29 228.336L51.4812 241.499Z" fill="white"/>
</mask>
<g mask="url(#mask11_1730_25269)">
<path d="M50.8345 258.138C50.7378 258.139 50.6422 258.117 50.5557 258.074C50.4692 258.03 50.3943 257.967 50.337 257.889C47.6881 254.487 47.4394 246.714 49.0934 242.989C49.8271 241.362 50.7474 240.952 51.3941 240.89L130.178 227.74C130.289 227.723 130.402 227.734 130.506 227.774C130.611 227.813 130.704 227.878 130.775 227.964C130.844 228.05 130.888 228.154 130.901 228.264C130.914 228.373 130.896 228.484 130.85 228.585L124.955 242.529C124.915 242.621 124.853 242.701 124.775 242.764C124.698 242.827 124.606 242.87 124.507 242.889L50.9588 258.125L50.8345 258.138ZM129.283 229.131L51.5931 242.107C50.9837 242.107 50.5236 242.976 50.3495 243.473C48.882 246.764 49.1058 253.63 51.2076 256.809L123.948 241.747L129.283 229.131Z" fill="white"/>
</g>
</mask>
<g mask="url(#mask10_1730_25269)">
<path opacity="0.3" d="M51.4812 241.499C48.2975 241.722 47.4891 253.221 50.8345 257.517L124.396 242.269L130.29 228.336L51.4812 241.499Z" fill="black" fill-opacity="0.7"/>
</g>
<path d="M176.118 241.337C176.118 241.337 175.024 247.385 175.733 251.11L96.2768 269.065L54.3912 256.772C54.3912 256.772 50.0385 249.086 53.8316 243.113L130.365 230.137L176.118 241.337Z" fill="white"/>
<path d="M96.2769 269.686H96.1028L54.2172 257.393C54.1411 257.372 54.0701 257.335 54.0082 257.286C53.9463 257.237 53.8947 257.176 53.8565 257.107C53.67 256.772 49.3546 249.024 53.3093 242.827C53.4071 242.68 53.5591 242.578 53.7322 242.542L130.265 229.578C130.346 229.553 130.433 229.553 130.514 229.578L176.268 240.754C176.423 240.792 176.558 240.888 176.645 241.021C176.733 241.155 176.767 241.317 176.74 241.474C176.74 241.474 175.671 247.459 176.355 251.01C176.384 251.17 176.35 251.335 176.259 251.469C176.168 251.604 176.029 251.698 175.87 251.731L96.4137 269.674L96.2769 269.686ZM54.8763 256.251L96.3515 268.419L175.086 250.626C174.835 247.679 174.96 244.712 175.459 241.797L130.402 230.795L54.2172 243.697C51.2449 248.688 54.1923 255.009 54.8763 256.251Z" fill="#243344"/>
<path d="M51.4812 241.499L130.29 228.336L179.227 240.716L96.9236 257.095L51.4812 241.499Z" fill="#FFBD00"/>
<path d="M96.9236 257.716C96.858 257.729 96.7903 257.729 96.7247 257.716L51.2822 242.082C51.1514 242.039 51.0388 241.953 50.9622 241.838C50.8857 241.723 50.8495 241.587 50.8594 241.449C50.8736 241.312 50.9323 241.183 51.0266 241.082C51.1209 240.981 51.2456 240.914 51.3817 240.89L130.191 227.728C130.277 227.709 130.366 227.709 130.452 227.728L179.389 240.145C179.524 240.179 179.643 240.258 179.726 240.369C179.81 240.479 179.853 240.615 179.849 240.754C179.849 240.895 179.799 241.032 179.708 241.141C179.617 241.25 179.491 241.324 179.352 241.35L97.048 257.728L96.9236 257.716ZM54.0058 241.747L96.9609 256.486L176.417 240.679L130.265 229.007L54.0058 241.747Z" fill="#243344"/>
<path d="M95.9163 261.851C95.8589 261.863 95.7996 261.863 95.7422 261.851L54.0679 249.433C53.903 249.387 53.7632 249.278 53.6792 249.129C53.5953 248.979 53.5741 248.803 53.6202 248.639C53.6664 248.474 53.7762 248.334 53.9255 248.251C54.0747 248.167 54.2512 248.145 54.4162 248.192L95.9536 260.534L164.005 246.875C164.085 246.859 164.168 246.859 164.248 246.874C164.328 246.89 164.404 246.921 164.473 246.966C164.541 247.011 164.599 247.069 164.645 247.136C164.691 247.204 164.723 247.28 164.739 247.36C164.769 247.521 164.735 247.687 164.644 247.824C164.554 247.96 164.414 248.056 164.254 248.092L96.0406 261.751L95.9163 261.851Z" fill="#243344"/>
<path d="M102.134 265.042C101.993 265.042 101.855 264.995 101.744 264.907C101.634 264.819 101.556 264.695 101.525 264.558C101.492 264.395 101.524 264.225 101.615 264.086C101.705 263.946 101.847 263.848 102.01 263.812L175.384 248.192C175.544 248.158 175.711 248.189 175.848 248.277C175.986 248.366 176.083 248.504 176.118 248.663C176.137 248.743 176.139 248.826 176.125 248.907C176.111 248.988 176.081 249.065 176.037 249.134C175.994 249.204 175.936 249.263 175.869 249.31C175.802 249.358 175.726 249.391 175.646 249.408L102.271 265.029L102.134 265.042Z" fill="#243344"/>
<path d="M86.6885 263.875H86.5019C78.095 261.292 56.0826 254.537 55.1748 254.363C55.0152 254.333 54.8733 254.242 54.7784 254.111C54.6836 253.979 54.6429 253.816 54.6649 253.655C54.6866 253.498 54.769 253.355 54.8944 253.258C55.0199 253.161 55.1785 253.116 55.3365 253.134C55.9707 253.196 79.6246 260.46 86.8626 262.683C87.0275 262.706 87.1765 262.793 87.2768 262.926C87.3771 263.059 87.4205 263.226 87.3974 263.39C87.3743 263.555 87.2866 263.704 87.1537 263.804C87.0207 263.904 86.8534 263.947 86.6885 263.924V263.875Z" fill="#243344"/>
<path d="M169.515 246.552C169.35 246.566 169.186 246.513 169.06 246.406C168.934 246.299 168.856 246.146 168.843 245.981C168.83 245.817 168.883 245.653 168.99 245.528C169.097 245.402 169.25 245.324 169.415 245.311L175.248 244.367C175.329 244.354 175.413 244.357 175.493 244.376C175.574 244.395 175.65 244.43 175.717 244.479C175.784 244.527 175.84 244.588 175.884 244.659C175.927 244.729 175.956 244.807 175.969 244.889C175.982 244.97 175.979 245.053 175.96 245.134C175.941 245.214 175.906 245.29 175.857 245.357C175.809 245.424 175.748 245.48 175.677 245.523C175.607 245.567 175.528 245.596 175.447 245.609L169.614 246.552H169.515Z" fill="#243344"/>
<path d="M94.598 266.172H94.4612L91.377 265.477C91.2968 265.459 91.2208 265.426 91.1536 265.379C91.0863 265.332 91.0291 265.272 90.9852 265.202C90.9412 265.133 90.9115 265.056 90.8976 264.975C90.8837 264.894 90.886 264.811 90.9044 264.732C90.9219 264.652 90.9553 264.576 91.0026 264.51C91.0499 264.443 91.1102 264.387 91.1798 264.344C91.2495 264.301 91.327 264.272 91.4079 264.26C91.4888 264.248 91.5713 264.252 91.6506 264.272L94.7348 264.955C94.815 264.973 94.8909 265.006 94.9581 265.053C95.0254 265.1 95.0826 265.16 95.1266 265.229C95.1705 265.298 95.2003 265.376 95.2141 265.457C95.228 265.537 95.2257 265.62 95.2073 265.7C95.1718 265.835 95.0929 265.954 94.9827 266.039C94.8726 266.124 94.7374 266.171 94.598 266.172Z" fill="#243344"/>
<path d="M53.8317 243.138C55.4625 245.014 56.4062 247.387 56.5079 249.869C56.6096 252.351 55.8632 254.794 54.3913 256.797C53.0287 254.8 52.254 252.461 52.1551 250.047C52.0562 247.633 52.637 245.239 53.8317 243.138Z" fill="#243344"/>
<path d="M54.3912 257.393C54.2949 257.392 54.2 257.369 54.1138 257.326C54.0276 257.283 53.9523 257.221 53.8938 257.145C52.4759 255.048 51.6694 252.598 51.564 250.07C51.4586 247.543 52.0585 245.035 53.2968 242.827C53.3417 242.742 53.4073 242.668 53.4876 242.614C53.5679 242.56 53.6605 242.527 53.757 242.517C53.8526 242.505 53.9498 242.515 54.0406 242.547C54.1314 242.58 54.2132 242.633 54.2793 242.703C55.9848 244.691 56.9711 247.193 57.0794 249.808C57.1876 252.423 56.4116 254.999 54.8762 257.12C54.821 257.201 54.7471 257.269 54.6606 257.316C54.5741 257.364 54.4775 257.39 54.3788 257.393H54.3912ZM53.9435 244.231C53.1037 246.016 52.706 247.977 52.7839 249.947C52.8618 251.918 53.4131 253.842 54.3912 255.555C55.4537 253.837 55.9786 251.842 55.8988 249.825C55.8191 247.807 55.1383 245.86 53.9435 244.231Z" fill="#243344"/>
<mask id="mask12_1730_25269" style="mask-type:luminance" maskUnits="userSpaceOnUse" x="52" y="243" width="5" height="14">
<mask id="mask13_1730_25269" style="mask-type:luminance" maskUnits="userSpaceOnUse" x="52" y="243" width="5" height="14">
<path d="M53.8317 243.138C55.4625 245.014 56.4062 247.387 56.5079 249.869C56.6096 252.351 55.8632 254.794 54.3913 256.797C53.0287 254.8 52.254 252.461 52.1551 250.047C52.0562 247.633 52.637 245.239 53.8317 243.138Z" fill="white"/>
</mask>
<g mask="url(#mask13_1730_25269)">
<path d="M54.3913 257.393C54.295 257.392 54.2001 257.369 54.1139 257.326C54.0277 257.283 53.9525 257.221 53.8939 257.144C52.4761 255.047 51.6695 252.598 51.5641 250.07C51.4587 247.542 52.0586 245.035 53.2969 242.827C53.3418 242.741 53.4074 242.668 53.4877 242.614C53.5681 242.56 53.6606 242.526 53.7571 242.517C53.8527 242.504 53.9499 242.515 54.0407 242.547C54.1315 242.58 54.2133 242.633 54.2794 242.703C55.9849 244.69 56.9712 247.193 57.0795 249.808C57.1878 252.423 56.4118 254.998 54.8764 257.12C54.8211 257.201 54.7472 257.269 54.6607 257.316C54.5742 257.364 54.4776 257.39 54.3789 257.393H54.3913ZM53.9436 244.23C53.1038 246.016 52.7061 247.976 52.784 249.947C52.8619 251.918 53.4132 253.841 54.3913 255.555C55.4538 253.837 55.9787 251.842 55.899 249.824C55.8192 247.807 55.1384 245.859 53.9436 244.23Z" fill="white"/>
</g>
</mask>
<g mask="url(#mask12_1730_25269)">
<path opacity="0.3" d="M53.8317 243.138C55.4625 245.014 56.4062 247.387 56.5079 249.869C56.6096 252.351 55.8632 254.794 54.3913 256.797C53.0287 254.8 52.254 252.461 52.1551 250.047C52.0562 247.633 52.637 245.239 53.8317 243.138Z" fill="white" fill-opacity="0.7"/>
</g>
<path d="M224.048 261.23L303.578 264.495L295.831 291.826L198.006 288.101L224.048 261.23Z" fill="white"/>
<path d="M295.831 292.447L198.006 288.722C197.886 288.717 197.77 288.678 197.67 288.61C197.571 288.542 197.494 288.447 197.447 288.337C197.404 288.223 197.395 288.1 197.419 287.982C197.443 287.863 197.5 287.754 197.583 287.666L223.625 260.808C223.752 260.685 223.921 260.614 224.098 260.609L303.69 263.875C303.784 263.879 303.875 263.905 303.957 263.95C304.039 263.995 304.11 264.059 304.163 264.135C304.219 264.211 304.257 264.298 304.274 264.391C304.292 264.483 304.287 264.579 304.262 264.669L296.502 291.987C296.467 292.133 296.378 292.261 296.255 292.345C296.131 292.43 295.98 292.466 295.831 292.447ZM199.412 287.542L295.358 291.193L302.82 265.116L224.359 261.9L199.412 287.542Z" fill="#243344"/>
<mask id="mask14_1730_25269" style="mask-type:luminance" maskUnits="userSpaceOnUse" x="198" y="261" width="106" height="31">
<mask id="mask15_1730_25269" style="mask-type:luminance" maskUnits="userSpaceOnUse" x="198" y="261" width="106" height="31">
<path d="M224.048 261.23L303.578 264.495L295.831 291.826L198.006 288.101L224.048 261.23Z" fill="white"/>
</mask>
<g mask="url(#mask15_1730_25269)">
<path d="M295.831 292.447L198.006 288.722C197.886 288.717 197.77 288.678 197.67 288.61C197.571 288.542 197.494 288.447 197.447 288.337C197.404 288.223 197.395 288.1 197.419 287.982C197.443 287.863 197.5 287.754 197.583 287.666L223.625 260.808C223.752 260.685 223.921 260.614 224.098 260.609L303.69 263.875C303.784 263.879 303.875 263.905 303.957 263.95C304.039 263.995 304.11 264.059 304.163 264.135C304.219 264.211 304.257 264.298 304.274 264.391C304.292 264.483 304.287 264.579 304.262 264.669L296.502 291.987C296.467 292.133 296.378 292.261 296.255 292.345C296.131 292.43 295.98 292.466 295.831 292.447ZM199.412 287.542L295.358 291.193L302.82 265.116L224.359 261.9L199.412 287.542Z" fill="white"/>
</g>
</mask>
<g mask="url(#mask14_1730_25269)">
<path opacity="0.4" d="M224.048 261.23L303.578 264.495L295.831 291.826L198.006 288.101L224.048 261.23Z" fill="#FFBD00"/>
</g>
</g>
<defs>
<clipPath id="clip0_1730_25269">
<rect width="436" height="322" fill="white"/>
</clipPath>
</defs>
</svg>
