<svg width="24" height="24" viewBox="0 0 24 24" fill="none" xmlns="http://www.w3.org/2000/svg">
<g id="virtual-assistants" clip-path="url(#clip0_1729_1177)">
<path id="Vector" d="M21.3136 0H9.69792C9.23292 0 8.85453 0.395227 8.85453 0.880986V4.86398C7.32869 5.2759 5.9483 6.1729 4.94117 7.41326C3.8511 8.75576 3.25071 10.4431 3.25071 12.1644V13.1306C2.54097 13.2563 2 13.8771 2 14.6224V17.2229C2 18.0585 2.67979 18.7383 3.51534 18.7383H4.29036C4.4152 19.2441 4.8726 19.6204 5.41643 19.6204C6.05601 19.6204 6.57632 19.1 6.57632 18.4604V13.3848C6.57632 12.8218 6.17315 12.3515 5.64046 12.2467C5.74154 9.89479 6.8934 8.15135 8.85448 7.37043V9.1745C8.85448 9.66026 9.23282 10.0555 9.69787 10.0555H10.4466V13.1553C10.4466 13.3082 10.5366 13.4467 10.6762 13.5089C10.7268 13.5315 10.7804 13.5424 10.8336 13.5424C10.9275 13.5424 11.0201 13.5083 11.0927 13.443L14.8563 10.0554H15.5339C15.8762 10.811 15.9705 11.4737 15.984 12.2456C15.4484 12.3479 15.0421 12.8197 15.0421 13.3847V18.4604C15.0421 19.1 15.5624 19.6203 16.202 19.6203C16.3232 19.6203 16.44 19.6016 16.5499 19.567C16.4088 21.3554 15.8158 22.2134 13.8916 22.2134H12.7091C12.5407 21.6296 12.0019 21.2011 11.3645 21.2011H10.2539C9.48226 21.2011 8.85448 21.8289 8.85448 22.6005C8.85448 23.3722 9.48226 24 10.2539 24H11.3645C12.0019 24 12.5407 23.5715 12.7091 22.9876H13.8916C16.9541 22.9876 17.3325 20.9314 17.3599 18.7382H18.1031C18.9387 18.7382 19.6185 18.0584 19.6185 17.2229V14.6223C19.6185 13.8777 19.0785 13.2573 18.3697 13.1309C18.3755 12.0681 18.3753 11.1218 18.0662 10.0555H21.3135C21.7785 10.0555 22.1569 9.66026 22.1569 9.1745V0.880986C22.1569 0.395227 21.7786 0 21.3136 0ZM11.3646 23.2259H10.2539C9.90918 23.2259 9.62873 22.9454 9.62873 22.6006C9.62873 22.2559 9.90918 21.9754 10.2539 21.9754H11.3646C11.7093 21.9754 11.9898 22.2559 11.9898 22.6006C11.9898 22.9454 11.7093 23.2259 11.3646 23.2259ZM2.77424 17.2229V14.6224C2.77424 14.2137 3.10671 13.8812 3.51539 13.8812H4.25654V17.9641H3.51539C3.10671 17.9641 2.77424 17.6317 2.77424 17.223V17.2229ZM5.80217 13.3848V18.4605C5.80217 18.6732 5.62914 18.8462 5.41643 18.8462C5.20372 18.8462 5.03073 18.6732 5.03073 18.4605V13.3848C5.03073 13.1721 5.20372 12.9991 5.41643 12.9991C5.62914 12.9991 5.80217 13.1721 5.80217 13.3848ZM5.89986 8.80013C5.2536 9.7867 4.89684 11.0159 4.86162 12.3665C4.58005 12.5206 4.36913 12.788 4.29041 13.107H4.02491V12.1645C4.02491 9.1836 6.02877 6.52719 8.85453 5.66948V6.54451C7.59022 6.97845 6.59683 7.73624 5.89986 8.80013ZM16.202 18.8462C15.9893 18.8462 15.8163 18.6732 15.8163 18.4605V13.3848C15.8163 13.1721 15.9894 12.9991 16.2021 12.9991C16.4148 12.9991 16.5878 13.1721 16.5878 13.3848V18.4385H16.5876C16.5876 18.448 16.5875 18.4572 16.5875 18.4666C16.5842 18.6764 16.4127 18.8462 16.2021 18.8462H16.202ZM18.8443 14.6224V17.2229C18.8443 17.6316 18.5118 17.9641 18.1032 17.9641H17.362V13.8812H18.1032C18.5118 13.8812 18.8443 14.2136 18.8443 14.6223V14.6224ZM17.5957 13.107H17.3281C17.2497 12.7891 17.0399 12.5224 16.7597 12.3681C16.7542 11.5685 16.676 10.8446 16.3726 10.0555H17.256C17.5989 11.0974 17.6016 12.0022 17.5957 13.107V13.107ZM21.3827 9.17455C21.3827 9.23876 21.3411 9.28134 21.3135 9.28134H14.7077C14.6121 9.28134 14.5198 9.31671 14.4488 9.38073L11.2208 12.2862V9.66844C11.2208 9.45466 11.0474 9.28134 10.8337 9.28134H9.69782C9.67029 9.28134 9.62863 9.23876 9.62863 9.17455V0.880986C9.62863 0.816776 9.67024 0.774195 9.69782 0.774195H21.3135C21.341 0.774195 21.3827 0.816776 21.3827 0.880986V9.17455H21.3827ZM19.6678 2.87425C19.6678 3.08802 19.4945 3.26135 19.2807 3.26135H11.6484C11.4346 3.26135 11.2613 3.08802 11.2613 2.87425C11.2613 2.66047 11.4346 2.48715 11.6484 2.48715H19.2807C19.4945 2.48715 19.6678 2.66047 19.6678 2.87425ZM19.6678 5.02777C19.6678 5.24154 19.4945 5.41487 19.2807 5.41487H11.6484C11.4346 5.41487 11.2613 5.24154 11.2613 5.02777C11.2613 4.81399 11.4346 4.64067 11.6484 4.64067H19.2807C19.4945 4.64067 19.6678 4.81399 19.6678 5.02777ZM14.4254 7.18129C14.4254 7.39506 14.2521 7.56839 14.0383 7.56839H11.6483C11.4345 7.56839 11.2612 7.39506 11.2612 7.18129C11.2612 6.96751 11.4345 6.79419 11.6483 6.79419H14.0383C14.2521 6.79419 14.4254 6.96751 14.4254 7.18129ZM8.70313 15.9227C8.70313 16.1365 8.5298 16.3098 8.31603 16.3098H8.28429C8.07051 16.3098 7.89719 16.1365 7.89719 15.9227C7.89719 15.7089 8.07051 15.5356 8.28429 15.5356H8.31603C8.5298 15.5356 8.70313 15.7089 8.70313 15.9227ZM9.95698 16.3098C9.74321 16.3098 9.56989 16.1365 9.56989 15.9227C9.56989 15.7089 9.74321 15.5356 9.95698 15.5356H9.98873C10.2025 15.5356 10.3758 15.7089 10.3758 15.9227C10.3758 16.1365 10.2025 16.3098 9.98873 16.3098H9.95698ZM11.6297 16.3098C11.416 16.3098 11.2426 16.1365 11.2426 15.9227C11.2426 15.7089 11.416 15.5356 11.6297 15.5356H11.6615C11.8752 15.5356 12.0486 15.7089 12.0486 15.9227C12.0486 16.1365 11.8752 16.3098 11.6615 16.3098H11.6297ZM13.3024 16.3073C13.0887 16.3073 12.9153 16.1339 12.9153 15.9202C12.9153 15.7064 13.0887 15.5331 13.3024 15.5331H13.3342C13.5479 15.5331 13.7213 15.7064 13.7213 15.9202C13.7213 16.1339 13.5479 16.3073 13.3342 16.3073H13.3024Z" fill="#151116"/>
</g>
<defs>
<clipPath id="clip0_1729_1177">
<rect width="24" height="24" fill="white"/>
</clipPath>
</defs>
</svg>
