<svg width="40" height="40" viewBox="0 0 40 40" fill="none" xmlns="http://www.w3.org/2000/svg">
<g id="008-manuscript" clip-path="url(#clip0_1722_30045)">
<g id="Group">
<g id="Group_2">
<path id="Vector" d="M14.7443 8.44946C13.9684 8.47634 13.969 9.5947 14.7443 9.62134H29.9005C30.6764 9.59446 30.6757 8.4761 29.9005 8.44946H14.7443Z" fill="#151116"/>
<path id="Vector_2" d="M14.7442 12.2175H29.9004C30.6763 12.1907 30.6756 11.0723 29.9004 11.0457H14.7442C13.9683 11.0725 13.9689 12.1909 14.7442 12.2175Z" fill="#151116"/>
<path id="Vector_3" d="M14.7442 14.8137H22.8595C23.6353 14.7868 23.6347 13.6685 22.8595 13.6418H14.7442C13.9683 13.6688 13.9689 14.7871 14.7442 14.8137Z" fill="#151116"/>
<path id="Vector_4" d="M14.7442 19.375H22.8595C23.6353 19.3481 23.6347 18.2298 22.8595 18.2031H14.7442C13.9683 18.23 13.9689 19.3484 14.7442 19.375Z" fill="#151116"/>
<path id="Vector_5" d="M7.37576 32.0464C7.40263 32.8223 8.52099 32.8216 8.54763 32.0464V10.7031H9.79013C10.5266 10.7031 11.1258 10.104 11.1258 9.3675V3.83563C11.1258 3.09914 10.5266 2.5 9.79013 2.5H8.54763V1.17188H29.343C30.1189 1.145 30.1183 0.0266406 29.343 0H8.2742C7.7788 0 7.37576 0.403047 7.37576 0.898438V2.5H6.3406C5.74826 2.5 5.26638 2.98187 5.26638 3.57422V4.41406H4.87576C1.97701 4.52437 1.97919 8.67977 4.87576 8.78906H5.26638V9.62891C5.26638 10.2212 5.74826 10.7031 6.3406 10.7031H7.37576V32.0464ZM4.87576 7.61719C3.5299 7.56602 3.53091 5.63664 4.87576 5.58594H5.26638V7.61719H4.87576ZM6.43826 3.67188H9.79013C9.88045 3.67188 9.95388 3.74531 9.95388 3.83563V9.3675C9.95388 9.45781 9.88045 9.53125 9.79013 9.53125H6.43826V3.67188Z" fill="#151116"/>
<path id="Vector_6" d="M36.5986 7.26516C37.0103 7.1718 37.2977 6.8118 37.2977 6.38969V0.898438C37.2977 0.403047 36.8946 0 36.3993 0H32.1628C31.3869 0.026875 31.3875 1.14523 32.1628 1.17188H36.1258V6.17969C33.5891 6.96617 33.5903 10.6128 36.1258 11.3985V38.8281H16.898C15.9257 36.8085 12.9659 36.8094 11.9942 38.8281H8.54761V34.7656C8.52073 33.9898 7.40237 33.9904 7.37573 34.7656V39.1016C7.37573 39.597 7.77878 40 8.27417 40H12.1707C12.5371 40 12.8626 39.7831 12.9998 39.4474C13.5181 38.1602 15.3745 38.1607 15.8923 39.4475C16.0295 39.7831 16.3549 40 16.7214 40H36.3992C36.8946 40 37.2976 39.597 37.2976 39.1016V11.1884C37.2976 10.7664 37.0101 10.4064 36.5986 10.313C34.9884 9.94016 34.9893 7.6375 36.5986 7.26516Z" fill="#151116"/>
<path id="Vector_7" d="M13.9211 27.324C13.9211 27.9055 14.3943 28.3787 14.9758 28.3787H29.6975C30.2791 28.3787 30.7522 27.9055 30.7522 27.324V24.199C30.7522 23.6174 30.2791 23.1443 29.6975 23.1443H14.9758C14.3943 23.1443 13.9211 23.6174 13.9211 24.199V27.324ZM15.093 24.3162H29.5804V27.2068H15.093V24.3162Z" fill="#151116"/>
</g>
</g>
</g>
<defs>
<clipPath id="clip0_1722_30045">
<rect width="40" height="40" fill="white"/>
</clipPath>
</defs>
</svg>
