<svg width="40" height="40" viewBox="0 0 40 40" fill="none" xmlns="http://www.w3.org/2000/svg">
<g id="rating 1" clip-path="url(#clip0_1722_30062)">
<g id="08-rateing">
<path id="Vector" d="M24.375 21.875C24.2834 21.875 24.1929 21.8548 24.11 21.8159C24.027 21.777 23.9536 21.7204 23.895 21.65L20.9575 18.125H19.375V16.875H21.25C21.3416 16.875 21.4321 16.8952 21.515 16.9341C21.598 16.973 21.6714 17.0296 21.73 17.1L24.375 20.2738L27.02 17.1C27.0786 17.0296 27.152 16.973 27.235 16.9341C27.3179 16.8952 27.4084 16.875 27.5 16.875H38.125C38.2908 16.875 38.4497 16.8092 38.5669 16.6919C38.6842 16.5747 38.75 16.4158 38.75 16.25V2.5C38.75 2.33424 38.6842 2.17527 38.5669 2.05806C38.4497 1.94085 38.2908 1.875 38.125 1.875H10.625C10.4592 1.875 10.3003 1.94085 10.1831 2.05806C10.0658 2.17527 10 2.33424 10 2.5V16.25C10 16.4158 10.0658 16.5747 10.1831 16.6919C10.3003 16.8092 10.4592 16.875 10.625 16.875H12.5V18.125H10.625C10.1277 18.125 9.65081 17.9275 9.29917 17.5758C8.94754 17.2242 8.75 16.7473 8.75 16.25V2.5C8.75 2.00272 8.94754 1.52581 9.29917 1.17417C9.65081 0.822544 10.1277 0.625 10.625 0.625H38.125C38.6223 0.625 39.0992 0.822544 39.4508 1.17417C39.8025 1.52581 40 2.00272 40 2.5V16.25C40 16.7473 39.8025 17.2242 39.4508 17.5758C39.0992 17.9275 38.6223 18.125 38.125 18.125H27.7925L24.855 21.65C24.7964 21.7204 24.723 21.777 24.64 21.8159C24.5571 21.8548 24.4666 21.875 24.375 21.875Z" fill="#151116"/>
<path id="Vector_2" d="M10.625 24.375H6.875V23.125H10.4056L11.9525 21.8881C12.3191 21.5959 12.615 21.2246 12.818 20.802C13.0211 20.3794 13.126 19.9164 13.125 19.4475V15.625C13.125 15.4592 13.1908 15.3003 13.3081 15.1831C13.4253 15.0658 13.5842 15 13.75 15C18.6931 15 18.75 18.7125 18.75 18.75V23.75H17.5V18.75C17.4956 18.5144 17.3681 16.5188 14.375 16.2744V19.4475C14.3765 20.1039 14.2297 20.7521 13.9453 21.3437C13.661 21.9353 13.2466 22.4549 12.7331 22.8638L11.0156 24.2388C10.9047 24.3272 10.7669 24.3753 10.625 24.375Z" fill="#151116"/>
<path id="Vector_3" d="M25 28.125H19.375V26.875H25C25.3315 26.875 25.6495 26.7433 25.8839 26.5089C26.1183 26.2745 26.25 25.9565 26.25 25.625C26.25 25.2935 26.1183 24.9755 25.8839 24.7411C25.6495 24.5067 25.3315 24.375 25 24.375H16.25V23.125H25C25.663 23.125 26.2989 23.3884 26.7678 23.8572C27.2366 24.3261 27.5 24.962 27.5 25.625C27.5 26.288 27.2366 26.9239 26.7678 27.3928C26.2989 27.8616 25.663 28.125 25 28.125Z" fill="#151116"/>
<path id="Vector_4" d="M25.625 31.875H20V30.625H25.625C25.9565 30.625 26.2745 30.4933 26.5089 30.2589C26.7433 30.0245 26.875 29.7065 26.875 29.375C26.875 29.0435 26.7433 28.7255 26.5089 28.4911C26.2745 28.2567 25.9565 28.125 25.625 28.125H20V26.875H25.625C26.288 26.875 26.9239 27.1384 27.3928 27.6072C27.8616 28.0761 28.125 28.712 28.125 29.375C28.125 30.038 27.8616 30.6739 27.3928 31.1428C26.9239 31.6116 26.288 31.875 25.625 31.875Z" fill="#151116"/>
<path id="Vector_5" d="M25 35.625H19.375V34.375H25C25.3315 34.375 25.6495 34.2433 25.8839 34.0089C26.1183 33.7745 26.25 33.4565 26.25 33.125C26.25 32.7935 26.1183 32.4755 25.8839 32.2411C25.6495 32.0067 25.3315 31.875 25 31.875H19.375V30.625H25C25.663 30.625 26.2989 30.8884 26.7678 31.3572C27.2366 31.8261 27.5 32.462 27.5 33.125C27.5 33.788 27.2366 34.4239 26.7678 34.8928C26.2989 35.3616 25.663 35.625 25 35.625Z" fill="#151116"/>
<path id="Vector_6" d="M23.75 39.375H11.875C10.8399 39.2946 9.86618 38.8521 9.125 38.125H6.875V36.875H9.375C9.54075 36.875 9.69969 36.9409 9.81687 37.0581C10.352 37.6537 11.0865 38.0331 11.8819 38.125H23.75C24.0815 38.125 24.3995 37.9933 24.6339 37.7589C24.8683 37.5245 25 37.2065 25 36.875C25 36.5435 24.8683 36.2255 24.6339 35.9911C24.3995 35.7567 24.0815 35.625 23.75 35.625H19.375V34.375H23.75C24.413 34.375 25.0489 34.6384 25.5178 35.1072C25.9866 35.5761 26.25 36.212 26.25 36.875C26.25 37.538 25.9866 38.1739 25.5178 38.6428C25.0489 39.1116 24.413 39.375 23.75 39.375Z" fill="#151116"/>
<path id="Vector_7" d="M5.625 39.375H1.875C1.37772 39.375 0.900805 39.1775 0.549175 38.8258C0.197544 38.4742 0 37.9973 0 37.5L0 23.75C0 23.2527 0.197544 22.7758 0.549175 22.4242C0.900805 22.0725 1.37772 21.875 1.875 21.875H5.625C6.12228 21.875 6.59919 22.0725 6.95083 22.4242C7.30246 22.7758 7.5 23.2527 7.5 23.75V37.5C7.5 37.9973 7.30246 38.4742 6.95083 38.8258C6.59919 39.1775 6.12228 39.375 5.625 39.375ZM1.875 23.125C1.70924 23.125 1.55027 23.1908 1.43306 23.3081C1.31585 23.4253 1.25 23.5842 1.25 23.75V37.5C1.25 37.6658 1.31585 37.8247 1.43306 37.9419C1.55027 38.0592 1.70924 38.125 1.875 38.125H5.625C5.79076 38.125 5.94973 38.0592 6.06694 37.9419C6.18415 37.8247 6.25 37.6658 6.25 37.5V23.75C6.25 23.5842 6.18415 23.4253 6.06694 23.3081C5.94973 23.1908 5.79076 23.125 5.625 23.125H1.875Z" fill="#151116"/>
<path id="Vector_8" d="M4.375 24.375H3.125V25.625H4.375V24.375Z" fill="#151116"/>
<path id="Vector_9" d="M26.875 13.1251C26.7781 13.125 26.6825 13.1026 26.5956 13.0595L24.375 11.9489L22.1544 13.0626C22.0474 13.1161 21.9274 13.1377 21.8085 13.125C21.6896 13.1123 21.5768 13.0657 21.4836 12.9909C21.3903 12.916 21.3205 12.8159 21.2825 12.7026C21.2444 12.5892 21.2396 12.4673 21.2687 12.3514L21.8262 10.1201L20.73 8.47512C20.6664 8.38096 20.6296 8.27123 20.6237 8.15773C20.6177 8.04424 20.6428 7.93127 20.6963 7.83099C20.7498 7.73071 20.8296 7.64692 20.9272 7.58861C21.0247 7.53031 21.1363 7.49972 21.25 7.50011H22.7906L23.8531 5.90324C23.9136 5.8224 23.9921 5.75677 24.0823 5.71157C24.1726 5.66636 24.2722 5.64282 24.3731 5.64282C24.4741 5.64282 24.5736 5.66636 24.6639 5.71157C24.7542 5.75677 24.8327 5.8224 24.8931 5.90324L25.9594 7.50011H27.5C27.6132 7.5001 27.7242 7.5308 27.8213 7.58894C27.9183 7.64709 27.9978 7.73049 28.0512 7.83026C28.1046 7.93003 28.1299 8.04242 28.1244 8.15544C28.1189 8.26846 28.0828 8.37786 28.02 8.47199L26.9238 10.117L27.4813 12.3482C27.5043 12.4404 27.5061 12.5366 27.4864 12.6295C27.4668 12.7225 27.4262 12.8097 27.3677 12.8846C27.3093 12.9595 27.2345 13.0201 27.1491 13.0618C27.0638 13.1035 26.97 13.1251 26.875 13.1251ZM24.375 10.6251C24.472 10.625 24.5676 10.6475 24.6544 10.6907L25.9375 11.3332L25.6425 10.152C25.6211 10.0672 25.6178 9.97897 25.6326 9.89284C25.6475 9.80672 25.6802 9.72467 25.7288 9.65199L26.3319 8.75011H25.625C25.5221 8.75013 25.4208 8.72475 25.3301 8.67624C25.2394 8.62772 25.1621 8.55756 25.105 8.47199L24.375 7.37512L23.645 8.47011C23.5881 8.55603 23.5109 8.62656 23.4202 8.67541C23.3294 8.72426 23.228 8.74992 23.125 8.75011H22.4181L23.02 9.65324C23.0685 9.72592 23.1013 9.80797 23.1161 9.89409C23.131 9.98022 23.1276 10.0685 23.1063 10.1532L22.8112 11.3345L24.0956 10.692C24.1823 10.6483 24.2779 10.6254 24.375 10.6251Z" fill="#151116"/>
<path id="Vector_10" d="M35.625 13.1251C35.5281 13.125 35.4325 13.1026 35.3456 13.0595L33.125 11.9489L30.9044 13.0626C30.7974 13.1161 30.6774 13.1377 30.5585 13.125C30.4396 13.1123 30.3268 13.0657 30.2336 12.9909C30.1403 12.916 30.0705 12.8159 30.0325 12.7026C29.9944 12.5892 29.9896 12.4673 30.0187 12.3514L30.5762 10.1201L29.48 8.47512C29.4164 8.38096 29.3796 8.27123 29.3737 8.15773C29.3677 8.04424 29.3928 7.93127 29.4463 7.83099C29.4998 7.73071 29.5796 7.64692 29.6772 7.58861C29.7747 7.53031 29.8863 7.49972 30 7.50011H31.5406L32.6031 5.90324C32.6636 5.8224 32.7421 5.75677 32.8323 5.71157C32.9226 5.66636 33.0222 5.64282 33.1231 5.64282C33.2241 5.64282 33.3236 5.66636 33.4139 5.71157C33.5042 5.75677 33.5827 5.8224 33.6431 5.90324L34.7094 7.50011H36.25C36.3632 7.5001 36.4742 7.5308 36.5713 7.58894C36.6683 7.64709 36.7478 7.73049 36.8012 7.83026C36.8546 7.93003 36.8799 8.04242 36.8744 8.15544C36.8689 8.26846 36.8328 8.37786 36.77 8.47199L35.6738 10.117L36.2313 12.3482C36.2543 12.4404 36.2561 12.5366 36.2364 12.6295C36.2168 12.7225 36.1762 12.8097 36.1177 12.8846C36.0593 12.9595 35.9845 13.0201 35.8991 13.0618C35.8138 13.1035 35.72 13.1251 35.625 13.1251ZM33.125 10.6251C33.222 10.625 33.3176 10.6475 33.4044 10.6907L34.6875 11.3332L34.3925 10.152C34.3711 10.0672 34.3678 9.97897 34.3826 9.89284C34.3975 9.80672 34.4302 9.72467 34.4788 9.65199L35.0819 8.75011H34.375C34.2721 8.75013 34.1708 8.72475 34.0801 8.67624C33.9894 8.62772 33.9121 8.55756 33.855 8.47199L33.125 7.37512L32.395 8.47011C32.3381 8.55603 32.2609 8.62656 32.1702 8.67541C32.0794 8.72426 31.978 8.74992 31.875 8.75011H31.1681L31.77 9.65324C31.8185 9.72592 31.8513 9.80797 31.8661 9.89409C31.881 9.98022 31.8776 10.0685 31.8563 10.1532L31.5612 11.3345L32.8456 10.692C32.9323 10.6483 33.0279 10.6254 33.125 10.6251Z" fill="#151116"/>
<path id="Vector_11" d="M18.125 13.1251C18.0281 13.125 17.9325 13.1026 17.8456 13.0595L15.625 11.9489L13.4044 13.0626C13.2974 13.1161 13.1774 13.1377 13.0585 13.125C12.9396 13.1123 12.8268 13.0657 12.7336 12.9909C12.6403 12.916 12.5705 12.8159 12.5325 12.7026C12.4944 12.5892 12.4896 12.4673 12.5187 12.3514L13.0762 10.1201L11.98 8.47512C11.9164 8.38096 11.8796 8.27123 11.8737 8.15773C11.8677 8.04424 11.8928 7.93127 11.9463 7.83099C11.9998 7.73071 12.0796 7.64692 12.1772 7.58861C12.2747 7.53031 12.3863 7.49972 12.5 7.50011H14.0406L15.1031 5.90324C15.1636 5.8224 15.2421 5.75677 15.3323 5.71157C15.4226 5.66636 15.5222 5.64282 15.6231 5.64282C15.7241 5.64282 15.8236 5.66636 15.9139 5.71157C16.0042 5.75677 16.0827 5.8224 16.1431 5.90324L17.2094 7.50011H18.75C18.8632 7.5001 18.9742 7.5308 19.0713 7.58894C19.1683 7.64709 19.2478 7.73049 19.3012 7.83026C19.3546 7.93003 19.3799 8.04242 19.3744 8.15544C19.3689 8.26846 19.3328 8.37786 19.27 8.47199L18.1738 10.117L18.7313 12.3482C18.7543 12.4404 18.7561 12.5366 18.7364 12.6295C18.7168 12.7225 18.6762 12.8097 18.6177 12.8846C18.5593 12.9595 18.4845 13.0201 18.3991 13.0618C18.3138 13.1035 18.22 13.1251 18.125 13.1251ZM15.625 10.6251C15.722 10.625 15.8176 10.6475 15.9044 10.6907L17.1875 11.3332L16.8925 10.152C16.8711 10.0672 16.8678 9.97897 16.8826 9.89284C16.8975 9.80672 16.9302 9.72467 16.9788 9.65199L17.5819 8.75011H16.875C16.7721 8.75013 16.6708 8.72475 16.5801 8.67624C16.4894 8.62772 16.4121 8.55756 16.355 8.47199L15.625 7.37512L14.895 8.47011C14.8381 8.55603 14.7609 8.62656 14.6702 8.67541C14.5794 8.72426 14.478 8.74992 14.375 8.75011H13.6681L14.27 9.65324C14.3185 9.72592 14.3513 9.80797 14.3661 9.89409C14.381 9.98022 14.3776 10.0685 14.3562 10.1532L14.0612 11.3345L15.3456 10.692C15.4323 10.6483 15.5279 10.6254 15.625 10.6251Z" fill="#151116"/>
<path id="Vector_12" d="M34.375 24.375H29.375V25.625H34.375V24.375Z" fill="#151116"/>
<path id="Vector_13" d="M31.7455 19.8706L28.933 22.6831L29.8169 23.567L32.6294 20.7545L31.7455 19.8706Z" fill="#151116"/>
<path id="Vector_14" d="M29.817 26.7458L28.9331 27.6296L31.7456 30.4421L32.6295 29.5583L29.817 26.7458Z" fill="#151116"/>
</g>
</g>
<defs>
<clipPath id="clip0_1722_30062">
<rect width="40" height="40" fill="white"/>
</clipPath>
</defs>
</svg>
