<svg width="40" height="40" viewBox="0 0 40 40" fill="none" xmlns="http://www.w3.org/2000/svg">
<g clip-path="url(#clip0_1221_784)">
<path d="M33.0298 12.6416H30.1213V9.54279C30.1213 7.76701 29.4531 6.07537 28.2399 4.77966C28.0144 4.53873 27.6362 4.52638 27.3955 4.75193C27.1546 4.97748 27.1422 5.35552 27.3677 5.5963C28.3728 6.66982 28.9264 8.07138 28.9264 9.54279V12.6416H16.7692C12.9259 12.6416 9.79906 15.7685 9.79906 19.6119V21.7492H8.86328C8.49102 21.7492 8.14094 21.8942 7.87758 22.1575L4.70664 25.3284V22.1386C4.70664 21.6499 4.445 21.1907 4.02367 20.9402C2.27883 19.9028 1.19484 17.9998 1.19484 15.974V9.54279C1.19484 6.35826 3.78562 3.76748 6.97016 3.76748H23.1511C23.8975 3.76748 24.6235 3.90755 25.309 4.18396C25.615 4.30716 25.9631 4.15919 26.0865 3.85326C26.2098 3.54724 26.0618 3.19912 25.7558 3.07576C24.9277 2.74185 24.0513 2.57263 23.1511 2.57263H6.97016C3.1268 2.57263 0 5.69943 0 9.54279V15.974C0 18.4191 1.30781 20.7156 3.41305 21.9672C3.47398 22.0035 3.5118 22.0691 3.5118 22.1387V25.6169C3.5118 26.0534 3.77234 26.4433 4.17563 26.6105C4.44477 26.7398 4.9943 26.7212 5.34758 26.3774L8.72242 23.0025C8.76008 22.9648 8.81008 22.9441 8.86328 22.9441H9.79906V26.0429C9.79906 26.9837 9.98344 27.8966 10.347 28.7563C10.4755 29.0601 10.8261 29.2021 11.13 29.0738C11.4339 28.9453 11.576 28.5947 11.4476 28.2908C11.1466 27.5793 10.994 26.823 10.994 26.043V19.6119C10.994 16.4273 13.5848 13.8365 16.7693 13.8365H33.0298C36.2144 13.8365 38.8052 16.4273 38.8052 19.6119V26.043C38.8052 28.0768 37.7652 29.9227 36.0233 30.981C35.6127 31.2305 35.3577 31.6857 35.3577 32.169V36.0655L31.5187 32.2265C31.2555 31.9633 30.9054 31.8183 30.533 31.8183H16.7692C15.3199 31.8183 13.9341 31.2792 12.8668 30.3005C12.6237 30.0776 12.2458 30.0938 12.0227 30.3369C11.7996 30.5801 11.8159 30.958 12.0591 31.1811C13.3473 32.3626 15.02 33.0132 16.7691 33.0132H30.5329C30.5853 33.0132 30.6366 33.0344 30.6737 33.0715L34.7166 37.1144C35.0288 37.3544 35.3339 37.5398 35.8884 37.3475C36.2917 37.1804 36.5523 36.7905 36.5523 36.354V32.1689C36.5523 32.1002 36.5873 32.0362 36.6435 32.0021C38.7453 30.7253 40 28.4976 40 26.0429V19.6119C40 15.7685 36.8732 12.6416 33.0298 12.6416Z" fill="#151116"/>
<path d="M23.2133 26.8895C22.863 26.3945 22.2248 26.0627 21.4969 26.0627C20.3932 26.0627 19.4954 26.8256 19.4954 27.7633C19.4954 28.7009 20.3933 29.4638 21.4969 29.4638C22.4654 29.4638 23.2751 28.8764 23.4591 28.0989C24.3404 27.7277 25.0341 26.9881 25.3352 26.0524C26.2077 25.8538 26.8611 25.0722 26.8611 24.1403V21.986C26.8611 21.0864 26.2521 20.3269 25.425 20.0966C25.2303 18.8966 24.6406 17.7956 23.7366 16.9635C22.7279 16.035 21.417 15.5237 20.0453 15.5237C17.346 15.5237 15.0882 17.468 14.665 20.0967C13.8382 20.3271 13.2295 21.0866 13.2295 21.9859V24.1402C13.2295 25.2218 14.1094 26.1017 15.191 26.1017C16.2725 26.1017 17.1525 25.2218 17.1525 24.1402V21.9859C17.1525 21.1426 16.6174 20.4219 15.8689 20.1453C16.2563 18.166 17.9865 16.7185 20.0453 16.7185C22.0779 16.7185 23.83 18.1913 24.22 20.1459C23.4724 20.4229 22.9381 21.1431 22.9381 21.9859V24.1402C22.9381 24.9374 23.4164 25.6246 24.1009 25.9311C23.911 26.3392 23.5986 26.6726 23.2133 26.8895ZM21.4969 28.2691C21.0215 28.2691 20.6903 28.0026 20.6903 27.7634C20.6903 27.5241 21.0215 27.2576 21.4969 27.2576C21.9723 27.2576 22.3036 27.5241 22.3036 27.7634C22.3036 28.0026 21.9722 28.2691 21.4969 28.2691ZM15.9576 24.1404C15.9576 24.5631 15.6137 24.907 15.191 24.907C14.7682 24.907 14.4243 24.5631 14.4243 24.1404V21.9861C14.4243 21.5634 14.7682 21.2195 15.191 21.2195C15.6137 21.2195 15.9576 21.5634 15.9576 21.9861V24.1404ZM24.1329 21.9861C24.1329 21.5634 24.4768 21.2195 24.8996 21.2195C25.3223 21.2195 25.6662 21.5634 25.6662 21.9861V24.1404C25.6662 24.5631 25.3223 24.907 24.8996 24.907C24.4768 24.907 24.1329 24.5631 24.1329 24.1404V21.9861Z" fill="#151116"/>
<path d="M28.4135 18.9096H33.1721C33.5021 18.9096 33.7696 18.6421 33.7696 18.3121C33.7696 17.9821 33.5021 17.7147 33.1721 17.7147H28.4135C28.0835 17.7147 27.816 17.9821 27.816 18.3121C27.816 18.6421 28.0835 18.9096 28.4135 18.9096Z" fill="#151116"/>
<path d="M28.4135 21.584H32.0828C32.4127 21.584 32.6802 21.3166 32.6802 20.9866C32.6802 20.6566 32.4127 20.3892 32.0828 20.3892H28.4135C28.0835 20.3892 27.816 20.6566 27.816 20.9866C27.816 21.3166 28.0835 21.584 28.4135 21.584Z" fill="#151116"/>
<path d="M5.87752 11.2776C6.36944 11.2776 6.76822 10.8788 6.76822 10.3869C6.76822 9.895 6.36944 9.49622 5.87752 9.49622C5.3856 9.49622 4.98682 9.895 4.98682 10.3869C4.98682 10.8788 5.3856 11.2776 5.87752 11.2776Z" fill="#151116"/>
<path d="M8.57527 11.2776C9.0672 11.2776 9.46598 10.8788 9.46598 10.3869C9.46598 9.895 9.0672 9.49622 8.57527 9.49622C8.08335 9.49622 7.68457 9.895 7.68457 10.3869C7.68457 10.8788 8.08335 11.2776 8.57527 11.2776Z" fill="#151116"/>
<path d="M11.257 11.2776C11.749 11.2776 12.1477 10.8788 12.1477 10.3869C12.1477 9.895 11.749 9.49622 11.257 9.49622C10.7651 9.49622 10.3663 9.895 10.3663 10.3869C10.3663 10.8788 10.7651 11.2776 11.257 11.2776Z" fill="#151116"/>
</g>
<defs>
<clipPath id="clip0_1221_784">
<rect width="40" height="40" fill="white"/>
</clipPath>
</defs>
</svg>
