<svg width="40" height="40" viewBox="0 0 40 40" fill="none" xmlns="http://www.w3.org/2000/svg">
<g id="document (2) 1">
<g id="Group">
<g id="Group_2">
<path id="Vector" d="M13.3333 28.6667H11.9999C11.6318 28.6667 11.3333 28.9652 11.3333 29.3334C11.3333 29.7016 11.6318 30.0001 11.9999 30.0001H13.3333C13.7014 30.0001 13.9999 29.7016 13.9999 29.3334C13.9999 28.9652 13.7014 28.6667 13.3333 28.6667Z" fill="#151116"/>
</g>
</g>
<g id="Group_3">
<g id="Group_4">
<path id="Vector_2" d="M31.9999 28.6667H15.9999C15.6318 28.6667 15.3333 28.9652 15.3333 29.3334C15.3333 29.7016 15.6318 30.0001 15.9999 30.0001H31.9999C32.3681 30.0001 32.6666 29.7016 32.6666 29.3334C32.6666 28.9652 32.3681 28.6667 31.9999 28.6667Z" fill="#151116"/>
</g>
</g>
<g id="Group_5">
<g id="Group_6">
<path id="Vector_3" d="M13.3333 24.6667H11.9999C11.6318 24.6667 11.3333 24.9652 11.3333 25.3334C11.3333 25.7016 11.6318 26.0001 11.9999 26.0001H13.3333C13.7014 26.0001 13.9999 25.7016 13.9999 25.3334C13.9999 24.9652 13.7014 24.6667 13.3333 24.6667Z" fill="#151116"/>
</g>
</g>
<g id="Group_7">
<g id="Group_8">
<path id="Vector_4" d="M31.9999 24.6667H15.9999C15.6318 24.6667 15.3333 24.9652 15.3333 25.3334C15.3333 25.7016 15.6318 26.0001 15.9999 26.0001H31.9999C32.3681 26.0001 32.6666 25.7016 32.6666 25.3334C32.6666 24.9652 32.3681 24.6667 31.9999 24.6667Z" fill="#151116"/>
</g>
</g>
<g id="Group_9">
<g id="Group_10">
<path id="Vector_5" d="M13.3333 20.6667H11.9999C11.6318 20.6667 11.3333 20.9652 11.3333 21.3334C11.3333 21.7016 11.6318 22.0001 11.9999 22.0001H13.3333C13.7014 22.0001 13.9999 21.7016 13.9999 21.3334C13.9999 20.9652 13.7014 20.6667 13.3333 20.6667Z" fill="#151116"/>
</g>
</g>
<g id="Group_11">
<g id="Group_12">
<path id="Vector_6" d="M31.9999 20.6667H15.9999C15.6318 20.6667 15.3333 20.9652 15.3333 21.3334C15.3333 21.7016 15.6318 22.0001 15.9999 22.0001H31.9999C32.3681 22.0001 32.6666 21.7016 32.6666 21.3334C32.6666 20.9652 32.3681 20.6667 31.9999 20.6667Z" fill="#151116"/>
</g>
</g>
<g id="Group_13">
<g id="Group_14">
<path id="Vector_7" d="M13.3333 16.6667H11.9999C11.6318 16.6667 11.3333 16.9652 11.3333 17.3334C11.3333 17.7016 11.6318 18.0001 11.9999 18.0001H13.3333C13.7014 18.0001 13.9999 17.7016 13.9999 17.3334C13.9999 16.9652 13.7014 16.6667 13.3333 16.6667Z" fill="#151116"/>
</g>
</g>
<g id="Group_15">
<g id="Group_16">
<path id="Vector_8" d="M31.9999 16.6667H15.9999C15.6318 16.6667 15.3333 16.9652 15.3333 17.3334C15.3333 17.7016 15.6318 18.0001 15.9999 18.0001H31.9999C32.3681 18.0001 32.6666 17.7016 32.6666 17.3334C32.6666 16.9652 32.3681 16.6667 31.9999 16.6667Z" fill="#151116"/>
</g>
</g>
<g id="Group_17">
<g id="Group_18">
<path id="Vector_9" d="M13.3333 12.6667H11.9999C11.6318 12.6667 11.3333 12.9652 11.3333 13.3334C11.3333 13.7016 11.6318 14.0001 11.9999 14.0001H13.3333C13.7014 14.0001 13.9999 13.7016 13.9999 13.3334C13.9999 12.9652 13.7014 12.6667 13.3333 12.6667Z" fill="#151116"/>
</g>
</g>
<g id="Group_19">
<g id="Group_20">
<path id="Vector_10" d="M31.9999 12.6667H15.9999C15.6318 12.6667 15.3333 12.9652 15.3333 13.3334C15.3333 13.7016 15.6318 14.0001 15.9999 14.0001H31.9999C32.3681 14.0001 32.6666 13.7016 32.6666 13.3334C32.6666 12.9652 32.3681 12.6667 31.9999 12.6667Z" fill="#151116"/>
</g>
</g>
<g id="Group_21">
<g id="Group_22">
<path id="Vector_11" d="M36.6579 9.958C36.6546 9.89958 36.6432 9.84192 36.6239 9.78667C36.6166 9.76533 36.6113 9.74467 36.6019 9.724C36.5695 9.6515 36.5243 9.58533 36.4686 9.52867L27.1353 0.195333C27.0786 0.139583 27.0124 0.0944167 26.9399 0.062C26.9193 0.0526667 26.8986 0.0473333 26.8779 0.04C26.8222 0.0208333 26.7641 0.00916667 26.7053 0.00533333C26.6939 0.00733333 26.6813 0 26.6666 0H7.99992C7.63175 0 7.33325 0.2985 7.33325 0.666667V2.66667H3.99992C3.63175 2.66667 3.33325 2.96517 3.33325 3.33333V39.3333C3.33325 39.7015 3.63175 40 3.99992 40H31.9999C32.3681 40 32.6666 39.7015 32.6666 39.3333V36H35.9999C36.3681 36 36.6666 35.7015 36.6666 35.3333V10C36.6666 9.98533 36.6593 9.97267 36.6579 9.958ZM27.3333 2.276L34.3906 9.33333H27.3333V2.276ZM31.3333 38.6667H4.66659V4H7.33325V35.3333C7.33325 35.7015 7.63175 36 7.99992 36H31.3333V38.6667ZM35.3333 34.6667H8.66659V1.33333H25.9999V10C25.9999 10.3682 26.2984 10.6667 26.6666 10.6667H35.3333V34.6667Z" fill="#151116"/>
</g>
</g>
</g>
</svg>
