<svg width="80" height="62" viewBox="0 0 80 62" fill="none" xmlns="http://www.w3.org/2000/svg">
<g clip-path="url(#clip0_1252_3218)">
<path d="M78.3123 61.129V61.2904H78.4617C78.4946 61.2904 78.5229 61.2828 78.5435 61.27C78.5623 61.2577 78.5729 61.236 78.5729 61.2091C78.5729 61.1828 78.5623 61.1623 78.5435 61.1495C78.5229 61.1354 78.4946 61.129 78.4617 61.129H78.3123ZM78.4629 61.0167C78.5399 61.0167 78.5999 61.0337 78.6423 61.0682C78.6847 61.1027 78.7052 61.1495 78.7052 61.2091C78.7052 61.2594 78.6894 61.2998 78.6546 61.3331C78.6217 61.3641 78.5747 61.3846 78.5117 61.3922L78.7099 61.6191H78.5558L78.3723 61.394H78.3123V61.6191H78.1835V61.0167H78.4629ZM78.4241 61.828C78.4947 61.828 78.5605 61.8133 78.6199 61.787C78.6817 61.7601 78.7346 61.7244 78.7805 61.6788C78.8258 61.6338 78.8623 61.5805 78.8888 61.5174C78.9141 61.4565 78.9282 61.391 78.9282 61.3203C78.9282 61.2501 78.9141 61.184 78.8888 61.1231C78.8623 61.0617 78.8258 61.0073 78.7805 60.9617C78.7346 60.9161 78.6817 60.8804 78.6199 60.8535C78.5605 60.8284 78.4947 60.8161 78.4241 60.8161C78.3535 60.8161 78.2858 60.8284 78.2246 60.8535C78.1617 60.8804 78.1064 60.9161 78.0611 60.9617C78.0152 61.0073 77.9794 61.0617 77.9541 61.1231C77.9276 61.184 77.9152 61.2501 77.9152 61.3203C77.9152 61.391 77.9276 61.4565 77.9541 61.5174C77.9794 61.5805 78.0152 61.6338 78.0611 61.6788C78.1064 61.7244 78.1617 61.7601 78.2246 61.787C78.2858 61.8133 78.3535 61.828 78.4241 61.828ZM78.4241 60.6704C78.5164 60.6704 78.6011 60.6874 78.6829 60.7219C78.7629 60.7552 78.8323 60.802 78.8935 60.8617C78.9535 60.9196 79.0005 60.9886 79.0346 61.0682C79.0694 61.1465 79.0864 61.2314 79.0864 61.3203C79.0864 61.4097 79.0694 61.494 79.0346 61.5724C79.0005 61.6507 78.9535 61.7198 78.8935 61.7794C78.8323 61.8373 78.7629 61.8841 78.6829 61.9186C78.6011 61.9531 78.5164 61.9701 78.4241 61.9701C78.3294 61.9701 78.2435 61.9531 78.1617 61.9186C78.0799 61.8841 78.0094 61.8373 77.9494 61.7794C77.8899 61.7198 77.8429 61.6507 77.8082 61.5724C77.7735 61.494 77.7564 61.4097 77.7564 61.3203C77.7564 61.2314 77.7735 61.1465 77.8082 61.0682C77.8429 60.9886 77.8899 60.9196 77.9494 60.8617C78.0094 60.802 78.0799 60.7552 78.1617 60.7219C78.2435 60.6874 78.3294 60.6704 78.4241 60.6704ZM17.2293 58.3481C17.2293 57.1987 17.9847 56.2543 19.2192 56.2543C20.3988 56.2543 21.1952 57.158 21.1952 58.3481C21.1952 59.5381 20.3988 60.4417 19.2192 60.4417C17.9847 60.4417 17.2293 59.4977 17.2293 58.3481ZM22.5397 58.3481V55.0783H21.1135V55.8723C20.6611 55.2834 19.9748 54.9138 19.0418 54.9138C17.2025 54.9138 15.7607 56.3514 15.7607 58.3481C15.7607 60.3464 17.2025 61.7823 19.0418 61.7823C19.9748 61.7823 20.6611 61.4127 21.1135 60.8237V61.618H22.5397V58.3481ZM70.7341 58.3481C70.7341 57.1987 71.4894 56.2543 72.7241 56.2543C73.9052 56.2543 74.7 57.158 74.7 58.3481C74.7 59.5381 73.9052 60.4417 72.7241 60.4417C71.4894 60.4417 70.7341 59.4977 70.7341 58.3481ZM76.0458 58.3481V52.4521H74.6182V55.8723C74.1658 55.2834 73.4794 54.9138 72.5464 54.9138C70.707 54.9138 69.2652 56.3514 69.2652 58.3481C69.2652 60.3464 70.707 61.7823 72.5464 61.7823C73.4794 61.7823 74.1658 61.4127 74.6182 60.8237V61.618H76.0458V58.3481ZM40.2426 56.187C41.1614 56.187 41.752 56.7617 41.9028 57.7734H38.4992C38.6515 56.8291 39.2264 56.187 40.2426 56.187ZM40.2709 54.9138C38.3484 54.9138 37.0039 56.3091 37.0039 58.3481C37.0039 60.4277 38.4034 61.7823 40.3667 61.7823C41.3547 61.7823 42.2594 61.5367 43.0557 60.8664L42.3567 59.8124C41.807 60.2493 41.1065 60.4967 40.4484 60.4967C39.5295 60.4967 38.6924 60.0721 38.4866 58.8947H43.3572C43.3714 58.7174 43.3855 58.539 43.3855 58.3481C43.3714 56.3091 42.1085 54.9138 40.2709 54.9138ZM57.4917 58.3481C57.4917 57.1987 58.2471 56.2543 59.4817 56.2543C60.6611 56.2543 61.4576 57.158 61.4576 58.3481C61.4576 59.5381 60.6611 60.4417 59.4817 60.4417C58.2471 60.4417 57.4917 59.4977 57.4917 58.3481ZM62.8023 58.3481V55.0783H61.3758V55.8723C60.9217 55.2834 60.237 54.9138 59.3041 54.9138C57.465 54.9138 56.0231 56.3514 56.0231 58.3481C56.0231 60.3464 57.465 61.7823 59.3041 61.7823C60.237 61.7823 60.9217 61.4127 61.3758 60.8237V61.618H62.8023V58.3481ZM49.4373 58.3481C49.4373 60.3324 50.8226 61.7823 52.9367 61.7823C53.9247 61.7823 54.5828 61.563 55.2958 61.0027L54.6111 59.8527C54.0754 60.2364 53.5131 60.4417 52.8943 60.4417C51.7556 60.4277 50.9184 59.6071 50.9184 58.3481C50.9184 57.089 51.7556 56.2684 52.8943 56.2543C53.5131 56.2543 54.0754 56.4595 54.6111 56.8432L55.2958 55.6938C54.5828 55.1331 53.9247 54.9138 52.9367 54.9138C50.8226 54.9138 49.4373 56.364 49.4373 58.3481ZM67.8252 54.9138C67.0023 54.9138 66.4664 55.2975 66.0958 55.8723V55.0783H64.6823V61.618H66.11V57.9519C66.11 56.8698 66.5764 56.2684 67.5094 56.2684C67.7982 56.2684 68.1 56.3091 68.4017 56.4329L68.8411 55.0924C68.5258 54.9686 68.1141 54.9138 67.8252 54.9138ZM29.5935 55.5982C28.9071 55.1472 27.9616 54.9138 26.9187 54.9138C25.2569 54.9138 24.1873 55.7078 24.1873 57.0076C24.1873 58.074 24.9836 58.7315 26.4506 58.9368L27.1244 59.0327C27.9066 59.1421 28.2757 59.3474 28.2757 59.717C28.2757 60.2224 27.7542 60.5108 26.7805 60.5108C25.7925 60.5108 25.0794 60.1961 24.5988 59.8264L23.9265 60.9336C24.7087 61.508 25.6967 61.7823 26.7663 61.7823C28.6605 61.7823 29.7584 60.8927 29.7584 59.648C29.7584 58.4987 28.8945 57.8971 27.4668 57.6919L26.7946 57.5948C26.1773 57.5134 25.6825 57.3913 25.6825 56.9528C25.6825 56.4736 26.1491 56.187 26.9312 56.187C27.7684 56.187 28.5788 56.5018 28.9762 56.7476L29.5935 55.5982ZM47.9954 54.9138C47.1724 54.9138 46.6368 55.2975 46.2677 55.8723V55.0783H44.8541V61.618H46.2802V57.9519C46.2802 56.8698 46.7467 56.2684 47.6797 56.2684C47.9687 56.2684 48.2703 56.3091 48.5718 56.4329L49.0117 55.0924C48.6959 54.9686 48.2844 54.9138 47.9954 54.9138ZM35.8243 55.0783H33.4919V53.0942H32.05V55.0783H30.7197V56.378H32.05V59.3614C32.05 60.8787 32.6406 61.7823 34.3275 61.7823C34.9464 61.7823 35.6594 61.5911 36.1118 61.2764L35.7002 60.058C35.2746 60.3043 34.8081 60.4277 34.4374 60.4277C33.7244 60.4277 33.4919 59.989 33.4919 59.3333V56.378H35.8243V55.0783ZM14.4994 61.618V57.5134C14.4994 55.9678 13.5115 54.9279 11.9188 54.9138C11.0817 54.8997 10.2178 55.1597 9.61308 56.0774C9.16072 55.3523 8.44766 54.9138 7.44561 54.9138C6.74508 54.9138 6.06025 55.119 5.52466 55.8848V55.0783H4.09692V61.618H5.53722V57.9926C5.53722 56.8573 6.16861 56.2543 7.14402 56.2543C8.09114 56.2543 8.57019 56.8698 8.57019 57.9785V61.618H10.012V57.9926C10.012 56.8573 10.6701 56.2543 11.6173 56.2543C12.5911 56.2543 13.0575 56.8698 13.0575 57.9785V61.618H14.4994Z" fill="#231F20"/>
<path d="M79.1918 39.8698V38.9146H78.9424L78.653 39.5707L78.3659 38.9146H78.1147V39.8698H78.2918V39.1495L78.5624 39.7711H78.7459L79.0159 39.1479V39.8698H79.1918ZM77.6071 39.8698V39.0774H77.9277V38.9161H77.1106V39.0774H77.4312V39.8698H77.6071Z" fill="#F79410"/>
<path d="M50.7943 43.9796H29.1794V5.24951H50.7943V43.9796Z" fill="#FF5F00"/>
<path d="M30.5633 24.6114C30.5633 16.7549 34.2527 9.75647 39.9982 5.2464C35.7967 1.94843 30.4942 -0.0200195 24.7314 -0.0200195C11.0886 -0.0200195 0.029541 11.0077 0.029541 24.6114C0.029541 38.2152 11.0886 49.2429 24.7314 49.2429C30.4942 49.2429 35.7967 47.2744 39.9982 43.9765C34.2527 39.4664 30.5633 32.468 30.5633 24.6114Z" fill="#EB001B"/>
<path d="M79.9458 24.6114C79.9458 38.2152 68.887 49.2429 55.244 49.2429C49.4812 49.2429 44.1787 47.2744 39.9756 43.9765C45.7226 39.4664 49.4122 32.468 49.4122 24.6114C49.4122 16.7549 45.7226 9.75647 39.9756 5.2464C44.1787 1.94843 49.4812 -0.0200195 55.244 -0.0200195C68.887 -0.0200195 79.9458 11.0077 79.9458 24.6114Z" fill="#F79E1B"/>
</g>
<defs>
<clipPath id="clip0_1252_3218">
<rect width="80" height="62" fill="white"/>
</clipPath>
</defs>
</svg>
