<svg width="16" height="16" viewBox="0 0 16 16" fill="none" xmlns="http://www.w3.org/2000/svg">
<g clip-path="url(#clip0_1252_2077)">
<path d="M7.14282 6.70264V10.2855C7.14141 10.7583 6.75848 11.1412 6.28568 11.1426H5.71711C5.46097 10.8054 5.2842 10.4148 5.19997 9.99978H5.99997C6.15776 9.99978 6.28568 9.87186 6.28568 9.71407C6.28568 9.55627 6.15776 9.42835 5.99997 9.42835H5.14282C5.1426 9.03487 5.22434 8.64565 5.38282 8.28549H5.99997C6.15776 8.28549 6.28568 8.15758 6.28568 7.99978C6.28568 7.84198 6.15776 7.71407 5.99997 7.71407H5.71711C6.07592 7.23719 6.57417 6.88372 7.14282 6.70264Z" fill="#151116"/>
<path d="M6.85714 0H2.57143V1.71429C2.57002 2.18709 2.18709 2.57002 1.71429 2.57143H0V10.2857C0 10.4435 0.127919 10.5714 0.285714 10.5714H3.57429C3.50065 10.2909 3.45472 10.0038 3.43714 9.71429H1.14286C0.985062 9.71429 0.857143 9.58637 0.857143 9.42857C0.857143 9.27078 0.985062 9.14286 1.14286 9.14286H3.43714C3.45635 8.85353 3.50226 8.56659 3.57429 8.28572H1.14286C0.985062 8.28572 0.857143 8.1578 0.857143 8C0.857143 7.8422 0.985062 7.71429 1.14286 7.71429H3.76286C3.88471 7.41276 4.03895 7.12536 4.22286 6.85714H1.14286C0.985062 6.85714 0.857143 6.72922 0.857143 6.57143C0.857143 6.41363 0.985062 6.28571 1.14286 6.28571H4.68571C5.00719 5.94393 5.3803 5.6547 5.79143 5.42857H1.14286C0.985062 5.42857 0.857143 5.30065 0.857143 5.14286C0.857143 4.98506 0.985062 4.85714 1.14286 4.85714H6C6.1578 4.85714 6.28571 4.98506 6.28571 5.14286C6.28523 5.16013 6.28332 5.17733 6.28 5.19429C6.55807 5.07998 6.84723 4.99476 7.14286 4.94V0.285714C7.14286 0.127919 7.01494 0 6.85714 0ZM6 4H1.14286C0.985062 4 0.857143 3.87208 0.857143 3.71429C0.857143 3.55649 0.985062 3.42857 1.14286 3.42857H6C6.1578 3.42857 6.28571 3.55649 6.28571 3.71429C6.28571 3.87208 6.1578 4 6 4Z" fill="#151116"/>
<path d="M10 9.99978H10.8C10.7158 10.4148 10.539 10.8054 10.2829 11.1426H9.71432C9.24152 11.1412 8.85859 10.7583 8.85718 10.2855V6.70264C9.42583 6.88372 9.92408 7.23719 10.2829 7.71407H10C9.84224 7.71407 9.71432 7.84198 9.71432 7.99978C9.71432 8.15758 9.84224 8.28549 10 8.28549H10.6172C10.7757 8.64565 10.8574 9.03487 10.8572 9.42835H10C9.84224 9.42835 9.71432 9.55627 9.71432 9.71407C9.71432 9.87186 9.84224 9.99978 10 9.99978Z" fill="#151116"/>
<path d="M10.8571 1.71409V0.403809L9.26111 1.99981H10.5714C10.7292 1.99981 10.8571 1.87189 10.8571 1.71409Z" fill="#151116"/>
<path d="M2.00005 1.71409V0.403809L0.404053 1.99981H1.71434C1.87213 1.99981 2.00005 1.87189 2.00005 1.71409Z" fill="#151116"/>
<path d="M15.7143 0H11.4286V1.71429C11.4272 2.18709 11.0443 2.57002 10.5715 2.57143H8.85718V4.94C9.1528 4.99476 9.44196 5.07998 9.72004 5.19429C9.71672 5.17733 9.71481 5.16013 9.71432 5.14286C9.71432 4.98506 9.84224 4.85714 10 4.85714H14.8572C15.015 4.85714 15.1429 4.98506 15.1429 5.14286C15.1429 5.30065 15.015 5.42857 14.8572 5.42857H10.2086C10.6197 5.6547 10.9928 5.94393 11.3143 6.28571H14.8572C15.015 6.28571 15.1429 6.41363 15.1429 6.57143C15.1429 6.72922 15.015 6.85714 14.8572 6.85714H11.7772C11.9611 7.12536 12.1153 7.41276 12.2372 7.71429H14.8572C15.015 7.71429 15.1429 7.8422 15.1429 8C15.1429 8.1578 15.015 8.28572 14.8572 8.28572H12.4286C12.5011 8.5664 12.546 8.85346 12.5629 9.14286H14.8572C15.015 9.14286 15.1429 9.27078 15.1429 9.42857C15.1429 9.58637 15.015 9.71429 14.8572 9.71429H12.5629C12.5437 10.0036 12.4978 10.2906 12.4257 10.5714H15.7143C15.8721 10.5714 16 10.4435 16 10.2857V0.285714C16 0.127919 15.8721 0 15.7143 0ZM14.8572 4H10C9.84224 4 9.71432 3.87208 9.71432 3.71429C9.71432 3.55649 9.84224 3.42857 10 3.42857H14.8572C15.015 3.42857 15.1429 3.55649 15.1429 3.71429C15.1429 3.87208 15.015 4 14.8572 4Z" fill="#151116"/>
<path d="M12 9.42859C12.0025 7.29313 10.3271 5.53229 8.19418 5.42862C6.06123 5.32495 4.223 6.91503 4.0184 9.04067C3.81381 11.1663 5.31501 13.0778 7.42857 13.3829V15.4286C7.42857 15.7442 7.68441 16 8 16C8.31559 16 8.57143 15.7442 8.57143 15.4286V13.3829C10.5371 13.098 11.9966 11.4148 12 9.42859ZM8 12.8572C6.10645 12.8572 4.57143 11.3221 4.57143 9.42859C4.57143 7.53504 6.10645 6.00002 8 6.00002C9.89355 6.00002 11.4286 7.53504 11.4286 9.42859C11.4265 11.3213 9.8927 12.8551 8 12.8572Z" fill="#151116"/>
</g>
<defs>
<clipPath id="clip0_1252_2077">
<rect width="16" height="16" fill="white"/>
</clipPath>
</defs>
</svg>
