<svg xmlns:inkscape="http://www.inkscape.org/namespaces/inkscape" xmlns:sodipodi="http://sodipodi.sourceforge.net/DTD/sodipodi-0.dtd" xmlns="http://www.w3.org/2000/svg" xmlns:svg="http://www.w3.org/2000/svg" version="1.1" id="layer" x="0px" y="0px" viewBox="0 0 600 118" xml:space="preserve" sodipodi:docname="proven.svg" width="600" height="118" inkscape:version="1.2.2 (732a01da63, 2022-12-09)"><defs id="defs13"/><sodipodi:namedview id="namedview11" pagecolor="#505050" bordercolor="#ffffff" borderopacity="1" inkscape:pageshadow="0" inkscape:pageopacity="0" inkscape:pagecheckerboard="1" showgrid="false" inkscape:zoom="1.2898773" inkscape:cx="323.6742" inkscape:cy="221.72652" inkscape:window-width="1920" inkscape:window-height="1027" inkscape:window-x="-8" inkscape:window-y="-8" inkscape:window-maximized="1" inkscape:current-layer="layer" height="119.2px" inkscape:showpageshadow="2" inkscape:deskcolor="#505050"/>
<style type="text/css" id="style2">
	.st0{fill:#D9C594;}
	.st1{fill:#FFFFFF;}
	.st2{fill:#1D1D1D;}
</style>
<path class="st0" d="M 82.01367,41.279863 C 82.01367,64.134812 63.6106,82.66041 41.006834,82.66041 18.403067,82.66041 0,64.134812 0,41.279863 0,18.424915 18.403067,0 41.006834,0 63.6106,0 82.01367,18.525597 82.01367,41.279863 Z" id="path4" style="stroke-width:1.00349"/>
<path class="st1" d="m 57.409568,20.035836 -23.4039,23.559727 -9.401567,-9.464164 -9.401567,9.464164 18.803134,19.02901 32.805472,-33.02389 z" id="path6" style="stroke-width:1.00349"/>
<path class="st2" d="m 148.8248,49.737201 c -1.90031,1.711604 -4.90081,2.3157 -9.50158,2.3157 h -17.70295 v 19.02901 H 108.6181 V 14.901024 h 30.70512 c 4.50075,0 7.60127,0.604095 9.50158,2.215017 2.50042,2.3157 4.8008,5.940273 4.8008,16.31058 0,10.370307 -2.30038,14.095563 -4.8008,16.31058 z m -14.60243,-7.853242 c 2.90048,0 3.80063,-0.201365 4.40073,-0.604096 0.90015,-0.80546 1.60027,-2.215017 1.60027,-7.651877 0,-5.43686 -0.80013,-6.846416 -1.60027,-7.551194 -0.6001,-0.503413 -1.40023,-0.704778 -4.40073,-0.704778 h -12.6021 v 16.612628 z m 23.80397,29.298635 V 27.083618 h 12.20203 v 6.745734 c 4.50075,-4.732082 6.90115,-6.846417 10.40174,-6.846417 h 4.70078 v 12.081911 h -5.70095 c -3.30055,0 -5.90099,0.302048 -9.40157,1.812287 v 30.305461 c -0.10002,0 -12.20203,0 -12.20203,0 z m 33.90565,-2.71843 c -2.90048,-2.919795 -4.00067,-6.846417 -4.00067,-19.331058 0,-12.484642 1.10019,-16.411263 4.00067,-19.431741 1.8003,-1.912969 4.2007,-2.617747 8.70145,-2.617747 h 14.90248 c 4.50075,0 6.80114,0.704778 8.70145,2.617747 2.90049,3.020478 4.00067,6.846417 4.00067,19.431741 0,12.484641 -1.10018,16.411263 -4.00067,19.331058 -1.90031,2.013652 -4.2007,2.71843 -8.70145,2.71843 h -14.90248 c -4.50075,0 -6.80113,-0.704778 -8.70145,-2.71843 z m 9.10152,-7.75256 c 0.50008,0.604096 1.10018,0.805461 3.20053,0.805461 h 7.60127 c 2.10035,0 2.70045,-0.201365 3.20053,-0.805461 0.6001,-0.604095 1.00017,-2.114334 1.00017,-11.578498 0,-9.464164 -0.40007,-10.87372 -1.00017,-11.578498 -0.50008,-0.604096 -1.10018,-0.704779 -3.20053,-0.704779 h -7.60127 c -2.10035,0 -2.70045,0.201366 -3.20053,0.704779 -0.6001,0.704778 -1.00017,2.215017 -1.00017,11.578498 0,9.464164 0.40007,10.87372 1.00017,11.578498 z m 58.60976,7.75256 c -0.80013,2.315699 -1.70028,2.919795 -4.10068,2.919795 h -8.00133 c -2.30039,0 -3.30055,-0.604096 -4.10069,-2.919795 L 229.53826,27.083618 h 13.00216 l 8.90149,31.312286 h 0.90015 l 8.80146,-31.312286 h 12.40207 z m 27.20454,-16.511946 c 0.10001,6.947099 0.6001,8.860069 1.00016,9.363482 0.6001,0.604095 1.8003,0.80546 3.90065,0.80546 h 7.40124 c 2.50042,0 3.10052,-0.201365 3.6006,-0.80546 0.40007,-0.503413 0.6001,-1.711604 0.6001,-4.832765 h 11.20187 c -0.10002,6.544369 -0.80014,9.967577 -2.90049,12.081911 -1.40023,1.308874 -3.10051,2.517065 -7.8013,2.517065 h -16.2027 c -4.50075,0 -6.80113,-0.704778 -8.70145,-2.71843 -2.90048,-2.919795 -4.00067,-6.343003 -4.00067,-19.331058 0,-12.988054 1.10019,-16.411263 4.00067,-19.43174 1.8003,-1.91297 4.2007,-2.617748 8.70145,-2.617748 h 14.80247 c 4.50075,0 6.90115,0.704778 8.70145,2.617748 2.90048,2.919795 3.50058,6.343003 3.50058,19.02901 v 1.409556 c 0,1.308874 -0.30005,1.812287 -1.8003,1.812287 0,0.100682 -26.00433,0.100682 -26.00433,0.100682 z m 0,-6.947099 h 16.2027 c 0,-5.940273 -0.40007,-7.551194 -1.00017,-8.15529 -0.50008,-0.503413 -1.2002,-0.704778 -3.70062,-0.704778 h -6.6011 c -2.10035,0 -3.30055,0.201365 -3.90065,0.805461 -0.50008,0.604096 -0.90015,1.912969 -1.00016,8.054607 z m 34.00567,26.177475 V 27.083618 h 12.20203 v 5.83959 c 5.70095,-5.134812 7.40123,-5.940273 11.50192,-5.940273 h 5.30088 c 3.70062,0 6.10102,0.805461 7.8013,2.517065 1.8003,1.812287 2.50042,4.127986 2.50042,10.571672 V 71.182594 H 347.95799 V 41.481229 c 0,-1.812287 -0.30005,-2.919796 -1.00016,-3.624574 -0.70012,-0.704778 -1.50025,-1.006826 -3.70062,-1.006826 h -3.30055 c -2.10035,0 -4.00067,0.503413 -6.90115,1.812287 v 32.419795 c 0,0.100683 -12.20203,0.100683 -12.20203,0.100683 z m 100.41673,0 H 384.46408 V 15.001706 h 37.00617 v 5.436861 h -30.70512 v 18.827645 h 26.4044 v 5.336177 h -26.4044 v 21.042662 h 30.50508 z m 2.60044,0 15.10251,-21.848123 -14.80246,-21.042662 h 6.90115 l 11.60193,16.71331 h 0.70012 l 11.4019,-16.71331 h 6.50108 l -14.80247,21.244027 15.10252,21.646758 h -6.90115 l -12.002,-17.216724 h -0.6001 l -11.70195,17.216724 z m 48.70811,-42.890785 v 5.738908 c 5.60094,-4.6314 7.60127,-5.738908 12.10202,-5.738908 h 4.90082 c 4.90081,0 7.2012,0.805461 9.10151,2.617747 2.50042,2.617748 3.30055,5.940273 3.30055,18.827645 0,12.988055 -0.90015,16.310581 -3.30055,18.928328 -1.8003,1.812287 -4.2007,2.617747 -9.10151,2.617747 h -4.90082 c -4.40073,0 -6.50108,-1.107508 -12.10202,-5.738907 V 83.26451 h -5.90098 V 28.291809 c 0,0 5.90098,0 5.90098,0 z m 0,9.061433 v 24.667236 c 4.40074,2.819112 6.90115,3.926621 10.60177,3.926621 h 5.20087 c 3.40056,0 4.8008,-0.604096 5.70095,-1.510239 1.60026,-1.610921 2.00033,-4.127986 2.00033,-14.800341 0,-10.571673 -0.40007,-13.18942 -2.00033,-14.699659 -1.00017,-1.006826 -2.30039,-1.510239 -5.70095,-1.510239 h -5.4009 c -3.70062,0.100683 -6.20104,1.208191 -10.40174,3.926621 z m 42.10702,14.296929 c 0.10002,9.766211 0.70012,11.981228 1.90032,13.189419 1.00016,1.006826 2.10035,1.208192 5.10085,1.208192 h 10.60176 c 2.60044,0 3.70062,-0.302048 4.60077,-1.208192 1.00017,-1.006825 1.40023,-2.315699 1.40023,-6.745733 h 5.70096 c -0.20004,6.544368 -0.90015,8.860068 -2.90049,10.87372 -1.60027,1.610921 -3.70062,2.215017 -7.70128,2.215017 h -12.30205 c -4.40074,0 -6.90115,-0.604096 -8.70145,-2.416382 -2.70045,-2.71843 -3.70062,-6.141639 -3.70062,-19.129693 0,-12.78669 1.00017,-16.31058 3.70062,-19.02901 1.8003,-1.812287 4.30071,-2.416383 8.70145,-2.416383 h 10.70178 c 4.30072,0 6.90115,0.604096 8.60144,2.3157 2.70045,2.819113 3.70061,6.242321 3.70061,18.726962 v 1.308874 c 0,0.604096 -0.20003,1.006826 -1.00016,1.006826 z m 0,-4.732082 h 23.60393 c -0.10001,-8.860069 -0.70011,-10.974403 -2.00033,-12.182594 -0.90015,-0.906143 -2.00033,-1.308874 -5.10085,-1.308874 h -9.50158 c -3.0005,0 -4.10069,0.302048 -5.20087,1.308874 -1.2002,1.208191 -1.70028,3.221843 -1.8003,12.182594 z m 37.50625,24.264505 V 28.291809 h 5.90099 v 6.947099 c 5.20086,-5.43686 7.10118,-7.047782 10.70178,-7.047782 h 4.90082 v 6.141639 h -5.4009 c -3.30055,0 -5.50092,0.503412 -10.10169,3.725255 v 33.225256 c -0.10001,-0.100682 -6.001,-0.100682 -6.001,-0.100682 z m 47.70795,-1.308874 -3.70061,1.006826 c -1.90032,0.40273 -3.80064,0.604096 -5.70095,0.604096 -2.80047,0 -4.8008,-0.503413 -6.30105,-2.013652 -1.40024,-1.409557 -1.8003,-3.322526 -1.8003,-6.745734 V 33.426621 h -7.10119 v -5.134812 h 7.10119 V 17.518771 h 6.001 V 28.291809 H 600 v 5.134812 h -11.70195 v 27.989761 c 0,2.215017 0.20003,3.221843 0.90015,3.725256 0.50008,0.604096 1.40023,0.906144 3.70062,0.906144 h 7.00116 z M 352.15869,96.15188 h 2.4004 v 21.54607 h -2.4004 z m 10.90182,8.0546 v 7.45052 c 0,3.4232 0.20003,4.32935 2.20037,4.32935 0.90015,0 2.80046,-0.20137 2.80046,-0.20137 l 0.20004,1.91297 c 0,0 -2.10035,0.30205 -3.20054,0.30205 -3.20053,0 -4.30071,-1.20819 -4.30071,-5.73891 v -8.15529 h -2.20037 v -2.01365 h 2.20037 v -4.73208 h 2.30038 v 4.73208 h 4.90082 v 2.01365 c 0,0.10068 -4.90082,0.10068 -4.90082,0.10068 z m 9.10152,-8.55802 h 2.4004 l -2.00034,6.84642 h -1.8003 z m 16.30271,8.75939 c 0,0 -3.40056,-0.50341 -5.4009,-0.50341 -1.90031,0 -3.40056,0.50341 -3.40056,2.41638 0,1.51024 0.70011,1.91297 4.00066,2.41638 3.90065,0.70478 5.30089,1.40956 5.30089,4.43004 0,3.62457 -2.30039,4.83276 -6.001,4.83276 -2.00034,0 -5.50092,-0.6041 -5.50092,-0.6041 l 0.10002,-2.01365 c 0,0 3.50058,0.50342 5.10085,0.50342 2.50041,0 3.90065,-0.6041 3.90065,-2.71843 0,-1.61093 -0.80014,-2.01366 -4.2007,-2.51707 -3.50059,-0.60409 -5.20087,-1.20819 -5.20087,-4.32935 0,-3.42321 2.80047,-4.53072 5.60093,-4.53072 2.30039,0 5.60094,0.6041 5.60094,0.6041 0,0 0.10001,2.01365 0.10001,2.01365 z m 16.60277,-8.25597 h 5.20087 l 5.90098,21.54607 h -2.4004 l -1.50025,-5.53754 h -9.20153 l -1.50025,5.53754 h -2.4004 z m -1.50025,13.8942 h 8.10135 l -3.30055,-11.77987 h -1.60027 z m 16.30272,-14.69966 h 2.30038 v 22.35153 h -2.30038 z m 7.8013,0 h 2.30038 v 22.35153 h -2.30038 z m 19.40323,0.80546 h 5.20087 l 5.90098,21.54607 h -2.4004 l -1.50025,-5.53754 h -9.20153 l -1.50025,5.53754 h -2.4004 z m -1.40023,13.8942 h 8.10135 l -3.30055,-11.77987 h -1.60027 z m 28.60477,-0.40274 c 0,6.24233 -1.70029,8.35666 -7.30122,8.35666 -1.90032,0 -5.20087,-0.30205 -5.20087,-0.30205 V 95.34642 h 2.30039 v 7.55119 c 0,0 2.4004,-1.10751 4.60076,-1.10751 4.10069,0 5.60094,2.3157 5.60094,7.85324 z m -2.4004,0 c 0,-4.0273 -0.80014,-5.7389 -3.50059,-5.7389 -2.10035,0 -4.30071,0.90614 -4.30071,0.90614 v 10.9744 c 0,0 2.00033,0.20137 2.80046,0.20137 4.30072,0 5.00084,-1.91297 5.00084,-6.34301 z m 19.40323,0.10069 c 0,5.63822 -1.40023,8.25597 -6.6011,8.25597 -5.20087,0 -6.6011,-2.61775 -6.6011,-8.25597 0,-5.33618 1.70028,-7.95393 6.6011,-7.95393 4.90082,0 6.6011,2.61775 6.6011,7.95393 z m -2.4004,0 c 0,-4.32935 -0.90015,-5.94028 -4.2007,-5.94028 -3.30055,0 -4.2007,1.51024 -4.2007,5.94028 0,4.43003 0.6001,6.24232 4.2007,6.24232 3.6006,0 4.2007,-1.81229 4.2007,-6.24232 z m 18.70312,-7.65188 v 15.6058 h -2.30039 v -1.10751 c 0,0 -2.30038,1.40956 -4.60076,1.40956 -4.30072,0 -5.20087,-2.01365 -5.20087,-7.75256 v -8.15529 h 2.30038 v 8.15529 c 0,4.32935 0.40007,5.73891 3.30055,5.73891 2.30039,0 4.2007,-1.10751 4.2007,-1.10751 v -12.68601 z m 8.20136,2.11433 v 7.45052 c 0,3.4232 0.20004,4.32935 2.20037,4.32935 0.90015,0 2.80047,-0.20137 2.80047,-0.20137 l 0.20003,1.91297 c 0,0 -2.10035,0.30205 -3.20053,0.30205 -3.20054,0 -4.30072,-1.20819 -4.30072,-5.73891 v -8.15529 h -2.20037 v -2.01365 h 2.20037 v -4.73208 h 2.30038 v 4.73208 h 4.90082 v 2.01365 h -4.90082 z m 14.00234,-8.0546 h 15.50258 v 2.11433 h -6.50108 v 19.43174 h -2.4004 V 98.26621 h -6.6011 z m 16.00267,5.94027 h 2.30038 v 2.11433 c 0,0 2.70045,-1.91296 5.70095,-2.41638 v 2.41638 c -2.90048,0.6041 -5.60093,2.11434 -5.60093,2.11434 v 11.47781 h -2.30039 v -15.70648 z m 23.4039,0 v 15.6058 h -2.30039 v -1.10751 c 0,0 -2.30038,1.40956 -4.60076,1.40956 -4.30072,0 -5.20087,-2.01365 -5.20087,-7.75256 v -8.15529 h 2.30038 v 8.15529 c 0,4.32935 0.40007,5.73891 3.30055,5.73891 2.30039,0 4.2007,-1.10751 4.2007,-1.10751 v -12.68601 z m 15.30255,2.3157 c 0,0 -3.40057,-0.50341 -5.4009,-0.50341 -1.90032,0 -3.40057,0.50341 -3.40057,2.41638 0,1.51024 0.70012,1.91297 4.00067,2.41638 3.90065,0.70478 5.30088,1.40956 5.30088,4.43004 0,3.62457 -2.30038,4.83276 -6.001,4.83276 -2.00033,0 -5.50092,-0.6041 -5.50092,-0.6041 l 0.10002,-2.01365 c 0,0 3.50058,0.50342 5.10085,0.50342 2.50042,0 3.90065,-0.6041 3.90065,-2.71843 0,-1.61093 -0.80013,-2.01366 -4.2007,-2.51707 -3.50058,-0.60409 -5.20087,-1.20819 -5.20087,-4.32935 0,-3.42321 2.80047,-4.53072 5.60094,-4.53072 2.30038,0 5.60093,0.6041 5.60093,0.6041 z m 7.8013,-0.20137 v 7.45052 c 0,3.4232 0.20003,4.32935 2.20036,4.32935 0.90015,0 2.80047,-0.20137 2.80047,-0.20137 l 0.20003,1.91297 c 0,0 -2.10035,0.30205 -3.20053,0.30205 -3.20053,0 -4.30072,-1.20819 -4.30072,-5.73891 v -8.15529 h -2.20036 v -2.01365 h 2.20036 v -4.73208 h 2.30039 v 4.73208 h 4.90081 v 2.01365 z" id="path8" style="stroke-width:1.00349"/>
</svg>