<svg width="16" height="16" viewBox="0 0 16 16" fill="none" xmlns="http://www.w3.org/2000/svg">
<g clip-path="url(#clip0_1252_2094)">
<path d="M14.276 0H1.72397C0.773375 0 0 0.773344 0 1.72394V12.2677C0 13.2183 0.773375 13.9917 1.72397 13.9917H5.7975L7.6685 15.8627C7.75641 15.9506 7.87562 16 7.99997 16C8.12428 16 8.2435 15.9506 8.33144 15.8627L10.2025 13.9917H14.276C15.2267 13.9917 16 13.2183 16 12.2677V1.72394C16 0.773344 15.2266 0 14.276 0V0ZM15.0625 12.2677C15.0625 12.7013 14.7097 13.0542 14.276 13.0542H10.0083C9.88397 13.0542 9.76475 13.1035 9.67688 13.1915L7.99997 14.8683L6.32312 13.1915C6.23522 13.1036 6.116 13.0542 5.99166 13.0542H1.72397C1.29031 13.0542 0.9375 12.7013 0.9375 12.2677V1.72394C0.9375 1.29028 1.29031 0.9375 1.72397 0.9375H14.276C14.7097 0.9375 15.0625 1.29028 15.0625 1.72394V12.2677Z" fill="black"/>
<path d="M12.0268 5.39188L9.53503 5.02969L8.42034 2.7715C8.34137 2.61154 8.17843 2.51025 8 2.51025C7.82159 2.51025 7.65865 2.61154 7.57968 2.77153L6.46509 5.02969L3.97313 5.39188C3.79657 5.41753 3.64988 5.54119 3.59472 5.71091C3.5396 5.88059 3.5856 6.06688 3.71335 6.19141L5.51666 7.94912L5.09103 10.431C5.06088 10.6069 5.13316 10.7846 5.2775 10.8895C5.42188 10.9943 5.61325 11.0082 5.77116 10.9252L8 9.7534L10.2291 10.9252C10.2976 10.9612 10.3725 10.979 10.4471 10.979H10.4491C10.7074 10.9784 10.9166 10.7687 10.9166 10.5103C10.9166 10.4743 10.9125 10.4392 10.9048 10.4055L10.4833 7.94912L12.2866 6.19144C12.4144 6.06691 12.4604 5.88063 12.4052 5.71094C12.3501 5.54119 12.2034 5.41753 12.0268 5.39188ZM9.65243 7.44978C9.54193 7.55747 9.49153 7.71266 9.51762 7.86472L9.82456 9.65334L8.21812 8.8089C8.08156 8.73712 7.91843 8.73712 7.78187 8.8089L6.17559 9.65337L6.48234 7.86469C6.50841 7.71262 6.458 7.55747 6.34753 7.44981L5.04791 6.18303L6.84381 5.922C6.99647 5.89981 7.12844 5.80394 7.19672 5.66559L8.00003 4.03807L8.80343 5.66563C8.87171 5.80394 9.00365 5.89981 9.15634 5.922L10.9521 6.18303L9.65243 7.44978Z" fill="black"/>
</g>
<defs>
<clipPath id="clip0_1252_2094">
<rect width="16" height="16" fill="white"/>
</clipPath>
</defs>
</svg>
