<svg width="256" height="159" viewBox="0 0 256 159" fill="none" xmlns="http://www.w3.org/2000/svg">
<path d="M190.655 16.5845H58.6995V86.7911H190.655V16.5845Z" fill="white" stroke="#151116" stroke-miterlimit="10"/>
<path d="M137.118 32.3123V30.2097C137.118 29.7211 137.074 29.0082 136.982 28.0637C136.891 27.1192 136.851 26.4895 136.851 26.1602C136.851 25.8308 136.851 25.4364 136.887 24.9913C136.923 24.5461 136.923 24.2023 136.923 23.978C136.867 24.1227 136.664 24.8803 136.315 26.2506C135.398 29.7947 134.742 31.5668 134.347 31.5668C134.246 31.5718 134.144 31.5573 134.049 31.5243C133.954 31.4913 133.867 31.4404 133.795 31.375C133.658 31.2338 133.586 31.0494 133.596 30.8611C133.484 29.7739 133.258 28.699 132.92 27.6511C132.471 26.0299 132.09 24.7922 131.78 23.9273C131.549 27.7875 131.434 30.4003 131.434 31.7658L131.462 32.258C131.473 32.402 131.429 32.5451 131.339 32.6633C131.289 32.7138 131.228 32.7529 131.158 32.7774C131.089 32.8019 131.015 32.8112 130.941 32.8044C130.787 32.8092 130.635 32.7686 130.508 32.6886C130.459 32.6568 130.418 32.6152 130.389 32.5669C130.36 32.5186 130.344 32.4649 130.341 32.41C130.341 31.293 130.434 29.6174 130.619 27.3833C130.805 25.1493 130.897 23.4725 130.897 22.3531C130.826 22.2518 130.788 22.1334 130.79 22.0129C130.791 21.9503 130.812 21.8894 130.852 21.8383C130.892 21.7872 130.948 21.7484 131.013 21.727C131.173 21.6633 131.347 21.636 131.521 21.6474C131.786 21.6474 132.298 22.7499 133.056 24.9551C133.813 27.1602 134.284 28.6849 134.467 29.5293C134.518 29.3665 134.63 28.9612 134.796 28.3134C134.963 27.6656 135.142 26.9853 135.333 26.2832C135.524 25.5811 135.73 24.8646 135.949 24.1481C136.442 22.4809 136.867 21.6474 137.225 21.6474C137.384 21.6472 137.54 21.6886 137.674 21.7668C137.74 21.7979 137.795 21.8453 137.833 21.9035C137.871 21.9617 137.89 22.0285 137.889 22.0961C137.889 22.8875 137.926 24.0708 138 25.6463C138.079 27.2205 138.115 28.3641 138.115 29.077L138.071 30.8141C138.071 30.9371 138.107 31.3279 138.179 31.9866L138.215 32.3087C138.266 32.4237 138.293 32.5465 138.294 32.6705C138.287 32.8234 138.227 32.9704 138.123 33.0903C138.078 33.1602 138.013 33.218 137.936 33.258C137.859 33.298 137.771 33.3188 137.682 33.3183C137.308 33.3437 137.118 32.9999 137.118 32.3123Z" fill="#FFBD00"/>
<path d="M143.358 29.1421L143.548 30.1518C143.582 30.482 143.64 30.8097 143.723 31.1325C143.809 31.4682 143.866 31.8094 143.894 32.153C143.908 32.2504 143.886 32.3491 143.831 32.4336C143.776 32.5182 143.692 32.5837 143.592 32.6199C143.389 32.6303 143.186 32.5916 143.004 32.5077C142.928 32.4601 142.868 32.3944 142.83 32.3179C142.792 32.2413 142.778 32.1568 142.789 32.0734C142.763 31.3913 142.675 30.7123 142.527 30.0432L140.746 29.8008C140.628 30.1938 140.542 30.5941 140.488 30.9986C140.428 31.4329 140.373 31.7477 140.321 31.9468C140.214 32.3521 140.019 32.5547 139.729 32.5547C139.585 32.5565 139.444 32.513 139.331 32.4317C139.273 32.3977 139.226 32.3505 139.194 32.2946C139.161 32.2387 139.146 32.1762 139.149 32.1132L139.192 31.9685C139.979 29.2299 140.583 26.4503 141.001 23.645C141.001 23.569 141.033 23.3483 141.056 22.9864C141.112 22.183 141.223 21.6691 141.39 21.452H141.998C142.151 21.4484 142.301 21.4848 142.432 21.5569C142.49 21.5886 142.539 21.6344 142.571 21.6893C142.603 21.7441 142.618 21.806 142.614 21.8682C142.653 23.1138 142.775 24.3562 142.98 25.5884C143.184 26.765 143.31 27.9517 143.358 29.1421ZM142.412 29.4714C142.368 29.1934 142.351 28.9126 142.36 28.6319C142.36 28.2338 142.332 27.738 142.285 27.1445C142.237 26.551 142.161 25.867 142.07 25.0817C141.978 24.2964 141.911 23.7283 141.875 23.3736C141.327 26.1312 140.973 28.0746 140.814 29.2036C141.322 29.3878 141.865 29.4788 142.412 29.4714Z" fill="#FFBD00"/>
<path d="M146.092 32.2182L146.056 30.9552C146.056 30.9552 146.056 30.7634 146.08 30.3942C146.037 30.2531 145.937 29.0191 145.794 26.6849C145.651 24.3507 145.572 22.9212 145.56 22.4037H145.492C144.514 22.4037 144.025 22.2228 144.025 21.9116C144.028 21.853 144.05 21.7966 144.088 21.7495C144.126 21.7024 144.179 21.6668 144.24 21.6474C144.355 21.5866 144.485 21.553 144.618 21.5497L147.07 21.7017H147.364C147.738 21.7017 147.928 21.8356 147.928 22.0961C147.929 22.1602 147.912 22.2234 147.88 22.2802C147.847 22.337 147.8 22.3856 147.742 22.4218C147.627 22.5 147.488 22.5431 147.344 22.5449L146.513 22.4327L146.478 22.6028C146.478 23.6426 146.578 25.1987 146.78 27.2711C146.981 29.3436 147.081 30.9009 147.078 31.9431C147.08 32.0132 147.063 32.0827 147.029 32.1457C146.995 32.2087 146.945 32.2633 146.883 32.305C146.767 32.3992 146.617 32.4519 146.462 32.4534L146.092 32.2182Z" fill="#FFBD00"/>
<path d="M149.856 22.5774L149.804 26.6849C150.128 26.7465 150.459 26.7732 150.79 26.7645H151.442C151.487 26.5903 151.501 26.4108 151.486 26.2325C151.486 25.9285 151.45 25.259 151.37 24.2204C151.291 23.1818 151.251 22.411 151.251 21.879C151.25 21.8201 151.264 21.7616 151.291 21.7083C151.319 21.6549 151.36 21.6081 151.41 21.5714C151.489 21.4975 151.595 21.4525 151.708 21.4447C151.786 21.444 151.863 21.4525 151.939 21.4701C152.004 21.4888 152.067 21.5105 152.13 21.5352L152.3 21.5895C152.3 23.0153 152.357 25.0974 152.471 27.8357C152.585 30.574 152.642 31.989 152.642 32.0807C152.636 32.1353 152.615 32.1878 152.583 32.2342C152.55 32.2806 152.507 32.3197 152.455 32.3485C152.335 32.436 152.185 32.4833 152.03 32.4824C151.875 32.4824 151.748 32.3774 151.657 32.1675C151.541 31.8694 151.477 31.557 151.466 31.2411C151.434 30.8321 151.41 30.4775 151.398 30.1771C151.398 30.0468 151.398 29.9021 151.398 29.7356C151.398 29.5112 151.398 29.2543 151.398 28.9648C151.398 28.4545 151.398 28.1614 151.398 28.0818V28.0166L151.426 27.5426L151.319 27.3906V27.3725C151.212 27.3948 151.103 27.4058 150.993 27.4051L149.828 27.2531V29.1421L149.932 31.8491C149.935 31.9955 149.889 32.1393 149.8 32.2616C149.76 32.3191 149.704 32.3661 149.638 32.3978C149.572 32.4296 149.498 32.445 149.423 32.4426C149.179 32.4426 149.012 32.2435 148.922 31.8454C148.819 31.3055 148.774 30.7576 148.787 30.2097L148.839 27.7018C148.848 27.4157 148.84 27.1294 148.815 26.8441V26.7645C148.859 26.1891 148.882 25.8706 148.882 25.7983L148.759 22.0889C148.759 21.9619 148.813 21.8397 148.91 21.7487C148.955 21.7014 149.01 21.6636 149.073 21.638C149.135 21.6124 149.203 21.5995 149.272 21.6003C149.661 21.6003 149.856 21.926 149.856 22.5774Z" fill="#FFBD00"/>
<path d="M157.515 36.0976H128.449C128.344 36.0976 128.243 36.0595 128.168 35.9916C128.094 35.9238 128.052 35.8317 128.052 35.7357C128.052 35.6398 128.094 35.5477 128.168 35.4798C128.243 35.412 128.344 35.3738 128.449 35.3738H157.515C157.62 35.3738 157.722 35.412 157.796 35.4798C157.871 35.5477 157.913 35.6398 157.913 35.7357C157.913 35.8317 157.871 35.9238 157.796 35.9916C157.722 36.0595 157.62 36.0976 157.515 36.0976Z" fill="#FFBD00"/>
<path d="M128.449 34.8744C128.344 34.8744 128.243 34.8363 128.168 34.7684C128.094 34.7006 128.052 34.6085 128.052 34.5126C128.052 34.4166 128.094 34.3245 128.168 34.2567C128.243 34.1888 128.344 34.1507 128.449 34.1507L154.824 33.9046C154.93 33.9046 155.031 33.9427 155.105 34.0106C155.18 34.0784 155.222 34.1705 155.222 34.2665C155.222 34.3624 155.18 34.4545 155.105 34.5224C155.031 34.5902 154.93 34.6284 154.824 34.6284L128.449 34.8744Z" fill="#FFBD00"/>
<path d="M126.025 27.2748C125.959 27.2745 125.895 27.2595 125.838 27.2313L122.336 25.516C122.29 25.4922 122.25 25.4604 122.218 25.4225C122.185 25.3845 122.161 25.3411 122.147 25.2948C122.133 25.2484 122.129 25.1999 122.136 25.1522C122.142 25.1045 122.159 25.0584 122.185 25.0166C122.211 24.9747 122.246 24.938 122.288 24.9085C122.33 24.8789 122.377 24.8572 122.428 24.8444C122.479 24.8316 122.532 24.8281 122.585 24.834C122.637 24.84 122.688 24.8553 122.734 24.8791L126.235 26.5944C126.281 26.6171 126.322 26.6479 126.355 26.685C126.388 26.722 126.412 26.7647 126.427 26.8104C126.442 26.8561 126.447 26.9041 126.441 26.9515C126.435 26.9989 126.419 27.0448 126.394 27.0866C126.358 27.1465 126.305 27.1959 126.239 27.2292C126.174 27.2625 126.099 27.2783 126.025 27.2748Z" fill="#FFBD00"/>
<path d="M127.372 25.0708C127.3 25.0703 127.228 25.0528 127.165 25.0202L124.475 23.5473C124.399 23.4932 124.348 23.4162 124.33 23.3304C124.312 23.2446 124.329 23.1558 124.377 23.0804C124.426 23.005 124.503 22.9481 124.594 22.9201C124.684 22.8922 124.783 22.8952 124.872 22.9285L127.563 24.3977C127.653 24.4467 127.719 24.5264 127.745 24.6194C127.771 24.7124 127.756 24.811 127.702 24.8935C127.668 24.946 127.62 24.9898 127.562 25.0208C127.504 25.0518 127.439 25.069 127.372 25.0708Z" fill="#FFBD00"/>
<path d="M155.901 26.0516C155.827 26.0514 155.755 26.0324 155.692 25.9966C155.629 25.9608 155.578 25.9097 155.546 25.8491C155.513 25.7885 155.499 25.7208 155.507 25.6536C155.514 25.5864 155.542 25.5225 155.587 25.469L158.278 22.2807C158.344 22.2049 158.44 22.156 158.546 22.1448C158.651 22.1336 158.757 22.161 158.841 22.221C158.924 22.281 158.978 22.3686 158.99 22.4647C159.002 22.5607 158.972 22.6572 158.906 22.7331L156.215 25.9213C156.177 25.9631 156.129 25.9965 156.075 26.0191C156.02 26.0417 155.961 26.0528 155.901 26.0516Z" fill="#FFBD00"/>
<path d="M156.438 28.7477C156.333 28.7463 156.233 28.7073 156.16 28.6391C156.086 28.5713 156.044 28.4796 156.044 28.384C156.044 28.2883 156.086 28.1966 156.16 28.1288L160.198 24.452C160.234 24.4141 160.277 24.3834 160.327 24.3617C160.376 24.3399 160.43 24.3277 160.484 24.3258C160.539 24.3239 160.594 24.3323 160.645 24.3505C160.696 24.3687 160.742 24.3963 160.781 24.4315C160.82 24.4668 160.85 24.509 160.87 24.5554C160.89 24.6019 160.899 24.6516 160.897 24.7014C160.895 24.7512 160.881 24.8001 160.858 24.845C160.834 24.8899 160.8 24.9299 160.758 24.9623L156.72 28.6391C156.683 28.6733 156.639 28.7005 156.591 28.7191C156.543 28.7378 156.491 28.7475 156.438 28.7477Z" fill="#FFBD00"/>
<path d="M190.655 83.9394H58.6995V86.7947H190.655V83.9394Z" fill="#151116" stroke="#151116" stroke-miterlimit="10"/>
<path d="M129.431 49.2994L129.661 43.5345C129.659 43.4652 129.678 43.3967 129.716 43.337C129.755 43.2773 129.812 43.2291 129.88 43.1979C130.006 43.1208 130.154 43.0781 130.305 43.0749L130.703 43.4368V44.4211C130.703 46.5611 130.687 48.157 130.655 49.2089L131.374 49.1582C131.871 49.1582 132.118 49.3066 132.118 49.5997C132.118 49.8929 131.784 50.1028 131.12 50.1028C130.85 50.1028 130.723 50.1643 130.723 50.2837C130.723 50.7469 130.746 51.3694 130.79 52.1945C130.786 52.6824 130.85 53.1689 130.981 53.642C130.951 53.7876 130.935 53.9354 130.933 54.0835C130.928 54.2113 130.966 54.3374 131.041 54.4454V54.8073C131.041 55.3248 130.846 55.5818 130.456 55.5818C130.336 55.5825 130.217 55.5528 130.114 55.496C130.011 55.4391 129.927 55.3573 129.872 55.2597C129.739 55.0638 129.668 54.8385 129.665 54.6083V54.5359C129.751 54.295 129.795 54.0435 129.797 53.7904L129.614 51.7892L129.642 50.8953C129.644 50.6832 129.627 50.4714 129.59 50.262L128.227 50.3706C127.871 50.3566 127.53 50.24 127.253 50.0376C127.247 49.7701 127.283 49.5033 127.36 49.2451C127.282 48.8584 127.246 48.4657 127.253 48.0726C127.274 47.368 127.336 46.6649 127.44 45.9664C127.545 45.2752 127.609 44.5794 127.63 43.8819V40.1038C127.622 39.998 127.651 39.8926 127.714 39.8034C127.769 39.7346 127.897 39.7021 128.111 39.7021C128.298 39.6999 128.481 39.7491 128.636 39.8432C128.705 39.8804 128.763 39.9333 128.803 39.9967C128.844 40.0601 128.865 40.1318 128.866 40.2051L128.759 41.801V42.1629C128.758 42.2849 128.774 42.4065 128.807 42.5248V42.5972C128.858 43.0141 128.882 43.4334 128.878 43.8529C128.878 44.3306 128.819 45.1485 128.704 46.3138C128.588 47.4791 128.525 48.2426 128.525 48.6118C128.518 48.8741 128.531 49.1365 128.564 49.3971C128.856 49.3878 129.146 49.3551 129.431 49.2994Z" fill="#FFBD00"/>
<path d="M138.604 49.6395L138.835 51.2897C138.835 51.3718 138.813 51.4526 138.769 51.5243C138.725 51.596 138.661 51.6561 138.584 51.6987C138.423 51.8022 138.229 51.8567 138.032 51.8543C137.834 51.856 137.639 51.8057 137.471 51.7095C137.398 51.6745 137.336 51.6227 137.292 51.5592C137.247 51.4958 137.221 51.4229 137.217 51.3476L137.058 49.3464V49.198L135.667 49.2885C134.959 49.2885 134.61 49.0677 134.61 48.6335C134.61 48.5001 134.664 48.3714 134.761 48.2716C134.81 48.2198 134.871 48.1786 134.94 48.1511C135.008 48.1235 135.083 48.1103 135.158 48.1124L136.633 48.1811C136.824 48.1818 137.016 48.1685 137.205 48.1413L137.086 46.6178C137.086 45.8614 137.352 45.4814 137.881 45.4814C137.966 45.4791 138.05 45.493 138.129 45.5223C138.208 45.5516 138.279 45.5956 138.338 45.6515C138.456 45.7657 138.521 45.9179 138.517 46.0749V46.3246C138.517 47.555 138.624 48.1666 138.843 48.1666L140.293 48.087C141.156 48.087 141.585 48.2933 141.585 48.7095C141.587 48.7864 141.57 48.8628 141.534 48.9325C141.498 49.0023 141.445 49.0634 141.378 49.1112C141.239 49.2198 141.061 49.2778 140.878 49.274L139.403 49.1618C138.867 49.151 138.604 49.3138 138.604 49.6395Z" fill="#FFBD00"/>
<path d="M144.455 46.3536C144.455 41.6152 145.348 39.2473 147.134 39.2497C147.277 39.2523 147.417 39.2967 147.531 39.3764C147.593 39.4139 147.643 39.4651 147.677 39.5253C147.711 39.5854 147.728 39.6525 147.726 39.7202C147.717 39.8036 147.686 39.8838 147.635 39.9538C147.585 40.0238 147.516 40.0815 147.436 40.1219C147.238 40.2462 147.013 40.3301 146.776 40.3679C146.565 40.5344 146.378 41.0121 146.204 41.7938C145.934 43.0696 145.762 44.3611 145.691 45.6588C145.822 45.6376 145.955 45.6267 146.088 45.6262C147.728 45.6262 148.696 47.315 148.99 50.6926C149.053 51.3911 149.085 51.9918 149.085 52.5021C149.085 53.0123 149.085 53.3598 149.061 53.5588C149.041 53.7835 148.995 54.0055 148.922 54.2211C148.863 54.4367 148.753 54.638 148.6 54.8109C148.405 54.9952 148.167 55.1375 147.904 55.2277C147.64 55.3178 147.358 55.3535 147.078 55.3321C145.507 55.2524 144.638 53.2017 144.471 49.1799L144.455 46.3536ZM147.237 54.4708C147.666 54.4708 147.881 54.0039 147.881 53.0702C147.873 52.0215 147.8 50.9739 147.662 49.9327C147.368 47.6455 146.881 46.4453 146.2 46.3319C146 46.4384 145.844 46.6009 145.754 46.7951C145.681 47.0006 145.646 47.2159 145.651 47.432C145.651 47.6853 145.651 47.9278 145.651 48.1558C145.651 48.3838 145.651 48.7059 145.675 49.1148C145.699 49.5237 145.711 49.911 145.742 50.2765C145.774 50.642 145.814 51.0364 145.862 51.4635C145.905 51.8462 145.97 52.2267 146.056 52.6034C146.14 52.94 146.231 53.2548 146.339 53.5516C146.585 54.1559 146.883 54.4635 147.257 54.4708H147.237Z" fill="#FFBD00"/>
<path d="M153.286 47.4573L152.336 47.4899C151.339 47.4899 150.838 47.2909 150.838 46.8964C150.835 46.8337 150.847 46.7713 150.873 46.7132C150.899 46.6551 150.939 46.6028 150.989 46.5599C151.099 46.4735 151.241 46.4283 151.386 46.4332H155.858C157.151 46.4332 157.797 46.6141 157.797 46.976C157.797 47.3379 156.919 47.5189 155.162 47.5189C154.415 47.5189 153.823 47.4972 153.385 47.4573H153.286ZM157.102 49.379L151.835 49.2777C151.172 49.2777 150.838 49.1293 150.838 48.8253C150.835 48.7626 150.847 48.7001 150.873 48.6421C150.899 48.584 150.939 48.5317 150.989 48.4887C151.1 48.4036 151.241 48.3585 151.386 48.3621H155.126C156.822 48.3621 157.671 48.5442 157.674 48.9085C157.676 48.9726 157.662 49.0363 157.634 49.0951C157.606 49.1539 157.564 49.2063 157.511 49.2487C157.396 49.3353 157.251 49.3815 157.102 49.379Z" fill="#FFBD00"/>
<path d="M162.96 53.9931H162.368C162.205 54.0052 162.041 53.9764 161.895 53.9098C161.842 53.8739 161.801 53.8258 161.775 53.7705C161.749 53.7152 161.74 53.6546 161.748 53.595C161.748 53.4394 161.78 53.3381 161.839 53.2982C161.99 53.24 162.154 53.2176 162.316 53.2331C162.581 53.2331 162.714 53.1426 162.714 52.9617C162.714 51.8881 162.615 50.2861 162.416 48.1558C162.217 46.0255 162.116 44.4513 162.114 43.4331L162.142 42.8324C162.142 42.3185 161.911 42.0616 161.454 42.0616H160.997C160.619 42.0616 160.432 41.9422 160.432 41.6997C160.432 41.4572 160.969 41.269 162.022 41.269C162.579 41.269 162.921 41.3595 163.044 41.5405C162.97 41.8092 162.931 42.0849 162.929 42.362C162.949 42.8227 162.999 43.2819 163.08 43.7371C163.175 44.3667 163.224 45.0015 163.227 45.637C163.227 46.2378 163.298 47.3994 163.441 49.1293C163.584 50.8591 163.656 52.1583 163.656 53.0232V53.1282C163.897 53.0995 164.14 53.0826 164.383 53.0775C164.948 53.0775 165.23 53.215 165.23 53.4864C165.23 53.7578 164.471 53.9931 162.96 53.9931Z" fill="#FFBD00"/>
<path d="M165.961 44.1316C165.961 42.789 166.247 41.9602 166.82 41.5984C167.069 41.4547 167.359 41.3817 167.654 41.3885C169.557 41.3885 170.508 44.1738 170.508 49.7445C170.508 52.4924 169.796 53.8664 168.374 53.8664C167.314 53.8664 166.604 52.5274 166.243 49.8494C166.027 47.9501 165.933 46.0409 165.961 44.1316ZM166.994 45.9917L167.197 47.5949C167.177 49.0296 167.323 50.4622 167.634 51.8688C167.841 52.7084 168.147 53.1282 168.556 53.1282C168.751 53.1282 168.922 52.9653 169.073 52.6396C169.242 52.2594 169.353 51.8601 169.403 51.4526C169.514 50.7815 169.576 50.1045 169.59 49.426C169.59 48.9447 169.59 48.4815 169.558 48.0364C169.526 47.5912 169.506 47.0701 169.459 46.4658C169.42 45.9062 169.346 45.3491 169.236 44.7975C169.133 44.2908 169.006 43.8059 168.858 43.3499C168.541 42.3656 168.065 41.836 167.432 41.7612C167.262 41.8712 167.125 42.0179 167.034 42.1882C166.958 42.3668 166.923 42.5577 166.931 42.7492L166.994 45.9917Z" fill="#FFBD00"/>
<path d="M131.263 76.4447H130.905C130.146 76.4447 129.765 76.2818 129.765 75.9561C129.762 75.8953 129.78 75.8352 129.815 75.7836C129.851 75.732 129.902 75.6912 129.963 75.6666C130.11 75.5984 130.272 75.5648 130.436 75.5689C130.62 75.5678 130.799 75.6183 130.949 75.7137C131.283 75.616 131.545 75.3011 131.744 74.7691C131.915 74.3427 132.013 73.8947 132.034 73.441C132.034 73.0791 132.034 72.8186 132.034 72.6304C132.034 72.4422 132.034 72.1997 132.006 71.9066C131.978 71.6135 131.971 71.3638 131.943 71.1828C131.915 71.0019 131.867 70.7703 131.816 70.5169C131.774 70.3044 131.706 70.0969 131.613 69.8981C131.526 69.7223 131.426 69.5519 131.315 69.3878C131.209 69.2326 131.075 69.0954 130.917 68.9825C130.55 68.7539 130.114 68.6339 129.669 68.6387C129.538 68.6537 129.405 68.6298 129.289 68.5705C129.174 68.5112 129.083 68.4196 129.029 68.3094C128.942 68.0992 128.9 67.8755 128.906 67.6508L129.017 66.775C128.952 65.5584 128.782 64.3484 128.509 63.1561L128.866 62.8521H130.571C131.148 62.8521 131.438 63.0005 131.438 63.29V63.3841L131.04 63.6447H130.52V63.594H129.633C129.665 64.3178 129.798 65.6833 130.031 67.6906C130.063 67.6906 130.194 67.6906 130.428 67.7232L130.929 67.7738C131.207 67.8042 131.477 67.8815 131.724 68.0018C132.134 68.3125 132.414 68.7416 132.519 69.2178C132.867 70.2741 133.04 71.3719 133.032 72.4748C133.058 73.0795 133.024 73.6852 132.928 74.2842C132.862 74.5036 132.784 74.7198 132.694 74.932C132.624 75.1253 132.52 75.3073 132.388 75.4712C132.074 75.8499 131.694 76.1788 131.263 76.4447Z" fill="#FFBD00"/>
<path d="M137.77 71.4795L137.964 72.862C137.964 72.9304 137.945 72.9976 137.908 73.0572C137.871 73.1168 137.818 73.1667 137.754 73.2021C137.617 73.2888 137.455 73.3343 137.289 73.3324C137.123 73.3337 136.96 73.2923 136.82 73.213C136.755 73.1827 136.701 73.1371 136.664 73.0809C136.626 73.0248 136.606 72.9604 136.605 72.8945L136.474 71.219V71.0923L135.309 71.1683C134.717 71.1683 134.419 70.9838 134.419 70.6183C134.419 70.5039 134.464 70.3934 134.546 70.307C134.588 70.2628 134.641 70.2278 134.7 70.2046C134.759 70.1814 134.824 70.1707 134.888 70.1731L136.124 70.231C136.285 70.2322 136.446 70.2213 136.605 70.1985L136.482 68.9355C136.482 68.2985 136.708 67.9801 137.157 67.9801C137.231 67.9765 137.305 67.9875 137.374 68.0125C137.442 68.0375 137.504 68.0758 137.555 68.1248C137.605 68.173 137.644 68.2299 137.669 68.2921C137.694 68.3543 137.705 68.4205 137.702 68.4867V68.693C137.702 69.7208 137.793 70.2346 137.98 70.2346L139.192 70.1695C139.916 70.1695 140.277 70.3432 140.277 70.6906C140.278 70.7551 140.263 70.8189 140.232 70.8772C140.202 70.9355 140.158 70.9867 140.103 71.0272C139.986 71.1173 139.838 71.1651 139.685 71.1611L138.449 71.0706C137.988 71.067 137.77 71.2045 137.77 71.4795Z" fill="#FFBD00"/>
<path d="M146.041 76.1081L142.861 76.2673C142.672 76.2701 142.488 76.2195 142.332 76.1226C142.26 76.084 142.2 76.0284 142.158 75.9616C142.117 75.8948 142.096 75.8192 142.098 75.7426V75.6775C142.418 75.3451 142.668 74.9609 142.833 74.5448C143.029 74.0743 143.168 73.7667 143.25 73.6219C143.973 72.3366 144.57 70.9961 145.035 69.6158C145.433 68.3352 145.629 67.0094 145.615 65.6785C145.615 64.2719 145.283 63.5481 144.618 63.5071C144.383 63.6085 144.22 63.869 144.145 64.3322C144.069 64.7955 143.858 64.9655 143.525 64.9655C143.191 64.9655 143.024 64.7882 143.024 64.4336C143.012 64.1811 143.059 63.9293 143.161 63.6943C143.263 63.4593 143.418 63.2464 143.616 63.0692C143.715 62.9782 143.832 62.9059 143.962 62.8568C144.092 62.8077 144.231 62.7828 144.371 62.7834C144.665 62.7576 144.962 62.7941 145.238 62.8902C145.513 62.9863 145.761 63.1392 145.961 63.337C146.162 63.5494 146.316 63.7952 146.414 64.0608C146.478 64.2816 146.521 64.4553 146.545 64.5856C146.574 64.7497 146.593 64.9153 146.601 65.0814C146.625 65.3853 146.633 65.8268 146.633 66.4059C146.604 67.1687 146.481 67.9261 146.267 68.6641C146.067 69.4662 145.801 70.2537 145.472 71.02C145.181 71.6641 144.818 72.4386 144.383 73.3433C143.949 74.248 143.636 74.9392 143.445 75.4169C144.263 75.3 145.089 75.2407 145.917 75.2396C146.207 75.4133 146.355 75.5689 146.355 75.7064C146.342 75.7915 146.306 75.8724 146.252 75.9424C146.197 76.0123 146.125 76.0692 146.041 76.1081Z" fill="#FFBD00"/>
<path d="M149.804 69.6484L149.01 69.6737C148.171 69.6737 147.754 69.5109 147.754 69.1779C147.751 69.1253 147.761 69.0727 147.783 69.024C147.805 68.9752 147.838 68.9314 147.881 68.8957C147.976 68.8226 148.098 68.7851 148.223 68.7907H151.971C153.052 68.7907 153.592 68.9427 153.592 69.2467C153.592 69.5507 152.857 69.6991 151.39 69.6991C150.892 69.705 150.393 69.6881 149.896 69.6484H149.804ZM152.984 71.2588L148.612 71.1756C148.052 71.1756 147.773 71.0489 147.773 70.7956C147.771 70.7429 147.781 70.6904 147.803 70.6416C147.825 70.5929 147.858 70.5491 147.901 70.5133C147.996 70.4403 148.118 70.4028 148.242 70.4084H151.378C152.801 70.4084 153.513 70.5604 153.513 70.8643C153.514 70.9184 153.503 70.9722 153.479 71.0217C153.455 71.0712 153.419 71.1151 153.374 71.1502C153.272 71.2267 153.143 71.2655 153.012 71.2588H152.984Z" fill="#FFBD00"/>
<path d="M203.751 71.1141L204.065 109.587H206.386V92.4655H208.958V109.587H211.375V92.4655H213.815V109.587H215.977V92.4764H217.964V109.587H220.278V90.3557C220.278 90.3557 222.082 83.7947 219.248 80.2807C216.414 76.7668 211.013 76.2927 211.013 76.2927L210.011 70.1406L207.495 38.041L209.82 33.5897C209.82 33.5897 215.874 32.5403 215.588 31.4908C215.301 30.4413 210.957 30.6946 210.957 30.6946L211.752 28.4799C211.752 28.4799 212.905 28.4799 212.905 27.5462C212.905 26.6125 211.494 26.2651 211.112 26.7283C210.731 27.1915 211.112 27.8972 211.112 27.8972L209.026 30.0215L209.463 27.4376C209.463 27.4376 210.488 26.855 210.103 26.2723C209.717 25.6897 208.183 25.9105 208.183 26.6342V27.3363L206.347 29.9274C206.347 29.9274 198.775 26.0444 196.645 29.9274C193.863 34.9939 203.461 38.0663 203.461 38.0663L203.751 71.1141Z" stroke="#151116" stroke-miterlimit="10"/>
<path d="M209.498 76.5315C209.498 76.5315 205.894 80.2843 206.923 81.6884C207.952 83.0926 211.808 82.1589 211.808 80.9972C211.808 79.8356 210.786 76.7668 209.498 76.5315Z" stroke="#151116" stroke-miterlimit="10"/>
<path d="M217.734 84.978C217.734 84.978 213.099 81.931 213.099 84.5076C213.099 87.0842 215.417 89.4293 216.446 88.9588C217.475 88.4884 219.28 87.5474 217.734 84.978Z" stroke="#151116" stroke-miterlimit="10"/>
<path d="M209.499 84.978C209.499 84.978 207.181 86.8526 207.952 88.0215C208.723 89.1904 211.557 91.3039 211.557 89.4293C211.557 87.5547 211.041 84.7356 209.499 84.978Z" stroke="#151116" stroke-miterlimit="10"/>
<path d="M196.526 39.1447H200.882" stroke="#151116" stroke-miterlimit="10"/>
<path d="M196.526 40.8094H199.216" stroke="#151116" stroke-miterlimit="10"/>
<path d="M196.526 42.2389H200.882" stroke="#151116" stroke-miterlimit="10"/>
<path d="M196.526 43.9036H199.216" stroke="#151116" stroke-miterlimit="10"/>
<path d="M196.526 45.3294H200.882" stroke="#151116" stroke-miterlimit="10"/>
<path d="M196.526 46.9941H199.216" stroke="#151116" stroke-miterlimit="10"/>
<path d="M196.526 48.4236H200.882" stroke="#151116" stroke-miterlimit="10"/>
<path d="M196.526 50.0883H199.216" stroke="#151116" stroke-miterlimit="10"/>
<path d="M196.526 51.5141H200.882" stroke="#151116" stroke-miterlimit="10"/>
<path d="M196.526 53.1788H199.216" stroke="#151116" stroke-miterlimit="10"/>
<path d="M196.526 54.6083H200.882" stroke="#151116" stroke-miterlimit="10"/>
<path d="M196.526 56.273H199.216" stroke="#151116" stroke-miterlimit="10"/>
<path d="M196.526 57.6988H200.882" stroke="#151116" stroke-miterlimit="10"/>
<path d="M196.526 59.3671H199.216" stroke="#151116" stroke-miterlimit="10"/>
<path d="M196.526 60.793H200.882" stroke="#151116" stroke-miterlimit="10"/>
<path d="M196.526 62.4576H199.216" stroke="#151116" stroke-miterlimit="10"/>
<path d="M196.526 63.8871H200.882" stroke="#151116" stroke-miterlimit="10"/>
<path d="M196.526 65.5518H199.216" stroke="#151116" stroke-miterlimit="10"/>
<path d="M196.526 66.9776H200.882" stroke="#151116" stroke-miterlimit="10"/>
<path d="M196.526 68.6423H199.216" stroke="#151116" stroke-miterlimit="10"/>
<path d="M196.526 70.0718H200.882" stroke="#151116" stroke-miterlimit="10"/>
<path d="M196.526 71.7365H199.216" stroke="#151116" stroke-miterlimit="10"/>
<path d="M196.526 73.1624H200.882" stroke="#151116" stroke-miterlimit="10"/>
<path d="M196.526 74.827H199.216" stroke="#151116" stroke-miterlimit="10"/>
<path d="M196.526 76.2203H200.882" stroke="#151116" stroke-miterlimit="10"/>
<path d="M196.526 77.885H199.216" stroke="#151116" stroke-miterlimit="10"/>
<path d="M196.526 79.3145H200.882" stroke="#151116" stroke-miterlimit="10"/>
<path d="M196.526 80.9791H199.216" stroke="#151116" stroke-miterlimit="10"/>
<path d="M196.526 82.405H200.882" stroke="#151116" stroke-miterlimit="10"/>
<path d="M196.526 84.0697H199.216" stroke="#151116" stroke-miterlimit="10"/>
<path d="M196.526 85.4992H200.882" stroke="#151116" stroke-miterlimit="10"/>
<path d="M196.526 87.1638H199.216" stroke="#151116" stroke-miterlimit="10"/>
<path d="M196.526 88.5897H200.882" stroke="#151116" stroke-miterlimit="10"/>
<path d="M196.526 90.2544H199.216" stroke="#151116" stroke-miterlimit="10"/>
<path d="M196.526 91.6839H200.882" stroke="#151116" stroke-miterlimit="10"/>
<path d="M196.526 93.3486H199.216" stroke="#151116" stroke-miterlimit="10"/>
<path d="M196.526 94.7744H200.882" stroke="#151116" stroke-miterlimit="10"/>
<path d="M196.526 96.4391H199.216" stroke="#151116" stroke-miterlimit="10"/>
<path d="M196.526 97.8685H200.882" stroke="#151116" stroke-miterlimit="10"/>
<path d="M196.526 99.5333H199.216" stroke="#151116" stroke-miterlimit="10"/>
<path d="M196.526 100.959H200.882" stroke="#151116" stroke-miterlimit="10"/>
<path d="M196.526 102.627H199.216" stroke="#151116" stroke-miterlimit="10"/>
<path d="M196.526 104.053H200.882" stroke="#151116" stroke-miterlimit="10"/>
<path d="M196.526 105.718H199.216" stroke="#151116" stroke-miterlimit="10"/>
<path d="M196.526 107.147H200.882" stroke="#151116" stroke-miterlimit="10"/>
<path d="M196.526 108.812H199.216" stroke="#151116" stroke-miterlimit="10"/>
<path d="M207.833 31.8997C207.834 32.2241 207.729 32.5414 207.532 32.8115C207.334 33.0815 207.053 33.2922 206.724 33.4169C206.396 33.5415 206.033 33.5745 205.684 33.5116C205.334 33.4488 205.013 33.2929 204.761 33.0638C204.509 32.8347 204.337 32.5426 204.267 32.2245C204.197 31.9064 204.233 31.5766 204.369 31.2768C204.505 30.9771 204.736 30.7208 205.032 30.5405C205.328 30.3602 205.676 30.264 206.033 30.264C206.509 30.264 206.967 30.4362 207.304 30.7429C207.642 31.0495 207.832 31.4656 207.833 31.8997V31.8997Z" stroke="#151116" stroke-miterlimit="10"/>
<path d="M206.1 33.416C206.763 33.416 207.301 32.9267 207.301 32.3231C207.301 31.7195 206.763 31.2302 206.1 31.2302C205.437 31.2302 204.9 31.7195 204.9 32.3231C204.9 32.9267 205.437 33.416 206.1 33.416Z" fill="#151116"/>
<path d="M201.704 37.2955C201.704 37.2955 204.57 36.4487 205.301 34.9939L206.367 35.3558" stroke="#151116" stroke-miterlimit="10"/>
<path d="M207.698 40.8275C207.698 40.8275 206.108 43.7226 205.035 44.0845C203.962 44.4464 203.445 45.894 204.638 46.9977C205.395 47.6722 206.223 48.2782 207.11 48.8072L208.413 49.6287L207.698 40.8275Z" stroke="#151116" stroke-miterlimit="10"/>
<path d="M203.6 52.3826C203.6 52.3826 204.367 51.4888 205.035 53.4285C205.703 55.3682 204.769 57.308 205.969 58.1584C207.169 59.0088 207.698 60.4636 206.633 61.4335C205.568 62.4034 203.751 62.8268 203.751 62.8268L203.6 52.3826Z" stroke="#151116" stroke-miterlimit="10"/>
<path d="M201.172 28.3206C201.172 28.3206 202.638 32.9311 197.841 34.8708" stroke="#151116" stroke-miterlimit="10"/>
<path d="M199.089 30.8502C199.088 30.9367 199.059 31.021 199.006 31.0925C198.953 31.164 198.877 31.2196 198.79 31.2522C198.702 31.2848 198.605 31.2929 198.512 31.2756C198.419 31.2583 198.334 31.2163 198.267 31.155C198.2 31.0936 198.155 31.0156 198.136 30.9307C198.118 30.8459 198.128 30.758 198.164 30.6782C198.201 30.5984 198.262 30.5302 198.341 30.4823C198.42 30.4343 198.513 30.4087 198.608 30.4087C198.672 30.4087 198.735 30.4202 198.793 30.4424C198.852 30.4646 198.905 30.4972 198.95 30.5383C198.994 30.5793 199.03 30.628 199.054 30.6815C199.078 30.7351 199.09 30.7924 199.089 30.8502V30.8502Z" stroke="#151116" stroke-miterlimit="10"/>
<path d="M209.312 61.0463C209.312 61.0463 207.964 63.7387 206.899 64.9511C205.834 66.1634 205.568 67.0102 206.768 67.6182C207.757 68.084 208.78 68.4891 209.828 68.8305L209.312 61.0463Z" stroke="#151116" stroke-miterlimit="10"/>
<path d="M221.661 22.8163H194.045V111.36H221.661V22.8163Z" stroke="#151116" stroke-miterlimit="10"/>
<path d="M54.3238 18.7575L34.7781 19.659L36.0892 43.224L55.6348 42.3225L54.3238 18.7575Z" stroke="#151116" stroke-miterlimit="10"/>
<path d="M46.1717 30.9443C46.1717 30.9443 43.2305 26.4822 40.7782 27.6873C38.3259 28.8924 39.3076 30.5101 41.271 31.2556L43.2305 31.9793C43.2305 31.9793 40.1263 31.2556 39.3076 33.6151C38.4888 35.9746 40.2893 36.7418 41.5969 36.8721C42.9046 37.0024 45.027 35.5331 45.027 35.5331C45.027 35.5331 42.0937 37.9324 44.8759 39.2714C47.6581 40.6104 50.2655 39.123 50.4403 37.4873C50.5325 36.5256 50.3561 35.5584 49.9276 34.6754C50.6474 34.5866 51.3184 34.2943 51.846 33.8399C52.3737 33.3854 52.7314 32.7916 52.8688 32.1422C53.5206 29.7646 52.3759 28.7223 50.4165 28.7223C48.457 28.7223 46.1717 30.9443 46.1717 30.9443Z" stroke="#FFBD00" stroke-miterlimit="10"/>
<path d="M48.453 33.7707C48.4522 34.1234 48.3366 34.468 48.1208 34.7609C47.905 35.0538 47.5987 35.2819 47.2406 35.4164C46.8825 35.5509 46.4886 35.5857 46.1088 35.5165C45.729 35.4472 45.3802 35.277 45.1066 35.0274C44.8329 34.7777 44.6467 34.4598 44.5714 34.1138C44.4961 33.7678 44.5352 33.4093 44.6836 33.0835C44.832 32.7577 45.0832 32.4793 45.4053 32.2834C45.7275 32.0875 46.1061 31.983 46.4935 31.983C46.7512 31.983 47.0063 32.0292 47.2443 32.1191C47.4823 32.209 47.6985 32.3408 47.8805 32.5068C48.0625 32.6729 48.2067 32.87 48.305 33.0868C48.4032 33.3037 48.4535 33.5361 48.453 33.7707V33.7707Z" stroke="#FFBD00" stroke-miterlimit="10"/>
<path d="M36.8195 22.9393L52.6661 22.2083" stroke="#151116" stroke-miterlimit="10"/>
<path d="M36.9944 26.0661L52.841 25.3351" stroke="#151116" stroke-miterlimit="10"/>
<path d="M56.0604 48.5825L36.5605 47.0666L34.3561 70.5763L53.8559 72.0922L56.0604 48.5825Z" stroke="#151116" stroke-miterlimit="10"/>
<path d="M38.0953 50.5696L53.9022 51.7964" stroke="#151116" stroke-miterlimit="10"/>
<path d="M37.8011 53.6891L53.612 54.9159" stroke="#151116" stroke-miterlimit="10"/>
<path d="M37.5071 56.8086L53.3179 58.0354" stroke="#151116" stroke-miterlimit="10"/>
<path d="M37.2169 59.9244L53.0238 61.1548" stroke="#151116" stroke-miterlimit="10"/>
<path d="M36.9227 63.0439L52.7336 64.2744" stroke="#151116" stroke-miterlimit="10"/>
<path d="M36.6327 66.1634L52.4395 67.3938" stroke="#151116" stroke-miterlimit="10"/>
<path d="M171.39 124.507C171.211 126.767 171.211 129.036 171.39 131.296C171.7 135.038 171.828 142.728 171.633 144.74C171.438 146.753 170.56 150.99 171.08 151.555C171.601 152.119 174.165 152.217 175.214 151.855C176.263 151.493 176.887 151.765 176.855 151.055C176.824 150.346 176.211 145.479 176.16 144.382C176.108 143.286 178.107 137 179.212 133.08C180.317 129.161 179.705 124.913 179.53 124.142C179.355 123.371 178.99 123.19 178.99 123.19C178.99 123.19 174.804 124.576 171.39 124.507Z" fill="white" stroke="#151116" stroke-miterlimit="10"/>
<path d="M175.154 152.326C176.148 152.308 176.903 151.765 176.871 151.055C176.851 150.61 176.585 147.701 176.398 146.351C175.841 146.822 175.14 147.127 174.387 147.227C173.352 147.416 172.276 147.231 171.386 146.713C171.084 148.75 170.365 151.323 170.75 151.736C171.267 152.289 174.049 152.347 175.154 152.326Z" fill="#151116" stroke="#151116" stroke-miterlimit="10"/>
<path d="M175.154 152.326C176.148 152.308 176.903 151.765 176.871 151.055C176.871 151.055 176.871 151.023 176.871 151.008C174.486 151.461 171.816 151.008 170.671 150.791C170.623 151.265 170.631 151.609 170.754 151.739C171.267 152.289 174.049 152.347 175.154 152.326Z" fill="white" stroke="#151116" stroke-miterlimit="10"/>
<path d="M160.734 122.871C160.734 122.871 160.357 129.404 161.704 132.856C163.052 136.308 164.486 144.824 164.129 145.685C163.771 146.546 163.223 149.217 162.833 149.355C162.444 149.492 161.005 150.024 161.029 150.505C161.052 150.987 162.817 152.011 164.145 152.083C165.472 152.156 167.086 152.579 168.207 150.969C169.069 149.735 169.471 148.28 169.351 146.821C169.304 145.736 168.445 144.317 168.417 143.716C168.39 143.116 169.904 135.331 169.88 131.832C169.856 128.332 168.485 123.914 168.485 123.914L160.734 122.871Z" fill="white" stroke="#151116" stroke-miterlimit="10"/>
<path d="M165.933 144.531C165.029 145.118 164.289 145.892 163.775 146.789C163.465 147.874 163.111 149.257 162.833 149.355C162.436 149.488 161.192 149.199 161.029 150.505C160.786 152.412 162.817 152.011 164.145 152.083C165.472 152.156 167.086 152.579 168.207 150.969C169.069 149.735 169.471 148.28 169.351 146.821C169.316 146.007 168.823 145.012 168.556 144.306C168.485 144.227 167.654 143.434 165.933 144.531Z" fill="#151116" stroke="#151116" stroke-miterlimit="10"/>
<path d="M164.145 152.083C165.476 152.152 167.086 152.579 168.207 150.969C169.069 149.735 169.471 148.28 169.351 146.821C169.306 146.347 169.191 145.881 169.01 145.435C168.622 145.399 168.231 145.415 167.849 145.482C166.776 145.678 165.81 146.166 164.844 147.925C163.878 149.684 164.2 151.055 162.805 151.153C161.41 151.251 161.029 150.505 161.029 150.505C160.786 152.413 162.817 152.011 164.145 152.083Z" fill="white" stroke="#151116" stroke-miterlimit="10"/>
<path d="M169.2 147.223C169.2 147.223 168.64 145.819 166.915 146.981C165.19 148.142 165.285 150.277 164.681 151.074C164.377 151.457 163.974 151.768 163.509 151.978C163.717 152.03 163.93 152.064 164.145 152.08C165.476 152.148 167.086 152.575 168.207 150.965C169.003 149.836 169.405 148.514 169.359 147.172L169.2 147.223Z" fill="white" stroke="#151116" stroke-miterlimit="10"/>
<path d="M158.111 105.58L153.485 120.841C153.485 120.841 163.024 126.631 173.584 125.658C184.145 124.685 191.394 117.642 191.394 117.642L184.582 104.491C184.582 104.491 181.243 106.905 172.352 106.749C163.461 106.594 158.111 105.58 158.111 105.58Z" fill="#151116" stroke="#151116" stroke-miterlimit="10"/>
<path d="M158.946 100.481L157.404 107.538C157.404 107.538 160.846 110.433 169.053 110.129C177.261 109.825 185.293 105.551 185.293 105.551L182.726 98.5199C182.726 98.5199 168.485 103.268 158.946 100.481Z" fill="white" stroke="#151116" stroke-miterlimit="10"/>
<path d="M173.715 104.6C179.018 103.785 182.138 102.678 183.922 101.795L182.73 98.5199C182.73 98.5199 168.485 103.268 158.946 100.481L158.374 103.098C160.333 103.974 165.703 105.834 173.715 104.6Z" fill="#151116" stroke="#151116" stroke-miterlimit="10"/>
<path d="M159.061 79.5859C159.061 79.5859 156.279 87.4895 152.328 93.1531C149.949 96.5666 147.22 99.7668 144.176 102.711C144.176 102.711 141.319 102.913 140.202 102.349C139.085 101.784 138.151 103.329 137.845 103.843C137.539 104.357 136.939 105.783 137.392 106.065C137.845 106.348 139.343 107.9 139.753 107.184C140.162 106.467 139.041 106.004 139.041 106.004C139.041 106.004 142.706 106.807 144.328 105.913C151.005 102.222 154.697 98.3969 156.251 96.4355C157.805 94.474 159.359 92.2701 159.359 92.2701C159.359 92.2701 158.346 98.3571 157.96 99.573C157.575 100.789 157.281 101.607 157.281 101.607C157.281 101.607 163.163 105.103 173.453 103.521C183.743 101.94 185.826 99.2546 185.826 99.2546C185.826 99.2546 182.646 92.2484 181.732 88.8683C180.818 85.4883 180.353 82.6004 180.353 82.6004C180.353 82.6004 180.031 75.3843 180.488 73.2637C180.945 71.143 183.171 66.6411 183.111 65.2406C183.052 63.8401 174.252 54.326 174.252 54.326C174.252 54.326 175.122 51.5865 175.087 50.7831C175.051 49.9797 174.018 49.0171 173.322 48.2499C172.626 47.4827 171.836 47.0014 171.068 47.128C170.301 47.2547 169.948 46.6684 169.431 47.4899C168.914 48.3114 168.413 49.4333 167.801 50.461C167.189 51.4888 168.966 51.9086 169.439 52.607C169.912 53.3055 171.661 55.5347 171.824 56.3345C171.987 57.1343 176.196 70.4228 176.196 70.4228L159.061 79.5859Z" fill="white" stroke="#151116" stroke-miterlimit="10"/>
<path d="M185.83 99.2727C185.83 99.2727 182.65 92.2665 181.736 88.8864C180.822 85.5064 180.357 82.6185 180.357 82.6185C180.357 82.6185 180.035 75.4024 180.492 73.2818C180.949 71.1611 183.175 66.6592 183.115 65.2587C183.079 64.477 180.333 61.1766 177.909 58.4081C176.089 58.9003 174.476 59.8832 173.282 61.2272C174.55 65.3057 176.18 70.4301 176.18 70.4301L159.061 79.5859C159.061 79.5859 156.279 87.4895 152.328 93.1531C151.311 94.6188 150.273 95.965 149.296 97.1592C149.667 98.2099 150.389 99.1286 151.362 99.7865C151.724 100.025 152.05 100.235 152.344 100.42C153.779 99.2045 155.088 97.872 156.255 96.4391C157.821 94.474 159.363 92.2737 159.363 92.2737C159.363 92.2737 158.35 98.3607 157.964 99.5766C157.579 100.793 157.285 101.61 157.285 101.61C157.285 101.61 163.167 105.106 173.457 103.525C183.747 101.943 185.83 99.2727 185.83 99.2727Z" fill="#FFBD00" stroke="#151116" stroke-miterlimit="10"/>
<path d="M169.773 47.859L170.591 50.5985C170.619 50.6904 170.667 50.7759 170.733 50.8495C170.799 50.923 170.882 50.983 170.975 51.0254C171.069 51.0678 171.171 51.0917 171.276 51.0954C171.38 51.0992 171.484 51.0828 171.581 51.0473C171.677 51.0137 171.764 50.9623 171.837 50.8962C171.91 50.8302 171.967 50.7511 172.004 50.6639C172.042 50.5767 172.059 50.4834 172.054 50.3899C172.05 50.2964 172.024 50.2048 171.979 50.1208L170.544 47.5297C170.544 47.5297 169.749 47.2583 169.773 47.859Z" fill="white" stroke="#151116" stroke-miterlimit="10"/>
<path d="M164.729 55.6976C164.729 55.6976 162.261 54.6843 159.204 57.9051C156.148 61.1259 155.901 65.4541 157.002 67.9222C158.103 70.3903 157.622 74.4362 156.351 75.5689C155.079 76.7016 152.646 79.0177 154.244 80.2735C155.842 81.5292 158.246 81.0298 158.246 81.0298C158.246 81.0298 155.345 85.2494 159.439 87.9057C163.533 90.562 165.333 86.7875 165.333 86.7875C165.333 86.7875 167.889 94.7201 173.413 92.6103C178.938 90.5005 176.39 85.1771 176.39 85.1771C176.39 85.1771 180.854 86.4183 181.927 83.2699C183 80.1215 181.394 78.6739 181.394 78.6739C181.394 78.6739 184.9 78.2433 184.089 74.8596C183.278 71.4759 180.369 70.4844 178.878 69.1309C177.388 67.7774 175.699 66.6411 174.399 62.5735C173.099 58.5058 171.979 57.6445 171.979 57.6445C171.979 57.6445 174.041 56.9678 172.996 55.8025C171.951 54.6372 167.547 52.1836 164.729 55.6976Z" fill="#151116" stroke="#151116" stroke-miterlimit="10"/>
</svg>
