<svg width="161" height="149" viewBox="0 0 161 149" fill="none" xmlns="http://www.w3.org/2000/svg">
<g clip-path="url(#clip0_1123_45368)">
<path d="M160.817 11.4168H105.333V68.8425H160.817V11.4168Z" fill="white" stroke="#151116" stroke-miterlimit="10" stroke-linecap="round"/>
<path d="M160.817 11.4168H105.333V22.4697H160.817V11.4168Z" fill="#FFBD00" stroke="#151116" stroke-miterlimit="10" stroke-linecap="round"/>
<path d="M114.931 29.4806H108.58V35.8074H114.931V29.4806Z" fill="white" stroke="#151116" stroke-miterlimit="10" stroke-linecap="round"/>
<path d="M123.566 29.4806H117.214V35.8074H123.566V29.4806Z" fill="white" stroke="#151116" stroke-miterlimit="10" stroke-linecap="round"/>
<path d="M132.204 29.4806H125.852V35.8074H132.204V29.4806Z" fill="white" stroke="#151116" stroke-miterlimit="10" stroke-linecap="round"/>
<path d="M140.838 29.4806H134.487V35.8074H140.838V29.4806Z" fill="white" stroke="#151116" stroke-miterlimit="10" stroke-linecap="round"/>
<path d="M149.476 29.4806H143.125V35.8074H149.476V29.4806Z" fill="white" stroke="#151116" stroke-miterlimit="10" stroke-linecap="round"/>
<path d="M158.111 29.4806H151.759V35.8074H158.111V29.4806Z" fill="white" stroke="#151116" stroke-miterlimit="10" stroke-linecap="round"/>
<path d="M114.931 38.1796H108.58V44.5064H114.931V38.1796Z" fill="white" stroke="#151116" stroke-miterlimit="10" stroke-linecap="round"/>
<path d="M123.566 38.1796H117.214V44.5064H123.566V38.1796Z" fill="white" stroke="#151116" stroke-miterlimit="10" stroke-linecap="round"/>
<path d="M132.204 38.1796H125.852V44.5064H132.204V38.1796Z" fill="white" stroke="#151116" stroke-miterlimit="10" stroke-linecap="round"/>
<path d="M140.838 38.1796H134.487V44.5064H140.838V38.1796Z" fill="white" stroke="#151116" stroke-miterlimit="10" stroke-linecap="round"/>
<path d="M149.476 38.1796H143.125V44.5064H149.476V38.1796Z" fill="white" stroke="#151116" stroke-miterlimit="10" stroke-linecap="round"/>
<path d="M158.111 38.1796H151.759V44.5064H158.111V38.1796Z" fill="white" stroke="#151116" stroke-miterlimit="10" stroke-linecap="round"/>
<path d="M114.931 46.8786H108.58V53.2054H114.931V46.8786Z" fill="white" stroke="#151116" stroke-miterlimit="10" stroke-linecap="round"/>
<path d="M123.566 46.8786H117.214V53.2054H123.566V46.8786Z" fill="white" stroke="#151116" stroke-miterlimit="10" stroke-linecap="round"/>
<path d="M132.204 46.8786H125.852V53.2054H132.204V46.8786Z" fill="white" stroke="#151116" stroke-miterlimit="10" stroke-linecap="round"/>
<path d="M140.838 46.8786H134.487V53.2054H140.838V46.8786Z" fill="white" stroke="#151116" stroke-miterlimit="10" stroke-linecap="round"/>
<path d="M149.476 46.8786H143.125V53.2054H149.476V46.8786Z" fill="white" stroke="#151116" stroke-miterlimit="10" stroke-linecap="round"/>
<path d="M158.111 46.8786H151.759V53.2054H158.111V46.8786Z" fill="white" stroke="#151116" stroke-miterlimit="10" stroke-linecap="round"/>
<path d="M114.931 55.5776H108.58V61.9044H114.931V55.5776Z" fill="white" stroke="#151116" stroke-miterlimit="10" stroke-linecap="round"/>
<path d="M123.566 55.5776H117.214V61.9044H123.566V55.5776Z" fill="white" stroke="#151116" stroke-miterlimit="10" stroke-linecap="round"/>
<path d="M132.204 55.5776H125.852V61.9044H132.204V55.5776Z" fill="white" stroke="#151116" stroke-miterlimit="10" stroke-linecap="round"/>
<path d="M140.838 55.5776H134.487V61.9044H140.838V55.5776Z" fill="white" stroke="#151116" stroke-miterlimit="10" stroke-linecap="round"/>
<path d="M149.476 55.5776H143.125V61.9044H149.476V55.5776Z" fill="white" stroke="#151116" stroke-miterlimit="10" stroke-linecap="round"/>
<path d="M158.111 55.5776H151.759V61.9044H158.111V55.5776Z" fill="white" stroke="#151116" stroke-miterlimit="10" stroke-linecap="round"/>
<path d="M110.205 14.3819C110.098 14.3819 109.992 14.3609 109.894 14.3202C109.795 14.2794 109.705 14.2196 109.629 14.1443C109.554 14.0689 109.494 13.9795 109.453 13.8811C109.412 13.7826 109.391 13.6771 109.391 13.5706V7.9095C109.392 7.69496 109.478 7.48953 109.631 7.33816C109.783 7.18679 109.99 7.10181 110.205 7.10182C110.313 7.09989 110.42 7.11933 110.521 7.15901C110.621 7.19869 110.712 7.25782 110.789 7.33296C110.867 7.40811 110.928 7.49777 110.97 7.59674C111.012 7.69572 111.034 7.80203 111.034 7.9095V13.5706C111.034 13.6784 111.013 13.7851 110.971 13.8845C110.929 13.9839 110.868 14.074 110.791 14.1495C110.714 14.225 110.622 14.2845 110.522 14.3244C110.421 14.3643 110.314 14.3838 110.205 14.3819Z" fill="white" stroke="#151116" stroke-miterlimit="10" stroke-linecap="round"/>
<path d="M113.452 14.3819C113.236 14.3819 113.029 14.2964 112.876 14.1443C112.724 13.9921 112.638 13.7858 112.638 13.5706V7.90951C112.639 7.69496 112.725 7.48953 112.878 7.33817C113.03 7.1868 113.237 7.10182 113.452 7.10182C113.667 7.10182 113.873 7.18692 114.026 7.33839C114.178 7.48986 114.263 7.6953 114.263 7.90951V13.5706C114.264 13.677 114.243 13.7824 114.202 13.8808C114.162 13.9792 114.102 14.0687 114.027 14.1441C113.951 14.2195 113.862 14.2793 113.763 14.3201C113.665 14.3609 113.559 14.3819 113.452 14.3819Z" fill="white" stroke="#151116" stroke-miterlimit="10" stroke-linecap="round"/>
<path d="M116.699 14.3819C116.592 14.3819 116.487 14.3609 116.388 14.3201C116.29 14.2793 116.2 14.2195 116.125 14.1441C116.049 14.0687 115.99 13.9792 115.949 13.8808C115.909 13.7824 115.888 13.677 115.888 13.5706V7.90951C115.888 7.6953 115.974 7.48986 116.126 7.33839C116.278 7.18692 116.484 7.10182 116.699 7.10182C116.914 7.10182 117.121 7.18692 117.273 7.33839C117.425 7.48986 117.51 7.6953 117.51 7.90951V13.5706C117.511 13.677 117.49 13.7824 117.449 13.8808C117.409 13.9792 117.349 14.0687 117.274 14.1441C117.199 14.2195 117.109 14.2793 117.01 14.3201C116.912 14.3609 116.806 14.3819 116.699 14.3819Z" fill="white" stroke="#151116" stroke-miterlimit="10" stroke-linecap="round"/>
<path d="M119.946 14.3819C119.84 14.3819 119.734 14.3609 119.635 14.3201C119.537 14.2793 119.447 14.2195 119.372 14.1441C119.296 14.0687 119.237 13.9792 119.196 13.8808C119.156 13.7824 119.135 13.677 119.136 13.5706V7.90951C119.136 7.6953 119.221 7.48986 119.373 7.33839C119.525 7.18692 119.731 7.10182 119.946 7.10182C120.162 7.10182 120.368 7.1868 120.521 7.33817C120.674 7.48953 120.76 7.69496 120.761 7.90951V13.5706C120.761 13.7858 120.675 13.9921 120.522 14.1443C120.37 14.2964 120.162 14.3819 119.946 14.3819Z" fill="white" stroke="#151116" stroke-miterlimit="10" stroke-linecap="round"/>
<path d="M123.193 14.3819C122.978 14.381 122.772 14.295 122.62 14.143C122.468 13.991 122.383 13.7851 122.383 13.5706V7.90951C122.384 7.69559 122.469 7.49071 122.621 7.33945C122.773 7.18818 122.979 7.10278 123.193 7.10182C123.409 7.10182 123.615 7.1868 123.768 7.33817C123.921 7.48953 124.007 7.69496 124.008 7.90951V13.5706C124.008 13.7858 123.922 13.9921 123.769 14.1443C123.617 14.2964 123.409 14.3819 123.193 14.3819Z" fill="white" stroke="#151116" stroke-miterlimit="10" stroke-linecap="round"/>
<path d="M126.444 14.3819C126.231 14.3781 126.027 14.2909 125.878 14.1392C125.728 13.9875 125.644 13.7833 125.644 13.5706V7.90951C125.645 7.69496 125.731 7.48953 125.884 7.33817C126.037 7.1868 126.243 7.10182 126.459 7.10182C126.674 7.10278 126.879 7.18818 127.031 7.33945C127.183 7.49071 127.269 7.69559 127.27 7.90951V13.5706C127.27 13.6781 127.248 13.7845 127.207 13.8836C127.165 13.9828 127.104 14.0727 127.027 14.1482C126.95 14.2237 126.859 14.2832 126.759 14.3233C126.659 14.3634 126.552 14.3834 126.444 14.3819Z" fill="white" stroke="#151116" stroke-miterlimit="10" stroke-linecap="round"/>
<path d="M129.691 14.3819C129.584 14.3819 129.479 14.3609 129.38 14.3201C129.281 14.2793 129.192 14.2195 129.117 14.1441C129.041 14.0687 128.982 13.9792 128.941 13.8808C128.901 13.7824 128.88 13.677 128.88 13.5706V7.90951C128.88 7.6953 128.966 7.48986 129.118 7.33839C129.27 7.18692 129.476 7.10182 129.691 7.10182C129.798 7.10182 129.903 7.12271 130.002 7.1633C130.1 7.20389 130.189 7.26339 130.265 7.33839C130.34 7.41339 130.4 7.50243 130.44 7.60042C130.481 7.69841 130.502 7.80344 130.502 7.90951V13.5706C130.503 13.677 130.482 13.7824 130.441 13.8808C130.401 13.9792 130.341 14.0687 130.266 14.1441C130.191 14.2195 130.101 14.2793 130.002 14.3201C129.904 14.3609 129.798 14.3819 129.691 14.3819Z" fill="white" stroke="#151116" stroke-miterlimit="10" stroke-linecap="round"/>
<path d="M132.942 7.10182H132.938C132.49 7.10182 132.127 7.46344 132.127 7.90951V13.5742C132.127 14.0203 132.49 14.3819 132.938 14.3819H132.942C133.39 14.3819 133.753 14.0203 133.753 13.5742V7.90951C133.753 7.46344 133.39 7.10182 132.942 7.10182Z" fill="white" stroke="#151116" stroke-miterlimit="10" stroke-linecap="round"/>
<path d="M136.185 14.3819C135.97 14.381 135.763 14.295 135.612 14.143C135.46 13.991 135.374 13.7851 135.374 13.5706V7.90951C135.375 7.69559 135.461 7.49071 135.613 7.33945C135.765 7.18818 135.97 7.10278 136.185 7.10182C136.4 7.10182 136.607 7.1868 136.76 7.33817C136.912 7.48953 136.999 7.69496 137 7.90951V13.5706C137 13.7858 136.914 13.9921 136.761 14.1443C136.608 14.2964 136.401 14.3819 136.185 14.3819Z" fill="white" stroke="#151116" stroke-miterlimit="10" stroke-linecap="round"/>
<path d="M139.436 14.3819C139.22 14.3819 139.013 14.2964 138.86 14.1443C138.707 13.9921 138.621 13.7858 138.621 13.5706V7.9095C138.622 7.69496 138.709 7.48953 138.861 7.33816C139.014 7.18679 139.22 7.10181 139.436 7.10181C139.543 7.10134 139.649 7.12185 139.748 7.16218C139.847 7.20251 139.937 7.26187 140.013 7.33687C140.089 7.41187 140.149 7.50104 140.191 7.5993C140.232 7.69755 140.254 7.80296 140.254 7.9095V13.5706C140.254 13.6774 140.233 13.7832 140.192 13.8819C140.15 13.9806 140.09 14.0702 140.014 14.1456C139.938 14.221 139.848 14.2806 139.749 14.3212C139.649 14.3618 139.543 14.3824 139.436 14.3819Z" fill="white" stroke="#151116" stroke-miterlimit="10" stroke-linecap="round"/>
<path d="M142.683 14.3819C142.576 14.3819 142.47 14.3609 142.372 14.3201C142.273 14.2793 142.184 14.2195 142.108 14.1441C142.033 14.0687 141.973 13.9792 141.933 13.8808C141.892 13.7824 141.872 13.677 141.872 13.5706V7.90951C141.872 7.80344 141.893 7.69841 141.934 7.60042C141.975 7.50243 142.034 7.41339 142.11 7.33839C142.185 7.26339 142.274 7.20389 142.373 7.1633C142.471 7.12271 142.576 7.10182 142.683 7.10182C142.898 7.10182 143.104 7.18692 143.256 7.33839C143.408 7.48986 143.494 7.6953 143.494 7.90951V13.5706C143.494 13.677 143.474 13.7824 143.433 13.8808C143.393 13.9792 143.333 14.0687 143.258 14.1441C143.182 14.2195 143.093 14.2793 142.994 14.3201C142.895 14.3609 142.79 14.3819 142.683 14.3819Z" fill="white" stroke="#151116" stroke-miterlimit="10" stroke-linecap="round"/>
<path d="M145.93 14.3819C145.823 14.3819 145.717 14.3609 145.619 14.3201C145.52 14.2793 145.431 14.2195 145.355 14.1441C145.28 14.0687 145.22 13.9792 145.18 13.8808C145.139 13.7824 145.119 13.677 145.119 13.5706V7.90951C145.119 7.6953 145.205 7.48986 145.357 7.33839C145.509 7.18692 145.715 7.10182 145.93 7.10182C146.145 7.10182 146.351 7.18692 146.503 7.33839C146.655 7.48986 146.741 7.6953 146.741 7.90951V13.5706C146.741 13.677 146.721 13.7824 146.68 13.8808C146.64 13.9792 146.58 14.0687 146.505 14.1441C146.429 14.2195 146.34 14.2793 146.241 14.3201C146.143 14.3609 146.037 14.3819 145.93 14.3819Z" fill="white" stroke="#151116" stroke-miterlimit="10" stroke-linecap="round"/>
<path d="M149.177 14.3819C148.961 14.381 148.755 14.295 148.603 14.143C148.451 13.991 148.366 13.7851 148.366 13.5706V7.90951C148.367 7.69559 148.453 7.49071 148.605 7.33945C148.756 7.18818 148.962 7.10278 149.177 7.10182C149.392 7.10182 149.599 7.1868 149.751 7.33817C149.904 7.48953 149.99 7.69496 149.991 7.90951V13.5706C149.991 13.6771 149.97 13.7826 149.929 13.8811C149.888 13.9795 149.828 14.0689 149.753 14.1443C149.677 14.2196 149.587 14.2794 149.489 14.3202C149.39 14.3609 149.284 14.3819 149.177 14.3819Z" fill="white" stroke="#151116" stroke-miterlimit="10" stroke-linecap="round"/>
<path d="M152.428 14.3819C152.321 14.3819 152.215 14.3609 152.116 14.3202C152.017 14.2794 151.927 14.2196 151.852 14.1443C151.776 14.0689 151.716 13.9795 151.675 13.8811C151.634 13.7826 151.613 13.6771 151.613 13.5706V7.90951C151.614 7.69496 151.7 7.48953 151.853 7.33817C152.006 7.1868 152.212 7.10182 152.428 7.10182C152.642 7.10278 152.848 7.18818 153 7.33945C153.152 7.49071 153.237 7.69559 153.238 7.90951V13.5706C153.238 13.7851 153.153 13.991 153.001 14.143C152.849 14.295 152.643 14.381 152.428 14.3819Z" fill="white" stroke="#151116" stroke-miterlimit="10" stroke-linecap="round"/>
<path d="M155.675 14.3819C155.459 14.381 155.253 14.295 155.101 14.143C154.949 13.991 154.864 13.7851 154.864 13.5706V7.90951C154.865 7.69496 154.951 7.48953 155.104 7.33817C155.256 7.1868 155.463 7.10182 155.678 7.10182C155.785 7.10182 155.89 7.12271 155.989 7.1633C156.087 7.20389 156.176 7.26339 156.252 7.33839C156.327 7.41339 156.387 7.50243 156.427 7.60042C156.468 7.69841 156.489 7.80344 156.489 7.90951V13.5706C156.49 13.6773 156.469 13.783 156.428 13.8816C156.387 13.9803 156.327 14.0699 156.252 14.1454C156.176 14.2208 156.086 14.2805 155.987 14.3211C155.888 14.3617 155.782 14.3824 155.675 14.3819Z" fill="white" stroke="#151116" stroke-miterlimit="10" stroke-linecap="round"/>
<path d="M85.796 0.181908H42.1638V81.5618H85.796V0.181908Z" fill="white" stroke="#151116" stroke-miterlimit="10" stroke-linecap="round"/>
<path d="M47.4234 8.66989C47.3139 8.66989 47.2043 8.66989 47.0947 8.66989V72.2261C47.2043 72.2261 47.3139 72.2079 47.4234 72.2079C48.272 72.2079 49.0858 72.5437 49.6859 73.1414C50.2859 73.7391 50.623 74.5497 50.623 75.395C50.6224 75.6877 50.5818 75.979 50.5025 76.2609H77.7972C77.7148 75.9796 77.673 75.688 77.673 75.395C77.673 74.5497 78.0101 73.7391 78.6102 73.1414C79.2102 72.5437 80.024 72.2079 80.8726 72.2079V8.66989C80.024 8.66989 79.2102 8.33411 78.6102 7.73641C78.0101 7.13872 77.673 6.32807 77.673 5.4828H50.6449C50.6449 5.90318 50.5614 6.31941 50.3993 6.70751C50.2371 7.09562 49.9995 7.44793 49.7 7.74417C49.4006 8.0404 49.0453 8.27471 48.6546 8.43358C48.2639 8.59246 47.8455 8.67277 47.4234 8.66989ZM63.98 29.1349C66.3104 29.1349 68.5885 29.8233 70.5262 31.113C72.4638 32.4026 73.9741 34.2357 74.8659 36.3803C75.7577 38.525 75.991 40.8849 75.5364 43.1616C75.0818 45.4384 73.9596 47.5297 72.3117 49.1711C70.6638 50.8125 68.5643 51.9304 66.2787 52.3832C63.9931 52.8361 61.6239 52.6037 59.4709 51.7154C57.3179 50.827 55.4777 49.3227 54.183 47.3925C52.8882 45.4624 52.1972 43.1932 52.1972 40.8718C52.1972 37.759 53.4386 34.7737 55.6483 32.5726C57.858 30.3715 60.855 29.1349 63.98 29.1349Z" fill="#FFBD00" stroke="#151116" stroke-miterlimit="10" stroke-linecap="round"/>
<path d="M63.9327 2.45167L21.9429 14.2637L44.1465 92.5805L86.1363 80.7684L63.9327 2.45167Z" fill="white" stroke="#151116" stroke-miterlimit="10" stroke-linecap="round"/>
<path d="M29.3217 21.0071C29.2159 21.0369 29.1086 21.0612 29.0002 21.0799L46.3494 82.2603C46.4516 82.2203 46.5539 82.1876 46.6598 82.1548C47.4764 81.9252 48.3512 82.0281 49.0916 82.4409C49.832 82.8537 50.3775 83.5425 50.6081 84.3559C50.6893 84.6374 50.7299 84.929 50.7287 85.2218L76.9825 77.8326C76.8239 77.5853 76.701 77.3171 76.6172 77.0358C76.385 76.2248 76.4854 75.3552 76.8963 74.6178C77.3071 73.8805 77.9949 73.3356 78.8087 73.1029L61.4997 11.9552C60.6831 12.1848 59.8084 12.0819 59.068 11.6691C58.3275 11.2563 57.782 10.5675 57.5514 9.75408L31.5314 17.0742C31.646 17.477 31.6798 17.8983 31.6307 18.3141C31.5817 18.7299 31.4508 19.1319 31.2455 19.4972C31.0402 19.8625 30.7647 20.184 30.4346 20.443C30.1044 20.7021 29.7262 20.8938 29.3217 21.0071ZM50.8382 36.2186C53.0809 35.588 55.4609 35.6339 57.6773 36.3506C59.8937 37.0672 61.847 38.4225 63.2902 40.2449C64.7335 42.0673 65.6018 44.2751 65.7854 46.5891C65.9691 48.9031 65.4598 51.2193 64.322 53.245C63.1841 55.2707 61.4689 56.9148 59.393 57.9695C57.3172 59.0241 54.974 59.442 52.6598 59.1703C50.3455 58.8985 48.1641 57.9493 46.3914 56.4427C44.6187 54.9361 43.3343 52.9397 42.7006 50.706C41.8516 47.7099 42.2319 44.5006 43.7579 41.7838C45.284 39.0671 47.8307 37.0652 50.8382 36.2186Z" fill="#FFBD00" stroke="#151116" stroke-miterlimit="10" stroke-linecap="round"/>
<path d="M50.2085 7.1691L11.0491 26.3375L47.0808 99.3751L86.2402 80.2067L50.2085 7.1691Z" fill="white" stroke="#151116" stroke-miterlimit="10" stroke-linecap="round"/>
<path d="M19.5295 31.6526C19.4307 31.7003 19.3295 31.7428 19.2263 31.7799L47.3758 88.8382C47.469 88.7798 47.5653 88.7264 47.6643 88.6782C48.4257 88.306 49.3044 88.2503 50.1071 88.5232C50.9097 88.7961 51.5708 89.3753 51.945 90.1335C52.0785 90.3927 52.1744 90.6696 52.2299 90.9557L76.7013 78.9495C76.5024 78.7321 76.3363 78.487 76.2082 78.2219C75.8346 77.4634 75.7787 76.5882 76.0526 75.7887C76.3266 74.9891 76.908 74.3306 77.6692 73.9579L49.5453 16.9287C49.1685 17.1139 48.7586 17.2232 48.3392 17.2503C47.9199 17.2774 47.4993 17.2217 47.1016 17.0865C46.7039 16.9513 46.3369 16.7392 46.0216 16.4624C45.7064 16.1856 45.4492 15.8495 45.2646 15.4734L20.9905 27.374C21.1772 27.7504 21.2876 28.1598 21.3152 28.5787C21.3428 28.9976 21.2872 29.4179 21.1515 29.8154C21.0158 30.2128 20.8026 30.5797 20.5243 30.895C20.2459 31.2103 19.9079 31.4677 19.5295 31.6526ZM43.464 42.7346C45.5556 41.7111 47.905 41.3284 50.215 41.6348C52.525 41.9413 54.6919 42.9232 56.4416 44.4564C58.1914 45.9896 59.4455 48.0052 60.0452 50.2484C60.645 52.4915 60.5635 54.8614 59.8111 57.0584C59.0587 59.2554 57.6692 61.1809 55.8182 62.5912C53.9673 64.0016 51.738 64.8336 49.4124 64.982C47.0868 65.1303 44.7692 64.5884 42.7527 63.4247C40.7363 62.2611 39.1115 60.528 38.0839 58.4445C37.4016 57.0611 36.9995 55.5574 36.9006 54.0192C36.8017 52.481 37.0079 50.9384 37.5075 49.4796C38.0071 48.0208 38.7903 46.6743 39.8123 45.517C40.8343 44.3597 42.0751 43.4142 43.464 42.7346Z" fill="#FFBD00" stroke="#151116" stroke-miterlimit="10" stroke-linecap="round"/>
<path d="M33.873 16.9805L0.370605 44.8244L52.7101 107.311L86.2125 79.4669L33.873 16.9805Z" fill="white" stroke="#151116" stroke-miterlimit="10" stroke-linecap="round"/>
<path d="M9.86161 47.9773C9.77395 48.0452 9.68629 48.1107 9.59863 48.1738L50.5061 96.9843C50.5833 96.9056 50.665 96.8315 50.7508 96.7623C51.073 96.4941 51.4452 96.2918 51.846 96.1669C52.2467 96.042 52.6683 95.9971 53.0865 96.0346C53.5048 96.0721 53.9115 96.1913 54.2834 96.3855C54.6554 96.5797 54.9853 96.8449 55.2543 97.1662C55.442 97.3861 55.5981 97.631 55.7181 97.8938L76.6649 80.4813C76.4229 80.3158 76.2043 80.1188 76.0148 79.8955C75.4717 79.2462 75.2094 78.4089 75.2854 77.5672C75.3614 76.7255 75.7695 75.9482 76.4202 75.4059L35.5456 26.6355C34.8943 27.1742 34.0553 27.4341 33.2121 27.3584C32.3689 27.2827 31.59 26.8776 31.0458 26.2316L10.278 43.4877C10.8198 44.1384 11.0802 44.9766 11.0022 45.8183C10.9241 46.6601 10.5139 47.4366 9.86161 47.9773ZM35.7429 53.1181C37.5318 51.6305 39.7235 50.7047 42.0406 50.4578C44.3578 50.2109 46.6965 50.654 48.7608 51.731C50.8252 52.8081 52.5226 54.4707 53.6384 56.5086C54.7541 58.5466 55.2382 60.8684 55.0292 63.1803C54.8203 65.4923 53.9279 67.6907 52.4647 69.4974C51.0015 71.3041 49.0333 72.6381 46.8091 73.3306C44.5848 74.0231 42.2043 74.0431 39.9687 73.388C37.733 72.7329 35.7425 71.4322 34.249 69.6502C32.2471 67.2603 31.2799 64.1762 31.56 61.0761C31.8402 57.976 33.3447 55.1136 35.7429 53.1181Z" fill="#FFBD00" stroke="#151116" stroke-miterlimit="10" stroke-linecap="round"/>
<path d="M33.1167 54.6789L18.5507 67.3072L16.3592 69.21L1.79326 81.8601C0.832604 82.7582 0.260965 83.9937 0.199596 85.3046C0.138227 86.6155 0.591955 87.8987 1.46454 88.8819L14.6864 102.671L48.362 141.163C48.725 141.579 49.1665 141.919 49.6615 142.164C50.1565 142.409 50.6951 142.555 51.2467 142.593C51.7982 142.631 52.3518 142.56 52.8759 142.385C53.3999 142.209 53.8842 141.933 54.3009 141.571L67.7711 129.885L71.482 126.661L84.9522 114.968C85.7957 114.168 86.3077 113.082 86.3875 111.924C86.4673 110.767 86.109 109.621 85.3832 108.714L51.7076 70.2178L39.8116 55.3011C39.4222 54.8093 38.9366 54.4015 38.3841 54.1023C37.8317 53.8032 37.2241 53.6189 36.598 53.5607C35.9719 53.5025 35.3405 53.5717 34.7421 53.7639C34.1437 53.9561 33.5907 54.2674 33.1167 54.6789Z" fill="white" stroke="#151116" stroke-miterlimit="10"/>
<path d="M49.6222 71.2583L38.5078 57.3348C38.2672 57.0358 37.9684 56.7884 37.6293 56.6073C37.2903 56.4263 36.918 56.3155 36.5348 56.2815C36.1516 56.2475 35.7655 56.2911 35.3997 56.4096C35.0339 56.5281 34.6959 56.719 34.4061 56.971L3.88984 83.4573C3.59988 83.7092 3.36413 84.017 3.19682 84.362C3.02952 84.7071 2.93411 85.0824 2.91636 85.4652C2.89862 85.848 2.95889 86.2305 3.09356 86.5895C3.22822 86.9485 3.43449 87.2765 3.69991 87.554L16.0269 100.415L49.6222 71.2583Z" fill="#151116" stroke="#151116" stroke-miterlimit="10"/>
<path d="M37.6493 60.2717L6.58862 87.2337L15.7431 97.6978L46.8038 70.7358L37.6493 60.2717Z" fill="#696969"/>
<path d="M37.4549 63.1285L9.45898 87.4301L15.9427 94.8414L43.9386 70.5397L37.4549 63.1285Z" fill="#C2C2C2"/>
<path d="M35.303 91.1716L22.3666 102.401C21.6108 103.057 21.532 104.199 22.1906 104.952L23.8128 106.806C24.4714 107.559 25.6181 107.638 26.3739 106.982L39.3104 95.7523C40.0662 95.0962 40.145 93.954 39.4863 93.2011L37.8642 91.3469C37.2055 90.594 36.0589 90.5155 35.303 91.1716Z" fill="#696969" stroke="#151116" stroke-miterlimit="10"/>
<path d="M24.3435 100.783L28.3028 105.309" stroke="#151116" stroke-miterlimit="10"/>
<path d="M27.5029 98.0393L31.4622 102.565" stroke="#151116" stroke-miterlimit="10"/>
<path d="M30.6658 95.2961L34.625 99.8184" stroke="#151116" stroke-miterlimit="10"/>
<path d="M33.8252 92.5492L37.7845 97.0752" stroke="#151116" stroke-miterlimit="10"/>
<path d="M44.1306 87.9416L47.1595 85.3123C47.4977 85.0188 47.939 84.8711 48.3865 84.9018C48.8339 84.9324 49.2508 85.1388 49.5455 85.4756L50.4813 86.5453C50.776 86.8822 50.9242 87.3218 50.8935 87.7675C50.8628 88.2132 50.6555 88.6285 50.3174 88.922L47.2884 91.5513C47.1214 91.6963 46.9273 91.8071 46.7172 91.8774C46.5071 91.9477 46.2852 91.9761 46.0642 91.961C45.8431 91.9458 45.6272 91.8875 45.4287 91.7892C45.2303 91.691 45.0532 91.5547 44.9076 91.3883L43.9814 90.3296C43.8358 90.1632 43.7246 89.9698 43.654 89.7606C43.5834 89.5513 43.5549 89.3303 43.5701 89.1101C43.5853 88.8899 43.6439 88.6748 43.7425 88.4771C43.8411 88.2795 43.9779 88.1031 44.145 87.9581L44.1306 87.9416Z" fill="#C2C2C2" stroke="#151116" stroke-miterlimit="10"/>
<path d="M28.9123 109.883L31.9412 107.254C32.2786 106.961 32.719 106.813 33.1655 106.844C33.612 106.874 34.028 107.08 34.322 107.417L35.8074 109.114C36.1014 109.45 36.2493 109.889 36.2187 110.334C36.188 110.779 35.9812 111.193 35.6438 111.486L32.6148 114.115C32.2774 114.408 31.8371 114.555 31.3906 114.525C30.9441 114.494 30.5281 114.288 30.2341 113.952L28.7487 112.254C28.454 111.918 28.3058 111.478 28.3365 111.032C28.3673 110.587 28.5745 110.171 28.9126 109.878L28.9123 109.883Z" fill="#C2C2C2" stroke="#151116" stroke-miterlimit="10"/>
<path d="M35.4458 104.209L38.4748 101.58C38.8129 101.286 39.2543 101.139 39.7017 101.169C40.1492 101.2 40.5661 101.406 40.8607 101.743L42.3461 103.441C42.6407 103.778 42.789 104.218 42.7583 104.663C42.7275 105.109 42.5203 105.524 42.1822 105.818L39.1532 108.447C38.8151 108.741 38.3737 108.888 37.9263 108.858C37.4788 108.827 37.0619 108.621 36.7673 108.284L35.2819 106.586C35.1356 106.419 35.0237 106.226 34.9527 106.016C34.8817 105.806 34.853 105.585 34.8682 105.364C34.8834 105.143 34.9423 104.927 35.0414 104.729C35.1406 104.531 35.278 104.354 35.4458 104.209Z" fill="#C2C2C2" stroke="#151116" stroke-miterlimit="10"/>
<path d="M41.9848 98.5361L45.0138 95.9068C45.3512 95.6139 45.7915 95.4666 46.238 95.4971C46.6845 95.5277 47.1005 95.7336 47.3945 96.0697L48.8799 97.7676C49.1739 98.1037 49.3219 98.5423 49.2912 98.9871C49.2605 99.4318 49.0537 99.8462 48.7163 100.139L45.6874 102.768C45.3492 103.062 44.9079 103.21 44.4604 103.179C44.013 103.148 43.5961 102.942 43.3014 102.605L41.8161 100.907C41.5214 100.57 41.3732 100.131 41.4039 99.6851C41.4346 99.2394 41.6419 98.8241 41.98 98.5306L41.9848 98.5361Z" fill="#C2C2C2" stroke="#151116" stroke-miterlimit="10"/>
<path d="M48.5184 92.8625L51.5473 90.2332C51.8847 89.9404 52.3251 89.793 52.7716 89.8235C53.2181 89.8541 53.6341 90.0601 53.9281 90.3961L55.4134 92.094C55.7081 92.4308 55.8564 92.8704 55.8256 93.3161C55.7949 93.7618 55.5877 94.1771 55.2495 94.4706L52.2206 97.0999C51.8824 97.3934 51.4411 97.5411 50.9937 97.5105C50.5462 97.4799 50.1293 97.2735 49.8346 96.9366L48.3493 95.2388C48.0546 94.902 47.9064 94.4624 47.9371 94.0167C47.9678 93.5709 48.1751 93.1557 48.5132 92.8621L48.5184 92.8625Z" fill="#C2C2C2" stroke="#151116" stroke-miterlimit="10"/>
<path d="M55.0544 87.1917L58.0834 84.5624C58.4215 84.2689 58.8628 84.1212 59.3103 84.1518C59.7577 84.1824 60.1746 84.3888 60.4693 84.7257L61.9547 86.4235C62.2493 86.7603 62.3976 87.1999 62.3668 87.6456C62.3361 88.0913 62.1289 88.5066 61.7907 88.8001L58.7618 91.4294C58.4244 91.7223 57.984 91.8697 57.5375 91.8391C57.091 91.8086 56.675 91.6026 56.381 91.2665L54.8956 89.5686C54.601 89.2318 54.4527 88.7922 54.4835 88.3465C54.5142 87.9008 54.7214 87.4855 55.0596 87.192L55.0544 87.1917Z" fill="#C2C2C2" stroke="#151116" stroke-miterlimit="10"/>
<path d="M33.8872 115.575L36.9162 112.946C37.2543 112.653 37.6957 112.505 38.1431 112.536C38.5906 112.566 39.0075 112.773 39.3021 113.109L40.7971 114.818C41.0917 115.155 41.24 115.595 41.2092 116.04C41.1785 116.486 40.9713 116.901 40.6332 117.195L37.6042 119.824C37.437 119.97 37.2425 120.081 37.0319 120.152C36.8214 120.223 36.5989 120.251 36.3772 120.236C36.1555 120.221 35.939 120.162 35.7401 120.064C35.5412 119.965 35.3639 119.828 35.2183 119.661L33.7329 117.963C33.5873 117.797 33.4761 117.603 33.4055 117.394C33.3349 117.185 33.3064 116.964 33.3216 116.744C33.3368 116.523 33.3954 116.308 33.494 116.111C33.5927 115.913 33.7294 115.737 33.8965 115.592L33.8872 115.575Z" fill="#C2C2C2" stroke="#151116" stroke-miterlimit="10"/>
<path d="M40.4245 109.902L43.4535 107.273C43.7916 106.979 44.2329 106.831 44.6804 106.862C45.1278 106.893 45.5448 107.099 45.8394 107.436L47.3248 109.134C47.4712 109.3 47.5832 109.494 47.6544 109.704C47.7256 109.914 47.7545 110.136 47.7395 110.357C47.7245 110.578 47.6658 110.794 47.567 110.992C47.4681 111.191 47.3309 111.368 47.1632 111.513L44.1343 114.142C43.7969 114.435 43.3565 114.583 42.91 114.552C42.4635 114.521 42.0475 114.316 41.7535 113.979L40.2682 112.282C39.9741 111.945 39.8262 111.507 39.8569 111.062C39.8875 110.617 40.0943 110.203 40.4317 109.91L40.4245 109.902Z" fill="#696969" stroke="#151116" stroke-miterlimit="10"/>
<path d="M46.9633 104.229L49.9923 101.599C50.3304 101.306 50.7718 101.158 51.2192 101.189C51.6667 101.219 52.0836 101.426 52.3782 101.763L53.8636 103.46C54.0092 103.627 54.1204 103.82 54.191 104.029C54.2616 104.239 54.2901 104.46 54.2749 104.68C54.2597 104.9 54.2011 105.115 54.1025 105.313C54.0038 105.511 53.8671 105.687 53.7 105.832L50.671 108.461C50.3329 108.755 49.8916 108.902 49.4441 108.872C48.9967 108.841 48.5798 108.635 48.2851 108.298L46.7998 106.6C46.5057 106.264 46.3578 105.825 46.3885 105.381C46.4191 104.936 46.6259 104.521 46.9633 104.229Z" fill="#696969" stroke="#151116" stroke-miterlimit="10"/>
<path d="M56.5914 95.369L53.5754 98.0128C52.8764 98.6255 52.8084 99.6866 53.4235 100.383L54.9181 102.075C55.5332 102.771 56.5984 102.839 57.2974 102.226L60.3134 99.5821C61.0124 98.9694 61.0803 97.9083 60.4653 97.2121L58.9707 95.5203C58.3556 94.8241 57.2904 94.7564 56.5914 95.369Z" fill="#696969" stroke="#151116" stroke-width="0.99905" stroke-miterlimit="10"/>
<path d="M60.0358 92.8782L63.0648 90.2489C63.4022 89.956 63.8426 89.8087 64.289 89.8392C64.7355 89.8698 65.1515 90.0757 65.4456 90.4118L66.9309 92.1097C67.2249 92.4458 67.3729 92.8844 67.3422 93.3292C67.3115 93.7739 67.1047 94.1883 66.7673 94.4812L63.7384 97.1104C63.4003 97.404 62.9589 97.5516 62.5115 97.521C62.064 97.4904 61.6471 97.284 61.3525 96.9472L59.8671 95.2493C59.5725 94.9125 59.4242 94.4729 59.4549 94.0272C59.4857 93.5815 59.6929 93.1662 60.031 92.8727L60.0358 92.8782Z" fill="#C2C2C2" stroke="#151116" stroke-miterlimit="10"/>
<path d="M39.07 120.677L42.0833 118.036C42.419 117.742 42.8582 117.592 43.3044 117.621C43.7506 117.649 44.1672 117.853 44.4626 118.187L45.9548 119.876C46.2501 120.211 46.4001 120.648 46.3716 121.093C46.3431 121.537 46.1385 121.952 45.8029 122.246L42.7896 124.888C42.4532 125.183 42.0131 125.332 41.5659 125.304C41.1187 125.275 40.7012 125.071 40.4052 124.736L38.913 123.047C38.7668 122.881 38.6547 122.689 38.5832 122.48C38.5116 122.271 38.4821 122.051 38.4962 121.831C38.5103 121.611 38.5678 121.395 38.6654 121.198C38.7629 121 38.8987 120.823 39.0649 120.677L39.07 120.677Z" fill="#C2C2C2" stroke="#151116" stroke-width="0.99905" stroke-miterlimit="10"/>
<path d="M45.5552 115.016L48.5685 112.375C48.9041 112.081 49.3433 111.931 49.7895 111.96C50.2357 111.988 50.6524 112.192 50.9477 112.526L52.4399 114.215C52.7353 114.55 52.8852 114.987 52.8567 115.432C52.8283 115.876 52.6237 116.291 52.288 116.585L49.2748 119.227C48.9384 119.521 48.4982 119.671 48.051 119.643C47.6039 119.614 47.1863 119.41 46.8903 119.075L45.3982 117.386C45.2523 117.22 45.1406 117.027 45.0695 116.818C44.9985 116.609 44.9694 116.389 44.984 116.169C44.9986 115.949 45.0565 115.734 45.1545 115.536C45.2525 115.338 45.3887 115.162 45.5552 115.016Z" fill="#696969" stroke="#151116" stroke-width="0.99905" stroke-miterlimit="10"/>
<path d="M51.9382 109.918L54.9672 107.288C55.3046 106.995 55.745 106.848 56.1915 106.879C56.638 106.909 57.054 107.115 57.348 107.451L58.8333 109.149C59.1274 109.485 59.2753 109.924 59.2446 110.369C59.214 110.813 59.0072 111.228 58.6698 111.521L55.6408 114.15C55.3027 114.443 54.8614 114.591 54.4139 114.56C53.9665 114.53 53.5495 114.323 53.2549 113.987L51.7695 112.289C51.4772 111.952 51.3308 111.513 51.3624 111.068C51.394 110.624 51.6011 110.21 51.9382 109.918Z" fill="#696969" stroke="#151116" stroke-miterlimit="10"/>
<path d="M58.478 104.247L61.507 101.617C61.8451 101.324 62.2864 101.176 62.7339 101.207C63.1813 101.237 63.5982 101.444 63.8929 101.781L65.3782 103.479C65.6729 103.815 65.8212 104.255 65.7904 104.701C65.7597 105.146 65.5524 105.562 65.2143 105.855L62.1853 108.484C61.8479 108.777 61.4076 108.925 60.9611 108.894C60.5146 108.864 60.0986 108.658 59.8046 108.322L58.3192 106.624C58.0252 106.288 57.8773 105.849 57.9079 105.404C57.9386 104.959 58.1454 104.545 58.4828 104.252L58.478 104.247Z" fill="#696969" stroke="#151116" stroke-miterlimit="10"/>
<path d="M65.0146 98.5707L68.0436 95.9414C68.3817 95.6479 68.823 95.5002 69.2705 95.5308C69.7179 95.5615 70.1348 95.7679 70.4295 96.1047L71.9148 97.8026C72.2095 98.1394 72.3578 98.579 72.327 99.0247C72.2963 99.4704 72.0891 99.8857 71.7509 100.179L68.722 102.808C68.3838 103.102 67.9425 103.25 67.495 103.219C67.0476 103.188 66.6307 102.982 66.336 102.645L64.8435 100.939C64.5495 100.603 64.4015 100.164 64.4322 99.7196C64.4628 99.2749 64.6696 98.8605 65.007 98.5676L65.0146 98.5707Z" fill="#C2C2C2" stroke="#151116" stroke-miterlimit="10"/>
<path d="M44.0465 126.333L47.0597 123.691C47.3933 123.398 47.83 123.247 48.2745 123.273C48.7189 123.299 49.1351 123.499 49.4321 123.829L50.9243 125.518C51.2203 125.853 51.3705 126.292 51.342 126.737C51.3135 127.183 51.1085 127.599 50.7721 127.893L47.7588 130.535C47.4232 130.829 46.9839 130.978 46.5377 130.95C46.0915 130.922 45.6749 130.718 45.3795 130.384L43.8849 128.692C43.5896 128.357 43.4396 127.92 43.4681 127.475C43.4966 127.031 43.7012 126.616 44.0368 126.322L44.0465 126.333Z" fill="#FFBD00" stroke="#151116" stroke-width="0.99905" stroke-miterlimit="10" stroke-linecap="round"/>
<path d="M50.3833 121.284L53.4122 118.654C53.7504 118.361 54.1917 118.213 54.6392 118.244C55.0866 118.274 55.5035 118.481 55.7982 118.818L57.2835 120.515C57.5782 120.852 57.7264 121.292 57.6957 121.738C57.665 122.183 57.4577 122.599 57.1196 122.892L54.0906 125.521C53.7532 125.814 53.3128 125.962 52.8664 125.931C52.4199 125.901 52.0039 125.695 51.7099 125.358L50.2245 123.661C50.0778 123.494 49.9655 123.301 49.894 123.091C49.8226 122.882 49.7934 122.66 49.8081 122.439C49.8229 122.218 49.8813 122.003 49.98 121.804C50.0787 121.606 50.2157 121.429 50.3833 121.284Z" fill="#696969" stroke="#151116" stroke-miterlimit="10"/>
<path d="M56.917 115.61L59.946 112.981C60.2841 112.687 60.7254 112.54 61.1729 112.57C61.6203 112.601 62.0373 112.807 62.3319 113.144L63.8053 114.828C64.0999 115.165 64.2482 115.605 64.2174 116.05C64.1867 116.496 63.9795 116.911 63.6413 117.205L60.6124 119.834C60.2742 120.128 59.8329 120.275 59.3855 120.245C58.938 120.214 58.5211 120.008 58.2264 119.671L56.7411 117.973C56.4512 117.636 56.3071 117.198 56.34 116.755C56.373 116.313 56.5804 115.901 56.917 115.61Z" fill="#696969" stroke="#151116" stroke-miterlimit="10"/>
<path d="M63.4558 109.937L66.4847 107.308C66.8229 107.014 67.2642 106.866 67.7116 106.897C68.1591 106.928 68.576 107.134 68.8707 107.471L70.356 109.169C70.6507 109.505 70.7989 109.945 70.7682 110.391C70.7375 110.837 70.5302 111.252 70.1921 111.545L67.1631 114.175C66.8257 114.467 66.3854 114.615 65.9389 114.584C65.4924 114.554 65.0764 114.348 64.7824 114.012L63.297 112.314C63.1503 112.148 63.038 111.954 62.9665 111.745C62.8951 111.535 62.8659 111.313 62.8807 111.092C62.8954 110.872 62.9538 110.656 63.0525 110.458C63.1512 110.259 63.2882 110.082 63.4558 109.937Z" fill="#696969" stroke="#151116" stroke-miterlimit="10"/>
<path d="M48.8258 132.647L51.8548 130.018C52.1922 129.725 52.6326 129.578 53.0791 129.608C53.5256 129.639 53.9416 129.845 54.2356 130.181L55.7209 131.879C56.015 132.215 56.1629 132.653 56.1322 133.098C56.1016 133.543 55.8948 133.957 55.5574 134.25L52.5284 136.879C52.191 137.172 51.7506 137.32 51.3042 137.289C50.8577 137.258 50.4417 137.052 50.1476 136.716L48.6623 135.019C48.3676 134.682 48.2194 134.242 48.2501 133.796C48.2808 133.351 48.4881 132.935 48.8262 132.642L48.8258 132.647Z" fill="#FFBD00" stroke="#151116" stroke-miterlimit="10" stroke-linecap="round"/>
<path d="M55.362 126.976L58.391 124.347C58.7291 124.053 59.1704 123.906 59.6179 123.936C60.0653 123.967 60.4823 124.173 60.7769 124.51L62.2623 126.208C62.5569 126.545 62.7052 126.984 62.6744 127.43C62.6437 127.876 62.4365 128.291 62.0983 128.585L59.0694 131.214C58.732 131.507 58.2916 131.654 57.8451 131.624C57.3986 131.593 56.9826 131.387 56.6886 131.051L55.2032 129.353C54.9092 129.017 54.7613 128.578 54.792 128.134C54.8226 127.689 55.0294 127.275 55.3668 126.982L55.362 126.976Z" fill="#696969" stroke="#151116" stroke-miterlimit="10"/>
<path d="M61.8956 121.303L64.9246 118.673C65.262 118.38 65.7023 118.233 66.1488 118.264C66.5953 118.294 67.0113 118.5 67.3053 118.836L68.7907 120.534C69.0853 120.871 69.2336 121.311 69.2029 121.756C69.1721 122.202 68.9649 122.617 68.6268 122.911L65.5978 125.54C65.2597 125.834 64.8183 125.981 64.3709 125.951C63.9234 125.92 63.5065 125.714 63.2119 125.377L61.7289 123.682C61.4349 123.346 61.287 122.907 61.3176 122.462C61.3483 122.017 61.5551 121.603 61.8925 121.31L61.8956 121.303Z" fill="#696969" stroke="#151116" stroke-miterlimit="10"/>
<path d="M68.4345 115.626L71.4635 112.996C71.8016 112.703 72.243 112.555 72.6904 112.586C73.1379 112.616 73.5548 112.823 73.8494 113.16L75.3348 114.858C75.6294 115.194 75.7777 115.634 75.747 116.08C75.7162 116.525 75.509 116.941 75.1709 117.234L72.1419 119.863C71.8045 120.156 71.3641 120.304 70.9176 120.273C70.4711 120.243 70.0551 120.037 69.7611 119.701L68.271 117.997C67.9779 117.661 67.8305 117.222 67.8612 116.778C67.8918 116.333 68.098 115.919 68.4345 115.626Z" fill="#C2C2C2" stroke="#151116" stroke-miterlimit="10"/>
<path d="M73.4508 101.256L69.5646 104.628C69.3404 104.823 69.2029 105.098 69.1824 105.393C69.1618 105.689 69.2599 105.98 69.455 106.204L70.4923 107.386L71.6866 108.754L76.6649 114.444C76.7619 114.555 76.8799 114.646 77.0121 114.711C77.1444 114.776 77.2882 114.815 77.4355 114.825C77.5828 114.835 77.7306 114.815 77.8703 114.768C78.0101 114.721 78.1392 114.647 78.2501 114.55L82.1326 111.177C82.3568 110.982 82.4943 110.707 82.5148 110.412C82.5354 110.116 82.4373 109.825 82.2422 109.602L77.2639 103.911L76.0696 102.547L75.0323 101.361C74.9356 101.25 74.818 101.16 74.686 101.094C74.5541 101.029 74.4105 100.991 74.2636 100.981C74.1166 100.971 73.9691 100.99 73.8296 101.037C73.6901 101.084 73.5614 101.159 73.4508 101.256Z" fill="#C2C2C2" stroke="#151116" stroke-miterlimit="10"/>
<path d="M50.7101 82.225L53.7391 79.5957C54.0772 79.3022 54.5185 79.1545 54.966 79.1851C55.4134 79.2157 55.8303 79.4221 56.125 79.759L57.0512 80.8177C57.1968 80.9841 57.3081 81.1775 57.3786 81.3867C57.4492 81.596 57.4777 81.817 57.4625 82.0372C57.4473 82.2574 57.3888 82.4725 57.2901 82.6702C57.1915 82.8678 57.0547 83.0442 56.8877 83.1892L53.8587 85.8185C53.6916 85.9635 53.4975 86.0743 53.2875 86.1446C53.0774 86.2149 52.8555 86.2433 52.6344 86.2282C52.4134 86.2131 52.1974 86.1547 51.999 86.0565C51.8006 85.9582 51.6235 85.822 51.4779 85.6556L50.5517 84.5968C50.4057 84.4307 50.2941 84.2376 50.223 84.0285C50.152 83.8194 50.123 83.5985 50.1377 83.3782C50.1524 83.158 50.2106 82.9428 50.3088 82.7449C50.407 82.547 50.5433 82.3703 50.7101 82.225Z" fill="#FFBD00" stroke="#151116" stroke-miterlimit="10" stroke-linecap="round"/>
<path d="M52.8654 85.08C52.5093 85.0061 52.1874 84.8182 51.9486 84.5449C51.7099 84.2716 51.5675 83.9279 51.5432 83.5665C51.5748 83.2229 51.7383 82.9048 51.9996 82.6784C52.2609 82.452 52.5998 82.3349 52.9458 82.3513C53.3012 82.425 53.6228 82.6124 53.8615 82.885C54.1002 83.1575 54.2429 83.5003 54.2679 83.8612C54.2614 84.0338 54.2172 84.203 54.1383 84.357C54.0595 84.5109 53.9479 84.6459 53.8114 84.7525C53.6863 84.8713 53.5372 84.9619 53.374 85.0184C53.2109 85.0749 53.0374 85.0959 52.8654 85.08ZM53.9063 83.8903C53.8632 83.6153 53.7429 83.3581 53.5594 83.1482C53.3759 82.9384 53.1366 82.7845 52.8691 82.7042C52.7497 82.6825 52.6269 82.6894 52.5107 82.7241C52.3945 82.7589 52.2882 82.8207 52.2007 82.9043C52.1045 82.9798 52.0277 83.0768 51.9763 83.1874C51.9249 83.298 51.9004 83.4192 51.9048 83.541C51.9354 83.8154 52.0576 84.0716 52.2518 84.2686C52.4242 84.4901 52.668 84.6455 52.9421 84.7089C53.062 84.7312 53.1856 84.7246 53.3024 84.6898C53.4193 84.655 53.5262 84.5929 53.6142 84.5088C53.7071 84.4348 53.7818 84.3406 53.8324 84.2333C53.8831 84.1261 53.9084 84.0087 53.9063 83.8903Z" fill="white"/>
<path d="M55.1738 83.4573C55.1505 83.4576 55.1275 83.4525 55.1066 83.4424C55.0857 83.4323 55.0674 83.4175 55.0532 83.3991L53.5594 81.6928C53.5159 81.6462 53.4912 81.5853 53.49 81.5218C53.491 81.4932 53.498 81.4652 53.5106 81.4395C53.5232 81.4138 53.541 81.391 53.563 81.3726C53.5996 81.3414 53.6437 81.3201 53.6909 81.3108C53.745 81.2983 53.8012 81.2983 53.8552 81.3108L56.1892 81.9111L54.8962 80.4339C54.88 80.4172 54.8677 80.3971 54.8602 80.3751C54.8526 80.3531 54.8499 80.3297 54.8524 80.3066C54.8602 80.2624 54.8835 80.2225 54.9181 80.1938C54.9338 80.178 54.9526 80.1657 54.9734 80.1575C54.9941 80.1494 55.0163 80.1456 55.0386 80.1465C55.0617 80.147 55.0845 80.1525 55.1053 80.1625C55.1261 80.1726 55.1445 80.187 55.1592 80.2047L56.6494 81.9111C56.6723 81.9322 56.6905 81.9578 56.703 81.9863C56.7155 82.0148 56.722 82.0455 56.722 82.0766C56.722 82.1077 56.7155 82.1384 56.703 82.1669C56.6905 82.1954 56.6723 82.221 56.6494 82.2421C56.6166 82.2721 56.5761 82.2922 56.5325 82.3004C56.4874 82.3148 56.4388 82.3148 56.3937 82.3004L54.0561 81.7073L55.3308 83.1626C55.3479 83.1788 55.3608 83.1988 55.3684 83.2209C55.376 83.2431 55.3782 83.2668 55.3747 83.29C55.3675 83.3344 55.3441 83.3745 55.3089 83.4027C55.2916 83.421 55.2706 83.4353 55.2473 83.4447C55.224 83.4541 55.1989 83.4584 55.1738 83.4573Z" fill="white"/>
<path d="M32.2364 112.749C32.1835 112.754 32.13 112.744 32.083 112.72L30.1362 111.821L31.4767 113.353C31.4904 113.367 31.5001 113.384 31.5046 113.404C31.5091 113.423 31.5083 113.443 31.5022 113.462C31.4906 113.503 31.4672 113.54 31.4348 113.569C31.4024 113.597 31.3623 113.616 31.3196 113.622C31.3 113.625 31.28 113.622 31.2615 113.615C31.2429 113.608 31.2265 113.597 31.2137 113.582L29.7527 111.916C29.7295 111.89 29.7125 111.859 29.703 111.825C29.6935 111.792 29.6918 111.757 29.6979 111.723C29.7081 111.65 29.7445 111.584 29.8002 111.537C29.848 111.497 29.9062 111.47 29.9682 111.461C30.0412 111.453 30.1151 111.466 30.18 111.501L32.0647 112.363L31.4657 110.387C31.444 110.318 31.444 110.243 31.4657 110.173C31.481 110.112 31.5141 110.058 31.5607 110.016C31.6156 109.967 31.6873 109.939 31.7616 109.94C31.7961 109.939 31.8305 109.945 31.8622 109.959C31.8938 109.973 31.9219 109.994 31.9442 110.02L33.4052 111.686C33.418 111.701 33.4271 111.719 33.4315 111.738C33.436 111.757 33.4357 111.777 33.4307 111.795C33.4196 111.837 33.3953 111.874 33.3613 111.901C33.3298 111.932 33.2885 111.951 33.2444 111.956C33.2254 111.958 33.2059 111.956 33.1879 111.949C33.17 111.942 33.1542 111.931 33.1422 111.916L31.7762 110.38L32.4226 112.421C32.4372 112.472 32.4372 112.527 32.4226 112.578C32.4143 112.622 32.3911 112.661 32.3569 112.69C32.3237 112.722 32.2816 112.742 32.2364 112.749Z" fill="white"/>
<path d="M34.2671 110.966C34.0488 110.999 33.8256 110.969 33.6243 110.879C33.4072 110.777 33.2142 110.631 33.0581 110.449C32.9361 110.312 32.8385 110.154 32.7696 109.984C32.7031 109.828 32.6672 109.661 32.6637 109.492C32.6615 109.324 32.6977 109.157 32.7696 109.005C32.8503 108.84 32.9633 108.693 33.102 108.572C33.2822 108.418 33.498 108.31 33.7302 108.259C33.7562 108.253 33.7835 108.253 33.8092 108.261C33.8349 108.269 33.8581 108.283 33.8763 108.303C33.889 108.317 33.8988 108.334 33.9051 108.352C33.9114 108.37 33.914 108.389 33.9128 108.408C33.9137 108.427 33.9102 108.447 33.9026 108.464C33.895 108.482 33.8835 108.498 33.869 108.51C33.8515 108.523 33.8317 108.533 33.8105 108.539H33.7631L33.6937 108.557L33.6206 108.587C33.5883 108.597 33.5575 108.611 33.5293 108.63L33.427 108.692C33.3875 108.72 33.3497 108.751 33.3138 108.783C33.2263 108.854 33.1542 108.942 33.102 109.041C33.0526 109.127 33.0227 109.223 33.0143 109.321C33.0081 109.418 33.018 109.515 33.0435 109.609C33.0668 109.71 33.1063 109.807 33.1604 109.896C33.2145 109.995 33.2808 110.087 33.3576 110.169C33.4299 110.256 33.512 110.334 33.6023 110.402C33.6836 110.465 33.7733 110.517 33.869 110.555C33.9597 110.592 34.0559 110.614 34.1539 110.62C34.2537 110.622 34.3529 110.605 34.4461 110.569C34.5516 110.526 34.6491 110.466 34.7346 110.391C34.8112 110.327 34.8766 110.251 34.9282 110.166C34.9828 110.073 35.0281 109.976 35.0633 109.874C35.0728 109.852 35.0864 109.831 35.1035 109.813C35.1179 109.8 35.1348 109.791 35.153 109.785C35.1713 109.78 35.1905 109.778 35.2094 109.78C35.2464 109.784 35.2804 109.802 35.3044 109.831C35.3242 109.854 35.3372 109.882 35.3417 109.913C35.3462 109.943 35.3421 109.974 35.33 110.002C35.2558 110.251 35.1082 110.473 34.9063 110.639C34.7319 110.81 34.5088 110.925 34.2671 110.966Z" fill="white"/>
<path d="M52.2299 134.389L51.2584 135.233L51.4629 135.808C51.479 135.843 51.4831 135.882 51.4745 135.919C51.4659 135.957 51.4452 135.991 51.4154 136.015C51.3784 136.046 51.3319 136.062 51.2839 136.062C51.2612 136.064 51.2384 136.06 51.2175 136.052C51.1965 136.043 51.178 136.029 51.1634 136.012C51.1494 135.993 51.1384 135.972 51.1305 135.95L50.3489 133.709C50.3156 133.629 50.3043 133.543 50.316 133.457C50.3336 133.396 50.3692 133.342 50.4183 133.301C50.4664 133.255 50.5278 133.226 50.5936 133.217C50.6788 133.218 50.7621 133.242 50.8347 133.286L52.9604 134.378C52.9829 134.386 53.002 134.402 53.0152 134.422C53.0309 134.438 53.0425 134.457 53.0488 134.479C53.0552 134.501 53.0562 134.523 53.0517 134.545C53.0428 134.593 53.0184 134.636 52.9823 134.669C52.9542 134.695 52.918 134.711 52.8796 134.715C52.8411 134.718 52.8027 134.708 52.7705 134.687L52.2299 134.389ZM50.6557 133.567L51.1707 134.978L51.9816 134.272L50.6557 133.567Z" fill="white"/>
<path d="M53.7202 133.818C53.5016 133.853 53.2775 133.821 53.0773 133.727C52.8587 133.628 52.6652 133.481 52.5112 133.297C52.3897 133.161 52.2922 133.004 52.2226 132.835C52.1562 132.679 52.1202 132.511 52.1167 132.341C52.1155 132.173 52.153 132.007 52.2263 131.857C52.3036 131.69 52.4171 131.542 52.5587 131.424C52.7362 131.267 52.9514 131.16 53.1832 131.111C53.2092 131.103 53.237 131.102 53.2631 131.11C53.2891 131.118 53.3122 131.133 53.3293 131.154C53.3551 131.184 53.3694 131.221 53.3695 131.26C53.3685 131.279 53.3638 131.297 53.3556 131.314C53.3475 131.331 53.3361 131.346 53.322 131.358C53.3064 131.372 53.2876 131.382 53.2672 131.387H53.2161L53.1504 131.406L53.0737 131.435L52.9824 131.475C52.9466 131.494 52.9124 131.516 52.8801 131.54C52.8406 131.567 52.8028 131.596 52.7669 131.627C52.682 131.701 52.6104 131.788 52.555 131.886C52.5072 131.972 52.4785 132.068 52.471 132.166C52.4633 132.264 52.472 132.362 52.4966 132.457C52.5238 132.557 52.563 132.654 52.6135 132.744C52.6701 132.842 52.7362 132.933 52.8107 133.017C52.8839 133.103 52.9659 133.181 53.0554 133.25C53.1383 133.313 53.2292 133.364 53.3257 133.403C53.4153 133.439 53.5104 133.46 53.6069 133.465C53.7065 133.468 53.8058 133.452 53.8991 133.417C54.0058 133.375 54.1045 133.314 54.1913 133.239C54.2669 133.175 54.3311 133.099 54.3812 133.014C54.4298 132.927 54.4702 132.835 54.5018 132.741C54.5113 132.718 54.5249 132.697 54.5419 132.679C54.5564 132.666 54.5733 132.657 54.5915 132.652C54.6097 132.646 54.6289 132.644 54.6479 132.646C54.6661 132.647 54.684 132.652 54.7004 132.66C54.7167 132.668 54.7312 132.679 54.7428 132.693C54.7627 132.717 54.7756 132.745 54.7801 132.775C54.7846 132.806 54.7806 132.836 54.7684 132.864C54.6992 133.122 54.5526 133.351 54.3484 133.523C54.173 133.681 53.9543 133.784 53.7202 133.818Z" fill="white"/>
<path d="M47.5803 129.044C47.3609 129.078 47.1365 129.047 46.9338 128.957C46.7171 128.857 46.5251 128.71 46.3714 128.528C46.2487 128.39 46.1499 128.232 46.0792 128.062C46.0139 127.906 45.9792 127.74 45.9769 127.571C45.9747 127.402 46.0109 127.236 46.0828 127.083C46.1623 126.918 46.2755 126.77 46.4152 126.65C46.5929 126.495 46.8082 126.388 47.0398 126.341C47.066 126.333 47.0939 126.333 47.1204 126.34C47.1469 126.347 47.1708 126.361 47.1895 126.381C47.2145 126.412 47.2275 126.451 47.226 126.49C47.2259 126.509 47.2216 126.528 47.2134 126.545C47.2052 126.562 47.1933 126.577 47.1786 126.588C47.1625 126.602 47.1438 126.612 47.1238 126.618H47.0726L47.0069 126.636L46.9302 126.665L46.8389 126.709L46.7403 126.77L46.6234 126.861C46.5377 126.934 46.4659 127.022 46.4115 127.12C46.3648 127.206 46.3362 127.302 46.3275 127.4C46.32 127.496 46.3286 127.594 46.3531 127.687C46.3793 127.788 46.4199 127.885 46.4736 127.975C46.5286 128.074 46.5948 128.167 46.6709 128.251C46.7438 128.335 46.8245 128.412 46.9119 128.48C46.9944 128.544 47.0854 128.595 47.1822 128.633C47.2724 128.672 47.3689 128.694 47.4671 128.699C47.5657 128.701 47.6637 128.683 47.7556 128.648C47.863 128.606 47.962 128.546 48.0478 128.469C48.1234 128.405 48.1876 128.329 48.2378 128.244C48.2876 128.157 48.3292 128.066 48.362 127.971C48.3701 127.947 48.3839 127.926 48.4021 127.909C48.4158 127.897 48.432 127.887 48.4496 127.882C48.4673 127.876 48.486 127.874 48.5044 127.876C48.5427 127.88 48.5782 127.898 48.603 127.927C48.6212 127.952 48.633 127.98 48.6375 128.01C48.642 128.039 48.6389 128.07 48.6286 128.098C48.553 128.347 48.4057 128.569 48.2049 128.735C48.0316 128.897 47.8144 129.004 47.5803 129.044Z" fill="white"/>
<path d="M36.1593 117.449C35.9718 117.417 35.8028 117.317 35.6844 117.169C35.556 117.031 35.481 116.852 35.4726 116.663C35.4692 116.575 35.4865 116.488 35.5233 116.407C35.5601 116.327 35.6153 116.257 35.6844 116.201C35.7593 116.136 35.8479 116.087 35.9438 116.059C36.0301 116.038 36.1204 116.038 36.2067 116.059C36.2911 116.078 36.3715 116.111 36.4441 116.158C36.5205 116.206 36.5894 116.265 36.6487 116.332C36.7787 116.471 36.854 116.652 36.8605 116.842C36.8621 116.93 36.8436 117.017 36.8062 117.097C36.7689 117.178 36.7138 117.248 36.645 117.304C36.5807 117.364 36.5034 117.408 36.4192 117.433C36.3349 117.458 36.246 117.464 36.1593 117.449ZM36.6158 116.947C36.6241 116.872 36.6114 116.797 36.5793 116.729C36.5422 116.651 36.4943 116.579 36.4368 116.514C36.3807 116.45 36.3155 116.393 36.2433 116.347C36.1822 116.304 36.1095 116.282 36.0351 116.281C35.9587 116.284 35.8854 116.312 35.8275 116.362C35.7696 116.411 35.7307 116.479 35.7173 116.554C35.7098 116.629 35.7224 116.704 35.7538 116.773C35.7919 116.849 35.8398 116.92 35.8963 116.984C35.9524 117.049 36.0176 117.107 36.0899 117.155C36.1537 117.194 36.2266 117.217 36.3017 117.22C36.3774 117.217 36.4499 117.188 36.507 117.139C36.5642 117.089 36.6025 117.022 36.6158 116.947ZM37.5107 118.246C37.4958 118.247 37.481 118.244 37.4676 118.238C37.4542 118.231 37.4426 118.222 37.434 118.21C37.4191 118.192 37.4102 118.171 37.4084 118.148L36.8094 115.237C36.8026 115.216 36.8021 115.193 36.8079 115.171C36.8137 115.149 36.8256 115.129 36.8423 115.114C36.8525 115.104 36.8647 115.097 36.8779 115.093C36.8911 115.088 36.9051 115.087 36.919 115.088C36.9335 115.089 36.9478 115.092 36.961 115.099C36.9742 115.105 36.986 115.114 36.9957 115.124C37.0129 115.147 37.0242 115.173 37.0285 115.201L37.6202 118.111C37.6272 118.132 37.6281 118.154 37.6229 118.176C37.6178 118.197 37.6067 118.216 37.591 118.232C37.5705 118.241 37.5478 118.245 37.5253 118.242L37.5107 118.246ZM38.3361 117.202C38.149 117.167 37.9806 117.066 37.8613 116.918C37.7337 116.779 37.6587 116.6 37.6495 116.412C37.6473 116.324 37.6656 116.236 37.703 116.156C37.7404 116.076 37.7958 116.006 37.8649 115.95C37.9377 115.884 38.0254 115.837 38.1206 115.812C38.2069 115.79 38.2973 115.79 38.3836 115.812C38.4675 115.834 38.5475 115.868 38.621 115.914C38.6966 115.963 38.7654 116.022 38.8255 116.089C38.9089 116.182 38.9712 116.293 39.0082 116.412C39.0409 116.525 39.0409 116.645 39.0082 116.758C38.9749 116.874 38.9075 116.978 38.8146 117.056C38.7528 117.113 38.6792 117.156 38.599 117.181C38.5188 117.206 38.434 117.213 38.3507 117.202H38.3361ZM38.7927 116.696C38.8006 116.623 38.788 116.548 38.7561 116.482C38.7191 116.404 38.6711 116.331 38.6137 116.267C38.5709 116.217 38.5232 116.172 38.4713 116.132C38.4345 116.103 38.394 116.078 38.3507 116.059C38.2984 116.043 38.2423 116.043 38.19 116.059C38.1321 116.068 38.0784 116.095 38.0366 116.136C38.0059 116.159 37.9803 116.189 37.9615 116.223C37.9426 116.257 37.9309 116.294 37.927 116.332C37.9191 116.406 37.9317 116.48 37.9636 116.547C38.0414 116.699 38.1555 116.831 38.2959 116.929C38.358 116.972 38.4321 116.995 38.5078 116.995C38.5842 116.992 38.6575 116.964 38.7153 116.914C38.7732 116.865 38.8121 116.797 38.8255 116.722L38.7927 116.696Z" fill="white"/>
<path d="M44.4794 112.01C44.4554 112.011 44.4315 112.006 44.4094 111.997C44.3873 111.988 44.3676 111.973 44.3516 111.956C44.3358 111.933 44.3235 111.909 44.3151 111.883L43.6211 109.7L42.6897 110.508C42.6752 110.522 42.6575 110.534 42.6378 110.541C42.6182 110.548 42.5972 110.55 42.5765 110.548C42.5374 110.545 42.501 110.527 42.475 110.498C42.4491 110.468 42.4357 110.43 42.4377 110.391C42.4384 110.37 42.4436 110.349 42.4531 110.331C42.4625 110.312 42.476 110.295 42.4925 110.282L43.5882 109.343C43.6288 109.304 43.6818 109.281 43.738 109.278C43.7621 109.277 43.7861 109.283 43.8077 109.294C43.8293 109.304 43.848 109.32 43.8622 109.34C43.9 109.38 43.9276 109.428 43.9425 109.482L44.673 111.777C44.6843 111.81 44.6851 111.845 44.6752 111.879C44.6654 111.912 44.6455 111.941 44.6182 111.963C44.5994 111.979 44.5774 111.992 44.5536 112C44.5298 112.008 44.5045 112.012 44.4794 112.01Z" fill="white"/>
<path d="M50.9772 106.378C50.842 106.425 50.696 106.431 50.5572 106.396C50.4141 106.361 50.2861 106.28 50.192 106.167C50.0876 106.051 50.0236 105.904 50.0093 105.749C50.0042 105.592 50.0547 105.439 50.1518 105.316C50.025 105.389 49.876 105.415 49.7318 105.389C49.5886 105.362 49.4594 105.286 49.3665 105.174C49.272 105.074 49.213 104.946 49.1985 104.81C49.1947 104.671 49.2329 104.534 49.3081 104.417C49.3775 104.278 49.4744 104.154 49.593 104.053C49.679 103.975 49.7763 103.91 49.8815 103.86C49.976 103.816 50.0772 103.788 50.181 103.777C50.2804 103.77 50.3803 103.785 50.4732 103.82C50.5717 103.863 50.6592 103.928 50.7289 104.01C50.8273 104.114 50.8867 104.249 50.8969 104.392C50.9009 104.536 50.8559 104.677 50.769 104.792C50.9085 104.717 51.0687 104.688 51.2256 104.712C51.3761 104.746 51.5109 104.83 51.6091 104.948C51.7053 105.058 51.7663 105.193 51.7844 105.338C51.7988 105.48 51.7722 105.624 51.7077 105.752C51.5442 106.037 51.2858 106.256 50.9772 106.371V106.378ZM51.4228 105.57C51.4331 105.505 51.428 105.438 51.4077 105.375C51.3874 105.312 51.3525 105.254 51.306 105.207C51.2623 105.152 51.2068 105.107 51.1436 105.076C51.0804 105.045 51.0111 105.029 50.9407 105.028C50.7976 105.03 50.6606 105.086 50.5572 105.185C50.4435 105.276 50.368 105.405 50.3454 105.549C50.3376 105.619 50.3453 105.689 50.368 105.756C50.3908 105.823 50.4279 105.884 50.4768 105.934C50.5373 106.008 50.6189 106.061 50.7106 106.087C50.7929 106.111 50.8803 106.111 50.9626 106.087C51.0504 106.054 51.131 106.005 51.2 105.942C51.316 105.848 51.3949 105.716 51.4228 105.57ZM50.5499 104.588C50.5589 104.526 50.5533 104.463 50.5337 104.404C50.514 104.345 50.4808 104.291 50.4367 104.246C50.3996 104.195 50.3497 104.154 50.2921 104.128C50.2345 104.102 50.171 104.091 50.108 104.097C49.9713 104.11 49.8428 104.167 49.7427 104.261C49.6931 104.305 49.649 104.355 49.6112 104.41C49.5755 104.459 49.5495 104.515 49.5345 104.574C49.5162 104.633 49.5162 104.696 49.5345 104.755C49.555 104.821 49.5886 104.882 49.6331 104.934C49.6721 104.984 49.7219 105.024 49.7789 105.052C49.8359 105.079 49.8984 105.094 49.9619 105.094C50.0972 105.075 50.224 105.017 50.3266 104.927C50.4292 104.837 50.503 104.719 50.5389 104.588H50.5499Z" fill="white"/>
<path d="M57.1096 100.979C57.0864 100.986 57.0615 100.986 57.0384 100.978C57.0154 100.97 56.9955 100.955 56.9818 100.935C56.9531 100.905 56.9363 100.865 56.9343 100.823C56.931 100.804 56.9326 100.785 56.939 100.767C56.9454 100.749 56.9564 100.733 56.9708 100.721C56.9829 100.709 56.9982 100.702 57.0146 100.699C57.1725 100.654 57.3193 100.578 57.4456 100.473C57.5035 100.424 57.5539 100.366 57.5954 100.302C57.6325 100.249 57.6597 100.19 57.6757 100.128C57.6868 100.069 57.6868 100.008 57.6757 99.9494C57.6685 99.8872 57.6538 99.8262 57.6319 99.7675C57.6054 99.702 57.5737 99.6387 57.5369 99.5783C57.4931 99.5092 57.4493 99.4473 57.4018 99.3855C57.3543 99.3236 57.2995 99.2581 57.2374 99.1854C57.2838 99.3022 57.2838 99.4323 57.2374 99.5492C57.1938 99.6919 57.1087 99.8186 56.9927 99.913C56.9116 99.9923 56.8145 100.054 56.7078 100.093C56.6011 100.132 56.4873 100.147 56.3739 100.139C56.2605 100.131 56.1503 100.099 56.0504 100.045C55.9505 99.9906 55.8634 99.9159 55.7947 99.8257C55.7142 99.7411 55.652 99.6409 55.6118 99.5314C55.5716 99.4219 55.5543 99.3054 55.561 99.189C55.5705 99.0691 55.6049 98.9526 55.6622 98.8467C55.7194 98.7409 55.7981 98.648 55.8933 98.5741C55.9922 98.4831 56.1075 98.4115 56.233 98.3631C56.3378 98.3235 56.45 98.3074 56.5617 98.3158C56.6718 98.3248 56.7794 98.3531 56.8795 98.3995C56.9836 98.4488 57.0816 98.5099 57.1717 98.5814C57.2669 98.6621 57.356 98.7497 57.4383 98.8434C57.5077 98.9234 57.5735 99.0035 57.6282 99.0762C57.6897 99.1574 57.7458 99.2425 57.7963 99.3309C57.8475 99.4181 57.8915 99.5094 57.9278 99.6038C57.9617 99.6927 57.9838 99.7856 57.9935 99.8803C58.0101 99.9741 58.0101 100.07 57.9935 100.164C57.9714 100.264 57.9318 100.358 57.8766 100.444C57.8112 100.546 57.7312 100.638 57.6392 100.717C57.4846 100.843 57.3036 100.932 57.1096 100.979ZM57.0804 99.2727C57.0818 99.1939 57.0673 99.1156 57.0378 99.0425C57.0083 98.9694 56.9644 98.9029 56.9087 98.847C56.8173 98.7329 56.6876 98.6554 56.5435 98.6287C56.4685 98.6211 56.3927 98.6298 56.3214 98.6543C56.2501 98.6788 56.185 98.7185 56.1307 98.7706C56.0701 98.8169 56.0201 98.8755 55.9842 98.9427C55.9483 99.0099 55.9272 99.0839 55.9226 99.1599C55.9263 99.3152 55.9889 99.4634 56.0979 99.5747C56.1903 99.6905 56.3188 99.7725 56.4631 99.8075C56.5357 99.8183 56.6098 99.8122 56.6796 99.7894C56.7493 99.7667 56.8128 99.728 56.8649 99.6765C56.9265 99.6273 56.9774 99.5661 57.0144 99.4967C57.0515 99.4273 57.0739 99.351 57.0804 99.2727Z" fill="white"/>
<path d="M49.9252 117.075C49.9016 117.076 49.8779 117.072 49.8562 117.063C49.8345 117.053 49.8156 117.039 49.801 117.02L49.5271 116.707L48.7236 117.406C48.7049 117.424 48.6825 117.438 48.6579 117.446C48.6333 117.455 48.6071 117.459 48.5811 117.457C48.5557 117.454 48.531 117.447 48.5085 117.435C48.4859 117.423 48.4659 117.407 48.4496 117.387C48.4225 117.357 48.4047 117.319 48.3985 117.278L48.1136 115.397C48.103 115.337 48.1079 115.275 48.1277 115.217C48.1475 115.159 48.1816 115.107 48.2268 115.066C48.2771 115.018 48.3436 114.991 48.4131 114.99C48.449 114.991 48.4841 115.001 48.5158 115.018C48.5474 115.035 48.5748 115.059 48.5957 115.088L49.6257 116.263L49.8303 116.085C49.8436 116.072 49.8597 116.062 49.8773 116.055C49.895 116.049 49.9139 116.047 49.9325 116.049C49.9685 116.053 50.0012 116.071 50.0238 116.099C50.047 116.126 50.06 116.159 50.0604 116.194C50.0596 116.213 50.0546 116.232 50.0457 116.249C50.0369 116.266 50.0244 116.281 50.0092 116.292L49.801 116.471L50.075 116.78C50.0908 116.797 50.1025 116.818 50.1095 116.841C50.1164 116.864 50.1184 116.887 50.1152 116.911C50.1057 116.955 50.0821 116.995 50.0478 117.024C50.0135 117.054 49.9705 117.072 49.9252 117.075ZM49.3481 116.503L48.4022 115.412L48.6724 117.082L49.3481 116.503Z" fill="white"/>
<path d="M55.9044 111.897C55.7698 111.945 55.6273 111.967 55.4844 111.963C55.4688 111.964 55.4531 111.962 55.4386 111.956C55.424 111.95 55.4109 111.942 55.4004 111.93C55.3743 111.894 55.3614 111.851 55.3638 111.806C55.3626 111.786 55.3659 111.765 55.3734 111.745C55.381 111.726 55.3927 111.708 55.4077 111.694C55.4264 111.679 55.4496 111.671 55.4734 111.672C55.6934 111.672 55.9061 111.593 56.0724 111.45C56.1338 111.404 56.1846 111.345 56.2218 111.278C56.2589 111.211 56.2814 111.137 56.2879 111.061C56.2882 110.984 56.2731 110.908 56.2437 110.838C56.2142 110.767 56.1709 110.703 56.1162 110.649C56.0272 110.534 55.8959 110.458 55.751 110.438C55.6844 110.434 55.6175 110.443 55.5547 110.466C55.4918 110.489 55.4343 110.524 55.3858 110.569C55.3105 110.638 55.2496 110.721 55.2068 110.813C55.1661 110.902 55.145 110.999 55.1447 111.097C55.1447 111.119 55.1447 111.137 55.1045 111.162C55.0635 111.197 55.0145 111.221 54.9621 111.232C54.9421 111.24 54.9199 111.243 54.8985 111.239C54.877 111.235 54.8572 111.225 54.8415 111.21L54.038 110.289C54.0204 110.273 54.0069 110.253 53.9984 110.231C53.99 110.209 53.9869 110.185 53.9894 110.161C53.9918 110.137 53.9998 110.115 54.0127 110.094C54.0256 110.074 54.043 110.058 54.0636 110.045L54.9913 109.238C55.0055 109.225 55.0223 109.215 55.0406 109.21C55.0589 109.204 55.0782 109.202 55.0972 109.205C55.1332 109.21 55.1659 109.228 55.1885 109.256C55.2138 109.283 55.2282 109.318 55.2287 109.354C55.2279 109.373 55.2229 109.392 55.2141 109.409C55.2052 109.426 55.1928 109.441 55.1776 109.452L54.3375 110.18L54.9328 110.86V110.828C54.929 110.8 54.929 110.772 54.9328 110.744C54.9454 110.703 54.96 110.663 54.9767 110.624C55 110.57 55.0307 110.52 55.068 110.475C55.1097 110.415 55.1588 110.362 55.2141 110.315C55.2948 110.238 55.391 110.18 55.4962 110.144C55.6014 110.107 55.7132 110.094 55.824 110.104C56.0495 110.13 56.2554 110.244 56.3975 110.42C56.479 110.505 56.5414 110.605 56.5805 110.716C56.6196 110.826 56.6344 110.944 56.6239 111.061C56.5937 111.299 56.472 111.517 56.2843 111.668C56.1742 111.769 56.0451 111.847 55.9044 111.897Z" fill="white"/>
<path d="M62.3144 106.342C62.21 106.383 62.0977 106.4 61.9857 106.393C61.8766 106.382 61.7703 106.353 61.6716 106.305C61.5656 106.257 61.4662 106.196 61.3757 106.123C61.2818 106.044 61.1939 105.958 61.1128 105.865C61.0397 105.781 60.9776 105.705 60.9192 105.629C60.8607 105.552 60.806 105.469 60.7512 105.374C60.7007 105.288 60.6567 105.198 60.6197 105.105C60.5893 105.014 60.5673 104.92 60.5539 104.825C60.5374 104.731 60.5374 104.635 60.5539 104.541C60.5762 104.443 60.6157 104.349 60.6708 104.264C60.7354 104.16 60.8169 104.066 60.9119 103.988C61.0641 103.858 61.244 103.765 61.4378 103.715C61.4616 103.707 61.4871 103.707 61.5108 103.715C61.5344 103.723 61.555 103.738 61.5693 103.759C61.5964 103.79 61.6119 103.83 61.6132 103.871C61.6161 103.891 61.6143 103.91 61.6079 103.929C61.6016 103.947 61.5908 103.964 61.5766 103.977L61.5328 103.999C61.3753 104.041 61.2293 104.118 61.1055 104.224C61.0459 104.272 60.9941 104.328 60.9521 104.392C60.9166 104.445 60.8907 104.504 60.8754 104.566C60.8644 104.625 60.8644 104.686 60.8754 104.745C60.8821 104.807 60.8968 104.868 60.9192 104.926C60.9449 104.992 60.9767 105.056 61.0142 105.116C61.0554 105.183 61.1005 105.247 61.1493 105.309C61.1968 105.37 61.2516 105.436 61.3137 105.509C61.2673 105.392 61.2673 105.262 61.3137 105.145C61.3558 105.001 61.4412 104.874 61.5584 104.781C61.6407 104.703 61.7383 104.642 61.8452 104.604C61.952 104.565 62.0658 104.548 62.1793 104.555C62.292 104.565 62.4015 104.598 62.5013 104.651C62.6011 104.704 62.6891 104.777 62.76 104.865C62.8397 104.95 62.9011 105.05 62.9407 105.159C62.9802 105.269 62.9971 105.385 62.9901 105.501C62.9807 105.622 62.9462 105.739 62.889 105.845C62.8318 105.952 62.7531 106.045 62.6577 106.12C62.56 106.217 62.4431 106.292 62.3144 106.342ZM61.4817 105.425C61.4803 105.583 61.5405 105.736 61.6497 105.851C61.7469 105.966 61.8833 106.043 62.0332 106.065C62.1082 106.074 62.1842 106.065 62.2556 106.041C62.327 106.016 62.392 105.976 62.4459 105.923C62.5069 105.877 62.5572 105.819 62.5931 105.752C62.6291 105.684 62.6499 105.61 62.6541 105.534C62.6521 105.379 62.5907 105.231 62.4824 105.119C62.3895 105.004 62.2612 104.922 62.1172 104.886C62.0446 104.875 61.9703 104.881 61.9005 104.904C61.8306 104.926 61.7672 104.965 61.7154 105.017C61.6497 105.065 61.5949 105.126 61.5546 105.196C61.5143 105.266 61.4894 105.344 61.4817 105.425Z" fill="white"/>
<path d="M54.7647 123.132C54.7399 123.132 54.7154 123.125 54.6933 123.114C54.6711 123.103 54.6518 123.087 54.6369 123.067L53.2526 121.488L53.1175 121.946C53.1108 121.971 53.0968 121.994 53.0773 122.012C53.0514 122.037 53.0167 122.051 52.9805 122.051C52.9444 122.051 52.9096 122.037 52.8837 122.012C52.8693 121.995 52.8595 121.975 52.855 121.953C52.8505 121.931 52.8516 121.909 52.8582 121.888L53.081 121.16C53.094 121.121 53.1189 121.087 53.1523 121.063C53.1858 121.039 53.226 121.026 53.2672 121.026C53.2921 121.028 53.3161 121.036 53.3381 121.048C53.36 121.059 53.3794 121.075 53.3951 121.095L54.9182 122.834C54.9351 122.852 54.9478 122.873 54.9554 122.896C54.963 122.919 54.9652 122.944 54.962 122.968C54.9554 123.017 54.9306 123.061 54.8926 123.092C54.8556 123.119 54.8106 123.133 54.7647 123.132Z" fill="white"/>
<path d="M60.8863 115.852C60.915 116.029 60.915 116.21 60.8863 116.387L60.7877 117.573L61.6388 116.845C61.6533 116.832 61.6705 116.821 61.6894 116.814C61.7082 116.807 61.7283 116.804 61.7483 116.805C61.7848 116.811 61.8183 116.829 61.8433 116.856C61.8682 116.884 61.8812 116.921 61.8798 116.958C61.8791 116.978 61.8738 116.998 61.8643 117.015C61.8548 117.033 61.8414 117.048 61.825 117.06L60.8681 117.879C60.8209 117.922 60.7605 117.949 60.6964 117.955C60.6699 117.956 60.6433 117.952 60.6187 117.942C60.5941 117.932 60.572 117.916 60.554 117.897C60.5119 117.84 60.4935 117.77 60.5028 117.7L60.5869 116.318C60.6029 116.197 60.6029 116.075 60.5869 115.954C60.5678 115.864 60.5264 115.78 60.4663 115.71C60.4251 115.659 60.3736 115.617 60.3151 115.587C60.2566 115.557 60.1924 115.539 60.1266 115.536C59.9923 115.529 59.8609 115.576 59.7614 115.667C59.7034 115.717 59.6508 115.773 59.6043 115.834C59.5707 115.872 59.5424 115.915 59.5203 115.961C59.4996 116.006 59.4813 116.052 59.4655 116.099C59.4436 116.165 59.4327 116.201 59.429 116.216C59.4224 116.233 59.411 116.248 59.3962 116.26C59.3812 116.272 59.3637 116.282 59.3448 116.287C59.326 116.293 59.3061 116.295 59.2866 116.292C59.2664 116.291 59.2467 116.286 59.2285 116.277C59.2104 116.269 59.1941 116.256 59.1807 116.241C59.1646 116.223 59.154 116.201 59.1501 116.177C59.1462 116.153 59.1492 116.129 59.1587 116.107C59.1977 115.981 59.249 115.859 59.3121 115.743C59.3883 115.624 59.4818 115.517 59.5897 115.426C59.7483 115.28 59.9582 115.202 60.1741 115.208C60.275 115.209 60.3744 115.232 60.4658 115.275C60.5571 115.318 60.6382 115.379 60.7037 115.456C60.7959 115.571 60.8585 115.707 60.8863 115.852Z" fill="white"/>
<path d="M67.1136 112.338C67.0852 112.348 67.0546 112.349 67.0253 112.342C66.9961 112.335 66.9696 112.32 66.9492 112.298C66.9237 112.267 66.9095 112.228 66.909 112.188C66.9096 112.169 66.914 112.15 66.9222 112.133C66.9304 112.115 66.942 112.099 66.9565 112.087C66.9671 112.074 66.9811 112.066 66.9967 112.061C67.17 112.016 67.331 111.933 67.4678 111.817C67.5825 111.725 67.6624 111.597 67.6943 111.453C67.7093 111.392 67.7081 111.328 67.6908 111.268C67.6735 111.207 67.6407 111.152 67.5957 111.108C67.549 111.05 67.4894 111.003 67.4215 110.973C67.3536 110.942 67.2795 110.927 67.2049 110.93C67.0412 110.937 66.8858 111.003 66.7666 111.115L66.6643 111.206C66.651 111.219 66.6349 111.229 66.6172 111.236C66.5996 111.242 66.5807 111.244 66.562 111.242C66.528 111.236 66.4971 111.218 66.4744 111.192C66.4491 111.165 66.4347 111.13 66.4342 111.093C66.4348 111.075 66.4394 111.057 66.4476 111.041C66.4558 111.025 66.4674 111.01 66.4817 110.999L66.573 110.919C66.6904 110.826 66.775 110.699 66.8141 110.555C66.8275 110.49 66.8245 110.423 66.8054 110.359C66.7862 110.296 66.7516 110.238 66.7045 110.191C66.6679 110.143 66.6201 110.106 66.5653 110.081C66.5105 110.056 66.4504 110.045 66.3904 110.049C66.2623 110.056 66.1407 110.107 66.047 110.195C65.9036 110.319 65.7911 110.475 65.7183 110.649C65.7121 110.664 65.702 110.677 65.6891 110.686C65.6743 110.699 65.6566 110.708 65.6375 110.712C65.6184 110.717 65.5985 110.716 65.5795 110.711C65.5369 110.704 65.4982 110.682 65.4699 110.649C65.4551 110.634 65.4452 110.614 65.4413 110.593C65.4374 110.571 65.4397 110.549 65.448 110.529C65.4834 110.433 65.5326 110.342 65.5941 110.26C65.6657 110.149 65.7531 110.048 65.8535 109.962C65.9602 109.864 66.084 109.786 66.2187 109.733C66.3468 109.689 66.4846 109.681 66.6168 109.711C66.7594 109.746 66.8872 109.825 66.9821 109.936C67.0747 110.036 67.129 110.165 67.1355 110.3C67.1375 110.435 67.1008 110.568 67.0296 110.682C67.1653 110.608 67.3235 110.584 67.4752 110.617C67.6322 110.65 67.7728 110.736 67.8733 110.86C67.9522 110.946 68.0086 111.05 68.0376 111.162C68.0669 111.265 68.0669 111.373 68.0376 111.475C68.0107 111.579 67.9662 111.677 67.9061 111.766C67.8406 111.862 67.7633 111.949 67.676 112.025C67.5178 112.174 67.3244 112.282 67.1136 112.338Z" fill="white"/>
<path d="M59.2718 128.866C59.1615 128.898 59.0459 128.906 58.9321 128.891C58.8166 128.87 58.7056 128.829 58.6034 128.771C58.4902 128.708 58.3837 128.634 58.2856 128.55C58.1819 128.458 58.0843 128.359 57.9934 128.255C57.3871 127.564 57.3214 127.012 57.7962 126.599C58.2674 126.188 58.8079 126.327 59.4142 127.021C59.5056 127.125 59.5898 127.234 59.6663 127.349C59.7388 127.456 59.7988 127.57 59.8452 127.691C59.8876 127.8 59.9122 127.916 59.9183 128.033C59.9195 128.147 59.8959 128.26 59.8489 128.364C59.7921 128.482 59.7098 128.587 59.6078 128.67C59.5113 128.758 59.3967 128.825 59.2718 128.866ZM59.5275 128.295C59.5522 128.243 59.567 128.188 59.5713 128.131C59.5706 128.071 59.5632 128.011 59.5494 127.953C59.5323 127.892 59.509 127.834 59.48 127.778C59.4507 127.716 59.4165 127.657 59.3777 127.6C59.3339 127.534 59.2937 127.48 59.2535 127.429L59.122 127.272L58.9759 127.116C58.9275 127.064 58.8763 127.014 58.8225 126.967C58.7719 126.922 58.7182 126.881 58.6618 126.843C58.6087 126.808 58.5524 126.778 58.4938 126.752C58.4407 126.728 58.3839 126.714 58.3258 126.709C58.2689 126.705 58.2119 126.713 58.1578 126.73C58.0986 126.751 58.0441 126.783 57.9971 126.825C57.9477 126.867 57.9068 126.917 57.8766 126.974C57.8519 127.024 57.837 127.079 57.8327 127.134C57.8296 127.192 57.837 127.25 57.8546 127.305C57.8688 127.367 57.8909 127.427 57.9204 127.484C57.9513 127.545 57.9854 127.604 58.0227 127.662C58.0665 127.724 58.1067 127.782 58.1505 127.833C58.1943 127.884 58.2345 127.942 58.2856 128L58.4244 128.149C58.473 128.2 58.5242 128.249 58.5778 128.295C58.6275 128.342 58.6813 128.385 58.7385 128.422C58.7917 128.457 58.8479 128.488 58.9065 128.513C58.961 128.537 59.019 128.552 59.0782 128.557C59.1349 128.563 59.1923 128.557 59.2462 128.539C59.3069 128.518 59.3628 128.486 59.4106 128.444C59.4615 128.403 59.5037 128.352 59.5348 128.295H59.5275Z" fill="white"/>
<path d="M65.2655 122.517C65.2082 122.515 65.152 122.5 65.1004 122.475C65.0488 122.45 65.0028 122.415 64.9652 122.372C64.9277 122.329 64.8993 122.278 64.8819 122.224C64.8644 122.17 64.8583 122.112 64.8638 122.055C64.8688 121.993 64.8866 121.932 64.9161 121.877C64.9457 121.822 64.9863 121.774 65.0354 121.735C65.0812 121.692 65.1352 121.659 65.1942 121.637C65.2531 121.615 65.3159 121.605 65.3788 121.608C65.4361 121.608 65.4927 121.621 65.5445 121.645C65.5963 121.67 65.642 121.705 65.6783 121.75C65.717 121.792 65.7464 121.842 65.7646 121.897C65.7828 121.951 65.7895 122.009 65.7842 122.066C65.7797 122.129 65.7621 122.19 65.7325 122.246C65.703 122.302 65.6621 122.351 65.6125 122.39C65.5663 122.433 65.5117 122.467 65.4521 122.489C65.3925 122.511 65.329 122.521 65.2655 122.517Z" fill="white"/>
<path d="M57.6647 87.5285C57.6082 87.525 57.5529 87.5103 57.5021 87.4853C57.4513 87.4603 57.406 87.4255 57.3689 87.383C57.3332 87.341 57.3063 87.2923 57.29 87.2398C57.2737 87.1873 57.2682 87.132 57.2739 87.0773C57.2788 87.0165 57.2962 86.9573 57.3252 86.9035C57.3541 86.8496 57.3938 86.8023 57.4419 86.7645C57.4862 86.7228 57.5385 86.6904 57.5955 86.6691C57.6526 86.6479 57.7134 86.6382 57.7743 86.6408C57.8301 86.6417 57.885 86.6545 57.9354 86.6784C57.9858 86.7022 58.0305 86.7365 58.0665 86.779C58.1038 86.8209 58.1321 86.8699 58.1497 86.9231C58.1672 86.9763 58.1737 87.0325 58.1688 87.0883C58.1643 87.1498 58.1471 87.2097 58.1182 87.2642C58.0893 87.3187 58.0493 87.3666 58.0007 87.4048C57.9556 87.4464 57.9028 87.4788 57.8451 87.5C57.7874 87.5212 57.7261 87.5309 57.6647 87.5285Z" fill="white"/>
<path d="M59.3048 89.3985C59.2489 89.3963 59.1941 89.3828 59.1437 89.3588C59.0932 89.3348 59.0482 89.3008 59.0113 89.259C58.9744 89.2172 58.9464 89.1683 58.9291 89.1153C58.9117 89.0624 58.9053 89.0065 58.9103 88.951C58.9159 88.8903 58.9336 88.8313 58.9624 88.7776C58.9913 88.7239 59.0307 88.6764 59.0784 88.6382C59.1229 88.5957 59.1756 88.5628 59.2335 88.5415C59.2913 88.5202 59.3528 88.511 59.4144 88.5145C59.4702 88.5154 59.5251 88.5282 59.5755 88.5521C59.6259 88.5759 59.6706 88.6102 59.7066 88.6527C59.7439 88.6946 59.7722 88.7436 59.7898 88.7968C59.8073 88.85 59.8138 88.9062 59.8088 88.962C59.8039 89.0228 59.7865 89.082 59.7576 89.1358C59.7287 89.1897 59.6889 89.237 59.6408 89.2748C59.5961 89.317 59.5433 89.3496 59.4855 89.3709C59.4278 89.3921 59.3663 89.4015 59.3048 89.3985Z" fill="white"/>
<path d="M70.5872 117.198C70.5572 117.197 70.5277 117.19 70.5006 117.178C70.4735 117.165 70.4494 117.147 70.4298 117.124C70.4103 117.101 70.3956 117.075 70.3868 117.046C70.3781 117.018 70.3754 116.988 70.379 116.958C70.3855 116.924 70.3989 116.891 70.4184 116.861C70.4378 116.832 70.4629 116.807 70.4922 116.787L72.4974 115.048C72.5192 115.026 72.5454 115.008 72.5743 114.996C72.6031 114.984 72.6342 114.978 72.6654 114.979C72.6968 114.979 72.7278 114.985 72.7562 114.999C72.7846 115.012 72.8098 115.031 72.8298 115.055C72.8497 115.077 72.8644 115.103 72.8726 115.132C72.8809 115.16 72.8825 115.19 72.8772 115.219C72.8701 115.283 72.8387 115.341 72.7896 115.383L70.7515 117.151C70.7051 117.187 70.646 117.204 70.5872 117.198ZM71.3944 118.122C71.3652 118.121 71.3366 118.114 71.3103 118.101C71.2839 118.089 71.2604 118.071 71.241 118.05C71.2205 118.027 71.2053 118.001 71.1964 117.972C71.1876 117.943 71.1853 117.912 71.1898 117.882C71.1935 117.851 71.2035 117.82 71.2192 117.793C71.2349 117.765 71.2559 117.741 71.2811 117.722L73.29 115.976C73.3359 115.934 73.3958 115.911 73.458 115.91C73.4887 115.911 73.519 115.918 73.5468 115.931C73.5745 115.944 73.5991 115.963 73.6187 115.987C73.6387 116.009 73.6533 116.035 73.6616 116.063C73.6698 116.091 73.6714 116.121 73.6662 116.15C73.6588 116.213 73.6274 116.27 73.5785 116.31L71.5587 118.064C71.513 118.103 71.4545 118.124 71.3944 118.122Z" fill="white"/>
<path d="M63.5526 94.0773L63.6475 95.3216C63.6523 95.351 63.6495 95.3812 63.6392 95.4092C63.629 95.4372 63.6117 95.4622 63.5891 95.4817C63.5736 95.4962 63.5551 95.5073 63.535 95.5142C63.5148 95.5211 63.4934 95.5237 63.4722 95.5217C63.4513 95.5217 63.4307 95.5172 63.4117 95.5084C63.3928 95.4996 63.376 95.4867 63.3626 95.4707C63.3382 95.4422 63.324 95.4064 63.3225 95.3689L63.2348 94.0045L61.9418 93.7171C61.9116 93.7127 61.8842 93.6971 61.8651 93.6734C61.8503 93.6546 61.8394 93.633 61.8331 93.6099C61.8268 93.5867 61.8253 93.5626 61.8286 93.5388C61.8316 93.4899 61.8539 93.4441 61.8907 93.4115C61.9136 93.3935 61.9402 93.3809 61.9687 93.3746C61.9972 93.3683 62.0267 93.3685 62.0551 93.3751L63.2311 93.6407L63.1435 92.4364C63.1388 92.4059 63.1416 92.3747 63.1518 92.3455C63.162 92.3164 63.1792 92.2901 63.2019 92.2691C63.2334 92.2426 63.2741 92.2296 63.3152 92.2327C63.3347 92.232 63.3542 92.2359 63.372 92.2441C63.3898 92.2523 63.4053 92.2646 63.4174 92.28C63.4391 92.3056 63.4519 92.3375 63.4539 92.371L63.5562 93.7135L64.8784 94.0082C64.912 94.0162 64.9425 94.0339 64.9661 94.0591C64.982 94.0758 64.9934 94.0962 64.9992 94.1185C65.0049 94.1408 65.0048 94.1642 64.9989 94.1864C64.9929 94.2353 64.9696 94.2805 64.9332 94.3138C64.9127 94.3322 64.888 94.3451 64.8612 94.3515C64.8343 94.3578 64.8064 94.3574 64.7798 94.3502L63.5526 94.0773Z" fill="white"/>
<path d="M77.2054 109.765C77.1341 109.757 77.0686 109.722 77.0228 109.667L76.2083 108.736L75.2404 109.58C75.1869 109.63 75.1163 109.657 75.0432 109.656C75.0079 109.656 74.9731 109.649 74.941 109.634C74.9089 109.62 74.8802 109.599 74.8569 109.573C74.8335 109.547 74.8161 109.516 74.806 109.483C74.7959 109.449 74.7933 109.414 74.7984 109.38C74.8102 109.307 74.8478 109.241 74.9044 109.194L75.8759 108.35L75.0541 107.411C75.0064 107.359 74.9815 107.289 74.9847 107.219C74.9843 107.183 74.9923 107.147 75.0082 107.115C75.0241 107.083 75.0473 107.055 75.076 107.033C75.1014 107.008 75.1319 106.99 75.1654 106.978C75.1989 106.967 75.2345 106.963 75.2696 106.968C75.3423 106.975 75.4092 107.01 75.4559 107.066L76.2777 108.004L77.2529 107.157C77.3062 107.109 77.3749 107.082 77.4465 107.08C77.482 107.078 77.5174 107.085 77.5498 107.1C77.5822 107.114 77.6107 107.136 77.6328 107.164C77.6564 107.19 77.6739 107.22 77.684 107.254C77.6941 107.287 77.6966 107.322 77.6912 107.357C77.6828 107.43 77.6461 107.496 77.5889 107.542L76.6137 108.39L77.4282 109.321C77.476 109.374 77.5009 109.443 77.4976 109.514C77.4963 109.55 77.4874 109.585 77.4717 109.617C77.456 109.649 77.4337 109.677 77.4063 109.7C77.3797 109.725 77.3479 109.744 77.3132 109.755C77.2785 109.766 77.2417 109.77 77.2054 109.765Z" fill="white"/>
<path d="M41.8825 123.7C41.8298 123.694 41.7815 123.668 41.7474 123.627L41.1557 122.972L40.4471 123.587C40.4077 123.621 40.3569 123.639 40.3047 123.638C40.2791 123.64 40.2535 123.635 40.23 123.625C40.2065 123.615 40.1858 123.599 40.1695 123.58C40.1523 123.561 40.1394 123.539 40.1318 123.516C40.1242 123.492 40.1221 123.466 40.1257 123.441C40.1336 123.389 40.1609 123.341 40.2024 123.307L40.911 122.692L40.312 122.008C40.2945 121.989 40.281 121.966 40.2722 121.942C40.2634 121.918 40.2596 121.892 40.2609 121.866C40.2622 121.84 40.2688 121.815 40.28 121.792C40.2913 121.769 40.3071 121.748 40.3265 121.731C40.3459 121.715 40.3685 121.702 40.393 121.693C40.4175 121.685 40.4433 121.682 40.469 121.684C40.522 121.69 40.5706 121.716 40.6042 121.757L41.1995 122.437L41.93 121.822C41.9692 121.787 42.0196 121.766 42.0725 121.764C42.0975 121.765 42.1223 121.77 42.1449 121.781C42.1676 121.792 42.1878 121.807 42.204 121.826C42.2217 121.845 42.2349 121.867 42.2425 121.892C42.2501 121.917 42.2519 121.943 42.2478 121.968C42.2415 122.02 42.2154 122.069 42.1747 122.103L41.4442 122.717L42.0396 123.394C42.0725 123.434 42.0905 123.484 42.0907 123.536C42.0893 123.562 42.0828 123.587 42.0715 123.61C42.0602 123.633 42.0444 123.654 42.025 123.671C41.983 123.698 41.932 123.708 41.8825 123.7Z" fill="white"/>
<path d="M67.4387 100.506C67.4188 100.509 67.3984 100.508 67.3794 100.501C67.3603 100.495 67.343 100.484 67.3291 100.47C67.3156 100.454 67.3062 100.435 67.3018 100.415C67.2973 100.394 67.2979 100.373 67.3035 100.353C67.3193 100.299 67.3527 100.252 67.3985 100.219L69.3379 98.5305C69.3781 98.4906 69.4312 98.4661 69.4877 98.4614C69.5077 98.4572 69.5284 98.4584 69.5477 98.4647C69.5671 98.471 69.5845 98.4823 69.5982 98.4974C69.6118 98.5124 69.6213 98.5308 69.6256 98.5507C69.6299 98.5705 69.629 98.5912 69.6228 98.6105C69.6065 98.6654 69.5733 98.7138 69.5279 98.7488L67.5884 100.433C67.5479 100.473 67.4952 100.499 67.4387 100.506Z" fill="white"/>
<path d="M43.6393 122.852C43.6028 122.846 43.5694 122.828 43.5444 122.801C43.5201 122.773 43.5071 122.736 43.5078 122.699C43.5085 122.679 43.5138 122.659 43.5233 122.64C43.5328 122.622 43.5462 122.606 43.5626 122.594L44.8702 121.455C44.8838 121.441 44.9 121.43 44.9179 121.423C44.9357 121.415 44.9549 121.412 44.9743 121.412C44.9937 121.412 45.0129 121.415 45.0307 121.423C45.0486 121.43 45.0648 121.441 45.0784 121.455C45.0926 121.468 45.1039 121.484 45.1116 121.501C45.1194 121.519 45.1234 121.538 45.1234 121.557C45.1234 121.576 45.1194 121.595 45.1116 121.612C45.1039 121.63 45.0926 121.646 45.0784 121.659L43.7672 122.797C43.7523 122.817 43.7328 122.832 43.7104 122.841C43.688 122.851 43.6635 122.855 43.6393 122.852Z" fill="white"/>
<path d="M43.2265 123.896C43.2265 123.954 43.1827 123.991 43.1425 123.998C43.1024 124.005 43.0658 123.998 43.0257 123.933C42.9815 123.864 42.9517 123.787 42.938 123.707L42.2075 119.96C42.1893 119.879 42.1893 119.796 42.2075 119.716C42.2075 119.654 42.255 119.621 42.2915 119.614C42.328 119.607 42.3682 119.614 42.4084 119.676C42.4525 119.746 42.4823 119.824 42.496 119.905L43.2265 123.652C43.2447 123.733 43.2447 123.816 43.2265 123.896Z" fill="white"/>
<path d="M57.4675 89.1111C57.4476 89.1143 57.4273 89.1127 57.4082 89.1064C57.3891 89.1 57.3718 89.0892 57.3579 89.0747C57.345 89.0585 57.3363 89.0395 57.3325 89.0192C57.3287 88.9989 57.3299 88.978 57.336 88.9583C57.3503 88.9045 57.3825 88.857 57.4273 88.8237L59.3667 87.1356C59.4084 87.0957 59.4626 87.0713 59.5201 87.0664C59.54 87.0632 59.5603 87.0648 59.5794 87.0712C59.5985 87.0775 59.6158 87.0884 59.6297 87.1028C59.6425 87.1183 59.6513 87.1367 59.6551 87.1564C59.6589 87.1761 59.6577 87.1965 59.6516 87.2156C59.6368 87.2712 59.6033 87.32 59.5567 87.3539L57.6172 89.0383C57.5772 89.079 57.5243 89.1047 57.4675 89.1111Z" fill="white"/>
<path d="M38.8438 107.015C38.7909 107.021 38.7373 107.011 38.6904 106.986L36.74 106.087L38.0841 107.619C38.0969 107.634 38.106 107.651 38.1104 107.67C38.1149 107.689 38.1146 107.709 38.1096 107.728C38.0985 107.77 38.0742 107.807 38.0403 107.833C38.0087 107.864 37.9675 107.884 37.9234 107.888C37.9043 107.891 37.8848 107.889 37.8668 107.882C37.8489 107.875 37.8331 107.863 37.8211 107.848L36.3601 106.182C36.3369 106.156 36.3199 106.125 36.3105 106.092C36.301 106.058 36.2992 106.023 36.3053 105.989C36.3152 105.917 36.3516 105.85 36.4076 105.803C36.4559 105.761 36.5157 105.735 36.5793 105.727C36.6523 105.72 36.7258 105.734 36.7911 105.767L38.6721 106.629L38.0731 104.65C38.0522 104.581 38.0522 104.508 38.0731 104.439C38.089 104.378 38.1235 104.323 38.1717 104.283C38.2256 104.233 38.296 104.206 38.369 104.206C38.4042 104.204 38.4394 104.21 38.4718 104.224C38.5042 104.238 38.5328 104.259 38.5552 104.286L40.0162 105.952C40.03 105.967 40.0396 105.984 40.0441 106.004C40.0486 106.023 40.0478 106.043 40.0418 106.062C40.0308 106.102 40.0079 106.139 39.976 106.167C39.944 106.197 39.903 106.217 39.8592 106.222C39.8396 106.225 39.8195 106.222 39.801 106.215C39.7825 106.208 39.766 106.197 39.7532 106.182L38.4128 104.646L39.041 106.691C39.0552 106.742 39.0552 106.796 39.041 106.847C39.03 106.892 39.0058 106.933 38.9716 106.964C38.9364 106.995 38.8911 107.013 38.8438 107.015Z" fill="white"/>
<path d="M40.6224 105.556C40.5975 105.555 40.5731 105.549 40.5509 105.538C40.5288 105.526 40.5095 105.51 40.4946 105.49L38.9752 103.755C38.9578 103.738 38.9447 103.716 38.9371 103.693C38.9295 103.67 38.9275 103.645 38.9313 103.62C38.9326 103.596 38.9392 103.572 38.9505 103.55C38.9618 103.528 38.9777 103.508 38.9971 103.493L39.6107 102.958C39.6811 102.896 39.7556 102.839 39.8335 102.787C39.9065 102.737 39.985 102.696 40.0673 102.664C40.1441 102.632 40.2255 102.614 40.3083 102.609C40.3904 102.607 40.4717 102.625 40.5457 102.66C40.6324 102.704 40.7094 102.764 40.7722 102.838C40.8703 102.944 40.925 103.083 40.9256 103.227C40.9191 103.39 40.8558 103.546 40.7466 103.668C40.8697 103.597 41.0136 103.57 41.1541 103.593C41.2945 103.615 41.4228 103.685 41.5173 103.791L41.9556 104.192V104.21C41.9706 104.226 41.9819 104.246 41.9888 104.267C41.9958 104.289 41.9981 104.311 41.9958 104.333C41.989 104.38 41.9657 104.423 41.93 104.454C41.8938 104.486 41.8474 104.506 41.7985 104.508C41.7745 104.51 41.7502 104.507 41.7275 104.499C41.7047 104.491 41.6841 104.478 41.667 104.461L41.2799 104.097C41.2142 104.034 41.1433 103.977 41.068 103.926C41.0186 103.891 40.9606 103.869 40.9 103.864C40.8424 103.857 40.784 103.868 40.732 103.893C40.6633 103.935 40.5985 103.982 40.5384 104.035L40.0673 104.443L40.7539 105.228C40.7712 105.247 40.7841 105.269 40.7916 105.293C40.7992 105.317 40.8013 105.342 40.7977 105.367C40.7888 105.414 40.7644 105.458 40.7284 105.49C40.7007 105.523 40.6637 105.546 40.6224 105.556ZM40.3156 103.882C40.3654 103.841 40.4118 103.796 40.4544 103.748C40.4949 103.704 40.5316 103.656 40.564 103.606C40.5949 103.558 40.616 103.505 40.6261 103.449C40.6386 103.396 40.6386 103.34 40.6261 103.286C40.6054 103.222 40.5705 103.163 40.5238 103.115C40.4877 103.071 40.4445 103.034 40.396 103.006C40.3574 102.982 40.3133 102.97 40.2681 102.969C40.227 102.963 40.1852 102.963 40.144 102.969C40.0992 102.979 40.057 102.997 40.0198 103.024L39.9066 103.1L39.8006 103.187L39.3514 103.577L39.9175 104.228L40.3156 103.882Z" fill="white"/>
<path d="M45.4473 101.281C45.3944 101.287 45.341 101.277 45.2939 101.252L43.3471 100.35L44.6876 101.885C44.7014 101.899 44.711 101.917 44.7155 101.936C44.72 101.955 44.7192 101.975 44.7132 101.994C44.7034 102.036 44.6788 102.074 44.6438 102.1C44.6127 102.129 44.5731 102.148 44.5305 102.154C44.511 102.156 44.4911 102.154 44.4727 102.147C44.4543 102.14 44.4378 102.129 44.4246 102.114L42.9636 100.444C42.9403 100.419 42.9231 100.389 42.9136 100.356C42.9041 100.323 42.9025 100.289 42.9089 100.255C42.9173 100.182 42.954 100.116 43.0111 100.069C43.0571 100.026 43.1162 99.9992 43.1791 99.9931C43.2522 99.9849 43.326 99.9988 43.391 100.033L45.2756 100.895L44.6766 98.9161C44.6557 98.8473 44.6557 98.7739 44.6766 98.7051C44.6896 98.6437 44.7231 98.5886 44.7716 98.5487C44.8266 98.499 44.8983 98.4717 44.9725 98.4723C45.0071 98.47 45.0419 98.476 45.0737 98.49C45.1055 98.5039 45.1334 98.5253 45.1551 98.5523L46.6161 100.219C46.6289 100.233 46.638 100.251 46.6424 100.27C46.6469 100.289 46.6466 100.309 46.6417 100.328C46.6305 100.369 46.6062 100.406 46.5723 100.433C46.5407 100.464 46.4995 100.484 46.4554 100.488C46.4364 100.49 46.4172 100.487 46.3994 100.48C46.3816 100.473 46.3658 100.462 46.3531 100.448L45.009 98.9125L45.6409 100.957C45.6552 101.008 45.6552 101.062 45.6409 101.114C45.6327 101.159 45.6096 101.2 45.5751 101.23C45.539 101.26 45.4942 101.278 45.4473 101.281Z" fill="white"/>
<path d="M46.4663 99.3636C46.4509 99.3626 46.4359 99.3585 46.4221 99.3516C46.4083 99.3448 46.396 99.3352 46.3859 99.3236C46.3736 99.3106 46.3643 99.2951 46.3587 99.2781C46.353 99.2611 46.3511 99.2432 46.353 99.2254C46.3594 99.1865 46.3803 99.1514 46.4115 99.1272L47.0397 98.5814C47.0529 98.5666 47.0693 98.555 47.0876 98.5475C47.106 98.5399 47.1258 98.5366 47.1456 98.5378C47.1636 98.5376 47.1814 98.5412 47.1978 98.5486C47.2142 98.5559 47.2288 98.5667 47.2406 98.5802C47.2524 98.5936 47.2611 98.6095 47.2662 98.6267C47.2712 98.6439 47.2725 98.662 47.2698 98.6797C47.2626 98.7172 47.2418 98.7509 47.2114 98.7742L46.5832 99.32C46.5504 99.3475 46.5091 99.3629 46.4663 99.3636Z" fill="white"/>
<path d="M52.0547 95.5471C52.0019 95.5517 51.9488 95.5416 51.9013 95.518L49.9509 94.6157L51.295 96.1511C51.3082 96.1657 51.3174 96.1833 51.3219 96.2024C51.3263 96.2215 51.3259 96.2414 51.3206 96.2602C51.3086 96.3015 51.2844 96.3383 51.2512 96.3657C51.2178 96.394 51.1775 96.4129 51.1343 96.4203C51.1149 96.4224 51.0953 96.4195 51.0774 96.4119C51.0595 96.4042 51.0439 96.3921 51.032 96.3766L49.5711 94.7103C49.5479 94.6844 49.5309 94.6536 49.5214 94.6202C49.5119 94.5868 49.5102 94.5517 49.5163 94.5175C49.5265 94.4502 49.5591 94.3883 49.6087 94.3415C49.6583 94.2947 49.7222 94.2657 49.7902 94.2592C49.8629 94.2499 49.9367 94.2626 50.002 94.2956L51.8831 95.1578L51.2841 93.1823C51.2631 93.1135 51.2631 93.0401 51.2841 92.9713C51.3008 92.9051 51.3387 92.8462 51.3921 92.8035C51.4455 92.7608 51.5115 92.7367 51.5799 92.7348C51.615 92.7333 51.65 92.7398 51.6822 92.7536C51.7145 92.7675 51.7432 92.7884 51.7662 92.8148L53.2272 94.4848C53.2413 94.4987 53.2512 94.5164 53.2557 94.5357C53.2602 94.555 53.2592 94.5752 53.2527 94.5939C53.2417 94.6348 53.2189 94.6715 53.187 94.6994C53.1532 94.727 53.113 94.7458 53.0701 94.754C53.0502 94.7561 53.0301 94.7531 53.0116 94.7455C52.9931 94.7379 52.9768 94.7258 52.9642 94.7103L51.6237 93.1786L52.252 95.2233C52.2663 95.2745 52.2663 95.3286 52.252 95.3798C52.24 95.4242 52.216 95.4645 52.1826 95.4962C52.1463 95.526 52.1016 95.5438 52.0547 95.5471Z" fill="white"/>
<path d="M54.4214 93.5898C54.4021 93.5878 54.3834 93.582 54.3665 93.5726C54.3495 93.5632 54.3346 93.5505 54.3228 93.5352L53.8991 93.0513L53.3878 93.4915C53.3596 93.5167 53.3233 93.5309 53.2855 93.5315C53.2668 93.5321 53.2483 93.5285 53.2312 93.521C53.2141 93.5134 53.199 93.5021 53.1869 93.4879C53.1745 93.4743 53.1655 93.458 53.1604 93.4403C53.1553 93.4227 53.1544 93.4041 53.1577 93.386C53.1597 93.3673 53.1656 93.3492 53.175 93.3329C53.1844 93.3167 53.1972 93.3025 53.2125 93.2914L53.7202 92.8476L53.2928 92.3564C53.2792 92.3435 53.2684 92.328 53.261 92.3108C53.2536 92.2936 53.2498 92.2751 53.2498 92.2563C53.2498 92.2376 53.2536 92.2191 53.261 92.2019C53.2684 92.1847 53.2792 92.1692 53.2928 92.1563C53.3067 92.1442 53.323 92.135 53.3406 92.1294C53.3581 92.1237 53.3767 92.1218 53.3951 92.1236C53.4332 92.1277 53.4684 92.1458 53.4937 92.1745L53.9247 92.6656L54.4324 92.2218C54.4618 92.1987 54.4973 92.1848 54.5346 92.1818C54.5533 92.1812 54.5719 92.1848 54.589 92.1924C54.606 92.1999 54.6212 92.2112 54.6333 92.2254C54.6459 92.2389 54.6551 92.2551 54.6602 92.2729C54.6653 92.2906 54.6661 92.3092 54.6625 92.3273C54.6574 92.365 54.6393 92.3997 54.6114 92.4255L54.1 92.8694L54.5273 93.3533C54.5393 93.3672 54.5484 93.3834 54.5541 93.4009C54.5597 93.4184 54.5618 93.4368 54.5602 93.4551C54.5608 93.4737 54.5572 93.4922 54.5496 93.5093C54.542 93.5263 54.5306 93.5414 54.5164 93.5534C54.4903 93.5767 54.4565 93.5897 54.4214 93.5898Z" fill="white"/>
<path d="M46.1851 89.1148L47.9382 89.4895L47.4269 87.0919L48.3254 86.3097" stroke="white" stroke-miterlimit="10"/>
<path d="M135.747 43.3713H58.8298V148.818H135.747V43.3713Z" fill="white" stroke="#151116" stroke-miterlimit="10" stroke-linecap="round"/>
<path d="M105.589 43.3713H58.8298V73.9834H105.589V43.3713Z" fill="#FF522F" stroke="#151116" stroke-miterlimit="10" stroke-linecap="round"/>
<path d="M124.797 86.1169H131.495" stroke="#151116" stroke-miterlimit="10" stroke-linecap="round"/>
<path d="M114.417 86.1169H123.679" stroke="#151116" stroke-miterlimit="10" stroke-linecap="round"/>
<path d="M95.2192 86.1169H112.853" stroke="#151116" stroke-miterlimit="10" stroke-linecap="round"/>
<path d="M69.8823 86.1169H94.1017" stroke="#151116" stroke-miterlimit="10" stroke-linecap="round"/>
<path d="M63.4868 86.1169H68.5418" stroke="#151116" stroke-miterlimit="10" stroke-linecap="round"/>
<path d="M116.425 91.1558H131.495" stroke="#151116" stroke-miterlimit="10" stroke-linecap="round"/>
<path d="M88.5208 91.1558H115.085" stroke="#151116" stroke-miterlimit="10" stroke-linecap="round"/>
<path d="M75.9087 91.1558H86.7346" stroke="#151116" stroke-miterlimit="10" stroke-linecap="round"/>
<path d="M63.4868 91.1558H74.1227" stroke="#151116" stroke-miterlimit="10" stroke-linecap="round"/>
<path d="M98.9009 96.1947H131.495" stroke="#151116" stroke-miterlimit="10" stroke-linecap="round"/>
<path d="M86.4023 96.1947H97.2903" stroke="#151116" stroke-miterlimit="10" stroke-linecap="round"/>
<path d="M70.4119 96.1947H85.3979" stroke="#151116" stroke-miterlimit="10" stroke-linecap="round"/>
<path d="M63.4868 96.1947H69.4367" stroke="#151116" stroke-miterlimit="10" stroke-linecap="round"/>
<path d="M131.09 100.23H63.0813V143.779H131.09V100.23Z" stroke="#151116" stroke-miterlimit="10" stroke-linecap="round"/>
<path d="M81.3801 108.496H130.889" stroke="#151116" stroke-miterlimit="10" stroke-linecap="round"/>
<path d="M63.2859 108.496H79.7037" stroke="#151116" stroke-miterlimit="10" stroke-linecap="round"/>
<path d="M63.2859 114.342H130.889" stroke="#151116" stroke-miterlimit="10" stroke-linecap="round"/>
<path d="M121.893 120.189H130.889" stroke="#151116" stroke-miterlimit="10" stroke-linecap="round"/>
<path d="M63.2859 120.189H121.115" stroke="#151116" stroke-miterlimit="10" stroke-linecap="round"/>
<path d="M90.9788 126.035H130.889" stroke="#151116" stroke-miterlimit="10" stroke-linecap="round"/>
<path d="M63.2859 126.035H89.9743" stroke="#151116" stroke-miterlimit="10" stroke-linecap="round"/>
<path d="M79.7036 131.882H130.889" stroke="#151116" stroke-miterlimit="10" stroke-linecap="round"/>
<path d="M63.2859 131.882H77.5852" stroke="#151116" stroke-miterlimit="10" stroke-linecap="round"/>
<path d="M92.2061 137.729H130.889" stroke="#151116" stroke-miterlimit="10" stroke-linecap="round"/>
<path d="M63.2859 137.729H90.8655" stroke="#151116" stroke-miterlimit="10" stroke-linecap="round"/>
<path d="M116.115 136.434V143.579" stroke="#151116" stroke-miterlimit="10" stroke-linecap="round"/>
<path d="M116.115 105.527V135.211" stroke="#151116" stroke-miterlimit="10" stroke-linecap="round"/>
<path d="M116.115 100.633V103.635" stroke="#151116" stroke-miterlimit="10" stroke-linecap="round"/>
</g>
<defs>
<clipPath id="clip0_1123_45368">
<rect width="161" height="149" fill="white"/>
</clipPath>
</defs>
</svg>
