<svg width="256" height="160" viewBox="0 0 256 160" fill="none" xmlns="http://www.w3.org/2000/svg">
<g clip-path="url(#clip0_1123_45796)">
<path d="M144.943 139.554C144.943 139.554 145.105 134.216 148.366 129.511C149.333 128.133 150.594 126.983 152.058 126.143C153.523 125.304 155.155 124.795 156.84 124.653C156.84 124.653 156.514 129.991 154.881 132.589C153.249 135.187 144.943 139.554 144.943 139.554Z" stroke="#B2B2B2" stroke-opacity="0.5" stroke-miterlimit="10"/>
<path d="M144.943 139.554L150.646 131.458" stroke="#B2B2B2" stroke-opacity="0.5" stroke-linecap="round" stroke-linejoin="round"/>
<path d="M145.226 140.522C145.226 140.522 150.22 138.529 155.855 139.618C157.514 139.947 159.08 140.635 160.441 141.633C161.802 142.632 162.926 143.916 163.731 145.394C163.731 145.394 158.673 147.234 155.633 146.789C152.594 146.345 145.226 140.522 145.226 140.522Z" stroke="#B2B2B2" stroke-opacity="0.5" stroke-miterlimit="10"/>
<path d="M145.226 140.522L154.975 142.476" stroke="#B2B2B2" stroke-opacity="0.5" stroke-linecap="round" stroke-linejoin="round"/>
<path d="M133.735 140.942C133.735 140.942 134.576 135.657 138.406 131.408C139.541 130.163 140.938 129.18 142.497 128.531C144.056 127.882 145.739 127.581 147.428 127.65C147.428 127.65 146.426 132.913 144.482 135.28C142.538 137.647 133.735 140.942 133.735 140.942Z" stroke="#B2B2B2" stroke-opacity="0.5" stroke-miterlimit="10"/>
<path d="M133.735 140.942L140.422 133.621" stroke="#B2B2B2" stroke-opacity="0.5" stroke-linecap="round" stroke-linejoin="round"/>
<path d="M133.892 141.935C133.892 141.935 139.097 140.586 144.55 142.373C146.15 142.91 147.611 143.791 148.831 144.952C150.051 146.113 151 147.526 151.609 149.092C151.609 149.092 146.358 150.284 143.397 149.448C140.436 148.612 133.892 141.935 133.892 141.935Z" stroke="#B2B2B2" stroke-opacity="0.5" stroke-miterlimit="10"/>
<path d="M133.892 141.935L143.315 145.099" stroke="#B2B2B2" stroke-opacity="0.5" stroke-linecap="round" stroke-linejoin="round"/>
<path d="M158.168 133.579C158.168 133.579 156.836 128.397 158.658 122.987C159.205 121.396 160.098 119.943 161.274 118.733C162.45 117.523 163.879 116.586 165.46 115.987C165.46 115.987 166.635 121.212 165.79 124.151C164.945 127.091 158.168 133.579 158.168 133.579Z" stroke="#B2B2B2" stroke-opacity="0.5" stroke-miterlimit="10"/>
<path d="M158.168 133.579L161.394 124.226" stroke="#B2B2B2" stroke-opacity="0.5" stroke-linecap="round" stroke-linejoin="round"/>
<path d="M158.411 134.365C158.411 134.365 163.405 132.376 169.04 133.465C170.699 133.792 172.265 134.48 173.626 135.477C174.988 136.475 176.111 137.759 176.916 139.237C176.916 139.237 171.858 141.081 168.818 140.632C165.779 140.184 158.411 134.365 158.411 134.365Z" stroke="#B2B2B2" stroke-opacity="0.5" stroke-miterlimit="10"/>
<path d="M158.426 134.366L168.174 136.319" stroke="#B2B2B2" stroke-opacity="0.5" stroke-linecap="round" stroke-linejoin="round"/>
<path d="M168.228 130.02C168.228 130.02 166.108 125.105 167.068 119.482C167.36 117.827 168.016 116.255 168.987 114.88C169.958 113.504 171.222 112.357 172.688 111.521C172.688 111.521 174.661 116.503 174.285 119.535C173.909 122.568 168.228 130.02 168.228 130.02Z" stroke="#B2B2B2" stroke-opacity="0.5" stroke-miterlimit="10"/>
<path d="M168.228 130.02L169.964 120.286" stroke="#B2B2B2" stroke-opacity="0.5" stroke-linecap="round" stroke-linejoin="round"/>
<path d="M168.897 130.781C168.897 130.781 172.577 126.867 178.148 125.507C179.791 125.11 181.501 125.078 183.158 125.412C184.815 125.746 186.377 126.438 187.735 127.44C187.735 127.44 183.933 131.233 180.983 132.102C178.033 132.97 168.897 130.781 168.897 130.781Z" stroke="#B2B2B2" stroke-opacity="0.5" stroke-miterlimit="10"/>
<path d="M168.897 130.778L178.563 128.461" stroke="#B2B2B2" stroke-opacity="0.5" stroke-linecap="round" stroke-linejoin="round"/>
<path d="M176.97 121.813C176.97 121.813 174.464 117.08 174.987 111.396C175.148 109.723 175.677 108.106 176.537 106.659C177.397 105.212 178.567 103.97 179.963 103.022C179.963 103.022 182.322 107.837 182.182 110.891C182.043 113.944 176.97 121.813 176.97 121.813Z" stroke="#B2B2B2" stroke-opacity="0.5" stroke-miterlimit="10"/>
<path d="M176.97 121.813L177.933 111.973" stroke="#B2B2B2" stroke-opacity="0.5" stroke-linecap="round" stroke-linejoin="round"/>
<path d="M177.693 122.518C177.693 122.518 181.058 118.343 186.503 116.539C188.11 116.016 189.812 115.851 191.49 116.055C193.168 116.26 194.78 116.828 196.212 117.721C196.212 117.721 192.718 121.799 189.851 122.895C186.983 123.991 177.693 122.518 177.693 122.518Z" stroke="#B2B2B2" stroke-opacity="0.5" stroke-miterlimit="10"/>
<path d="M177.693 122.518L187.151 119.457" stroke="#B2B2B2" stroke-opacity="0.5" stroke-linecap="round" stroke-linejoin="round"/>
<path d="M184.631 111.77C184.631 111.77 181.452 107.457 181.112 101.759C181.022 100.081 181.305 98.4037 181.941 96.8464C182.576 95.2891 183.548 93.8899 184.789 92.7479C184.789 92.7479 187.839 97.1609 188.157 100.2C188.476 103.239 184.631 111.77 184.631 111.77Z" stroke="#B2B2B2" stroke-opacity="0.5" stroke-miterlimit="10"/>
<path d="M184.631 111.77L184.116 101.898" stroke="#B2B2B2" stroke-opacity="0.5" stroke-linecap="round" stroke-linejoin="round"/>
<path d="M185.451 112.361C185.451 112.361 188.154 107.734 193.273 105.151C194.784 104.397 196.443 103.983 198.132 103.937C199.822 103.892 201.501 104.216 203.05 104.887C203.05 104.887 200.186 109.436 197.526 110.937C194.866 112.439 185.451 112.361 185.451 112.361Z" stroke="#B2B2B2" stroke-opacity="0.5" stroke-miterlimit="10"/>
<path d="M185.451 112.361L194.347 107.937" stroke="#B2B2B2" stroke-opacity="0.5" stroke-linecap="round" stroke-linejoin="round"/>
<path d="M190.438 99.1751C190.438 99.1751 186.428 95.6162 184.91 90.1035C184.473 88.4801 184.401 86.7811 184.698 85.1267C184.995 83.4723 185.654 81.9031 186.629 80.5301C186.629 80.5301 190.531 84.2207 191.476 87.1283C192.421 90.0359 190.438 99.1751 190.438 99.1751Z" stroke="#B2B2B2" stroke-opacity="0.5" stroke-miterlimit="10"/>
<path d="M190.438 99.1749L187.878 89.6229" stroke="#B2B2B2" stroke-opacity="0.5" stroke-linecap="round" stroke-linejoin="round"/>
<path d="M191.365 99.5811C191.365 99.5811 193.048 94.5025 197.512 90.9187C198.833 89.8696 200.37 89.1223 202.013 88.7299C203.657 88.3375 205.368 88.3096 207.024 88.6482C207.024 88.6482 205.187 93.684 202.882 95.709C200.576 97.734 191.365 99.5811 191.365 99.5811Z" stroke="#B2B2B2" stroke-opacity="0.5" stroke-miterlimit="10"/>
<path d="M191.365 99.581L199.144 93.4241" stroke="#B2B2B2" stroke-opacity="0.5" stroke-linecap="round" stroke-linejoin="round"/>
<path d="M193.044 86.0535C193.044 86.0535 188.773 82.8043 186.836 77.4303C186.276 75.8448 186.073 74.1561 186.242 72.4839C186.411 70.8118 186.947 69.1969 187.814 67.7537C187.814 67.7537 191.988 71.1382 193.155 73.964C194.322 76.7897 193.044 86.0535 193.044 86.0535Z" stroke="#B2B2B2" stroke-opacity="0.5" stroke-miterlimit="10"/>
<path d="M193.044 86.0534L189.758 76.722" stroke="#B2B2B2" stroke-opacity="0.5" stroke-linecap="round" stroke-linejoin="round"/>
<path d="M194 86.3879C194 86.3879 195.285 81.1955 199.463 77.2807C200.7 76.1359 202.175 75.2754 203.783 74.7601C205.392 74.2447 207.094 74.0871 208.771 74.2984C208.771 74.2984 207.339 79.4552 205.191 81.651C203.043 83.8469 194 86.3879 194 86.3879Z" stroke="#B2B2B2" stroke-opacity="0.5" stroke-miterlimit="10"/>
<path d="M194 86.3879L201.285 79.658" stroke="#B2B2B2" stroke-opacity="0.5" stroke-linecap="round" stroke-linejoin="round"/>
<path d="M193.853 71.4444C193.853 71.4444 188.888 69.391 185.619 64.6825C184.667 63.2921 184.035 61.7104 183.767 60.0498C183.499 58.3891 183.602 56.6902 184.069 55.0736C184.069 55.0736 188.977 57.2801 190.835 59.7179C192.693 62.1557 193.853 71.4444 193.853 71.4444Z" stroke="#B2B2B2" stroke-opacity="0.5" stroke-miterlimit="10"/>
<path d="M193.85 71.4444L188.268 63.2625" stroke="#B2B2B2" stroke-opacity="0.5" stroke-linecap="round" stroke-linejoin="round"/>
<path d="M194.859 71.5262C194.859 71.5262 194.766 66.1879 197.795 61.33C198.695 59.9069 199.9 58.6983 201.323 57.7898C202.746 56.8814 204.352 56.2954 206.029 56.0736C206.029 56.0736 205.961 61.4119 204.457 64.0953C202.954 66.7787 194.859 71.5262 194.859 71.5262Z" stroke="#B2B2B2" stroke-opacity="0.5" stroke-miterlimit="10"/>
<path d="M194.859 71.5262L200.165 63.1663" stroke="#B2B2B2" stroke-opacity="0.5" stroke-linecap="round" stroke-linejoin="round"/>
<path d="M190.803 57.337C190.803 57.337 185.54 56.2302 181.466 52.2122C180.272 51.0223 179.356 49.5858 178.783 48.0045C178.21 46.4231 177.995 44.7358 178.151 43.0623C178.151 43.0623 183.389 44.3257 185.669 46.3792C187.95 48.4327 190.803 57.337 190.803 57.337Z" stroke="#B2B2B2" stroke-opacity="0.5" stroke-miterlimit="10"/>
<path d="M190.803 57.3366L183.793 50.3221" stroke="#B2B2B2" stroke-opacity="0.5" stroke-linecap="round" stroke-linejoin="round"/>
<path d="M191.809 57.2303C191.809 57.2303 190.735 51.9916 192.797 46.6711C193.416 45.1072 194.375 43.698 195.603 42.5436C196.832 41.3891 198.301 40.5176 199.907 39.991C199.907 39.991 200.834 45.2689 199.853 48.1765C198.872 51.0841 191.809 57.2303 191.809 57.2303Z" stroke="#B2B2B2" stroke-opacity="0.5" stroke-miterlimit="10"/>
<path d="M191.809 57.23L195.468 48.0374" stroke="#B2B2B2" stroke-opacity="0.5" stroke-linecap="round" stroke-linejoin="round"/>
<path d="M184.449 43.2329C184.449 43.2329 179.079 43.1368 174.303 39.9516C172.905 39.0069 171.733 37.768 170.87 36.3226C170.008 34.8772 169.476 33.2609 169.312 31.5882C169.312 31.5882 174.682 31.848 177.321 33.4353C179.959 35.0225 184.449 43.2329 184.449 43.2329Z" stroke="#B2B2B2" stroke-opacity="0.5" stroke-miterlimit="10"/>
<path d="M184.449 43.2438L176.233 37.6741" stroke="#B2B2B2" stroke-opacity="0.5" stroke-linecap="round" stroke-linejoin="round"/>
<path d="M185.415 42.9485C185.415 42.9485 183.353 38.0123 184.377 32.3964C184.69 30.7432 185.365 29.1788 186.355 27.8146C187.345 26.4503 188.626 25.3195 190.105 24.5028C190.105 24.5028 192.02 29.5066 191.609 32.5352C191.197 35.5638 185.415 42.9485 185.415 42.9485Z" stroke="#B2B2B2" stroke-opacity="0.5" stroke-miterlimit="10"/>
<path d="M185.415 42.9483L187.262 33.2362" stroke="#B2B2B2" stroke-opacity="0.5" stroke-linecap="round" stroke-linejoin="round"/>
<path d="M110.368 139.554C110.368 139.554 110.203 134.216 106.946 129.511C105.978 128.133 104.718 126.983 103.253 126.143C101.789 125.304 100.156 124.795 98.4718 124.653C98.4718 124.653 98.7976 129.991 100.426 132.589C102.055 135.187 110.368 139.554 110.368 139.554Z" stroke="#B2B2B2" stroke-opacity="0.5" stroke-miterlimit="10"/>
<path d="M110.368 139.554L104.665 131.458" stroke="#B2B2B2" stroke-opacity="0.5" stroke-linecap="round" stroke-linejoin="round"/>
<path d="M110.082 140.522C110.082 140.522 105.088 138.529 99.4527 139.618C97.7942 139.948 96.2288 140.636 94.8677 141.634C93.5066 142.633 92.3831 143.916 91.5768 145.394C91.5768 145.394 96.6425 147.234 99.6998 146.797C102.757 146.359 110.082 140.522 110.082 140.522Z" stroke="#B2B2B2" stroke-opacity="0.5" stroke-miterlimit="10"/>
<path d="M110.085 140.522L100.333 142.476" stroke="#B2B2B2" stroke-opacity="0.5" stroke-linecap="round" stroke-linejoin="round"/>
<path d="M121.577 140.942C121.577 140.942 120.736 135.657 116.905 131.408C115.77 130.162 114.373 129.18 112.813 128.531C111.254 127.881 109.569 127.58 107.88 127.65C107.88 127.65 108.886 132.913 110.83 135.28C112.774 137.647 121.577 140.942 121.577 140.942Z" stroke="#B2B2B2" stroke-opacity="0.5" stroke-miterlimit="10"/>
<path d="M121.577 140.942L114.89 133.621" stroke="#B2B2B2" stroke-opacity="0.5" stroke-linecap="round" stroke-linejoin="round"/>
<path d="M121.419 141.935C121.419 141.935 116.211 140.586 110.762 142.373C109.159 142.909 107.695 143.788 106.472 144.949C105.25 146.111 104.299 147.525 103.688 149.092C103.688 149.092 108.94 150.284 111.897 149.448C114.854 148.612 121.419 141.935 121.419 141.935Z" stroke="#B2B2B2" stroke-opacity="0.5" stroke-miterlimit="10"/>
<path d="M121.419 141.935L111.997 145.099" stroke="#B2B2B2" stroke-opacity="0.5" stroke-linecap="round" stroke-linejoin="round"/>
<path d="M97.1436 133.579C97.1436 133.579 98.4753 128.397 96.6495 122.987C96.1031 121.395 95.2103 119.942 94.0346 118.732C92.8589 117.522 91.4293 116.585 89.8476 115.987C89.8476 115.987 88.6733 121.212 89.5146 124.151C90.3559 127.091 97.1436 133.579 97.1436 133.579Z" stroke="#B2B2B2" stroke-opacity="0.5" stroke-miterlimit="10"/>
<path d="M97.1437 133.579L93.9181 124.226" stroke="#B2B2B2" stroke-opacity="0.5" stroke-linecap="round" stroke-linejoin="round"/>
<path d="M96.8859 134.365C96.8859 134.365 91.8918 132.376 86.2569 133.465C84.5984 133.793 83.033 134.481 81.6718 135.479C80.3106 136.476 79.1871 137.76 78.381 139.237C78.381 139.237 83.4395 141.081 86.4825 140.632C89.5255 140.184 96.8859 134.365 96.8859 134.365Z" stroke="#B2B2B2" stroke-opacity="0.5" stroke-miterlimit="10"/>
<path d="M96.8859 134.366L87.1376 136.319" stroke="#B2B2B2" stroke-opacity="0.5" stroke-linecap="round" stroke-linejoin="round"/>
<path d="M86.7688 129.714C86.7688 129.714 88.8918 124.799 87.9287 119.176C87.6382 117.52 86.9843 115.947 86.0135 114.57C85.0428 113.193 83.7789 112.045 82.3118 111.208C82.3118 111.208 80.3356 116.19 80.7258 119.23C81.116 122.269 86.7688 129.714 86.7688 129.714Z" stroke="#B2B2B2" stroke-opacity="0.5" stroke-miterlimit="10"/>
<path d="M86.7688 129.71L85.0361 119.977" stroke="#B2B2B2" stroke-opacity="0.5" stroke-linecap="round" stroke-linejoin="round"/>
<path d="M86.0958 130.468C86.0958 130.468 82.4156 126.553 76.8451 125.194C75.2023 124.797 73.4918 124.764 71.835 125.098C70.1781 125.432 68.6154 126.125 67.2579 127.126C67.2579 127.126 71.0599 130.92 74.0134 131.789C76.9668 132.657 86.0958 130.468 86.0958 130.468Z" stroke="#B2B2B2" stroke-opacity="0.5" stroke-miterlimit="10"/>
<path d="M86.103 130.469L76.437 128.152" stroke="#B2B2B2" stroke-opacity="0.5" stroke-linecap="round" stroke-linejoin="round"/>
<path d="M78.0266 121.504C78.0266 121.504 80.5326 116.77 80.0135 111.087C79.8523 109.414 79.323 107.796 78.4631 106.349C77.6031 104.902 76.4336 103.661 75.0373 102.713C75.0373 102.713 72.6781 107.528 72.8141 110.581C72.9502 113.635 78.0266 121.504 78.0266 121.504Z" stroke="#B2B2B2" stroke-opacity="0.5" stroke-miterlimit="10"/>
<path d="M78.0266 121.504L77.0671 111.663" stroke="#B2B2B2" stroke-opacity="0.5" stroke-linecap="round" stroke-linejoin="round"/>
<path d="M77.3034 122.208C77.3034 122.208 73.9418 118.033 68.4931 116.229C66.8866 115.706 65.1841 115.541 63.5063 115.745C61.8285 115.95 60.2164 116.518 58.7842 117.411C58.7842 117.411 62.2782 121.489 65.1494 122.596C68.0205 123.703 77.3034 122.208 77.3034 122.208Z" stroke="#B2B2B2" stroke-opacity="0.5" stroke-miterlimit="10"/>
<path d="M77.3034 122.208L67.8486 119.148" stroke="#B2B2B2" stroke-opacity="0.5" stroke-linecap="round" stroke-linejoin="round"/>
<path d="M70.369 111.461C70.369 111.461 73.548 107.147 73.8846 101.449C73.975 99.7715 73.6928 98.0943 73.058 96.537C72.4233 94.9797 71.4514 93.5803 70.2115 92.4383C70.2115 92.4383 67.1614 96.8513 66.8427 99.8906C66.5241 102.93 70.369 111.461 70.369 111.461Z" stroke="#B2B2B2" stroke-opacity="0.5" stroke-miterlimit="10"/>
<path d="M70.3689 111.461L70.8844 101.588" stroke="#B2B2B2" stroke-opacity="0.5" stroke-linecap="round" stroke-linejoin="round"/>
<path d="M69.5491 112.051C69.5491 112.051 66.8427 107.425 61.7269 104.841C60.2162 104.087 58.5572 103.673 56.8675 103.628C55.1779 103.584 53.499 103.909 51.95 104.581C51.95 104.581 54.8139 109.126 57.4703 110.631C60.1266 112.137 69.5491 112.051 69.5491 112.051Z" stroke="#B2B2B2" stroke-opacity="0.5" stroke-miterlimit="10"/>
<path d="M69.5492 112.051L60.653 107.627" stroke="#B2B2B2" stroke-opacity="0.5" stroke-linecap="round" stroke-linejoin="round"/>
<path d="M64.5622 98.8655C64.5622 98.8655 68.5718 95.3066 70.0861 89.7939C70.5241 88.1708 70.5975 86.4718 70.3012 84.8174C70.0048 83.1629 69.346 81.5936 68.3713 80.2205C68.3713 80.2205 64.4656 83.9111 63.5204 86.8187C62.5753 89.7263 64.5622 98.8655 64.5622 98.8655Z" stroke="#B2B2B2" stroke-opacity="0.5" stroke-miterlimit="10"/>
<path d="M64.5623 98.8654L67.1219 89.3133" stroke="#B2B2B2" stroke-opacity="0.5" stroke-linecap="round" stroke-linejoin="round"/>
<path d="M63.6351 99.2711C63.6351 99.2711 61.9525 94.1925 57.4882 90.6087C56.1668 89.5595 54.6293 88.8122 52.9848 88.4198C51.3404 88.0274 49.6292 87.9996 47.9727 88.3382C47.9727 88.3382 49.8128 93.374 52.1147 95.399C54.4166 97.424 63.6351 99.2711 63.6351 99.2711Z" stroke="#B2B2B2" stroke-opacity="0.5" stroke-miterlimit="10"/>
<path d="M63.635 99.2714L55.8557 93.1146" stroke="#B2B2B2" stroke-opacity="0.5" stroke-linecap="round" stroke-linejoin="round"/>
<path d="M61.9524 85.7439C61.9524 85.7439 66.2269 82.4946 68.1601 77.1207C68.7234 75.534 68.9282 73.8434 68.7599 72.1691C68.5916 70.4948 68.0543 68.878 67.1864 67.4334C67.1864 67.4334 63.0085 70.8179 61.845 73.6437C60.6815 76.4694 61.9524 85.7439 61.9524 85.7439Z" stroke="#B2B2B2" stroke-opacity="0.5" stroke-miterlimit="10"/>
<path d="M61.9524 85.7438L65.2424 76.4124" stroke="#B2B2B2" stroke-opacity="0.5" stroke-linecap="round" stroke-linejoin="round"/>
<path d="M61.0002 86.0786C61.0002 86.0786 59.7114 80.8862 55.5335 76.975C54.2975 75.8288 52.8229 74.9671 51.2142 74.451C49.6056 73.935 47.9024 73.7773 46.2256 73.9891C46.2256 73.9891 47.6576 79.1459 49.8056 81.3418C51.9536 83.5376 61.0002 86.0786 61.0002 86.0786Z" stroke="#B2B2B2" stroke-opacity="0.5" stroke-miterlimit="10"/>
<path d="M61.0001 86.0783L53.7148 79.3485" stroke="#B2B2B2" stroke-opacity="0.5" stroke-linecap="round" stroke-linejoin="round"/>
<path d="M61.1505 71.1349C61.1505 71.1349 66.1159 69.0814 69.3845 64.373C70.3374 62.983 70.9706 61.4015 71.2392 59.7407C71.5077 58.08 71.4049 56.3808 70.9382 54.764C70.9382 54.764 66.03 56.9705 64.172 59.4083C62.314 61.8462 61.1505 71.1349 61.1505 71.1349Z" stroke="#B2B2B2" stroke-opacity="0.5" stroke-miterlimit="10"/>
<path d="M61.1505 71.1348L66.7317 62.9529" stroke="#B2B2B2" stroke-opacity="0.5" stroke-linecap="round" stroke-linejoin="round"/>
<path d="M60.141 71.2167C60.141 71.2167 60.234 65.8783 57.2054 61.0205C56.305 59.5973 55.1005 58.3887 53.6775 57.4803C52.2545 56.5718 50.6478 55.9859 48.9714 55.764C48.9714 55.764 49.0395 61.1023 50.543 63.7857C52.0466 66.4691 60.141 71.2167 60.141 71.2167Z" stroke="#B2B2B2" stroke-opacity="0.5" stroke-miterlimit="10"/>
<path d="M60.141 71.2166L54.8319 62.8568" stroke="#B2B2B2" stroke-opacity="0.5" stroke-linecap="round" stroke-linejoin="round"/>
<path d="M64.197 57.0275C64.197 57.0275 69.4596 55.9206 73.5336 51.9027C74.7269 50.7123 75.6421 49.2756 76.2144 47.6943C76.7866 46.1131 77.002 44.426 76.8451 42.7528C76.8451 42.7528 71.6112 44.0162 69.3271 46.0696C67.0431 48.1231 64.197 57.0275 64.197 57.0275Z" stroke="#B2B2B2" stroke-opacity="0.5" stroke-miterlimit="10"/>
<path d="M64.197 57.0271L71.2066 50.0125" stroke="#B2B2B2" stroke-opacity="0.5" stroke-linecap="round" stroke-linejoin="round"/>
<path d="M63.1839 56.9205C63.1839 56.9205 64.2579 51.6818 62.1959 46.3613C61.5774 44.7972 60.6206 43.3875 59.3932 42.2319C58.1658 41.0762 56.6978 40.2031 55.0932 39.6741C55.0932 39.6741 54.1624 44.952 55.1433 47.8596C56.1242 50.7672 63.1839 56.9205 63.1839 56.9205Z" stroke="#B2B2B2" stroke-opacity="0.5" stroke-miterlimit="10"/>
<path d="M63.1911 56.9205L59.5288 47.7279" stroke="#B2B2B2" stroke-opacity="0.5" stroke-linecap="round" stroke-linejoin="round"/>
<path d="M70.5515 42.9341C70.5515 42.9341 75.9215 42.838 80.6936 39.6528C82.0952 38.7098 83.2708 37.4716 84.137 36.0262C85.0032 34.5809 85.5387 32.9636 85.7056 31.2894C85.7056 31.2894 80.3356 31.5492 77.6971 33.1364C75.0587 34.7237 70.5515 42.9341 70.5515 42.9341Z" stroke="#B2B2B2" stroke-opacity="0.5" stroke-miterlimit="10"/>
<path d="M70.5515 42.9342L78.7676 37.3646" stroke="#B2B2B2" stroke-opacity="0.5" stroke-linecap="round" stroke-linejoin="round"/>
<path d="M69.5814 42.642C69.5814 42.642 71.647 37.7022 70.6196 32.0863C70.3085 30.4347 69.6358 28.8714 68.649 27.5072C67.6622 26.1431 66.3855 25.0115 64.9095 24.1927C64.9095 24.1927 62.9942 29.1965 63.4059 32.2251C63.8176 35.2537 69.5814 42.642 69.5814 42.642Z" stroke="#B2B2B2" stroke-opacity="0.5" stroke-miterlimit="10"/>
<path d="M69.5814 42.6424L67.7377 32.9266" stroke="#B2B2B2" stroke-opacity="0.5" stroke-linecap="round" stroke-linejoin="round"/>
<path d="M131.114 45.8203C130.068 45.2036 128.937 44.7432 127.756 44.4537C126.883 44.2129 125.989 44.0603 125.085 43.9982L116.615 38.7631C116.615 38.7631 107.837 27.7625 106.312 26.0187C104.787 24.2748 103.487 22.9082 103.487 22.9082C103.487 22.9082 102.725 19.1892 102.113 18.8119C101.5 18.4347 97.9921 18.0539 97.6126 18.3564C97.2331 18.6589 97.763 23.5168 98.3751 24.1218C98.9873 24.7268 101.275 25.2606 101.658 25.4884C102.041 25.7162 110.891 39.9019 113.114 43.2401C115.337 46.5784 126.167 52.1943 129.6 53.4079L131.114 45.8203Z" fill="white"/>
<path opacity="0.21" d="M130.416 49.2831C130.199 49.0102 129.917 48.795 129.596 48.6567C127.616 47.8595 127.448 50.6782 127.448 50.6782C125.773 49.0126 121.341 46.7634 117.986 44.0088C114.868 41.4642 103.437 27.6379 101.851 25.7019C103.187 27.5739 111.038 40.1261 113.103 43.233C115.316 46.5712 126.156 52.1871 129.589 53.4007L130.416 49.2831Z" fill="black"/>
<path d="M131.114 45.8203C130.068 45.2036 128.937 44.7431 127.756 44.4537C126.883 44.2128 125.989 44.0602 125.085 43.9981L116.615 38.763C116.615 38.763 107.837 27.7625 106.312 26.0186C104.787 24.2748 103.487 22.9082 103.487 22.9082C103.487 22.9082 102.725 19.1891 102.113 18.8119C101.5 18.4346 97.9921 18.0538 97.6126 18.3564C97.2331 18.6589 97.763 23.5167 98.3751 24.1218C98.9873 24.7268 101.275 25.2606 101.658 25.4884C102.041 25.7161 110.891 39.9019 113.114 43.2401C115.337 46.5783 126.167 52.1942 129.6 53.4078L131.114 45.8203Z" stroke="#151116" stroke-linecap="round" stroke-linejoin="round"/>
<path d="M117.023 49.639C116.407 46.9271 111.975 47.0623 110.937 49.0304C109.899 50.9985 112.301 52.8953 112.301 52.8953C112.301 52.8953 112.405 53.7744 109.473 53.1658C106.541 52.5573 105.821 50.9273 105.821 50.9273C106.04 50.6281 106.18 50.2791 106.228 49.9123C106.276 49.5455 106.231 49.1726 106.097 48.8275C105.617 47.6745 103.026 47.3364 103.026 47.3364C103.026 47.3364 104.185 46.8595 103.777 44.895C103.369 42.9305 102.07 42.9269 101.253 41.9091C100.437 40.8912 100.197 38.731 100.197 38.731V11.1211C100.648 11.2528 101.221 11.3133 101.221 10.783C101.221 10.1709 100.401 9.0036 99.9002 8.35233C99.8577 8.29659 99.8022 8.25189 99.7386 8.22203C99.675 8.19217 99.605 8.17804 99.5347 8.18084C99.4644 8.18363 99.3958 8.20327 99.3348 8.23809C99.2738 8.2729 99.2221 8.32186 99.1842 8.3808C98.7259 9.09258 97.9706 10.3951 98.0171 10.9183C98.0565 11.3454 98.5935 11.2742 99.041 11.1496V38.852C99.041 38.852 99.041 40.8877 98.2212 41.9019C97.4014 42.9162 96.109 42.9198 95.7152 44.8879C95.3214 46.8559 96.4634 47.3292 96.4634 47.3292C96.4634 47.3292 93.8715 47.6673 93.3954 48.8204C93.26 49.165 93.214 49.5379 93.2615 49.9049C93.3091 50.2718 93.4487 50.6209 93.6674 50.9202C93.6674 50.9202 93.0553 52.6178 90.1197 53.2263C87.1841 53.8349 87.1877 52.8704 87.1877 52.8704C87.1877 52.8704 89.5755 50.97 88.5517 49.0055C87.5278 47.041 83.0958 46.9022 82.4836 49.6141C81.8714 52.3259 84.0516 55.0378 87.1877 55.4471C90.3237 55.8563 93.3273 54.6321 95.6472 52.4612C96.4312 51.728 97.1042 50.8881 97.9563 50.2262C100.237 48.4467 102.224 50.938 103.863 52.4612C106.183 54.6321 109.183 55.8528 112.319 55.4471C115.455 55.0414 117.635 52.3437 117.023 49.639Z" fill="#FFBD00" stroke="#151116" stroke-linecap="round" stroke-linejoin="round"/>
<path d="M96.4778 47.3293C97.1377 47.6399 97.8861 47.7117 98.5936 47.5321C99.6138 47.1762 100.23 45.4288 99.4098 44.6138C98.59 43.7988 97.3656 44.2757 97.0255 45.3612C96.6854 46.4467 97.1616 46.5143 97.7737 46.5143C97.9604 46.4689 98.1275 46.3653 98.2506 46.2187C98.3736 46.072 98.4462 45.89 98.4575 45.6993C98.5936 44.9555 97.9778 45.3434 97.7737 45.6317" stroke="#151116" stroke-linecap="round" stroke-linejoin="round"/>
<path d="M103.319 47.3293C102.659 47.6399 101.911 47.7117 101.203 47.5321C100.183 47.1762 99.5672 45.4288 100.387 44.6138C101.207 43.7988 102.431 44.2757 102.775 45.3612C103.119 46.4467 102.635 46.5143 102.023 46.5143C101.836 46.4689 101.669 46.3653 101.546 46.2187C101.423 46.072 101.351 45.89 101.339 45.6993C101.203 44.9555 101.819 45.3434 102.023 45.6317" stroke="#151116" stroke-linecap="round" stroke-linejoin="round"/>
<path d="M93.6638 50.9202C93.6638 50.9202 94.8237 52.0056 96.3237 50.6497C97.8238 49.2938 96.2557 48.3435 95.1638 48.8204C94.0719 49.2973 94.4156 50.3792 95.1638 50.5145" stroke="#151116" stroke-linecap="round" stroke-linejoin="round"/>
<path d="M105.671 50.9202C105.671 50.9202 104.511 52.0056 103.011 50.6497C101.511 49.2938 103.079 48.3435 104.171 48.8204C105.263 49.2973 104.923 50.3792 104.171 50.5145" stroke="#151116" stroke-linecap="round" stroke-linejoin="round"/>
<path d="M112.316 52.8882C112.316 52.8882 114.399 54.2442 115.419 52.5501C116.44 50.8561 115.491 49.0909 113.919 49.0233C112.348 48.9557 112.215 50.7173 112.967 51.3971C113.719 52.0768 114.671 51.8028 114.467 50.7173" stroke="#151116" stroke-linecap="round" stroke-linejoin="round"/>
<path d="M87.1984 52.8882C87.1984 52.8882 85.1185 54.2442 84.0946 52.5501C83.0707 50.8561 84.0266 49.0909 85.5946 49.0233C87.1626 48.9557 87.2987 50.7173 86.5505 51.3971C85.8023 52.0768 84.8464 51.8028 85.0505 50.7173" stroke="#151116" stroke-linecap="round" stroke-linejoin="round"/>
<path d="M78.4095 82.5836C78.7919 84.0598 79.6571 85.3676 80.869 86.3015C82.0809 87.2353 83.5708 87.7421 85.1041 87.7421C86.6375 87.7421 88.1273 87.2353 89.3392 86.3015C90.5511 85.3676 91.4163 84.0598 91.7987 82.5836H78.4095Z" fill="#FFBD00" stroke="#151116" stroke-linecap="round" stroke-linejoin="round"/>
<path d="M85.0003 82.6512V54.7851L78.4095 82.5836" stroke="#151116" stroke-linecap="round" stroke-linejoin="round"/>
<path d="M85.0004 54.7851L91.7987 82.5836" stroke="#151116" stroke-linecap="round" stroke-linejoin="round"/>
<path d="M107.737 82.5836C108.119 84.0598 108.984 85.3676 110.196 86.3015C111.408 87.2353 112.898 87.7421 114.431 87.7421C115.965 87.7421 117.455 87.2353 118.666 86.3015C119.878 85.3676 120.744 84.0598 121.126 82.5836H107.737Z" fill="#FFBD00" stroke="#151116" stroke-linecap="round" stroke-linejoin="round"/>
<path d="M114.331 82.6512V54.7851L107.74 82.5836" stroke="#151116" stroke-linecap="round" stroke-linejoin="round"/>
<path d="M114.331 54.7851L121.126 82.5836" stroke="#151116" stroke-linecap="round" stroke-linejoin="round"/>
<path d="M100.824 17.2246H98.3179C98.1552 17.2237 97.9995 17.1588 97.8848 17.0441C97.7701 16.9294 97.7057 16.7742 97.7057 16.6125C97.7057 16.4511 97.7702 16.2963 97.885 16.1822C97.9998 16.068 98.1555 16.0039 98.3179 16.0039H100.824C100.905 16.0035 100.985 16.0189 101.059 16.0492C101.134 16.0796 101.202 16.1244 101.259 16.1809C101.316 16.2375 101.362 16.3047 101.393 16.3788C101.424 16.4529 101.44 16.5323 101.44 16.6125C101.44 16.7748 101.375 16.9305 101.259 17.0453C101.144 17.1601 100.987 17.2246 100.824 17.2246Z" fill="#FFBD00" stroke="#151116" stroke-linecap="round" stroke-linejoin="round"/>
<path d="M100.824 15.8687H98.3179C98.1552 15.8678 97.9995 15.8028 97.8848 15.6882C97.7701 15.5735 97.7057 15.4183 97.7057 15.2566C97.7057 15.0952 97.7702 14.9404 97.885 14.8262C97.9998 14.7121 98.1555 14.648 98.3179 14.648H100.824C100.905 14.6475 100.985 14.6629 101.059 14.6933C101.134 14.7237 101.202 14.7684 101.259 14.825C101.316 14.8815 101.362 14.9488 101.393 15.0229C101.424 15.0969 101.44 15.1763 101.44 15.2566C101.44 15.4189 101.375 15.5746 101.259 15.6894C101.144 15.8042 100.987 15.8687 100.824 15.8687Z" fill="#FFBD00" stroke="#151116" stroke-linecap="round" stroke-linejoin="round"/>
<path d="M129.589 53.4078L126.535 48.7777" stroke="#151116" stroke-linecap="round" stroke-linejoin="round"/>
<path d="M161.096 155.715C161.096 155.715 163.402 155.747 163.9 155.961C164.397 156.174 166.205 156.861 161.594 157.356C156.983 157.85 154.212 157 151.284 156.922C148.355 156.843 147.575 156.829 147.575 156.829C147.575 156.829 152.809 154.786 161.096 155.715Z" fill="#151116" stroke="#151116" stroke-linecap="round" stroke-linejoin="round"/>
<path d="M143.995 156.452C143.995 156.452 143.995 157.52 147.528 157.52C151.062 157.52 153.446 156.203 156.006 156.025C158.565 155.847 163.248 155.85 163.248 155.85C163.248 155.85 156.979 155.139 152.386 154.445C147.793 153.751 146.3 151.9 146.3 151.548C146.3 151.195 142.659 153.466 143.995 156.452Z" fill="#FFBD00" stroke="#151116" stroke-linecap="round" stroke-linejoin="round"/>
<path d="M123.328 91.3918C123.328 91.3918 120.149 103.069 118.738 107.983C117.327 112.898 117.059 114.745 117.854 116.062C118.649 117.379 126.861 130.461 129.775 133.711C132.689 136.96 135.428 142.053 136.137 143.017C136.846 143.981 138.077 146.266 138.167 147.409C138.256 148.551 139.051 139.579 139.051 139.579C139.051 139.579 137.107 134.924 134.723 130.006C132.338 125.087 131.203 122.279 131.014 120.173C130.835 118.244 128.01 113.852 128.01 113.852C128.01 113.852 129.771 107.649 130.129 107.193C130.487 106.738 127.391 88.2315 123.328 91.3918Z" fill="white"/>
<path opacity="0.21" d="M123.328 91.3918C123.328 91.3918 120.149 103.069 118.738 107.983C117.327 112.898 117.059 114.745 117.854 116.062C118.649 117.379 126.861 130.461 129.775 133.711C132.689 136.96 135.428 142.053 136.137 143.017C136.846 143.981 138.077 146.266 138.167 147.409C138.256 148.551 139.051 139.579 139.051 139.579C139.051 139.579 137.107 134.924 134.723 130.006C132.338 125.087 131.203 122.279 131.014 120.173C130.835 118.244 128.01 113.852 128.01 113.852C128.01 113.852 129.771 107.649 130.129 107.193C130.487 106.738 127.391 88.2315 123.328 91.3918Z" fill="black"/>
<path d="M123.328 91.3918C123.328 91.3918 120.149 103.069 118.738 107.983C117.327 112.898 117.059 114.745 117.854 116.062C118.649 117.379 126.861 130.461 129.775 133.711C132.689 136.96 135.428 142.053 136.137 143.017C136.846 143.981 138.077 146.266 138.167 147.409C138.256 148.551 139.051 139.579 139.051 139.579C139.051 139.579 137.107 134.924 134.723 130.006C132.338 125.087 131.203 122.279 131.014 120.173C130.835 118.244 128.01 113.852 128.01 113.852C128.01 113.852 129.771 107.649 130.129 107.193C130.487 106.738 127.391 88.2315 123.328 91.3918Z" stroke="#151116" stroke-linecap="round" stroke-linejoin="round"/>
<path d="M153.711 148.548C153.711 148.548 154.069 150.042 151.767 151.27C149.465 152.498 145.409 153.025 144.525 154.345C143.64 155.665 143.995 156.452 143.995 156.452L142.051 153.993C142.051 153.993 140.905 156.011 135.965 156.89C132.614 157.548 129.17 157.578 125.808 156.979C123.689 156.623 123.159 155.836 126.166 153.114C129.174 150.391 134.644 148.199 134.909 144.95C135.174 141.7 132.349 139.946 131.64 135.906C130.931 131.867 132.789 124.255 134.024 119.863C135.26 115.471 142.659 91.2139 142.659 91.2139L147.428 113.279C147.428 113.279 150.696 128.618 151.756 133.447C152.816 138.277 150.786 142.579 150.786 142.579L153.711 148.548Z" fill="#151116" stroke="#151116" stroke-linecap="round" stroke-linejoin="round"/>
<path d="M136.667 143.455C134.655 141.148 133.148 138.45 132.242 135.533C132.17 135.291 132.109 135.052 132.056 134.821C131.874 135.466 131.762 136.128 131.719 136.796C131.719 136.796 133.573 141.711 132.159 144.871C130.745 148.032 126.156 153.124 126.156 153.124C126.156 153.124 130.04 151.106 133.044 149.701C135.55 148.526 137.436 146.921 137.476 144.38C137.231 144.051 136.96 143.742 136.667 143.455Z" fill="#FFBD00" stroke="#151116" stroke-linecap="round" stroke-linejoin="round"/>
<path d="M135.073 118.372C135.073 118.372 134.715 126.073 135.693 131.166C136.67 136.259 137.125 145.401 136.931 148.989C136.738 152.576 135.252 154.783 134.014 156.011C132.775 157.238 130.659 157.769 131.454 158.381C132.249 158.993 135.517 158.907 137.372 158.47C139.226 158.032 140.111 157.242 140.64 155.925C141.17 154.608 142.405 153.377 142.935 151.797C143.465 150.217 142.577 149.779 142.051 148.284C141.525 146.789 141.875 143.896 142.846 139.156C143.816 134.415 144.969 130.401 144.349 126.009C144.027 123.522 143.337 121.096 142.301 118.809C142.301 118.809 144.954 112.137 146.544 107.748C148.133 103.36 147.618 92.883 145.04 90.3384C142.463 87.7938 140.007 88.5803 138.063 93.5841C136.119 98.5879 134.988 117.493 135.073 118.372Z" fill="white"/>
<path opacity="0.21" d="M145.054 90.3384C144.564 89.8203 143.972 89.4073 143.315 89.1248C142.835 89.0329 142.349 88.9817 141.861 88.9718C140.479 89.2351 139.19 90.7156 138.077 93.5983C136.137 98.6057 134.988 117.507 135.073 118.386C135.073 118.386 134.715 126.087 135.693 131.18C136.67 136.273 137.125 145.416 136.931 149.003C136.738 152.59 135.252 154.797 134.014 156.025C132.775 157.253 130.659 157.783 131.454 158.395C132.249 159.007 135.517 158.922 137.372 158.484C139.226 158.046 140.111 157.256 140.64 155.939C141.17 154.623 142.405 153.391 142.935 151.811C143.465 150.231 142.577 149.793 142.051 148.298C141.65 147.163 141.757 145.213 142.262 142.248C141.167 143.465 140.139 144.156 139.62 143.295C138.206 140.953 137.264 128.547 137.264 122.457C137.264 116.368 141.782 100.492 141.782 100.492L145.846 109.681C146.096 109.012 146.336 108.361 146.562 107.756C148.148 103.357 147.618 92.883 145.054 90.3384Z" fill="black"/>
<path d="M135.073 118.372C135.073 118.372 134.715 126.073 135.693 131.166C136.67 136.259 137.125 145.401 136.931 148.989C136.738 152.576 135.252 154.783 134.014 156.011C132.775 157.238 130.659 157.769 131.454 158.381C132.249 158.993 135.517 158.907 137.372 158.47C139.226 158.032 140.111 157.242 140.64 155.925C141.17 154.608 142.405 153.377 142.935 151.797C143.465 150.217 142.577 149.779 142.051 148.284C141.525 146.789 141.875 143.896 142.846 139.156C143.816 134.415 144.969 130.401 144.349 126.009C144.027 123.522 143.337 121.096 142.301 118.809C142.301 118.809 144.954 112.137 146.544 107.748C148.133 103.36 147.618 92.883 145.04 90.3384C142.463 87.7938 140.007 88.5803 138.063 93.5841C136.119 98.5879 134.988 117.493 135.073 118.372Z" stroke="#151116" stroke-linecap="round" stroke-linejoin="round"/>
<path d="M132.514 158.644C132.748 157.953 133.216 157.365 133.838 156.979" stroke="#151116" stroke-linecap="round" stroke-linejoin="round"/>
<path d="M133.928 158.822C134.295 158.131 134.739 157.482 135.252 156.89" stroke="#151116" stroke-linecap="round" stroke-linejoin="round"/>
<path d="M135.782 158.559C135.782 158.559 135.782 157.847 136.856 157.153" stroke="#151116" stroke-linecap="round" stroke-linejoin="round"/>
<path d="M137.372 158.47C137.372 158.47 137.014 157.758 137.991 156.979" stroke="#151116" stroke-linecap="round" stroke-linejoin="round"/>
<path d="M129.51 71.1987C129.51 71.1987 126.951 75.8502 125.891 80.6796C124.831 85.509 125.007 87.7048 124.817 88.0536C124.627 88.4024 122.608 88.4949 122.608 90.2494C122.608 92.004 122.698 101.866 125.962 111.524C129.227 121.183 132.324 126.098 132.324 126.098C132.324 126.098 133.649 120.831 137.358 113.998C141.066 107.165 143.017 93.5841 143.017 93.5841L147.256 114.582C147.256 114.582 148.491 110.983 150.26 107.03C152.028 103.076 152.465 92.6054 151.67 86.1958C150.876 79.7863 148.935 76.4516 147.786 74.7825C146.637 73.1134 145.756 71.7966 145.756 71.7966L129.51 71.1987Z" fill="#FFBD00"/>
<path opacity="0.21" d="M129.51 71.1987C129.51 71.1987 126.951 75.8502 125.891 80.6796C124.831 85.509 125.007 87.7048 124.817 88.0536C124.627 88.4024 122.608 88.4949 122.608 90.2494C122.608 92.004 122.698 101.866 125.962 111.524C127.283 115.5 128.873 119.382 130.72 123.144C131.476 122.297 133.77 120.148 133.892 118.094C134.035 115.695 133.04 103.268 134.461 95.36C135.883 87.4521 139.574 72.907 139.574 72.907C139.574 72.907 139.86 81.8042 139.86 82.9359C139.86 84.0676 140.143 81.2383 140.426 78.8396C140.708 76.4409 140.87 72.06 140.87 72.06L141.682 71.6578L129.51 71.1987Z" fill="black"/>
<path d="M129.51 71.1987C129.51 71.1987 126.951 75.8502 125.891 80.6796C124.831 85.509 125.007 87.7048 124.817 88.0536C124.627 88.4024 122.608 88.4949 122.608 90.2494C122.608 92.004 122.698 101.866 125.962 111.524C129.227 121.183 132.324 126.098 132.324 126.098C132.324 126.098 133.649 120.831 137.358 113.998C141.066 107.165 143.017 93.5841 143.017 93.5841L147.256 114.582C147.256 114.582 148.491 110.983 150.26 107.03C152.028 103.076 152.465 92.6054 151.67 86.1958C150.876 79.7863 148.935 76.4516 147.786 74.7825C146.637 73.1134 145.756 71.7966 145.756 71.7966L129.51 71.1987Z" stroke="#151116" stroke-linecap="round" stroke-linejoin="round"/>
<path d="M157.674 52.4861C156.987 48.162 153.553 48.9948 153.095 47.7065C152.637 46.4182 154.774 46.7954 155.691 43.9875C156.607 41.1795 151.108 34.5173 149.05 32.1648C146.991 29.8124 148.208 29.9655 148.208 29.9655C148.208 29.9655 150.958 27.0045 149.737 23.9687C148.516 20.933 141.8 16.3847 137.451 16.2317C133.101 16.0787 129.514 18.5094 129.514 20.8583C129.504 21.5732 129.734 22.271 130.169 22.8406C129.374 22.1288 128.354 21.7729 127.223 22.9082C125.619 24.5026 127.681 25.0435 128.297 23.9758C128.912 22.9082 131.046 23.8264 131.046 23.8264C130.953 23.7018 130.853 23.5737 130.749 23.4456C131.044 23.6969 131.376 23.9021 131.733 24.0541C131.733 24.0541 132.879 26.7091 134.329 30.3498C135.779 33.9905 137.15 41.4286 139.287 46.888C141.424 52.3473 142.416 53.8705 144.628 56.8279C146.841 59.7854 148.599 59.7106 152.565 59.0273C156.532 58.344 158.361 56.8208 157.674 52.4861Z" fill="#151116"/>
<path d="M133.198 24.3495C133.198 24.3495 135.578 22.3779 139.348 27.1112C143.118 31.8445 141.729 32.6346 144.904 37.7594C148.08 42.8842 148.871 44.0693 149.465 49.7884C150.059 55.5076 152.44 57.0842 154.226 58.2693C158.791 61.2943 154.423 50.5785 152.043 49.0162C149.662 47.4538 152.44 47.041 153.034 42.1119C153.629 37.1829 145.695 30.4779 145.695 30.4779C145.695 30.4779 146.093 22.7872 139.942 19.8297C133.792 16.8723 133.198 21.2106 133.198 21.2106" stroke="#707070" stroke-linecap="round" stroke-linejoin="round"/>
<path d="M140.934 32.8303C140.934 32.8303 140.54 43.0835 146.687 47.6211" stroke="#707070" stroke-linecap="round" stroke-linejoin="round"/>
<path d="M157.674 52.4861C156.987 48.162 153.553 48.9948 153.095 47.7065C152.637 46.4182 154.774 46.7954 155.691 43.9875C156.607 41.1795 151.108 34.5173 149.05 32.1648C146.991 29.8124 148.208 29.9655 148.208 29.9655C148.208 29.9655 150.958 27.0045 149.737 23.9687C148.516 20.933 141.8 16.3847 137.451 16.2317C133.101 16.0787 129.514 18.5094 129.514 20.8583C129.504 21.5732 129.734 22.271 130.169 22.8406C129.374 22.1288 128.354 21.7729 127.223 22.9082C125.619 24.5026 127.681 25.0435 128.297 23.9758C128.912 22.9082 131.046 23.8264 131.046 23.8264C130.953 23.7018 130.853 23.5737 130.749 23.4456C131.044 23.6969 131.376 23.9021 131.733 24.0541C131.733 24.0541 132.879 26.7091 134.329 30.3498C135.779 33.9905 137.15 41.4286 139.287 46.888C141.424 52.3473 142.416 53.8705 144.628 56.8279C146.841 59.7854 148.599 59.7106 152.565 59.0273C156.532 58.344 158.361 56.8208 157.674 52.4861Z" stroke="#151116" stroke-linecap="round" stroke-linejoin="round"/>
<path d="M132.184 21.8476C132.793 27.1575 135.159 27.6878 135.159 27.6878C135.159 27.6878 136.151 30.179 136.455 30.9513C136.76 31.7235 137.068 32.5421 137.984 32.6204C138.901 32.6987 138.976 32.0118 140.043 31.4068C141.109 30.8018 141.417 31.179 141.571 32.8304C141.725 34.4817 140.043 34.9657 140.043 34.9657C139.853 36.0687 139.751 37.1849 139.738 38.3039C139.663 40.5781 139.813 43.233 142.488 45.2046C145.162 47.1762 149.508 47.8631 151.645 50.7458C153.782 53.6285 151.491 57.65 149.737 60.9883C147.983 64.3265 145.387 69.4833 145.387 69.4833L145.692 71.0777C145.692 71.0777 144.546 72.0635 139.051 72.2166C135.76 72.3099 132.479 71.8219 129.36 70.7752C129.36 70.7752 128.443 68.2021 127.982 67.0775C127.52 65.9529 127.144 65.1806 126.457 63.814C125.769 62.4474 125.465 60.7819 126.532 58.0486C127.599 55.3154 128.823 52.2085 128.898 49.9308C128.973 47.6531 130.502 45.6068 130.502 45.6068C130.502 45.6068 134.547 44.6957 134.698 43.5568C134.848 42.418 133.094 38.7773 133.094 38.7773C133.094 38.7773 129.052 39.3858 128.44 38.4C127.828 37.4142 127.624 33.3784 127.624 33.3784C127.014 32.8578 126.629 32.1237 126.55 31.3285C126.399 29.9654 128.698 29.9654 129.22 28.6736C129.743 27.3817 129.299 27.1575 129.754 25.7909C130.208 24.4243 132.26 22.232 132.26 22.232" fill="white"/>
<path opacity="0.21" d="M137.261 34.6134C136.423 34.4923 135.471 37.5886 132.829 37.8163C130.187 38.0441 128.758 37.8163 128.533 36.2682C128.307 34.7201 129.371 33.172 128.411 32.8161C127.788 32.5848 127.015 31.7983 126.55 31.2787V31.3178C126.629 32.113 127.014 32.8472 127.624 33.3677C127.624 33.3677 127.853 37.3893 128.461 38.3751C129.07 39.3609 133.115 38.7523 133.115 38.7523C133.694 39.9508 134.182 41.1903 134.576 42.4607H134.644L139.745 38.9837C139.745 38.7464 139.745 38.5186 139.745 38.3004C139.758 37.1814 139.86 36.0651 140.05 34.9621C140.05 34.9621 141.729 34.5066 141.578 32.8268C140.007 34.0582 138.102 34.7308 137.261 34.6134Z" fill="black"/>
<path d="M132.184 21.8476C132.793 27.1575 135.159 27.6878 135.159 27.6878C135.159 27.6878 136.151 30.179 136.455 30.9513C136.76 31.7235 137.068 32.5421 137.984 32.6204C138.901 32.6987 138.976 32.0118 140.043 31.4068C141.109 30.8018 141.417 31.179 141.571 32.8304C141.725 34.4817 140.043 34.9657 140.043 34.9657C139.853 36.0687 139.751 37.1849 139.738 38.3039C139.663 40.5781 139.813 43.233 142.488 45.2046C145.162 47.1762 149.508 47.8631 151.645 50.7458C153.782 53.6285 151.491 57.65 149.737 60.9883C147.983 64.3265 145.387 69.4833 145.387 69.4833L145.692 71.0777C145.692 71.0777 144.546 72.0635 139.051 72.2166C135.76 72.3099 132.479 71.8219 129.36 70.7752C129.36 70.7752 128.443 68.2021 127.982 67.0775C127.52 65.9529 127.144 65.1806 126.457 63.814C125.769 62.4474 125.465 60.7819 126.532 58.0486C127.599 55.3154 128.823 52.2085 128.898 49.9308C128.973 47.6531 130.502 45.6068 130.502 45.6068C130.502 45.6068 134.547 44.6957 134.698 43.5568C134.848 42.418 133.094 38.7773 133.094 38.7773C133.094 38.7773 129.052 39.3858 128.44 38.4C127.828 37.4142 127.624 33.3784 127.624 33.3784C127.014 32.8578 126.629 32.1237 126.55 31.3285C126.399 29.9654 128.698 29.9654 129.22 28.6736C129.743 27.3817 129.299 27.1575 129.754 25.7909C130.208 24.4243 132.26 22.232 132.26 22.232" stroke="#151116" stroke-linecap="round" stroke-linejoin="round"/>
<path opacity="0.21" d="M146.368 57.5966C146.73 59.1138 146.93 60.6645 146.966 62.2232C146.966 64.4866 147.564 65.202 147.564 65.202L149.963 60.4366C149.963 60.4366 148.284 57.4685 146.368 57.5966Z" fill="black"/>
<path d="M134.701 43.5426C134.865 44.7501 134.917 45.97 134.855 47.1869L134.701 43.5426Z" fill="white"/>
<path d="M134.701 43.5426C134.865 44.7501 134.917 45.97 134.855 47.1869" stroke="#151116" stroke-linecap="round" stroke-linejoin="round"/>
<path d="M140.042 34.9728L138.671 34.745C138.671 34.745 137.83 36.2611 136.455 36.7167" stroke="#151116" stroke-linecap="round" stroke-linejoin="round"/>
<path d="M128.443 33.9799C129.032 34.0633 129.632 34.0122 130.198 33.8304" stroke="#151116" stroke-linecap="round" stroke-linejoin="round"/>
<path d="M129.739 25.7944C135.696 27.9477 141.901 29.349 148.208 29.9654L148.362 31.0331C148.362 31.0331 136.684 31.7164 128.672 29.517C128.958 29.3103 129.185 29.0342 129.333 28.7152C129.48 28.3961 129.542 28.0448 129.514 27.6949C129.36 26.5489 129.206 26.3994 129.739 25.7944Z" fill="#FFBD00" stroke="#151116" stroke-linecap="round" stroke-linejoin="round"/>
<path d="M137.54 29.3533C137.54 29.3533 144.056 30.5171 148.13 30.3142" stroke="#151116" stroke-linecap="round" stroke-linejoin="round"/>
<path d="M133.774 29.4992C133.774 29.4992 138.099 30.7662 141.969 30.6665" stroke="#151116" stroke-linecap="round" stroke-linejoin="round"/>
<path d="M145.996 63.4225C144.546 61.999 142.867 59.401 142.867 54.1694C142.85 51.5067 143.615 48.8968 145.069 46.6602C144.496 46.3968 143.941 46.1228 143.422 45.8203C142.745 47.2438 140.479 51.6533 137.694 53.1089C134.336 54.8527 131.662 52.8811 131.587 49.4646C131.52 47.9546 131.796 46.449 132.392 45.0587C131.422 45.3932 130.52 45.5961 130.52 45.5961C130.52 45.5961 128.991 47.646 128.916 49.9201C128.841 52.1943 127.624 55.3047 126.55 58.0344C125.476 60.7641 125.787 62.4367 126.474 63.7998C127.162 65.1628 127.548 65.9351 127.999 67.0633C128.451 68.1915 129.374 70.7823 129.374 70.7823C132.493 71.829 135.774 72.317 139.065 72.2237C144.56 72.0706 145.706 71.0848 145.706 71.0848L145.402 69.4904C145.402 69.4904 146.515 67.2733 147.779 64.8069C147.133 64.4147 146.535 63.9502 145.996 63.4225Z" fill="#FFBD00"/>
<path opacity="0.21" d="M145.695 64.8603C145.695 64.8603 145.412 67.259 142.43 67.6825C139.448 68.106 134.332 63.3051 132.485 61.6111C130.638 59.917 132.628 65.1415 133.201 65.8497C133.774 66.5579 129.793 63.5898 128.655 60.0594C127.516 56.529 128.511 52.8562 128.511 52.8562H128.379C127.91 54.5396 127.198 56.3617 126.539 58.0379C125.465 60.7712 125.776 62.4403 126.464 63.8033C127.151 65.1664 127.538 65.9387 127.989 67.0668C128.44 68.195 129.363 70.7859 129.363 70.7859C132.483 71.8325 135.764 72.3206 139.054 72.2272C139.724 72.2059 140.325 72.1774 140.869 72.1382V72.0599L142.008 71.4976C143.229 71.4376 144.446 71.3093 145.652 71.1133L145.695 71.0848L145.391 69.4904C145.391 69.4904 145.881 68.5011 146.597 67.0775C146.193 65.9422 145.695 64.8603 145.695 64.8603Z" fill="black"/>
<path d="M145.996 63.4225C144.546 61.999 142.867 59.401 142.867 54.1694C142.85 51.5067 143.615 48.8968 145.069 46.6602C144.496 46.3968 143.941 46.1228 143.422 45.8203C142.745 47.2438 140.479 51.6533 137.694 53.1089C134.336 54.8527 131.662 52.8811 131.587 49.4646C131.52 47.9546 131.796 46.449 132.392 45.0587C131.422 45.3932 130.52 45.5961 130.52 45.5961C130.52 45.5961 128.991 47.646 128.916 49.9201C128.841 52.1943 127.624 55.3047 126.55 58.0344C125.476 60.7641 125.787 62.4367 126.474 63.7998C127.162 65.1628 127.548 65.9351 127.999 67.0633C128.451 68.1915 129.374 70.7823 129.374 70.7823C132.493 71.829 135.774 72.317 139.065 72.2237C144.56 72.0706 145.706 71.0848 145.706 71.0848L145.402 69.4904C145.402 69.4904 146.515 67.2733 147.779 64.8069C147.133 64.4147 146.535 63.9502 145.996 63.4225V63.4225Z" stroke="#151116" stroke-linecap="round" stroke-linejoin="round"/>
<path d="M133.556 64.3336C135.257 67.5609 138.076 70.0666 141.492 71.3873" stroke="#151116" stroke-linecap="round" stroke-linejoin="round"/>
<path d="M130.276 65.3942C131.911 67.3935 134.04 68.9363 136.455 69.8712" stroke="#151116" stroke-linecap="round" stroke-linejoin="round"/>
<path d="M99.9145 22.5167C99.9145 22.5167 97.5374 22.0861 97.5946 22.9651C97.6304 23.4918 97.7486 23.6306 98.5827 23.6769C99.4169 23.7232 100.315 23.8584 100.555 23.4812C100.681 23.3032 100.809 22.4562 99.9145 22.5167Z" fill="white" stroke="#151116" stroke-linecap="round" stroke-linejoin="round"/>
<path d="M99.7785 21.0647C99.7785 21.0647 96.8644 20.5344 96.9324 21.6163C96.9754 22.264 97.1186 22.4348 98.1461 22.506C99.1735 22.5772 100.273 22.7338 100.57 22.2676C100.72 22.0327 100.878 20.9935 99.7785 21.0647Z" fill="white" stroke="#151116" stroke-linecap="round" stroke-linejoin="round"/>
<path d="M99.646 19.5344C99.646 19.5344 96.6066 18.9756 96.6818 20.118C96.7248 20.8013 96.8751 20.9828 97.9419 21.0576C99.0088 21.1323 100.162 21.296 100.469 20.8084C100.627 20.5558 100.792 19.4561 99.646 19.5344Z" fill="white" stroke="#151116" stroke-linecap="round" stroke-linejoin="round"/>
<path d="M99.5207 17.9008C99.5207 17.9008 96.4813 17.3421 96.5529 18.4845C96.5994 19.1713 96.7498 19.3493 97.8166 19.424C98.8835 19.4988 100.036 19.666 100.344 19.1749C100.502 18.9222 100.663 17.8261 99.5207 17.9008Z" fill="white" stroke="#151116" stroke-linecap="round" stroke-linejoin="round"/>
<path d="M102.037 22.3779C100.129 21.5416 100.741 18.9649 100.663 19.1749C100.584 19.3849 99.5887 21.6661 99.0624 21.6661C98.5362 21.6661 99.1376 17.4916 99.1376 17.4916C99.1376 17.4916 99.3667 16.9613 100.283 17.3421C101.2 17.7229 102.571 17.7193 102.879 18.7834C103.187 19.8475 103.487 22.8797 103.487 22.8797" fill="white"/>
<path d="M102.037 22.3779C100.129 21.5416 100.741 18.9649 100.663 19.1749C100.584 19.3849 99.5887 21.6661 99.0624 21.6661C98.5362 21.6661 99.1376 17.4916 99.1376 17.4916C99.1376 17.4916 99.3667 16.9613 100.283 17.3421C101.2 17.7229 102.571 17.7193 102.879 18.7834C103.187 19.8475 103.487 22.8797 103.487 22.8797" stroke="#151116" stroke-linecap="round" stroke-linejoin="round"/>
<path d="M129.056 69.7929V72.06C129.056 72.06 131.88 73.028 137.268 73.1276C140.225 73.214 143.183 73.009 146.1 72.5155L145.659 69.9673C145.659 69.9673 137.547 71.3731 129.056 69.7929Z" fill="#151116" stroke="#151116" stroke-linecap="round" stroke-linejoin="round"/>
<path d="M141.786 74.359C141.786 74.359 141.61 76.5513 143.64 80.854C145.67 85.1567 149.118 88.4059 149.207 94.2888" stroke="#151116" stroke-linecap="round" stroke-linejoin="round"/>
<path d="M151.327 89.4594C150.797 84.121 146.558 81.4696 144.704 78.3983C142.849 75.327 142.67 72.9532 142.67 72.9532" stroke="#151116" stroke-linecap="round" stroke-linejoin="round"/>
<path d="M138.961 73.7433C138.961 73.7433 139.846 76.2879 137.017 83.4021C134.189 90.5163 129.772 104.325 130.659 112.137" stroke="#151116" stroke-linecap="round" stroke-linejoin="round"/>
<path d="M137.726 74.7967C137.726 74.7967 136.932 79.2738 133.398 84.8933C129.865 90.5128 127.48 103.535 129.159 112.578" stroke="#151116" stroke-linecap="round" stroke-linejoin="round"/>
<path d="M125.271 88.6693C125.271 88.6693 125.987 102.129 127.745 105.553" stroke="#151116" stroke-linecap="round" stroke-linejoin="round"/>
<path d="M124.831 89.196C124.831 89.196 125.801 109.329 128.98 115.475" stroke="#151116" stroke-linecap="round" stroke-linejoin="round"/>
<path d="M139.846 74.8857C139.62 79.6305 138.761 84.3244 137.29 88.8437" stroke="#151116" stroke-linecap="round" stroke-linejoin="round"/>
<path d="M141.782 100.485C141.782 100.485 140.196 106.869 136.667 117.845C133.137 128.821 133.219 134.675 134.544 138.013C135.868 141.351 136.667 143.455 136.667 143.455C136.667 143.455 132.514 141.526 130.394 138.013C128.275 134.501 129.159 124.429 132.159 119.863C135.159 115.297 141.782 100.485 141.782 100.485Z" fill="#4C4C4C" stroke="#151116" stroke-linecap="round" stroke-linejoin="round"/>
<path d="M148.853 143.981C148.83 144.188 148.844 144.396 148.896 144.597C149.02 145.07 149.321 145.479 149.737 145.74C150.811 146.451 153.711 148.548 153.711 148.548L151.677 138.277L148.853 143.981Z" fill="#FFBD00" stroke="#151116" stroke-linecap="round" stroke-linejoin="round"/>
<path d="M144.704 101.392C144.704 101.392 145.778 112.752 147.528 117.582C149.279 122.411 150.707 134.063 150.267 137.661C150.006 139.809 149.532 141.926 148.853 143.981C148.853 143.981 150.893 142.138 154.681 139.323C158.469 136.508 159.714 131.184 157.155 126.265C155.848 123.763 146.558 105.784 144.704 101.392Z" fill="#4C4C4C" stroke="#151116" stroke-linecap="round" stroke-linejoin="round"/>
<path d="M163.828 98.773L165.26 98.2071C165.496 96.6946 167.941 93.0396 167.941 93.0396L167.061 92.4631L166.298 91.7513C166.298 91.7513 163.255 94.9294 161.823 95.4952L161.587 97.0078L158.723 98.0042C158.723 98.0042 144.943 116.45 139.681 124.066C134.418 131.682 118.674 152.071 118.674 152.071L117.811 154.06L119.572 152.783C119.572 152.783 135.9 132.853 142.208 126.066C148.516 119.279 163.488 101.784 163.488 101.784L163.828 98.773Z" fill="white" stroke="#151116" stroke-linecap="round" stroke-linejoin="round"/>
<path d="M120.904 150.32L119.637 151.936" stroke="#151116" stroke-linecap="round" stroke-linejoin="round"/>
<path d="M135.167 132.148L121.949 148.992" stroke="#151116" stroke-linecap="round" stroke-linejoin="round"/>
<path d="M166.713 92.7976L137.075 129.774" stroke="#151116" stroke-linecap="round" stroke-linejoin="round"/>
<path d="M176.048 82.3372L175.002 81.5068L166.834 91.6781L167.881 92.5085L176.048 82.3372Z" fill="white" stroke="#151116" stroke-linecap="round" stroke-linejoin="round"/>
<path d="M176.257 82.9893C176.411 82.7986 176.504 82.567 176.525 82.3237C176.546 82.0804 176.494 81.8363 176.376 81.6224C176.257 81.4085 176.078 81.2343 175.86 81.1218C175.642 81.0093 175.395 80.9636 175.151 80.9904C174.907 81.0173 174.676 81.1155 174.488 81.2727C174.3 81.4298 174.163 81.6389 174.094 81.8734C174.026 82.1078 174.029 82.3573 174.103 82.5901C174.177 82.823 174.319 83.0287 174.51 83.1815C174.768 83.3855 175.096 83.4799 175.424 83.4439C175.751 83.4078 176.051 83.2444 176.257 82.9893Z" fill="#FFBD00" stroke="#151116" stroke-linecap="round" stroke-linejoin="round"/>
<path d="M167.401 92.0075C166.929 90.9931 166.255 90.0847 165.42 89.3377C164.584 88.5906 163.604 88.0205 162.539 87.6621L166.323 93.3136L172.767 95.7799C172.174 94.8245 171.393 93.9979 170.471 93.3497C169.549 92.7015 168.504 92.245 167.401 92.0075Z" fill="#FFBD00" stroke="#151116" stroke-linecap="round" stroke-linejoin="round"/>
<path d="M145.556 56.9311L156.396 67.4939C156.396 67.4939 159.127 73.875 160.663 76.6865C162.199 79.498 166.57 86.5375 167.204 88.2493C167.837 89.9612 169.466 91.7726 170.29 92.7905C171.113 93.8083 172.674 93.036 172.796 92.7229C172.917 92.4097 172.33 91.2993 172.33 91.2993C172.841 90.6857 173.291 90.0242 173.673 89.3241C174.081 88.4664 174.296 88.2244 173.795 87.4165C173.293 86.6087 172.194 84.847 171.185 84.5232C170.175 84.1993 169.087 83.9573 169.087 83.9573C169.087 83.9573 166.287 74.4622 164.916 70.8143C163.545 67.1665 162.31 65.2625 162.052 64.8959C161.794 64.5294 157.309 58.0949 155.268 54.4862C153.228 50.8775 152.519 49.0945 150.553 48.1407C148.588 47.1869 146.565 46.5392 144.804 47.8524" fill="white"/>
<path opacity="0.21" d="M171.199 84.5161C170.186 84.1958 169.101 83.9502 169.101 83.9502C169.101 83.9502 168.947 83.4306 168.693 82.5907C168.503 82.7864 168.249 82.9075 167.977 82.9317C167.704 82.9559 167.433 82.8816 167.211 82.7224C165.324 81.4946 159.185 67.0028 157.627 65.0952C156.07 63.1876 149.243 59.8565 149.243 59.8565L149.476 60.7463L156.396 67.4903C156.396 67.4903 159.127 73.875 160.663 76.6865C162.199 79.498 166.57 86.5375 167.204 88.2493C167.837 89.9612 169.466 91.7726 170.29 92.7905C171.113 93.8083 172.674 93.036 172.796 92.7229C172.917 92.4097 172.33 91.2993 172.33 91.2993C172.841 90.6857 173.291 90.0242 173.673 89.3241C174.081 88.4664 174.296 88.2244 173.795 87.4165C173.293 86.6087 172.209 84.8435 171.199 84.5161Z" fill="black"/>
<path d="M145.556 56.9311L156.396 67.4939C156.396 67.4939 159.127 73.875 160.663 76.6865C162.199 79.498 166.57 86.5375 167.204 88.2493C167.837 89.9612 169.466 91.7726 170.29 92.7905C171.113 93.8083 172.674 93.036 172.796 92.7229C172.917 92.4097 172.33 91.2993 172.33 91.2993C172.841 90.6857 173.291 90.0242 173.673 89.3241C174.081 88.4664 174.296 88.2244 173.795 87.4166C173.293 86.6087 172.194 84.847 171.185 84.5232C170.175 84.1993 169.087 83.9573 169.087 83.9573C169.087 83.9573 166.287 74.4622 164.916 70.8143C163.545 67.1665 162.31 65.2625 162.052 64.8959C161.794 64.5294 157.309 58.0949 155.268 54.4862C153.228 50.8775 152.519 49.0945 150.553 48.1407C148.588 47.1869 146.565 46.5392 144.804 47.8524" stroke="#151116" stroke-linecap="round" stroke-linejoin="round"/>
<path d="M155.275 54.4862C155.257 54.4506 155.239 54.415 155.218 54.3794C152.49 56.2443 150.131 58.9668 149.039 60.3263L150.31 61.5612C151.269 60.3619 153.532 57.6892 156.113 55.9026C155.805 55.3973 155.522 54.9204 155.275 54.4862Z" fill="#151116"/>
</g>
<defs>
<clipPath id="clip0_1123_45796">
<rect width="163" height="151" fill="white" transform="translate(46 8)"/>
</clipPath>
</defs>
</svg>
