<svg width="169" height="157" viewBox="0 0 169 157" fill="none" xmlns="http://www.w3.org/2000/svg">
<g clip-path="url(#clip0_1123_46418)">
<path d="M160.87 90.0038V89.0546H109.131C108.193 89.0546 107.293 89.4276 106.63 90.0915C105.967 90.7554 105.594 91.6559 105.594 92.5948C105.594 93.5337 105.967 94.4342 106.63 95.0981C107.293 95.762 108.193 96.135 109.131 96.135H160.87V95.1675H159.629V90.0368L160.87 90.0038Z" fill="white"/>
<path opacity="0.6" d="M137.733 90.0038H160.87V89.0546H109.131C108.193 89.0546 107.293 89.4276 106.63 90.0915C105.967 90.7554 105.594 91.6559 105.594 92.5948C105.594 93.5337 105.967 94.4342 106.63 95.0981C107.293 95.762 108.193 96.135 109.131 96.135H160.87V95.1675H137.733C137.053 95.1675 136.401 94.8972 135.92 94.4161C135.439 93.935 135.169 93.2825 135.169 92.6021C135.169 91.9218 135.439 91.2693 135.92 90.7882C136.401 90.3071 137.053 90.0368 137.733 90.0368V90.0038Z" fill="#FFBD00"/>
<path opacity="0.6" d="M135.916 90.7588C135.674 90.9981 135.483 91.2837 135.353 91.5984C135.224 91.9132 135.159 92.2508 135.162 92.5912C135.162 93.2715 135.432 93.9241 135.913 94.4052C136.393 94.8863 137.045 95.1565 137.725 95.1565H160.863V96.124H137.773C136.835 96.124 135.935 95.7511 135.271 95.0871C134.608 94.4232 134.235 93.5228 134.235 92.5838C134.235 91.6449 134.608 90.7445 135.271 90.0805C135.935 89.4166 136.835 89.0436 137.773 89.0436H160.87V90.0075H137.733C137.395 90.0056 137.061 90.071 136.749 90.2C136.437 90.329 136.154 90.519 135.916 90.7588Z" fill="#FFBD00"/>
<path d="M135.916 90.7588C135.674 90.9981 135.483 91.2837 135.353 91.5984C135.224 91.9132 135.159 92.2508 135.162 92.5912C135.162 93.2715 135.432 93.9241 135.913 94.4052C136.393 94.8863 137.045 95.1565 137.725 95.1565H160.863V96.124H137.773C136.835 96.124 135.935 95.7511 135.271 95.0871C134.608 94.4232 134.235 93.5228 134.235 92.5838C134.235 91.6449 134.608 90.7445 135.271 90.0805C135.935 89.4166 136.835 89.0436 137.773 89.0436H160.87V90.0075H137.733C137.395 90.0056 137.061 90.071 136.749 90.2C136.437 90.329 136.154 90.519 135.916 90.7588V90.7588Z" stroke="#151116" stroke-width="0.5" stroke-linecap="round" stroke-linejoin="round"/>
<path d="M159.629 90.0038V95.1529" stroke="#151116" stroke-width="0.5" stroke-linecap="round" stroke-linejoin="round"/>
<path d="M159.629 90.9383H147.511" stroke="#151116" stroke-width="0.5" stroke-linecap="round" stroke-linejoin="round"/>
<path d="M146.504 90.9383H145.244" stroke="#151116" stroke-width="0.5" stroke-linecap="round" stroke-linejoin="round"/>
<path d="M139.439 92.5802H150.532" stroke="#151116" stroke-width="0.5" stroke-linecap="round" stroke-linejoin="round"/>
<path d="M151.916 92.5802H154.897" stroke="#151116" stroke-width="0.5" stroke-linecap="round" stroke-linejoin="round"/>
<path d="M155.769 92.5802H159.629" stroke="#151116" stroke-width="0.5" stroke-linecap="round" stroke-linejoin="round"/>
<path d="M158.292 94.0241H154.183" stroke="#151116" stroke-width="0.5" stroke-linecap="round" stroke-linejoin="round"/>
<path d="M142.6 94.0241H141.779" stroke="#151116" stroke-width="0.5" stroke-linecap="round" stroke-linejoin="round"/>
<path d="M136.425 90.363C136.425 90.363 137.495 91.3855 137.495 92.5802C137.495 93.7749 136.425 94.7791 136.425 94.7791" stroke="#151116" stroke-width="0.5" stroke-linecap="round" stroke-linejoin="round"/>
<path d="M144.16 96.1203H109.131C108.649 96.1515 108.165 96.0832 107.709 95.9198C107.254 95.7563 106.837 95.5011 106.484 95.17C106.131 94.8389 105.85 94.4389 105.658 93.9947C105.466 93.5505 105.366 93.0716 105.366 92.5875C105.366 92.1034 105.466 91.6245 105.658 91.1803C105.85 90.7361 106.131 90.3361 106.484 90.005C106.837 89.6738 107.254 89.4187 107.709 89.2552C108.165 89.0918 108.649 89.0235 109.131 89.0546H144.163" stroke="#151116" stroke-width="0.5" stroke-linecap="round" stroke-linejoin="round"/>
<path d="M110.362 102.321V103.285H162.108C163.046 103.285 163.946 102.912 164.609 102.248C165.273 101.584 165.645 100.684 165.645 99.7449C165.645 98.8059 165.273 97.9055 164.609 97.2416C163.946 96.5776 163.046 96.2047 162.108 96.2047H110.362V97.1685H111.607V102.321H110.362Z" fill="white"/>
<path opacity="0.6" d="M152.597 102.321H110.362V103.285H162.108C163.046 103.285 163.946 102.912 164.609 102.248C165.273 101.584 165.645 100.684 165.645 99.7449C165.645 98.8059 165.273 97.9055 164.609 97.2416C163.946 96.5776 163.046 96.2047 162.108 96.2047H110.362V97.1685H152.597C153.28 97.1685 153.935 97.4399 154.418 97.9231C154.901 98.4063 155.172 99.0616 155.172 99.7449C155.172 100.428 154.901 101.083 154.418 101.567C153.935 102.05 153.28 102.321 152.597 102.321Z" fill="#FFBD00"/>
<path d="M162.108 96.2047H152.557C153.022 96.2047 153.482 96.2962 153.911 96.4741C154.34 96.652 154.73 96.9128 155.058 97.2416C155.387 97.5703 155.648 97.9606 155.825 98.3901C156.003 98.8196 156.095 99.28 156.095 99.7449C156.095 100.21 156.003 100.67 155.825 101.1C155.648 101.529 155.387 101.919 155.058 102.248C154.73 102.577 154.34 102.838 153.911 103.016C153.482 103.193 153.022 103.285 152.557 103.285H162.108C163.046 103.285 163.946 102.912 164.609 102.248C165.273 101.584 165.645 100.684 165.645 99.7449C165.645 98.8059 165.273 97.9055 164.609 97.2416C163.946 96.5776 163.046 96.2047 162.108 96.2047Z" fill="#FFBD00"/>
<path d="M154.417 101.566C154.783 101.207 155.034 100.747 155.136 100.244C155.238 99.7419 155.187 99.2203 154.99 98.7469C154.793 98.2735 154.458 97.8701 154.03 97.5888C153.602 97.3074 153.099 97.161 152.586 97.1685H110.362V96.2047H152.557C153.022 96.2047 153.482 96.2962 153.911 96.4741C154.34 96.652 154.73 96.9128 155.058 97.2416C155.387 97.5703 155.648 97.9606 155.825 98.3901C156.003 98.8196 156.095 99.28 156.095 99.7449C156.095 100.21 156.003 100.67 155.825 101.1C155.648 101.529 155.387 101.919 155.058 102.248C154.73 102.577 154.34 102.838 153.911 103.016C153.482 103.193 153.022 103.285 152.557 103.285H110.362V102.321H152.597C152.935 102.322 153.27 102.255 153.583 102.126C153.895 101.996 154.179 101.806 154.417 101.566Z" stroke="#151116" stroke-width="0.5" stroke-linecap="round" stroke-linejoin="round"/>
<path d="M111.607 102.321V97.1685" stroke="#151116" stroke-width="0.5" stroke-linecap="round" stroke-linejoin="round"/>
<path d="M111.607 101.383H142.819" stroke="#151116" stroke-width="0.5" stroke-linecap="round" stroke-linejoin="round"/>
<path d="M143.83 101.383H145.086" stroke="#151116" stroke-width="0.5" stroke-linecap="round" stroke-linejoin="round"/>
<path d="M150.891 99.7449H135.026" stroke="#151116" stroke-width="0.5" stroke-linecap="round" stroke-linejoin="round"/>
<path d="M133.638 99.7449H130.661" stroke="#151116" stroke-width="0.5" stroke-linecap="round" stroke-linejoin="round"/>
<path d="M129.79 99.7449H111.607" stroke="#151116" stroke-width="0.5" stroke-linecap="round" stroke-linejoin="round"/>
<path d="M112.944 98.3009H131.372" stroke="#151116" stroke-width="0.5" stroke-linecap="round" stroke-linejoin="round"/>
<path d="M147.73 98.3009H148.551" stroke="#151116" stroke-width="0.5" stroke-linecap="round" stroke-linejoin="round"/>
<path d="M153.908 101.962C153.908 101.962 152.835 100.936 152.835 99.7449C152.835 98.5538 153.908 97.546 153.908 97.546" stroke="#151116" stroke-width="0.5" stroke-linecap="round" stroke-linejoin="round"/>
<path d="M146.17 96.2047H162.108C163.046 96.2047 163.946 96.5776 164.609 97.2416C165.273 97.9055 165.645 98.8059 165.645 99.7449C165.645 100.684 165.273 101.584 164.609 102.248C163.946 102.912 163.046 103.285 162.108 103.285H146.17" stroke="#151116" stroke-width="0.5" stroke-linecap="round" stroke-linejoin="round"/>
<path d="M165.162 104.337V103.373H103.876C103.412 103.373 102.952 103.465 102.523 103.642C102.093 103.82 101.703 104.081 101.375 104.41C101.046 104.739 100.786 105.129 100.608 105.558C100.43 105.988 100.339 106.448 100.339 106.913C100.339 107.378 100.43 107.838 100.608 108.268C100.786 108.697 101.046 109.088 101.375 109.416C101.703 109.745 102.093 110.006 102.523 110.184C102.952 110.362 103.412 110.453 103.876 110.453H165.162V109.486H163.917V104.337H165.162Z" fill="white"/>
<path opacity="0.6" d="M132.481 104.337H165.162V103.373H103.876C103.412 103.373 102.952 103.465 102.523 103.642C102.093 103.82 101.703 104.081 101.375 104.41C101.046 104.739 100.786 105.129 100.608 105.558C100.43 105.988 100.339 106.448 100.339 106.913C100.339 107.378 100.43 107.838 100.608 108.268C100.786 108.697 101.046 109.088 101.375 109.416C101.703 109.745 102.093 110.006 102.523 110.184C102.952 110.362 103.412 110.453 103.876 110.453H165.162V109.486H132.481C131.801 109.486 131.149 109.216 130.669 108.734C130.188 108.253 129.918 107.601 129.918 106.921C129.918 106.24 130.188 105.588 130.669 105.107C131.149 104.625 131.801 104.355 132.481 104.355V104.337Z" fill="#FFBD00"/>
<path opacity="0.6" d="M130.665 105.092C130.423 105.331 130.232 105.617 130.102 105.931C129.972 106.246 129.907 106.584 129.91 106.924C129.91 107.605 130.18 108.257 130.661 108.738C131.142 109.219 131.794 109.49 132.474 109.49H165.162V110.457H132.522C131.583 110.457 130.683 110.084 130.02 109.42C129.357 108.756 128.984 107.856 128.984 106.917C128.984 105.978 129.357 105.077 130.02 104.414C130.683 103.75 131.583 103.377 132.522 103.377H165.162V104.34H132.481C132.144 104.339 131.809 104.404 131.497 104.533C131.185 104.662 130.902 104.852 130.665 105.092Z" fill="#FFBD00"/>
<path d="M130.665 105.092C130.423 105.331 130.232 105.617 130.102 105.931C129.972 106.246 129.907 106.584 129.91 106.924C129.91 107.605 130.18 108.257 130.661 108.738C131.142 109.219 131.794 109.49 132.474 109.49H165.162V110.457H132.522C131.583 110.457 130.683 110.084 130.02 109.42C129.357 108.756 128.984 107.856 128.984 106.917C128.984 105.978 129.357 105.077 130.02 104.414C130.683 103.75 131.583 103.377 132.522 103.377H165.162V104.34H132.481C132.144 104.339 131.809 104.404 131.497 104.533C131.185 104.662 130.902 104.852 130.665 105.092V105.092Z" stroke="#151116" stroke-width="0.5" stroke-linecap="round" stroke-linejoin="round"/>
<path d="M163.924 104.337V109.486" stroke="#151116" stroke-width="0.5" stroke-linecap="round" stroke-linejoin="round"/>
<path d="M163.924 105.275H142.259" stroke="#151116" stroke-width="0.5" stroke-linecap="round" stroke-linejoin="round"/>
<path d="M141.252 105.275H139.992" stroke="#151116" stroke-width="0.5" stroke-linecap="round" stroke-linejoin="round"/>
<path d="M134.188 106.913H145.28" stroke="#151116" stroke-width="0.5" stroke-linecap="round" stroke-linejoin="round"/>
<path d="M146.665 106.913H154.417" stroke="#151116" stroke-width="0.5" stroke-linecap="round" stroke-linejoin="round"/>
<path d="M155.293 106.913H163.924" stroke="#151116" stroke-width="0.5" stroke-linecap="round" stroke-linejoin="round"/>
<path d="M162.588 108.357H153.707" stroke="#151116" stroke-width="0.5" stroke-linecap="round" stroke-linejoin="round"/>
<path d="M137.348 108.357H136.528" stroke="#151116" stroke-width="0.5" stroke-linecap="round" stroke-linejoin="round"/>
<path d="M131.174 104.696C131.174 104.696 132.243 105.722 132.243 106.913C132.243 108.104 131.174 109.112 131.174 109.112" stroke="#151116" stroke-width="0.5" stroke-linecap="round" stroke-linejoin="round"/>
<path d="M138.908 110.453H103.876C103.412 110.453 102.952 110.362 102.523 110.184C102.093 110.006 101.703 109.745 101.375 109.416C101.046 109.088 100.786 108.697 100.608 108.268C100.43 107.838 100.339 107.378 100.339 106.913C100.339 106.448 100.43 105.988 100.608 105.558C100.786 105.129 101.046 104.739 101.375 104.41C101.703 104.081 102.093 103.82 102.523 103.642C102.952 103.465 103.412 103.373 103.876 103.373H138.908" stroke="#151116" stroke-width="0.5" stroke-linecap="round" stroke-linejoin="round"/>
<path d="M11.8434 96.1277C11.8434 96.1277 6.77497 95.3764 6.51496 98.3852C6.25495 101.394 9.81088 108.233 14.9635 107.265V105.524C14.9635 105.524 9.9537 106.47 8.60604 100.027C7.87361 96.4649 12.6344 98.3779 12.6344 98.3779L11.8434 96.1277Z" fill="white"/>
<path opacity="0.4" d="M11.8434 96.1277C11.8434 96.1277 6.77497 95.3764 6.51496 98.3852C6.25495 101.394 9.81088 108.233 14.9635 107.265V105.524C14.9635 105.524 9.9537 106.47 8.60604 100.027C7.87361 96.4649 12.6344 98.3779 12.6344 98.3779L11.8434 96.1277Z" fill="#FFBD00"/>
<path d="M11.8434 96.1277C11.8434 96.1277 6.77497 95.3764 6.51496 98.3852C6.25495 101.394 9.81088 108.233 14.9635 107.265V105.524C14.9635 105.524 9.9537 106.47 8.60604 100.027C7.87361 96.4649 12.6344 98.3779 12.6344 98.3779L11.8434 96.1277Z" stroke="#151116" stroke-width="0.5" stroke-linecap="round" stroke-linejoin="round"/>
<path d="M26.9532 107.269C25.5104 108.452 23.5694 109.222 20.9547 109.222C9.60206 109.222 10.8985 94.6801 10.8985 94.6801H31.0145C31.0145 94.6801 31.7763 103.3 26.9532 107.269Z" fill="white"/>
<path opacity="0.4" d="M26.9532 107.269C25.5103 108.452 23.5694 109.222 20.9547 109.222C9.60206 109.222 10.8985 94.6801 10.8985 94.6801H14.5935C14.5935 94.6801 15.022 101.072 17.3438 104.172C19.6656 107.272 26.8946 107.269 26.9532 107.269Z" fill="#FFBD00"/>
<path d="M26.9532 107.269C25.5104 108.452 23.5694 109.222 20.9547 109.222C9.60206 109.222 10.8985 94.6801 10.8985 94.6801H31.0145C31.0145 94.6801 31.7763 103.3 26.9532 107.269Z" stroke="#151116" stroke-width="0.5" stroke-linecap="round" stroke-linejoin="round"/>
<path d="M29.3922 110.453H11.3928L6.95068 108.779H33.8344L29.3922 110.453Z" fill="white"/>
<path opacity="0.4" d="M29.3922 110.453H11.3928L6.95068 108.779H33.8344L29.3922 110.453Z" fill="#FFBD00"/>
<path d="M29.3922 110.453H11.3928L6.95068 108.779H33.8344L29.3922 110.453Z" stroke="#151116" stroke-width="0.5" stroke-linecap="round" stroke-linejoin="round"/>
<path d="M35.0722 107.738H5.71655C5.50823 107.738 5.33936 107.907 5.33936 108.115V108.709C5.33936 108.917 5.50823 109.086 5.71655 109.086H35.0722C35.2805 109.086 35.4494 108.917 35.4494 108.709V108.115C35.4494 107.907 35.2805 107.738 35.0722 107.738Z" fill="white" stroke="#151116" stroke-width="0.5" stroke-linecap="round" stroke-linejoin="round"/>
<path d="M20.1783 78.2545C15.5018 82.2124 23.5658 88.5782 20.1783 91.2462C20.1783 91.2462 23.4962 89.9562 21.4307 85.5657C19.3653 81.1753 20.1783 78.2545 20.1783 78.2545Z" stroke="#151116" stroke-width="0.5" stroke-linecap="round" stroke-linejoin="round"/>
<path d="M0.183105 110.659H168.817" stroke="#151116" stroke-width="0.5" stroke-linecap="round" stroke-linejoin="round"/>
<path d="M105.374 51.5527C103.963 54.2413 102.035 56.6248 99.7012 58.5666C97.3676 60.5083 94.6742 61.9703 91.7751 62.8687C88.876 63.7671 85.8283 64.0843 82.8066 63.8021C79.7848 63.5199 76.8484 62.6439 74.1655 61.2242C73.6564 60.9566 73.1621 60.6671 72.6823 60.3703C72.2026 60.0734 71.7411 59.7582 71.2944 59.4321C70.7524 59.0363 70.2324 58.6209 69.7343 58.186C69.7033 58.1611 69.6739 58.1342 69.6464 58.1054V58.1054C66.4011 55.2313 64.0292 51.5017 62.8015 47.3426C61.5738 43.1835 61.5399 38.7627 62.7037 34.5853C63.8675 30.4078 66.182 26.6422 69.3829 23.7187C72.5837 20.7951 76.5417 18.8315 80.8048 18.0522C85.0678 17.273 89.464 17.7094 93.4909 19.3117C97.5179 20.9141 101.013 23.6176 103.578 27.1135C106.142 30.6095 107.672 34.7568 107.993 39.0816C108.314 43.4065 107.413 47.7344 105.392 51.5711L105.374 51.5527Z" stroke="#151116" stroke-width="0.5" stroke-linecap="round" stroke-linejoin="round"/>
<path d="M105.469 30.1503C105.224 30.3702 104.821 30.4398 104.184 30.2419C101.895 29.5309 100.705 32.1073 101.108 32.1366C101.511 32.1659 101.789 33.3204 100.965 33.8811C100.141 34.4418 98.2219 34.2475 98.3465 34.8229C98.471 35.3983 99.4158 36.8239 99.4158 36.8239C99.4158 36.8239 100.258 36.4281 100.514 36.9228C100.771 37.4176 101.023 38.7552 100.405 38.9971C100.231 39.0715 100.089 39.203 100.001 39.3698C99.9132 39.5365 99.885 39.7283 99.9212 39.9133L98.0901 39.8034L97.7935 41.174L96.6069 42.1452L95.999 41.8227C95.999 41.8227 95.4607 40.4264 94.9443 41.2693L94.4353 42.1085L94.1057 42.8635C94.1057 42.8635 95.4351 43.1603 95.7683 43.7394L96.0979 44.3184L98.9837 45.132L99.2107 45.9602L99.7417 46.2424L99.8772 47.6864L100.954 48.2507L102.034 48.3387L103.349 46.5063C103.615 47.0217 103.846 47.5542 104.041 48.1005C104.173 48.5732 103.799 49.746 103.799 49.746C103.583 50.185 103.261 50.563 102.862 50.8454C102.338 51.1166 101.697 50.3946 101.745 51.2779L101.789 52.1574L101.653 53.1359L102.466 53.5647L103.232 53.9678L103.679 54.3343" stroke="#151116" stroke-width="0.5" stroke-linecap="round" stroke-linejoin="round"/>
<path d="M62.0914 44.1828L62.4137 44.2451L63.8785 42.6253L65.1969 42.0902L66.1417 42.5886C66.5336 42.7939 66.9254 41.8117 66.9254 41.8117L66.6728 41.5808C66.4201 41.3499 66.7899 39.9903 66.7899 39.9903C67.5172 40.0996 68.2519 40.1511 68.9872 40.1442C69.5695 40.0746 69.8442 40.0966 70.0859 39.6055C70.3276 39.1144 70.1481 39.0155 70.1481 39.0155C70.3605 38.3969 70.5029 37.7564 70.5729 37.1061C70.5729 36.4721 71.5177 37.6045 71.5177 37.6045L71.9792 36.725L73.0009 35.915L74.3413 34.9695C74.3413 34.9695 76.3005 34.4051 76.4506 34.8303C76.6008 35.2554 77.3955 35.5999 77.3955 35.5999L77.0586 36.2375C77.0586 36.2375 76.6264 37.5715 76.2089 37.8537C75.7915 38.1359 76.3774 40.1772 76.3774 40.1772C75.994 40.5485 75.6549 40.9629 75.3667 41.4122C75.1103 41.8997 74.8613 41.896 74.8613 41.896L73.5832 41.7201C73.5832 41.7201 72.1183 40.7013 71.6349 40.4411C71.6349 40.4411 70.778 41.3646 70.8622 41.907C70.9465 42.4494 70.5619 42.4824 70.5619 42.4824L71.9096 43.7064L72.1293 44.476L72.935 45.5754L72.675 46.0702L72.1843 47.0011L72.4003 48.0162L73.2756 49.1926L73.7663 50.2627L74.301 51.9925L74.4694 52.9454L76.0441 53.6527L76.74 53.2862L78.0949 52.5532L78.7358 53.8286L78.9885 54.4699L77.8606 55.4887L78.2597 56.3243L78.3916 57.2662L78.278 58.5268L78.0473 59.3331L78.9885 59.8279L80.6584 59.586L80.5998 58.307C81.1503 57.9794 81.7318 57.7069 82.3357 57.4934C83.0498 57.2918 82.9766 57.3065 83.8518 57.0353C84.7271 56.7641 84.4597 56.8374 84.8809 56.6944C85.302 56.5515 85.7122 56.3866 85.7122 56.3866L85.7451 55.0599L86.4373 52.6448L86.8657 52.927C87.2905 53.2129 87.9278 52.1941 87.9278 52.1941L88.2281 50.3617L87.3821 49.9146C86.8787 49.8136 86.368 49.7536 85.855 49.735L84.6501 49.0973L83.6431 47.2759C83.3125 46.9166 83.0294 46.5163 82.8008 46.0849L83.2659 45.2053L83.8372 44.1059L84.4341 44.421L84.9834 44.7106L85.5657 45.0184L86.5178 44.399L87.0488 42.9111L87.7813 42.2625C88.261 41.8264 88.5906 42.6289 88.5906 42.6289L89.3743 41.6431C90.1617 40.661 89.5135 41.1154 89.1106 40.6096C89.0185 40.4703 88.8926 40.3565 88.7447 40.2789C88.5968 40.2014 88.4316 40.1626 88.2647 40.1662L86.8328 38.4547L85.6939 38.8469L85.5364 39.3856C85.3753 39.9243 85.5364 39.3856 83.8848 38.7333L83.3391 37.1537L83.665 36.7873L83.7456 35.3213C83.7456 35.3213 82.7934 34.8559 82.0757 34.4674C81.3579 34.079 81.1858 33.0821 81.1858 33.0821C81.1745 32.5378 81.2859 31.9979 81.5117 31.5026L81.1455 30.4618L79.7942 27.8195L80.0249 26.6321L80.8086 26.1337L81.1199 24.5505L79.7063 23.2092L80.2739 22.1317L80.6767 21.3658L81.1492 20.4716L81.5154 18.6392C81.5154 18.6392 81.3982 18.324 81.2993 17.9575" stroke="#151116" stroke-width="0.5" stroke-linecap="round" stroke-linejoin="round"/>
<path d="M69.7343 58.186C69.7069 58.1524 69.6748 58.1227 69.6391 58.0981V58.0981L70.0456 57.3248L69.8844 55.8589L69.3461 55.573C69.3461 55.573 70.0016 54.9244 69.9613 54.404C69.9539 54.2482 69.9884 54.0932 70.0612 53.9553C70.134 53.8173 70.2424 53.7015 70.3751 53.6197L70.1994 52.6522L69.9064 52.4983C69.6134 52.3444 69.7892 51.5308 69.7892 51.5308L68.5368 51.7763L68.1962 53.0956L66.9218 53.4218C66.7498 53.297 66.6064 53.1371 66.5009 52.9526C66.3955 52.7681 66.3305 52.5633 66.3102 52.3517C66.3358 51.7397 66.5702 51.8606 66.5702 51.8606H67.7494L68.4818 50.468L68.3353 49.801L67.8043 49.5225" stroke="#151116" stroke-width="0.5" stroke-linecap="round" stroke-linejoin="round"/>
<path d="M67.786 49.5188C67.8446 49.5481 67.4674 47.8513 67.4674 47.8513C67.4674 47.8513 66.9987 46.6053 66.486 46.3854C65.9733 46.1655 64.8161 46.9498 64.8161 46.9498L63.5233 47.133L63.2303 48.6869" stroke="#151116" stroke-width="0.5" stroke-linecap="round" stroke-linejoin="round"/>
<path d="M72.9899 59.4247L72.6823 60.3702C72.2025 60.0734 71.7411 59.7582 71.2943 59.4321L72.7409 57.9991L72.6163 56.4343C72.6163 56.4343 72.3527 55.8552 72.8617 55.9725C73.075 56.0253 73.2991 56.0142 73.5062 55.9406C73.7133 55.867 73.8941 55.7341 74.0263 55.5584C74.3302 55.2175 74.2899 55.0709 75.0663 55.4814C75.8427 55.8919 75.894 56.1667 76.0075 56.4782C76.121 56.7897 74.6708 59.0033 74.6708 59.0033L75.1835 59.2745C75.1835 59.2745 74.8832 59.9708 75.3922 60.1247L72.9899 59.4247Z" stroke="#151116" stroke-width="0.5" stroke-linecap="round" stroke-linejoin="round"/>
<path d="M90.1983 63.2838C87.5417 63.9093 84.795 64.057 82.0867 63.7199L82.3687 62.7047C82.3687 62.7047 82.1013 62.2613 83.1743 62.3566C84.2473 62.4519 85.064 62.5618 85.064 62.5618L85.9173 60.942H87.4151L87.9058 61.1985L88.327 61.8142L89.2388 62.6937C89.2388 62.6937 89.7662 62.9796 90.1983 63.2838Z" stroke="#151116" stroke-width="0.5" stroke-linecap="round" stroke-linejoin="round"/>
<path d="M89.4512 47.833L90.3521 47.5471L91.1394 48.3424C91.1394 48.3424 92.6958 48.5439 92.0916 49.2256C91.4873 49.9072 90.3228 49.8962 90.3228 49.8962L89.9016 50.6915L89.1692 49.8046L88.803 49.0717L89.0813 48.5476L89.4512 47.833Z" stroke="#151116" stroke-width="0.5" stroke-linecap="round" stroke-linejoin="round"/>
<path d="M90.7476 44.4284C90.5633 44.6493 90.4273 44.9065 90.3484 45.1833L90.2935 45.5278L88.8286 44.7545L89.6233 43.2446L90.7476 44.4284Z" stroke="#151116" stroke-width="0.5" stroke-linecap="round" stroke-linejoin="round"/>
<path d="M139.666 12.6033C139.667 13.1057 139.519 13.5971 139.24 14.0152C138.962 14.4334 138.566 14.7595 138.102 14.9522C137.639 15.145 137.128 15.1959 136.636 15.0983C136.143 15.0007 135.69 14.7591 135.335 14.4041C134.98 14.049 134.738 13.5965 134.64 13.1037C134.541 12.611 134.591 12.1001 134.783 11.6359C134.975 11.1716 135.301 10.7747 135.718 10.4955C136.136 10.2163 136.626 10.0672 137.128 10.0672C137.801 10.0672 138.446 10.3343 138.922 10.8098C139.398 11.2853 139.665 11.9303 139.666 12.6033V12.6033Z" stroke="#151116" stroke-width="0.5" stroke-linecap="round" stroke-linejoin="round"/>
<path d="M125.329 52.5496C125.329 52.8663 125.235 53.176 125.059 53.4393C124.884 53.7027 124.634 53.908 124.341 54.0292C124.049 54.1504 123.727 54.1821 123.417 54.1203C123.106 54.0585 122.821 53.906 122.597 53.682C122.373 53.458 122.221 53.1727 122.159 52.862C122.097 52.5513 122.129 52.2293 122.25 51.9367C122.371 51.6441 122.576 51.3939 122.84 51.218C123.103 51.042 123.412 50.9481 123.729 50.9481C124.153 50.9481 124.56 51.1168 124.86 51.4171C125.161 51.7175 125.329 52.1248 125.329 52.5496V52.5496Z" stroke="#151116" stroke-width="0.5" stroke-linecap="round" stroke-linejoin="round"/>
<path d="M79.3548 1.78476C79.3555 2.10255 79.2619 2.4134 79.086 2.67793C78.91 2.94246 78.6595 3.14877 78.3663 3.27072C78.073 3.39266 77.7502 3.42476 77.4387 3.36294C77.1272 3.30112 76.8411 3.14817 76.6165 2.92346C76.392 2.69875 76.2391 2.4124 76.1774 2.10068C76.1156 1.78897 76.1477 1.46592 76.2695 1.17246C76.3914 0.879 76.5975 0.628342 76.8619 0.452241C77.1262 0.276141 77.4369 0.182522 77.7544 0.183247C78.1786 0.184215 78.585 0.353257 78.885 0.65339C79.1849 0.953523 79.3538 1.36031 79.3548 1.78476V1.78476Z" stroke="#151116" stroke-width="0.5" stroke-linecap="round" stroke-linejoin="round"/>
<path d="M162.749 54.1511C164.945 54.1511 166.726 52.3692 166.726 50.1711C166.726 47.973 164.945 46.1911 162.749 46.1911C160.552 46.1911 158.772 47.973 158.772 50.1711C158.772 52.3692 160.552 54.1511 162.749 54.1511Z" stroke="#151116" stroke-width="0.5" stroke-linecap="round" stroke-linejoin="round"/>
<path d="M25.9901 13.1017C27.3432 13.1017 28.4401 12.004 28.4401 10.6499C28.4401 9.29585 27.3432 8.19817 25.9901 8.19817C24.637 8.19817 23.5402 9.29585 23.5402 10.6499C23.5402 12.004 24.637 13.1017 25.9901 13.1017Z" stroke="#151116" stroke-width="0.5" stroke-linecap="round" stroke-linejoin="round"/>
<path d="M13.2678 64.4748C15.6302 64.4748 17.5452 62.5584 17.5452 60.1944C17.5452 57.8303 15.6302 55.9139 13.2678 55.9139C10.9055 55.9139 8.99048 57.8303 8.99048 60.1944C8.99048 62.5584 10.9055 64.4748 13.2678 64.4748Z" stroke="#151116" stroke-width="0.5" stroke-linecap="round" stroke-linejoin="round"/>
<path d="M51.2441 32.2502C51.9257 32.2502 52.4783 31.6973 52.4783 31.0152C52.4783 30.3331 51.9257 29.7802 51.2441 29.7802C50.5626 29.7802 50.01 30.3331 50.01 31.0152C50.01 31.6973 50.5626 32.2502 51.2441 32.2502Z" stroke="#151116" stroke-width="0.5" stroke-linecap="round" stroke-linejoin="round"/>
<path d="M79.0544 12.6289C79.1533 13.4681 79.2522 14.3037 79.3548 15.143" stroke="#151116" stroke-width="0.5" stroke-linecap="round" stroke-linejoin="round"/>
<path d="M78.1206 4.8412L78.8713 11.1227" stroke="#151116" stroke-width="0.5" stroke-linecap="round" stroke-linejoin="round"/>
<path d="M110.135 26.0421C109.457 26.3499 108.78 26.6468 108.095 26.9399" stroke="#151116" stroke-width="0.5" stroke-linecap="round" stroke-linejoin="round"/>
<path d="M124.307 18.98C120.206 21.1056 116.115 23.2568 111.933 25.2102" stroke="#151116" stroke-width="0.5" stroke-linecap="round" stroke-linejoin="round"/>
<path d="M130.401 15.8906C128.866 16.6455 127.34 17.4151 125.823 18.1994" stroke="#151116" stroke-width="0.5" stroke-linecap="round" stroke-linejoin="round"/>
<path d="M133.162 14.5639L131.884 15.1686" stroke="#151116" stroke-width="0.5" stroke-linecap="round" stroke-linejoin="round"/>
<path d="M114.925 44.9305C113.419 44.7545 111.912 44.5725 110.406 44.3844" stroke="#151116" stroke-width="0.5" stroke-linecap="round" stroke-linejoin="round"/>
<path d="M136.803 47.3749C130.098 46.6419 123.393 45.8955 116.687 45.1357" stroke="#151116" stroke-width="0.5" stroke-linecap="round" stroke-linejoin="round"/>
<path d="M157.105 49.5481C150.919 48.9031 144.737 48.2422 138.56 47.5654" stroke="#151116" stroke-width="0.5" stroke-linecap="round" stroke-linejoin="round"/>
<path d="M117.382 50.3324C114.676 49.4931 111.889 48.8665 109.252 47.7927" stroke="#151116" stroke-width="0.5" stroke-linecap="round" stroke-linejoin="round"/>
<path d="M120.971 51.6444C120.356 51.3732 119.731 51.1289 119.096 50.9114" stroke="#151116" stroke-width="0.5" stroke-linecap="round" stroke-linejoin="round"/>
<path d="M53.8334 31.7042L60.9269 33.6062" stroke="#151116" stroke-width="0.5" stroke-linecap="round" stroke-linejoin="round"/>
<path d="M50.5374 23.6746C54.3386 25.7929 58.1656 27.8781 62.084 29.7802" stroke="#151116" stroke-width="0.5" stroke-linecap="round" stroke-linejoin="round"/>
<path d="M33.1497 14.3257C38.5769 16.9534 43.8248 19.9182 49.0873 22.861" stroke="#151116" stroke-width="0.5" stroke-linecap="round" stroke-linejoin="round"/>
<path d="M30.0514 12.8011C30.4982 13.0174 30.9413 13.2299 31.3807 13.4498" stroke="#151116" stroke-width="0.5" stroke-linecap="round" stroke-linejoin="round"/>
<path d="M58.3268 50.5083L60.0663 50.1088" stroke="#151116" stroke-width="0.5" stroke-linecap="round" stroke-linejoin="round"/>
<path d="M30.7289 56.3903C39.3312 54.4846 47.9409 52.5679 56.5872 50.8931" stroke="#151116" stroke-width="0.5" stroke-linecap="round" stroke-linejoin="round"/>
<path d="M19.2885 58.897C22.6112 58.1811 25.9291 57.4555 29.2421 56.7201" stroke="#151116" stroke-width="0.5" stroke-linecap="round" stroke-linejoin="round"/>
<path d="M138.275 123.72H31.6042C28.0007 123.72 17.278 122.199 17.278 122.199H152.601C152.601 122.199 141.878 123.72 138.275 123.72Z" fill="#999999" stroke="#151116" stroke-width="0.5" stroke-linecap="round" stroke-linejoin="round"/>
<path d="M32.9262 53.2349H136.964C137.138 53.2349 137.31 53.2692 137.471 53.3359C137.632 53.4026 137.778 53.5003 137.901 53.6235C138.024 53.7467 138.122 53.8929 138.188 54.0539C138.255 54.2148 138.289 54.3873 138.289 54.5616V118.281H31.6041V54.5616C31.6041 54.2103 31.7433 53.8735 31.9911 53.6248C32.2389 53.3761 32.5752 53.2359 32.9262 53.2349Z" fill="#243344"/>
<path d="M152.601 122.199H17.2779C17.1721 122.202 17.0692 122.164 16.9897 122.094C16.9101 122.025 16.8598 121.927 16.8488 121.822C16.8377 121.717 16.8666 121.611 16.9299 121.526C16.9931 121.441 17.086 121.383 17.1901 121.364L31.6042 118.281H138.275L152.689 121.364C152.793 121.383 152.886 121.441 152.949 121.526C153.012 121.611 153.041 121.717 153.03 121.822C153.019 121.927 152.969 122.025 152.889 122.094C152.81 122.164 152.707 122.202 152.601 122.199Z" fill="#BFBFBF" stroke="#151116" stroke-width="0.5" stroke-miterlimit="10"/>
<path d="M137.096 56.0861H32.7834V113.935H137.096V56.0861Z" fill="white" stroke="#151116" stroke-width="0.5" stroke-linecap="round" stroke-linejoin="round"/>
<path d="M87.243 116.449H82.636C82.4952 116.449 82.3601 116.393 82.2605 116.293C82.1609 116.194 82.105 116.058 82.105 115.918C82.105 115.777 82.1609 115.641 82.2605 115.542C82.3601 115.442 82.4952 115.386 82.636 115.386H87.243C87.3838 115.386 87.5189 115.442 87.6184 115.542C87.718 115.641 87.774 115.777 87.774 115.918C87.774 116.058 87.718 116.194 87.6184 116.293C87.5189 116.393 87.3838 116.449 87.243 116.449Z" fill="white"/>
<path d="M85.6939 54.6055C85.6939 54.7563 85.6492 54.9037 85.5655 55.029C85.4818 55.1544 85.3628 55.2521 85.2236 55.3098C85.0844 55.3675 84.9313 55.3826 84.7835 55.3532C84.6358 55.3237 84.5 55.2511 84.3935 55.1445C84.287 55.0379 84.2144 54.9021 84.185 54.7542C84.1557 54.6064 84.1707 54.4531 84.2284 54.3138C84.286 54.1745 84.3837 54.0555 84.5089 53.9717C84.6342 53.888 84.7815 53.8433 84.9321 53.8433C85.1342 53.8433 85.3279 53.9236 85.4708 54.0665C85.6136 54.2095 85.6939 54.4034 85.6939 54.6055Z" fill="white"/>
<path d="M144.207 120.242H25.6715L31.8971 118.776H137.982L144.207 120.242Z" stroke="#151116" stroke-width="0.5" stroke-linecap="round" stroke-linejoin="round"/>
<path opacity="0.15" d="M98.4088 56.5186C98.4088 56.5186 74.4145 89.0547 33.6038 84.6569V56.5186H98.4088Z" fill="#FFBD00"/>
<path opacity="0.3" d="M33.6038 107.496C33.6038 107.496 39.9429 91.4258 73.3159 86.3537C106.689 81.2816 132.8 67.9051 136.275 60.0734V112.638H33.6038V107.496Z" fill="#FFBD00"/>
<path opacity="0.5" d="M136.272 56.5186H33.6038V58.5122H136.272V56.5186Z" fill="#FFBD00"/>
<path d="M33.6038 58.5122H136.275" stroke="#151116" stroke-width="0.5" stroke-linecap="round" stroke-linejoin="round"/>
<path d="M35.0137 57.4677H37.991" stroke="#151116" stroke-width="0.5" stroke-linecap="round" stroke-linejoin="round"/>
<path d="M41.2466 57.4677H43.9273" stroke="#151116" stroke-width="0.5" stroke-linecap="round" stroke-linejoin="round"/>
<path d="M47.3989 57.4677H50.0064" stroke="#151116" stroke-width="0.5" stroke-linecap="round" stroke-linejoin="round"/>
<g opacity="0.7">
<path opacity="0.7" d="M50.6546 106.902H47.355C46.906 106.902 46.542 107.266 46.542 107.716V111.018C46.542 111.467 46.906 111.831 47.355 111.831H50.6546C51.1036 111.831 51.4676 111.467 51.4676 111.018V107.716C51.4676 107.266 51.1036 106.902 50.6546 106.902Z" fill="#FFBD00"/>
<path opacity="0.7" d="M57.8433 106.902H54.5437C54.0947 106.902 53.7307 107.266 53.7307 107.716V111.018C53.7307 111.467 54.0947 111.831 54.5437 111.831H57.8433C58.2923 111.831 58.6563 111.467 58.6563 111.018V107.716C58.6563 107.266 58.2923 106.902 57.8433 106.902Z" fill="#FFBD00"/>
<path opacity="0.7" d="M65.0285 106.902H61.7289C61.2799 106.902 60.9159 107.266 60.9159 107.716V111.018C60.9159 111.467 61.2799 111.831 61.7289 111.831H65.0285C65.4775 111.831 65.8415 111.467 65.8415 111.018V107.716C65.8415 107.266 65.4775 106.902 65.0285 106.902Z" fill="#FFBD00"/>
<path opacity="0.7" d="M72.2172 106.902H68.9176C68.4686 106.902 68.1046 107.266 68.1046 107.716V111.018C68.1046 111.467 68.4686 111.831 68.9176 111.831H72.2172C72.6662 111.831 73.0302 111.467 73.0302 111.018V107.716C73.0302 107.266 72.6662 106.902 72.2172 106.902Z" fill="#FFBD00"/>
<path opacity="0.7" d="M79.4022 106.902H76.1027C75.6537 106.902 75.2897 107.266 75.2897 107.716V111.018C75.2897 111.467 75.6537 111.831 76.1027 111.831H79.4022C79.8512 111.831 80.2152 111.467 80.2152 111.018V107.716C80.2152 107.266 79.8512 106.902 79.4022 106.902Z" fill="#FFBD00"/>
<path opacity="0.7" d="M86.5874 106.902H83.2878C82.8388 106.902 82.4749 107.266 82.4749 107.716V111.018C82.4749 111.467 82.8388 111.831 83.2878 111.831H86.5874C87.0364 111.831 87.4004 111.467 87.4004 111.018V107.716C87.4004 107.266 87.0364 106.902 86.5874 106.902Z" fill="#FFBD00"/>
<path opacity="0.7" d="M93.7762 106.902H90.4766C90.0276 106.902 89.6636 107.266 89.6636 107.716V111.018C89.6636 111.467 90.0276 111.831 90.4766 111.831H93.7762C94.2252 111.831 94.5891 111.467 94.5891 111.018V107.716C94.5891 107.266 94.2252 106.902 93.7762 106.902Z" fill="#FFBD00"/>
<path opacity="0.7" d="M100.961 106.902H97.6616C97.2126 106.902 96.8486 107.266 96.8486 107.716V111.018C96.8486 111.467 97.2126 111.831 97.6616 111.831H100.961C101.41 111.831 101.774 111.467 101.774 111.018V107.716C101.774 107.266 101.41 106.902 100.961 106.902Z" fill="#FFBD00"/>
<path opacity="0.7" d="M108.15 106.902H104.85C104.401 106.902 104.037 107.266 104.037 107.716V111.018C104.037 111.467 104.401 111.831 104.85 111.831H108.15C108.599 111.831 108.963 111.467 108.963 111.018V107.716C108.963 107.266 108.599 106.902 108.15 106.902Z" fill="#FFBD00"/>
<path opacity="0.7" d="M115.335 106.902H112.036C111.587 106.902 111.223 107.266 111.223 107.716V111.018C111.223 111.467 111.587 111.831 112.036 111.831H115.335C115.784 111.831 116.148 111.467 116.148 111.018V107.716C116.148 107.266 115.784 106.902 115.335 106.902Z" fill="#FFBD00"/>
<path opacity="0.7" d="M122.52 106.902H119.221C118.772 106.902 118.408 107.266 118.408 107.716V111.018C118.408 111.467 118.772 111.831 119.221 111.831H122.52C122.969 111.831 123.333 111.467 123.333 111.018V107.716C123.333 107.266 122.969 106.902 122.52 106.902Z" fill="#FFBD00"/>
</g>
<path opacity="0.5" d="M128.039 112.638V110.567C128.039 110.347 127.952 110.137 127.797 109.981C127.641 109.826 127.431 109.739 127.211 109.739H123.333V111.021C123.332 111.236 123.247 111.441 123.095 111.593C122.944 111.745 122.738 111.83 122.524 111.831H119.228C119.013 111.83 118.808 111.745 118.655 111.593C118.503 111.442 118.417 111.236 118.415 111.021V109.739H116.155V111.021C116.154 111.236 116.067 111.442 115.915 111.593C115.763 111.745 115.557 111.83 115.342 111.831H112.047C111.832 111.83 111.626 111.745 111.474 111.593C111.322 111.442 111.235 111.236 111.234 111.021V109.739H108.974V111.021C108.972 111.236 108.886 111.442 108.734 111.593C108.581 111.745 108.376 111.83 108.161 111.831H104.865C104.651 111.83 104.445 111.745 104.294 111.593C104.142 111.441 104.057 111.236 104.056 111.021V109.739H101.793V111.021C101.792 111.236 101.706 111.441 101.554 111.593C101.403 111.745 101.198 111.83 100.983 111.831H97.6873C97.4726 111.83 97.2669 111.745 97.1148 111.593C96.9626 111.442 96.8763 111.236 96.8743 111.021V109.739H94.6148V111.021C94.6129 111.236 94.5265 111.442 94.3743 111.593C94.2222 111.745 94.0165 111.83 93.8018 111.831H90.5059C90.2912 111.83 90.0855 111.745 89.9334 111.593C89.7812 111.442 89.6948 111.236 89.6929 111.021V109.739H87.4297V111.021C87.4287 111.236 87.3432 111.441 87.1916 111.593C87.04 111.745 86.8347 111.83 86.6204 111.831H83.3245C83.1098 111.83 82.9041 111.745 82.7519 111.593C82.5998 111.442 82.5134 111.236 82.5115 111.021V109.739H80.2007V111.021C80.1987 111.236 80.1123 111.442 79.9602 111.593C79.808 111.745 79.6024 111.83 79.3877 111.831H76.0917C75.8771 111.83 75.6714 111.745 75.5192 111.593C75.3671 111.442 75.2807 111.236 75.2788 111.021V109.739H73.0192V111.021C73.0173 111.236 72.9309 111.442 72.7788 111.593C72.6266 111.745 72.4209 111.83 72.2062 111.831H68.9103C68.696 111.83 68.4907 111.745 68.3391 111.593C68.1875 111.441 68.1019 111.236 68.101 111.021V109.739H65.8378V111.021C65.8368 111.236 65.7512 111.441 65.5997 111.593C65.4481 111.745 65.2428 111.83 65.0285 111.831H61.7325C61.5178 111.83 61.3122 111.745 61.16 111.593C61.0079 111.442 60.9215 111.236 60.9195 111.021V109.739H58.66V111.021C58.6581 111.236 58.5717 111.442 58.4195 111.593C58.2674 111.745 58.0617 111.83 57.847 111.831H54.5511C54.3364 111.83 54.1307 111.745 53.9786 111.593C53.8264 111.442 53.74 111.236 53.7381 111.021V109.739H51.4749V111.021C51.4739 111.236 51.3884 111.441 51.2368 111.593C51.0852 111.745 50.8799 111.83 50.6656 111.831H47.3697C47.155 111.83 46.9493 111.745 46.7971 111.593C46.645 111.442 46.5586 111.236 46.5567 111.021V109.739H42.6675C42.448 109.739 42.2375 109.826 42.0823 109.981C41.927 110.137 41.8398 110.347 41.8398 110.567V112.638" fill="#FFBD00"/>
<path d="M128.039 112.638V110.567C128.039 110.347 127.952 110.137 127.797 109.981C127.641 109.826 127.431 109.739 127.211 109.739H123.333V111.021C123.332 111.236 123.247 111.441 123.095 111.593C122.944 111.745 122.738 111.83 122.524 111.831H119.228C119.013 111.83 118.808 111.745 118.655 111.593C118.503 111.442 118.417 111.236 118.415 111.021V109.739H116.155V111.021C116.154 111.236 116.067 111.442 115.915 111.593C115.763 111.745 115.557 111.83 115.342 111.831H112.047C111.832 111.83 111.626 111.745 111.474 111.593C111.322 111.442 111.235 111.236 111.234 111.021V109.739H108.974V111.021C108.972 111.236 108.886 111.442 108.734 111.593C108.581 111.745 108.376 111.83 108.161 111.831H104.865C104.651 111.83 104.445 111.745 104.294 111.593C104.142 111.441 104.057 111.236 104.056 111.021V109.739H101.793V111.021C101.792 111.236 101.706 111.441 101.554 111.593C101.403 111.745 101.198 111.83 100.983 111.831H97.6873C97.4726 111.83 97.2669 111.745 97.1148 111.593C96.9626 111.442 96.8763 111.236 96.8743 111.021V109.739H94.6148V111.021C94.6129 111.236 94.5265 111.442 94.3743 111.593C94.2222 111.745 94.0165 111.83 93.8018 111.831H90.5059C90.2912 111.83 90.0855 111.745 89.9334 111.593C89.7812 111.442 89.6948 111.236 89.6929 111.021V109.739H87.4297V111.021C87.4287 111.236 87.3432 111.441 87.1916 111.593C87.04 111.745 86.8347 111.83 86.6204 111.831H83.3245C83.1098 111.83 82.9041 111.745 82.7519 111.593C82.5998 111.442 82.5134 111.236 82.5115 111.021V109.739H80.2007V111.021C80.1987 111.236 80.1123 111.442 79.9602 111.593C79.808 111.745 79.6024 111.83 79.3877 111.831H76.0917C75.8771 111.83 75.6714 111.745 75.5192 111.593C75.3671 111.442 75.2807 111.236 75.2788 111.021V109.739H73.0192V111.021C73.0173 111.236 72.9309 111.442 72.7788 111.593C72.6266 111.745 72.4209 111.83 72.2062 111.831H68.9103C68.696 111.83 68.4907 111.745 68.3391 111.593C68.1875 111.441 68.1019 111.236 68.101 111.021V109.739H65.8378V111.021C65.8368 111.236 65.7512 111.441 65.5997 111.593C65.4481 111.745 65.2428 111.83 65.0285 111.831H61.7325C61.5178 111.83 61.3122 111.745 61.16 111.593C61.0079 111.442 60.9215 111.236 60.9195 111.021V109.739H58.66V111.021C58.6581 111.236 58.5717 111.442 58.4195 111.593C58.2674 111.745 58.0617 111.83 57.847 111.831H54.5511C54.3364 111.83 54.1307 111.745 53.9786 111.593C53.8264 111.442 53.74 111.236 53.7381 111.021V109.739H51.4749V111.021C51.4739 111.236 51.3884 111.441 51.2368 111.593C51.0852 111.745 50.8799 111.83 50.6656 111.831H47.3697C47.155 111.83 46.9493 111.745 46.7971 111.593C46.645 111.442 46.5586 111.236 46.5567 111.021V109.739H42.6675C42.448 109.739 42.2375 109.826 42.0823 109.981C41.927 110.137 41.8398 110.347 41.8398 110.567V112.638" stroke="#151116" stroke-width="0.5" stroke-linecap="round" stroke-linejoin="round"/>
<path d="M50.6546 106.902H47.355C46.906 106.902 46.542 107.266 46.542 107.716V111.018C46.542 111.467 46.906 111.831 47.355 111.831H50.6546C51.1036 111.831 51.4676 111.467 51.4676 111.018V107.716C51.4676 107.266 51.1036 106.902 50.6546 106.902Z" stroke="#151116" stroke-width="0.5" stroke-miterlimit="10"/>
<path d="M57.8433 106.902H54.5437C54.0947 106.902 53.7307 107.266 53.7307 107.716V111.018C53.7307 111.467 54.0947 111.831 54.5437 111.831H57.8433C58.2923 111.831 58.6563 111.467 58.6563 111.018V107.716C58.6563 107.266 58.2923 106.902 57.8433 106.902Z" stroke="#151116" stroke-width="0.5" stroke-miterlimit="10"/>
<path d="M65.0285 106.902H61.7289C61.2799 106.902 60.9159 107.266 60.9159 107.716V111.018C60.9159 111.467 61.2799 111.831 61.7289 111.831H65.0285C65.4775 111.831 65.8415 111.467 65.8415 111.018V107.716C65.8415 107.266 65.4775 106.902 65.0285 106.902Z" stroke="#151116" stroke-width="0.5" stroke-miterlimit="10"/>
<path d="M72.2172 106.902H68.9176C68.4686 106.902 68.1046 107.266 68.1046 107.716V111.018C68.1046 111.467 68.4686 111.831 68.9176 111.831H72.2172C72.6662 111.831 73.0302 111.467 73.0302 111.018V107.716C73.0302 107.266 72.6662 106.902 72.2172 106.902Z" stroke="#151116" stroke-width="0.5" stroke-miterlimit="10"/>
<path d="M79.4024 106.902H76.1028C75.6538 106.902 75.2898 107.266 75.2898 107.716V111.018C75.2898 111.467 75.6538 111.831 76.1028 111.831H79.4024C79.8514 111.831 80.2154 111.467 80.2154 111.018V107.716C80.2154 107.266 79.8514 106.902 79.4024 106.902Z" stroke="#151116" stroke-width="0.5" stroke-miterlimit="10"/>
<path d="M86.5874 106.902H83.2878C82.8388 106.902 82.4749 107.266 82.4749 107.716V111.018C82.4749 111.467 82.8388 111.831 83.2878 111.831H86.5874C87.0364 111.831 87.4004 111.467 87.4004 111.018V107.716C87.4004 107.266 87.0364 106.902 86.5874 106.902Z" stroke="#151116" stroke-width="0.5" stroke-miterlimit="10"/>
<path d="M93.7762 106.902H90.4766C90.0276 106.902 89.6636 107.266 89.6636 107.716V111.018C89.6636 111.467 90.0276 111.831 90.4766 111.831H93.7762C94.2252 111.831 94.5891 111.467 94.5891 111.018V107.716C94.5891 107.266 94.2252 106.902 93.7762 106.902Z" stroke="#151116" stroke-width="0.5" stroke-miterlimit="10"/>
<path d="M100.961 106.902H97.6616C97.2126 106.902 96.8486 107.266 96.8486 107.716V111.018C96.8486 111.467 97.2126 111.831 97.6616 111.831H100.961C101.41 111.831 101.774 111.467 101.774 111.018V107.716C101.774 107.266 101.41 106.902 100.961 106.902Z" stroke="#151116" stroke-width="0.5" stroke-miterlimit="10"/>
<path d="M108.15 106.902H104.85C104.401 106.902 104.037 107.266 104.037 107.716V111.018C104.037 111.467 104.401 111.831 104.85 111.831H108.15C108.599 111.831 108.963 111.467 108.963 111.018V107.716C108.963 107.266 108.599 106.902 108.15 106.902Z" stroke="#151116" stroke-width="0.5" stroke-miterlimit="10"/>
<path d="M115.335 106.902H112.036C111.587 106.902 111.223 107.266 111.223 107.716V111.018C111.223 111.467 111.587 111.831 112.036 111.831H115.335C115.784 111.831 116.148 111.467 116.148 111.018V107.716C116.148 107.266 115.784 106.902 115.335 106.902Z" stroke="#151116" stroke-width="0.5" stroke-miterlimit="10"/>
<path d="M122.52 106.902H119.221C118.772 106.902 118.408 107.266 118.408 107.716V111.018C118.408 111.467 118.772 111.831 119.221 111.831H122.52C122.969 111.831 123.333 111.467 123.333 111.018V107.716C123.333 107.266 122.969 106.902 122.52 106.902Z" stroke="#151116" stroke-width="0.5" stroke-miterlimit="10"/>
<path d="M111.329 84.7888H58.5612C57.5783 84.7888 56.6356 84.3981 55.9406 83.7025C55.2456 83.007 54.8551 82.0637 54.8551 81.0801C54.8551 80.0964 55.2456 79.1531 55.9406 78.4576C56.6356 77.762 57.5783 77.3713 58.5612 77.3713H111.329C112.312 77.3713 113.254 77.762 113.949 78.4576C114.644 79.1531 115.035 80.0964 115.035 81.0801C115.035 82.0637 114.644 83.007 113.949 83.7025C113.254 84.3981 112.312 84.7888 111.329 84.7888Z" fill="white"/>
<path d="M111.329 84.7888H58.5612C57.5783 84.7888 56.6356 84.3981 55.9406 83.7025C55.2456 83.007 54.8551 82.0637 54.8551 81.0801C54.8551 80.0964 55.2456 79.1531 55.9406 78.4576C56.6356 77.762 57.5783 77.3713 58.5612 77.3713H111.329C112.312 77.3713 113.254 77.762 113.949 78.4576C114.644 79.1531 115.035 80.0964 115.035 81.0801C115.035 82.0637 114.644 83.007 113.949 83.7025C113.254 84.3981 112.312 84.7888 111.329 84.7888Z" stroke="#151116" stroke-width="0.5" stroke-linecap="round" stroke-linejoin="round"/>
<path d="M112.878 82.5056L111.655 81.2816C111.83 80.9898 111.903 80.6478 111.862 80.3099C111.82 79.9719 111.668 79.6574 111.428 79.4162C111.226 79.2137 110.972 79.0721 110.693 79.0074C110.415 78.9427 110.124 78.9576 109.854 79.0504C109.584 79.1432 109.345 79.3102 109.165 79.5322C108.985 79.7543 108.871 80.0225 108.837 80.3062C108.802 80.5899 108.847 80.8777 108.968 81.1368C109.089 81.3959 109.28 81.6158 109.519 81.7714C109.759 81.9269 110.038 82.012 110.323 82.0168C110.609 82.0215 110.89 81.9458 111.135 81.7983L112.358 83.0224C112.392 83.0567 112.432 83.084 112.477 83.1026C112.522 83.1212 112.57 83.1308 112.618 83.1308C112.666 83.1308 112.714 83.1212 112.759 83.1026C112.803 83.084 112.844 83.0567 112.878 83.0224C112.946 82.9537 112.984 82.8608 112.984 82.764C112.984 82.6672 112.946 82.5743 112.878 82.5056ZM110.937 81.4832C110.716 81.6108 110.459 81.663 110.205 81.6319C109.952 81.6009 109.715 81.4882 109.531 81.3109C109.416 81.2051 109.324 81.0771 109.26 80.9347C109.196 80.7923 109.161 80.6384 109.158 80.4823C109.155 80.3262 109.183 80.171 109.242 80.0262C109.3 79.8814 109.387 79.7499 109.498 79.6396C109.608 79.5293 109.74 79.4425 109.885 79.3844C110.029 79.3263 110.185 79.2981 110.341 79.3016C110.497 79.305 110.65 79.34 110.792 79.4044C110.935 79.4688 111.062 79.5614 111.168 79.6764C111.348 79.8577 111.464 80.094 111.496 80.3481C111.527 80.6022 111.474 80.8597 111.343 81.08C111.297 81.1654 111.238 81.2433 111.168 81.3109C111.1 81.3797 111.022 81.4378 110.937 81.4832Z" fill="#151116"/>
<path d="M79.8857 130.756C79.6037 129.342 79.3913 128.924 77.0622 128.352C75.5636 128.05 74.0133 128.124 72.5504 128.568L72.338 128.634C72.338 128.634 71.7667 126.659 71.3456 126.128C70.9245 125.596 68.9469 120.301 68.7382 119.806C68.498 119.443 68.1819 119.137 67.8116 118.908C67.1195 118.413 66.16 117.933 65.3434 117.93H65.2884C63.8895 117.955 58.7808 117.607 58.7808 117.607C58.7808 117.607 58.0045 116.17 57.3709 115.639C56.7374 115.108 54.335 114.51 53.6319 114.653C53.5473 114.674 53.4651 114.704 53.3865 114.741C52.4417 115.177 50.2517 116.907 50.2517 116.907C50.2517 116.907 50.1748 116.815 50.0503 116.695C49.8066 116.421 49.4797 116.236 49.1201 116.167C48.6734 116.167 46.78 115.617 46.0073 116.013C45.9297 116.05 45.8601 116.103 45.8022 116.167C45.4726 116.555 43.9712 118.138 42.6162 119.502C41.9022 120.258 41.1268 120.955 40.2981 121.583C39.3093 122.166 37.6101 122.441 36.6359 122.73C35.6618 123.02 32.6076 126.029 32.6076 126.029C29.9965 126.546 20.8521 127.099 14.7767 127.418C11.5137 127.594 5.47119 128.433 5.47119 128.433L14.9561 156.817L16.9666 156.12C22.4598 154.196 37.5551 148.978 39.7963 148.663C42.5503 148.274 44.0334 146.933 46.0806 146.695C48.1277 146.456 49.9588 146.16 52.9837 146.695C56.0086 147.23 60.546 145.229 63.9701 144.459C67.3942 143.689 68.848 141.095 69.5109 139.823C70.1737 138.551 71.2028 137.749 73.0375 136.891C74.8722 136.034 75.5094 135.125 76.7802 134.348C77.9557 133.615 79.8491 132.376 79.9077 131.075C79.9143 130.968 79.9069 130.861 79.8857 130.756ZM67.8007 130.756C67.8007 130.756 67.4344 130.94 67.2001 130.734C66.7924 130.485 66.3635 130.273 65.9183 130.1C66.1271 129.532 65.7572 128.814 65.4642 128.224C65.2155 127.656 64.9979 127.075 64.8124 126.483C64.8124 126.483 66.1271 128.352 66.5153 128.634C66.6838 128.778 66.8793 128.886 67.0902 128.953C67.2201 129.589 67.4606 130.197 67.8007 130.749V130.756Z" fill="white"/>
<path opacity="0.4" d="M14.7694 127.41C20.8449 127.092 29.9892 126.538 32.6003 126.021C32.6003 126.021 35.6399 123.027 36.6287 122.723C37.6174 122.419 39.3093 122.159 40.2908 121.576C41.1196 120.947 41.8949 120.251 42.6089 119.494C41.4846 121.188 40.0454 123.225 39.1738 124.013C37.5625 125.479 37.0169 124.013 37.0169 124.013C35.1748 127.249 19.3324 127.429 14.7694 127.41Z" fill="#FFBD00"/>
<path opacity="0.4" d="M46 116.017C46.7727 115.621 48.666 116.17 49.1128 116.17C49.4724 116.239 49.7993 116.425 50.043 116.698C49.5266 117.134 49.1824 117.468 49.1824 117.468C49.1824 117.468 48.2669 116.911 47.1462 116.174C46.9759 116.071 46.7864 116.004 46.5893 115.977C46.3923 115.95 46.1917 115.964 46 116.017Z" fill="#FFBD00"/>
<path opacity="0.4" d="M53.3865 114.741C53.465 114.703 53.5472 114.674 53.6318 114.653C54.335 114.51 56.7373 115.111 57.3709 115.639C58.0044 116.167 58.7808 117.607 58.7808 117.607C58.7808 117.607 63.9078 117.955 65.2884 117.93H65.3433C65.867 119.89 63.2193 120.726 63.2193 120.726C63.2193 120.726 62.5748 117.838 60.0039 117.688C57.4331 117.537 56.5762 118.171 56.5762 118.171C56.5286 115.8 55.6716 115.445 54.1226 114.803C53.8873 114.717 53.633 114.695 53.3865 114.741Z" fill="#FFBD00"/>
<path opacity="0.4" d="M64.8197 126.483C65.0052 127.075 65.2228 127.656 65.4716 128.224C65.7645 128.814 66.1344 129.532 65.9257 130.1C66.3764 130.277 66.8103 130.494 67.2221 130.749C66.4091 130.324 64.8197 129.58 64.8197 129.58C65.3251 128.422 64.025 124.108 64.025 124.108C65.4058 123.832 66.705 123.243 67.8227 122.386C68.7968 121.58 68.3427 120.026 67.8227 118.908C68.1929 119.137 68.5091 119.443 68.7492 119.806C68.9579 120.301 70.9465 125.6 71.3566 126.128C71.7668 126.655 72.3491 128.634 72.3491 128.634L72.5615 128.568C71.0966 129.364 68.8993 130.514 67.8007 130.749C67.4606 130.197 67.2202 129.589 67.0902 128.953C66.8793 128.886 66.6838 128.778 66.5153 128.634C66.1234 128.352 64.8197 126.483 64.8197 126.483Z" fill="#FFBD00"/>
<path opacity="0.4" d="M78.4538 130.21C79.0034 130.383 79.505 130.682 79.9187 131.083C79.8601 132.384 77.9668 133.648 76.7912 134.355C75.5205 135.132 74.8833 136.048 73.0485 136.899C71.2138 137.749 70.1957 138.566 69.5219 139.83C68.8481 141.095 67.4125 143.686 63.9848 144.463C60.557 145.24 56.0196 147.233 52.9984 146.698C49.9771 146.163 48.146 146.464 46.0953 146.698C44.0445 146.933 42.565 148.278 39.811 148.666C37.5698 148.981 22.4892 154.2 16.9813 156.124C22.4745 150.205 40.115 144.598 42.6822 144.902C45.4837 145.24 50.2152 144.085 52.244 143.686C54.2728 143.286 54.6097 142.443 54.6097 142.443C54.6097 143.118 53.8773 143.994 53.8773 143.994C54.2504 144.32 54.6538 144.609 55.0821 144.858C55.7596 145.247 64.4022 143.07 65.9184 141.765C67.4345 140.461 69.5219 137.851 70.2946 137.258C71.0673 136.664 75.3776 135.403 75.9929 134.223C76.6081 133.043 75.2202 130.602 74.9309 130.218C74.6416 129.833 75.7475 129.29 78.4538 130.21Z" fill="#FFBD00"/>
<path opacity="0.4" d="M80.9331 133.798V133.432C80.9421 133.554 80.9421 133.676 80.9331 133.798Z" fill="#FFBD00"/>
<path d="M5.46021 128.426C5.46021 128.426 28.5829 126.802 32.5929 126.025C32.5929 126.025 35.6362 123.027 36.6213 122.727C37.6064 122.426 39.302 122.159 40.2834 121.58C41.2649 121.001 45.2236 116.815 45.7766 116.159C46.3296 115.503 48.6001 116.159 49.0945 116.159C49.5889 116.159 50.2224 116.892 50.2224 116.892C50.2224 116.892 52.9068 114.771 53.6099 114.631C54.313 114.492 56.7154 115.089 57.3526 115.621C57.9898 116.152 58.7625 117.585 58.7625 117.585C58.7625 117.585 63.8675 117.952 65.2665 117.908C66.6654 117.864 68.5148 119.293 68.7198 119.788C68.9249 120.282 70.9171 125.578 71.3273 126.109C71.7374 126.641 72.3197 128.616 72.3197 128.616C72.3197 128.616 74.7148 127.766 77.0439 128.334C79.373 128.902 79.5817 129.32 79.8637 130.734C80.1457 132.149 78.0327 133.56 76.7582 134.337C75.4838 135.114 74.8539 136.03 73.0192 136.88C71.1845 137.73 70.1664 138.548 69.4889 139.812C68.8114 141.076 67.3795 143.671 63.9554 144.448C60.5313 145.225 55.9903 147.219 52.969 146.684C49.9478 146.149 48.1167 146.445 46.0659 146.684C44.0151 146.922 42.5356 148.259 39.7817 148.648C37.0278 149.036 14.9524 156.817 14.9524 156.817" stroke="#151116" stroke-width="0.5" stroke-linecap="round" stroke-linejoin="round"/>
<path d="M58.7809 117.607C57.827 117.637 56.8996 117.928 56.1002 118.45" stroke="#151116" stroke-width="0.5" stroke-linecap="round" stroke-linejoin="round"/>
<path d="M61.8351 118.45C62.7726 118.882 63.4867 121.591 63.4867 121.591" stroke="#151116" stroke-width="0.5" stroke-linecap="round" stroke-linejoin="round"/>
<path d="M64.4279 124.893C64.4279 124.893 64.9406 127.458 65.4606 128.224C65.781 128.729 65.9406 129.319 65.9183 129.917" stroke="#151116" stroke-width="0.5" stroke-linecap="round" stroke-linejoin="round"/>
<path d="M64.4279 129.415C65.3458 129.799 66.2345 130.25 67.0866 130.764C67.7457 131.251 69.8734 129.554 72.3381 128.638" stroke="#151116" stroke-width="0.5" stroke-linecap="round" stroke-linejoin="round"/>
<path d="M64.6366 125.831C65.1028 125.511 65.6346 125.299 66.193 125.212C67.2514 124.999 68.1376 123.412 68.3903 122.386" stroke="#151116" stroke-width="0.5" stroke-linecap="round" stroke-linejoin="round"/>
<path d="M67.808 130.775C67.4567 130.212 67.2087 129.592 67.0756 128.942C66.8647 128.877 66.6691 128.77 66.5006 128.627C66.1124 128.345 64.7977 126.476 64.7977 126.476" stroke="#151116" stroke-width="0.5" stroke-linecap="round" stroke-linejoin="round"/>
<path d="M67.0865 128.953C67.0865 128.953 68.9176 129.133 70.0163 128.25" stroke="#151116" stroke-width="0.5" stroke-linecap="round" stroke-linejoin="round"/>
<path d="M50.2407 116.907C49.5825 117.358 48.8717 117.728 48.124 118.007" stroke="#151116" stroke-width="0.5" stroke-linecap="round" stroke-linejoin="round"/>
<path d="M46.0256 116.002C47.2085 115.892 48.124 116.771 48.2669 116.914" stroke="#151116" stroke-width="0.5" stroke-linecap="round" stroke-linejoin="round"/>
<path d="M53.6282 114.653C53.6282 114.653 55.6753 115.218 56.1001 115.782C56.3495 116.109 56.4961 116.504 56.5213 116.914" stroke="#151116" stroke-width="0.5" stroke-linecap="round" stroke-linejoin="round"/>
<path d="M32.593 126.025C32.593 126.025 34.4607 126.025 35.574 125.318" stroke="#151116" stroke-width="0.5" stroke-linecap="round" stroke-linejoin="round"/>
<path d="M46.0806 146.695C46.0806 146.695 50.1089 145.445 51.7239 145.163C52.6823 145.002 53.5416 144.476 54.1226 143.697" stroke="#151116" stroke-width="0.5" stroke-linecap="round" stroke-linejoin="round"/>
<path d="M74.7332 131.464C74.7332 131.464 75.7695 132.82 75.4363 134.216" stroke="#151116" stroke-width="0.5" stroke-linecap="round" stroke-linejoin="round"/>
<path d="M67.808 132.838C68.9365 133.614 69.7232 134.795 70.0053 136.136" stroke="#151116" stroke-width="0.5" stroke-linecap="round" stroke-linejoin="round"/>
<path d="M50.2408 118.86C50.2408 118.86 46.4358 122.969 44.2825 124.108" stroke="#151116" stroke-width="0.5" stroke-linecap="round" stroke-linejoin="round"/>
<path d="M56.5213 120.019C56.5213 120.019 52.5698 124.189 50.9475 124.893" stroke="#151116" stroke-width="0.5" stroke-linecap="round" stroke-linejoin="round"/>
<path d="M89.9712 116.423C90.0298 117.724 91.9231 118.989 93.0987 119.696C94.3694 120.473 95.0067 121.389 96.8414 122.239C98.6761 123.09 99.6942 123.907 100.368 125.171C101.042 126.436 102.477 129.027 105.905 129.804C109.333 130.58 113.87 132.574 116.892 132.039C119.913 131.504 121.744 131.805 123.795 132.039C125.845 132.274 127.325 133.619 130.079 134.007C132.32 134.322 147.401 139.541 152.909 141.465L154.908 142.158L164.43 113.766C164.43 113.766 162.049 113.66 158.786 113.484C152.711 113.165 139.904 111.879 137.293 111.362C137.293 111.362 134.254 108.368 133.265 108.064C132.276 107.76 130.584 107.5 129.603 106.917C128.774 106.288 127.999 105.592 127.285 104.835C125.911 103.472 124.428 101.903 124.099 101.5C124.041 101.436 123.971 101.384 123.894 101.346C123.121 100.951 121.228 101.5 120.781 101.5C120.421 101.569 120.094 101.755 119.851 102.028C119.726 102.149 119.649 102.241 119.649 102.241C119.649 102.241 117.452 100.511 116.514 100.075C116.436 100.037 116.354 100.008 116.269 99.9867C115.566 99.8438 113.163 100.445 112.53 100.973C111.896 101.5 111.12 102.941 111.12 102.941C111.12 102.941 106.011 103.289 104.612 103.263H104.557C103.741 103.263 102.781 103.747 102.089 104.242C101.719 104.47 101.403 104.776 101.163 105.139C100.954 105.634 98.9654 110.933 98.5553 111.461C98.1451 111.989 97.5628 113.968 97.5628 113.968L97.3504 113.902C95.8876 113.457 94.3373 113.383 92.8387 113.686C90.5096 114.254 90.2972 114.675 90.0152 116.09C89.9853 116.198 89.9705 116.311 89.9712 116.423ZM102.082 116.09C102.422 115.538 102.662 114.93 102.792 114.294C103.003 114.227 103.199 114.119 103.367 113.975C103.755 113.693 105.07 111.824 105.07 111.824C104.885 112.416 104.667 112.997 104.418 113.565C104.125 114.155 103.755 114.873 103.964 115.441C103.514 115.618 103.08 115.835 102.668 116.09C102.452 116.295 102.067 116.112 102.067 116.112C102.073 116.105 102.078 116.098 102.082 116.09Z" fill="white"/>
<path opacity="0.4" d="M158.772 113.484C152.696 113.165 139.89 111.879 137.279 111.362C137.279 111.362 134.239 108.368 133.25 108.064C132.261 107.76 130.57 107.5 129.588 106.917C128.759 106.288 127.984 105.592 127.27 104.835C128.394 106.528 129.834 108.566 130.705 109.354C132.316 110.82 132.862 109.354 132.862 109.354C134.704 112.59 154.209 113.502 158.772 113.484Z" fill="#FFBD00"/>
<path opacity="0.4" d="M123.879 101.357C123.106 100.962 121.213 101.511 120.766 101.511C120.407 101.58 120.08 101.766 119.836 102.039C120.352 102.475 120.697 102.809 120.697 102.809C120.697 102.809 121.612 102.252 122.733 101.515C122.903 101.412 123.093 101.345 123.29 101.318C123.487 101.291 123.687 101.304 123.879 101.357Z" fill="#FFBD00"/>
<path opacity="0.4" d="M116.492 100.082C116.414 100.044 116.332 100.015 116.247 99.994C115.544 99.8511 113.141 100.452 112.508 100.98C111.874 101.508 111.098 102.948 111.098 102.948C111.098 102.948 105.989 103.296 104.59 103.27H104.535C104.012 105.231 106.66 106.067 106.66 106.067C106.66 106.067 107.304 103.179 109.875 103.028C112.446 102.878 113.303 103.512 113.303 103.512C113.35 101.141 114.207 100.786 115.756 100.144C115.992 100.058 116.246 100.036 116.492 100.082Z" fill="#FFBD00"/>
<path opacity="0.4" d="M105.07 111.824C104.885 112.416 104.667 112.997 104.418 113.565C104.125 114.155 103.755 114.873 103.964 115.441C103.513 115.618 103.08 115.835 102.668 116.09C103.481 115.665 105.07 114.921 105.07 114.921C104.565 113.763 105.865 109.449 105.865 109.449C104.484 109.173 103.185 108.584 102.067 107.727C101.093 106.921 101.547 105.367 102.067 104.249C101.697 104.477 101.381 104.784 101.141 105.147C100.932 105.642 98.9434 110.941 98.5332 111.469C98.1231 111.996 97.5408 113.975 97.5408 113.975L97.3284 113.909C98.7932 114.705 100.991 115.855 102.089 116.09C102.429 115.538 102.67 114.93 102.8 114.294C103.011 114.227 103.206 114.119 103.375 113.975C103.755 113.693 105.07 111.824 105.07 111.824Z" fill="#FFBD00"/>
<path opacity="0.4" d="M91.4251 115.551C90.8755 115.724 90.3739 116.022 89.9602 116.423C90.0188 117.724 91.9121 118.989 93.0877 119.696C94.3584 120.473 94.9956 121.389 96.8304 122.239C98.6651 123.09 99.6832 123.907 100.357 125.171C101.031 126.436 102.466 129.027 105.894 129.804C109.322 130.58 113.859 132.574 116.881 132.039C119.902 131.504 121.733 131.804 123.784 132.039C125.834 132.274 127.314 133.619 130.068 134.007C132.309 134.322 147.39 139.541 152.898 141.465C147.404 135.546 129.764 129.939 127.197 130.243C124.395 130.58 119.664 129.426 117.635 129.027C115.606 128.627 115.269 127.784 115.269 127.784C115.269 128.459 116.002 129.334 116.002 129.334C115.629 129.661 115.225 129.95 114.797 130.199C114.119 130.588 105.477 128.411 103.961 127.106C102.444 125.802 100.357 123.192 99.5843 122.599C98.8116 122.005 94.5012 120.744 93.886 119.564C93.2708 118.384 94.6587 115.943 94.948 115.558C95.2373 115.174 94.1167 114.631 91.4251 115.551Z" fill="#FFBD00"/>
<path opacity="0.4" d="M88.9641 119.139V118.772C88.9552 118.894 88.9552 119.017 88.9641 119.139Z" fill="#FFBD00"/>
<path d="M164.43 113.766C164.43 113.766 141.311 112.158 137.297 111.366C137.297 111.366 134.254 108.368 133.269 108.068C132.284 107.767 130.588 107.5 129.607 106.921C128.625 106.342 124.666 102.156 124.113 101.5C123.56 100.844 121.29 101.5 120.795 101.5C120.301 101.5 119.667 102.233 119.667 102.233C119.667 102.233 116.983 100.111 116.28 99.9721C115.577 99.8328 113.175 100.43 112.537 100.962C111.9 101.493 111.127 102.926 111.127 102.926C111.127 102.926 106.022 103.292 104.62 103.248C103.217 103.204 101.375 104.634 101.17 105.128C100.965 105.623 98.9728 110.919 98.5626 111.45C98.1525 111.982 97.5702 113.957 97.5702 113.957C97.5702 113.957 95.1752 113.107 92.846 113.675C90.5169 114.243 90.3082 114.661 90.0225 116.075C89.7369 117.49 91.8536 118.901 93.128 119.678C94.4024 120.455 95.036 121.371 96.8707 122.221C98.7054 123.071 99.7235 123.889 100.397 125.153C101.071 126.417 102.507 129.012 105.934 129.789C109.362 130.566 113.9 132.559 116.921 132.024C119.942 131.489 121.773 131.786 123.824 132.024C125.875 132.263 127.354 133.6 130.108 133.989C132.862 134.377 154.952 142.147 154.952 142.147" stroke="#151116" stroke-width="0.5" stroke-linecap="round" stroke-linejoin="round"/>
<path d="M111.098 102.948C112.052 102.977 112.979 103.269 113.779 103.791" stroke="#151116" stroke-width="0.5" stroke-linecap="round" stroke-linejoin="round"/>
<path d="M108.033 103.791C107.095 104.223 106.381 106.932 106.381 106.932" stroke="#151116" stroke-width="0.5" stroke-linecap="round" stroke-linejoin="round"/>
<path d="M105.469 110.233C105.469 110.233 104.957 112.799 104.437 113.565C104.119 114.071 103.962 114.661 103.986 115.258" stroke="#151116" stroke-width="0.5" stroke-linecap="round" stroke-linejoin="round"/>
<path d="M105.469 114.756C104.551 115.14 103.663 115.591 102.811 116.104C102.152 116.592 100.024 114.895 97.5592 113.979" stroke="#151116" stroke-width="0.5" stroke-linecap="round" stroke-linejoin="round"/>
<path d="M105.239 111.172C104.774 110.851 104.243 110.639 103.686 110.552C102.628 110.34 101.741 108.753 101.489 107.727" stroke="#151116" stroke-width="0.5" stroke-linecap="round" stroke-linejoin="round"/>
<path d="M102.067 116.116C102.419 115.554 102.668 114.933 102.8 114.283C103.011 114.218 103.206 114.111 103.375 113.968C103.763 113.686 105.078 111.817 105.078 111.817" stroke="#151116" stroke-width="0.5" stroke-linecap="round" stroke-linejoin="round"/>
<path d="M102.792 114.294C102.792 114.294 100.961 114.474 99.8627 113.59" stroke="#151116" stroke-width="0.5" stroke-linecap="round" stroke-linejoin="round"/>
<path d="M119.638 102.248C120.296 102.699 121.007 103.068 121.755 103.347" stroke="#151116" stroke-width="0.5" stroke-linecap="round" stroke-linejoin="round"/>
<path d="M123.853 101.343C122.67 101.233 121.755 102.112 121.612 102.255" stroke="#151116" stroke-width="0.5" stroke-linecap="round" stroke-linejoin="round"/>
<path d="M116.251 99.994C116.251 99.994 114.203 100.558 113.779 101.123C113.527 101.449 113.379 101.844 113.354 102.255" stroke="#151116" stroke-width="0.5" stroke-linecap="round" stroke-linejoin="round"/>
<path d="M137.282 111.366C137.282 111.366 135.415 111.366 134.301 110.659" stroke="#151116" stroke-width="0.5" stroke-linecap="round" stroke-linejoin="round"/>
<path d="M123.798 132.035C123.798 132.035 119.77 130.786 118.155 130.504C117.197 130.342 116.337 129.817 115.756 129.038" stroke="#151116" stroke-width="0.5" stroke-linecap="round" stroke-linejoin="round"/>
<path d="M95.1459 116.804C95.1459 116.804 94.1095 118.16 94.4428 119.557" stroke="#151116" stroke-width="0.5" stroke-linecap="round" stroke-linejoin="round"/>
<path d="M102.067 118.179C100.939 118.955 100.152 120.136 99.87 121.477" stroke="#151116" stroke-width="0.5" stroke-linecap="round" stroke-linejoin="round"/>
<path d="M119.638 104.201C119.638 104.201 123.443 108.309 125.596 109.449" stroke="#151116" stroke-width="0.5" stroke-linecap="round" stroke-linejoin="round"/>
<path d="M113.354 105.359C113.354 105.359 117.309 109.53 118.931 110.234" stroke="#151116" stroke-width="0.5" stroke-linecap="round" stroke-linejoin="round"/>
</g>
<defs>
<clipPath id="clip0_1123_46418">
<rect width="169" height="157" fill="white"/>
</clipPath>
</defs>
</svg>
