<svg width="149" height="147" viewBox="0 0 149 147" fill="none" xmlns="http://www.w3.org/2000/svg">
<g clip-path="url(#clip0_1123_46095)">
<path opacity="0.3" d="M5.83911 30.3925H11.1448L13.933 23.1388L16.5858 35.2309L19.0988 19.0697L21.6072 32.174L24.1202 26.0683L26.4933 29.8864H31.5147L33.6081 9.39688L36.3963 44.7721L39.0491 23.0154L41.2824 35.3544L43.9352 29.8864H107.978L110.351 38.794L113.143 21.74L115.377 33.5729L117.885 24.0317L120.538 29.8864H124.865L127.653 33.4453L130.306 21.2339L132.679 44.262L135.327 11.4335L137.7 33.3219L140.488 20.4686L142.722 29.7588H147.608" stroke="#151116" stroke-linecap="round" stroke-linejoin="round"/>
<path opacity="0.3" d="M5.83911 73.3916H11.1448L13.933 66.1421L16.5858 78.2301L19.0988 62.0689L21.6072 75.1732L24.1202 69.0674L26.4933 72.8856H31.5147L33.6081 52.3961L36.3963 87.7713L39.0491 66.0146L41.2824 78.3577L43.9352 72.8856H107.978L110.351 81.7932L113.143 64.7391L115.377 76.5762L117.885 67.0308L120.538 72.8856H124.865L127.653 76.4486L130.306 64.2331L132.679 87.2653L135.327 54.4327L137.7 76.3211L140.488 63.4678L142.722 72.758H147.608" stroke="#151116" stroke-linecap="round" stroke-linejoin="round"/>
<path d="M26.421 111.161C12.8862 111.161 3.7682 106.533 1.81016 98.5674C-0.445652 89.3471 7.85122 75.2801 31.456 66.1956C76.2338 48.9606 121.359 56.0578 135.413 73.5027C137.909 76.5421 139.828 79.9427 141.088 83.5623L137.416 84.5909C136.282 81.3444 134.559 78.2944 132.318 75.5681C125.979 67.6974 111.821 61.9907 94.4472 60.345C74.8894 58.4688 53.0441 61.6904 32.9494 69.4254C17.3482 75.4323 2.92904 87.1171 5.5548 97.8145C7.18801 104.447 15.8052 108.1 28.6182 107.631C41.1605 107.154 55.0473 104.71 69.895 100.369L71.068 103.706C55.8909 108.141 41.6613 110.639 28.7761 111.112C27.9775 111.149 27.1925 111.161 26.421 111.161Z" fill="#151116" stroke="#151116" stroke-linecap="round" stroke-linejoin="round"/>
<path d="M40.4431 92.5111C40.4431 92.5111 44.2645 102.962 55.0292 109.61C67.307 117.073 81.2011 122.04 95.7691 124.175C111.28 126.393 118.327 125.549 121.81 121.114C125.293 116.679 130.491 107.076 124.359 86.4959C118.228 65.9158 116.139 67.2859 116.139 67.2859C115.355 63.7499 113.42 60.512 110.585 57.9957C105.839 53.7744 97.3888 51.0301 97.3888 51.0301C97.3888 51.0301 93.802 54.9346 86.2766 54.9346C78.7513 54.9346 69.9581 52.0834 64.4043 52.2973C58.8505 52.5113 51.5552 59.2629 46.0014 75.4118C40.4476 91.5607 40.4431 92.5111 40.4431 92.5111Z" fill="#FF522F"/>
<path opacity="0.58" d="M111.528 111.503C112.097 110.199 112.385 109.158 110.671 106.566C108.957 103.974 103.24 99.5301 102.672 95.3623C102.103 91.1944 101.815 88.0675 103.813 90.4251C105.812 92.7826 112.67 103.71 113.527 96.9381C114.384 90.1659 106.669 83.3895 106.096 81.826C105.523 80.2626 116.383 81.826 114.953 77.6582C113.522 73.4904 106.953 73.2065 105.244 69.5735C103.534 65.9405 103.529 64.1014 101.815 63.0605C100.529 62.2787 87.7926 56.3458 79.8973 54.4203C78.6701 54.2475 77.443 54.0459 76.2339 53.8361C75.5377 53.759 74.8323 53.8782 74.2126 54.1776C74.2126 54.1776 77.5287 60.452 79.8161 62.2746C82.1035 64.0973 88.6724 64.0973 88.0994 66.965C87.5264 69.8327 87.8152 76.8641 90.671 80.2502C93.5269 83.6364 96.9557 79.7318 94.3841 93.0048C91.8125 106.278 94.3841 110.721 95.2413 112.544C96.0985 114.367 97.2445 118.798 90.3868 119.316C86.1369 119.641 85.7308 121.163 86.4391 122.398C89.498 123.118 92.6155 123.723 95.7827 124.175C107.892 125.907 114.853 125.772 118.972 123.521C118.99 122.86 118.784 122.211 118.381 121.661C116.099 118.275 110.955 112.803 111.528 111.503Z" fill="white"/>
<path opacity="0.58" d="M58.1016 63.5665C57.7362 66.5823 50.2695 73.7002 44.9909 78.3782C40.4792 91.6676 40.4792 92.4987 40.4792 92.4987C40.4792 92.4987 44.3006 102.949 55.0653 109.598C60.9915 113.221 67.3258 116.256 73.96 118.65C73.3283 117.057 72.1553 115.161 70.1251 114.091C66.1233 112.005 63.5562 108.36 60.6958 105.233C57.8354 102.106 56.1255 102.887 53.8427 100.542C51.5598 98.1971 53.8427 91.1656 57.5557 90.1206C61.2688 89.0755 60.9845 85.9527 61.553 82.5666C62.1215 79.1805 66.4301 70.8613 69.5521 69.018C72.6742 67.1748 73.8382 60.6823 73.8382 60.6823C74.8623 57.6501 74.366 54.8153 72.5343 53.1448C69.5025 52.6182 66.7008 52.1944 64.4405 52.2808C60.4432 52.4907 58.6746 58.8761 58.1016 63.5665Z" fill="white"/>
<path d="M40.4431 92.5111C40.4431 92.5111 44.2645 102.962 55.0292 109.61C67.307 117.073 81.2011 122.04 95.7691 124.175C111.28 126.393 118.327 125.549 121.81 121.114C125.293 116.679 130.491 107.076 124.359 86.4959C118.228 65.9158 116.139 67.2859 116.139 67.2859C115.355 63.7499 113.42 60.512 110.585 57.9957C105.839 53.7744 97.3888 51.0301 97.3888 51.0301C97.3888 51.0301 93.802 54.9346 86.2766 54.9346C78.7513 54.9346 69.9581 52.0834 64.4043 52.2973C58.8505 52.5113 51.5552 59.2629 46.0014 75.4118C40.4476 91.5607 40.4431 92.5111 40.4431 92.5111Z" stroke="#151116" stroke-linecap="round" stroke-linejoin="round"/>
<path d="M87.6934 61.1843C87.6934 61.1843 91.3794 65.0642 95.2458 68.6971C97.3392 70.6597 100.912 79.1847 99.5364 85.134C98.1603 91.0834 97.1362 99.3821 99.8838 103.92C102.631 108.458 102.112 113.626 105.032 116.913C107.951 120.201 111.555 120.513 111.898 123.644" stroke="#151116" stroke-linecap="round" stroke-linejoin="round"/>
<path d="M96.4504 69.8903C96.4504 69.8903 99.9424 71.4332 101.517 73.1818C103.435 75.3475 106.092 76.8666 109.065 77.4977C112.557 78.2178 115.485 80.7892 116.284 83.1468" stroke="#151116" stroke-linecap="round" stroke-linejoin="round"/>
<path d="M111.542 96.0864C111.429 95.1607 109.737 91.972 107.147 90.1288C104.558 88.2856 104.219 86.0145 103.322 84.6855C102.424 83.3566 99.8296 83.1426 99.8296 83.1426" stroke="#151116" stroke-linecap="round" stroke-linejoin="round"/>
<path d="M98.1377 95.4693C98.1377 95.4693 98.4761 96.9093 102.758 99.2709C107.039 101.633 107.72 104.714 108.726 106.463" stroke="#151116" stroke-linecap="round" stroke-linejoin="round"/>
<path d="M105.46 101.427C105.46 101.427 106.024 104.718 106.701 106.154" stroke="#151116" stroke-linecap="round" stroke-linejoin="round"/>
<path d="M99.8837 103.92C99.8837 103.92 98.9273 104.406 98.7017 110.466C98.5446 114.504 99.5544 118.508 101.63 122.077" stroke="#151116" stroke-linecap="round" stroke-linejoin="round"/>
<path d="M101.517 107.384C102.18 108.788 103.051 110.102 104.107 111.289C105.911 113.346 111.203 115.091 112.227 115.502" stroke="#151116" stroke-linecap="round" stroke-linejoin="round"/>
<path d="M93.5177 67.1049C93.5177 67.1049 92.8455 68.6477 92.5071 72.2437C92.1688 75.8397 93.8606 77.2756 93.8606 77.2756" stroke="#151116" stroke-linecap="round" stroke-linejoin="round"/>
<path d="M68.9115 53.3053C68.9115 53.3053 70.662 59.0119 68.158 66.7716C65.6541 74.5313 56.6489 81.1472 52.6471 85.2533C48.6453 89.3595 46.6376 94.8398 48.3926 98.4892C50.1476 102.139 53.1478 108.076 63.4073 110.832" stroke="#151116" stroke-linecap="round" stroke-linejoin="round"/>
<path d="M66.4075 70.8777C66.4075 70.8777 67.6617 72.2478 66.4075 78.1807C65.1532 84.1136 67.9098 88.2198 67.9098 88.2198" stroke="#151116" stroke-linecap="round" stroke-linejoin="round"/>
<path d="M49.1415 90.2728C49.1415 90.2728 45.8886 93.0253 45.4059 95.5228C44.9231 98.0202 46.4075 100.316 46.4075 100.316" stroke="#151116" stroke-linecap="round" stroke-linejoin="round"/>
<path d="M55.6472 107.389C55.6472 107.389 58.652 111.042 62.4146 112.869" stroke="#151116" stroke-linecap="round" stroke-linejoin="round"/>
<path d="M116.153 67.2859C115.369 63.7499 113.433 60.512 110.599 57.9957C105.853 53.7743 97.4024 51.0301 97.4024 51.0301C97.4024 51.0301 93.8157 54.9346 86.2903 54.9346C85.4196 54.9346 84.5263 54.8934 83.6239 54.8276C82.3562 56.4734 81.7742 58.2919 82.5863 60.1063C82.5863 60.1063 83.0374 61.4805 85.2481 62.217C87.4588 62.9535 89.1868 61.1637 91.7313 62.0072C94.2759 62.8506 95.2053 64.9613 101.206 65.2781C107.206 65.5949 107.224 65.492 108.727 66.7551C110.229 68.0183 113.956 68.9728 116.153 67.2859Z" fill="#C4C4C4" stroke="#151116" stroke-linecap="round" stroke-linejoin="round"/>
<path d="M42.7711 56.4075C42.7711 56.4075 39.3017 64.4347 39.3017 67.7056C39.3017 70.9765 37.9121 85.4385 38.4896 90.1905C39.0671 94.9426 43.7005 92.9348 46.6105 89.9766C49.5205 87.0184 50.3146 83.8544 55.7556 79.2134C61.1966 74.5724 63.3937 72.7745 65.5909 68.4462C67.7881 64.1178 69.2318 60.7317 68.2212 58.2549C67.2106 55.778 61.4267 50.9231 55.9857 50.0796C50.5446 49.2362 44.3908 51.1247 42.7711 56.4075Z" fill="#C4C4C4" stroke="#151116" stroke-linecap="round" stroke-linejoin="round"/>
<path d="M68.2032 58.2549C68.2032 58.2549 63.1502 59.1148 60.6914 57.3415C58.2325 55.5682 54.8578 54.1652 54.1405 50.055C53.4231 45.9447 52.7058 34.9265 55.882 29.6971C59.0581 24.4678 63.1502 22.2254 63.1502 22.2254L57.1091 16.0086C56.7956 15.6923 56.5695 15.3122 56.4496 14.9001C56.3296 14.4879 56.3193 14.0556 56.4194 13.6391C56.5196 13.2226 56.7274 12.8339 57.0255 12.5054C57.3236 12.1769 57.7034 11.918 58.1333 11.7503L58.2235 11.7174C58.7569 11.5427 59.3343 11.5127 59.886 11.631C60.4376 11.7492 60.9399 12.0108 61.332 12.3839L66.6377 17.2841C66.7954 17.4299 66.984 17.5449 67.1919 17.6221C67.3999 17.6993 67.6229 17.7372 67.8474 17.7333C68.0719 17.7295 68.2933 17.684 68.4979 17.5997C68.7026 17.5154 68.8863 17.394 69.0378 17.243C69.3073 16.9736 69.4607 16.6244 69.4698 16.2599C69.479 15.8954 69.3431 15.5401 69.0875 15.2598L64.1247 9.86591C63.8425 9.55903 63.6514 9.19128 63.5696 8.79781C63.4878 8.40434 63.5181 7.99831 63.6575 7.61855C63.7969 7.23878 64.0408 6.89799 64.3659 6.62874C64.691 6.35949 65.0864 6.1708 65.5143 6.0807L65.6135 6.06013C66.1454 5.97437 66.6927 6.01782 67.2003 6.1861C67.708 6.35438 68.1581 6.64156 68.5055 7.01877L74.6458 13.503C74.8371 13.7043 75.099 13.8389 75.3869 13.8839C75.6748 13.9289 75.9709 13.8816 76.2249 13.7499C76.4421 13.638 76.6183 13.4703 76.7315 13.2675C76.8446 13.0648 76.8897 12.8362 76.861 12.6102L75.8053 4.24569C75.7538 3.86474 75.8021 3.47807 75.9462 3.11743C76.0903 2.75679 76.3262 2.43245 76.6344 2.17105C76.9426 1.90965 77.3144 1.71863 77.7192 1.61367C78.1241 1.50871 78.5505 1.4928 78.9634 1.56725L79.0672 1.58782C79.5568 1.69738 80.0024 1.93086 80.3528 2.26133C80.7032 2.59181 80.9441 3.00585 81.0478 3.45574L83.2404 13.54C83.2404 13.54 88.1581 13.6347 91.7403 24.8422C95.3225 36.0497 92.4577 42.4928 92.0471 44.2661C91.6366 46.0394 78.5123 51.458 74.2307 54.1652C72.1426 55.429 70.1306 56.7942 68.2032 58.2549Z" fill="#FF522F" stroke="#151116" stroke-linecap="round" stroke-linejoin="round"/>
<path d="M47.5806 20.481C47.0403 20.7464 46.5879 21.1391 46.2705 21.6181C45.9531 22.0972 45.7823 22.645 45.7759 23.2047C45.6113 26.9132 45.017 30.5955 44.0028 34.19C42.5796 39.5969 42.0609 45.169 42.4644 50.7174C42.5682 52.7746 42.7712 56.4158 42.7712 56.4158C42.7712 56.4158 46.8677 53.2395 49.2228 51.8406C51.5779 50.4417 54.7044 52.4166 54.7044 52.4166C54.7044 52.4166 53.7299 45.6773 55.2639 42.3117C56.7978 38.9462 63.8675 35.124 66.6331 34.2805C69.3988 33.4371 70.7297 32.0423 69.9086 29.2404C69.0875 26.4385 67.143 25.9489 65.9158 26.2493C64.6886 26.5496 62.4328 26.9981 59.0536 27.463C55.6744 27.9279 55.3676 26.5291 55.1646 24.2908C55.1059 23.6819 55.0744 23.1183 55.0563 22.6451C55.0351 21.8413 54.6782 21.0753 54.0586 20.5033C53.4389 19.9314 52.6033 19.5967 51.7222 19.5676C50.2778 19.5357 48.8495 19.8507 47.5806 20.481Z" fill="#6E6870" stroke="#151116" stroke-linecap="round" stroke-linejoin="round"/>
<path d="M68.1293 33.085C69.2405 32.8915 69.8405 31.298 69.4694 29.5258C69.0983 27.7536 67.8968 26.4738 66.7856 26.6673C65.6745 26.8608 65.0745 28.4543 65.4455 30.2265C65.8166 31.9987 67.0182 33.2785 68.1293 33.085Z" fill="#454545" stroke="#151116" stroke-linecap="round" stroke-linejoin="round"/>
<path d="M66.6377 17.2635L69.9718 20.3123" stroke="#151116" stroke-linecap="round" stroke-linejoin="round"/>
<path d="M74.6638 13.4824L77.0324 16.0909" stroke="#151116" stroke-linecap="round" stroke-linejoin="round"/>
<path d="M68.2031 58.2549C68.2031 58.2549 69.3536 44.6034 78.2415 37.3992C87.1294 30.1949 103.177 27.8086 105.158 27.7798C105.817 27.7798 106.868 29.5984 106.868 32.4496C106.868 35.3009 109.403 38.9174 107.919 39.5181C106.435 40.1188 98.643 40.9993 96.1887 42.501C93.7344 44.0027 95.53 44.0027 97.0098 47.4382C98.4896 50.8737 98.643 51.8036 96.3376 54.3504C94.0322 56.8971 86.3037 60.6536 80.5469 59.9006C74.7901 59.1477 73.969 56.1524 71.9748 56.9013C69.9807 57.6501 68.2031 58.2549 68.2031 58.2549Z" fill="#6E6870" stroke="#151116" stroke-linecap="round" stroke-linejoin="round"/>
<path d="M108.632 33.2396C109.394 36.4817 109.083 39.2918 107.919 39.5181C106.755 39.7444 105.212 37.3005 104.449 34.0584C103.687 30.8162 103.998 28.0061 105.158 27.7798C106.317 27.5536 107.869 29.9975 108.632 33.2396Z" fill="#454545" stroke="#151116" stroke-linecap="round" stroke-linejoin="round"/>
<path d="M89.913 49.9809C89.607 50.6906 89.3626 51.4211 89.1821 52.1656" stroke="#151116" stroke-linecap="round" stroke-linejoin="round"/>
<path d="M96.1751 42.501C94.0185 44.0024 92.2247 45.8933 90.9055 48.0554" stroke="#151116" stroke-linecap="round" stroke-linejoin="round"/>
<path d="M81.5981 30.9932C82.0062 30.4944 82.4493 30.0202 82.9246 29.5737" stroke="#151116" stroke-linecap="round" stroke-linejoin="round"/>
<path d="M75.918 39.3865C75.918 39.3865 77.9211 35.9427 80.0732 32.9722" stroke="#151116" stroke-linecap="round" stroke-linejoin="round"/>
<path d="M92.8547 143.583C86.2316 143.583 81.8283 142.381 79.7078 139.995C78.21 138.304 77.9032 136.057 78.8867 133.667C79.9289 131.104 83.8946 127.154 90.6711 121.929C95.6339 118.111 100.349 114.934 100.398 114.934L102.018 116.954C96.9016 120.365 83.2359 130.178 81.4584 134.552C80.8222 136.123 80.9485 137.432 81.8418 138.44C83.245 140.015 87.9325 142.357 103.592 140.283L103.989 142.751C100.304 143.269 96.5832 143.547 92.8547 143.583Z" fill="white" stroke="#151116" stroke-linecap="round" stroke-linejoin="round"/>
<path d="M93.7569 137.39C92.02 137.39 90.274 137.329 88.546 137.197C75.4398 136.201 68.9295 131.68 68.6543 123.373L71.3974 123.295C71.5553 128.006 73.6532 133.556 88.7761 134.704C103.899 135.852 120.741 131.104 120.908 131.054L121.724 133.445C121.093 133.626 107.666 137.39 93.7569 137.39Z" fill="white" stroke="#151116" stroke-linecap="round" stroke-linejoin="round"/>
<path d="M102.126 145.689C101.16 145.692 100.229 145.363 99.5172 144.767C98.8057 144.171 98.3667 143.353 98.2876 142.475C98.2084 141.597 98.495 140.724 99.0902 140.03C99.6854 139.337 100.545 138.873 101.499 138.732C101.53 138.732 104.698 138.238 107.978 137.452C108.937 137.282 109.931 137.451 110.758 137.925C111.585 138.399 112.183 139.143 112.431 140.005C112.678 140.866 112.557 141.782 112.091 142.565C111.625 143.348 110.849 143.94 109.922 144.22C106.286 145.093 102.888 145.611 102.749 145.632C102.543 145.666 102.335 145.685 102.126 145.689Z" fill="#151116" stroke="#151116" stroke-linecap="round" stroke-linejoin="round"/>
<path d="M70.3959 128.857C69.658 128.857 68.936 128.662 68.316 128.297C67.696 127.933 67.2042 127.413 66.8994 126.8C65.6677 124.332 65.6316 121.316 65.6316 120.978C65.6983 120.092 66.1313 119.262 66.8431 118.656C67.555 118.05 68.4926 117.713 69.4665 117.713C70.4404 117.713 71.378 118.05 72.0898 118.656C72.8016 119.262 73.2347 120.092 73.3013 120.978C73.3131 121.98 73.5083 122.973 73.8788 123.916C74.1391 124.449 74.2496 125.033 74.2002 125.614C74.1508 126.196 73.9432 126.758 73.5961 127.248C73.249 127.738 72.7733 128.141 72.2122 128.422C71.6511 128.702 71.0221 128.85 70.3823 128.853L70.3959 128.857Z" fill="#151116" stroke="#151116" stroke-linecap="round" stroke-linejoin="round"/>
<path d="M139.054 107.166C141.44 103.431 145.884 94.3913 142.135 83.2743C141.878 82.6019 141.345 82.0467 140.648 81.7252C139.951 81.4037 139.145 81.3411 138.398 81.5504C137.652 81.7597 137.023 82.2247 136.645 82.8477C136.267 83.4707 136.168 84.2032 136.369 84.8912C137.427 88.0635 137.767 91.3986 137.369 94.6942C136.971 97.9899 135.844 101.178 134.055 104.064C132.999 103.776 131.632 103.443 130.058 103.143C126.119 102.386 123.191 102.357 117.199 104.241C111.578 106.01 98.1694 114.889 96.658 115.897C96.0119 116.328 95.58 116.976 95.4573 117.697C95.3346 118.418 95.5312 119.155 96.0039 119.744C96.4765 120.333 97.1865 120.727 97.9776 120.839C98.7686 120.951 99.5761 120.772 100.222 120.341C104.12 117.74 115.133 110.713 119.171 109.446C124.102 107.895 125.979 107.981 128.821 108.528C130.436 108.835 132.03 109.228 133.595 109.705C135.236 111.524 136.337 113.697 136.793 116.016C137.984 123.011 125.356 127.393 118.575 129.738L117.29 130.186C116.542 130.448 115.94 130.97 115.615 131.637C115.289 132.304 115.268 133.062 115.555 133.743C115.842 134.425 116.414 134.974 117.146 135.271C117.877 135.567 118.708 135.587 119.455 135.325L120.714 134.885C129.097 132.005 144.698 126.594 142.753 115.173C142.216 112.279 140.95 109.538 139.054 107.166Z" fill="white" stroke="#151116" stroke-linecap="round" stroke-linejoin="round"/>
<path d="M35.9316 107.133L36.6219 110.585C47.3641 109.557 58.9138 107.249 71.0772 103.694L69.9041 100.357C57.8762 103.871 46.4843 106.142 35.9316 107.133Z" fill="#151116" stroke="#151116" stroke-linecap="round" stroke-linejoin="round"/>
<path d="M112.343 101.018C118.647 95.2687 118.647 85.9477 112.343 80.1988C106.039 74.4498 95.818 74.4498 89.5139 80.1988C83.2098 85.9477 83.2098 95.2687 89.5139 101.018C95.818 106.767 106.039 106.767 112.343 101.018Z" fill="#151116" stroke="#151116" stroke-linecap="round" stroke-linejoin="round"/>
<path d="M113.819 101.017C120.123 95.2677 120.123 85.9468 113.819 80.1978C107.515 74.4489 97.2943 74.4489 90.9902 80.1978C84.6861 85.9468 84.6861 95.2677 90.9902 101.017C97.2943 106.766 107.515 106.766 113.819 101.017Z" fill="white" stroke="#151116" stroke-linecap="round" stroke-linejoin="round"/>
<path d="M71.3208 104.41L69.647 99.6453C79.3372 96.843 88.7876 93.3927 97.9213 89.3224L100.448 93.7577C99.9425 93.9881 88.2078 99.4725 71.3208 104.41Z" fill="white" stroke="#151116" stroke-linecap="round" stroke-linejoin="round"/>
<path d="M100.93 96.5678C104.541 96.5678 107.468 93.8987 107.468 90.6061C107.468 87.3136 104.541 84.6444 100.93 84.6444C97.3199 84.6444 94.3931 87.3136 94.3931 90.6061C94.3931 93.8987 97.3199 96.5678 100.93 96.5678Z" fill="#151116" stroke="#151116" stroke-linecap="round" stroke-linejoin="round"/>
<path d="M102.036 96.5678C105.646 96.5678 108.573 93.8987 108.573 90.6061C108.573 87.3136 105.646 84.6444 102.036 84.6444C98.4254 84.6444 95.4985 87.3136 95.4985 90.6061C95.4985 93.8987 98.4254 96.5678 102.036 96.5678Z" fill="white" stroke="#151116" stroke-linecap="round" stroke-linejoin="round"/>
</g>
<defs>
<clipPath id="clip0_1123_46095">
<rect width="149" height="146.28" fill="white"/>
</clipPath>
</defs>
</svg>
