<svg width="177" height="148" viewBox="0 0 177 148" fill="none" xmlns="http://www.w3.org/2000/svg">
<g clip-path="url(#clip0_1123_46610)">
<path d="M90.7151 0.252747L82.5882 1.97292C81.4925 2.20485 80.7913 3.28582 81.022 4.38733L82.7331 12.5572C82.9638 13.6587 84.0391 14.3637 85.1348 14.1318L93.2617 12.4116C94.3574 12.1797 95.0587 11.0987 94.828 9.99717L93.1168 1.82728C92.8861 0.725765 91.8109 0.0208217 90.7151 0.252747Z" stroke="#151116" stroke-linecap="round" stroke-linejoin="round"/>
<path d="M87.4086 4.70508L88.4482 9.66243" stroke="#151116" stroke-linecap="round" stroke-linejoin="round"/>
<path d="M90.3919 6.66319L85.4607 7.70832" stroke="#151116" stroke-linecap="round" stroke-linejoin="round"/>
<path d="M172.638 87.6003L164.512 89.3205C163.416 89.5524 162.715 90.6333 162.945 91.7349L164.656 99.9048C164.887 101.006 165.962 101.711 167.058 101.479L175.185 99.7591C176.281 99.5272 176.982 98.4462 176.751 97.3447L175.04 89.1748C174.809 88.0733 173.734 87.3684 172.638 87.6003Z" stroke="#151116" stroke-linecap="round" stroke-linejoin="round"/>
<path d="M171.228 92.4078L168.476 96.6524" stroke="#151116" stroke-linecap="round" stroke-linejoin="round"/>
<path d="M171.961 95.9156L167.739 93.1486" stroke="#151116" stroke-linecap="round" stroke-linejoin="round"/>
<path d="M63.1827 140.331L54.8914 139.85C53.7735 139.786 52.8151 140.644 52.7506 141.768L52.2725 150.103C52.2081 151.227 53.062 152.19 54.1799 152.255L62.4712 152.736C63.5891 152.801 64.5476 151.942 64.6121 150.818L65.0901 142.483C65.1546 141.359 64.3006 140.396 63.1827 140.331Z" stroke="#151116" stroke-linecap="round" stroke-linejoin="round"/>
<path d="M61.1868 146.442L56.152 146.15" stroke="#151116" stroke-linecap="round" stroke-linejoin="round"/>
<path d="M13.3608 82.6658L5.4771 80.0401C4.41417 79.6861 3.26702 80.2654 2.91487 81.3339L0.303005 89.2593C-0.0491426 90.3279 0.527061 91.4811 1.58999 91.8351L9.47369 94.4608C10.5366 94.8148 11.6838 94.2355 12.0359 93.167L14.6478 85.2416C14.9999 84.173 14.4237 83.0198 13.3608 82.6658Z" stroke="#151116" stroke-linecap="round" stroke-linejoin="round"/>
<path d="M10.6273 85.6605L4.32178 88.8439" stroke="#151116" stroke-linecap="round" stroke-linejoin="round"/>
<path d="M7.01054 84.3511C7.08616 84.5077 7.11412 84.6834 7.09093 84.8559C7.06774 85.0285 6.99442 85.1903 6.88015 85.3212C6.76588 85.4521 6.61575 85.5462 6.44855 85.5916C6.28135 85.6371 6.10451 85.632 5.94018 85.577C5.77585 85.5219 5.63134 85.4193 5.52473 85.2821C5.41812 85.1448 5.35416 84.979 5.34086 84.8054C5.32755 84.6318 5.3655 84.4581 5.44994 84.306C5.53438 84.154 5.66156 84.0304 5.81556 83.9506C5.9199 83.8966 6.03393 83.8641 6.15094 83.8551C6.26796 83.846 6.38559 83.8606 6.49693 83.8979C6.60827 83.9352 6.71106 83.9945 6.79927 84.0723C6.88747 84.1502 6.9593 84.2449 7.01054 84.3511Z" stroke="#151116" stroke-linecap="round" stroke-linejoin="round"/>
<path d="M9.51195 89.3605C9.58635 89.5165 9.61342 89.691 9.58978 89.8624C9.56615 90.0337 9.49284 90.1943 9.37902 90.3241C9.2652 90.4538 9.1159 90.547 8.94974 90.592C8.78358 90.637 8.60791 90.6318 8.44466 90.5771C8.28141 90.5224 8.13779 90.4206 8.03172 90.2844C7.92565 90.1481 7.86182 89.9835 7.84821 89.8111C7.83459 89.6386 7.87178 89.466 7.95514 89.3146C8.03851 89.1633 8.16435 89.04 8.31697 88.9601C8.42131 88.906 8.53534 88.8736 8.65236 88.8645C8.76937 88.8554 8.88701 88.87 8.99834 88.9073C9.10968 88.9446 9.21247 89.0039 9.30068 89.0817C9.38888 89.1596 9.46071 89.2543 9.51195 89.3605V89.3605Z" stroke="#151116" stroke-linecap="round" stroke-linejoin="round"/>
<path d="M91.2165 138.345C90.3909 139.545 89.23 140.472 87.8805 141.008C86.5311 141.544 85.0537 141.666 83.6352 141.359C82.2168 141.051 80.9209 140.327 79.9115 139.279C78.9021 138.231 78.2246 136.906 77.9644 135.471C77.7043 134.036 77.8733 132.555 78.4502 131.217C79.027 129.878 79.9857 128.742 81.205 127.951C82.4244 127.16 83.8496 126.75 85.3005 126.774C86.7515 126.797 88.1629 127.252 89.3564 128.082C90.9561 129.196 92.0506 130.902 92.3994 132.827C92.7482 134.751 92.3228 136.736 91.2165 138.345Z" fill="#FF522F"/>
<path opacity="0.3" d="M90.2726 137.681C89.5777 138.69 88.6008 139.469 87.4652 139.921C86.3297 140.372 85.0866 140.474 83.8931 140.215C82.6996 139.956 81.6093 139.348 80.76 138.466C79.9107 137.584 79.3406 136.469 79.1217 135.261C78.9029 134.053 79.0451 132.808 79.5304 131.681C80.0157 130.555 80.8224 129.599 81.8483 128.933C82.8743 128.268 84.0735 127.923 85.2943 127.943C86.5152 127.962 87.7028 128.345 88.7071 129.043C89.3742 129.507 89.9439 130.098 90.3836 130.783C90.8233 131.468 91.1245 132.234 91.2698 133.036C91.4152 133.838 91.402 134.661 91.2308 135.458C91.0597 136.255 90.7341 137.01 90.2726 137.681Z" fill="black" fill-opacity="0.7"/>
<path d="M90.2726 137.681C89.5777 138.69 88.6008 139.469 87.4652 139.921C86.3297 140.372 85.0866 140.474 83.8931 140.215C82.6996 139.956 81.6093 139.348 80.76 138.466C79.9107 137.584 79.3406 136.469 79.1217 135.261C78.9029 134.053 79.0451 132.808 79.5304 131.681C80.0157 130.555 80.8224 129.599 81.8483 128.933C82.8743 128.268 84.0735 127.923 85.2943 127.943C86.5152 127.962 87.7028 128.345 88.7071 129.043C89.3742 129.507 89.9439 130.098 90.3836 130.783C90.8233 131.468 91.1245 132.234 91.2698 133.036C91.4152 133.838 91.402 134.661 91.2308 135.458C91.0597 136.255 90.7341 137.01 90.2726 137.681V137.681Z" stroke="#151116" stroke-width="0.5" stroke-linecap="round" stroke-linejoin="round"/>
<path d="M86.7753 131.053L87.0741 130.621L87.8149 131.138L87.5162 131.566C88.0699 132.147 88.0579 132.871 87.5162 133.66L87.3927 133.84L86.5323 133.248L86.6996 133.008C86.9824 132.607 86.9267 132.319 86.6399 132.119C86.3531 131.918 86.0782 131.962 85.7914 132.375C85.5046 132.787 85.4728 133.196 85.7476 134.105C86.0782 135.218 86.0225 135.851 85.5644 136.507C85.0227 137.308 84.3376 137.565 83.6046 137.248L83.3139 137.673L82.573 137.156L82.8637 136.732C82.3021 136.147 82.322 135.414 82.8637 134.629L83.1386 134.229L83.995 134.826L83.6803 135.282C83.3935 135.682 83.4732 135.971 83.764 136.171C84.0547 136.371 84.3336 136.347 84.6204 135.935C84.9072 135.522 84.943 135.106 84.6642 134.205C84.3296 133.1 84.3933 132.459 84.8474 131.802C85.3812 131.025 86.0384 130.753 86.7753 131.053Z" fill="#FFBD00" stroke="#151116" stroke-width="0.5" stroke-linecap="round" stroke-linejoin="round"/>
<path opacity="0.2" d="M83.1465 128.17C83.1475 129.895 82.7021 131.59 81.8543 133.088C81.0065 134.587 79.7853 135.839 78.3108 136.72C77.9609 135.774 77.808 134.765 77.8615 133.757C77.915 132.75 78.1739 131.763 78.622 130.86C79.0701 129.957 79.698 129.156 80.4667 128.506C81.2354 127.857 82.1285 127.373 83.0908 127.085C83.1295 127.446 83.1481 127.808 83.1465 128.17Z" fill="black" fill-opacity="0.7"/>
<path d="M91.2165 138.345C90.3909 139.545 89.23 140.472 87.8805 141.008C86.5311 141.544 85.0537 141.666 83.6352 141.359C82.2168 141.051 80.9209 140.327 79.9115 139.279C78.9021 138.231 78.2246 136.906 77.9644 135.471C77.7043 134.036 77.8733 132.555 78.4502 131.217C79.027 129.878 79.9857 128.742 81.205 127.951C82.4244 127.16 83.8496 126.75 85.3005 126.774C86.7515 126.797 88.1629 127.252 89.3564 128.082C90.9561 129.196 92.0506 130.902 92.3994 132.827C92.7482 134.751 92.3228 136.736 91.2165 138.345V138.345Z" stroke="#151116" stroke-width="0.5" stroke-linecap="round" stroke-linejoin="round"/>
<path d="M74.714 135.322C78.7684 135.322 82.0551 132.018 82.0551 127.942C82.0551 123.866 78.7684 120.562 74.714 120.562C70.6595 120.562 67.3728 123.866 67.3728 127.942C67.3728 132.018 70.6595 135.322 74.714 135.322Z" fill="#FF522F" stroke="#151116" stroke-width="0.5" stroke-linecap="round" stroke-linejoin="round"/>
<path opacity="0.3" d="M74.714 134.149C78.1238 134.149 80.888 131.37 80.888 127.942C80.888 124.514 78.1238 121.735 74.714 121.735C71.3041 121.735 68.5399 124.514 68.5399 127.942C68.5399 131.37 71.3041 134.149 74.714 134.149Z" fill="black" fill-opacity="0.7"/>
<path d="M74.714 134.149C78.1238 134.149 80.888 131.37 80.888 127.942C80.888 124.514 78.1238 121.735 74.714 121.735C71.3041 121.735 68.5399 124.514 68.5399 127.942C68.5399 131.37 71.3041 134.149 74.714 134.149Z" stroke="#151116" stroke-width="0.5" stroke-linecap="round" stroke-linejoin="round"/>
<path d="M74.2637 124.49V123.966H75.164V124.49C75.9606 124.651 76.3589 125.255 76.3589 126.212V126.433H75.3193V126.136C75.3193 125.632 75.1162 125.443 74.7656 125.443C74.4151 125.443 74.2159 125.632 74.2159 126.136C74.2159 126.641 74.4151 126.993 75.156 127.586C76.0602 128.311 76.351 128.863 76.351 129.672C76.351 130.629 75.9526 131.242 75.156 131.402V131.914H74.2558V131.402C73.4591 131.242 73.0608 130.629 73.0608 129.672V129.187H74.1004V129.74C74.1004 130.245 74.3235 130.425 74.674 130.425C75.0245 130.425 75.2436 130.245 75.2436 129.74C75.2436 129.236 75.0445 128.875 74.3036 128.291C73.3994 127.578 73.1086 127.013 73.1086 126.208C73.1006 125.263 73.491 124.663 74.2637 124.49Z" fill="#FFBD00" stroke="#151116" stroke-width="0.5" stroke-linecap="round" stroke-linejoin="round"/>
<path d="M115.913 134.14C118.1 130.708 117.106 126.143 113.692 123.944C110.279 121.745 105.738 122.745 103.551 126.177C101.363 129.608 102.358 134.173 105.771 136.372C109.185 138.571 113.726 137.571 115.913 134.14Z" fill="#FF522F" stroke="#151116" stroke-width="0.5" stroke-linecap="round" stroke-linejoin="round"/>
<path opacity="0.3" d="M114.256 125.94C115.087 126.839 115.634 127.966 115.828 129.179C116.022 130.391 115.854 131.633 115.346 132.75C114.837 133.866 114.011 134.805 112.971 135.449C111.931 136.093 110.725 136.413 109.504 136.367C108.284 136.322 107.104 135.914 106.115 135.194C105.125 134.475 104.37 133.476 103.945 132.326C103.52 131.175 103.444 129.923 103.726 128.729C104.009 127.534 104.637 126.451 105.532 125.616C106.732 124.496 108.325 123.901 109.961 123.962C111.597 124.023 113.141 124.734 114.256 125.94Z" fill="black" fill-opacity="0.7"/>
<path d="M114.256 125.94C115.087 126.839 115.634 127.966 115.828 129.179C116.022 130.391 115.854 131.633 115.346 132.75C114.837 133.866 114.011 134.805 112.971 135.449C111.931 136.093 110.725 136.413 109.504 136.367C108.284 136.322 107.104 135.914 106.115 135.194C105.125 134.475 104.37 133.476 103.945 132.326C103.52 131.175 103.444 129.923 103.726 128.729C104.009 127.534 104.637 126.451 105.532 125.616C106.732 124.496 108.325 123.901 109.961 123.962C111.597 124.023 113.141 124.734 114.256 125.94V125.94Z" stroke="#151116" stroke-width="0.5" stroke-linecap="round" stroke-linejoin="round"/>
<path d="M107.066 127.942L106.711 127.542L107.373 126.925L107.727 127.325C108.408 126.925 109.109 127.077 109.759 127.778L109.906 127.942L109.141 128.655L108.942 128.439C108.599 128.07 108.325 128.066 108.07 128.307C107.815 128.547 107.795 128.823 108.133 129.195C108.472 129.568 108.862 129.684 109.806 129.596C110.958 129.512 111.559 129.704 112.105 130.293C112.754 130.993 112.866 131.726 112.404 132.379L112.75 132.755L112.093 133.372L111.742 132.996C111.053 133.416 110.344 133.24 109.699 132.539L109.372 132.187L110.133 131.474L110.507 131.874C110.85 132.243 111.133 132.227 111.392 131.986C111.651 131.746 111.687 131.462 111.344 131.094C111.001 130.725 110.611 130.597 109.675 130.693C108.532 130.785 107.922 130.585 107.377 129.996C106.751 129.304 106.616 128.595 107.066 127.942Z" fill="#FFBD00" stroke="#151116" stroke-width="0.5" stroke-linecap="round" stroke-linejoin="round"/>
<path opacity="0.2" d="M106.711 98.1059C106.711 98.1059 106.68 113.414 106.711 114.311C106.743 115.208 107.906 120.582 107.906 120.582L104.206 127.434L107.393 130.016L113.587 123.894C113.587 123.894 118.86 127.169 119.824 131.854C120.788 136.539 126.528 139.951 132.483 152.921C138.438 165.891 145.23 123.894 145.23 123.894L126.855 100.637L106.711 98.1059Z" fill="black" fill-opacity="0.7"/>
<path d="M162.883 15.8211L157.255 71.0327L153.793 104.997L105.421 100.016L96.0084 99.0469L89.9817 98.4263L95.3232 46.0097L99.0715 9.24998L162.883 15.8211Z" fill="white"/>
<path d="M144.349 17.8833L116.805 15.0482C116.557 15.0228 116.309 15.0975 116.115 15.2559C115.922 15.4144 115.799 15.6436 115.773 15.8932C115.748 16.1427 115.822 16.3922 115.98 16.5867C116.137 16.7812 116.366 16.9048 116.614 16.9303L144.158 19.7653C144.406 19.7908 144.654 19.7161 144.848 19.5577C145.041 19.3992 145.164 19.17 145.19 18.9204C145.215 18.6709 145.141 18.4214 144.983 18.2269C144.825 18.0324 144.597 17.9088 144.349 17.8833Z" fill="#151116"/>
<path d="M137.072 21.0427L123.298 19.6212C123.236 19.6145 123.174 19.6201 123.115 19.6377C123.055 19.6552 123 19.6843 122.952 19.7234C122.904 19.7624 122.864 19.8107 122.834 19.8653C122.805 19.9199 122.786 19.9798 122.78 20.0416C122.768 20.1669 122.805 20.2919 122.884 20.3894C122.963 20.4869 123.078 20.5491 123.202 20.5622L136.976 21.9797C137.1 21.9925 137.224 21.9551 137.321 21.8759C137.418 21.7967 137.479 21.6821 137.492 21.5573C137.505 21.4325 137.468 21.3078 137.389 21.2105C137.31 21.1133 137.196 21.0515 137.072 21.0387V21.0427Z" fill="#151116"/>
<path d="M152.224 61.7907L107.516 57.1857C107.392 57.173 107.268 57.2103 107.171 57.2896C107.074 57.3688 107.013 57.4834 107 57.6082C106.987 57.733 107.025 57.8577 107.103 57.955C107.182 58.0522 107.296 58.114 107.42 58.1268L152.128 62.7317C152.249 62.7454 152.37 62.7113 152.466 62.6365C152.562 62.5617 152.625 62.4522 152.642 62.3313C152.652 62.268 152.648 62.2033 152.632 62.1414C152.616 62.0794 152.588 62.0214 152.549 61.9708C152.509 61.9203 152.46 61.8782 152.405 61.8473C152.349 61.8163 152.287 61.7971 152.224 61.7907Z" fill="#151116"/>
<path d="M151.878 65.1744L99.892 59.8206C99.7679 59.8078 99.6438 59.8452 99.5471 59.9244C99.4504 60.0036 99.3889 60.1183 99.3762 60.243C99.3635 60.3678 99.4007 60.4926 99.4795 60.5898C99.5583 60.6871 99.6723 60.7489 99.7964 60.7616L151.782 66.1154C151.843 66.122 151.906 66.1164 151.965 66.0989C152.024 66.0814 152.08 66.0522 152.128 66.0132C152.176 65.9741 152.216 65.9259 152.245 65.8713C152.275 65.8167 152.293 65.7567 152.3 65.6949C152.312 65.5697 152.274 65.4447 152.195 65.3471C152.116 65.2496 152.002 65.1875 151.878 65.1744Z" fill="#151116"/>
<path d="M136.976 67.0604L99.5335 63.2042C99.4721 63.1979 99.41 63.2039 99.3508 63.2217C99.2916 63.2395 99.2365 63.2688 99.1886 63.3081C99.1407 63.3473 99.1009 63.3956 99.0716 63.4503C99.0423 63.505 99.024 63.5649 99.0177 63.6267C99.0114 63.6885 99.0173 63.7509 99.035 63.8104C99.0527 63.8699 99.082 63.9253 99.121 63.9735C99.16 64.0216 99.2081 64.0616 99.2625 64.0911C99.3168 64.1205 99.3765 64.1389 99.4379 64.1453L136.881 68.0014C136.942 68.0077 137.004 68.0018 137.063 67.984C137.122 67.9662 137.178 67.9368 137.225 67.8976C137.273 67.8584 137.313 67.81 137.342 67.7554C137.372 67.7007 137.39 67.6408 137.396 67.579C137.403 67.5172 137.397 67.4547 137.379 67.3953C137.361 67.3358 137.332 67.2803 137.293 67.2322C137.254 67.184 137.206 67.1441 137.152 67.1146C137.097 67.0851 137.038 67.0667 136.976 67.0604Z" fill="#151116"/>
<path d="M98.9619 66.8554L97.441 81.7774L149.849 87.1755L151.37 72.2534L98.9619 66.8554Z" fill="#BFBFBF" stroke="#151116" stroke-miterlimit="10"/>
<path d="M122.993 49.5916C127.944 45.4453 128.613 38.0497 124.489 33.0731C120.364 28.0965 113.007 27.4234 108.057 31.5698C103.106 35.7161 102.437 43.1117 106.562 48.0883C110.686 53.0649 118.043 53.738 122.993 49.5916Z" fill="#FFBD00"/>
<path opacity="0.5" d="M122.993 49.5916C127.944 45.4453 128.613 38.0497 124.489 33.0731C120.364 28.0965 113.007 27.4234 108.057 31.5698C103.106 35.7161 102.437 43.1117 106.562 48.0883C110.686 53.0649 118.043 53.738 122.993 49.5916Z" fill="white"/>
<path d="M122.993 49.5916C127.944 45.4453 128.613 38.0497 124.489 33.0731C120.364 28.0965 113.007 27.4234 108.057 31.5698C103.106 35.7161 102.437 43.1117 106.562 48.0883C110.686 53.0649 118.043 53.738 122.993 49.5916Z" stroke="#151116" stroke-miterlimit="10"/>
<path d="M115.861 40.5478L125.564 45.4571C126.472 43.5667 126.833 41.4578 126.605 39.3711C126.378 37.2844 125.571 35.3041 124.278 33.6563L115.861 40.5478Z" fill="white"/>
<path d="M115.913 40.0192L124.035 33.372C122.82 31.9198 121.259 30.801 119.498 30.1205L118.032 34.1689L115.913 40.0192Z" fill="#FF522F"/>
<path d="M116.845 29.4638L115.861 39.1303L119.171 29.9964C118.417 29.7358 117.637 29.5572 116.845 29.4638Z" fill="#757575"/>
<path d="M115.355 40.4437L116.482 29.4118C114.562 29.2496 112.632 29.5905 110.882 30.4013C109.131 31.212 107.62 32.4649 106.494 34.0379C105.369 35.6108 104.668 37.45 104.461 39.3762C104.253 41.3024 104.545 43.2498 105.309 45.0286L115.355 40.4437Z" fill="#999999"/>
<path d="M114.391 51.7278C116.607 51.9553 118.84 51.5104 120.802 50.4506C122.765 49.3908 124.366 47.7645 125.401 45.7814L115.514 40.788L105.449 45.385C106.269 47.1271 107.524 48.6265 109.091 49.7378C110.658 50.8491 112.483 51.5346 114.391 51.7278Z" fill="#BFBFBF"/>
<path d="M134.245 32.9677L132.917 32.831C132.779 32.8168 132.656 32.9177 132.642 33.0563L132.506 34.3907C132.492 34.5293 132.592 34.6532 132.73 34.6674L134.058 34.8041C134.196 34.8183 134.319 34.7175 134.333 34.5789L134.469 33.2444C134.483 33.1058 134.383 32.9819 134.245 32.9677Z" fill="#FFBD00" stroke="#151116" stroke-miterlimit="10"/>
<path d="M152.742 35.5544L135.614 33.7845C135.584 33.7846 135.555 33.7785 135.528 33.7666C135.501 33.7547 135.477 33.7373 135.457 33.7154C135.437 33.6935 135.422 33.6677 135.413 33.6395C135.403 33.6114 135.4 33.5816 135.403 33.5521C135.406 33.5226 135.415 33.494 135.429 33.4682C135.443 33.4423 135.463 33.4198 135.487 33.4021C135.51 33.3844 135.538 33.3718 135.566 33.3653C135.595 33.3587 135.625 33.3583 135.654 33.364L152.806 35.1299C152.861 35.136 152.912 35.1638 152.947 35.2073C152.982 35.2508 152.998 35.3065 152.993 35.3622C152.99 35.3918 152.981 35.4205 152.967 35.4465C152.952 35.4726 152.933 35.4953 152.909 35.5133C152.886 35.5314 152.859 35.5444 152.83 35.5514C152.801 35.5585 152.771 35.5595 152.742 35.5544Z" fill="#151116"/>
<path d="M150.965 36.2992L135.494 34.6975C135.467 34.6946 135.44 34.6862 135.415 34.6729C135.391 34.6595 135.369 34.6415 135.352 34.6197C135.334 34.598 135.321 34.573 135.313 34.5461C135.305 34.5193 135.302 34.4911 135.305 34.4632C135.308 34.4353 135.316 34.4083 135.33 34.3837C135.343 34.359 135.361 34.3373 135.383 34.3196C135.404 34.3019 135.429 34.2887 135.456 34.2807C135.482 34.2727 135.511 34.2701 135.538 34.273L151.009 35.8747C151.065 35.8808 151.115 35.9086 151.15 35.9521C151.185 35.9956 151.202 36.0513 151.196 36.107C151.19 36.163 151.163 36.2143 151.12 36.2502C151.077 36.2861 151.021 36.3037 150.965 36.2992Z" fill="#151116"/>
<path d="M133.83 37.084L132.502 36.9472C132.364 36.933 132.241 37.0339 132.227 37.1725L132.091 38.5069C132.077 38.6455 132.177 38.7694 132.315 38.7836L133.642 38.9203C133.78 38.9345 133.904 38.8337 133.918 38.6951L134.054 37.3606C134.068 37.222 133.968 37.0982 133.83 37.084Z" fill="#757575" stroke="#151116" stroke-linecap="round" stroke-linejoin="round"/>
<path d="M152.324 39.6668L135.172 37.9009C135.116 37.8951 135.064 37.8671 135.029 37.8232C134.993 37.7793 134.977 37.723 134.983 37.6667C134.988 37.6104 135.016 37.5587 135.06 37.5231C135.104 37.4874 135.16 37.4706 135.216 37.4765L152.367 39.2424C152.423 39.2482 152.475 39.2762 152.51 39.3201C152.546 39.364 152.563 39.4203 152.557 39.4766C152.551 39.5329 152.523 39.5846 152.479 39.6202C152.436 39.6559 152.38 39.6727 152.324 39.6668Z" fill="#151116"/>
<path d="M150.567 40.4116L135.096 38.8099C135.063 38.8169 135.029 38.8161 134.997 38.8074C134.965 38.7987 134.935 38.7824 134.91 38.7599C134.885 38.7373 134.866 38.7092 134.854 38.6778C134.843 38.6464 134.838 38.6126 134.842 38.5792C134.846 38.5458 134.857 38.5137 134.876 38.4856C134.894 38.4576 134.919 38.4343 134.948 38.4177C134.977 38.4012 135.009 38.3918 135.043 38.3903C135.076 38.3889 135.109 38.3955 135.14 38.4095L150.607 40.0112C150.639 40.0037 150.673 40.0042 150.706 40.0125C150.738 40.0208 150.768 40.0368 150.793 40.059C150.819 40.0813 150.838 40.1093 150.85 40.1406C150.862 40.1719 150.867 40.2058 150.864 40.2392C150.86 40.2727 150.849 40.305 150.831 40.3332C150.813 40.3615 150.788 40.3851 150.759 40.4019C150.73 40.4187 150.698 40.4284 150.664 40.4301C150.631 40.4318 150.598 40.4255 150.567 40.4116Z" fill="#151116"/>
<path d="M133.411 41.1962L132.083 41.0595C131.946 41.0453 131.822 41.1461 131.808 41.2847L131.672 42.6192C131.658 42.7578 131.758 42.8816 131.896 42.8958L133.224 43.0326C133.362 43.0468 133.485 42.9459 133.499 42.8073L133.635 41.4729C133.649 41.3343 133.549 41.2104 133.411 41.1962Z" fill="#999999" stroke="#151116" stroke-linecap="round" stroke-linejoin="round"/>
<path d="M151.901 43.7793L134.753 42.0134C134.698 42.0073 134.647 41.9795 134.612 41.936C134.577 41.8925 134.561 41.8368 134.566 41.7811C134.572 41.7251 134.6 41.6738 134.643 41.6379C134.686 41.602 134.741 41.5844 134.797 41.5889L151.925 43.3588C151.958 43.3518 151.992 43.3526 152.024 43.3613C152.056 43.37 152.086 43.3863 152.111 43.4089C152.136 43.4314 152.155 43.4595 152.167 43.4909C152.179 43.5223 152.183 43.5561 152.179 43.5895C152.176 43.6229 152.164 43.655 152.146 43.6831C152.127 43.7111 152.103 43.7344 152.074 43.751C152.044 43.7675 152.012 43.7769 151.979 43.7784C151.945 43.7798 151.912 43.7733 151.881 43.7592L151.901 43.7793Z" fill="#151116"/>
<path d="M150.129 44.5241L134.658 42.9223C134.625 42.9294 134.591 42.9285 134.559 42.9198C134.527 42.9111 134.497 42.8948 134.472 42.8723C134.447 42.8498 134.428 42.8216 134.416 42.7902C134.404 42.7588 134.4 42.725 134.404 42.6916C134.408 42.6582 134.419 42.6262 134.437 42.5981C134.456 42.57 134.481 42.5468 134.51 42.5302C134.539 42.5136 134.571 42.5042 134.605 42.5028C134.638 42.5013 134.671 42.5079 134.702 42.5219L150.173 44.1236C150.213 44.1422 150.246 44.1731 150.268 44.2119C150.29 44.2507 150.299 44.2954 150.295 44.3398C150.29 44.3841 150.271 44.4257 150.241 44.4588C150.212 44.4919 150.172 44.5147 150.129 44.5241Z" fill="#151116"/>
<path d="M132.992 45.3084L131.665 45.1717C131.527 45.1575 131.404 45.2583 131.389 45.3969L131.253 46.7314C131.239 46.87 131.34 46.9939 131.478 47.0081L132.805 47.1448C132.943 47.159 133.066 47.0582 133.08 46.9196L133.216 45.5851C133.23 45.4465 133.13 45.3226 132.992 45.3084Z" fill="#BFBFBF" stroke="#151116" stroke-miterlimit="10"/>
<path d="M151.483 47.8917L134.335 46.1258C134.303 46.1328 134.269 46.132 134.236 46.1233C134.204 46.1146 134.174 46.0983 134.15 46.0758C134.125 46.0532 134.106 46.0251 134.094 45.9937C134.082 45.9623 134.078 45.9285 134.081 45.8951C134.085 45.8617 134.096 45.8296 134.115 45.8015C134.133 45.7735 134.158 45.7502 134.187 45.7336C134.216 45.7171 134.249 45.7077 134.282 45.7062C134.315 45.7048 134.349 45.7114 134.379 45.7254L151.527 47.4913C151.56 47.4842 151.594 47.4851 151.626 47.4938C151.658 47.5025 151.688 47.5188 151.713 47.5413C151.738 47.5638 151.757 47.592 151.769 47.6234C151.78 47.6548 151.785 47.6886 151.781 47.722C151.777 47.7554 151.766 47.7875 151.748 47.8155C151.729 47.8436 151.704 47.8669 151.675 47.8834C151.646 47.9 151.614 47.9094 151.58 47.9108C151.547 47.9123 151.514 47.9057 151.483 47.8917Z" fill="#151116"/>
<path d="M149.711 48.6365L134.24 47.0348C134.212 47.0323 134.185 47.0243 134.161 47.0112C134.136 46.9981 134.115 46.9801 134.097 46.9585C134.08 46.9368 134.067 46.9119 134.059 46.8851C134.051 46.8583 134.049 46.8302 134.053 46.8025C134.059 46.7469 134.086 46.6959 134.129 46.6606C134.173 46.6254 134.228 46.6087 134.284 46.6143L149.754 48.2161C149.795 48.2347 149.828 48.2655 149.85 48.3043C149.872 48.3431 149.881 48.3879 149.876 48.4322C149.871 48.4765 149.853 48.5182 149.823 48.5512C149.793 48.5843 149.754 48.6072 149.711 48.6165V48.6365Z" fill="#151116"/>
<path d="M132.569 49.4203L131.242 49.2835C131.104 49.2693 130.981 49.3702 130.967 49.5088L130.831 50.8432C130.817 50.9818 130.917 51.1057 131.055 51.1199L132.382 51.2566C132.52 51.2708 132.643 51.17 132.657 51.0314L132.793 49.6969C132.808 49.5583 132.707 49.4345 132.569 49.4203Z" fill="white" stroke="#151116" stroke-linecap="round" stroke-linejoin="round"/>
<path d="M151.065 52.0081L133.913 50.2382C133.873 50.2197 133.839 50.1888 133.817 50.15C133.795 50.1112 133.786 50.0665 133.791 50.0221C133.796 49.9778 133.815 49.9362 133.844 49.9031C133.874 49.87 133.913 49.8472 133.957 49.8378L151.109 51.6037C151.164 51.6098 151.215 51.6376 151.25 51.6811C151.285 51.7246 151.302 51.7803 151.296 51.836C151.285 51.8883 151.256 51.9348 151.213 51.9666C151.171 51.9984 151.118 52.0132 151.065 52.0081Z" fill="#151116"/>
<path d="M149.292 52.753L133.821 51.1512C133.766 51.1452 133.715 51.1174 133.68 51.0739C133.645 51.0304 133.629 50.9747 133.634 50.919C133.64 50.863 133.668 50.8116 133.711 50.7757C133.754 50.7398 133.809 50.7223 133.865 50.7268L149.336 52.3285C149.392 52.3343 149.444 52.3623 149.479 52.4062C149.515 52.4502 149.531 52.5065 149.525 52.5628C149.52 52.619 149.492 52.6707 149.448 52.7064C149.404 52.742 149.348 52.7588 149.292 52.753Z" fill="#151116"/>
<path d="M143.435 82.1441L144.414 82.2449L144.988 76.6162L144.009 76.5154L143.435 82.1441Z" fill="#757575" stroke="#151116" stroke-linecap="round" stroke-linejoin="round"/>
<path d="M143.524 81.2888L144.503 81.3896L144.773 78.7406L143.794 78.6398L143.524 81.2888Z" fill="#FFBD00" stroke="#151116" stroke-miterlimit="10"/>
<path d="M145.788 80.944L146.767 81.0448L147.341 75.4162L146.362 75.3154L145.788 80.944Z" fill="#757575" stroke="#151116" stroke-linecap="round" stroke-linejoin="round"/>
<path d="M146.202 76.8065L145.932 79.4555L146.911 79.5563L147.181 76.9073L146.202 76.8065Z" fill="#FFBD00" stroke="#151116" stroke-miterlimit="10"/>
<path d="M147.879 82.2538L148.858 82.3546L149.432 76.7259L148.453 76.6251L147.879 82.2538Z" fill="#757575" stroke="#151116" stroke-linecap="round" stroke-linejoin="round"/>
<path d="M148.095 80.1375L149.074 80.2383L149.344 77.5893L148.365 77.4885L148.095 80.1375Z" fill="#FFBD00" stroke="#151116" stroke-miterlimit="10"/>
<path d="M141.345 80.8057L142.323 80.9065L142.897 75.2779L141.918 75.177L141.345 80.8057Z" fill="#757575" stroke="#151116" stroke-linecap="round" stroke-linejoin="round"/>
<path d="M141.434 79.9544L142.412 80.0552L142.682 77.4062L141.704 77.3054L141.434 79.9544Z" fill="#FFBD00" stroke="#151116" stroke-miterlimit="10"/>
<path d="M138.973 82.2377L139.951 82.3385L140.525 76.7098L139.546 76.609L138.973 82.2377Z" fill="#757575" stroke="#151116" stroke-linecap="round" stroke-linejoin="round"/>
<path d="M139.031 81.6098L140.01 81.7106L140.28 79.0616L139.301 78.9608L139.031 81.6098Z" fill="#FFBD00" stroke="#151116" stroke-miterlimit="10"/>
<path d="M136.916 80.5575L137.894 80.6583L138.468 75.0297L137.489 74.9289L136.916 80.5575Z" fill="#757575" stroke="#151116" stroke-linecap="round" stroke-linejoin="round"/>
<path d="M136.937 80.3492L137.916 80.45L138.186 77.801L137.207 77.7002L136.937 80.3492Z" fill="#FFBD00" stroke="#151116" stroke-miterlimit="10"/>
<path d="M134.409 83.279L135.388 83.3798L135.962 77.7512L134.983 77.6504L134.409 83.279Z" fill="#757575" stroke="#151116" stroke-linecap="round" stroke-linejoin="round"/>
<path d="M134.427 83.0663L135.406 83.1671L135.676 80.5181L134.697 80.4173L134.427 83.0663Z" fill="#FFBD00" stroke="#151116" stroke-miterlimit="10"/>
<path d="M132.568 79.5037L133.546 79.6045L134.12 73.9758L133.141 73.875L132.568 79.5037Z" fill="#757575" stroke="#151116" stroke-linecap="round" stroke-linejoin="round"/>
<path d="M132.657 78.6528L133.635 78.7536L133.905 76.1046L132.926 76.0038L132.657 78.6528Z" fill="#FFBD00" stroke="#151116" stroke-miterlimit="10"/>
<path d="M130.393 78.9504L131.371 79.0512L131.945 73.4225L130.966 73.3217L130.393 78.9504Z" fill="#757575" stroke="#151116" stroke-linecap="round" stroke-linejoin="round"/>
<path d="M130.613 76.8261L131.591 76.9269L131.861 74.2779L130.883 74.1771L130.613 76.8261Z" fill="#FFBD00" stroke="#151116" stroke-miterlimit="10"/>
<path d="M127.835 82.2497L128.813 82.3505L129.387 76.7219L128.408 76.6211L127.835 82.2497Z" fill="#757575" stroke="#151116" stroke-linecap="round" stroke-linejoin="round"/>
<path d="M128.073 79.922L129.051 80.0228L129.321 77.3738L128.343 77.273L128.073 79.922Z" fill="#FFBD00" stroke="#151116" stroke-miterlimit="10"/>
<path d="M125.882 79.5525L126.86 79.6533L127.434 74.0247L126.455 73.9239L125.882 79.5525Z" fill="#757575" stroke="#151116" stroke-linecap="round" stroke-linejoin="round"/>
<path d="M125.989 78.4899L126.968 78.5907L127.238 75.9417L126.259 75.8409L125.989 78.4899Z" fill="#FFBD00" stroke="#151116" stroke-miterlimit="10"/>
<path d="M123.521 80.7973L124.5 80.8981L125.074 75.2694L124.095 75.1686L123.521 80.7973Z" fill="#757575" stroke="#151116" stroke-linecap="round" stroke-linejoin="round"/>
<path d="M123.615 79.9464L124.593 80.0472L124.863 77.3982L123.884 77.2974L123.615 79.9464Z" fill="#FFBD00" stroke="#151116" stroke-miterlimit="10"/>
<path d="M121.061 83.0957L122.04 83.1965L122.614 77.5679L121.635 77.467L121.061 83.0957Z" fill="#757575" stroke="#151116" stroke-linecap="round" stroke-linejoin="round"/>
<path d="M121.065 83.0907L122.043 83.1915L122.313 80.5425L121.335 80.4417L121.065 83.0907Z" fill="#FFBD00" stroke="#151116" stroke-miterlimit="10"/>
<path d="M119.221 79.3002L120.2 79.401L120.774 73.7724L119.795 73.6716L119.221 79.3002Z" fill="#757575" stroke="#151116" stroke-linecap="round" stroke-linejoin="round"/>
<path d="M119.288 78.6647L120.267 78.7655L120.537 76.1165L119.558 76.0157L119.288 78.6647Z" fill="#FFBD00" stroke="#151116" stroke-miterlimit="10"/>
<path d="M117.273 76.6034L118.251 76.7043L118.825 71.0756L117.846 70.9748L117.273 76.6034Z" fill="#757575" stroke="#151116" stroke-linecap="round" stroke-linejoin="round"/>
<path d="M117.335 75.9595L118.314 76.0603L118.584 73.4113L117.605 73.3105L117.335 75.9595Z" fill="#FFBD00" stroke="#151116" stroke-miterlimit="10"/>
<path d="M114.762 79.3492L115.741 79.45L116.315 73.8213L115.336 73.7205L114.762 79.3492Z" fill="#757575" stroke="#151116" stroke-linecap="round" stroke-linejoin="round"/>
<path d="M114.978 77.2368L115.956 77.3377L116.226 74.6886L115.248 74.5878L114.978 77.2368Z" fill="#FFBD00" stroke="#151116" stroke-miterlimit="10"/>
<path d="M112.236 82.3066L113.215 82.4074L113.788 76.7788L112.81 76.678L112.236 82.3066Z" fill="#757575" stroke="#151116" stroke-linecap="round" stroke-linejoin="round"/>
<path d="M112.493 79.7632L113.471 79.864L113.741 77.215L112.763 77.1142L112.493 79.7632Z" fill="#FFBD00" stroke="#151116" stroke-miterlimit="10"/>
<path d="M110.355 78.8976L111.334 78.9984L111.908 73.3698L110.929 73.269L110.355 78.8976Z" fill="#757575" stroke="#151116" stroke-linecap="round" stroke-linejoin="round"/>
<path d="M110.436 78.0544L111.415 78.1552L111.685 75.5061L110.706 75.4053L110.436 78.0544Z" fill="#FFBD00" stroke="#151116" stroke-miterlimit="10"/>
<path d="M108.243 77.734L109.222 77.8348L109.795 72.2062L108.816 72.1053L108.243 77.734Z" fill="#757575" stroke="#151116" stroke-linecap="round" stroke-linejoin="round"/>
<path d="M108.485 75.4023L109.463 75.5031L109.733 72.8541L108.755 72.7533L108.485 75.4023Z" fill="#FFBD00" stroke="#151116" stroke-miterlimit="10"/>
<path d="M105.86 79.2678L106.838 79.3686L107.412 73.74L106.433 73.6392L105.86 79.2678Z" fill="#757575" stroke="#151116" stroke-linecap="round" stroke-linejoin="round"/>
<path d="M105.863 79.2628L106.842 79.3636L107.112 76.7146L106.133 76.6138L105.863 79.2628Z" fill="#FFBD00" stroke="#151116" stroke-miterlimit="10"/>
<path d="M103.836 77.2784L104.814 77.3792L105.388 71.7506L104.409 71.6498L103.836 77.2784Z" fill="#757575" stroke="#151116" stroke-linecap="round" stroke-linejoin="round"/>
<path d="M103.88 76.8587L104.859 76.9596L105.129 74.3105L104.15 74.2097L103.88 76.8587Z" fill="#FFBD00" stroke="#151116" stroke-miterlimit="10"/>
<path d="M101.556 77.8114L102.534 77.9122L103.108 72.2836L102.129 72.1828L101.556 77.8114Z" fill="#757575" stroke="#151116" stroke-linecap="round" stroke-linejoin="round"/>
<path d="M101.577 77.5991L102.556 77.6999L102.826 75.0509L101.847 74.9501L101.577 77.5991Z" fill="#FFBD00" stroke="#151116" stroke-miterlimit="10"/>
<path d="M99.4248 76.8595L100.404 76.9604L100.977 71.3317L99.9985 71.2309L99.4248 76.8595Z" fill="#757575" stroke="#151116" stroke-linecap="round" stroke-linejoin="round"/>
<path d="M99.7079 74.1047L100.687 74.2055L100.957 71.5565L99.9779 71.4557L99.7079 74.1047Z" fill="#FFBD00" stroke="#151116" stroke-miterlimit="10"/>
<path d="M149.444 89.0481L104.76 84.4432C104.698 84.4365 104.636 84.4421 104.577 84.4597C104.517 84.4772 104.462 84.5063 104.414 84.5454C104.366 84.5845 104.326 84.6327 104.296 84.6873C104.267 84.7419 104.248 84.8018 104.242 84.8636C104.23 84.9889 104.267 85.1139 104.346 85.2114C104.425 85.3089 104.54 85.3711 104.664 85.3842L149.368 89.9892C149.492 90.0019 149.616 89.9646 149.713 89.8853C149.81 89.8061 149.871 89.6915 149.884 89.5667C149.897 89.4419 149.859 89.3172 149.781 89.2199C149.702 89.1227 149.588 89.0609 149.464 89.0481H149.444Z" fill="#151116"/>
<path d="M149.101 92.4318L97.1157 87.078C96.9946 87.0642 96.8729 87.0983 96.7763 87.173C96.6796 87.2477 96.6157 87.3572 96.5979 87.4785C96.5856 87.6037 96.6231 87.7287 96.7022 87.8262C96.7813 87.9238 96.8956 87.9859 97.0201 87.999L149.006 93.3528C149.13 93.3655 149.254 93.3282 149.351 93.249C149.447 93.1697 149.509 93.0551 149.521 92.9303C149.534 92.8055 149.497 92.6808 149.418 92.5836C149.339 92.4863 149.225 92.4245 149.101 92.4118V92.4318Z" fill="#151116"/>
<path d="M126.918 93.565L96.7691 90.4617C96.7079 90.455 96.6459 90.4607 96.5868 90.4783C96.5278 90.4958 96.4727 90.525 96.425 90.5641C96.3772 90.6032 96.3376 90.6515 96.3085 90.706C96.2793 90.7606 96.2613 90.8205 96.2553 90.8821C96.2416 91.0039 96.2755 91.1262 96.3498 91.2234C96.4241 91.3205 96.533 91.3848 96.6536 91.4027L126.823 94.502C126.944 94.5158 127.066 94.4818 127.162 94.407C127.259 94.3323 127.323 94.2228 127.341 94.1016C127.349 94.0383 127.345 93.9741 127.328 93.9125C127.311 93.851 127.282 93.7935 127.242 93.7435C127.203 93.6934 127.154 93.6519 127.098 93.6212C127.043 93.5905 126.982 93.5714 126.918 93.565Z" fill="#151116"/>
<path opacity="0.2" d="M154.375 63.3444C152.833 63.2203 152.3 65.6909 152.3 65.6909C152.3 65.6909 149.862 62.4875 150.248 54.9273C150.248 54.9273 149.053 51.5797 145.867 53.6019C142.68 55.6241 139.37 62.7518 140.159 70.5161L133.957 49.8178C131.814 50.2743 127.46 53.1694 128.607 67.1485L121.836 59.9407C121.836 59.9407 120.004 59.3481 118.968 60.9778C117.932 62.6076 118.426 74.2802 119.283 78.6449C120.139 83.0096 117.956 91.7791 117.956 91.7791C117.956 91.7791 115.622 81.8484 111.4 79.3377L95.3232 46.0097L89.9817 98.4263L95.9964 99.0469L105.676 94.3138C105.62 96.5042 105.568 98.5184 105.409 100.016L153.793 104.997L157.255 71.0327C156.08 66.8001 154.949 63.3884 154.375 63.3444Z" fill="black" fill-opacity="0.7"/>
<path d="M162.883 15.8211L157.255 71.0327L153.793 104.997L105.421 100.016L96.0084 99.0469L89.9817 98.4263L95.3232 46.0097L99.0715 9.24998L162.883 15.8211Z" stroke="#151116" stroke-linecap="round" stroke-linejoin="round"/>
<path d="M162.087 157.959L133.806 162.796C133.806 162.796 128.882 136.507 125.947 132.363C123.011 128.218 123.557 126.517 122.123 123.726C121.262 122.04 116.944 118.896 113.563 115.793C113.268 115.525 112.981 115.256 112.706 114.992C112.587 114.884 112.475 114.768 112.364 114.66C111.914 114.211 111.495 113.775 111.125 113.346C110.989 113.194 110.857 113.042 110.727 112.89C110.099 112.187 109.631 111.355 109.356 110.451C109.344 110.411 109.336 110.369 109.332 110.327C109.321 110.278 109.313 110.229 109.309 110.179C109.233 109.558 109.153 108.85 109.074 108.081C109.074 107.929 109.042 107.768 109.022 107.608C109.022 107.544 109.022 107.484 108.998 107.416C108.93 106.775 108.854 106.095 108.767 105.394C108.679 104.693 108.584 103.9 108.472 103.135C108.436 102.871 108.4 102.607 108.357 102.334C108.313 102.038 108.265 101.742 108.217 101.442L108.086 100.673C108.086 100.629 108.066 100.589 108.062 100.553C108.006 100.252 107.95 99.9599 107.894 99.6636C107.884 99.6312 107.877 99.5976 107.875 99.5635C107.819 99.3032 107.767 99.047 107.707 98.7867C107.584 98.206 107.444 97.6374 107.309 97.0848C107.035 96.0449 106.682 95.0275 106.253 94.0416C104.214 89.4646 106.867 91.1184 105.27 79.3417C105.27 79.3417 106.445 76.6107 109.795 78.7931C110.053 78.9629 110.303 79.146 110.543 79.3417C111.222 79.8936 111.822 80.5378 112.324 81.2557C113.005 82.2332 113.524 83.315 113.861 84.4592C114.409 86.3151 114.564 88.2657 114.316 90.1854C114.316 90.1854 116.833 98.8587 118.159 100.833C119.486 102.807 124.971 91.4668 124.616 90.1453C124.492 89.5526 124.397 88.9538 124.333 88.3514C124.31 88.1552 124.286 87.951 124.258 87.7267C124.23 87.5025 124.206 87.2782 124.182 87.042C124.182 86.9299 124.154 86.8097 124.138 86.6936C124.138 86.6456 124.138 86.5975 124.138 86.5535C124.09 86.101 124.035 85.6205 123.983 85.1239C123.983 84.9838 123.955 84.8516 123.939 84.7235L123.867 84.0027C123.865 83.9627 123.865 83.9226 123.867 83.8826C123.867 83.7464 123.835 83.6063 123.824 83.4821C123.792 83.2018 123.764 82.9175 123.736 82.6332C123.708 82.3489 123.688 82.1447 123.664 81.9004C123.616 81.4399 123.573 80.9794 123.529 80.535C123.497 80.2026 123.465 79.8743 123.437 79.5539C123.437 79.4818 123.437 79.4097 123.417 79.3417C123.25 77.5798 123.119 76.1382 123.071 75.5135C123.071 75.5135 119.087 69.5791 118.689 66.7841C118.291 63.9891 118.315 61.0459 119.984 59.8486C123.935 57.0216 122.772 61.5785 124.548 63.4525C126.325 65.3265 129.03 68.4299 130.567 69.3949C131.985 70.2999 133.252 73.7997 133.431 74.3283C133.228 73.5594 131.201 65.9993 131.157 64.4776C131.105 62.8759 129.886 54.4027 131.953 51.3635C134.021 48.3242 136.777 50.6827 137.032 51.2834C137.287 51.884 137.363 60.0929 138.092 62.3754C138.821 64.6578 141.872 74.1761 141.872 74.1761C141.872 74.1761 141.999 64.9181 142.688 60.7736C143.377 56.6292 145.166 53.3896 146.918 53.2055C148.671 53.0213 150.292 54.9633 150.292 54.9633C150.292 54.9633 149.599 61.5705 149.798 63.0961C149.998 64.6218 149.512 70.1317 150.344 73.1069C150.344 73.1069 150.248 65.2144 151.467 64.2053C152.686 63.1962 153.734 62.7117 154.419 63.4045C155.104 64.0972 155.251 68.7582 155.949 71.5693C156.646 74.3803 156.558 78.2004 157.016 82.5852C157.474 86.9699 159.279 93.0565 158.92 96.5362C158.562 100.016 157.458 108.645 156.57 113.711C155.682 118.776 153.415 125.724 153.415 125.724C153.415 125.724 154.447 129.428 154.248 132.731C154.048 136.035 162.087 157.959 162.087 157.959Z" fill="white"/>
<path opacity="0.4" d="M138.052 62.3393C138.593 64.0291 140.402 69.6832 141.302 72.5063C141.302 72.5063 137.351 75.4295 137.45 78.1444C137.55 80.8593 136.725 86.3372 134.949 86.1811C133.172 86.0249 133.335 74.6246 132.754 72.7105C133.116 73.5114 133.351 74.2001 133.395 74.3122C133.264 73.8237 131.153 65.9752 131.109 64.4216C131.109 64.0572 131.025 63.3324 130.942 62.3914V62.3713C130.942 62.3713 134.869 58.5913 137.757 60.9058C137.819 61.3904 137.918 61.8696 138.052 62.3393Z" fill="#FFBD00"/>
<path opacity="0.4" d="M149.798 65.5988C147.954 67.3527 145.178 70.4561 144.827 73.4473C144.827 73.4473 145.855 81.7963 145.417 85.4603L141.832 74.1641C141.832 74.1641 141.959 64.9021 142.648 60.7616C142.668 60.6455 142.688 60.5294 142.712 60.4172C144.946 59.2801 147.41 58.6745 149.914 58.6473C149.76 60.1195 149.708 61.6007 149.758 63.0801C149.814 63.9185 149.827 64.7591 149.798 65.5988Z" fill="#FFBD00"/>
<path opacity="0.4" d="M151.423 64.1613C151.384 64.1933 151.272 64.2774 151.117 64.4095C151.211 64.2299 151.316 64.0561 151.431 63.889L151.423 64.1613Z" fill="#FFBD00"/>
<path opacity="0.4" d="M152.36 87.2542C152.36 87.2542 149.994 78.3326 149.97 71.1448C149.97 68.4899 150.256 66.0633 151.113 64.4256C151.207 64.2459 151.312 64.0721 151.427 63.905V64.1653C151.855 63.7913 152.329 63.475 152.838 63.2243C152.172 64.2694 151.408 66.3076 152.292 69.6312C153.678 74.8048 152.471 81.1396 152.36 87.2542Z" fill="#FFBD00"/>
<path opacity="0.4" d="M119.725 104.253C119.725 104.253 120.358 112.758 113.563 115.801C113.268 115.533 112.981 115.264 112.706 115C112.587 114.888 112.475 114.776 112.364 114.664C111.913 114.219 111.495 113.779 111.125 113.35C110.985 113.194 110.862 113.042 110.726 112.898C110.098 112.194 109.631 111.36 109.356 110.455C109.344 110.416 109.336 110.376 109.332 110.335C109.321 110.286 109.313 110.237 109.308 110.187C109.233 109.566 109.153 108.858 109.073 108.085C109.073 107.933 109.042 107.772 109.022 107.612C109.022 107.552 109.022 107.488 109.002 107.42C108.93 106.779 108.854 106.099 108.767 105.398C108.679 104.697 108.583 103.904 108.472 103.139C108.436 102.875 108.396 102.607 108.356 102.339C108.313 102.038 108.265 101.742 108.217 101.446L108.086 100.673L108.062 100.553C108.01 100.256 107.954 99.9599 107.894 99.6676C107.894 99.6316 107.894 99.5995 107.874 99.5675C107.819 99.3032 107.767 99.0469 107.707 98.7907C107.58 98.21 107.44 97.6414 107.309 97.0888C109.998 94.486 116.203 96.1158 113.2 90.0933C113.2 90.0933 114.714 84.9357 110.543 79.3417C113.395 81.6562 114.857 85.7166 114.315 90.1734C114.315 90.1734 116.833 98.8427 118.159 100.817C119.486 102.791 124.971 91.4507 124.616 90.1293C124.548 89.869 124.449 89.2203 124.337 88.3354C124.309 88.1392 124.285 87.9349 124.262 87.7107C124.238 87.4865 124.206 87.2622 124.182 87.026C124.182 86.9138 124.154 86.7977 124.138 86.6816C124.138 86.6335 124.138 86.5855 124.138 86.5414C124.09 86.0849 124.039 85.6044 123.983 85.1079C123.983 84.9717 123.959 84.8356 123.939 84.7075C123.919 84.4712 123.891 84.231 123.867 83.9867C123.865 83.948 123.865 83.9092 123.867 83.8706C123.867 83.7344 123.835 83.5903 123.823 83.4461C123.792 83.1658 123.768 82.8855 123.736 82.5972L123.664 81.8644C123.616 81.4039 123.572 80.9434 123.529 80.4989C123.501 80.1666 123.469 79.8382 123.437 79.5219C123.437 79.4458 123.437 79.3777 123.417 79.3056C123.529 79.8342 125.548 89.4966 126.699 91.7511C127.862 94.0536 122.828 106.259 119.725 104.253Z" fill="#FFBD00"/>
<path opacity="0.4" d="M156.542 113.655C155.654 118.724 153.391 125.668 153.391 125.668C153.391 125.668 154.419 129.372 154.22 132.675C154.164 133.564 154.714 135.807 155.534 138.61C155.299 137.993 152.746 131.378 152.802 129.071C152.85 126.649 152.164 125.98 150.81 123.005C149.456 120.03 147.42 120.358 147.42 120.358C147.42 120.358 146.624 127.782 144.775 122.905C142.927 118.027 142.565 112.349 147.237 92.648C147.237 92.648 147.946 95.1227 147.353 102.463C146.759 109.803 148.508 112.025 148.508 112.025C151.132 107.43 153.215 102.544 154.718 97.4652C154.718 97.4652 154.112 106.03 153.574 109.935C153.037 113.839 155.49 105.414 157.203 100.208C158.797 95.3269 158.872 93.4689 158.259 89.9932C158.713 92.4438 159.055 94.7783 158.884 96.4842C158.534 99.9519 157.414 108.585 156.542 113.655Z" fill="#FFBD00"/>
<path opacity="0.4" d="M124.568 130.165C125.947 132.367 129.32 135.278 131.34 143.331C133.359 151.383 132.085 160.201 132.085 160.201L124.568 130.165Z" fill="#FFBD00"/>
<path opacity="0.2" d="M113.857 84.4392C113.857 84.4392 106.803 88.0431 106.245 94.0495C104.206 89.4726 106.859 91.1264 105.261 79.3497C105.261 79.3497 106.437 76.6187 109.786 78.8011C110.045 78.9709 110.295 79.154 110.535 79.3497C111.214 79.9016 111.813 80.5458 112.316 81.2638L113.857 84.4392Z" fill="black" fill-opacity="0.7"/>
<path d="M133.806 162.8C133.806 162.8 128.886 136.511 125.947 132.367C123.007 128.222 123.557 126.521 122.123 123.734C120.689 120.947 109.806 114.147 109.32 110.183C108.835 106.219 108.289 98.6185 106.245 94.0375C104.202 89.4566 106.859 91.1144 105.258 79.3377C105.258 79.3377 106.453 76.6107 109.787 78.7891C113.121 80.9674 114.897 85.3361 114.312 90.1694C114.312 90.1694 116.829 98.8387 118.159 100.813C119.49 102.787 124.967 91.4467 124.612 90.1253C124.258 88.8039 123.206 77.5237 123.039 75.4655C123.039 75.4655 119.056 69.5311 118.657 66.7361C118.259 63.941 118.283 60.9979 119.952 59.8046C123.903 56.9735 122.74 61.5304 124.517 63.4085C126.293 65.2865 128.998 68.3818 130.535 69.3509C132.073 70.3199 133.419 74.3443 133.419 74.3443C133.419 74.3443 131.173 66.0393 131.125 64.4296C131.077 62.8198 129.854 54.3547 131.921 51.3194C133.989 48.2841 136.745 50.6387 137 51.2353C137.255 51.832 137.331 60.0448 138.064 62.3273C138.797 64.6098 141.836 74.128 141.836 74.128C141.836 74.128 141.967 64.874 142.656 60.7296C143.345 56.5851 145.138 53.3416 146.887 53.1614C148.635 52.9812 150.26 54.9153 150.26 54.9153C150.26 54.9153 149.567 61.5224 149.762 63.0481C149.958 64.5737 149.48 70.0837 150.312 73.0589C150.312 73.0589 150.217 65.1624 151.435 64.1533C152.654 63.1442 153.702 62.6637 154.387 63.3524C155.072 64.0411 155.22 68.7062 155.917 71.5212C156.614 74.3363 156.53 78.1524 156.984 82.5371C157.438 86.9218 159.247 93.0084 158.888 96.4842C158.53 99.9599 157.426 108.593 156.538 113.663C155.65 118.732 153.387 125.676 153.387 125.676C153.387 125.676 154.419 129.376 154.216 132.679C154.013 135.983 162.099 157.975 162.099 157.975" stroke="#151116" stroke-linecap="round" stroke-linejoin="round"/>
<path d="M141.824 74.14C142.648 76.0861 144.684 84.303 145.409 85.4403C145.778 86.0709 146.316 86.5843 146.962 86.9219" stroke="#151116" stroke-linecap="round" stroke-linejoin="round"/>
<path d="M150.3 73.0629C150.3 73.0629 150.125 74.7447 151.033 80.1105C151.941 85.4763 152.375 87.7668 152.885 88.9641" stroke="#151116" stroke-linecap="round" stroke-linejoin="round"/>
<path d="M133.403 74.3563C134.507 77.6278 135.132 82.8374 135.761 84.4071C136.391 85.9768 136.956 86.3052 136.956 86.3052" stroke="#151116" stroke-linecap="round" stroke-linejoin="round"/>
<path d="M135.192 82.2048C135.857 82.7111 136.384 83.3794 136.721 84.1469" stroke="#151116" stroke-linecap="round" stroke-linejoin="round"/>
<path d="M118.159 100.813C118.159 100.813 118.765 105.154 121.465 104.817" stroke="#151116" stroke-linecap="round" stroke-linejoin="round"/>
<path d="M124.612 90.1253C124.612 90.1253 125.309 95.2789 124.162 97.4692" stroke="#151116" stroke-linecap="round" stroke-linejoin="round"/>
<path d="M146.213 90.1694C146.213 90.1694 148.03 91.2866 146.815 94.5741C145.6 97.8617 143.485 111.084 143.485 111.084" stroke="#151116" stroke-linecap="round" stroke-linejoin="round"/>
<path d="M154.12 93.6291C154.885 96.5923 154.953 96.6724 153.722 100.312C152.491 103.952 150.491 112.866 150.491 112.866" stroke="#151116" stroke-linecap="round" stroke-linejoin="round"/>
<path d="M153.375 125.66C153.375 125.66 152.18 123.257 153.168 121.255" stroke="#151116" stroke-linecap="round" stroke-linejoin="round"/>
<path d="M125.947 132.367C125.947 132.367 128.95 136.612 130.252 141.353" stroke="#151116" stroke-linecap="round" stroke-linejoin="round"/>
<path d="M148.046 58.0347L148.858 57.2298L149.225 57.1257L149.201 57.5261L148.456 58.4791L148.046 58.0347Z" fill="#757575" stroke="#151116" stroke-linecap="round" stroke-linejoin="round"/>
<path d="M148.703 58.4831L147.38 61.4984L111.85 109.122L107.894 106.587L113.268 99.8078L145.182 59.5643L147.994 57.7704C148.164 57.8159 148.319 57.9058 148.444 58.031C148.568 58.1561 148.658 58.3121 148.703 58.4831Z" fill="#FFBD00"/>
<path opacity="0.3" d="M148.703 58.4831L147.38 61.4984L111.85 109.122L107.894 106.587L113.268 99.8078C115.733 99.5515 116.148 101.009 116.148 101.009L146.759 60.8657C146.456 59.7846 145.166 59.5763 145.166 59.5763L147.978 57.7824C148.15 57.8244 148.307 57.9114 148.434 58.0345C148.562 58.1576 148.654 58.3124 148.703 58.4831Z" fill="black" fill-opacity="0.7"/>
<path d="M148.703 58.4831L147.38 61.4984L111.85 109.122L107.894 106.587L113.268 99.8078L145.182 59.5643L147.994 57.7704C148.164 57.8159 148.319 57.9058 148.444 58.031C148.568 58.1561 148.658 58.3121 148.703 58.4831Z" stroke="#151116" stroke-linecap="round" stroke-linejoin="round"/>
<path d="M123.441 95.0186C123.441 95.0186 119.458 102.935 115.658 108.529L112.933 109.238C112.933 109.238 106.68 115.485 102.864 118.604C102.171 118.171 101.543 117.642 100.999 117.03C100.999 117.03 106.417 106.571 112.411 99.9519C113.114 100.205 113.777 100.558 114.379 101.001C115.158 101.562 115.849 102.237 116.431 103.003L123.11 94.5501L123.441 95.0186Z" fill="#FFBD00"/>
<path opacity="0.3" d="M123.441 95.0186C123.441 95.0186 119.458 102.935 115.658 108.529L112.933 109.238C112.933 109.238 106.679 115.485 102.864 118.604L102.967 116.906C107.106 110.551 112.364 103.624 114.379 101.001C115.158 101.562 115.849 102.237 116.43 103.003L112.726 107.961L114.853 107.56L123.118 94.514L123.441 95.0186Z" fill="black" fill-opacity="0.7"/>
<path d="M123.441 95.0186C123.441 95.0186 119.458 102.935 115.658 108.529L112.933 109.238C112.933 109.238 106.68 115.485 102.864 118.604C102.171 118.171 101.543 117.642 100.999 117.03C100.999 117.03 106.417 106.571 112.411 99.9519C113.114 100.205 113.777 100.558 114.379 101.001C115.158 101.562 115.849 102.237 116.431 103.003L123.11 94.5501L123.441 95.0186Z" stroke="#151116" stroke-linecap="round" stroke-linejoin="round"/>
<path d="M136.952 86.3012L125.851 97.1129L124.078 98.8427C125.293 95.7033 124.704 90.8341 124.628 90.2615C124.628 90.2294 124.628 90.2094 124.628 90.2094C124.63 90.1814 124.63 90.1533 124.628 90.1253C124.56 89.865 124.461 89.2163 124.349 88.3314C124.321 88.1352 124.297 87.931 124.274 87.7067C124.25 87.4825 124.218 87.2582 124.194 87.022C124.194 86.9099 124.166 86.7937 124.15 86.6776C124.15 86.6295 124.15 86.5815 124.15 86.5374C124.102 86.085 124.047 85.6004 123.995 85.1039C123.995 84.9678 123.971 84.8316 123.951 84.7035C123.931 84.4672 123.903 84.2269 123.879 83.9827C123.877 83.944 123.877 83.9052 123.879 83.8666C123.879 83.7304 123.847 83.5863 123.835 83.4421C123.804 83.1618 123.78 82.8815 123.748 82.5932L123.676 81.8604C123.628 81.3999 123.584 80.9394 123.541 80.4949C123.509 80.1626 123.477 79.8342 123.449 79.5179C123.449 79.4418 123.449 79.3737 123.429 79.3016C123.262 77.5437 123.13 76.0982 123.083 75.4735C123.083 75.4735 119.099 69.5391 118.701 66.7441C118.303 63.949 118.327 61.0059 119.996 59.8126C123.947 56.9815 122.784 61.5384 124.56 63.4165C126.337 65.2945 129.042 68.3898 130.579 69.3589C132.117 70.3279 133.463 74.3523 133.463 74.3523C134.566 77.6238 135.192 82.8334 135.821 84.4071C136.45 85.9808 136.952 86.3012 136.952 86.3012Z" fill="white"/>
<path d="M135.192 82.2048C135.857 82.7111 136.384 83.3794 136.721 84.1469" stroke="#151116" stroke-linecap="round" stroke-linejoin="round"/>
<path opacity="0.4" d="M124.501 63.4205C126.261 65.3065 128.966 68.3738 130.503 69.3549C130.288 69.2468 127.456 67.8573 125.875 69.3989C124.23 71.0007 123.039 75.4655 123.039 75.4655C123.039 75.4655 119.056 69.5311 118.657 66.7361C118.259 63.941 118.283 60.9979 119.952 59.8046C123.879 56.9735 122.732 61.5304 124.501 63.4205Z" fill="#FFBD00"/>
<path opacity="0.4" d="M125.871 97.1209L124.098 98.8508C125.313 95.7114 124.724 90.8421 124.648 90.2695C124.653 90.2242 124.653 90.1786 124.648 90.1333C124.58 89.873 124.481 89.2243 124.369 88.3394C124.341 88.1432 124.317 87.939 124.294 87.7147C124.27 87.4905 124.238 87.2662 124.214 87.03C124.214 86.9179 124.186 86.8017 124.17 86.6856C124.17 86.6376 124.17 86.5895 124.17 86.5455C124.122 86.089 124.07 85.6084 124.015 85.1119C124.015 84.9758 123.991 84.8396 123.971 84.7115C123.951 84.4752 123.923 84.235 123.899 83.9907C123.897 83.952 123.897 83.9132 123.899 83.8746C123.899 83.7384 123.867 83.5943 123.855 83.4501C123.824 83.1698 123.8 82.8895 123.768 82.6012L123.696 81.8684C123.648 81.4079 123.604 80.9474 123.561 80.5029C123.533 80.1706 123.501 79.8422 123.469 79.5259C123.469 79.4498 123.469 79.3817 123.449 79.3096C123.561 79.8382 125.58 89.5006 126.731 91.7551C127.102 92.588 126.699 94.7864 125.871 97.1209Z" fill="#FFBD00"/>
<path d="M136.952 86.3052C136.952 86.3052 136.391 85.9768 135.757 84.4071C135.124 82.8374 134.503 77.6278 133.399 74.3563C133.399 74.3563 132.049 70.3319 130.515 69.3629C128.982 68.3939 126.269 65.3105 124.501 63.4205C122.732 61.5304 123.887 56.9735 119.936 59.8166C118.267 61.0179 118.235 63.9531 118.641 66.7481C119.048 69.5431 123.023 75.4775 123.023 75.4775C123.19 77.5357 124.242 88.8119 124.596 90.1373" stroke="#151116" stroke-linecap="round" stroke-linejoin="round"/>
<path d="M124.612 90.1253C124.612 90.1253 125.309 95.2789 124.162 97.4692" stroke="#151116" stroke-linecap="round" stroke-linejoin="round"/>
<path opacity="0.2" d="M56.4825 96.4321C56.4825 96.4321 59.0039 108.201 53.5429 116.762C48.0819 125.323 43.8795 127.61 41.9915 130.165C40.1034 132.719 32.7025 147.003 32.7025 147.003L24.0588 121.267L32.7025 89.4286L56.4825 96.4321Z" fill="black" fill-opacity="0.7"/>
<path d="M107.428 87.4304L53.8297 110.107L48.305 112.445L37.8927 87.5746L13.7144 29.8202L72.8378 4.80519L107.428 87.4304Z" fill="white"/>
<path d="M57.562 15.5568L32.0413 26.3685C31.811 26.4656 31.6285 26.6508 31.534 26.8832C31.4395 27.1157 31.4407 27.3763 31.5374 27.6078C31.634 27.8393 31.8182 28.0228 32.0494 28.1178C32.2806 28.2128 32.5399 28.2115 32.7702 28.1144L58.2949 17.3027C58.4087 17.2543 58.5119 17.1839 58.5986 17.0954C58.6852 17.0069 58.7538 16.9022 58.8002 16.7871C58.8466 16.672 58.87 16.5489 58.8691 16.4247C58.8682 16.3005 58.8429 16.1777 58.7948 16.0633C58.7467 15.949 58.6766 15.8452 58.5886 15.7581C58.5006 15.6709 58.3964 15.6021 58.2819 15.5554C58.1674 15.5087 58.045 15.4852 57.9214 15.4861C57.7979 15.487 57.6758 15.5124 57.562 15.5608V15.5568Z" fill="#151116"/>
<path d="M52.6825 21.8396L39.9201 27.2294C39.805 27.2783 39.7138 27.3711 39.6668 27.4875C39.6197 27.6039 39.6206 27.7343 39.6692 27.8501C39.7178 27.9658 39.8101 28.0574 39.9259 28.1048C40.0417 28.1521 40.1714 28.1512 40.2866 28.1023L53.033 22.7045C53.1481 22.6557 53.2393 22.5628 53.2863 22.4464C53.3334 22.33 53.3325 22.1996 53.2839 22.0838C53.2353 21.9681 53.143 21.8765 53.0272 21.8292C52.9114 21.7819 52.7817 21.7827 52.6665 21.8316L52.6825 21.8396Z" fill="#151116"/>
<path d="M73.6902 54.7271C73.6902 54.7271 74.228 58.9757 72.6546 59.6444C71.2166 60.2531 69.3246 57.9706 67.6715 58.6714C66.0185 59.3721 67.317 65.3946 65.7237 66.0713C64.1304 66.7481 62.2105 64.2734 60.8362 64.87C59.462 65.4667 60.2905 68.55 58.8725 69.1507C57.7054 69.6472 56.0285 67.1805 54.6901 66.64C54.5665 66.5807 54.4325 66.5466 54.2957 66.5397C54.159 66.5329 54.0223 66.5533 53.8934 66.5999C52.4913 67.1926 53.1884 73.6675 51.9775 74.1801C51.638 74.3237 51.2693 74.3841 50.902 74.3563C50.4524 74.2744 49.9966 74.2315 49.5397 74.2281C49.3645 74.2456 49.1927 74.2888 49.0299 74.3563C47.9942 74.7968 48.1376 78.2004 47.1896 78.6009C46.2416 79.0013 45.3135 78.5048 44.3057 78.9332C43.298 79.3617 43.3139 81.1276 41.8082 81.7643L42.4455 83.2859L79.1353 67.7612" fill="#BFBFBF"/>
<path d="M73.6902 54.7271C73.6902 54.7271 74.228 58.9757 72.6546 59.6444C71.2166 60.2531 69.3246 57.9706 67.6715 58.6714C66.0185 59.3721 67.317 65.3946 65.7237 66.0713C64.1304 66.7481 62.2105 64.2734 60.8362 64.87C59.462 65.4667 60.2905 68.55 58.8725 69.1507C57.7054 69.6472 56.0285 67.1805 54.6901 66.64C54.5665 66.5807 54.4325 66.5466 54.2957 66.5397C54.159 66.5329 54.0223 66.5533 53.8934 66.5999C52.4913 67.1926 53.1884 73.6675 51.9775 74.1801C51.638 74.3237 51.2693 74.3841 50.902 74.3563C50.4524 74.2744 49.9966 74.2315 49.5397 74.2281C49.3645 74.2456 49.1927 74.2888 49.0299 74.3563C47.9942 74.7968 48.1376 78.2004 47.1896 78.6009C46.2416 79.0013 45.3135 78.5048 44.3057 78.9332C43.298 79.3617 43.3139 81.1276 41.8082 81.7643L42.4455 83.2859L79.1353 67.7612" stroke="#151116" stroke-miterlimit="10"/>
<path d="M35.0088 65.5228L42.4376 83.2659L80.8521 67.0124" stroke="#151116" stroke-linecap="round" stroke-linejoin="round"/>
<path d="M76.6298 61.7787C76.4881 61.607 76.3365 61.4439 76.1757 61.2902C75.7017 60.8297 74.9488 60.245 74.3752 60.4893C73.8017 60.7336 73.7658 61.6626 73.7778 62.6597C73.7778 63.861 73.8973 65.1864 73.2878 65.4427C72.77 65.6629 72.3079 65.3305 71.8299 64.9742C71.2882 64.5737 70.7266 64.1172 70.0574 64.4015C68.9222 64.8781 69.2607 66.3637 68.8624 67.633C68.7543 67.9977 68.5635 68.3322 68.305 68.6101C68.0465 68.888 67.7274 69.1019 67.3727 69.2348C66.3928 69.6352 65.401 69.2348 64.4649 68.6021C62.8716 67.5169 61.4695 65.767 60.5533 66.1554C59.0915 66.7721 60.7047 70.7484 59.1313 71.4131C58.255 71.7815 56.4386 69.0105 54.6741 66.6079C53.2799 64.7179 51.9176 63.0681 51.0891 63.4045C49.1931 64.2053 52.316 73.7076 50.9378 74.2922H50.8939C50.674 74.3856 50.4345 74.4227 50.1968 74.4004C49.9591 74.378 49.7306 74.2968 49.5317 74.1641C49.0338 73.8798 48.6315 73.4793 48.0818 73.7116C47.066 74.1401 47.6834 77.8641 46.5442 78.3366C45.405 78.8091 44.7557 78.1284 43.497 78.6609C42.4335 79.1094 41.8002 81.7002 41.8002 81.7002L42.4375 83.2219L79.1273 67.6971" fill="#757575"/>
<path d="M76.6298 61.7787C76.4881 61.607 76.3365 61.4439 76.1757 61.2902C75.7017 60.8297 74.9488 60.245 74.3752 60.4893C73.8017 60.7336 73.7658 61.6626 73.7778 62.6597C73.7778 63.861 73.8973 65.1864 73.2878 65.4427C72.77 65.6629 72.3079 65.3305 71.8299 64.9742C71.2882 64.5737 70.7266 64.1172 70.0574 64.4015C68.9222 64.8781 69.2607 66.3637 68.8624 67.633C68.7543 67.9977 68.5635 68.3322 68.305 68.6101C68.0465 68.888 67.7274 69.1019 67.3727 69.2348C66.3928 69.6352 65.401 69.2348 64.4649 68.6021C62.8716 67.5169 61.4695 65.767 60.5533 66.1554C59.0915 66.7721 60.7047 70.7484 59.1313 71.4131C58.255 71.7815 56.4386 69.0105 54.6741 66.6079C53.2799 64.7179 51.9176 63.0681 51.0891 63.4045C49.1931 64.2053 52.316 73.7076 50.9378 74.2922H50.8939C50.674 74.3856 50.4345 74.4227 50.1968 74.4004C49.9591 74.378 49.7306 74.2968 49.5317 74.1641C49.0338 73.8798 48.6315 73.4793 48.0818 73.7116C47.066 74.1401 47.6834 77.8641 46.5442 78.3366C45.405 78.8091 44.7557 78.1284 43.497 78.6609C42.4335 79.1094 41.8002 81.7002 41.8002 81.7002L42.4375 83.2219L79.1273 67.6971" stroke="#151116" stroke-linecap="round" stroke-linejoin="round"/>
<path d="M68.8664 74.4444L56.12 79.8462C56.0601 79.8682 56.0054 79.9022 55.959 79.9461C55.9126 79.9901 55.8756 80.043 55.8502 80.1018C55.8248 80.1606 55.8116 80.2239 55.8113 80.288C55.811 80.352 55.8237 80.4155 55.8486 80.4745C55.8734 80.5335 55.91 80.5867 55.956 80.6311C56.002 80.6754 56.0565 80.7099 56.1161 80.7324C56.1758 80.7549 56.2394 80.765 56.3031 80.762C56.3667 80.7591 56.4291 80.7431 56.4865 80.7152L69.2329 75.3173C69.348 75.269 69.4394 75.1767 69.4868 75.0607C69.5342 74.9446 69.5339 74.8144 69.4858 74.6987C69.4378 74.5829 69.3459 74.4911 69.2305 74.4434C69.1151 74.3957 68.9856 74.3961 68.8704 74.4444H68.8664Z" fill="#151116"/>
<path d="M78.9667 53.193L77.7368 53.7132C77.609 53.7673 77.5491 53.9152 77.6028 54.0436L78.1203 55.2801C78.1741 55.4085 78.3212 55.4688 78.449 55.4147L79.6789 54.8945C79.8067 54.8404 79.8667 54.6925 79.8129 54.5641L79.2954 53.3277C79.2416 53.1992 79.0945 53.1389 78.9667 53.193Z" fill="#BFBFBF" stroke="#151116" stroke-miterlimit="10"/>
<path d="M85.64 51.0952L80.5414 53.2575C80.4886 53.2793 80.4293 53.2791 80.3767 53.2569C80.324 53.2348 80.2823 53.1925 80.2606 53.1394C80.2389 53.0863 80.2392 53.0267 80.2612 52.9738C80.2832 52.9208 80.3253 52.8788 80.3781 52.8571L85.4767 50.6987C85.5284 50.6776 85.5864 50.6779 85.638 50.6997C85.6895 50.7215 85.7303 50.7629 85.7515 50.8149C85.7632 50.8405 85.7696 50.8683 85.7703 50.8966C85.771 50.9248 85.766 50.9529 85.7556 50.9791C85.7452 51.0053 85.7295 51.0291 85.7097 51.0491C85.6898 51.069 85.6661 51.0847 85.64 51.0952Z" fill="#151116"/>
<path d="M84.4449 52.6048L80.8998 54.1024C80.847 54.1242 80.7877 54.124 80.7351 54.1018C80.6824 54.0797 80.6407 54.0374 80.619 53.9843C80.5973 53.9312 80.5975 53.8716 80.6196 53.8187C80.6416 53.7657 80.6837 53.7238 80.7365 53.702L84.2816 52.2004C84.3344 52.1786 84.3937 52.1788 84.4464 52.201C84.499 52.2231 84.5408 52.2654 84.5624 52.3185C84.5841 52.3716 84.5839 52.4312 84.5618 52.4841C84.5398 52.537 84.4977 52.579 84.4449 52.6008V52.6048Z" fill="#151116"/>
<path d="M80.5673 57.005L79.3374 57.5252C79.2096 57.5792 79.1497 57.7272 79.2034 57.8556L79.7209 59.092C79.7747 59.2205 79.9218 59.2808 80.0496 59.2267L81.2795 58.7065C81.4073 58.6524 81.4672 58.5045 81.4135 58.3761L80.896 57.1396C80.8422 57.0112 80.6951 56.9509 80.5673 57.005Z" fill="#757575" stroke="#151116" stroke-linecap="round" stroke-linejoin="round"/>
<path d="M87.2332 54.9073L82.1307 57.0656C82.1045 57.0764 82.0765 57.0819 82.0482 57.0818C82.0199 57.0817 81.992 57.076 81.9659 57.065C81.9398 57.0541 81.9162 57.038 81.8962 57.0179C81.8763 56.9977 81.8606 56.9738 81.8498 56.9475C81.8391 56.9212 81.8336 56.893 81.8337 56.8646C81.8338 56.8362 81.8395 56.8081 81.8504 56.7819C81.8613 56.7557 81.8773 56.7319 81.8973 56.7118C81.9174 56.6918 81.9412 56.676 81.9673 56.6652L87.0699 54.5068C87.096 54.4961 87.1241 54.4906 87.1523 54.4907C87.1806 54.4908 87.2086 54.4965 87.2346 54.5074C87.2607 54.5184 87.2844 54.5344 87.3043 54.5546C87.3242 54.5748 87.34 54.5987 87.3507 54.625C87.3614 54.6513 87.3669 54.6794 87.3668 54.7078C87.3667 54.7363 87.361 54.7644 87.3501 54.7906C87.3392 54.8168 87.3233 54.8406 87.3032 54.8606C87.2831 54.8807 87.2594 54.8965 87.2332 54.9073Z" fill="#151116"/>
<path d="M86.0382 56.4169L82.4971 57.9145C82.4443 57.9363 82.385 57.9361 82.3324 57.9139C82.2797 57.8918 82.2379 57.8495 82.2163 57.7964C82.1946 57.7433 82.1948 57.6837 82.2169 57.6308C82.2389 57.5778 82.281 57.5359 82.3338 57.5141L85.8749 56.0125C85.9011 56.0017 85.9291 55.9962 85.9573 55.9963C85.9856 55.9964 86.0136 56.0021 86.0396 56.0131C86.0657 56.024 86.0894 56.0401 86.1093 56.0602C86.1292 56.0804 86.145 56.1043 86.1557 56.1306C86.1664 56.1569 86.1719 56.1851 86.1718 56.2135C86.1717 56.2419 86.166 56.27 86.1551 56.2962C86.1442 56.3224 86.1283 56.3462 86.1082 56.3663C86.0882 56.3863 86.0644 56.4021 86.0382 56.4129V56.4169Z" fill="#151116"/>
<path d="M93.9411 70.6202L52.5152 88.1432C52.4005 88.1926 52.3099 88.2855 52.2629 88.4017C52.2159 88.5179 52.2164 88.648 52.2643 88.7638C52.2882 88.8213 52.3232 88.8734 52.3672 88.9172C52.4112 88.9609 52.4634 88.9956 52.5208 89.019C52.5782 89.0424 52.6396 89.0543 52.7015 89.0538C52.7635 89.0533 52.8247 89.0405 52.8817 89.0161L94.3075 71.4932C94.4227 71.4443 94.5138 71.3515 94.5609 71.2351C94.608 71.1187 94.6071 70.9883 94.5585 70.8725C94.5099 70.7568 94.4176 70.6651 94.3018 70.6178C94.186 70.5705 94.0562 70.5714 93.9411 70.6202Z" fill="#151116"/>
<path d="M95.2556 73.7556L47.09 94.1336C47.033 94.1576 46.9812 94.1925 46.9377 94.2366C46.8941 94.2806 46.8596 94.3329 46.8361 94.3903C46.8126 94.4478 46.8006 94.5093 46.8008 94.5714C46.801 94.6335 46.8133 94.695 46.8371 94.7523C46.8609 94.8096 46.8957 94.8617 46.9395 94.9055C46.9833 94.9493 47.0353 94.984 47.0924 95.0076C47.1496 95.0312 47.2108 95.0432 47.2726 95.0431C47.3343 95.0429 47.3955 95.0305 47.4525 95.0066L95.618 74.6286C95.6751 74.6047 95.7268 74.5697 95.7704 74.5256C95.814 74.4816 95.8485 74.4294 95.872 74.3719C95.8955 74.3145 95.9075 74.2529 95.9073 74.1908C95.9071 74.1287 95.8948 74.0672 95.871 74.0099C95.8472 73.9526 95.8124 73.9006 95.7686 73.8568C95.7248 73.813 95.6728 73.7783 95.6157 73.7546C95.5585 73.731 95.4973 73.719 95.4355 73.7191C95.3737 73.7193 95.3126 73.7317 95.2556 73.7556Z" fill="#151116"/>
<path d="M96.566 76.883L48.4005 97.269C48.2853 97.3179 48.1942 97.4107 48.1471 97.5271C48.1 97.6435 48.1009 97.7739 48.1495 97.8897C48.1981 98.0055 48.2905 98.0971 48.4062 98.1444C48.522 98.1917 48.6518 98.1908 48.7669 98.142L96.9325 77.764C97.0476 77.7151 97.1387 77.6223 97.1858 77.5059C97.2329 77.3895 97.232 77.2591 97.1834 77.1433C97.1348 77.0275 97.0425 76.9359 96.9267 76.8886C96.8109 76.8413 96.6812 76.8422 96.566 76.891V76.883Z" fill="#151116"/>
<path d="M97.8804 80.0264L49.7149 100.404C49.5998 100.453 49.5084 100.545 49.461 100.661C49.4135 100.777 49.4139 100.907 49.462 101.023C49.51 101.139 49.6019 101.231 49.7173 101.278C49.8327 101.326 49.9622 101.326 50.0774 101.277L98.2469 80.8873C98.3039 80.8631 98.3556 80.8279 98.3991 80.7836C98.4426 80.7393 98.4769 80.6869 98.5002 80.6293C98.5236 80.5716 98.5353 80.5099 98.5349 80.4477C98.5345 80.3855 98.5219 80.324 98.4979 80.2667C98.4738 80.2093 98.4387 80.1574 98.3947 80.1137C98.3506 80.07 98.2985 80.0354 98.2411 80.012C98.1838 79.9886 98.1224 79.9767 98.0606 79.9771C97.9987 79.9775 97.9375 79.9902 97.8804 80.0144V80.0264Z" fill="#151116"/>
<path d="M78.96 91.723L51.0255 103.54C50.9103 103.589 50.8192 103.681 50.7721 103.798C50.725 103.914 50.7259 104.045 50.7745 104.16C50.8231 104.276 50.9154 104.368 51.0312 104.415C51.147 104.462 51.2768 104.462 51.3919 104.413L79.3265 92.592C79.3863 92.57 79.4411 92.536 79.4875 92.4921C79.5339 92.4481 79.5709 92.3952 79.5963 92.3364C79.6217 92.2776 79.6349 92.2143 79.6352 92.1502C79.6355 92.0862 79.6228 92.0227 79.5979 91.9637C79.5731 91.9047 79.5365 91.8515 79.4905 91.8071C79.4445 91.7628 79.39 91.7283 79.3304 91.7058C79.2707 91.6833 79.2071 91.6732 79.1434 91.6762C79.0798 91.6791 79.0174 91.6951 78.96 91.723Z" fill="#151116"/>
<path d="M63.5767 30.597C63.5767 30.597 64.1304 34.8376 62.5371 35.5143C61.0991 36.119 59.2071 33.8405 57.554 34.5373C55.901 35.234 57.2035 41.2646 55.6102 41.9373C54.0169 42.61 52.0969 40.1353 50.7227 40.736C49.3485 41.3366 50.177 44.416 48.759 45.0166C47.5919 45.5091 45.9149 43.0465 44.5766 42.5059C44.4533 42.4455 44.3192 42.4109 44.1823 42.404C44.0454 42.3971 43.9085 42.4181 43.7799 42.4659C42.3778 43.0585 43.0749 49.5335 41.864 50.046C41.5244 50.1897 41.1558 50.2501 40.7885 50.2222C40.339 50.139 39.8832 50.0948 39.4262 50.0901C39.2496 50.1095 39.0766 50.154 38.9124 50.2222C37.8807 50.6587 38.0201 54.0664 37.0761 54.4668C36.1321 54.8672 35.2 54.3707 34.1922 54.7952C33.1844 55.2196 33.2004 56.9935 31.6947 57.6302L32.332 59.1479L69.0218 43.6271" fill="#BFBFBF"/>
<path d="M63.5767 30.597C63.5767 30.597 64.1304 34.8376 62.5371 35.5143C61.0991 36.119 59.2071 33.8405 57.554 34.5373C55.901 35.234 57.2035 41.2646 55.6102 41.9373C54.0169 42.61 52.0969 40.1353 50.7227 40.736C49.3485 41.3366 50.177 44.416 48.759 45.0166C47.5919 45.5091 45.9149 43.0465 44.5766 42.5059C44.4533 42.4455 44.3192 42.4109 44.1823 42.404C44.0454 42.3971 43.9085 42.4181 43.7799 42.4659C42.3778 43.0585 43.0749 49.5335 41.864 50.046C41.5244 50.1897 41.1558 50.2501 40.7885 50.2222C40.339 50.139 39.8832 50.0948 39.4262 50.0901C39.2496 50.1095 39.0766 50.154 38.9124 50.2222C37.8807 50.6587 38.0201 54.0664 37.0761 54.4668C36.1321 54.8672 35.2 54.3707 34.1922 54.7952C33.1844 55.2196 33.2004 56.9935 31.6947 57.6302L32.332 59.1479L69.0218 43.6271" stroke="#151116" stroke-miterlimit="10"/>
<path d="M65.9467 36.2591C65.9467 36.2591 66.2813 38.3214 65.4727 38.6617C64.7995 38.946 64.3853 38.5496 63.6763 38.5216C63.3221 38.513 62.9707 38.5856 62.6486 38.7338C62.0033 39.0101 61.8519 39.8871 61.7284 40.8361C61.589 41.9973 61.5133 43.2627 60.6649 43.6391C60.0714 43.8914 59.4301 43.7472 58.7689 43.515C57.7133 43.1426 56.606 42.562 55.5385 43.0104C55.0167 43.2307 54.6542 43.8113 54.3714 44.496C53.7062 46.1498 53.499 48.5484 52.7781 48.8527C51.7544 49.2852 49.8783 47.5153 48.9701 47.8997C48.0619 48.2841 48.4323 49.8739 47.6954 50.1862C46.9585 50.4985 46.5363 49.5775 45.2378 50.1261C43.9392 50.6747 44.5726 52.6048 42.7403 53.3776C40.908 54.1505 40.1073 52.7289 38.3348 53.4777C36.5622 54.2266 36.8849 55.576 35.6341 56.1046C34.3834 56.6332 33.8616 55.7041 32.9653 56.1046C32.0691 56.505 31.866 57.8745 31.866 57.9666L32.3559 59.1318L69.0457 43.6111" fill="#FFBD00"/>
<path d="M65.9467 36.2591C65.9467 36.2591 66.2813 38.3214 65.4727 38.6617C64.7995 38.946 64.3853 38.5496 63.6763 38.5216C63.3221 38.513 62.9707 38.5856 62.6486 38.7338C62.0033 39.0101 61.8519 39.8871 61.7284 40.8361C61.589 41.9973 61.5133 43.2627 60.6649 43.6391C60.0714 43.8914 59.4301 43.7472 58.7689 43.515C57.7133 43.1426 56.606 42.562 55.5385 43.0104C55.0167 43.2307 54.6542 43.8113 54.3714 44.496C53.7062 46.1498 53.499 48.5484 52.7781 48.8527C51.7544 49.2852 49.8783 47.5153 48.9701 47.8997C48.0619 48.2841 48.4323 49.8739 47.6954 50.1862C46.9585 50.4985 46.5363 49.5775 45.2378 50.1261C43.9392 50.6747 44.5726 52.6048 42.7403 53.3776C40.908 54.1505 40.1073 52.7289 38.3348 53.4777C36.5622 54.2266 36.8849 55.576 35.6341 56.1046C34.3834 56.6332 33.8616 55.7041 32.9653 56.1046C32.0691 56.505 31.866 57.8745 31.866 57.9666L32.3559 59.1318L69.0457 43.6111" stroke="#151116" stroke-miterlimit="10"/>
<path d="M24.9072 41.3887L32.336 59.1359L70.7505 42.8823" stroke="#151116" stroke-linecap="round" stroke-linejoin="round"/>
<path d="M58.6494 50.054L45.903 55.4519C45.7879 55.5007 45.6967 55.5936 45.6497 55.71C45.6026 55.8264 45.6035 55.9568 45.6521 56.0725C45.7007 56.1883 45.793 56.2799 45.9088 56.3272C46.0246 56.3745 46.1543 56.3737 46.2695 56.3248L59.0159 50.923C59.1213 50.8687 59.2024 50.7764 59.243 50.6645C59.2836 50.5527 59.2808 50.4296 59.235 50.3198C59.1892 50.21 59.1038 50.1216 58.996 50.0723C58.8882 50.0231 58.7658 50.0165 58.6534 50.054H58.6494Z" fill="#151116"/>
<path d="M68.2228 27.522L66.9929 28.0423C66.8652 28.0963 66.8052 28.2442 66.8589 28.3727L67.3764 29.6091C67.4302 29.7375 67.5773 29.7978 67.7051 29.7438L68.935 29.2235C69.0628 29.1695 69.1227 29.0216 69.069 28.8932L68.5515 27.6567C68.4977 27.5283 68.3506 27.468 68.2228 27.522Z" fill="#BFBFBF" stroke="#151116" stroke-miterlimit="10"/>
<path d="M74.8851 25.4235L69.7866 27.5818C69.761 27.593 69.7334 27.599 69.7055 27.5994C69.6776 27.5998 69.6498 27.5947 69.6239 27.5843C69.598 27.5738 69.5743 27.5583 69.5544 27.5387C69.5345 27.519 69.5186 27.4955 69.5078 27.4697C69.4876 27.417 69.4883 27.3585 69.5098 27.3063C69.5313 27.2542 69.5719 27.2123 69.6233 27.1894L74.7218 25.035C74.7747 25.0133 74.8339 25.0135 74.8866 25.0356C74.9392 25.0578 74.981 25.1001 75.0026 25.1532C75.0243 25.2063 75.0241 25.2658 75.0021 25.3188C74.98 25.3717 74.938 25.4137 74.8851 25.4355V25.4235Z" fill="#151116"/>
<path d="M73.6902 26.9331L70.149 28.4307C70.0973 28.4519 70.0393 28.4515 69.9877 28.4297C69.9362 28.408 69.8954 28.3666 69.8742 28.3146C69.8631 28.2891 69.8572 28.2617 69.8568 28.2339C69.8565 28.2061 69.8616 28.1785 69.872 28.1528C69.8824 28.127 69.8978 28.1036 69.9173 28.084C69.9369 28.0643 69.9601 28.0488 69.9857 28.0383L73.5308 26.5407C73.557 26.5299 73.585 26.5244 73.6133 26.5245C73.6415 26.5246 73.6695 26.5303 73.6956 26.5413C73.7217 26.5522 73.7453 26.5682 73.7652 26.5884C73.7852 26.6086 73.8009 26.6325 73.8116 26.6588C73.8224 26.6851 73.8278 26.7132 73.8277 26.7417C73.8276 26.7701 73.822 26.7982 73.8111 26.8244C73.8001 26.8506 73.7842 26.8744 73.7641 26.8944C73.7441 26.9145 73.7203 26.9303 73.6941 26.9411L73.6902 26.9331Z" fill="#151116"/>
<path d="M69.8195 31.33L68.5896 31.8502C68.4618 31.9043 68.4019 32.0522 68.4556 32.1806L68.9731 33.4171C69.0269 33.5455 69.174 33.6058 69.3018 33.5517L70.5317 33.0315C70.6594 32.9774 70.7194 32.8295 70.6657 32.7011L70.1482 31.4647C70.0944 31.3362 69.9473 31.2759 69.8195 31.33Z" fill="#FFBD00" stroke="#151116" stroke-miterlimit="10"/>
<path d="M76.4785 29.2316L71.3879 31.3939C71.3366 31.4153 71.279 31.4155 71.2275 31.3945C71.1761 31.3736 71.135 31.333 71.113 31.2818C71.0916 31.2297 71.0912 31.1712 71.1121 31.1188C71.1329 31.0665 71.1733 31.0243 71.2245 31.0015L76.3271 28.8311C76.3533 28.8204 76.3813 28.8149 76.4095 28.815C76.4378 28.8151 76.4658 28.8208 76.4919 28.8317C76.5179 28.8427 76.5416 28.8587 76.5615 28.8789C76.5814 28.8991 76.5972 28.923 76.6079 28.9493C76.6186 28.9756 76.6241 29.0037 76.624 29.0321C76.6239 29.0605 76.6182 29.0887 76.6073 29.1149C76.5964 29.1411 76.5805 29.1649 76.5604 29.1849C76.5404 29.2049 76.5166 29.2208 76.4904 29.2316H76.4785Z" fill="#151116"/>
<path d="M75.2835 30.7452L71.7423 32.2428C71.7162 32.2536 71.6882 32.2591 71.6599 32.259C71.6316 32.2589 71.6037 32.2532 71.5776 32.2422C71.5515 32.2312 71.5279 32.2152 71.5079 32.1951C71.488 32.1749 71.4722 32.151 71.4615 32.1247C71.4508 32.0984 71.4453 32.0702 71.4454 32.0418C71.4455 32.0134 71.4512 31.9853 71.4621 31.9591C71.473 31.9329 71.489 31.9091 71.509 31.889C71.5291 31.869 71.5529 31.8532 71.579 31.8424L75.1201 30.3408C75.1726 30.3205 75.2307 30.3212 75.2826 30.3429C75.3345 30.3645 75.3762 30.4053 75.399 30.4569C75.4113 30.4833 75.4181 30.512 75.4189 30.5411C75.4197 30.5703 75.4145 30.5993 75.4037 30.6263C75.3928 30.6534 75.3766 30.6779 75.3559 30.6984C75.3352 30.7188 75.3105 30.7347 75.2835 30.7452Z" fill="#151116"/>
<path opacity="0.2" d="M53.8297 110.119L48.3049 112.457L37.8927 87.5746C38.8228 86.647 39.4328 85.4444 39.6334 84.1429C40.2548 80.8113 39.8166 70.0997 48.1137 68.9945C56.4109 67.8893 49.4123 86.6456 49.7947 90.2174C50.1452 93.4769 54.8733 102.939 53.8297 110.119Z" fill="black" fill-opacity="0.7"/>
<path d="M107.428 87.4304L53.8297 110.107L48.305 112.445L37.8927 87.5746L13.7144 29.8202L72.8378 4.80519L107.428 87.4304Z" stroke="#151116" stroke-linecap="round" stroke-linejoin="round"/>
<path d="M50.4917 91.5789C51.4238 88.3754 55.0565 78.1203 54.5785 73.5834C54.5405 73.2057 54.4548 72.8343 54.3236 72.4783C53.0489 69.0866 47.8388 69.415 45.8392 72.222C43.6405 75.3133 41.856 80.8673 41.6927 84.235C41.5535 85.9234 41.0066 87.5523 40.0993 88.9801C39.7881 89.5085 39.4365 90.0119 39.0478 90.4857L27.1657 62.1591C25.9646 63.1717 24.9167 64.3547 24.0548 65.6709C23.5718 66.391 23.2598 67.213 23.1426 68.0735C22.8957 70.8765 19.7489 82.3409 18.4424 87.1861C18.4185 87.2902 18.3866 87.3864 18.3627 87.4825C17.104 92.1355 20.426 109.418 19.478 114.44C18.53 119.461 17.9246 119.357 17.7971 122.933C17.6975 125.536 13.9931 133.448 9.83058 141.573C7.44063 146.23 4.92321 150.951 2.83997 154.787L33.2402 153.518C33.766 149.806 34.3077 145.886 34.8016 142.093C35.0163 140.513 35.3195 138.946 35.7098 137.4C36.379 134.677 37.1995 132.195 37.7014 130.769C38.3467 128.652 38.8785 126.501 39.2947 124.326C42.8279 120.562 47.4644 114.652 48.8068 110.643V110.619C49.136 109.794 49.2405 108.896 49.1095 108.017C48.9611 107.297 48.8798 106.565 48.8665 105.83C48.7271 101.462 49.7149 94.2418 50.4917 91.5789Z" fill="white"/>
<path opacity="0.4" d="M40.1073 89.0121C39.1673 90.9142 38.0321 92.7602 37.3191 94.8945C36.6061 97.0288 35.8134 97.3251 33.6863 98.9949C31.5593 100.665 30.0058 97.9137 30.0058 97.9137C30.0058 97.9137 32.822 94.9746 31.8859 93.3408C30.9498 91.707 27.4446 87.6266 27.6517 85.3802C27.8588 83.1338 25.5167 78.0843 25.5167 78.0843C25.5167 78.0843 30.8263 74.9529 29.7947 71.277C29.233 69.2748 26.4527 67.1365 24.0548 65.6229C24.9182 64.3137 25.9661 63.1375 27.1657 62.1311L39.0558 90.4897C39.4433 90.0249 39.7949 89.5309 40.1073 89.0121Z" fill="#FFBD00"/>
<path opacity="0.4" d="M20.8284 106.407C20.9001 106.647 22.6288 112.385 21.1709 114.776C19.713 117.167 18.2153 120.338 18.9283 123.585C19.494 126.176 14.718 135.55 9.84253 141.561C13.9931 133.436 17.6975 125.544 17.809 122.921C17.9485 119.357 18.534 119.465 19.49 114.448C20.446 109.43 17.1 92.1435 18.3747 87.4905C18.3986 87.3943 18.4304 87.2982 18.4543 87.1941C19.3824 92.4638 21.5453 102.967 22.1388 106.347C22.8837 110.647 20.908 106.575 20.8284 106.407Z" fill="#FFBD00"/>
<path opacity="0.4" d="M31.7744 141.032C35.3076 125.744 47.1976 114.015 48.8068 110.619C47.4645 114.624 42.8319 120.538 39.2948 124.302C38.8786 126.477 38.3467 128.628 37.7015 130.745C37.2076 132.187 36.387 134.653 35.7099 137.376C32.2644 141.469 31.7744 141.032 31.7744 141.032Z" fill="#FFBD00"/>
<path opacity="0.4" d="M50.4917 91.5789C49.695 94.2418 48.7271 101.462 48.8785 105.798C48.2531 103.075 47.0502 99.6196 46.851 94.8024C46.5124 86.6335 51.1171 89.5607 49.5118 85.5404C47.9066 81.52 43.3298 86.6736 45.5843 78.1524C47.2334 71.9337 51.9177 71.9937 54.3236 72.4783C54.4548 72.8343 54.5405 73.2057 54.5785 73.5834C55.0565 78.1203 51.4238 88.3834 50.4917 91.5789Z" fill="#FFBD00"/>
<path d="M7.47656 146.33C11.2885 139.326 14.993 132.123 17.6657 124.354C17.9884 123.237 17.5622 121.783 17.8808 120.666C21.4897 110.575 17.3949 100.072 18.068 89.7369C18.6297 85.6645 19.9282 81.5601 21.2228 77.4596C21.8322 74.4884 22.0593 71.1648 23.0352 68.1816C24.0389 65.9312 25.0268 63.3124 27.1658 62.1751C31.2287 71.5372 35.2797 80.9354 39.0558 90.5338C40.7607 89.5407 41.0474 87.3303 41.3223 85.4683C42.2384 81.0155 43.1665 76.9271 44.8435 73.175C46.5483 70.1598 50.8901 68.8744 53.5549 71.341C54.3205 72.1082 54.7579 73.1456 54.7737 74.2322C54.2559 79.4097 52.6387 84.6434 51.0096 89.4806C50.3683 91.719 49.715 93.585 49.4402 95.8034C49.472 96.5402 49.484 96.9086 49.5158 97.6414C48.5718 101.361 49.4402 104.641 49.2251 108.329C48.4005 114.988 43.1028 119.629 39.2669 124.575C38.3229 128.295 37.3749 132.015 36.0803 135.751C34.487 141.337 33.9772 146.879 33.4315 152.264" stroke="#151116" stroke-linecap="round" stroke-linejoin="round"/>
<path d="M39.0558 90.5177C38.3364 91.921 37.7496 93.389 37.3032 94.9025C36.8053 96.8646 34.2838 96.5803 32.9813 97.8016" stroke="#151116" stroke-linecap="round" stroke-linejoin="round"/>
<path d="M29.5438 87.062C29.5438 87.062 32.9774 88.2633 34.973 89.865C36.9686 91.4668 38.4464 91.8151 38.4464 91.8151" stroke="#151116" stroke-linecap="round" stroke-linejoin="round"/>
<path d="M27.3569 78.5128C27.3569 78.5128 30.1253 79.3136 32.1767 78.3126C32.2717 77.315 32.4462 76.3268 32.6985 75.3574" stroke="#151116" stroke-linecap="round" stroke-linejoin="round"/>
<path d="M32.8379 78.717C32.8379 78.717 32.8658 79.1174 34.2758 79.1174" stroke="#151116" stroke-linecap="round" stroke-linejoin="round"/>
<path d="M39.2908 124.302C37.3605 126.258 35.8763 128.612 34.941 131.202" stroke="#151116" stroke-linecap="round" stroke-linejoin="round"/>
<path d="M18.1995 88.3474C18.076 90.75 20.8763 99.2672 21.7287 103.504C22.5811 107.74 22.8958 110.736 22.8958 110.736" stroke="#151116" stroke-linecap="round" stroke-linejoin="round"/>
</g>
<defs>
<clipPath id="clip0_1123_46610">
<rect width="177" height="163" fill="white"/>
</clipPath>
</defs>
</svg>
