<svg width="16" height="10" viewBox="0 0 16 10" fill="none" xmlns="http://www.w3.org/2000/svg">
<path d="M7.85749 4.1073L14.2277 0.135304C14.1584 0.124324 14.0881 0.117188 14.0161 0.117188H1.69892C1.62687 0.117188 1.55646 0.124599 1.48743 0.135304L7.85749 4.1073Z" fill="white"/>
<path d="M8.25808 5.64314C8.24957 5.64863 8.24024 5.65219 8.23146 5.65741C8.22226 5.66249 8.21238 5.66743 8.20319 5.67209C8.15309 5.6979 8.10149 5.71862 8.04879 5.73235C8.0433 5.73385 8.03808 5.73468 8.03287 5.73578C7.97481 5.74936 7.91648 5.75774 7.85802 5.75774C7.85788 5.75774 7.8576 5.75774 7.85747 5.75774C7.85733 5.75774 7.85706 5.75774 7.85678 5.75774C7.79832 5.75774 7.73985 5.7495 7.68207 5.73578C7.67672 5.73454 7.67123 5.73372 7.66587 5.73235C7.61317 5.71848 7.56198 5.69776 7.51161 5.67209C7.50214 5.66743 7.49253 5.66249 7.4832 5.65741C7.47428 5.65233 7.46509 5.64876 7.4563 5.64314L0.378054 1.22949C0.36529 1.30402 0.357056 1.38032 0.357056 1.45883V8.54188C0.357056 9.28272 0.9575 9.8833 1.69848 9.8833H14.0156C14.7565 9.8833 15.3571 9.28272 15.3571 8.54188V1.45883C15.3571 1.38032 15.349 1.30415 15.3359 1.22949L8.25808 5.64314Z" fill="white"/>
</svg>
