<svg width="14" height="14" viewBox="0 0 14 14" fill="none" xmlns="http://www.w3.org/2000/svg">
<g clip-path="url(#clip0_1_848)">
<path d="M7.12946 0.875C3.79827 0.875 1.09774 3.55422 1.09774 6.86033C1.09774 7.9912 1.41368 9.04809 1.96281 9.95078L0.874573 13.1616L4.21451 12.1009C5.07833 12.5748 6.07254 12.8456 7.12946 12.8456C10.4606 12.8456 13.1612 10.1652 13.1612 6.86033C13.1612 3.55422 10.4606 0.875 7.12946 0.875ZM10.1284 9.13335C9.98672 9.48564 9.34481 9.8066 9.06147 9.82039C8.77812 9.83544 8.7706 10.0398 7.22851 9.3703C5.6864 8.70081 4.75863 7.07096 4.68592 6.96564C4.6132 6.86158 4.08914 6.11434 4.11672 5.3621C4.14556 4.60986 4.55678 4.25506 4.70347 4.10837C4.85016 3.96043 5.01816 3.9341 5.12096 3.93285C5.24257 3.93034 5.32156 3.92909 5.41057 3.93285C5.50084 3.93661 5.63499 3.91404 5.75159 4.22497C5.86819 4.53589 6.14777 5.29816 6.18287 5.37715C6.21798 5.45488 6.24054 5.54515 6.18538 5.64545C6.13022 5.74575 6.10138 5.80843 6.02239 5.89494C5.94216 5.98145 5.85314 6.08801 5.78168 6.15446C5.70144 6.22718 5.61744 6.30742 5.70269 6.46413C5.78669 6.62085 6.07756 7.13239 6.51887 7.55364C7.08684 8.09526 7.57705 8.27579 7.72875 8.35729C7.88045 8.44003 7.97072 8.43 8.06349 8.33221C8.15627 8.23317 8.46469 7.90093 8.57376 7.75173C8.68284 7.60254 8.78439 7.63138 8.92355 7.68779C9.06272 7.74421 9.80493 8.14164 9.95663 8.22439C10.1083 8.30588 10.2086 8.34851 10.245 8.4137C10.2813 8.47514 10.2701 8.78105 10.1284 9.13335Z" fill="white"/>
</g>
<defs>
<clipPath id="clip0_1_848">
<rect width="12.5373" height="12.5373" fill="white" transform="translate(0.750061 0.749756)"/>
</clipPath>
</defs>
</svg>
