<svg width="16" height="16" viewBox="0 0 16 16" fill="none" xmlns="http://www.w3.org/2000/svg">
<path d="M12.2141 6.59375H11.2766C11.2762 6.2209 11.128 5.86343 10.8643 5.59979C10.6007 5.33615 10.2432 5.18787 9.87036 5.1875V4.25C10.4917 4.25074 11.0874 4.49791 11.5268 4.93729C11.9662 5.37667 12.2134 5.97238 12.2141 6.59375Z" fill="white"/>
<path d="M14.0887 6.59375H13.1512C13.1502 5.72382 12.8041 4.8898 12.189 4.27466C11.5739 3.65952 10.7398 3.3135 9.86991 3.3125V2.375C10.9884 2.37624 12.0607 2.82112 12.8516 3.61202C13.6425 4.40292 14.0874 5.47525 14.0887 6.59375ZM10.4948 10.5697L11.5448 9.51969C11.6853 9.37911 11.864 9.28286 12.0587 9.24286C12.2535 9.20287 12.4556 9.22089 12.6402 9.29469L13.919 9.80657C14.1074 9.88198 14.269 10.0121 14.3828 10.1802C14.4966 10.3483 14.5574 10.5467 14.5574 10.7497V13.0752C14.5577 13.2134 14.5299 13.3502 14.4755 13.4773C14.4211 13.6043 14.3413 13.719 14.2411 13.8141C14.1409 13.9093 14.0223 13.9831 13.8926 14.0308C13.7629 14.0786 13.6248 14.0993 13.4868 14.0919C4.52335 13.5341 2.71304 5.94219 2.37694 3.035C2.36067 2.89288 2.37466 2.74891 2.41801 2.61258C2.46136 2.47625 2.53309 2.35065 2.62846 2.24402C2.72384 2.1374 2.84071 2.05218 2.97138 1.99396C3.10206 1.93575 3.24358 1.90585 3.38663 1.90625H5.67085C5.87385 1.90625 6.0722 1.96707 6.2403 2.08086C6.40841 2.19466 6.53856 2.35622 6.61397 2.54469L7.12538 3.82344C7.19918 4.00802 7.2172 4.2102 7.17721 4.40493C7.13721 4.59965 7.04096 4.77836 6.90038 4.91891L5.85038 5.96891C5.85038 5.96891 6.43257 10.062 10.4948 10.5697Z" fill="white"/>
</svg>
