<svg width="140" height="27" viewBox="0 0 140 27"><path d="M20 8.64v8.4c0 5.5-4.48 9.96-10 9.96S0 22.54 0 17.04V8.52l2.9-2.88v11.4a7.1 7.1 0 007.1 7.08 7.1 7.1 0 007.1-7.08V5.76zM11.32 0v17.1a1.45 1.45 0 01-2.9 0V.14L5.54 3v14.1a4.34 4.34 0 008.68 0V2.88z"></path><path fill="currentColor" d="M127.23 22.88V8.08h3.34v6.38l5.3-6.38h3.76l-5.42 6.6 5.79 8.2h-3.82l-4.1-5.96-1.5 1.6v4.35zm-16.01-7.53a7.6 7.6 0 011.92-5.02A7 7 0 01118.49 8c1.35 0 2.53.3 3.53.9 1 .6 1.75 1.37 2.24 2.33l-2.57 1.83a3.06 3.06 0 00-1.45-1.6 4.18 4.18 0 00-1.84-.42 3.4 3.4 0 00-2.86 1.42c-.3.41-.54.89-.69 1.41a5.85 5.85 0 00.04 3.3c.18.54.43 1.02.77 1.43a3.39 3.39 0 002.79 1.35 3.99 3.99 0 001.84-.46 3.18 3.18 0 001.4-1.57l2.73 1.64a4.35 4.35 0 01-.97 1.46c-.43.43-.92.8-1.48 1.08a7.82 7.82 0 01-3.61.9 6.38 6.38 0 01-2.89-.66 7.32 7.32 0 01-2.26-1.74 7.99 7.99 0 01-2-5.25zm-2.02 4.52v3H99V8.09h10.01v3h-6.66v2.88h5.72v2.77h-5.72v3.15zM95.1 8.08v14.8h-3.35V16.8h-5.78v6.06h-3.34V8.09h3.34v5.73h5.78V8.09zm-28.48 7.27a7.6 7.6 0 011.92-5.02A7 7 0 0173.89 8c1.35 0 2.53.3 3.53.9 1 .6 1.75 1.37 2.24 2.33l-2.57 1.83a3.06 3.06 0 00-1.45-1.6 4.18 4.18 0 00-1.84-.42 3.4 3.4 0 00-2.85 1.42c-.32.41-.55.89-.7 1.41a5.85 5.85 0 00.04 3.3c.18.54.43 1.02.77 1.43a3.39 3.39 0 002.79 1.35 3.99 3.99 0 001.84-.46 3 3 0 00.8-.63c.25-.25.45-.57.6-.94l2.73 1.64a4.35 4.35 0 01-.97 1.46c-.43.43-.92.8-1.48 1.08a7.82 7.82 0 01-3.6.9 6.38 6.38 0 01-2.9-.66 7.32 7.32 0 01-2.26-1.74 7.99 7.99 0 01-2-5.25zm-6.42 7.52V8.09h3.35v14.8zm-13.27-8.45v8.46h-3.35V8.08h2.61l6.76 8.7v-8.7h3.34v14.8h-2.7zm-13.5 5.54a2.67 2.67 0 002.41-1.34c.24-.4.41-.86.52-1.38.1-.52.15-1.05.15-1.6V8.08h3.35v7.57c0 1.02-.13 1.98-.38 2.87a6.67 6.67 0 01-1.17 2.33 5.46 5.46 0 01-2 1.58 6.7 6.7 0 01-2.88.57c-1.16 0-2.14-.2-2.96-.6a5.5 5.5 0 01-2-1.62 6.71 6.71 0 01-1.11-2.34c-.24-.9-.36-1.82-.36-2.8V8.08h3.35v7.57c0 .57.05 1.1.16 1.62.1.51.29.97.53 1.38.25.4.56.72.95.95.39.24.87.36 1.44.36z"></path></svg>