<svg width="40" height="40" viewBox="0 0 40 40" fill="none" xmlns="http://www.w3.org/2000/svg">
<path d="M20 38.125C16.675 38.125 13.4187 37.2062 10.5688 35.475L2.69375 38.0812C2.46875 38.1562 2.225 38.1 2.05625 37.9312C1.8875 37.7625 1.83125 37.5187 1.90625 37.2937L4.525 29.4312C2.79375 26.5812 1.875 23.325 1.875 20C1.875 10.0063 10.0063 1.875 20 1.875C29.9937 1.875 38.125 10.0063 38.125 20C38.125 29.9937 29.9937 38.125 20 38.125ZM10.65 34.1625C10.7688 34.1625 10.8813 34.1938 10.9812 34.2563C13.6938 35.9688 16.8125 36.875 20 36.875C29.3062 36.875 36.875 29.3062 36.875 20C36.875 10.6937 29.3062 3.125 20 3.125C10.6938 3.125 3.125 10.6937 3.125 20C3.125 23.1875 4.03125 26.3062 5.74375 29.0187C5.84375 29.175 5.86875 29.375 5.80625 29.55L3.4875 36.5L10.4563 34.1937C10.5188 34.175 10.5813 34.1625 10.65 34.1625ZM24.925 29.375C23.325 29.375 21.7562 29.1 20.2625 28.5562C16.4375 27.1687 13.4438 24.1812 12.0625 20.3563C11.5188 18.8625 11.25 17.2938 11.25 15.6938C11.25 14.0938 11.525 12.5312 12.0625 11.0312C12.175 10.725 12.5 10.5563 12.8125 10.6438L17.1625 11.8313C17.4312 11.9062 17.625 12.15 17.625 12.4312V18.9562C17.625 19.2375 17.4375 19.4875 17.1625 19.5563L17.1375 19.5625C17.9813 21.25 19.3625 22.6313 21.05 23.475L21.0562 23.45C21.1312 23.175 21.375 22.9875 21.6563 22.9875H28.1812C28.4625 22.9875 28.7125 23.175 28.7812 23.45L29.9625 27.8C30.05 28.1125 29.8812 28.4375 29.575 28.55C28.0938 29.1 26.525 29.375 24.925 29.375ZM13.0563 12.0062C12.6875 13.2 12.5 14.4375 12.5 15.7C12.5 17.15 12.75 18.575 13.2438 19.9375C14.5 23.4125 17.2188 26.1313 20.6938 27.3875C23.225 28.3062 26.05 28.3687 28.6187 27.5688L27.7125 24.25H22.1375L22.0625 24.5187C22.0125 24.6875 21.9 24.8313 21.7375 24.9125C21.5812 24.9937 21.3937 25 21.225 24.9312C18.7125 23.925 16.6938 21.9062 15.6813 19.3875C15.6125 19.225 15.625 19.0375 15.7 18.875C15.7813 18.7188 15.925 18.6 16.0938 18.55L16.3625 18.475V12.9L13.0563 12.0062Z" fill="#151116"/>
</svg>
